  0
SECTION
  2
HEADER
  9
$ACADVER
  1
AC1032
  9
$ACADMAINTVER
 90
       55
  9
$DWGCODEPAGE
  3
ISO8859-1
  9
$LASTSAVEDBY
  1
noxet
  9
$REQUIREDVERSIONS
160
                 0
  9
$INSBASE
 10
0.0
 20
0.0
 30
0.0
  9
$EXTMIN
 10
1.000000000000000E+20
 20
1.000000000000000E+20
 30
1.000000000000000E+20
  9
$EXTMAX
 10
-1.000000000000000E+20
 20
-1.000000000000000E+20
 30
-1.000000000000000E+20
  9
$LIMMIN
 10
0.0
 20
0.0
  9
$LIMMAX
 10
420.0
 20
297.0
  9
$ORTHOMODE
 70
     0
  9
$REGENMODE
 70
     1
  9
$FILLMODE
 70
     1
  9
$QTEXTMODE
 70
     0
  9
$MIRRTEXT
 70
     1
  9
$LTSCALE
 40
1.0
  9
$ATTMODE
 70
     1
  9
$TEXTSIZE
 40
2.5
  9
$TRACEWID
 40
1.0
  9
$TEXTSTYLE
  7
Standard
  9
$CLAYER
  8
0
  9
$CELTYPE
  6
ByLayer
  9
$CECOLOR
 62
   256
  9
$CELTSCALE
 40
1.0
  9
$DISPSILH
 70
     0
  9
$DIMSCALE
 40
1.0
  9
$DIMASZ
 40
2.5
  9
$DIMEXO
 40
0.625
  9
$DIMDLI
 40
3.75
  9
$DIMRND
 40
0.0
  9
$DIMDLE
 40
0.0
  9
$DIMEXE
 40
1.25
  9
$DIMTP
 40
0.0
  9
$DIMTM
 40
0.0
  9
$DIMTXT
 40
2.5
  9
$DIMCEN
 40
2.5
  9
$DIMTSZ
 40
0.0
  9
$DIMTOL
 70
     0
  9
$DIMLIM
 70
     0
  9
$DIMTIH
 70
     0
  9
$DIMTOH
 70
     0
  9
$DIMSE1
 70
     0
  9
$DIMSE2
 70
     0
  9
$DIMTAD
 70
     1
  9
$DIMZIN
 70
     8
  9
$DIMBLK
  1

  9
$DIMASO
 70
     1
  9
$DIMSHO
 70
     1
  9
$DIMPOST
  1

  9
$DIMAPOST
  1

  9
$DIMALT
 70
     0
  9
$DIMALTD
 70
     3
  9
$DIMALTF
 40
0.03937007874016
  9
$DIMLFAC
 40
1.0
  9
$DIMTOFL
 70
     1
  9
$DIMTVP
 40
0.0
  9
$DIMTIX
 70
     0
  9
$DIMSOXD
 70
     0
  9
$DIMSAH
 70
     0
  9
$DIMBLK1
  1

  9
$DIMBLK2
  1

  9
$DIMSTYLE
  2
ISO-25
  9
$DIMCLRD
 70
     0
  9
$DIMCLRE
 70
     0
  9
$DIMCLRT
 70
     0
  9
$DIMTFAC
 40
1.0
  9
$DIMGAP
 40
0.625
  9
$DIMJUST
 70
     0
  9
$DIMSD1
 70
     0
  9
$DIMSD2
 70
     0
  9
$DIMTOLJ
 70
     0
  9
$DIMTZIN
 70
     8
  9
$DIMALTZ
 70
     0
  9
$DIMALTTZ
 70
     0
  9
$DIMUPT
 70
     0
  9
$DIMDEC
 70
     2
  9
$DIMTDEC
 70
     2
  9
$DIMALTU
 70
     2
  9
$DIMALTTD
 70
     3
  9
$DIMTXSTY
  7
Standard
  9
$DIMAUNIT
 70
     0
  9
$DIMADEC
 70
     0
  9
$DIMALTRND
 40
0.0
  9
$DIMAZIN
 70
     0
  9
$DIMDSEP
 70
    44
  9
$DIMATFIT
 70
     3
  9
$DIMFRAC
 70
     0
  9
$DIMLDRBLK
  1

  9
$DIMLUNIT
 70
     2
  9
$DIMLWD
 70
    -2
  9
$DIMLWE
 70
    -2
  9
$DIMTMOVE
 70
     0
  9
$DIMFXL
 40
1.0
  9
$DIMFXLON
 70
     0
  9
$DIMJOGANG
 40
0.7853981633974483
  9
$DIMTFILL
 70
     0
  9
$DIMTFILLCLR
 70
     0
  9
$DIMARCSYM
 70
     0
  9
$DIMLTYPE
  6

  9
$DIMLTEX1
  6

  9
$DIMLTEX2
  6

  9
$DIMTXTDIRECTION
 70
     0
  9
$LUNITS
 70
     2
  9
$LUPREC
 70
     4
  9
$SKETCHINC
 40
1.0
  9
$FILLETRAD
 40
0.0
  9
$AUNITS
 70
     0
  9
$AUPREC
 70
     0
  9
$MENU
  1
.
  9
$ELEVATION
 40
0.0
  9
$PELEVATION
 40
0.0
  9
$THICKNESS
 40
0.0
  9
$LIMCHECK
 70
     0
  9
$CHAMFERA
 40
0.0
  9
$CHAMFERB
 40
0.0
  9
$CHAMFERC
 40
0.0
  9
$CHAMFERD
 40
0.0
  9
$SKPOLY
 70
     0
  9
$TDCREATE
 40
2460574.055979109
  9
$TDUCREATE
 40
2460573.972645775
  9
$TDUPDATE
 40
2460574.055979155
  9
$TDUUPDATE
 40
2460573.972645822
  9
$TDINDWG
 40
0.0000000116
  9
$TDUSRTIMER
 40
0.0000000116
  9
$USRTIMER
 70
     1
  9
$ANGBASE
 50
0.0
  9
$ANGDIR
 70
     0
  9
$PDMODE
 70
     0
  9
$PDSIZE
 40
0.0
  9
$PLINEWID
 40
0.0
  9
$SPLFRAME
 70
     0
  9
$SPLINETYPE
 70
     6
  9
$SPLINESEGS
 70
     8
  9
$HANDSEED
  5
138
  9
$SURFTAB1
 70
     6
  9
$SURFTAB2
 70
     6
  9
$SURFTYPE
 70
     6
  9
$SURFU
 70
     6
  9
$SURFV
 70
     6
  9
$UCSBASE
  2

  9
$UCSNAME
  2

  9
$UCSORG
 10
0.0
 20
0.0
 30
0.0
  9
$UCSXDIR
 10
1.0
 20
0.0
 30
0.0
  9
$UCSYDIR
 10
0.0
 20
1.0
 30
0.0
  9
$UCSORTHOREF
  2

  9
$UCSORTHOVIEW
 70
     0
  9
$UCSORGTOP
 10
0.0
 20
0.0
 30
0.0
  9
$UCSORGBOTTOM
 10
0.0
 20
0.0
 30
0.0
  9
$UCSORGLEFT
 10
0.0
 20
0.0
 30
0.0
  9
$UCSORGRIGHT
 10
0.0
 20
0.0
 30
0.0
  9
$UCSORGFRONT
 10
0.0
 20
0.0
 30
0.0
  9
$UCSORGBACK
 10
0.0
 20
0.0
 30
0.0
  9
$PUCSBASE
  2

  9
$PUCSNAME
  2

  9
$PUCSORG
 10
0.0
 20
0.0
 30
0.0
  9
$PUCSXDIR
 10
1.0
 20
0.0
 30
0.0
  9
$PUCSYDIR
 10
0.0
 20
1.0
 30
0.0
  9
$PUCSORTHOREF
  2

  9
$PUCSORTHOVIEW
 70
     0
  9
$PUCSORGTOP
 10
0.0
 20
0.0
 30
0.0
  9
$PUCSORGBOTTOM
 10
0.0
 20
0.0
 30
0.0
  9
$PUCSORGLEFT
 10
0.0
 20
0.0
 30
0.0
  9
$PUCSORGRIGHT
 10
0.0
 20
0.0
 30
0.0
  9
$PUCSORGFRONT
 10
0.0
 20
0.0
 30
0.0
  9
$PUCSORGBACK
 10
0.0
 20
0.0
 30
0.0
  9
$USERI1
 70
     0
  9
$USERI2
 70
     0
  9
$USERI3
 70
     0
  9
$USERI4
 70
     0
  9
$USERI5
 70
     0
  9
$USERR1
 40
0.0
  9
$USERR2
 40
0.0
  9
$USERR3
 40
0.0
  9
$USERR4
 40
0.0
  9
$USERR5
 40
0.0
  9
$WORLDVIEW
 70
     1
  9
$SHADEDGE
 70
     3
  9
$SHADEDIF
 70
    70
  9
$TILEMODE
 70
     1
  9
$MAXACTVP
 70
    64
  9
$PINSBASE
 10
0.0
 20
0.0
 30
0.0
  9
$PLIMCHECK
 70
     0
  9
$PEXTMIN
 10
15.11256291367649
 20
17.64655930926664
 30
0.0
  9
$PEXTMAX
 10
0.0
 20
0.0
 30
0.0
  9
$PLIMMIN
 10
-20.0
 20
-7.5
  9
$PLIMMAX
 10
277.0
 20
202.5
  9
$UNITMODE
 70
     0
  9
$VISRETAIN
 70
     1
  9
$PLINEGEN
 70
     0
  9
$PSLTSCALE
 70
     1
  9
$TREEDEPTH
 70
  3020
  9
$CMLSTYLE
  2
Standard
  9
$CMLJUST
 70
     0
  9
$CMLSCALE
 40
20.0
  9
$PROXYGRAPHICS
 70
     1
  9
$MEASUREMENT
 70
     1
  9
$CELWEIGHT
370
    -1
  9
$ENDCAPS
280
     0
  9
$JOINSTYLE
280
     0
  9
$LWDISPLAY
290
     0
  9
$INSUNITS
 70
     4
  9
$HYPERLINKBASE
  1

  9
$STYLESHEET
  1

  9
$XEDIT
290
     1
  9
$CEPSNTYPE
380
     0
  9
$PSTYLEMODE
290
     1
  9
$FINGERPRINTGUID
  2
{17cefea9-e414-49b3-b4ed-43372a27950b}
  9
$VERSIONGUID
  2
{FAEB1C32-E019-11D5-929B-00C0DF256EC4}
  9
$EXTNAMES
290
     1
  9
$PSVPSCALE
 40
0.0
  9
$OLESTARTUP
290
     0
  9
$SORTENTS
280
   127
  9
$INDEXCTL
280
     0
  9
$HIDETEXT
280
     1
  9
$XCLIPFRAME
280
     2
  9
$HALOGAP
280
     0
  9
$OBSCOLOR
 70
   257
  9
$OBSLTYPE
280
     0
  9
$INTERSECTIONDISPLAY
280
     0
  9
$INTERSECTIONCOLOR
 70
   257
  9
$DIMASSOC
280
     2
  9
$PROJECTNAME
  1

  9
$CAMERADISPLAY
290
     0
  9
$LENSLENGTH
 40
50.0
  9
$CAMERAHEIGHT
 40
0.0
  9
$STEPSPERSEC
 40
2.0
  9
$STEPSIZE
 40
6.0
  9
$3DDWFPREC
 40
2.0
  9
$PSOLWIDTH
 40
5.0
  9
$PSOLHEIGHT
 40
80.0
  9
$LOFTANG1
 40
1.570796326794897
  9
$LOFTANG2
 40
1.570796326794897
  9
$LOFTMAG1
 40
0.0
  9
$LOFTMAG2
 40
0.0
  9
$LOFTPARAM
 70
     7
  9
$LOFTNORMALS
280
     1
  9
$LATITUDE
 40
37.795
  9
$LONGITUDE
 40
-122.394
  9
$NORTHDIRECTION
 40
0.0
  9
$TIMEZONE
 70
 -8000
  9
$LIGHTGLYPHDISPLAY
280
     1
  9
$TILEMODELIGHTSYNCH
280
     1
  9
$CMATERIAL
347
44
  9
$SOLIDHIST
280
     0
  9
$SHOWHIST
280
     1
  9
$DWFFRAME
280
     2
  9
$DGNFRAME
280
     2
  9
$REALWORLDSCALE
290
     1
  9
$INTERFERECOLOR
 62
   256
  9
$CSHADOW
280
     0
  9
$SHADOWPLANELOCATION
 40
0.0
  0
ENDSEC
  0
SECTION
  2
CLASSES
  0
CLASS
  1
ACDBDICTIONARYWDFLT
  2
AcDbDictionaryWithDefault
  3
ObjectDBX Classes
 90
        0
 91
        3
280
     0
281
     0
  0
CLASS
  1
VISUALSTYLE
  2
AcDbVisualStyle
  3
ObjectDBX Classes
 90
     4095
 91
        3
280
     0
281
     0
  0
CLASS
  1
MATERIAL
  2
AcDbMaterial
  3
ObjectDBX Classes
 90
     1153
 91
        3
280
     0
281
     0
  0
CLASS
  1
SCALE
  2
AcDbScale
  3
ObjectDBX Classes
 90
     1153
 91
        3
280
     0
281
     0
  0
CLASS
  1
TABLESTYLE
  2
AcDbTableStyle
  3
ObjectDBX Classes
 90
     4095
 91
        3
280
     0
281
     0
  0
CLASS
  1
MLEADERSTYLE
  2
AcDbMLeaderStyle
  3
ACDB_MLEADERSTYLE_CLASS
 90
     4095
 91
        3
280
     0
281
     0
  0
CLASS
  1
SUN
  2
AcDbSun
  3
SCENEOE
 90
     1153
 91
        3
280
     0
281
     0
  0
CLASS
  1
DICTIONARYVAR
  2
AcDbDictionaryVar
  3
ObjectDBX Classes
 90
        0
 91
        3
280
     0
281
     0
  0
CLASS
  1
CELLSTYLEMAP
  2
AcDbCellStyleMap
  3
ObjectDBX Classes
 90
     1152
 91
        3
280
     0
281
     0
  0
ENDSEC
  0
SECTION
  2
TABLES
  0
TABLE
  2
VPORT
  5
8
330
0
100
AcDbSymbolTable
 70
     1
  0
VPORT
  5
29
330
8
100
AcDbSymbolTableRecord
100
AcDbViewportTableRecord
  2
*Active
 70
     0
 10
0.0
 20
0.0
 11
1.0
 21
1.0
 12
7.556281456838243
 22
8.823279654633321
 13
0.0
 23
0.0
 14
10.0
 24
10.0
 15
10.0
 25
10.0
 16
0.0
 26
0.0
 36
1.0
 17
0.0
 27
0.0
 37
0.0
 40
17.64655930926664
 41
1.972972972850329
 42
50.0
 43
0.0
 44
0.0
 50
0.0
 51
0.0
 71
     0
 72
   100
 73
     1
 74
     3
 75
     0
 76
     0
 77
     0
 78
     0
281
     0
 65
     1
110
0.0
120
0.0
130
0.0
111
1.0
121
0.0
131
0.0
112
0.0
122
1.0
132
0.0
 79
     0
146
0.0
348
2F
 60
     3
 61
     5
292
     1
282
     1
141
0.0
142
0.0
 63
   250
361
5D
  0
ENDTAB
  0
TABLE
  2
LTYPE
  5
5
330
0
100
AcDbSymbolTable
 70
     1
  0
LTYPE
  5
14
330
5
100
AcDbSymbolTableRecord
100
AcDbLinetypeTableRecord
  2
ByBlock
 70
     0
  3

 72
    65
 73
     0
 40
0.0
  0
LTYPE
  5
15
330
5
100
AcDbSymbolTableRecord
100
AcDbLinetypeTableRecord
  2
ByLayer
 70
     0
  3

 72
    65
 73
     0
 40
0.0
  0
LTYPE
  5
16
330
5
100
AcDbSymbolTableRecord
100
AcDbLinetypeTableRecord
  2
Continuous
 70
     0
  3
Solid line
 72
    65
 73
     0
 40
0.0
  0
ENDTAB
  0
TABLE
  2
LAYER
  5
2
330
0
100
AcDbSymbolTable
 70
     2
  0
LAYER
  5
10
330
2
100
AcDbSymbolTableRecord
100
AcDbLayerTableRecord
  2
0
 70
     0
 62
     7
  6
Continuous
370
    -3
390
F
347
46
348
0
  0
LAYER
  5
5E
330
2
100
AcDbSymbolTableRecord
100
AcDbLayerTableRecord
  2
MAIN-1
 70
     0
 62
     7
  6
Continuous
370
    -3
390
F
347
46
348
0
  0
ENDTAB
  0
TABLE
  2
STYLE
  5
3
330
0
100
AcDbSymbolTable
 70
     1
  0
STYLE
  5
11
330
3
100
AcDbSymbolTableRecord
100
AcDbTextStyleTableRecord
  2
Standard
 70
     0
 40
0.0
 41
1.0
 50
0.0
 71
     0
 42
2.5
  3
txt
  4

  0
ENDTAB
  0
TABLE
  2
VIEW
  5
6
330
0
100
AcDbSymbolTable
 70
     0
  0
ENDTAB
  0
TABLE
  2
UCS
  5
7
330
0
100
AcDbSymbolTable
 70
     0
  0
ENDTAB
  0
TABLE
  2
APPID
  5
9
330
0
100
AcDbSymbolTable
 70
     1
  0
APPID
  5
12
330
9
100
AcDbSymbolTableRecord
100
AcDbRegAppTableRecord
  2
ACAD
 70
     0
  0
ENDTAB
  0
TABLE
  2
DIMSTYLE
  5
A
330
0
100
AcDbSymbolTable
 70
     1
100
AcDbDimStyleTable
  0
DIMSTYLE
105
27
330
A
100
AcDbSymbolTableRecord
100
AcDbDimStyleTableRecord
  2
ISO-25
 70
     0
 41
2.5
 42
0.625
 43
3.75
 44
1.25
 73
     0
 74
     0
 77
     1
 78
     8
140
2.5
141
2.5
143
0.03937007874016
147
0.625
171
     3
172
     1
178
     0
271
     2
272
     2
274
     3
278
    44
283
     0
284
     8
340
11
  0
ENDTAB
  0
TABLE
  2
BLOCK_RECORD
  5
1
330
0
100
AcDbSymbolTable
 70
     0
  0
BLOCK_RECORD
  5
1F
330
1
100
AcDbSymbolTableRecord
100
AcDbBlockTableRecord
  2
*Model_Space
340
22
 70
     0
280
     1
281
     0
  0
BLOCK_RECORD
  5
125
330
1
100
AcDbSymbolTableRecord
100
AcDbBlockTableRecord
  2
*Paper_Space
340
126
 70
     0
280
     1
281
     0
  0
ENDTAB
  0
ENDSEC
  0
SECTION
  2
BLOCKS
  0
BLOCK
  5
20
330
1F
100
AcDbEntity
  8
0
100
AcDbBlockBegin
  2
*Model_Space
 70
     0
 10
0.0
 20
0.0
 30
0.0
  3
*Model_Space
  1

  0
ENDBLK
  5
21
330
1F
100
AcDbEntity
  8
0
100
AcDbBlockEnd
  0
BLOCK
  5
127
330
125
100
AcDbEntity
 67
     1
  8
0
100
AcDbBlockBegin
  2
*Paper_Space
 70
     0
 10
0.0
 20
0.0
 30
0.0
  3
*Paper_Space
  1

  0
ENDBLK
  5
128
330
125
100
AcDbEntity
 67
     1
  8
0
100
AcDbBlockEnd
  0
ENDSEC
  0
SECTION
  2
ENTITIES
  0
LWPOLYLINE
  5
5F
330
1F
100
AcDbEntity
  8
MAIN-1
  6
Continuous
 62
    18
420
        0
370
    25
100
AcDbPolyline
 90
        2
 70
     0
 43
0.0
 10
7.600250510238213
 20
10.10473380243782
 10
7.047172565321868
 20
10.26439365262797
  0
LWPOLYLINE
  5
60
330
1F
100
AcDbEntity
  8
MAIN-1
  6
Continuous
 62
    18
420
        0
370
    25
100
AcDbPolyline
 90
        2
 70
     0
 43
0.0
 10
7.237695897610338
 20
8.948367123208376
 10
7.600250510238213
 20
10.10473380243782
  0
LWPOLYLINE
  5
61
330
1F
100
AcDbEntity
  8
MAIN-1
  6
Continuous
 62
    18
420
        0
370
    25
100
AcDbPolyline
 90
        2
 70
     0
 43
0.0
 10
6.645682358651648
 20
9.119266711249228
 10
7.237528440587133
 20
10.06953988785774
  0
LWPOLYLINE
  5
62
330
1F
100
AcDbEntity
  8
MAIN-1
  6
Continuous
 62
    18
420
        0
370
    25
100
AcDbPolyline
 90
        2
 70
     0
 43
0.0
 10
6.050083763611847
 20
9.291201215836823
 10
6.369526697390407
 20
10.31152664999384
  0
LWPOLYLINE
  5
63
330
1F
100
AcDbEntity
  8
MAIN-1
  6
Continuous
 62
    18
420
        0
370
    25
100
AcDbPolyline
 90
        2
 70
     0
 43
0.0
 10
5.986047377874625
 20
10.57071410893625
 10
5.054442756629975
 20
10.8396451983632
  0
LWPOLYLINE
  5
64
330
1F
100
AcDbEntity
  8
MAIN-1
  6
Continuous
 62
    18
420
        0
370
    25
100
AcDbPolyline
 90
        2
 70
     0
 43
0.0
 10
5.91787379806283
 20
10.35036407735032
 10
5.986047377874625
 20
10.57071410893625
  0
LWPOLYLINE
  5
65
330
1F
100
AcDbEntity
  8
MAIN-1
  6
Continuous
 62
    18
420
        0
370
    25
100
AcDbPolyline
 90
        2
 70
     0
 43
0.0
 10
5.275086662710876
 20
10.30136988391343
 10
5.342496933217077
 20
10.51357431990646
  0
LWPOLYLINE
  5
66
330
1F
100
AcDbEntity
  8
MAIN-1
  6
Continuous
 62
    18
420
        0
370
    25
100
AcDbPolyline
 90
        2
 70
     0
 43
0.0
 10
5.816334273846883
 20
10.14512515691962
 10
5.275086662710876
 20
10.30136988391343
  0
LWPOLYLINE
  5
67
330
1F
100
AcDbEntity
  8
MAIN-1
  6
Continuous
 62
    18
420
        0
370
    25
100
AcDbPolyline
 90
        2
 70
     0
 43
0.0
 10
5.749748087850802
 20
9.931226265021392
 10
5.816334273846886
 20
10.14512515691962
  0
LWPOLYLINE
  5
68
330
1F
100
AcDbEntity
  8
MAIN-1
  6
Continuous
 62
    18
420
        0
370
    25
100
AcDbPolyline
 90
        2
 70
     0
 43
0.0
 10
5.119276674565145
 20
9.799813263643536
 10
5.207754646638647
 20
10.08479954326687
  0
LWPOLYLINE
  5
69
330
1F
100
AcDbEntity
  8
MAIN-1
  6
Continuous
 62
    18
420
        0
370
    25
100
AcDbPolyline
 90
        2
 70
     0
 43
0.0
 10
5.816650193243412
 20
9.598498869276229
 10
5.119276674565145
 20
9.799813263643536
  0
LWPOLYLINE
  5
6A
330
1F
100
AcDbEntity
  8
MAIN-1
  6
Continuous
 62
    18
420
        0
370
    25
100
AcDbPolyline
 90
        2
 70
     0
 43
0.0
 10
6.648854111970519
 20
10.37937828576077
 10
6.111827249195875
 20
10.53440458765327
  0
LWPOLYLINE
  5
6B
330
1F
100
AcDbEntity
  8
MAIN-1
  6
Continuous
 62
    18
420
        0
370
    25
100
AcDbPolyline
 90
        2
 70
     0
 43
0.0
 10
6.600488674476208
 20
9.4948623075636
 10
6.648854111970519
 20
10.37937828576077
  0
LWPOLYLINE
  5
6C
330
1F
100
AcDbEntity
  8
MAIN-1
  6
Continuous
 62
    18
420
        0
370
    25
100
AcDbPolyline
 90
        2
 70
     0
 43
0.0
 10
7.597750510238213
 20
10.10256873892836
 10
7.044672565321869
 20
10.26222858911851
  0
LWPOLYLINE
  5
6D
330
1F
100
AcDbEntity
  8
MAIN-1
  6
Continuous
 62
    18
420
        0
370
    25
100
AcDbPolyline
 90
        2
 70
     0
 43
0.0
 10
7.044672565321869
 20
10.26222858911851
 10
6.597858612504244
 20
9.490318646892248
  0
LWPOLYLINE
  5
6E
330
1F
100
AcDbEntity
  8
MAIN-1
  6
Continuous
 62
    18
420
        0
370
    25
100
AcDbPolyline
 90
        2
 70
     0
 43
0.0
 10
6.597858612504244
 20
9.490318646892248
 10
6.64635411197052
 20
10.37721322225131
  0
LWPOLYLINE
  5
6F
330
1F
100
AcDbEntity
  8
MAIN-1
  6
Continuous
 62
    18
420
        0
370
    25
100
AcDbPolyline
 90
        2
 70
     0
 43
0.0
 10
6.64635411197052
 20
10.37721322225131
 10
6.109327249195875
 20
10.53223952414381
  0
LWPOLYLINE
  5
70
330
1F
100
AcDbEntity
  8
MAIN-1
  6
Continuous
 62
    18
420
        0
370
    25
100
AcDbPolyline
 90
        2
 70
     0
 43
0.0
 10
6.109327249195875
 20
10.53223952414381
 10
5.815820433254996
 20
9.595851649006619
  0
LWPOLYLINE
  5
71
330
1F
100
AcDbEntity
  8
MAIN-1
  6
Continuous
 62
    18
420
        0
370
    25
100
AcDbPolyline
 90
        2
 70
     0
 43
0.0
 10
5.815820433254996
 20
9.595851649006619
 10
5.116776674565146
 20
9.797648200134077
  0
LWPOLYLINE
  5
72
330
1F
100
AcDbEntity
  8
MAIN-1
  6
Continuous
 62
    18
420
        0
370
    25
100
AcDbPolyline
 90
        2
 70
     0
 43
0.0
 10
5.116776674565146
 20
9.797648200134077
 10
5.206077162406312
 20
10.08528379125342
  0
LWPOLYLINE
  5
73
330
1F
100
AcDbEntity
  8
MAIN-1
  6
Continuous
 62
    18
420
        0
370
    25
100
AcDbPolyline
 90
        2
 70
     0
 43
0.0
 10
5.206077162406312
 20
10.08528379125342
 10
5.747248087850802
 20
9.92906120151193
  0
LWPOLYLINE
  5
74
330
1F
100
AcDbEntity
  8
MAIN-1
  6
Continuous
 62
    18
420
        0
370
    25
100
AcDbPolyline
 90
        2
 70
     0
 43
0.0
 10
5.747248087850802
 20
9.92906120151193
 10
5.813834273846885
 20
10.14296009341016
  0
LWPOLYLINE
  5
75
330
1F
100
AcDbEntity
  8
MAIN-1
  6
Continuous
 62
    18
420
        0
370
    25
100
AcDbPolyline
 90
        2
 70
     0
 43
0.0
 10
5.813834273846885
 20
10.14296009341016
 10
5.272586662710875
 20
10.29920482040397
  0
LWPOLYLINE
  5
76
330
1F
100
AcDbEntity
  8
MAIN-1
  6
Continuous
 62
    18
420
        0
370
    25
100
AcDbPolyline
 90
        2
 70
     0
 43
0.0
 10
5.272586662710875
 20
10.29920482040397
 10
5.340836928214119
 20
10.51405352207411
  0
LWPOLYLINE
  5
77
330
1F
100
AcDbEntity
  8
MAIN-1
  6
Continuous
 62
    18
420
        0
370
    25
100
AcDbPolyline
 90
        2
 70
     0
 43
0.0
 10
5.340836928214119
 20
10.51405352207411
 10
5.915373798062832
 20
10.34819901384085
  0
LWPOLYLINE
  5
78
330
1F
100
AcDbEntity
  8
MAIN-1
  6
Continuous
 62
    18
420
        0
370
    25
100
AcDbPolyline
 90
        2
 70
     0
 43
0.0
 10
5.915373798062832
 20
10.34819901384085
 10
5.983547377874624
 20
10.56854904542679
  0
LWPOLYLINE
  5
79
330
1F
100
AcDbEntity
  8
MAIN-1
  6
Continuous
 62
    18
420
        0
370
    25
100
AcDbPolyline
 90
        2
 70
     0
 43
0.0
 10
5.983547377874624
 20
10.56854904542679
 10
5.051942756629975
 20
10.83748013485374
  0
LWPOLYLINE
  5
7A
330
1F
100
AcDbEntity
  8
MAIN-1
  6
Continuous
 62
    18
420
        0
370
    25
100
AcDbPolyline
 90
        2
 70
     0
 43
0.0
 10
5.051942756629975
 20
10.83748013485374
 10
4.689069897369397
 20
9.681205325513822
  0
LWPOLYLINE
  5
7B
330
1F
100
AcDbEntity
  8
MAIN-1
  6
Continuous
 62
    18
420
        0
370
    25
100
AcDbPolyline
 90
        2
 70
     0
 43
0.0
 10
4.689069897369398
 20
9.68120532551382
 10
6.047583763611849
 20
9.289036152327363
  0
LWPOLYLINE
  5
7C
330
1F
100
AcDbEntity
  8
MAIN-1
  6
Continuous
 62
    18
420
        0
370
    25
100
AcDbPolyline
 90
        2
 70
     0
 43
0.0
 10
6.047583763611849
 20
9.289036152327363
 10
6.369932068147536
 20
10.31864156536539
  0
LWPOLYLINE
  5
7D
330
1F
100
AcDbEntity
  8
MAIN-1
  6
Continuous
 62
    18
420
        0
370
    25
100
AcDbPolyline
 90
        2
 70
     0
 43
0.0
 10
6.369932068147535
 20
10.31864156536539
 10
6.307003789640744
 20
9.214148041396882
  0
LWPOLYLINE
  5
7E
330
1F
100
AcDbEntity
  8
MAIN-1
  6
Continuous
 62
    18
420
        0
370
    25
100
AcDbPolyline
 90
        2
 70
     0
 43
0.0
 10
6.307003789640744
 20
9.214148041396882
 10
6.643182358651647
 20
9.117101647739768
  0
LWPOLYLINE
  5
7F
330
1F
100
AcDbEntity
  8
MAIN-1
  6
Continuous
 62
    18
420
        0
370
    25
100
AcDbPolyline
 90
        2
 70
     0
 43
0.0
 10
6.643182358651647
 20
9.117101647739768
 10
7.238692765146072
 20
10.07325829548213
  0
LWPOLYLINE
  5
80
330
1F
100
AcDbEntity
  8
MAIN-1
  6
Continuous
 62
    18
420
        0
370
    25
100
AcDbPolyline
 90
        2
 70
     0
 43
0.0
 10
7.238692765146072
 20
10.07325829548213
 10
6.914749398226061
 20
9.038706996039108
  0
LWPOLYLINE
  5
81
330
1F
100
AcDbEntity
  8
MAIN-1
  6
Continuous
 62
    18
420
        0
370
    25
100
AcDbPolyline
 90
        2
 70
     0
 43
0.0
 10
6.914749398226061
 20
9.038706996039107
 10
7.235195897610338
 20
8.946202059698916
  0
LWPOLYLINE
  5
82
330
1F
100
AcDbEntity
  8
MAIN-1
  6
Continuous
 62
    18
420
        0
370
    25
100
AcDbPolyline
 90
        2
 70
     0
 43
0.0
 10
7.235195897610338
 20
8.946202059698916
 10
7.597750510238213
 20
10.10256873892836
  0
LWPOLYLINE
  5
83
330
1F
100
AcDbEntity
  8
MAIN-1
  6
Continuous
 62
    18
420
        0
370
    25
100
AcDbPolyline
 90
        2
 70
     0
 43
0.0
 10
0.9271163322393927
 20
14.77743387954488
 10
0.9283263278599808
 20
14.80335927500892
  0
LWPOLYLINE
  5
84
330
1F
100
AcDbEntity
  8
MAIN-1
  6
Continuous
 62
    18
420
        0
370
    25
100
AcDbPolyline
 90
        2
 70
     0
 43
0.0
 10
0.9283263278599808
 20
14.80335927500892
 10
0.9320645108159247
 20
14.8301247556602
  0
LWPOLYLINE
  5
85
330
1F
100
AcDbEntity
  8
MAIN-1
  6
Continuous
 62
    18
420
        0
370
    25
100
AcDbPolyline
 90
        2
 70
     0
 43
0.0
 10
0.9320645108159247
 20
14.8301247556602
 10
0.9384792740845537
 20
14.85761218902214
  0
LWPOLYLINE
  5
86
330
1F
100
AcDbEntity
  8
MAIN-1
  6
Continuous
 62
    18
420
        0
370
    25
100
AcDbPolyline
 90
        2
 70
     0
 43
0.0
 10
0.9384792740845537
 20
14.85761218902214
 10
0.9476970046308728
 20
14.88568666983358
  0
LWPOLYLINE
  5
87
330
1F
100
AcDbEntity
  8
MAIN-1
  6
Continuous
 62
    18
420
        0
370
    25
100
AcDbPolyline
 90
        2
 70
     0
 43
0.0
 10
0.9476970046308728
 20
14.88568666983358
 10
0.9598161559182218
 20
14.9141918992201
  0
LWPOLYLINE
  5
88
330
1F
100
AcDbEntity
  8
MAIN-1
  6
Continuous
 62
    18
420
        0
370
    25
100
AcDbPolyline
 90
        2
 70
     0
 43
0.0
 10
0.9598161559182218
 20
14.9141918992201
 10
0.9749031765691767
 20
14.94295521421727
  0
LWPOLYLINE
  5
89
330
1F
100
AcDbEntity
  8
MAIN-1
  6
Continuous
 62
    18
420
        0
370
    25
100
AcDbPolyline
 90
        2
 70
     0
 43
0.0
 10
0.9749031765691767
 20
14.94295521421727
 10
0.9929874984847606
 20
14.97178972283114
  0
LWPOLYLINE
  5
8A
330
1F
100
AcDbEntity
  8
MAIN-1
  6
Continuous
 62
    18
420
        0
370
    25
100
AcDbPolyline
 90
        2
 70
     0
 43
0.0
 10
0.9929874984847606
 20
14.97178972283114
 10
1.01405824998381
 20
15.00049731763868
  0
LWPOLYLINE
  5
8B
330
1F
100
AcDbEntity
  8
MAIN-1
  6
Continuous
 62
    18
420
        0
370
    25
100
AcDbPolyline
 90
        2
 70
     0
 43
0.0
 10
1.01405824998381
 20
15.00049731763868
 10
1.038062286043598
 20
15.02886951971036
  0
LWPOLYLINE
  5
8C
330
1F
100
AcDbEntity
  8
MAIN-1
  6
Continuous
 62
    18
420
        0
370
    25
100
AcDbPolyline
 90
        2
 70
     0
 43
0.0
 10
1.038062286043598
 20
15.02886951971036
 10
1.064902603904196
 20
15.05669922337031
  0
LWPOLYLINE
  5
8D
330
1F
100
AcDbEntity
  8
MAIN-1
  6
Continuous
 62
    18
420
        0
370
    25
100
AcDbPolyline
 90
        2
 70
     0
 43
0.0
 10
1.064902603904196
 20
15.05669922337031
 10
1.094438987827792
 20
15.08377679349249
  0
LWPOLYLINE
  5
8E
330
1F
100
AcDbEntity
  8
MAIN-1
  6
Continuous
 62
    18
420
        0
370
    25
100
AcDbPolyline
 90
        2
 70
     0
 43
0.0
 10
1.094438987827792
 20
15.08377679349249
 10
1.124217843323014
 20
15.10814642374639
  0
LWPOLYLINE
  5
8F
330
1F
100
AcDbEntity
  8
MAIN-1
  6
Continuous
 62
    18
420
        0
370
    25
100
AcDbPolyline
 90
        2
 70
     0
 43
0.0
 10
1.124217843323014
 20
15.10814642374639
 10
1.156003191180992
 20
15.1315353014905
  0
LWPOLYLINE
  5
90
330
1F
100
AcDbEntity
  8
MAIN-1
  6
Continuous
 62
    18
420
        0
370
    25
100
AcDbPolyline
 90
        2
 70
     0
 43
0.0
 10
1.156003191180992
 20
15.1315353014905
 10
1.189594325045782
 20
15.15380342347679
  0
LWPOLYLINE
  5
91
330
1F
100
AcDbEntity
  8
MAIN-1
  6
Continuous
 62
    18
420
        0
370
    25
100
AcDbPolyline
 90
        2
 70
     0
 43
0.0
 10
1.189594325045782
 20
15.15380342347679
 10
1.224769685149329
 20
15.17482189940697
  0
LWPOLYLINE
  5
92
330
1F
100
AcDbEntity
  8
MAIN-1
  6
Continuous
 62
    18
420
        0
370
    25
100
AcDbPolyline
 90
        2
 70
     0
 43
0.0
 10
1.224769685149329
 20
15.17482189940697
 10
1.261292068964906
 20
15.19448301043289
  0
LWPOLYLINE
  5
93
330
1F
100
AcDbEntity
  8
MAIN-1
  6
Continuous
 62
    18
420
        0
370
    25
100
AcDbPolyline
 90
        2
 70
     0
 43
0.0
 10
1.261292068964906
 20
15.19448301043289
 10
1.29891344583827
 20
15.21269482741244
  0
LWPOLYLINE
  5
94
330
1F
100
AcDbEntity
  8
MAIN-1
  6
Continuous
 62
    18
420
        0
370
    25
100
AcDbPolyline
 90
        2
 70
     0
 43
0.0
 10
1.29891344583827
 20
15.21269482741244
 10
1.337380525588899
 20
15.22938800010567
  0
LWPOLYLINE
  5
95
330
1F
100
AcDbEntity
  8
MAIN-1
  6
Continuous
 62
    18
420
        0
370
    25
100
AcDbPolyline
 90
        2
 70
     0
 43
0.0
 10
1.337380525588899
 20
15.22938800010567
 10
1.376439676379421
 20
15.24451117153447
  0
LWPOLYLINE
  5
96
330
1F
100
AcDbEntity
  8
MAIN-1
  6
Continuous
 62
    18
420
        0
370
    25
100
AcDbPolyline
 90
        2
 70
     0
 43
0.0
 10
1.376439676379421
 20
15.24451117153447
 10
1.415842074231294
 20
15.25803513513772
  0
LWPOLYLINE
  5
97
330
1F
100
AcDbEntity
  8
MAIN-1
  6
Continuous
 62
    18
420
        0
370
    25
100
AcDbPolyline
 90
        2
 70
     0
 43
0.0
 10
1.415842074231294
 20
15.25803513513772
 10
1.455347869350521
 20
15.26995080615043
  0
LWPOLYLINE
  5
98
330
1F
100
AcDbEntity
  8
MAIN-1
  6
Continuous
 62
    18
420
        0
370
    25
100
AcDbPolyline
 90
        2
 70
     0
 43
0.0
 10
1.455347869350521
 20
15.26995080615043
 10
1.494730503604684
 20
15.28026756230244
  0
LWPOLYLINE
  5
99
330
1F
100
AcDbEntity
  8
MAIN-1
  6
Continuous
 62
    18
420
        0
370
    25
100
AcDbPolyline
 90
        2
 70
     0
 43
0.0
 10
1.494730503604684
 20
15.28026756230244
 10
1.53377950651516
 20
15.28901009661741
  0
LWPOLYLINE
  5
9A
330
1F
100
AcDbEntity
  8
MAIN-1
  6
Continuous
 62
    18
420
        0
370
    25
100
AcDbPolyline
 90
        2
 70
     0
 43
0.0
 10
1.53377950651516
 20
15.28901009661741
 10
1.572302904105812
 20
15.29622033740773
  0
LWPOLYLINE
  5
9B
330
1F
100
AcDbEntity
  8
MAIN-1
  6
Continuous
 62
    18
420
        0
370
    25
100
AcDbPolyline
 90
        2
 70
     0
 43
0.0
 10
1.572302904105812
 20
15.29622033740773
 10
1.610129034131613
 20
15.30195293238321
  0
LWPOLYLINE
  5
9C
330
1F
100
AcDbEntity
  8
MAIN-1
  6
Continuous
 62
    18
420
        0
370
    25
100
AcDbPolyline
 90
        2
 70
     0
 43
0.0
 10
3.110129034131612
 20
16.60099103805987
 10
1.610129034131613
 20
15.30195293238321
  0
LWPOLYLINE
  5
9D
330
1F
100
AcDbEntity
  8
MAIN-1
  6
Continuous
 62
    18
420
        0
370
    25
100
AcDbPolyline
 90
        2
 70
     0
 43
0.0
 10
3.110129034131612
 20
16.60099103805987
 10
3.099128734624652
 20
16.62073491732577
  0
LWPOLYLINE
  5
9E
330
1F
100
AcDbEntity
  8
MAIN-1
  6
Continuous
 62
    18
420
        0
370
    25
100
AcDbPolyline
 90
        2
 70
     0
 43
0.0
 10
3.099128734624652
 20
16.62073491732577
 10
3.08791314679545
 20
16.63924440991773
  0
LWPOLYLINE
  5
9F
330
1F
100
AcDbEntity
  8
MAIN-1
  6
Continuous
 62
    18
420
        0
370
    25
100
AcDbPolyline
 90
        2
 70
     0
 43
0.0
 10
3.08791314679545
 20
16.63924440991773
 10
3.076541819638285
 20
16.65631093896984
  0
LWPOLYLINE
  5
A0
330
1F
100
AcDbEntity
  8
MAIN-1
  6
Continuous
 62
    18
420
        0
370
    25
100
AcDbPolyline
 90
        2
 70
     0
 43
0.0
 10
3.076541819638285
 20
16.65631093896984
 10
3.065081687139036
 20
16.67172783925177
  0
LWPOLYLINE
  5
A1
330
1F
100
AcDbEntity
  8
MAIN-1
  6
Continuous
 62
    18
420
        0
370
    25
100
AcDbPolyline
 90
        2
 70
     0
 43
0.0
 10
3.065081687139036
 20
16.67172783925177
 10
3.053606413770752
 20
16.68529488211538
  0
LWPOLYLINE
  5
A2
330
1F
100
AcDbEntity
  8
MAIN-1
  6
Continuous
 62
    18
420
        0
370
    25
100
AcDbPolyline
 90
        2
 70
     0
 43
0.0
 10
3.053606413770752
 20
16.68529488211538
 10
3.04219524911091
 20
16.69682041280808
  0
LWPOLYLINE
  5
A3
330
1F
100
AcDbEntity
  8
MAIN-1
  6
Continuous
 62
    18
420
        0
370
    25
100
AcDbPolyline
 90
        2
 70
     0
 43
0.0
 10
3.04219524911091
 20
16.69682041280808
 10
3.030931707924158
 20
16.70613124662754
  0
LWPOLYLINE
  5
A4
330
1F
100
AcDbEntity
  8
MAIN-1
  6
Continuous
 62
    18
420
        0
370
    25
100
AcDbPolyline
 90
        2
 70
     0
 43
0.0
 10
3.030931707924158
 20
16.70613124662754
 10
3.01990186845081
 20
16.71307584435866
  0
LWPOLYLINE
  5
A5
330
1F
100
AcDbEntity
  8
MAIN-1
  6
Continuous
 62
    18
420
        0
370
    25
100
AcDbPolyline
 90
        2
 70
     0
 43
0.0
 10
3.01990186845081
 20
16.71307584435866
 10
3.009192507069233
 20
16.71752861894711
  0
LWPOLYLINE
  5
A6
330
1F
100
AcDbEntity
  8
MAIN-1
  6
Continuous
 62
    18
420
        0
370
    25
100
AcDbPolyline
 90
        2
 70
     0
 43
0.0
 10
3.009192507069233
 20
16.71752861894711
 10
3.002426611207974
 20
16.71904468840989
  0
LWPOLYLINE
  5
A7
330
1F
100
AcDbEntity
  8
MAIN-1
  6
Continuous
 62
    18
420
        0
370
    25
100
AcDbPolyline
 90
        2
 70
     0
 43
0.0
 10
3.002426611207974
 20
16.71904468840989
 10
2.995856079463416
 20
16.71944297702725
  0
LWPOLYLINE
  5
A8
330
1F
100
AcDbEntity
  8
MAIN-1
  6
Continuous
 62
    18
420
        0
370
    25
100
AcDbPolyline
 90
        2
 70
     0
 43
0.0
 10
2.995856079463416
 20
16.71944297702725
 10
2.989502952272076
 20
16.71871456712595
  0
LWPOLYLINE
  5
A9
330
1F
100
AcDbEntity
  8
MAIN-1
  6
Continuous
 62
    18
420
        0
370
    25
100
AcDbPolyline
 90
        2
 70
     0
 43
0.0
 10
2.989502952272076
 20
16.71871456712595
 10
2.983388157412947
 20
16.71685261727996
  0
LWPOLYLINE
  5
AA
330
1F
100
AcDbEntity
  8
MAIN-1
  6
Continuous
 62
    18
420
        0
370
    25
100
AcDbPolyline
 90
        2
 70
     0
 43
0.0
 10
2.983388157412947
 20
16.71685261727996
 10
2.97753126456834
 20
16.71386107936799
  0
LWPOLYLINE
  5
AB
330
1F
100
AcDbEntity
  8
MAIN-1
  6
Continuous
 62
    18
420
        0
370
    25
100
AcDbPolyline
 90
        2
 70
     0
 43
0.0
 10
2.97753126456834
 20
16.71386107936799
 10
2.971950291699661
 20
16.70974927853798
  0
LWPOLYLINE
  5
AC
330
1F
100
AcDbEntity
  8
MAIN-1
  6
Continuous
 62
    18
420
        0
370
    25
100
AcDbPolyline
 90
        2
 70
     0
 43
0.0
 10
11.73640847576044
 20
0.9472125216717338
 10
11.73640847576044
 20
4.295844082971563
  0
SPLINE
  5
AD
330
1F
100
AcDbEntity
  8
MAIN-1
  6
Continuous
 62
    18
420
        0
370
    25
100
AcDbSpline
210
0.0
220
0.0
230
1.0
 70
     8
 71
     3
 72
    11
 73
     7
 74
     0
 42
0.000000001
 43
0.0
 40
0.0
 40
0.0
 40
0.0
 40
0.0
 40
1.0
 40
1.0
 40
1.0
 40
2.0
 40
2.0
 40
2.0
 40
2.0
 10
11.73640847576044
 20
0.9472125216717373
 30
0.0
 10
11.82923025968551
 20
0.9204171807038328
 30
0.0
 10
11.94359162439378
 20
0.9204176306862664
 30
0.0
 10
12.03641256484539
 20
0.9472137021103357
 30
0.0
 10
12.12923350529701
 20
0.9740097735344087
 30
0.0
 10
12.18641184945967
 20
1.023530372020193
 30
0.0
 10
12.18640847561181
 20
1.077121053929449
 30
0.0
  0
LWPOLYLINE
  5
AE
330
1F
100
AcDbEntity
  8
MAIN-1
  6
Continuous
 62
    18
420
        0
370
    25
100
AcDbPolyline
 90
        2
 70
     0
 43
0.0
 10
3.07615443791605
 20
3.447212521671732
 10
3.07615443791605
 20
6.795844082971563
  0
SPLINE
  5
AF
330
1F
100
AcDbEntity
  8
MAIN-1
  6
Continuous
 62
    18
420
        0
370
    25
100
AcDbSpline
210
0.0
220
0.0
230
1.0
 70
     8
 71
     3
 72
    11
 73
     7
 74
     0
 42
0.000000001
 43
0.0
 40
0.0
 40
0.0
 40
0.0
 40
0.0
 40
1.0
 40
1.0
 40
1.0
 40
2.0
 40
2.0
 40
2.0
 40
2.0
 10
3.07615443791605
 20
3.447212521671732
 30
0.0
 10
3.168976221841128
 20
3.420417180703831
 30
0.0
 10
3.283337586549391
 20
3.420417630686261
 30
0.0
 10
3.376158527001005
 20
3.447213702110334
 30
0.0
 10
3.46897946745262
 20
3.474009773534409
 30
0.0
 10
3.526157811615284
 20
3.523530372020195
 30
0.0
 10
3.526154437767421
 20
3.577121053929449
 30
0.0
  0
LWPOLYLINE
  5
B0
330
1F
100
AcDbEntity
  8
MAIN-1
  6
Continuous
 62
    18
420
        0
370
    25
100
AcDbPolyline
 90
        2
 70
     0
 43
0.0
 10
12.18544658143709
 20
4.166217947377156
 10
14.18544658143709
 20
5.898268754946033
  0
LWPOLYLINE
  5
B1
330
1F
100
AcDbEntity
  8
MAIN-1
  6
Continuous
 62
    18
420
        0
370
    25
100
AcDbPolyline
 90
        2
 70
     0
 43
0.0
 10
9.587370370083777
 20
4.916217947377154
 10
12.18544658143709
 20
4.166217947377156
  0
LWPOLYLINE
  5
B2
330
1F
100
AcDbEntity
  8
MAIN-1
  6
Continuous
 62
    18
420
        0
370
    25
100
AcDbPolyline
 90
        2
 70
     0
 43
0.0
 10
12.18544658143709
 20
4.166217947377156
 10
12.18544658143709
 20
11.52743387954488
  0
LWPOLYLINE
  5
B3
330
1F
100
AcDbEntity
  8
MAIN-1
  6
Continuous
 62
    18
420
        0
370
    25
100
AcDbPolyline
 90
        2
 70
     0
 43
0.0
 10
12.18544658143709
 20
11.52743387954488
 10
0.9271163322393927
 20
14.77743387954488
  0
LWPOLYLINE
  5
B4
330
1F
100
AcDbEntity
  8
MAIN-1
  6
Continuous
 62
    18
420
        0
370
    25
100
AcDbPolyline
 90
        2
 70
     0
 43
0.0
 10
0.9271163322393927
 20
14.77743387954488
 10
0.9271163322393927
 20
7.416217947377154
  0
LWPOLYLINE
  5
B5
330
1F
100
AcDbEntity
  8
MAIN-1
  6
Continuous
 62
    18
420
        0
370
    25
100
AcDbPolyline
 90
        2
 70
     0
 43
0.0
 10
0.9271163322393927
 20
7.416217947377154
 10
3.525192543592709
 20
6.666217947377156
  0
LWPOLYLINE
  5
B6
330
1F
100
AcDbEntity
  8
MAIN-1
  6
Continuous
 62
    18
420
        0
370
    25
100
AcDbPolyline
 90
        2
 70
     0
 43
0.0
 10
3.837836374612929
 20
6.844710450679539
 10
3.525192543592709
 20
6.666217947377156
  0
LWPOLYLINE
  5
B7
330
1F
100
AcDbEntity
  8
MAIN-1
  6
Continuous
 62
    18
420
        0
370
    25
100
AcDbPolyline
 90
        2
 70
     0
 43
0.0
 10
9.274726539063556
 20
5.275215450679543
 10
3.837836374612929
 20
6.844710450679539
  0
LWPOLYLINE
  5
B8
330
1F
100
AcDbEntity
  8
MAIN-1
  6
Continuous
 62
    18
420
        0
370
    25
100
AcDbPolyline
 90
        2
 70
     0
 43
0.0
 10
9.274726539063556
 20
5.275215450679543
 10
9.587370370083777
 20
4.916217947377154
  0
LWPOLYLINE
  5
B9
330
1F
100
AcDbEntity
  8
MAIN-1
  6
Continuous
 62
    18
420
        0
370
    25
100
AcDbPolyline
 90
        2
 70
     0
 43
0.0
 10
14.18544658143709
 20
5.898268754946033
 10
14.18544658143709
 20
13.25948468711376
  0
LWPOLYLINE
  5
BA
330
1F
100
AcDbEntity
  8
MAIN-1
  6
Continuous
 62
    18
420
        0
370
    25
100
AcDbPolyline
 90
        2
 70
     0
 43
0.0
 10
14.18544658143709
 20
13.25948468711376
 10
12.18544658143709
 20
11.52743387954488
  0
LWPOLYLINE
  5
BB
330
1F
100
AcDbEntity
  8
MAIN-1
  6
Continuous
 62
    18
420
        0
370
    25
100
AcDbPolyline
 90
        2
 70
     0
 43
0.0
 10
12.00243387954487
 20
12.30195293238322
 10
13.50243387954487
 20
13.60099103805987
  0
LWPOLYLINE
  5
BC
330
1F
100
AcDbEntity
  8
MAIN-1
  6
Continuous
 62
    18
420
        0
370
    25
100
AcDbPolyline
 90
        2
 70
     0
 43
0.0
 10
13.50243387954487
 20
13.60099103805987
 10
3.110129034131612
 20
16.60099103805987
  0
LWPOLYLINE
  5
BD
330
1F
100
AcDbEntity
  8
MAIN-1
  6
Continuous
 62
    18
420
        0
370
    25
100
AcDbPolyline
 90
        2
 70
     0
 43
0.0
 10
1.610129034131613
 20
15.30195293238321
 10
12.00243387954487
 20
12.30195293238322
  0
SPLINE
  5
BE
330
1F
100
AcDbEntity
  8
MAIN-1
  6
Continuous
 62
    18
420
        0
370
    25
100
AcDbSpline
210
0.0
220
0.0
230
1.0
 70
     8
 71
     3
 72
     8
 73
     4
 74
     0
 42
0.000000001
 43
0.0
 40
0.0
 40
0.0
 40
0.0
 40
0.0
 40
1.0
 40
1.0
 40
1.0
 40
1.0
 10
2.926154438064679
 20
3.577111610549347
 30
0.0
 10
2.926157811753241
 20
3.523523458983497
 30
0.0
 10
2.98333703667431
 20
3.474006597467932
 30
0.0
 10
3.07615443791605
 20
3.447212521671732
 30
0.0
  0
SPLINE
  5
BF
330
1F
100
AcDbEntity
  8
MAIN-1
  6
Continuous
 62
    18
420
        0
370
    25
100
AcDbSpline
210
0.0
220
0.0
230
1.0
 70
     8
 71
     3
 72
     8
 73
     4
 74
     0
 42
0.000000001
 43
0.0
 40
0.0
 40
0.0
 40
0.0
 40
0.0
 40
1.0
 40
1.0
 40
1.0
 40
1.0
 10
11.58640847590907
 20
1.077111610549348
 30
0.0
 10
11.58641184959763
 20
1.023523458983501
 30
0.0
 10
11.6435910745187
 20
0.9740065974679339
 30
0.0
 10
11.73640847576044
 20
0.9472125216717373
 30
0.0
  0
LWPOLYLINE
  5
C0
330
1F
100
AcDbEntity
  8
MAIN-1
  6
Continuous
 62
    18
420
        0
370
    25
100
AcDbPolyline
 90
        2
 70
     0
 43
0.0
 10
13.50243387954487
 20
13.60099103805987
 10
13.54348734972677
 20
13.60570828835467
  0
LWPOLYLINE
  5
C1
330
1F
100
AcDbEntity
  8
MAIN-1
  6
Continuous
 62
    18
420
        0
370
    25
100
AcDbPolyline
 90
        2
 70
     0
 43
0.0
 10
13.54348734972677
 20
13.60570828835467
 10
13.58534447844096
 20
13.60889699014878
  0
LWPOLYLINE
  5
C2
330
1F
100
AcDbEntity
  8
MAIN-1
  6
Continuous
 62
    18
420
        0
370
    25
100
AcDbPolyline
 90
        2
 70
     0
 43
0.0
 10
13.58534447844096
 20
13.60889699014878
 10
13.6277827349943
 20
13.61043004758715
  0
LWPOLYLINE
  5
C3
330
1F
100
AcDbEntity
  8
MAIN-1
  6
Continuous
 62
    18
420
        0
370
    25
100
AcDbPolyline
 90
        2
 70
     0
 43
0.0
 10
13.6277827349943
 20
13.61043004758715
 10
13.67055287817576
 20
13.61019199853145
  0
LWPOLYLINE
  5
C4
330
1F
100
AcDbEntity
  8
MAIN-1
  6
Continuous
 62
    18
420
        0
370
    25
100
AcDbPolyline
 90
        2
 70
     0
 43
0.0
 10
13.67055287817576
 20
13.61019199853145
 10
13.71337924793724
 20
13.60808352446224
  0
LWPOLYLINE
  5
C5
330
1F
100
AcDbEntity
  8
MAIN-1
  6
Continuous
 62
    18
420
        0
370
    25
100
AcDbPolyline
 90
        2
 70
     0
 43
0.0
 10
13.71337924793724
 20
13.60808352446224
 10
13.75596606193519
 20
13.60402118139805
  0
LWPOLYLINE
  5
C6
330
1F
100
AcDbEntity
  8
MAIN-1
  6
Continuous
 62
    18
420
        0
370
    25
100
AcDbPolyline
 90
        2
 70
     0
 43
0.0
 10
13.75596606193519
 20
13.60402118139805
 10
13.79800268610865
 20
13.59794558280823
  0
LWPOLYLINE
  5
C7
330
1F
100
AcDbEntity
  8
MAIN-1
  6
Continuous
 62
    18
420
        0
370
    25
100
AcDbPolyline
 90
        2
 70
     0
 43
0.0
 10
13.79800268610865
 20
13.59794558280823
 10
13.83916588475461
 20
13.58982334823535
  0
LWPOLYLINE
  5
C8
330
1F
100
AcDbEntity
  8
MAIN-1
  6
Continuous
 62
    18
420
        0
370
    25
100
AcDbPolyline
 90
        2
 70
     0
 43
0.0
 10
13.83916588475461
 20
13.58982334823535
 10
13.87913393876366
 20
13.5796468045118
  0
LWPOLYLINE
  5
C9
330
1F
100
AcDbEntity
  8
MAIN-1
  6
Continuous
 62
    18
420
        0
370
    25
100
AcDbPolyline
 90
        2
 70
     0
 43
0.0
 10
13.87913393876366
 20
13.5796468045118
 10
13.91476260685078
 20
13.5684255981212
  0
LWPOLYLINE
  5
CA
330
1F
100
AcDbEntity
  8
MAIN-1
  6
Continuous
 62
    18
420
        0
370
    25
100
AcDbPolyline
 90
        2
 70
     0
 43
0.0
 10
13.91476260685078
 20
13.5684255981212
 10
13.94885266054382
 20
13.55550744128257
  0
LWPOLYLINE
  5
CB
330
1F
100
AcDbEntity
  8
MAIN-1
  6
Continuous
 62
    18
420
        0
370
    25
100
AcDbPolyline
 90
        2
 70
     0
 43
0.0
 10
13.94885266054382
 20
13.55550744128257
 10
13.98117623896702
 20
13.5409568729056
  0
LWPOLYLINE
  5
CC
330
1F
100
AcDbEntity
  8
MAIN-1
  6
Continuous
 62
    18
420
        0
370
    25
100
AcDbPolyline
 90
        2
 70
     0
 43
0.0
 10
13.98117623896702
 20
13.5409568729056
 10
14.0115250969006
 20
13.52485598075295
  0
LWPOLYLINE
  5
CD
330
1F
100
AcDbEntity
  8
MAIN-1
  6
Continuous
 62
    18
420
        0
370
    25
100
AcDbPolyline
 90
        2
 70
     0
 43
0.0
 10
14.0115250969006
 20
13.52485598075295
 10
14.03971640324167
 20
13.50730961012026
  0
LWPOLYLINE
  5
CE
330
1F
100
AcDbEntity
  8
MAIN-1
  6
Continuous
 62
    18
420
        0
370
    25
100
AcDbPolyline
 90
        2
 70
     0
 43
0.0
 10
14.03971640324167
 20
13.50730961012026
 10
14.06559405975705
 20
13.4884382468477
  0
LWPOLYLINE
  5
CF
330
1F
100
AcDbEntity
  8
MAIN-1
  6
Continuous
 62
    18
420
        0
370
    25
100
AcDbPolyline
 90
        2
 70
     0
 43
0.0
 10
14.06559405975705
 20
13.4884382468477
 10
14.08903302543755
 20
13.46837546990482
  0
LWPOLYLINE
  5
D0
330
1F
100
AcDbEntity
  8
MAIN-1
  6
Continuous
 62
    18
420
        0
370
    25
100
AcDbPolyline
 90
        2
 70
     0
 43
0.0
 10
14.08903302543755
 20
13.46837546990482
 10
14.10994080923108
 20
13.44726829046107
  0
LWPOLYLINE
  5
D1
330
1F
100
AcDbEntity
  8
MAIN-1
  6
Continuous
 62
    18
420
        0
370
    25
100
AcDbPolyline
 90
        2
 70
     0
 43
0.0
 10
14.10994080923108
 20
13.44726829046107
 10
14.12825857348302
 20
13.42527054656933
  0
LWPOLYLINE
  5
D2
330
1F
100
AcDbEntity
  8
MAIN-1
  6
Continuous
 62
    18
420
        0
370
    25
100
AcDbPolyline
 90
        2
 70
     0
 43
0.0
 10
14.12825857348302
 20
13.42527054656933
 10
14.14395937688434
 20
13.40254081114446
  0
LWPOLYLINE
  5
D3
330
1F
100
AcDbEntity
  8
MAIN-1
  6
Continuous
 62
    18
420
        0
370
    25
100
AcDbPolyline
 90
        2
 70
     0
 43
0.0
 10
14.14395937688434
 20
13.40254081114446
 10
14.15704938763109
 20
13.37923988342923
  0
LWPOLYLINE
  5
D4
330
1F
100
AcDbEntity
  8
MAIN-1
  6
Continuous
 62
    18
420
        0
370
    25
100
AcDbPolyline
 90
        2
 70
     0
 43
0.0
 10
14.15704938763109
 20
13.37923988342923
 10
14.16756382822232
 20
13.35552531044027
  0
LWPOLYLINE
  5
D5
330
1F
100
AcDbEntity
  8
MAIN-1
  6
Continuous
 62
    18
420
        0
370
    25
100
AcDbPolyline
 90
        2
 70
     0
 43
0.0
 10
14.16756382822232
 20
13.35552531044027
 10
14.17556515490135
 20
13.33155076399229
  0
LWPOLYLINE
  5
D6
330
1F
100
AcDbEntity
  8
MAIN-1
  6
Continuous
 62
    18
420
        0
370
    25
100
AcDbPolyline
 90
        2
 70
     0
 43
0.0
 10
14.17556515490135
 20
13.33155076399229
 10
14.18113856484859
 20
13.30746348679162
  0
LWPOLYLINE
  5
D7
330
1F
100
AcDbEntity
  8
MAIN-1
  6
Continuous
 62
    18
420
        0
370
    25
100
AcDbPolyline
 90
        2
 70
     0
 43
0.0
 10
14.18113856484859
 20
13.30746348679162
 10
14.18439151660625
 20
13.28339879390659
  0
LWPOLYLINE
  5
D8
330
1F
100
AcDbEntity
  8
MAIN-1
  6
Continuous
 62
    18
420
        0
370
    25
100
AcDbPolyline
 90
        2
 70
     0
 43
0.0
 10
14.18439151660625
 20
13.28339879390659
 10
14.18544658143709
 20
13.25948468711376
  0
LWPOLYLINE
  5
D9
330
1F
100
AcDbEntity
  8
MAIN-1
  6
Continuous
 62
    18
420
        0
370
    25
100
AcDbPolyline
 90
        2
 70
     0
 43
0.0
 10
12.1854465814371
 20
11.52743387954488
 10
12.18518977728386
 20
11.55082554653586
  0
LWPOLYLINE
  5
DA
330
1F
100
AcDbEntity
  8
MAIN-1
  6
Continuous
 62
    18
420
        0
370
    25
100
AcDbPolyline
 90
        2
 70
     0
 43
0.0
 10
12.18518977728386
 20
11.55082554653586
 10
12.18440054077324
 20
11.57562037191606
  0
LWPOLYLINE
  5
DB
330
1F
100
AcDbEntity
  8
MAIN-1
  6
Continuous
 62
    18
420
        0
370
    25
100
AcDbPolyline
 90
        2
 70
     0
 43
0.0
 10
12.18440054077324
 20
11.57562037191606
 10
12.18304859643267
 20
11.60177809169462
  0
LWPOLYLINE
  5
DC
330
1F
100
AcDbEntity
  8
MAIN-1
  6
Continuous
 62
    18
420
        0
370
    25
100
AcDbPolyline
 90
        2
 70
     0
 43
0.0
 10
12.18304859643267
 20
11.60177809169462
 10
12.18110881129223
 20
11.62924071454642
  0
LWPOLYLINE
  5
DD
330
1F
100
AcDbEntity
  8
MAIN-1
  6
Continuous
 62
    18
420
        0
370
    25
100
AcDbPolyline
 90
        2
 70
     0
 43
0.0
 10
12.18110881129223
 20
11.62924071454642
 10
12.17856189302267
 20
11.65793121906869
  0
LWPOLYLINE
  5
DE
330
1F
100
AcDbEntity
  8
MAIN-1
  6
Continuous
 62
    18
420
        0
370
    25
100
AcDbPolyline
 90
        2
 70
     0
 43
0.0
 10
12.17856189302267
 20
11.65793121906869
 10
12.17539118840233
 20
11.6877559921454
  0
LWPOLYLINE
  5
DF
330
1F
100
AcDbEntity
  8
MAIN-1
  6
Continuous
 62
    18
420
        0
370
    25
100
AcDbPolyline
 90
        2
 70
     0
 43
0.0
 10
12.17539118840233
 20
11.6877559921454
 10
12.17158621680156
 20
11.71860146885063
  0
LWPOLYLINE
  5
E0
330
1F
100
AcDbEntity
  8
MAIN-1
  6
Continuous
 62
    18
420
        0
370
    25
100
AcDbPolyline
 90
        2
 70
     0
 43
0.0
 10
12.17158621680156
 20
11.71860146885063
 10
12.16714419422699
 20
11.75033837262989
  0
LWPOLYLINE
  5
E1
330
1F
100
AcDbEntity
  8
MAIN-1
  6
Continuous
 62
    18
420
        0
370
    25
100
AcDbPolyline
 90
        2
 70
     0
 43
0.0
 10
12.16714419422699
 20
11.75033837262989
 10
12.16206884978746
 20
11.7828191662854
  0
LWPOLYLINE
  5
E2
330
1F
100
AcDbEntity
  8
MAIN-1
  6
Continuous
 62
    18
420
        0
370
    25
100
AcDbPolyline
 90
        2
 70
     0
 43
0.0
 10
12.16206884978746
 20
11.7828191662854
 10
12.15637041713519
 20
11.81588369813903
  0
LWPOLYLINE
  5
E3
330
1F
100
AcDbEntity
  8
MAIN-1
  6
Continuous
 62
    18
420
        0
370
    25
100
AcDbPolyline
 90
        2
 70
     0
 43
0.0
 10
12.15637041713519
 20
11.81588369813903
 10
12.15006634116269
 20
11.84936051218781
  0
LWPOLYLINE
  5
E4
330
1F
100
AcDbEntity
  8
MAIN-1
  6
Continuous
 62
    18
420
        0
370
    25
100
AcDbPolyline
 90
        2
 70
     0
 43
0.0
 10
12.15006634116269
 20
11.84936051218781
 10
12.14318316823366
 20
11.88306657774336
  0
LWPOLYLINE
  5
E5
330
1F
100
AcDbEntity
  8
MAIN-1
  6
Continuous
 62
    18
420
        0
370
    25
100
AcDbPolyline
 90
        2
 70
     0
 43
0.0
 10
12.14318316823366
 20
11.88306657774336
 10
12.13575194837381
 20
11.91681481100145
  0
LWPOLYLINE
  5
E6
330
1F
100
AcDbEntity
  8
MAIN-1
  6
Continuous
 62
    18
420
        0
370
    25
100
AcDbPolyline
 90
        2
 70
     0
 43
0.0
 10
12.13575194837381
 20
11.91681481100145
 10
12.12781284163889
 20
11.95041412180838
  0
LWPOLYLINE
  5
E7
330
1F
100
AcDbEntity
  8
MAIN-1
  6
Continuous
 62
    18
420
        0
370
    25
100
AcDbPolyline
 90
        2
 70
     0
 43
0.0
 10
12.12781284163889
 20
11.95041412180838
 10
12.11940970295815
 20
11.98367648292328
  0
LWPOLYLINE
  5
E8
330
1F
100
AcDbEntity
  8
MAIN-1
  6
Continuous
 62
    18
420
        0
370
    25
100
AcDbPolyline
 90
        2
 70
     0
 43
0.0
 10
12.11940970295815
 20
11.98367648292328
 10
12.11059256841169
 20
12.01641552403649
  0
LWPOLYLINE
  5
E9
330
1F
100
AcDbEntity
  8
MAIN-1
  6
Continuous
 62
    18
420
        0
370
    25
100
AcDbPolyline
 90
        2
 70
     0
 43
0.0
 10
12.11059256841169
 20
12.01641552403649
 10
12.10141507542034
 20
12.04845567320947
  0
LWPOLYLINE
  5
EA
330
1F
100
AcDbEntity
  8
MAIN-1
  6
Continuous
 62
    18
420
        0
370
    25
100
AcDbPolyline
 90
        2
 70
     0
 43
0.0
 10
12.10141507542034
 20
12.04845567320947
 10
12.09193494814165
 20
12.07962940138351
  0
LWPOLYLINE
  5
EB
330
1F
100
AcDbEntity
  8
MAIN-1
  6
Continuous
 62
    18
420
        0
370
    25
100
AcDbPolyline
 90
        2
 70
     0
 43
0.0
 10
12.09193494814165
 20
12.07962940138351
 10
12.08221000426592
 20
12.10978539532093
  0
LWPOLYLINE
  5
EC
330
1F
100
AcDbEntity
  8
MAIN-1
  6
Continuous
 62
    18
420
        0
370
    25
100
AcDbPolyline
 90
        2
 70
     0
 43
0.0
 10
12.08221000426592
 20
12.10978539532093
 10
12.07229922789983
 20
12.13878783493718
  0
LWPOLYLINE
  5
ED
330
1F
100
AcDbEntity
  8
MAIN-1
  6
Continuous
 62
    18
420
        0
370
    25
100
AcDbPolyline
 90
        2
 70
     0
 43
0.0
 10
12.07229922789983
 20
12.13878783493718
 10
12.06226326352128
 20
12.16651790252077
  0
LWPOLYLINE
  5
EE
330
1F
100
AcDbEntity
  8
MAIN-1
  6
Continuous
 62
    18
420
        0
370
    25
100
AcDbPolyline
 90
        2
 70
     0
 43
0.0
 10
12.06226326352128
 20
12.16651790252077
 10
12.05215864319491
 20
12.19287558684358
  0
LWPOLYLINE
  5
EF
330
1F
100
AcDbEntity
  8
MAIN-1
  6
Continuous
 62
    18
420
        0
370
    25
100
AcDbPolyline
 90
        2
 70
     0
 43
0.0
 10
12.05215864319491
 20
12.19287558684358
 10
12.04204169480215
 20
12.21778103267062
  0
LWPOLYLINE
  5
F0
330
1F
100
AcDbEntity
  8
MAIN-1
  6
Continuous
 62
    18
420
        0
370
    25
100
AcDbPolyline
 90
        2
 70
     0
 43
0.0
 10
12.04204169480215
 20
12.21778103267062
 10
12.03196395279083
 20
12.24117476435424
  0
LWPOLYLINE
  5
F1
330
1F
100
AcDbEntity
  8
MAIN-1
  6
Continuous
 62
    18
420
        0
370
    25
100
AcDbPolyline
 90
        2
 70
     0
 43
0.0
 10
12.03196395279083
 20
12.24117476435424
 10
12.02197464445257
 20
12.26301380213396
  0
LWPOLYLINE
  5
F2
330
1F
100
AcDbEntity
  8
MAIN-1
  6
Continuous
 62
    18
420
        0
370
    25
100
AcDbPolyline
 90
        2
 70
     0
 43
0.0
 10
12.02197464445257
 20
12.26301380213396
 10
12.01211810155376
 20
12.28327488705281
  0
LWPOLYLINE
  5
F3
330
1F
100
AcDbEntity
  8
MAIN-1
  6
Continuous
 62
    18
420
        0
370
    25
100
AcDbPolyline
 90
        2
 70
     0
 43
0.0
 10
12.01211810155376
 20
12.28327488705281
 10
12.00243387954488
 20
12.30195293238321
  0
LWPOLYLINE
  5
F4
330
1F
100
AcDbEntity
  8
MAIN-1
  6
Continuous
 62
    18
420
        0
370
    25
100
AcDbPolyline
 90
        2
 70
     0
 43
0.0
 10
2.971782737175651
 20
16.70960475625043
 10
1.093821619401403
 20
15.08324272093851
  0
LWPOLYLINE
  5
F5
330
1F
100
AcDbEntity
  8
MAIN-1
  6
Continuous
 62
    18
420
        0
370
    25
100
AcDbPolyline
 90
        2
 70
     0
 43
0.0
 10
12.18640841718115
 20
4.167050961069243
 10
12.18640841718115
 20
1.077121084345244
  0
LWPOLYLINE
  5
F6
330
1F
100
AcDbEntity
  8
MAIN-1
  6
Continuous
 62
    18
420
        0
370
    25
100
AcDbPolyline
 90
        2
 70
     0
 43
0.0
 10
3.526154482575039
 20
6.666767129254117
 10
3.526154482575039
 20
3.577121054542921
  0
LWPOLYLINE
  5
F7
330
1F
100
AcDbEntity
  8
MAIN-1
  6
Continuous
 62
    18
420
        0
370
    25
100
AcDbPolyline
 90
        2
 70
     0
 43
0.0
 10
2.92615443791605
 20
6.839150088356245
 10
2.92615443791605
 20
3.577116332239401
  0
LWPOLYLINE
  5
F8
330
1F
100
AcDbEntity
  8
MAIN-1
  6
Continuous
 62
    18
420
        0
370
    25
100
AcDbPolyline
 90
        2
 70
     0
 43
0.0
 10
11.58640847576044
 20
4.339150088356245
 10
11.58640847576044
 20
1.077116332239402
  0
LWPOLYLINE
  5
F9
330
1F
100
AcDbEntity
  8
MAIN-1
  6
Continuous
 62
    18
420
        0
370
    25
100
AcDbPolyline
 90
        2
 70
     0
 43
0.0
 10
13.88130639846242
 20
13.57902376064138
 10
3.008606832708005
 20
16.7177017711945
  0
LWPOLYLINE
  5
FA
330
1F
100
AcDbEntity
  8
MAIN-1
  6
Continuous
 62
    18
420
        0
370
    25
100
AcDbPolyline
 90
        2
 70
     0
 43
0.0
 10
7.972659234233917
 20
9.522605581617377
 10
8.040068146927526
 20
9.734805743284415
  0
LWPOLYLINE
  5
FB
330
1F
100
AcDbEntity
  8
MAIN-1
  6
Continuous
 62
    18
420
        0
370
    25
100
AcDbPolyline
 90
        2
 70
     0
 43
0.0
 10
8.513822491109263
 20
9.36638520560112
 10
7.972659234233917
 20
9.522605581617377
  0
LWPOLYLINE
  5
FC
330
1F
100
AcDbEntity
  8
MAIN-1
  6
Continuous
 62
    18
420
        0
370
    25
100
AcDbPolyline
 90
        2
 70
     0
 43
0.0
 10
8.447236305114645
 20
9.152528490832301
 10
8.513822491109263
 20
9.36638520560112
  0
LWPOLYLINE
  5
FD
330
1F
100
AcDbEntity
  8
MAIN-1
  6
Continuous
 62
    18
420
        0
370
    25
100
AcDbPolyline
 90
        2
 70
     0
 43
0.0
 10
7.816688206139474
 20
9.021183638120531
 10
7.905325613893647
 20
9.306077881212943
  0
LWPOLYLINE
  5
FE
330
1F
100
AcDbEntity
  8
MAIN-1
  6
Continuous
 62
    18
420
        0
370
    25
100
AcDbPolyline
 90
        2
 70
     0
 43
0.0
 10
8.410289138913562
 20
8.849825808956364
 10
7.816688206139474
 20
9.021183638120531
  0
LWPOLYLINE
  5
FF
330
1F
100
AcDbEntity
  8
MAIN-1
  6
Continuous
 62
    18
420
        0
370
    25
100
AcDbPolyline
 90
        2
 70
     0
 43
0.0
 10
8.342199913364267
 20
8.629524277800101
 10
8.410289138913562
 20
8.849825808956364
  0
LWPOLYLINE
  5
100
330
1F
100
AcDbEntity
  8
MAIN-1
  6
Continuous
 62
    18
420
        0
370
    25
100
AcDbPolyline
 90
        2
 70
     0
 43
0.0
 10
9.77652142102593
 20
9.476498504351403
 10
7.752172534830016
 20
10.06087769154087
  0
LWPOLYLINE
  5
101
330
1F
100
AcDbEntity
  8
MAIN-1
  6
Continuous
 62
    18
420
        0
370
    25
100
AcDbPolyline
 90
        2
 70
     0
 43
0.0
 10
9.706541342011088
 20
9.253191698566742
 10
9.776521421025926
 20
9.476498504351405
  0
LWPOLYLINE
  5
102
330
1F
100
AcDbEntity
  8
MAIN-1
  6
Continuous
 62
    18
420
        0
370
    25
100
AcDbPolyline
 90
        2
 70
     0
 43
0.0
 10
9.06881217817532
 20
8.419769384457528
 10
9.360453965233827
 20
9.350239044170154
  0
LWPOLYLINE
  5
103
330
1F
100
AcDbEntity
  8
MAIN-1
  6
Continuous
 62
    18
420
        0
370
    25
100
AcDbPolyline
 90
        2
 70
     0
 43
0.0
 10
8.038409499735678
 20
9.735289219779158
 10
8.616282197168271
 20
9.56684600440733
  0
LWPOLYLINE
  5
104
330
1F
100
AcDbEntity
  8
MAIN-1
  6
Continuous
 62
    18
420
        0
370
    25
100
AcDbPolyline
 90
        2
 70
     0
 43
0.0
 10
8.616282197168271
 20
9.56684600440733
 10
8.999649306489244
 20
9.45439451019566
  0
LWPOLYLINE
  5
105
330
1F
100
AcDbEntity
  8
MAIN-1
  6
Continuous
 62
    18
420
        0
370
    25
100
AcDbPolyline
 90
        2
 70
     0
 43
0.0
 10
8.999649306489244
 20
9.454394510195659
 10
8.707093393130739
 20
8.521301852069797
  0
LWPOLYLINE
  5
106
330
1F
100
AcDbEntity
  8
MAIN-1
  6
Continuous
 62
    18
420
        0
370
    25
100
AcDbPolyline
 90
        2
 70
     0
 43
0.0
 10
8.70709339313074
 20
8.521301852069797
 10
9.06631217817532
 20
8.417604320948067
  0
LWPOLYLINE
  5
107
330
1F
100
AcDbEntity
  8
MAIN-1
  6
Continuous
 62
    18
420
        0
370
    25
100
AcDbPolyline
 90
        2
 70
     0
 43
0.0
 10
9.06631217817532
 20
8.417604320948067
 10
9.358783737272478
 20
9.350721330048543
  0
LWPOLYLINE
  5
108
330
1F
100
AcDbEntity
  8
MAIN-1
  6
Continuous
 62
    18
420
        0
370
    25
100
AcDbPolyline
 90
        2
 70
     0
 43
0.0
 10
9.358783737272477
 20
9.350721330048543
 10
9.704041342011088
 20
9.251026635057281
  0
LWPOLYLINE
  5
109
330
1F
100
AcDbEntity
  8
MAIN-1
  6
Continuous
 62
    18
420
        0
370
    25
100
AcDbPolyline
 90
        2
 70
     0
 43
0.0
 10
9.704041342011088
 20
9.251026635057281
 10
9.774021421025926
 20
9.474333440841944
  0
LWPOLYLINE
  5
10A
330
1F
100
AcDbEntity
  8
MAIN-1
  6
Continuous
 62
    18
420
        0
370
    25
100
AcDbPolyline
 90
        2
 70
     0
 43
0.0
 10
9.774021421025928
 20
9.474333440841942
 10
7.749672534830016
 20
10.05871262803141
  0
LWPOLYLINE
  5
10B
330
1F
100
AcDbEntity
  8
MAIN-1
  6
Continuous
 62
    18
420
        0
370
    25
100
AcDbPolyline
 90
        2
 70
     0
 43
0.0
 10
7.749672534830016
 20
10.05871262803141
 10
7.386956881236999
 20
8.902392437324247
  0
LWPOLYLINE
  5
10C
330
1F
100
AcDbEntity
  8
MAIN-1
  6
Continuous
 62
    18
420
        0
370
    25
100
AcDbPolyline
 90
        2
 70
     0
 43
0.0
 10
7.386956881237001
 20
8.902392437324247
 10
8.339699913364267
 20
8.627359214290639
  0
LWPOLYLINE
  5
10D
330
1F
100
AcDbEntity
  8
MAIN-1
  6
Continuous
 62
    18
420
        0
370
    25
100
AcDbPolyline
 90
        2
 70
     0
 43
0.0
 10
8.339699913364267
 20
8.62735921429064
 10
8.40778913891356
 20
8.847660745446904
  0
LWPOLYLINE
  5
10E
330
1F
100
AcDbEntity
  8
MAIN-1
  6
Continuous
 62
    18
420
        0
370
    25
100
AcDbPolyline
 90
        2
 70
     0
 43
0.0
 10
8.40778913891356
 20
8.847660745446904
 10
7.814188206139474
 20
9.01901857461107
  0
LWPOLYLINE
  5
10F
330
1F
100
AcDbEntity
  8
MAIN-1
  6
Continuous
 62
    18
420
        0
370
    25
100
AcDbPolyline
 90
        2
 70
     0
 43
0.0
 10
7.814188206139474
 20
9.01901857461107
 10
7.903649733930888
 20
9.306561666086758
  0
LWPOLYLINE
  5
110
330
1F
100
AcDbEntity
  8
MAIN-1
  6
Continuous
 62
    18
420
        0
370
    25
100
AcDbPolyline
 90
        2
 70
     0
 43
0.0
 10
7.903649733930888
 20
9.306561666086758
 10
8.444736305114645
 20
9.15036342732284
  0
LWPOLYLINE
  5
111
330
1F
100
AcDbEntity
  8
MAIN-1
  6
Continuous
 62
    18
420
        0
370
    25
100
AcDbPolyline
 90
        2
 70
     0
 43
0.0
 10
8.444736305114645
 20
9.15036342732284
 10
8.511322491109263
 20
9.364220142091659
  0
LWPOLYLINE
  5
112
330
1F
100
AcDbEntity
  8
MAIN-1
  6
Continuous
 62
    18
420
        0
370
    25
100
AcDbPolyline
 90
        2
 70
     0
 43
0.0
 10
8.511322491109263
 20
9.364220142091659
 10
7.970159234233917
 20
9.520440518107916
  0
LWPOLYLINE
  5
113
330
1F
100
AcDbEntity
  8
MAIN-1
  6
Continuous
 62
    18
420
        0
370
    25
100
AcDbPolyline
 90
        2
 70
     0
 43
0.0
 10
7.970159234233917
 20
9.520440518107916
 10
8.038409499735678
 20
9.735289219779158
  0
LWPOLYLINE
  5
114
330
1F
100
AcDbEntity
  8
MAIN-1
  6
Continuous
 62
    18
420
        0
370
    25
100
AcDbPolyline
 90
        2
 70
     0
 43
0.0
 10
4.058979990645179
 20
11.12701054631798
 10
3.699922245552903
 20
11.23066158920981
  0
LWPOLYLINE
  5
115
330
1F
100
AcDbEntity
  8
MAIN-1
  6
Continuous
 62
    18
420
        0
370
    25
100
AcDbPolyline
 90
        2
 70
     0
 43
0.0
 10
3.904834082007315
 20
10.6337578936464
 10
4.058979990645179
 20
11.12701054631798
  0
LWPOLYLINE
  5
116
330
1F
100
AcDbEntity
  8
MAIN-1
  6
Continuous
 62
    18
420
        0
370
    25
100
AcDbPolyline
 90
        2
 70
     0
 43
0.0
 10
4.440759706151163
 20
11.01680023555873
 10
3.904834082007315
 20
10.6337578936464
  0
LWPOLYLINE
  5
117
330
1F
100
AcDbEntity
  8
MAIN-1
  6
Continuous
 62
    18
420
        0
370
    25
100
AcDbPolyline
 90
        2
 70
     0
 43
0.0
 10
4.855751994678125
 20
10.89700228081239
 10
4.440759706151165
 20
11.01680023555872
  0
LWPOLYLINE
  5
118
330
1F
100
AcDbEntity
  8
MAIN-1
  6
Continuous
 62
    18
420
        0
370
    25
100
AcDbPolyline
 90
        2
 70
     0
 43
0.0
 10
4.550880358240299
 20
9.723983960667457
 10
4.267196127827823
 20
10.49026762433536
  0
LWPOLYLINE
  5
119
330
1F
100
AcDbEntity
  8
MAIN-1
  6
Continuous
 62
    18
420
        0
370
    25
100
AcDbPolyline
 90
        2
 70
     0
 43
0.0
 10
3.696103297100021
 20
9.970736843840683
 10
3.890829295832929
 20
10.59391003321605
  0
LWPOLYLINE
  5
11A
330
1F
100
AcDbEntity
  8
MAIN-1
  6
Continuous
 62
    18
420
        0
370
    25
100
AcDbPolyline
 90
        2
 70
     0
 43
0.0
 10
3.697422245552903
 20
11.22849652570035
 10
3.335024838592621
 20
10.07208446510369
  0
LWPOLYLINE
  5
11B
330
1F
100
AcDbEntity
  8
MAIN-1
  6
Continuous
 62
    18
420
        0
370
    25
100
AcDbPolyline
 90
        2
 70
     0
 43
0.0
 10
3.335024838592621
 20
10.07208446510369
 10
3.693603297100022
 20
9.968571780331224
  0
LWPOLYLINE
  5
11C
330
1F
100
AcDbEntity
  8
MAIN-1
  6
Continuous
 62
    18
420
        0
370
    25
100
AcDbPolyline
 90
        2
 70
     0
 43
0.0
 10
3.693603297100021
 20
9.968571780331224
 10
3.889853484694152
 20
10.59662276537865
  0
LWPOLYLINE
  5
11D
330
1F
100
AcDbEntity
  8
MAIN-1
  6
Continuous
 62
    18
420
        0
370
    25
100
AcDbPolyline
 90
        2
 70
     0
 43
0.0
 10
3.889853484694152
 20
10.59662276537865
 10
4.164691169014143
 20
9.832580425500431
  0
LWPOLYLINE
  5
11E
330
1F
100
AcDbEntity
  8
MAIN-1
  6
Continuous
 62
    18
420
        0
370
    25
100
AcDbPolyline
 90
        2
 70
     0
 43
0.0
 10
4.164691169014143
 20
9.832580425500431
 10
4.5483803582403
 20
9.721818897157997
  0
LWPOLYLINE
  5
11F
330
1F
100
AcDbEntity
  8
MAIN-1
  6
Continuous
 62
    18
420
        0
370
    25
100
AcDbPolyline
 90
        2
 70
     0
 43
0.0
 10
4.548380358240299
 20
9.721818897157997
 10
4.264566613721299
 20
10.48845240242231
  0
LWPOLYLINE
  5
120
330
1F
100
AcDbEntity
  8
MAIN-1
  6
Continuous
 62
    18
420
        0
370
    25
100
AcDbPolyline
 90
        2
 70
     0
 43
0.0
 10
4.2645666137213
 20
10.48845240242231
 10
4.853251994678126
 20
10.89483721730293
  0
LWPOLYLINE
  5
121
330
1F
100
AcDbEntity
  8
MAIN-1
  6
Continuous
 62
    18
420
        0
370
    25
100
AcDbPolyline
 90
        2
 70
     0
 43
0.0
 10
4.853251994678126
 20
10.89483721730293
 10
4.438259706151165
 20
11.01463517204926
  0
LWPOLYLINE
  5
122
330
1F
100
AcDbEntity
  8
MAIN-1
  6
Continuous
 62
    18
420
        0
370
    25
100
AcDbPolyline
 90
        2
 70
     0
 43
0.0
 10
4.438259706151164
 20
11.01463517204926
 10
3.902334082007315
 20
10.63159283013694
  0
LWPOLYLINE
  5
123
330
1F
100
AcDbEntity
  8
MAIN-1
  6
Continuous
 62
    18
420
        0
370
    25
100
AcDbPolyline
 90
        2
 70
     0
 43
0.0
 10
3.902334082007315
 20
10.63159283013694
 10
4.056479990645179
 20
11.12484548280852
  0
LWPOLYLINE
  5
124
330
1F
100
AcDbEntity
  8
MAIN-1
  6
Continuous
 62
    18
420
        0
370
    25
100
AcDbPolyline
 90
        2
 70
     0
 43
0.0
 10
4.056479990645179
 20
11.12484548280852
 10
3.697422245552903
 20
11.22849652570035
  0
VIEWPORT
  5
129
330
125
100
AcDbEntity
 67
     1
  8
0
100
AcDbViewport
 10
128.5
 20
97.5
 30
0.0
 40
314.226
 41
222.18
 68
     1
 69
     1
 12
7.556281456838243
 22
8.823279654633321
 13
0.0
 23
0.0
 14
10.0
 24
10.0
 15
10.0
 25
10.0
 16
0.0
 26
0.0
 36
1.0
 17
0.0
 27
0.0
 37
0.0
 42
50.0
 43
0.0
 44
0.0
 45
222.18
 50
0.0
 51
0.0
 72
   100
 90
   557152
  1

281
     0
 71
     1
 74
     0
110
0.0
120
0.0
130
0.0
111
1.0
121
0.0
131
0.0
112
0.0
122
1.0
132
0.0
 79
     0
146
0.0
170
     0
 61
     5
348
2F
292
     1
282
     1
141
0.0
142
0.0
 63
   256
361
12A
  0
VIEWPORT
  5
12B
330
125
100
AcDbEntity
 67
     1
  8
0
100
AcDbViewport
 10
7.556281456838243
 20
8.823279654633321
 30
0.0
 40
15.11256291367649
 41
17.64655930926664
 68
     2
 69
     2
 12
7.556281456838243
 22
8.823279654633321
 13
0.0
 23
0.0
 14
10.0
 24
10.0
 15
10.0
 25
10.0
 16
0.0
 26
0.0
 36
1.0
 17
0.0
 27
0.0
 37
0.0
 42
50.0
 43
0.0
 44
0.0
 45
17.64655930926664
 50
0.0
 51
0.0
 72
   100
 90
   557152
  1

281
     0
 71
     1
 74
     0
110
0.0
120
0.0
130
0.0
111
1.0
121
0.0
131
0.0
112
0.0
122
1.0
132
0.0
 79
     0
146
0.0
170
     0
 61
     5
348
2F
292
     1
282
     1
141
0.0
142
0.0
 63
   256
361
12C
  0
ENDSEC
  0
SECTION
  2
OBJECTS
  0
DICTIONARY
  5
C
330
0
100
AcDbDictionary
281
     1
  3
ACAD_DETAILVIEWSTYLE
350
134
  3
ACAD_GROUP
350
D
  3
ACAD_LAYOUT
350
1A
  3
ACAD_MATERIAL
350
43
  3
ACAD_MLEADERSTYLE
350
5B
  3
ACAD_MLINESTYLE
350
17
  3
ACAD_PLOTSETTINGS
350
19
  3
ACAD_PLOTSTYLENAME
350
E
  3
ACAD_SCALELIST
350
47
  3
ACAD_SECTIONVIEWSTYLE
350
135
  3
ACAD_TABLESTYLE
350
59
  3
ACAD_VISUALSTYLE
350
2A
  3
ACDB_RECOMPOSE_DATA
350
131
  3
AcDbVariableDictionary
350
12D
  0
SUN
  5
5D
330
29
100
AcDbSun
 90
        1
290
     0
 63
     7
421
 16777215
 40
1.0
291
     1
 91
  2455826
 92
 54000000
292
     0
 70
     2
 71
   256
280
     1
  0
SUN
  5
12A
330
129
100
AcDbSun
 90
        1
290
     0
 63
     7
421
 16777215
 40
1.0
291
     1
 91
  2455826
 92
 54000000
292
     0
 70
     2
 71
   256
280
     1
  0
SUN
  5
12C
330
12B
100
AcDbSun
 90
        1
290
     0
 63
     7
421
 16777215
 40
1.0
291
     1
 91
  2455826
 92
 54000000
292
     0
 70
     2
 71
   256
280
     1
  0
DICTIONARY
  5
134
102
{ACAD_REACTORS
330
C
102
}
330
C
100
AcDbDictionary
281
     1
  0
DICTIONARY
  5
D
102
{ACAD_REACTORS
330
C
102
}
330
C
100
AcDbDictionary
281
     1
  0
DICTIONARY
  5
1A
102
{ACAD_REACTORS
330
C
102
}
330
C
100
AcDbDictionary
281
     1
  3
Layout1
350
126
  3
Model
350
22
  0
DICTIONARY
  5
43
102
{ACAD_REACTORS
330
C
102
}
330
C
100
AcDbDictionary
281
     1
  3
ByBlock
350
45
  3
ByLayer
350
44
  3
Global
350
46
  0
DICTIONARY
  5
5B
102
{ACAD_REACTORS
330
C
102
}
330
C
100
AcDbDictionary
281
     1
  3
Standard
350
5C
  0
DICTIONARY
  5
17
102
{ACAD_REACTORS
330
C
102
}
330
C
100
AcDbDictionary
281
     1
  3
Standard
350
18
  0
DICTIONARY
  5
19
102
{ACAD_REACTORS
330
C
102
}
330
C
100
AcDbDictionary
281
     1
  0
ACDBDICTIONARYWDFLT
  5
E
102
{ACAD_REACTORS
330
C
102
}
330
C
100
AcDbDictionary
281
     1
  3
Normal
350
F
100
AcDbDictionaryWithDefault
340
F
  0
DICTIONARY
  5
47
102
{ACAD_REACTORS
330
C
102
}
330
C
100
AcDbDictionary
281
     1
  3
A0
350
48
  3
A1
350
49
  3
A2
350
4A
  3
A3
350
4B
  3
A4
350
4C
  3
A5
350
4D
  3
A6
350
4E
  3
A7
350
4F
  3
A8
350
50
  3
A9
350
51
  3
B0
350
52
  3
B1
350
53
  3
B2
350
54
  3
B3
350
55
  3
B4
350
56
  3
B5
350
57
  3
B6
350
58
  0
DICTIONARY
  5
135
102
{ACAD_REACTORS
330
C
102
}
330
C
100
AcDbDictionary
281
     1
  0
DICTIONARY
  5
59
102
{ACAD_REACTORS
330
C
102
}
330
C
100
AcDbDictionary
281
     1
  3
Standard
350
5A
  0
DICTIONARY
  5
2A
102
{ACAD_REACTORS
330
C
102
}
330
C
100
AcDbDictionary
281
     1
  3
2dWireframe
350
2F
  3
Basic
350
32
  3
Brighten
350
36
  3
ColorChange
350
3A
  3
Conceptual
350
34
  3
Dim
350
35
  3
EdgeColorOff
350
3D
  3
Facepattern
350
39
  3
Flat
350
2B
  3
FlatWithEdges
350
2C
  3
Gouraud
350
2D
  3
GouraudWithEdges
350
2E
  3
Hidden
350
31
  3
JitterOff
350
3B
  3
Linepattern
350
38
  3
OverhangOff
350
3C
  3
Realistic
350
33
  3
Shaded
350
42
  3
Shaded with edges
350
41
  3
Shades of Gray
350
3E
  3
Sketchy
350
3F
  3
Thicken
350
37
  3
Wireframe
350
30
  3
X-Ray
350
40
  0
XRECORD
  5
131
102
{ACAD_REACTORS
330
C
102
}
330
C
100
AcDbXrecord
280
     1
 90
        1
330
5A
  0
DICTIONARY
  5
12D
102
{ACAD_REACTORS
330
C
102
}
330
C
100
AcDbDictionary
281
     1
  3
CANNOSCALE
350
12E
  3
CENTEREXE
350
136
  3
CENTERLTYPEFILE
350
137
  3
CMLEADERSTYLE
350
133
  3
CTABLESTYLE
350
132
  0
LAYOUT
  5
126
102
{ACAD_REACTORS
330
1A
102
}
330
1A
100
AcDbPlotSettings
  1

  2
none_device
  4
ISO_A4_(210.00_x_297.00_MM)
  6

 40
0.0
 41
0.0
 42
0.0
 43
0.0
 44
15.11256291367649
 45
17.64655930926664
 46
0.0
 47
0.0
 48
0.0
 49
0.0
140
0.0
141
0.0
142
1.0
143
1.0
 70
   688
 72
     1
 73
     0
 74
     5
  7

 75
    16
 76
     0
 77
     2
 78
   300
147
1.0
148
0.0
149
0.0
100
AcDbLayout
  1
Layout1
 70
     1
 71
     1
 10
-20.0
 20
-7.5
 11
277.0
 21
202.5
 12
0.0
 22
0.0
 32
0.0
 14
15.11256291367649
 24
17.64655930926664
 34
0.0
 15
0.0
 25
0.0
 35
0.0
146
0.0
 13
0.0
 23
0.0
 33
0.0
 16
1.0
 26
0.0
 36
0.0
 17
0.0
 27
1.0
 37
0.0
 76
     0
330
125
331
129
  0
LAYOUT
  5
22
102
{ACAD_REACTORS
330
1A
102
}
330
1A
100
AcDbPlotSettings
  1

  2
none_device
  4
Letter_(8.50_x_11.00_Inches)
  6

 40
6.35
 41
6.35
 42
6.35000508
 43
6.35000508
 44
215.9
 45
279.4
 46
0.0
 47
0.0
 48
0.0
 49
0.0
140
0.0
141
0.0
142
1.0
143
1.0
 70
  1712
 72
     1
 73
     0
 74
     0
  7

 75
     0
 76
     0
 77
     2
 78
   300
147
1.0
148
0.0
149
0.0
100
AcDbLayout
  1
Model
 70
     1
 71
     0
 10
0.0
 20
0.0
 11
420.0
 21
297.0
 12
0.0
 22
0.0
 32
0.0
 14
1.000000000000000E+20
 24
1.000000000000000E+20
 34
1.000000000000000E+20
 15
-1.000000000000000E+20
 25
-1.000000000000000E+20
 35
-1.000000000000000E+20
146
0.0
 13
0.0
 23
0.0
 33
0.0
 16
1.0
 26
0.0
 36
0.0
 17
0.0
 27
1.0
 37
0.0
 76
     0
330
1F
331
29
  0
MATERIAL
  5
45
102
{ACAD_REACTORS
330
43
102
}
330
43
100
AcDbMaterial
  1
ByBlock
 72
     1
 94
      127
  0
MATERIAL
  5
44
102
{ACAD_REACTORS
330
43
102
}
330
43
100
AcDbMaterial
  1
ByLayer
 72
     1
 94
      127
  0
MATERIAL
  5
46
102
{ACAD_REACTORS
330
43
102
}
330
43
100
AcDbMaterial
  1
Global
 72
     1
 94
      127
  0
MLEADERSTYLE
  5
5C
102
{ACAD_REACTORS
330
5B
102
}
330
5B
100
AcDbMLeaderStyle
179
     2
170
     2
171
     1
172
     0
 90
        2
 40
0.0
 41
0.0
173
     1
 91
-1056964608
340
14
 92
       -2
290
     1
 42
2.0
291
     1
 43
8.0
  3
Standard
341
0
 44
4.0
300

342
11
174
     1
178
     6
175
     1
176
     0
 93
-1056964608
 45
4.0
292
     0
297
     0
 46
4.0
343
0
 94
-1056964608
 47
1.0
 49
1.0
140
1.0
293
     1
141
0.0
294
     1
177
     0
142
1.0
295
     0
296
     0
143
3.75
271
     0
272
     9
273
     9
298
     0
  0
MLINESTYLE
  5
18
102
{ACAD_REACTORS
330
17
102
}
330
17
100
AcDbMlineStyle
  2
Standard
 70
     0
  3

 62
   256
 51
90.0
 52
90.0
 71
     2
 49
0.5
 62
   256
  6
BYLAYER
 49
-0.5
 62
   256
  6
BYLAYER
  0
ACDBPLACEHOLDER
  5
F
102
{ACAD_REACTORS
330
E
102
}
330
E
  0
SCALE
  5
48
102
{ACAD_REACTORS
330
47
102
}
330
47
100
AcDbScale
 70
     0
300
1:1
140
1.0
141
1.0
290
     1
  0
SCALE
  5
49
102
{ACAD_REACTORS
330
47
102
}
330
47
100
AcDbScale
 70
     0
300
1:2
140
1.0
141
2.0
290
     0
  0
SCALE
  5
4A
102
{ACAD_REACTORS
330
47
102
}
330
47
100
AcDbScale
 70
     0
300
1:4
140
1.0
141
4.0
290
     0
  0
SCALE
  5
4B
102
{ACAD_REACTORS
330
47
102
}
330
47
100
AcDbScale
 70
     0
300
1:5
140
1.0
141
5.0
290
     0
  0
SCALE
  5
4C
102
{ACAD_REACTORS
330
47
102
}
330
47
100
AcDbScale
 70
     0
300
1:8
140
1.0
141
8.0
290
     0
  0
SCALE
  5
4D
102
{ACAD_REACTORS
330
47
102
}
330
47
100
AcDbScale
 70
     0
300
1:10
140
1.0
141
10.0
290
     0
  0
SCALE
  5
4E
102
{ACAD_REACTORS
330
47
102
}
330
47
100
AcDbScale
 70
     0
300
1:16
140
1.0
141
16.0
290
     0
  0
SCALE
  5
4F
102
{ACAD_REACTORS
330
47
102
}
330
47
100
AcDbScale
 70
     0
300
1:20
140
1.0
141
20.0
290
     0
  0
SCALE
  5
50
102
{ACAD_REACTORS
330
47
102
}
330
47
100
AcDbScale
 70
     0
300
1:30
140
1.0
141
30.0
290
     0
  0
SCALE
  5
51
102
{ACAD_REACTORS
330
47
102
}
330
47
100
AcDbScale
 70
     0
300
1:40
140
1.0
141
40.0
290
     0
  0
SCALE
  5
52
102
{ACAD_REACTORS
330
47
102
}
330
47
100
AcDbScale
 70
     0
300
1:50
140
1.0
141
50.0
290
     0
  0
SCALE
  5
53
102
{ACAD_REACTORS
330
47
102
}
330
47
100
AcDbScale
 70
     0
300
1:100
140
1.0
141
100.0
290
     0
  0
SCALE
  5
54
102
{ACAD_REACTORS
330
47
102
}
330
47
100
AcDbScale
 70
     0
300
2:1
140
2.0
141
1.0
290
     0
  0
SCALE
  5
55
102
{ACAD_REACTORS
330
47
102
}
330
47
100
AcDbScale
 70
     0
300
4:1
140
4.0
141
1.0
290
     0
  0
SCALE
  5
56
102
{ACAD_REACTORS
330
47
102
}
330
47
100
AcDbScale
 70
     0
300
8:1
140
8.0
141
1.0
290
     0
  0
SCALE
  5
57
102
{ACAD_REACTORS
330
47
102
}
330
47
100
AcDbScale
 70
     0
300
10:1
140
10.0
141
1.0
290
     0
  0
SCALE
  5
58
102
{ACAD_REACTORS
330
47
102
}
330
47
100
AcDbScale
 70
     0
300
100:1
140
100.0
141
1.0
290
     0
  0
TABLESTYLE
  5
5A
102
{ACAD_REACTORS
330
59
102
}
102
{ACAD_XDICTIONARY
360
12F
102
}
330
59
100
AcDbTableStyle
  3
Standard
 70
     0
 71
     0
 40
0.06
 41
0.06
280
     0
281
     0
  7
Standard
140
4.5
170
     2
 62
     0
 63
   257
283
     0
 90
        4
 91
        0
  1

274
    -2
284
     1
 64
     0
275
    -2
285
     1
 65
     0
276
    -2
286
     1
 66
     0
277
    -2
287
     1
 67
     0
278
    -2
288
     1
 68
     0
279
    -2
289
     1
 69
     0
  7
Standard
140
6.0
170
     5
 62
     0
 63
   257
283
     0
 90
        4
 91
        0
  1

274
    -2
284
     1
 64
     0
275
    -2
285
     1
 65
     0
276
    -2
286
     1
 66
     0
277
    -2
287
     1
 67
     0
278
    -2
288
     1
 68
     0
279
    -2
289
     1
 69
     0
  7
Standard
140
4.5
170
     5
 62
     0
 63
   257
283
     0
 90
        4
 91
        0
  1

274
    -2
284
     1
 64
     0
275
    -2
285
     1
 65
     0
276
    -2
286
     1
 66
     0
277
    -2
287
     1
 67
     0
278
    -2
288
     1
 68
     0
279
    -2
289
     1
 69
     0
  0
VISUALSTYLE
  5
2F
102
{ACAD_REACTORS
330
2A
102
}
330
2A
100
AcDbVisualStyle
  2
2dWireframe
 70
     4
177
     3
291
     0
 70
    58
 90
        0
176
     1
 90
        2
176
     1
 90
        0
176
     1
 90
        0
176
     1
 40
0.6
176
     1
 40
30.0
176
     1
 62
     7
420
 16777215
176
     1
 90
        1
176
     1
 90
        4
176
     1
 62
     7
176
     1
 62
   257
176
     1
 90
        1
176
     1
 90
        1
176
     1
 40
1.0
176
     1
 90
        0
176
     1
 62
   257
176
     1
 40
1.0
176
     1
 90
        1
176
     1
 90
        6
176
     1
 90
        2
176
     1
 62
     7
176
     1
 90
        5
176
     1
 90
        0
176
     1
 90
        0
176
     1
290
     0
176
     1
 90
        1
176
     1
 40
0.0
176
     1
 90
        0
176
     1
290
     1
176
     1
290
     1
176
     1
290
     0
176
     1
290
     0
176
     1
290
     0
176
     1
290
     0
176
     1
290
     0
176
     1
290
     0
176
     1
290
     0
176
     1
 90
       50
176
     1
 40
0.0
176
     1
 40
1.0
176
     1
 90
        0
176
     1
 62
    18
420
        0
176
     1
 90
       50
176
     1
 90
        3
176
     1
 62
     5
420
      255
176
     1
290
     0
176
     1
 90
       50
176
     1
 90
       50
176
     1
 90
       50
176
     1
290
     0
176
     1
 90
       50
176
     1
 62
   256
176
     0
 40
1.0
176
     0
 90
        2
176
     1
  1
strokes_ogs.tif
176
     1
290
     0
176
     1
 40
1.0
176
     1
 40
1.0
176
     1
  0
VISUALSTYLE
  5
32
102
{ACAD_REACTORS
330
2A
102
}
330
2A
100
AcDbVisualStyle
  2
Basic
 70
     7
177
     3
291
     1
 70
    58
 90
        1
176
     1
 90
        0
176
     1
 90
        1
176
     1
 90
        0
176
     1
 40
0.6
176
     1
 40
30.0
176
     1
 62
     7
420
 16777215
176
     1
 90
        0
176
     1
 90
        4
176
     1
 62
     7
176
     1
 62
   257
176
     1
 90
        1
176
     1
 90
        1
176
     1
 40
1.0
176
     1
 90
        8
176
     1
 62
     7
176
     1
 40
1.0
176
     1
 90
        1
176
     1
 90
        6
176
     1
 90
        2
176
     1
 62
     7
176
     1
 90
        5
176
     1
 90
        0
176
     1
 90
        0
176
     1
290
     0
176
     1
 90
        1
176
     1
 40
0.0
176
     1
 90
        0
176
     1
290
     0
176
     1
290
     1
176
     1
290
     1
176
     1
290
     0
176
     1
290
     0
176
     1
290
     0
176
     1
290
     0
176
     1
290
     0
176
     1
290
     0
176
     1
 90
       50
176
     1
 40
0.0
176
     1
 40
1.0
176
     1
 90
        0
176
     1
 62
    18
420
        0
176
     1
 90
       50
176
     1
 90
        3
176
     1
 62
     5
420
      255
176
     1
290
     0
176
     1
 90
       50
176
     1
 90
       50
176
     1
 90
       50
176
     1
290
     0
176
     1
 90
       50
176
     1
 62
   256
176
     0
 40
1.0
176
     0
 90
        2
176
     1
  1
strokes_ogs.tif
176
     1
290
     0
176
     1
 40
1.0
176
     1
 40
1.0
176
     1
  0
VISUALSTYLE
  5
36
102
{ACAD_REACTORS
330
2A
102
}
330
2A
100
AcDbVisualStyle
  2
Brighten
 70
    12
177
     3
291
     1
 70
    58
 90
        2
176
     1
 90
        2
176
     1
 90
        0
176
     1
 90
        0
176
     1
 40
0.6
176
     1
 40
30.0
176
     1
 62
     7
420
 16777215
176
     1
 90
        1
176
     1
 90
        4
176
     1
 62
     7
176
     1
 62
   257
176
     1
 90
        1
176
     1
 90
        1
176
     1
 40
1.0
176
     1
 90
        8
176
     1
 62
     7
176
     1
 40
1.0
176
     1
 90
        1
176
     1
 90
        6
176
     1
 90
        2
176
     1
 62
     7
176
     1
 90
        5
176
     1
 90
        0
176
     1
 90
        0
176
     1
290
     0
176
     1
 90
        1
176
     1
 40
50.0
176
     1
 90
        0
176
     1
290
     0
176
     1
290
     1
176
     1
290
     1
176
     1
290
     0
176
     1
290
     0
176
     1
290
     0
176
     1
290
     0
176
     1
290
     0
176
     1
290
     0
176
     1
 90
       50
176
     1
 40
0.0
176
     1
 40
1.0
176
     1
 90
        0
176
     1
 62
    18
420
        0
176
     1
 90
       50
176
     1
 90
        3
176
     1
 62
     5
420
      255
176
     1
290
     0
176
     1
 90
       50
176
     1
 90
       50
176
     1
 90
       50
176
     1
290
     0
176
     1
 90
       50
176
     1
 62
   256
176
     0
 40
1.0
176
     0
 90
        2
176
     1
  1
strokes_ogs.tif
176
     1
290
     0
176
     1
 40
1.0
176
     1
 40
1.0
176
     1
  0
VISUALSTYLE
  5
3A
102
{ACAD_REACTORS
330
2A
102
}
330
2A
100
AcDbVisualStyle
  2
ColorChange
 70
    16
177
     3
291
     1
 70
    58
 90
        2
176
     1
 90
        2
176
     1
 90
        3
176
     1
 90
        0
176
     1
 40
0.6
176
     1
 40
30.0
176
     1
 62
     8
420
  8421504
176
     1
 90
        1
176
     1
 90
        4
176
     1
 62
     7
176
     1
 62
   257
176
     1
 90
        1
176
     1
 90
        1
176
     1
 40
1.0
176
     1
 90
        8
176
     1
 62
     8
420
  8421504
176
     1
 40
1.0
176
     1
 90
        1
176
     1
 90
        6
176
     1
 90
        2
176
     1
 62
     7
176
     1
 90
        5
176
     1
 90
        0
176
     1
 90
        0
176
     1
290
     0
176
     1
 90
        1
176
     1
 40
0.0
176
     1
 90
        0
176
     1
290
     0
176
     1
290
     1
176
     1
290
     1
176
     1
290
     0
176
     1
290
     0
176
     1
290
     0
176
     1
290
     0
176
     1
290
     0
176
     1
290
     0
176
     1
 90
       50
176
     1
 40
0.0
176
     1
 40
1.0
176
     1
 90
        0
176
     1
 62
    18
420
        0
176
     1
 90
       50
176
     1
 90
        3
176
     1
 62
     5
420
      255
176
     1
290
     0
176
     1
 90
       50
176
     1
 90
       50
176
     1
 90
       50
176
     1
290
     0
176
     1
 90
       50
176
     1
 62
   256
176
     0
 40
1.0
176
     0
 90
        2
176
     1
  1
strokes_ogs.tif
176
     1
290
     0
176
     1
 40
1.0
176
     1
 40
1.0
176
     1
  0
VISUALSTYLE
  5
34
102
{ACAD_REACTORS
330
2A
102
}
330
2A
100
AcDbVisualStyle
  2
Conceptual
 70
     9
177
     3
291
     0
 70
    58
 90
        3
176
     1
 90
        2
176
     1
 90
        0
176
     1
 90
        0
176
     1
 40
0.6
176
     1
 40
30.0
176
     1
 62
     7
420
 16777215
176
     1
 90
        2
176
     1
 90
        2
176
     1
 62
     7
176
     1
 62
   257
176
     1
 90
        1
176
     1
 90
        1
176
     1
 40
179.0
176
     1
 90
        8
176
     1
 62
     7
176
     1
 40
1.0
176
     1
 90
        1
176
     1
 90
        6
176
     1
 90
        2
176
     1
 62
     7
176
     1
 90
        3
176
     1
 90
        0
176
     1
 90
        0
176
     1
290
     0
176
     1
 90
        1
176
     1
 40
0.0
176
     1
 90
        0
176
     1
290
     0
176
     1
290
     1
176
     1
290
     1
176
     1
290
     0
176
     1
290
     0
176
     1
290
     0
176
     1
290
     0
176
     1
290
     0
176
     1
290
     0
176
     1
 90
       50
176
     1
 40
0.0
176
     1
 40
1.0
176
     1
 90
        0
176
     1
 62
    18
420
        0
176
     1
 90
       50
176
     1
 90
        3
176
     1
 62
     5
420
      255
176
     1
290
     0
176
     1
 90
       50
176
     1
 90
       50
176
     1
 90
       50
176
     1
290
     0
176
     1
 90
       50
176
     1
 62
   256
176
     0
 40
1.0
176
     0
 90
        2
176
     1
  1
strokes_ogs.tif
176
     1
290
     0
176
     1
 40
1.0
176
     1
 40
1.0
176
     1
  0
VISUALSTYLE
  5
35
102
{ACAD_REACTORS
330
2A
102
}
330
2A
100
AcDbVisualStyle
  2
Dim
 70
    11
177
     3
291
     1
 70
    58
 90
        2
176
     1
 90
        2
176
     1
 90
        0
176
     1
 90
        0
176
     1
 40
0.6
176
     1
 40
30.0
176
     1
 62
     7
420
 16777215
176
     1
 90
        1
176
     1
 90
        4
176
     1
 62
     7
176
     1
 62
   257
176
     1
 90
        1
176
     1
 90
        1
176
     1
 40
1.0
176
     1
 90
        8
176
     1
 62
     7
176
     1
 40
1.0
176
     1
 90
        1
176
     1
 90
        6
176
     1
 90
        2
176
     1
 62
     7
176
     1
 90
        5
176
     1
 90
        0
176
     1
 90
        0
176
     1
290
     0
176
     1
 90
        1
176
     1
 40
-50.0
176
     1
 90
        0
176
     1
290
     0
176
     1
290
     1
176
     1
290
     1
176
     1
290
     0
176
     1
290
     0
176
     1
290
     0
176
     1
290
     0
176
     1
290
     0
176
     1
290
     0
176
     1
 90
       50
176
     1
 40
0.0
176
     1
 40
1.0
176
     1
 90
        0
176
     1
 62
    18
420
        0
176
     1
 90
       50
176
     1
 90
        3
176
     1
 62
     5
420
      255
176
     1
290
     0
176
     1
 90
       50
176
     1
 90
       50
176
     1
 90
       50
176
     1
290
     0
176
     1
 90
       50
176
     1
 62
   256
176
     0
 40
1.0
176
     0
 90
        2
176
     1
  1
strokes_ogs.tif
176
     1
290
     0
176
     1
 40
1.0
176
     1
 40
1.0
176
     1
  0
VISUALSTYLE
  5
3D
102
{ACAD_REACTORS
330
2A
102
}
330
2A
100
AcDbVisualStyle
  2
EdgeColorOff
 70
    22
177
     3
291
     1
 70
    58
 90
        2
176
     0
 90
        2
176
     0
 90
        0
176
     0
 90
        0
176
     0
 40
0.6
176
     0
 40
30.0
176
     0
 62
     7
420
 16777215
176
     0
 90
        1
176
     0
 90
        4
176
     0
 62
     7
176
     0
 62
   257
176
     0
 90
        1
176
     0
 90
        1
176
     0
 40
1.0
176
     0
 90
        8
176
     2
 62
     7
176
     0
 40
1.0
176
     0
 90
        1
176
     0
 90
        6
176
     0
 90
        2
176
     0
 62
     7
176
     0
 90
        5
176
     0
 90
        0
176
     0
 90
        0
176
     0
290
     0
176
     0
 90
        1
176
     0
 40
0.0
176
     0
 90
        0
176
     0
290
     0
176
     0
290
     1
176
     0
290
     1
176
     0
290
     0
176
     0
290
     0
176
     0
290
     0
176
     0
290
     0
176
     0
290
     0
176
     0
290
     0
176
     0
 90
       50
176
     0
 40
0.0
176
     0
 40
1.0
176
     0
 90
        0
176
     0
 62
    18
420
        0
176
     0
 90
       50
176
     0
 90
        3
176
     0
 62
     5
420
      255
176
     0
290
     0
176
     0
 90
       50
176
     0
 90
       50
176
     0
 90
       50
176
     0
290
     0
176
     0
 90
       50
176
     0
 62
   256
176
     0
 40
1.0
176
     0
 90
        2
176
     0
  1
strokes_ogs.tif
176
     0
290
     0
176
     0
 40
1.0
176
     0
 40
1.0
176
     0
  0
VISUALSTYLE
  5
39
102
{ACAD_REACTORS
330
2A
102
}
330
2A
100
AcDbVisualStyle
  2
Facepattern
 70
    15
177
     3
291
     1
 70
    58
 90
        2
176
     1
 90
        2
176
     1
 90
        0
176
     1
 90
        0
176
     1
 40
0.6
176
     1
 40
30.0
176
     1
 62
     7
420
 16777215
176
     1
 90
        1
176
     1
 90
        4
176
     1
 62
     7
176
     1
 62
   257
176
     1
 90
        1
176
     1
 90
        1
176
     1
 40
1.0
176
     1
 90
        8
176
     1
 62
     7
176
     1
 40
1.0
176
     1
 90
        1
176
     1
 90
        6
176
     1
 90
        2
176
     1
 62
     7
176
     1
 90
        5
176
     1
 90
        0
176
     1
 90
        0
176
     1
290
     0
176
     1
 90
        1
176
     1
 40
0.0
176
     1
 90
        0
176
     1
290
     0
176
     1
290
     1
176
     1
290
     1
176
     1
290
     0
176
     1
290
     0
176
     1
290
     0
176
     1
290
     0
176
     1
290
     0
176
     1
290
     0
176
     1
 90
       50
176
     1
 40
0.0
176
     1
 40
1.0
176
     1
 90
        0
176
     1
 62
    18
420
        0
176
     1
 90
       50
176
     1
 90
        3
176
     1
 62
     5
420
      255
176
     1
290
     0
176
     1
 90
       50
176
     1
 90
       50
176
     1
 90
       50
176
     1
290
     0
176
     1
 90
       50
176
     1
 62
   256
176
     0
 40
1.0
176
     0
 90
        2
176
     1
  1
strokes_ogs.tif
176
     1
290
     0
176
     1
 40
1.0
176
     1
 40
1.0
176
     1
  0
VISUALSTYLE
  5
2B
102
{ACAD_REACTORS
330
2A
102
}
330
2A
100
AcDbVisualStyle
  2
Flat
 70
     0
177
     3
291
     1
 70
    58
 90
        2
176
     1
 90
        1
176
     1
 90
        1
176
     1
 90
        2
176
     1
 40
0.6
176
     1
 40
30.0
176
     1
 62
     7
420
 16777215
176
     1
 90
        0
176
     1
 90
        0
176
     1
 62
     7
176
     1
 62
   257
176
     1
 90
        1
176
     1
 90
        1
176
     1
 40
1.0
176
     1
 90
        8
176
     1
 62
     7
176
     1
 40
1.0
176
     1
 90
        1
176
     1
 90
        6
176
     1
 90
        2
176
     1
 62
     7
176
     1
 90
        5
176
     1
 90
        0
176
     1
 90
        0
176
     1
290
     0
176
     1
 90
       13
176
     1
 40
0.0
176
     1
 90
        0
176
     1
290
     0
176
     1
290
     1
176
     1
290
     1
176
     1
290
     0
176
     1
290
     0
176
     1
290
     0
176
     1
290
     0
176
     1
290
     0
176
     1
290
     0
176
     1
 90
       50
176
     1
 40
0.0
176
     1
 40
1.0
176
     1
 90
        0
176
     1
 62
    18
420
        0
176
     1
 90
       50
176
     1
 90
        3
176
     1
 62
     5
420
      255
176
     1
290
     0
176
     1
 90
       50
176
     1
 90
       50
176
     1
 90
       50
176
     1
290
     0
176
     1
 90
       50
176
     1
 62
   256
176
     0
 40
1.0
176
     0
 90
        2
176
     1
  1
strokes_ogs.tif
176
     1
290
     0
176
     1
 40
1.0
176
     1
 40
1.0
176
     1
  0
VISUALSTYLE
  5
2C
102
{ACAD_REACTORS
330
2A
102
}
330
2A
100
AcDbVisualStyle
  2
FlatWithEdges
 70
     1
177
     3
291
     1
 70
    58
 90
        2
176
     1
 90
        1
176
     1
 90
        1
176
     1
 90
        2
176
     1
 40
0.6
176
     1
 40
30.0
176
     1
 62
     7
420
 16777215
176
     1
 90
        1
176
     1
 90
        0
176
     1
 62
     7
176
     1
 62
   257
176
     1
 90
        1
176
     1
 90
        1
176
     1
 40
1.0
176
     1
 90
        0
176
     1
 62
   257
176
     1
 40
1.0
176
     1
 90
        1
176
     1
 90
        6
176
     1
 90
        2
176
     1
 62
     7
176
     1
 90
        5
176
     1
 90
        0
176
     1
 90
        0
176
     1
290
     0
176
     1
 90
       13
176
     1
 40
0.0
176
     1
 90
        0
176
     1
290
     0
176
     1
290
     1
176
     1
290
     1
176
     1
290
     0
176
     1
290
     0
176
     1
290
     0
176
     1
290
     0
176
     1
290
     0
176
     1
290
     0
176
     1
 90
       50
176
     1
 40
0.0
176
     1
 40
1.0
176
     1
 90
        0
176
     1
 62
    18
420
        0
176
     1
 90
       50
176
     1
 90
        3
176
     1
 62
     5
420
      255
176
     1
290
     0
176
     1
 90
       50
176
     1
 90
       50
176
     1
 90
       50
176
     1
290
     0
176
     1
 90
       50
176
     1
 62
   256
176
     0
 40
1.0
176
     0
 90
        2
176
     1
  1
strokes_ogs.tif
176
     1
290
     0
176
     1
 40
1.0
176
     1
 40
1.0
176
     1
  0
VISUALSTYLE
  5
2D
102
{ACAD_REACTORS
330
2A
102
}
330
2A
100
AcDbVisualStyle
  2
Gouraud
 70
     2
177
     3
291
     1
 70
    58
 90
        2
176
     1
 90
        2
176
     1
 90
        1
176
     1
 90
        2
176
     1
 40
0.6
176
     1
 40
30.0
176
     1
 62
     7
420
 16777215
176
     1
 90
        0
176
     1
 90
        0
176
     1
 62
     7
176
     1
 62
   257
176
     1
 90
        1
176
     1
 90
        1
176
     1
 40
1.0
176
     1
 90
        0
176
     1
 62
     7
176
     1
 40
1.0
176
     1
 90
        1
176
     1
 90
        6
176
     1
 90
        2
176
     1
 62
     7
176
     1
 90
        5
176
     1
 90
        0
176
     1
 90
        0
176
     1
290
     0
176
     1
 90
       13
176
     1
 40
0.0
176
     1
 90
        0
176
     1
290
     0
176
     1
290
     1
176
     1
290
     1
176
     1
290
     0
176
     1
290
     0
176
     1
290
     0
176
     1
290
     0
176
     1
290
     0
176
     1
290
     0
176
     1
 90
       50
176
     1
 40
0.0
176
     1
 40
1.0
176
     1
 90
        0
176
     1
 62
    18
420
        0
176
     1
 90
       50
176
     1
 90
        3
176
     1
 62
     5
420
      255
176
     1
290
     0
176
     1
 90
       50
176
     1
 90
       50
176
     1
 90
       50
176
     1
290
     0
176
     1
 90
       50
176
     1
 62
   256
176
     0
 40
1.0
176
     0
 90
        2
176
     1
  1
strokes_ogs.tif
176
     1
290
     0
176
     1
 40
1.0
176
     1
 40
1.0
176
     1
  0
VISUALSTYLE
  5
2E
102
{ACAD_REACTORS
330
2A
102
}
330
2A
100
AcDbVisualStyle
  2
GouraudWithEdges
 70
     3
177
     3
291
     1
 70
    58
 90
        2
176
     1
 90
        2
176
     1
 90
        1
176
     1
 90
        2
176
     1
 40
0.6
176
     1
 40
30.0
176
     1
 62
     7
420
 16777215
176
     1
 90
        1
176
     1
 90
        0
176
     1
 62
     7
176
     1
 62
   257
176
     1
 90
        1
176
     1
 90
        1
176
     1
 40
1.0
176
     1
 90
        0
176
     1
 62
   257
176
     1
 40
1.0
176
     1
 90
        1
176
     1
 90
        6
176
     1
 90
        2
176
     1
 62
     7
176
     1
 90
        5
176
     1
 90
        0
176
     1
 90
        0
176
     1
290
     0
176
     1
 90
       13
176
     1
 40
0.0
176
     1
 90
        0
176
     1
290
     0
176
     1
290
     1
176
     1
290
     1
176
     1
290
     0
176
     1
290
     0
176
     1
290
     0
176
     1
290
     0
176
     1
290
     0
176
     1
290
     0
176
     1
 90
       50
176
     1
 40
0.0
176
     1
 40
1.0
176
     1
 90
        0
176
     1
 62
    18
420
        0
176
     1
 90
       50
176
     1
 90
        3
176
     1
 62
     5
420
      255
176
     1
290
     0
176
     1
 90
       50
176
     1
 90
       50
176
     1
 90
       50
176
     1
290
     0
176
     1
 90
       50
176
     1
 62
   256
176
     0
 40
1.0
176
     0
 90
        2
176
     1
  1
strokes_ogs.tif
176
     1
290
     0
176
     1
 40
1.0
176
     1
 40
1.0
176
     1
  0
VISUALSTYLE
  5
31
102
{ACAD_REACTORS
330
2A
102
}
330
2A
100
AcDbVisualStyle
  2
Hidden
 70
     6
177
     3
291
     0
 70
    58
 90
        1
176
     1
 90
        2
176
     1
 90
        2
176
     1
 90
        0
176
     1
 40
0.6
176
     1
 40
30.0
176
     1
 62
     7
420
 16777215
176
     1
 90
        2
176
     1
 90
        2
176
     1
 62
     7
176
     1
 62
   257
176
     1
 90
        2
176
     1
 90
        1
176
     1
 40
40.0
176
     1
 90
        0
176
     1
 62
   257
176
     1
 40
1.0
176
     1
 90
        1
176
     1
 90
        6
176
     1
 90
        2
176
     1
 62
     7
176
     1
 90
        3
176
     1
 90
        0
176
     1
 90
        0
176
     1
290
     0
176
     1
 90
        1
176
     1
 40
0.0
176
     1
 90
        0
176
     1
290
     0
176
     1
290
     1
176
     1
290
     1
176
     1
290
     0
176
     1
290
     0
176
     1
290
     0
176
     1
290
     0
176
     1
290
     0
176
     1
290
     0
176
     1
 90
       50
176
     1
 40
0.0
176
     1
 40
1.0
176
     1
 90
        0
176
     1
 62
    18
420
        0
176
     1
 90
       50
176
     1
 90
        3
176
     1
 62
     5
420
      255
176
     1
290
     0
176
     1
 90
       50
176
     1
 90
       50
176
     1
 90
       50
176
     1
290
     0
176
     1
 90
       50
176
     1
 62
   256
176
     0
 40
1.0
176
     0
 90
        2
176
     1
  1
strokes_ogs.tif
176
     1
290
     0
176
     1
 40
1.0
176
     1
 40
1.0
176
     1
  0
VISUALSTYLE
  5
3B
102
{ACAD_REACTORS
330
2A
102
}
330
2A
100
AcDbVisualStyle
  2
JitterOff
 70
    20
177
     3
291
     1
 70
    58
 90
        2
176
     0
 90
        2
176
     0
 90
        0
176
     0
 90
        0
176
     0
 40
0.6
176
     0
 40
30.0
176
     0
 62
     7
420
 16777215
176
     0
 90
        1
176
     0
 90
        4
176
     0
 62
     7
176
     0
 62
   257
176
     0
 90
        1
176
     0
 90
        1
176
     0
 40
1.0
176
     0
 90
       10
176
     2
 62
     7
176
     0
 40
1.0
176
     0
 90
        1
176
     0
 90
        6
176
     0
 90
        2
176
     0
 62
     7
176
     0
 90
        5
176
     0
 90
        0
176
     0
 90
        0
176
     0
290
     0
176
     0
 90
        1
176
     0
 40
0.0
176
     0
 90
        0
176
     0
290
     0
176
     0
290
     1
176
     0
290
     1
176
     0
290
     0
176
     0
290
     0
176
     0
290
     0
176
     0
290
     0
176
     0
290
     0
176
     0
290
     0
176
     0
 90
       50
176
     0
 40
0.0
176
     0
 40
1.0
176
     0
 90
        0
176
     0
 62
    18
420
        0
176
     0
 90
       50
176
     0
 90
        3
176
     0
 62
     5
420
      255
176
     0
290
     0
176
     0
 90
       50
176
     0
 90
       50
176
     0
 90
       50
176
     0
290
     0
176
     0
 90
       50
176
     0
 62
   256
176
     0
 40
1.0
176
     0
 90
        2
176
     0
  1
strokes_ogs.tif
176
     0
290
     0
176
     0
 40
1.0
176
     0
 40
1.0
176
     0
  0
VISUALSTYLE
  5
38
102
{ACAD_REACTORS
330
2A
102
}
330
2A
100
AcDbVisualStyle
  2
Linepattern
 70
    14
177
     3
291
     1
 70
    58
 90
        2
176
     1
 90
        2
176
     1
 90
        0
176
     1
 90
        0
176
     1
 40
0.6
176
     1
 40
30.0
176
     1
 62
     7
420
 16777215
176
     1
 90
        1
176
     1
 90
        4
176
     1
 62
     7
176
     1
 62
   257
176
     1
 90
        7
176
     1
 90
        7
176
     1
 40
1.0
176
     1
 90
        8
176
     1
 62
     7
176
     1
 40
1.0
176
     1
 90
        1
176
     1
 90
        6
176
     1
 90
        2
176
     1
 62
     7
176
     1
 90
        5
176
     1
 90
        0
176
     1
 90
        0
176
     1
290
     0
176
     1
 90
        1
176
     1
 40
0.0
176
     1
 90
        0
176
     1
290
     0
176
     1
290
     1
176
     1
290
     1
176
     1
290
     0
176
     1
290
     0
176
     1
290
     0
176
     1
290
     0
176
     1
290
     0
176
     1
290
     0
176
     1
 90
       50
176
     1
 40
0.0
176
     1
 40
1.0
176
     1
 90
        0
176
     1
 62
    18
420
        0
176
     1
 90
       50
176
     1
 90
        3
176
     1
 62
     5
420
      255
176
     1
290
     0
176
     1
 90
       50
176
     1
 90
       50
176
     1
 90
       50
176
     1
290
     0
176
     1
 90
       50
176
     1
 62
   256
176
     0
 40
1.0
176
     0
 90
        2
176
     1
  1
strokes_ogs.tif
176
     1
290
     0
176
     1
 40
1.0
176
     1
 40
1.0
176
     1
  0
VISUALSTYLE
  5
3C
102
{ACAD_REACTORS
330
2A
102
}
330
2A
100
AcDbVisualStyle
  2
OverhangOff
 70
    21
177
     3
291
     1
 70
    58
 90
        2
176
     0
 90
        2
176
     0
 90
        0
176
     0
 90
        0
176
     0
 40
0.6
176
     0
 40
30.0
176
     0
 62
     7
420
 16777215
176
     0
 90
        1
176
     0
 90
        4
176
     0
 62
     7
176
     0
 62
   257
176
     0
 90
        1
176
     0
 90
        1
176
     0
 40
1.0
176
     0
 90
        9
176
     2
 62
     7
176
     0
 40
1.0
176
     0
 90
        1
176
     0
 90
        6
176
     0
 90
        2
176
     0
 62
     7
176
     0
 90
        5
176
     0
 90
        0
176
     0
 90
        0
176
     0
290
     0
176
     0
 90
        1
176
     0
 40
0.0
176
     0
 90
        0
176
     0
290
     0
176
     0
290
     1
176
     0
290
     1
176
     0
290
     0
176
     0
290
     0
176
     0
290
     0
176
     0
290
     0
176
     0
290
     0
176
     0
290
     0
176
     0
 90
       50
176
     0
 40
0.0
176
     0
 40
1.0
176
     0
 90
        0
176
     0
 62
    18
420
        0
176
     0
 90
       50
176
     0
 90
        3
176
     0
 62
     5
420
      255
176
     0
290
     0
176
     0
 90
       50
176
     0
 90
       50
176
     0
 90
       50
176
     0
290
     0
176
     0
 90
       50
176
     0
 62
   256
176
     0
 40
1.0
176
     0
 90
        2
176
     0
  1
strokes_ogs.tif
176
     0
290
     0
176
     0
 40
1.0
176
     0
 40
1.0
176
     0
  0
VISUALSTYLE
  5
33
102
{ACAD_REACTORS
330
2A
102
}
330
2A
100
AcDbVisualStyle
  2
Realistic
 70
     8
177
     3
291
     0
 70
    58
 90
        2
176
     1
 90
        3
176
     1
 90
        0
176
     1
 90
        2
176
     1
 40
0.6
176
     1
 40
30.0
176
     1
 62
     7
420
 16777215
176
     1
 90
        0
176
     1
 90
        0
176
     1
 62
     7
176
     1
 62
   257
176
     1
 90
        1
176
     1
 90
        1
176
     1
 40
1.0
176
     1
 90
        8
176
     1
 62
   257
176
     1
 40
1.0
176
     1
 90
        1
176
     1
 90
        6
176
     1
 90
        2
176
     1
 62
     7
176
     1
 90
        3
176
     1
 90
        0
176
     1
 90
        0
176
     1
290
     0
176
     1
 90
       13
176
     1
 40
0.0
176
     1
 90
        0
176
     1
290
     0
176
     1
290
     1
176
     1
290
     1
176
     1
290
     0
176
     1
290
     0
176
     1
290
     0
176
     1
290
     0
176
     1
290
     0
176
     1
290
     0
176
     1
 90
       50
176
     1
 40
0.0
176
     1
 40
1.0
176
     1
 90
        0
176
     1
 62
    18
420
        0
176
     1
 90
       50
176
     1
 90
        3
176
     1
 62
     5
420
      255
176
     1
290
     0
176
     1
 90
       50
176
     1
 90
       50
176
     1
 90
       50
176
     1
290
     0
176
     1
 90
       50
176
     1
 62
   256
176
     0
 40
1.0
176
     0
 90
        2
176
     1
  1
strokes_ogs.tif
176
     1
290
     0
176
     1
 40
1.0
176
     1
 40
1.0
176
     1
  0
VISUALSTYLE
  5
42
102
{ACAD_REACTORS
330
2A
102
}
330
2A
100
AcDbVisualStyle
  2
Shaded
 70
    27
177
     3
291
     0
 70
    58
 90
        2
176
     1
 90
        2
176
     1
 90
        1
176
     1
 90
        2
176
     1
 40
0.6
176
     1
 40
30.0
176
     1
 62
     7
420
 16777215
176
     1
 90
        0
176
     1
 90
        4
176
     1
 62
     7
176
     1
 62
   257
176
     1
 90
        1
176
     1
 90
        1
176
     1
 40
1.0
176
     1
 90
        8
176
     1
 62
   257
176
     1
 40
1.0
176
     1
 90
        1
176
     1
 90
        6
176
     1
 90
        2
176
     1
 62
     8
420
  7895160
176
     1
 90
        3
176
     1
 90
        0
176
     1
 90
        0
176
     1
290
     0
176
     1
 90
        5
176
     1
 40
0.0
176
     1
 90
        0
176
     1
290
     0
176
     1
290
     1
176
     1
290
     1
176
     1
290
     0
176
     1
290
     0
176
     1
290
     0
176
     1
290
     0
176
     1
290
     0
176
     1
290
     0
176
     1
 90
       50
176
     1
 40
0.0
176
     1
 40
1.0
176
     1
 90
        0
176
     1
 62
    18
420
        0
176
     1
 90
       50
176
     1
 90
        3
176
     1
 62
     5
420
      255
176
     1
290
     0
176
     1
 90
       50
176
     1
 90
       50
176
     1
 90
       50
176
     1
290
     0
176
     1
 90
       50
176
     1
 62
   256
176
     0
 40
1.0
176
     0
 90
        2
176
     1
  1
strokes_ogs.tif
176
     1
290
     0
176
     1
 40
1.0
176
     1
 40
1.0
176
     1
  0
VISUALSTYLE
  5
41
102
{ACAD_REACTORS
330
2A
102
}
330
2A
100
AcDbVisualStyle
  2
Shaded with edges
 70
    26
177
     3
291
     0
 70
    58
 90
        2
176
     1
 90
        2
176
     1
 90
        1
176
     1
 90
        2
176
     1
 40
0.6
176
     1
 40
30.0
176
     1
 62
     7
420
 16777215
176
     1
 90
        1
176
     1
 90
       10
176
     1
 62
     7
176
     1
 62
   257
176
     1
 90
        2
176
     1
 90
        1
176
     1
 40
1.0
176
     1
 90
        8
176
     1
 62
   257
176
     1
 40
1.0
176
     1
 90
        1
176
     1
 90
        6
176
     1
 90
        2
176
     1
 62
     7
176
     1
 90
        3
176
     1
 90
        0
176
     1
 90
        0
176
     1
290
     0
176
     1
 90
        5
176
     1
 40
0.0
176
     1
 90
        0
176
     1
290
     0
176
     1
290
     1
176
     1
290
     1
176
     1
290
     0
176
     1
290
     0
176
     1
290
     0
176
     1
290
     0
176
     1
290
     0
176
     1
290
     0
176
     1
 90
       50
176
     1
 40
0.0
176
     1
 40
1.0
176
     1
 90
        0
176
     1
 62
    18
420
        0
176
     1
 90
       50
176
     1
 90
        3
176
     1
 62
     5
420
      255
176
     1
290
     0
176
     1
 90
       50
176
     1
 90
       50
176
     1
 90
       50
176
     1
290
     0
176
     1
 90
       50
176
     1
 62
   256
176
     0
 40
1.0
176
     0
 90
        2
176
     1
  1
strokes_ogs.tif
176
     1
290
     0
176
     1
 40
1.0
176
     1
 40
1.0
176
     1
  0
VISUALSTYLE
  5
3E
102
{ACAD_REACTORS
330
2A
102
}
330
2A
100
AcDbVisualStyle
  2
Shades of Gray
 70
    23
177
     3
291
     0
 70
    58
 90
        2
176
     1
 90
        2
176
     1
 90
        3
176
     1
 90
        0
176
     1
 40
0.6
176
     1
 40
30.0
176
     1
 62
     7
420
 16777215
176
     1
 90
        2
176
     1
 90
        2
176
     1
 62
     7
176
     1
 62
     7
176
     1
 90
        1
176
     1
 90
        1
176
     1
 40
40.0
176
     1
 90
        8
176
     1
 62
     7
176
     1
 40
1.0
176
     1
 90
        1
176
     1
 90
        6
176
     1
 90
        2
176
     1
 62
     7
176
     1
 90
        3
176
     1
 90
        0
176
     1
 90
        0
176
     1
290
     0
176
     1
 90
        1
176
     1
 40
0.0
176
     1
 90
        0
176
     1
290
     0
176
     1
290
     1
176
     1
290
     1
176
     1
290
     0
176
     1
290
     0
176
     1
290
     0
176
     1
290
     0
176
     1
290
     0
176
     1
290
     0
176
     1
 90
       50
176
     1
 40
0.0
176
     1
 40
1.0
176
     1
 90
        0
176
     1
 62
    18
420
        0
176
     1
 90
       50
176
     1
 90
        3
176
     1
 62
     5
420
      255
176
     1
290
     0
176
     1
 90
       50
176
     1
 90
       50
176
     1
 90
       50
176
     1
290
     0
176
     1
 90
       50
176
     1
 62
   256
176
     0
 40
1.0
176
     0
 90
        2
176
     1
  1
strokes_ogs.tif
176
     1
290
     0
176
     1
 40
1.0
176
     1
 40
1.0
176
     1
  0
VISUALSTYLE
  5
3F
102
{ACAD_REACTORS
330
2A
102
}
330
2A
100
AcDbVisualStyle
  2
Sketchy
 70
    24
177
     3
291
     0
 70
    58
 90
        1
176
     1
 90
        2
176
     1
 90
        2
176
     1
 90
        0
176
     1
 40
0.6
176
     1
 40
30.0
176
     1
 62
     7
420
 16777215
176
     1
 90
        2
176
     1
 90
        2
176
     1
 62
     7
176
     1
 62
     7
176
     1
 90
        1
176
     1
 90
        1
176
     1
 40
40.0
176
     1
 90
       11
176
     1
 62
     7
176
     1
 40
1.0
176
     1
 90
        1
176
     1
 90
        6
176
     1
 90
        2
176
     1
 62
     7
176
     1
 90
        6
176
     1
 90
        0
176
     1
 90
        0
176
     1
290
     0
176
     1
 90
        1
176
     1
 40
0.0
176
     1
 90
        0
176
     1
290
     0
176
     1
290
     1
176
     1
290
     1
176
     1
290
     0
176
     1
290
     0
176
     1
290
     0
176
     1
290
     0
176
     1
290
     0
176
     1
290
     0
176
     1
 90
       50
176
     1
 40
0.0
176
     1
 40
1.0
176
     1
 90
        0
176
     1
 62
    18
420
        0
176
     1
 90
       50
176
     1
 90
        3
176
     1
 62
     5
420
      255
176
     1
290
     0
176
     1
 90
       50
176
     1
 90
       50
176
     1
 90
       50
176
     1
290
     0
176
     1
 90
       50
176
     1
 62
   256
176
     0
 40
1.0
176
     0
 90
        2
176
     1
  1
strokes_ogs.tif
176
     1
290
     0
176
     1
 40
1.0
176
     1
 40
1.0
176
     1
  0
VISUALSTYLE
  5
37
102
{ACAD_REACTORS
330
2A
102
}
330
2A
100
AcDbVisualStyle
  2
Thicken
 70
    13
177
     3
291
     1
 70
    58
 90
        2
176
     1
 90
        2
176
     1
 90
        0
176
     1
 90
        0
176
     1
 40
0.6
176
     1
 40
30.0
176
     1
 62
     7
420
 16777215
176
     1
 90
        1
176
     1
 90
        4
176
     1
 62
     7
176
     1
 62
   257
176
     1
 90
        1
176
     1
 90
        1
176
     1
 40
1.0
176
     1
 90
       12
176
     1
 62
     7
176
     1
 40
1.0
176
     1
 90
        1
176
     1
 90
        6
176
     1
 90
        2
176
     1
 62
     7
176
     1
 90
        5
176
     1
 90
        0
176
     1
 90
        0
176
     1
290
     0
176
     1
 90
        1
176
     1
 40
0.0
176
     1
 90
        0
176
     1
290
     0
176
     1
290
     1
176
     1
290
     1
176
     1
290
     0
176
     1
290
     0
176
     1
290
     0
176
     1
290
     0
176
     1
290
     0
176
     1
290
     0
176
     1
 90
       50
176
     1
 40
0.0
176
     1
 40
1.0
176
     1
 90
        0
176
     1
 62
    18
420
        0
176
     1
 90
       50
176
     1
 90
        3
176
     1
 62
     5
420
      255
176
     1
290
     0
176
     1
 90
       50
176
     1
 90
       50
176
     1
 90
       50
176
     1
290
     0
176
     1
 90
       50
176
     1
 62
   256
176
     0
 40
1.0
176
     0
 90
        2
176
     1
  1
strokes_ogs.tif
176
     1
290
     0
176
     1
 40
1.0
176
     1
 40
1.0
176
     1
  0
VISUALSTYLE
  5
30
102
{ACAD_REACTORS
330
2A
102
}
330
2A
100
AcDbVisualStyle
  2
Wireframe
 70
     5
177
     3
291
     0
 70
    58
 90
        0
176
     1
 90
        2
176
     1
 90
        0
176
     1
 90
        0
176
     1
 40
0.6
176
     1
 40
30.0
176
     1
 62
     7
420
 16777215
176
     1
 90
        1
176
     1
 90
        4
176
     1
 62
     7
176
     1
 62
   257
176
     1
 90
        1
176
     1
 90
        1
176
     1
 40
1.0
176
     1
 90
        0
176
     1
 62
   257
176
     1
 40
1.0
176
     1
 90
        1
176
     1
 90
        6
176
     1
 90
        2
176
     1
 62
     7
176
     1
 90
        3
176
     1
 90
        0
176
     1
 90
        0
176
     1
290
     0
176
     1
 90
        1
176
     1
 40
0.0
176
     1
 90
        0
176
     1
290
     0
176
     1
290
     1
176
     1
290
     1
176
     1
290
     0
176
     1
290
     0
176
     1
290
     0
176
     1
290
     0
176
     1
290
     0
176
     1
290
     0
176
     1
 90
       50
176
     1
 40
0.0
176
     1
 40
1.0
176
     1
 90
        0
176
     1
 62
    18
420
        0
176
     1
 90
       50
176
     1
 90
        3
176
     1
 62
     5
420
      255
176
     1
290
     0
176
     1
 90
       50
176
     1
 90
       50
176
     1
 90
       50
176
     1
290
     0
176
     1
 90
       50
176
     1
 62
   256
176
     0
 40
1.0
176
     0
 90
        2
176
     1
  1
strokes_ogs.tif
176
     1
290
     0
176
     1
 40
1.0
176
     1
 40
1.0
176
     1
  0
VISUALSTYLE
  5
40
102
{ACAD_REACTORS
330
2A
102
}
330
2A
100
AcDbVisualStyle
  2
X-Ray
 70
    25
177
     3
291
     0
 70
    58
 90
        2
176
     1
 90
        2
176
     1
 90
        1
176
     1
 90
        1
176
     1
 40
0.5
176
     1
 40
30.0
176
     1
 62
     7
420
 16777215
176
     1
 90
        1
176
     1
 90
        0
176
     1
 62
     7
176
     1
 62
   257
176
     1
 90
        1
176
     1
 90
        1
176
     1
 40
1.0
176
     1
 90
        8
176
     1
 62
     7
176
     1
 40
1.0
176
     1
 90
        1
176
     1
 90
        6
176
     1
 90
        2
176
     1
 62
     7
176
     1
 90
        3
176
     1
 90
        0
176
     1
 90
        0
176
     1
290
     0
176
     1
 90
       13
176
     1
 40
0.0
176
     1
 90
        0
176
     1
290
     0
176
     1
290
     1
176
     1
290
     1
176
     1
290
     0
176
     1
290
     0
176
     1
290
     0
176
     1
290
     0
176
     1
290
     0
176
     1
290
     0
176
     1
 90
       50
176
     1
 40
0.0
176
     1
 40
1.0
176
     1
 90
        0
176
     1
 62
    18
420
        0
176
     1
 90
       50
176
     1
 90
        3
176
     1
 62
     5
420
      255
176
     1
290
     0
176
     1
 90
       50
176
     1
 90
       50
176
     1
 90
       50
176
     1
290
     0
176
     1
 90
       50
176
     1
 62
   256
176
     0
 40
1.0
176
     0
 90
        2
176
     1
  1
strokes_ogs.tif
176
     1
290
     0
176
     1
 40
1.0
176
     1
 40
1.0
176
     1
  0
DICTIONARYVAR
  5
12E
102
{ACAD_REACTORS
330
12D
102
}
330
12D
100
DictionaryVariables
280
     0
  1
1:1
  0
DICTIONARYVAR
  5
136
102
{ACAD_REACTORS
330
12D
102
}
330
12D
100
DictionaryVariables
280
     0
  1
3.500000
  0
DICTIONARYVAR
  5
137
102
{ACAD_REACTORS
330
12D
102
}
330
12D
100
DictionaryVariables
280
     0
  1
acadiso.lin
  0
DICTIONARYVAR
  5
133
102
{ACAD_REACTORS
330
12D
102
}
330
12D
100
DictionaryVariables
280
     0
  1
Standard
  0
DICTIONARYVAR
  5
132
102
{ACAD_REACTORS
330
12D
102
}
330
12D
100
DictionaryVariables
280
     0
  1
Standard
  0
DICTIONARY
  5
12F
330
5A
100
AcDbDictionary
280
     1
281
     1
  3
ACAD_ROUNDTRIP_2008_TABLESTYLE_CELLSTYLEMAP
360
130
  0
CELLSTYLEMAP
  5
130
102
{ACAD_REACTORS
330
12F
102
}
330
12F
100
AcDbCellStyleMap
 90
        3
300
CELLSTYLE
  1
TABLEFORMAT_BEGIN
 90
        5
170
     1
 91
        0
 92
    32768
 62
   257
 93
        1
300
CONTENTFORMAT
  1
CONTENTFORMAT_BEGIN
 90
        0
 91
        0
 92
        4
 93
        0
300

 40
0.0
140
1.0
 94
        5
 62
     0
340
11
144
6.0
309
CONTENTFORMAT_END
171
     1
301
MARGIN
  1
CELLMARGIN_BEGIN
 40
1.5
 40
1.5
 40
1.5
 40
1.5
 40
1.5
 40
1.5
309
CELLMARGIN_END
 94
        6
 95
        1
302
GRIDFORMAT
  1
GRIDFORMAT_BEGIN
 90
        0
 91
        1
 62
     0
 92
       -2
340
14
 93
        0
 40
0.045
309
GRIDFORMAT_END
 95
        2
302
GRIDFORMAT
  1
GRIDFORMAT_BEGIN
 90
        0
 91
        1
 62
     0
 92
       -2
340
14
 93
        0
 40
0.045
309
GRIDFORMAT_END
 95
        4
302
GRIDFORMAT
  1
GRIDFORMAT_BEGIN
 90
        0
 91
        1
 62
     0
 92
       -2
340
14
 93
        0
 40
0.045
309
GRIDFORMAT_END
 95
        8
302
GRIDFORMAT
  1
GRIDFORMAT_BEGIN
 90
        0
 91
        1
 62
     0
 92
       -2
340
14
 93
        0
 40
0.045
309
GRIDFORMAT_END
 95
       16
302
GRIDFORMAT
  1
GRIDFORMAT_BEGIN
 90
        0
 91
        1
 62
     0
 92
       -2
340
14
 93
        0
 40
0.045
309
GRIDFORMAT_END
 95
       32
302
GRIDFORMAT
  1
GRIDFORMAT_BEGIN
 90
        0
 91
        1
 62
     0
 92
       -2
340
14
 93
        0
 40
0.045
309
GRIDFORMAT_END
309
TABLEFORMAT_END
  1
CELLSTYLE_BEGIN
 90
        1
 91
        1
300
_TITLE
309
CELLSTYLE_END
300
CELLSTYLE
  1
TABLEFORMAT_BEGIN
 90
        5
170
     1
 91
        0
 92
        0
 62
   257
 93
        1
300
CONTENTFORMAT
  1
CONTENTFORMAT_BEGIN
 90
        0
 91
        0
 92
        4
 93
        0
300

 40
0.0
140
1.0
 94
        5
 62
     0
340
11
144
4.5
309
CONTENTFORMAT_END
171
     1
301
MARGIN
  1
CELLMARGIN_BEGIN
 40
1.5
 40
1.5
 40
1.5
 40
1.5
 40
1.5
 40
1.5
309
CELLMARGIN_END
 94
        6
 95
        1
302
GRIDFORMAT
  1
GRIDFORMAT_BEGIN
 90
        0
 91
        1
 62
     0
 92
       -2
340
14
 93
        0
 40
0.045
309
GRIDFORMAT_END
 95
        2
302
GRIDFORMAT
  1
GRIDFORMAT_BEGIN
 90
        0
 91
        1
 62
     0
 92
       -2
340
14
 93
        0
 40
0.045
309
GRIDFORMAT_END
 95
        4
302
GRIDFORMAT
  1
GRIDFORMAT_BEGIN
 90
        0
 91
        1
 62
     0
 92
       -2
340
14
 93
        0
 40
0.045
309
GRIDFORMAT_END
 95
        8
302
GRIDFORMAT
  1
GRIDFORMAT_BEGIN
 90
        0
 91
        1
 62
     0
 92
       -2
340
14
 93
        0
 40
0.045
309
GRIDFORMAT_END
 95
       16
302
GRIDFORMAT
  1
GRIDFORMAT_BEGIN
 90
        0
 91
        1
 62
     0
 92
       -2
340
14
 93
        0
 40
0.045
309
GRIDFORMAT_END
 95
       32
302
GRIDFORMAT
  1
GRIDFORMAT_BEGIN
 90
        0
 91
        1
 62
     0
 92
       -2
340
14
 93
        0
 40
0.045
309
GRIDFORMAT_END
309
TABLEFORMAT_END
  1
CELLSTYLE_BEGIN
 90
        2
 91
        1
300
_HEADER
309
CELLSTYLE_END
300
CELLSTYLE
  1
TABLEFORMAT_BEGIN
 90
        5
170
     1
 91
        0
 92
        0
 62
   257
 93
        1
300
CONTENTFORMAT
  1
CONTENTFORMAT_BEGIN
 90
        0
 91
        0
 92
        4
 93
        0
300

 40
0.0
140
1.0
 94
        2
 62
     0
340
11
144
4.5
309
CONTENTFORMAT_END
171
     1
301
MARGIN
  1
CELLMARGIN_BEGIN
 40
1.5
 40
1.5
 40
1.5
 40
1.5
 40
1.5
 40
1.5
309
CELLMARGIN_END
 94
        6
 95
        1
302
GRIDFORMAT
  1
GRIDFORMAT_BEGIN
 90
        0
 91
        1
 62
     0
 92
       -2
340
14
 93
        0
 40
0.045
309
GRIDFORMAT_END
 95
        2
302
GRIDFORMAT
  1
GRIDFORMAT_BEGIN
 90
        0
 91
        1
 62
     0
 92
       -2
340
14
 93
        0
 40
0.045
309
GRIDFORMAT_END
 95
        4
302
GRIDFORMAT
  1
GRIDFORMAT_BEGIN
 90
        0
 91
        1
 62
     0
 92
       -2
340
14
 93
        0
 40
0.045
309
GRIDFORMAT_END
 95
        8
302
GRIDFORMAT
  1
GRIDFORMAT_BEGIN
 90
        0
 91
        1
 62
     0
 92
       -2
340
14
 93
        0
 40
0.045
309
GRIDFORMAT_END
 95
       16
302
GRIDFORMAT
  1
GRIDFORMAT_BEGIN
 90
        0
 91
        1
 62
     0
 92
       -2
340
14
 93
        0
 40
0.045
309
GRIDFORMAT_END
 95
       32
302
GRIDFORMAT
  1
GRIDFORMAT_BEGIN
 90
        0
 91
        1
 62
     0
 92
       -2
340
14
 93
        0
 40
0.045
309
GRIDFORMAT_END
309
TABLEFORMAT_END
  1
CELLSTYLE_BEGIN
 90
        3
 91
        2
300
_DATA
309
CELLSTYLE_END
  0
ENDSEC
  0
EOF
