  0
SECTION
  2
HEADER
  9
$ACADVER
  1
AC1015
  9
$ACADMAINTVER
 70
     6
  9
$DWGCODEPAGE
  3
ANSI_1252
  9
$INSBASE
 10
0.0
 20
0.0
 30
0.0
  9
$EXTMIN
 10
0.0
 20
0.0
 30
0.0
  9
$EXTMAX
 10
297.0
 20
210.0
 30
0.0
  9
$LIMMIN
 10
0.0
 20
0.0
  9
$LIMMAX
 10
297.0
 20
210.0
  9
$ORTHOMODE
 70
     0
  9
$REGENMODE
 70
     1
  9
$FILLMODE
 70
     1
  9
$QTEXTMODE
 70
     0
  9
$MIRRTEXT
 70
     1
  9
$LTSCALE
 40
1.0
  9
$ATTMODE
 70
     1
  9
$TEXTSIZE
 40
3.5
  9
$TRACEWID
 40
1.0
  9
$TEXTSTYLE
  7
Standard
  9
$CLAYER
  8
0
  9
$CELTYPE
  6
ByLayer
  9
$CECOLOR
 62
   256
  9
$CELTSCALE
 40
1.0
  9
$DISPSILH
 70
     0
  9
$DIMSCALE
 40
1.0
  9
$DIMASZ
 40
3.302
  9
$DIMEXO
 40
1.0
  9
$DIMDLI
 40
3.75
  9
$DIMRND
 40
0.0
  9
$DIMDLE
 40
0.0
  9
$DIMEXE
 40
1.0
  9
$DIMTP
 40
0.0
  9
$DIMTM
 40
0.0
  9
$DIMTXT
 40
3.5
  9
$DIMCEN
 40
2.5
  9
$DIMTSZ
 40
0.0
  9
$DIMTOL
 70
     0
  9
$DIMLIM
 70
     0
  9
$DIMTIH
 70
     1
  9
$DIMTOH
 70
     1
  9
$DIMSE1
 70
     0
  9
$DIMSE2
 70
     0
  9
$DIMTAD
 70
     1
  9
$DIMZIN
 70
     1
  9
$DIMBLK
  1

  9
$DIMASO
 70
     1
  9
$DIMSHO
 70
     1
  9
$DIMPOST
  1

  9
$DIMAPOST
  1

  9
$DIMALT
 70
     0
  9
$DIMALTD
 70
     3
  9
$DIMALTF
 40
0.0393700787
  9
$DIMLFAC
 40
0.5
  9
$DIMTOFL
 70
     1
  9
$DIMTVP
 40
0.0
  9
$DIMTIX
 70
     0
  9
$DIMSOXD
 70
     0
  9
$DIMSAH
 70
     0
  9
$DIMBLK1
  1

  9
$DIMBLK2
  1

  9
$DIMSTYLE
  2
ISO-25
  9
$DIMCLRD
 70
     0
  9
$DIMCLRE
 70
     0
  9
$DIMCLRT
 70
     0
  9
$DIMTFAC
 40
1.0
  9
$DIMGAP
 40
1.524
  9
$DIMJUST
 70
     0
  9
$DIMSD1
 70
     0
  9
$DIMSD2
 70
     0
  9
$DIMTOLJ
 70
     0
  9
$DIMTZIN
 70
     1
  9
$DIMALTZ
 70
     0
  9
$DIMALTTZ
 70
     0
  9
$DIMUPT
 70
     0
  9
$DIMDEC
 70
     2
  9
$DIMTDEC
 70
     2
  9
$DIMALTU
 70
     2
  9
$DIMALTTD
 70
     3
  9
$DIMTXSTY
  7
Standard
  9
$DIMAUNIT
 70
     0
  9
$DIMADEC
 70
     2
  9
$DIMALTRND
 40
0.0
  9
$DIMAZIN
 70
     0
  9
$DIMDSEP
 70
    44
  9
$DIMATFIT
 70
     3
  9
$DIMFRAC
 70
     0
  9
$DIMLDRBLK
  1

  9
$DIMLUNIT
 70
     2
  9
$DIMLWD
 70
    -2
  9
$DIMLWE
 70
    -2
  9
$DIMTMOVE
 70
     0
  9
$LUNITS
 70
     2
  9
$LUPREC
 70
     2
  9
$SKETCHINC
 40
1.0
  9
$FILLETRAD
 40
0.0
  9
$AUNITS
 70
     0
  9
$AUPREC
 70
     2
  9
$MENU
  1
.
  9
$ELEVATION
 40
0.0
  9
$PELEVATION
 40
0.0
  9
$THICKNESS
 40
0.0
  9
$LIMCHECK
 70
     0
  9
$CHAMFERA
 40
0.0
  9
$CHAMFERB
 40
0.0
  9
$CHAMFERC
 40
0.0
  9
$CHAMFERD
 40
0.0
  9
$SKPOLY
 70
     0
  9
$TDCREATE
 40
2460573.801890035
  9
$TDUCREATE
 40
2460573.968556701
  9
$TDUPDATE
 40
2460573.80189022
  9
$TDUUPDATE
 40
2460573.968556887
  9
$TDINDWG
 40
0.0000000116
  9
$TDUSRTIMER
 40
0.0000000116
  9
$USRTIMER
 70
     1
  9
$ANGBASE
 50
0.0
  9
$ANGDIR
 70
     0
  9
$PDMODE
 70
     0
  9
$PDSIZE
 40
-1.0
  9
$PLINEWID
 40
0.0
  9
$SPLFRAME
 70
     0
  9
$SPLINETYPE
 70
     6
  9
$SPLINESEGS
 70
     8
  9
$HANDSEED
  5
77
  9
$SURFTAB1
 70
     6
  9
$SURFTAB2
 70
     6
  9
$SURFTYPE
 70
     6
  9
$SURFU
 70
     6
  9
$SURFV
 70
     6
  9
$UCSBASE
  2

  9
$UCSNAME
  2

  9
$UCSORG
 10
0.0
 20
0.0
 30
0.0
  9
$UCSXDIR
 10
1.0
 20
0.0
 30
0.0
  9
$UCSYDIR
 10
0.0
 20
1.0
 30
0.0
  9
$UCSORTHOREF
  2

  9
$UCSORTHOVIEW
 70
     0
  9
$UCSORGTOP
 10
0.0
 20
0.0
 30
0.0
  9
$UCSORGBOTTOM
 10
0.0
 20
0.0
 30
0.0
  9
$UCSORGLEFT
 10
0.0
 20
0.0
 30
0.0
  9
$UCSORGRIGHT
 10
0.0
 20
0.0
 30
0.0
  9
$UCSORGFRONT
 10
0.0
 20
0.0
 30
0.0
  9
$UCSORGBACK
 10
0.0
 20
0.0
 30
0.0
  9
$PUCSBASE
  2

  9
$PUCSNAME
  2

  9
$PUCSORG
 10
0.0
 20
0.0
 30
0.0
  9
$PUCSXDIR
 10
1.0
 20
0.0
 30
0.0
  9
$PUCSYDIR
 10
0.0
 20
1.0
 30
0.0
  9
$PUCSORTHOREF
  2

  9
$PUCSORTHOVIEW
 70
     0
  9
$PUCSORGTOP
 10
0.0
 20
0.0
 30
0.0
  9
$PUCSORGBOTTOM
 10
0.0
 20
0.0
 30
0.0
  9
$PUCSORGLEFT
 10
0.0
 20
0.0
 30
0.0
  9
$PUCSORGRIGHT
 10
0.0
 20
0.0
 30
0.0
  9
$PUCSORGFRONT
 10
0.0
 20
0.0
 30
0.0
  9
$PUCSORGBACK
 10
0.0
 20
0.0
 30
0.0
  9
$USERI1
 70
     0
  9
$USERI2
 70
     0
  9
$USERI3
 70
     0
  9
$USERI4
 70
     0
  9
$USERI5
 70
     0
  9
$USERR1
 40
0.0
  9
$USERR2
 40
0.0
  9
$USERR3
 40
0.0
  9
$USERR4
 40
0.0
  9
$USERR5
 40
0.0
  9
$WORLDVIEW
 70
     1
  9
$SHADEDGE
 70
     3
  9
$SHADEDIF
 70
    70
  9
$TILEMODE
 70
     1
  9
$MAXACTVP
 70
    64
  9
$PINSBASE
 10
0.0
 20
0.0
 30
0.0
  9
$PLIMCHECK
 70
     0
  9
$PEXTMIN
 10
1.0000000000E+20
 20
1.0000000000E+20
 30
1.0000000000E+20
  9
$PEXTMAX
 10
-1.0000000000E+20
 20
-1.0000000000E+20
 30
-1.0000000000E+20
  9
$PLIMMIN
 10
0.0
 20
0.0
  9
$PLIMMAX
 10
420.0
 20
297.0
  9
$UNITMODE
 70
     0
  9
$VISRETAIN
 70
     1
  9
$PLINEGEN
 70
     0
  9
$PSLTSCALE
 70
     1
  9
$TREEDEPTH
 70
  3020
  9
$CMLSTYLE
  2
Standard
  9
$CMLJUST
 70
     0
  9
$CMLSCALE
 40
20.0
  9
$PROXYGRAPHICS
 70
     1
  9
$MEASUREMENT
 70
     1
  9
$CELWEIGHT
370
    -1
  9
$ENDCAPS
280
     0
  9
$JOINSTYLE
280
     0
  9
$LWDISPLAY
290
     1
  9
$INSUNITS
 70
     4
  9
$HYPERLINKBASE
  1

  9
$STYLESHEET
  1

  9
$XEDIT
290
     1
  9
$CEPSNTYPE
380
     0
  9
$PSTYLEMODE
290
     1
  9
$FINGERPRINTGUID
  2
{64f0bc31-ab49-4c6e-8c5b-ad2315d4e151}
  9
$VERSIONGUID
  2
{FAEB1C32-E019-11D5-929B-00C0DF256EC4}
  9
$EXTNAMES
290
     1
  9
$PSVPSCALE
 40
0.0
  9
$OLESTARTUP
290
     0
  0
ENDSEC
  0
SECTION
  2
CLASSES
  0
CLASS
  1
ACDBDICTIONARYWDFLT
  2
AcDbDictionaryWithDefault
  3
ObjectDBX Classes
 90
        0
280
     0
281
     0
  0
CLASS
  1
VISUALSTYLE
  2
AcDbVisualStyle
  3
ObjectDBX Classes
 90
     4095
280
     0
281
     0
  0
CLASS
  1
MATERIAL
  2
AcDbMaterial
  3
ObjectDBX Classes
 90
     1153
280
     0
281
     0
  0
CLASS
  1
SCALE
  2
AcDbScale
  3
ObjectDBX Classes
 90
     1153
280
     0
281
     0
  0
CLASS
  1
TABLESTYLE
  2
AcDbTableStyle
  3
ObjectDBX Classes
 90
     4095
280
     0
281
     0
  0
CLASS
  1
MLEADERSTYLE
  2
AcDbMLeaderStyle
  3
ACDB_MLEADERSTYLE_CLASS
 90
     4095
280
     0
281
     0
  0
CLASS
  1
SUN
  2
AcDbSun
  3
SCENEOE
 90
     1153
280
     0
281
     0
  0
CLASS
  1
ACDBPLACEHOLDER
  2
AcDbPlaceHolder
  3
ObjectDBX Classes
 90
        0
280
     0
281
     0
  0
CLASS
  1
LAYOUT
  2
AcDbLayout
  3
ObjectDBX Classes
 90
        0
280
     0
281
     0
  0
ENDSEC
  0
SECTION
  2
TABLES
  0
TABLE
  2
VPORT
  5
8
330
0
100
AcDbSymbolTable
 70
     1
  0
VPORT
  5
29
330
8
100
AcDbSymbolTableRecord
100
AcDbViewportTableRecord
  2
*Active
 70
     0
 10
0.0
 20
0.0
 11
1.0
 21
1.0
 12
148.5
 22
105.0
 13
0.0
 23
0.0
 14
10.0
 24
10.0
 15
10.0
 25
10.0
 16
0.0
 26
0.0
 36
1.0
 17
0.0
 27
0.0
 37
0.0
 40
210.0
 41
1.4142857143
 42
50.0
 43
0.0
 44
0.0
 50
0.0
 51
0.0
 71
     0
 72
  2000
 73
     1
 74
     3
 75
     0
 76
     0
 77
     0
 78
     0
281
     0
 65
     1
110
0.0
120
0.0
130
0.0
111
1.0
121
0.0
131
0.0
112
0.0
122
1.0
132
0.0
 79
     0
146
0.0
  0
ENDTAB
  0
TABLE
  2
LTYPE
  5
5
330
0
100
AcDbSymbolTable
 70
     6
  0
LTYPE
  5
14
330
5
100
AcDbSymbolTableRecord
100
AcDbLinetypeTableRecord
  2
ByBlock
 70
     0
  3

 72
    65
 73
     0
 40
0.0
  0
LTYPE
  5
15
330
5
100
AcDbSymbolTableRecord
100
AcDbLinetypeTableRecord
  2
ByLayer
 70
     0
  3

 72
    65
 73
     0
 40
0.0
  0
LTYPE
  5
16
330
5
100
AcDbSymbolTableRecord
100
AcDbLinetypeTableRecord
  2
Continuous
 70
     0
  3
Solid line
 72
    65
 73
     0
 40
0.0
  0
LTYPE
  5
5E
330
5
100
AcDbSymbolTableRecord
100
AcDbLinetypeTableRecord
  2
HIDDEN
 70
     0
  3
Hidden __ __ __ __ __ __ __ __ __ __ __ __ __ __
 72
    65
 73
     2
 40
1.905
 49
1.27
 74
     0
 49
-0.635
 74
     0
  0
LTYPE
  5
5F
330
5
100
AcDbSymbolTableRecord
100
AcDbLinetypeTableRecord
  2
PHANTOM
 70
     0
  3
Phantom ______  __  __  ______  __  __  ______
 72
    65
 73
     6
 40
12.7
 49
6.35
 74
     0
 49
-1.27
 74
     0
 49
1.27
 74
     0
 49
-1.27
 74
     0
 49
1.27
 74
     0
 49
-1.27
 74
     0
  0
LTYPE
  5
60
330
5
100
AcDbSymbolTableRecord
100
AcDbLinetypeTableRecord
  2
CENTER
 70
     0
  3
Center ____ _ ____ _ ____ _ ____ _ ____ _ ____
 72
    65
 73
     4
 40
10.16
 49
6.35
 74
     0
 49
-1.27
 74
     0
 49
1.27
 74
     0
 49
-1.27
 74
     0
  0
LTYPE
  5
61
330
5
100
AcDbSymbolTableRecord
100
AcDbLinetypeTableRecord
  2
CENTERX2
 70
     0
  3
Center (2x) ________  __  ________  __  _____
 72
    65
 73
     4
 40
20.32
 49
12.7
 74
     0
 49
-2.54
 74
     0
 49
2.54
 74
     0
 49
-2.54
 74
     0
  0
LTYPE
  5
62
330
5
100
AcDbSymbolTableRecord
100
AcDbLinetypeTableRecord
  2
DOT2
 70
     0
  3
Dot (.5x) ........................................
 72
    65
 73
     2
 40
0.635
 49
0.0
 74
     0
 49
-0.635
 74
     0
  0
ENDTAB
  0
TABLE
  2
LAYER
  5
2
330
0
100
AcDbSymbolTable
 70
     1
  0
LAYER
  5
10
330
2
100
AcDbSymbolTableRecord
100
AcDbLayerTableRecord
  2
0
 70
     0
 62
     7
  6
Continuous
370
    -3
390
F
  0
ENDTAB
  0
TABLE
  2
STYLE
  5
3
330
0
100
AcDbSymbolTable
 70
     1
  0
STYLE
  5
11
330
3
100
AcDbSymbolTableRecord
100
AcDbTextStyleTableRecord
  2
Standard
 70
     0
 40
0.0
 41
1.0
 50
0.0
 71
     0
 42
3.5
  3
txt
  4

  0
ENDTAB
  0
TABLE
  2
VIEW
  5
6
330
0
100
AcDbSymbolTable
 70
     0
  0
ENDTAB
  0
TABLE
  2
UCS
  5
7
330
0
100
AcDbSymbolTable
 70
     0
  0
ENDTAB
  0
TABLE
  2
APPID
  5
9
330
0
100
AcDbSymbolTable
 70
     1
  0
APPID
  5
12
330
9
100
AcDbSymbolTableRecord
100
AcDbRegAppTableRecord
  2
ACAD
 70
     0
  0
ENDTAB
  0
TABLE
  2
DIMSTYLE
  5
A
330
0
100
AcDbSymbolTable
 70
     1
100
AcDbDimStyleTable
  0
DIMSTYLE
105
27
330
A
100
AcDbSymbolTableRecord
100
AcDbDimStyleTableRecord
  2
ISO-25
 70
     0
 41
2.5
 42
0.625
 43
3.75
 44
1.25
 73
     0
 74
     0
 77
     1
 78
     8
140
2.5
141
2.5
143
0.0393700787
147
0.625
171
     3
172
     1
178
     0
271
     2
272
     2
274
     3
278
    44
283
     0
284
     8
340
11
  0
ENDTAB
  0
TABLE
  2
BLOCK_RECORD
  5
1
330
0
100
AcDbSymbolTable
 70
     1
  0
BLOCK_RECORD
  5
1F
330
1
100
AcDbSymbolTableRecord
100
AcDbBlockTableRecord
  2
*Model_Space
340
22
  0
BLOCK_RECORD
  5
1B
330
1
100
AcDbSymbolTableRecord
100
AcDbBlockTableRecord
  2
*Paper_Space
340
1E
  0
BLOCK_RECORD
  5
23
330
1
100
AcDbSymbolTableRecord
100
AcDbBlockTableRecord
  2
*Paper_Space0
340
26
  0
ENDTAB
  0
ENDSEC
  0
SECTION
  2
BLOCKS
  0
BLOCK
  5
20
330
1F
100
AcDbEntity
  8
0
100
AcDbBlockBegin
  2
*Model_Space
 70
     0
 10
0.0
 20
0.0
 30
0.0
  3
*Model_Space
  1

  0
ENDBLK
  5
21
330
1F
100
AcDbEntity
  8
0
100
AcDbBlockEnd
  0
BLOCK
  5
1C
330
1B
100
AcDbEntity
 67
     1
  8
0
100
AcDbBlockBegin
  2
*Paper_Space
 70
     0
 10
0.0
 20
0.0
 30
0.0
  3
*Paper_Space
  1

  0
ENDBLK
  5
1D
330
1B
100
AcDbEntity
 67
     1
  8
0
100
AcDbBlockEnd
  0
BLOCK
  5
24
330
23
100
AcDbEntity
  8
0
100
AcDbBlockBegin
  2
*Paper_Space0
 70
     0
 10
0.0
 20
0.0
 30
0.0
  3
*Paper_Space0
  1

  0
ENDBLK
  5
25
330
23
100
AcDbEntity
  8
0
100
AcDbBlockEnd
  0
ENDSEC
  0
SECTION
  2
ENTITIES
  0
LWPOLYLINE
  5
63
330
1F
100
AcDbEntity
  8
0
  6
Continuous
 62
     7
370
    25
100
AcDbPolyline
 90
       62
 70
   128
 43
0.0
 10
158.197133358
 20
118.4388852148
 10
158.1996234729
 20
118.5242568699
 10
158.1817314779
 20
118.830300692
 10
158.137156206
 20
119.1348962979
 10
158.0660581959
 20
119.43733855
 10
157.9685787384
 20
119.7369883105
 10
157.8448609702
 20
120.0331757027
 10
157.6950837962
 20
120.3251757103
 10
157.5195004918
 20
120.6121999894
 10
157.3184721901
 20
120.8934055746
 10
157.092488654
 20
121.1679168068
 10
156.8421731784
 20
121.4348537813
 10
156.5682733537
 20
121.6933600346
 10
156.2716427771
 20
121.9426240305
 10
155.9532196541
 20
122.1818920897
 10
155.6140070058
 20
122.4104732383
 10
155.2550570579
 20
122.6277381228
 10
154.8774749032
 20
122.833107092
 10
154.4823983544
 20
123.0260546058
 10
154.0709705034
 20
123.2061132333
 10
153.6443613002
 20
123.3728549393
 10
153.2037670146
 20
123.5258881639
 10
152.7504097764
 20
123.6648560374
 10
152.2855368656
 20
123.7894354994
 10
151.8104195967
 20
123.8993370798
 10
151.3263517438
 20
123.9943051221
 10
150.8346475191
 20
124.0741182697
 10
150.3366391461
 20
124.1385900774
 10
149.8336740882
 20
124.1875696442
 10
149.3271119939
 20
124.2209421924
 10
148.8183214211
 20
124.2386295407
 10
148.3086763986
 20
124.2405904343
 10
147.7995528803
 20
124.2268207091
 10
147.2923352787
 20
124.1973540205
 10
146.7883937543
 20
124.1522612254
 10
146.289087938
 20
124.0916496039
 10
145.795764906
 20
124.0156622732
 10
145.3097558418
 20
123.9244774061
 10
144.8323729004
 20
123.8183072918
 10
144.3649063411
 20
123.6973972705
 10
143.908622001
 20
123.5620245965
 10
143.4647591891
 20
123.4124973074
 10
143.0345290778
 20
123.2491532157
 10
142.6191136685
 20
123.0723591858
 10
142.2196653792
 20
122.8825109203
 10
141.8373072537
 20
122.6800335563
 10
141.4731336959
 20
122.4653834418
 10
141.1282114694
 20
122.2390515233
 10
140.8035919715
 20
122.001577679
 10
140.5003131328
 20
121.7535657618
 10
140.2193599471
 20
121.4956671069
 10
139.9616766461
 20
121.22860389
 10
139.7281525945
 20
120.9531784193
 10
139.5196018068
 20
120.6702778271
 10
139.3367373499
 20
120.3808702547
 10
139.1801445074
 20
120.0859892445
 10
139.0502590834
 20
119.7867055431
 10
138.947358079
 20
119.4840895479
 10
138.8715679203
 20
119.1791716671
 10
138.8228906108
 20
118.8729097953
 10
138.8012425074
 20
118.5661717237
 10
138.8030483461
 20
118.4608453544
  0
LINE
  5
64
330
1F
100
AcDbEntity
  8
0
  6
Continuous
 62
     7
370
    25
100
AcDbLine
 10
158.2
 20
107.5312765168
 30
0.0
 11
158.2
 21
118.4729233961
 31
0.0
  0
LINE
  5
65
330
1F
100
AcDbEntity
  8
0
  6
Continuous
 62
     7
370
    25
100
AcDbLine
 10
138.8
 20
118.4729233961
 30
0.0
 11
138.8
 21
107.5312765168
 31
0.0
  0
LINE
  5
66
330
1F
100
AcDbEntity
  8
0
  6
Continuous
 62
     7
370
    25
100
AcDbLine
 10
149.767766953
 20
101.979618307
 30
0.0
 11
149.767766953
 21
90.1799501394
 31
0.0
  0
LINE
  5
67
330
1F
100
AcDbEntity
  8
0
  6
Continuous
 62
     7
370
    25
100
AcDbLine
 10
150.767766953
 20
90.1799501394
 30
0.0
 11
150.767766953
 21
102.0867698402
 31
0.0
  0
LINE
  5
68
330
1F
100
AcDbEntity
  8
0
  6
Continuous
 62
     7
370
    25
100
AcDbLine
 10
146.232233047
 20
102.0867698402
 30
0.0
 11
146.232233047
 21
92.2209704189
 31
0.0
  0
LINE
  5
69
330
1F
100
AcDbEntity
  8
0
  6
Continuous
 62
     7
370
    25
100
AcDbLine
 10
147.232233047
 20
92.2209704189
 30
0.0
 11
147.232233047
 21
101.979618307
 31
0.0
  0
LINE
  5
6A
330
1F
100
AcDbEntity
  8
0
  6
Continuous
 62
     7
370
    25
100
AcDbLine
 10
138.8000191332
 20
118.4618012974
 30
0.0
 11
138.8
 21
118.4729233961
 31
0.0
  0
LINE
  5
6B
330
1F
100
AcDbEntity
  8
0
  6
Continuous
 62
     7
370
    25
100
AcDbLine
 10
158.2
 20
118.4729233961
 30
0.0
 11
158.1998468704
 21
118.4414588785
 31
0.0
  0
LWPOLYLINE
  5
6C
330
1F
100
AcDbEntity
  8
0
  6
Continuous
 62
     7
370
    25
100
AcDbPolyline
 90
       44
 70
   128
 43
0.0
 10
141.6410642225
 20
103.5716971745
 10
142.032848237
 20
103.35776391
 10
142.4446218471
 20
103.1567307337
 10
142.8751122839
 20
102.9692190278
 10
143.3229889264
 20
102.7958083801
 10
143.7868674134
 20
102.637034793
 10
144.2653139231
 20
102.4933890267
 10
144.7568496048
 20
102.3653150818
 10
145.2599551499
 20
102.2532088277
 10
145.7730754879
 20
102.1574167784
 10
146.2946245933
 20
102.0782350216
 10
146.8229903878
 20
102.0159083035
 10
147.3565397228
 20
101.9706292725
 10
147.893623428
 20
101.9425378834
 10
148.4325814084
 20
101.9317209652
 10
148.9717477759
 20
101.9382119523
 10
149.509455998
 20
101.9619907814
 10
150.0440440495
 20
102.0029839536
 10
150.5738595492
 20
102.0610647613
 10
151.097264868
 20
102.1360536801
 10
151.6126421899
 20
102.2277189234
 10
152.1183985132
 20
102.3357771593
 10
152.6129705741
 20
102.459894386
 10
153.0948296786
 20
102.5996869643
 10
153.5624864278
 20
102.7547228032
 10
154.0144953217
 20
102.9245226959
 10
154.4494592265
 20
103.1085618007
 10
154.8660336938
 20
103.3062712632
 10
155.2629311158
 20
103.5170399749
 10
155.6389247053
 20
103.7402164616
 10
155.9928522876
 20
103.9751108977
 10
156.3236198929
 20
104.2209972379
 10
156.6302051375
 20
104.4771154617
 10
156.9116603839
 20
104.7426739223
 10
157.1671156702
 20
105.0168517937
 10
157.3957813985
 20
105.2988016078
 10
157.5969507764
 20
105.5876518739
 10
157.7700020007
 20
105.8825097724
 10
157.9144001802
 20
106.1824639145
 10
158.0296989881
 20
106.486587159
 10
158.1155420426
 20
106.7939394784
 10
158.1716640077
 20
107.1035708643
 10
158.1978914137
 20
107.4145242639
 10
158.2
 20
107.5312765168
  0
ARC
  5
6D
330
1F
100
AcDbEntity
  8
0
  6
Continuous
 62
     7
370
    25
100
AcDbCircle
 10
143.6692964161
 20
108.0260327586
 30
0.0
 40
4.894367306079269
100
AcDbArc
 50
185.8017603582
 51
245.5183805994
  0
LWPOLYLINE
  5
6E
330
1F
100
AcDbEntity
  8
0
  6
Continuous
 62
     7
370
    25
100
AcDbPolyline
 90
       37
 70
   128
 43
0.0
 10
147.7928932188
 20
118.391335665
 10
147.9264235636
 20
118.3266533114
 10
148.0773817383
 20
118.276339372
 10
148.2411809549
 20
118.2419226106
 10
148.4128442573
 20
118.2244487628
 10
148.5871557427
 20
118.2244487628
 10
148.7588190451
 20
118.2419226106
 10
148.9226182617
 20
118.276339372
 10
149.0735764364
 20
118.3266533114
 10
149.2071067812
 20
118.391335665
 10
149.3191520443
 20
118.4684210922
 10
149.406307787
 20
118.5555673915
 10
149.4659258263
 20
118.6501266665
 10
149.4961946981
 20
118.7492257815
 10
149.4961946981
 20
118.8498536602
 10
149.4659258263
 20
118.9489527753
 10
149.406307787
 20
119.0435120503
 10
149.3191520443
 20
119.1306583495
 10
149.2071067812
 20
119.2077437768
 10
149.0735764364
 20
119.2724261304
 10
148.9226182617
 20
119.3227400697
 10
148.7588190451
 20
119.3571568312
 10
148.5871557427
 20
119.3746306789
 10
148.4128442573
 20
119.3746306789
 10
148.2411809549
 20
119.3571568312
 10
148.0773817383
 20
119.3227400697
 10
147.9264235636
 20
119.2724261304
 10
147.7928932188
 20
119.2077437768
 10
147.6808479557
 20
119.1306583495
 10
147.593692213
 20
119.0435120503
 10
147.5340741737
 20
118.9489527753
 10
147.5038053019
 20
118.8498536602
 10
147.5038053019
 20
118.7492257815
 10
147.5340741737
 20
118.6501266665
 10
147.593692213
 20
118.5555673915
 10
147.6808479557
 20
118.4684210922
 10
147.7928932188
 20
118.391335665
  0
ARC
  5
6F
330
1F
100
AcDbEntity
  8
0
  6
Continuous
 62
     7
370
    25
100
AcDbCircle
 10
148.5
 20
116.5093402652
 30
0.0
 40
1.72433730679913
100
AcDbArc
 50
85.333313647
 51
94.666686353
  0
ARC
  5
70
330
1F
100
AcDbEntity
  8
0
  6
Continuous
 62
     7
370
    25
100
AcDbCircle
 10
150.0078262012
 20
90.1976066976
 30
0.0
 40
0.2407076997411712
100
AcDbArc
 50
184.2065778873
 51
247.1135630703
  0
LWPOLYLINE
  5
71
330
1F
100
AcDbEntity
  8
0
  6
Continuous
 62
     7
370
    25
100
AcDbPolyline
 90
       11
 70
   128
 43
0.0
 10
150.767766953
 20
90.1799501394
 10
150.7655479353
 20
90.1527863529
 10
150.7382073374
 20
90.0821755199
 10
150.6813072401
 20
90.0177082258
 10
150.5984228856
 20
89.9634351878
 10
150.4947622028
 20
89.9227665805
 10
150.3768385737
 20
89.898257762
 10
150.2520615734
 20
89.8914487116
 10
150.1282713999
 20
89.902767267
 10
150.0132462451
 20
89.9315022416
 10
149.9142135624
 20
89.9758481114
  0
LWPOLYLINE
  5
72
330
1F
100
AcDbEntity
  8
0
  6
Continuous
 62
     7
370
    25
100
AcDbPolyline
 90
       14
 70
   128
 43
0.0
 10
147.232233047
 20
92.2209704189
 10
147.220191428
 20
92.1580047125
 10
147.1777363091
 20
92.0899288505
 10
147.1072885818
 20
92.0300868121
 10
147.013274736
 20
91.9822386927
 10
146.9016020072
 20
91.9493909657
 10
146.7792872037
 20
91.9336075745
 10
146.6540158145
 20
91.9358802477
 10
146.5336591017
 20
91.9560661849
 10
146.4257795202
 20
91.9928970293
 10
146.3371555408
 20
92.0440585635
 10
146.2733557342
 20
92.1063361203
 10
146.2383888767
 20
92.1758165717
 10
146.232233047
 20
92.2209704189
  0
LWPOLYLINE
  5
73
330
1F
100
AcDbEntity
  8
0
  6
PHANTOM
 62
     8
370
    18
100
AcDbPolyline
 90
      112
 70
   128
 43
0.0
 10
141.923906935
 20
115.0032420009
 10
142.3064823279
 20
114.7945466137
 10
142.7088974251
 20
114.5986804269
 10
143.1298631697
 20
114.4162708588
 10
143.5680310815
 20
114.2479022223
 10
144.0219975767
 20
114.094113853
 10
144.4903084636
 20
113.9553983812
 10
144.9714636014
 20
113.8322001546
 10
145.463921705
 20
113.7249138141
 10
145.9661052826
 20
113.6338830303
 10
146.476405689
 20
113.5593994022
 10
146.993188278
 20
113.5017015233
 10
147.5147976392
 20
113.4609742173
 10
148.0395629006
 20
113.4373479461
 10
148.5658030808
 20
113.4308983917
 10
149.091832474
 20
113.4416462139
 10
149.6159660492
 20
113.4695569844
 10
150.1365248488
 20
113.5145412964
 10
150.651841366
 20
113.5764550517
 10
151.1602648865
 20
113.6550999218
 10
151.6601667766
 20
113.7502239834
 10
152.1499456997
 20
113.8615225257
 10
152.6280327465
 20
113.9886390257
 10
153.0928964598
 20
114.131166291
 10
153.5430477412
 20
114.2886477638
 10
153.9770446202
 20
114.4605789834
 10
154.3934968742
 20
114.6464092024
 10
154.7910704809
 20
114.8455431505
 10
155.1684918923
 20
115.0573429417
 10
155.5245521138
 20
115.2811301173
 10
155.8581105771
 20
115.5161878196
 10
156.1680987939
 20
115.7617630878
 10
156.4535237786
 20
116.0170692705
 10
156.7134712288
 20
116.2812885448
 10
156.9471084545
 20
116.5535745369
 10
157.1536870453
 20
116.8330550325
 10
157.3325452675
 20
117.1188347714
 10
157.4831101845
 20
117.409998315
 10
157.6048994914
 20
117.7056129786
 10
157.6975230602
 20
118.0047318194
 10
157.76068419
 20
118.3063966695
 10
157.7941805563
 20
118.6096412055
 10
157.7979048604
 20
118.9134940436
 10
157.7718451722
 20
119.2169818517
 10
157.7160849686
 20
119.5191324668
 10
157.6308028664
 20
119.8189780094
 10
157.51627205
 20
120.1155579838
 10
157.372859396
 20
120.407922355
 10
157.2010242984
 20
120.6951345917
 10
157.0013171968
 20
120.9762746666
 10
156.7743778133
 20
121.2504420032
 10
156.5209331032
 20
121.5167583609
 10
156.2417949262
 20
121.7743706482
 10
155.9378574461
 20
122.0224536551
 10
155.6100942662
 20
122.2602126971
 10
155.259555311
 20
122.4868861602
 10
154.8873634622
 20
122.7017479411
 10
154.4947109626
 20
122.9041097725
 10
154.0828555966
 20
123.0933234287
 10
153.6531166609
 20
123.2687828012
 10
153.2068707391
 20
123.4299258408
 10
152.7455472913
 20
123.5762363576
 10
152.2706240756
 20
123.7072456751
 10
151.7836224142
 20
123.8225341309
 10
151.2861023204
 20
123.9217324212
 10
150.7796575008
 20
124.0045227841
 10
150.265910251
 20
124.0706400171
 10
149.7465062583
 20
124.1198723268
 10
149.2231093302
 20
124.1520620071
 10
148.697396065
 20
124.1671059449
 10
148.1710504807
 20
124.1649559499
 10
147.6457586208
 20
124.1456189092
 10
147.1232031536
 20
124.1091567652
 10
146.6050579818
 20
124.055686317
 10
146.0929828805
 20
123.9853788467
 10
145.5886181808
 20
123.8984595702
 10
145.0935795147
 20
123.7952069163
 10
144.6094526404
 20
123.6759516343
 10
144.1377883621
 20
123.5410757348
 10
143.6800975629
 20
123.391011266
 10
143.2378463642
 20
123.2262389297
 10
142.8124514301
 20
123.0472865412
 10
142.4052754286
 20
122.8547273391
 10
142.0176226674
 20
122.6491781484
 10
141.650734915
 20
122.4312974054
 10
141.3057874236
 20
122.2017830476
 10
140.983885164
 20
121.9613702787
 10
140.6860592861
 20
121.7108292133
 10
140.413263816
 20
121.45096241
 10
140.1663725999
 20
121.1826023005
 10
139.9461765047
 20
120.9066085231
 10
139.7533808849
 20
120.6238651691
 10
139.5886033231
 20
120.3352779507
 10
139.4523716513
 20
120.0417712998
 10
139.3451222608
 20
119.7442854066
 10
139.2671987037
 20
119.4437732082
 10
139.2188505926
 20
119.1411973357
 10
139.2002328011
 20
118.8375270309
 10
139.2114049675
 20
118.5337350412
 10
139.2523313041
 20
118.2307945041
 10
139.3228807116
 20
117.9296758293
 10
139.4228271987
 20
117.6313435909
 10
139.5518506069
 20
117.3367534368
 10
139.7095376352
 20
117.0468490282
 10
139.8953831646
 20
116.7625590163
 10
140.1087918758
 20
116.4847940677
 10
140.3490801564
 20
116.2144439472
 10
140.6154782905
 20
115.9523746678
 10
140.9071329247
 20
115.6994257165
 10
141.2231098011
 20
115.4564073649
 10
141.5623967507
 20
115.2240980742
 10
141.923906935
 20
115.0032420009
  0
ARC
  5
74
330
1F
100
AcDbEntity
  8
0
  6
PHANTOM
 62
     8
370
    18
100
AcDbCircle
 10
143.55947754
 20
118.8900470471
 30
0.0
 40
4.778685880887435
100
AcDbArc
 50
185.1415046371
 51
246.3310144607
  0
LWPOLYLINE
  5
75
330
1F
100
AcDbEntity
  8
0
  6
PHANTOM
 62
     8
370
    18
100
AcDbPolyline
 90
       44
 70
   128
 43
0.0
 10
158.1998468704
 20
118.4414588785
 10
158.1978914137
 20
118.3561711432
 10
158.1716640077
 20
118.0452177436
 10
158.1155420426
 20
117.7355863576
 10
158.0296989881
 20
117.4282340382
 10
157.9144001802
 20
117.1241107937
 10
157.7700020007
 20
116.8241566517
 10
157.5969507764
 20
116.5292987532
 10
157.3957813985
 20
116.2404484871
 10
157.1671156702
 20
115.958498673
 10
156.9116603839
 20
115.6843208016
 10
156.6302051375
 20
115.418762341
 10
156.3236198929
 20
115.1626441172
 10
155.9928522876
 20
114.916757777
 10
155.6389247053
 20
114.6818633409
 10
155.2629311158
 20
114.4586868541
 10
154.8660336938
 20
114.2479181425
 10
154.4494592265
 20
114.05020868
 10
154.0144953217
 20
113.8661695752
 10
153.5624864278
 20
113.6963696825
 10
153.0948296786
 20
113.5413338435
 10
152.6129705741
 20
113.4015412653
 10
152.1183985132
 20
113.2774240386
 10
151.6126421899
 20
113.1693658027
 10
151.097264868
 20
113.0777005593
 10
150.5738595492
 20
113.0027116406
 10
150.0440440495
 20
112.9446308329
 10
149.509455998
 20
112.9036376607
 10
148.9717477759
 20
112.8798588316
 10
148.4325814084
 20
112.8733678445
 10
147.893623428
 20
112.8841847627
 10
147.3565397228
 20
112.9122761517
 10
146.8229903878
 20
112.9575551827
 10
146.2946245933
 20
113.0198819008
 10
145.7730754879
 20
113.0990636577
 10
145.2599551499
 20
113.194855707
 10
144.7568496048
 20
113.3069619611
 10
144.2653139231
 20
113.4350359059
 10
143.7868674134
 20
113.5786816723
 10
143.3229889264
 20
113.7374552593
 10
142.8751122839
 20
113.910865907
 10
142.4446218471
 20
114.098377613
 10
142.032848237
 20
114.2994107892
 10
141.6410642225
 20
114.5133440538
  0
ENDSEC
  0
SECTION
  2
OBJECTS
  0
DICTIONARY
  5
C
330
0
100
AcDbDictionary
281
     1
  3
ACAD_GROUP
350
D
  3
ACAD_LAYOUT
350
1A
  3
ACAD_MLINESTYLE
350
17
  3
ACAD_PLOTSETTINGS
350
19
  3
ACAD_PLOTSTYLENAME
350
E
  3
ACAD_SCALELIST
350
47
  3
DWGPROPS
350
76
  0
DICTIONARY
  5
D
102
{ACAD_REACTORS
330
C
102
}
330
C
100
AcDbDictionary
281
     1
  0
DICTIONARY
  5
1A
102
{ACAD_REACTORS
330
C
102
}
330
C
100
AcDbDictionary
281
     1
  3
Layout1
350
1E
  3
Layout2
350
26
  3
Model
350
22
  0
DICTIONARY
  5
17
102
{ACAD_REACTORS
330
C
102
}
330
C
100
AcDbDictionary
281
     1
  3
Standard
350
18
  0
DICTIONARY
  5
19
102
{ACAD_REACTORS
330
C
102
}
330
C
100
AcDbDictionary
281
     1
  0
ACDBDICTIONARYWDFLT
  5
E
102
{ACAD_REACTORS
330
C
102
}
330
C
100
AcDbDictionary
281
     1
  3
Normal
350
F
100
AcDbDictionaryWithDefault
340
F
  0
DICTIONARY
  5
47
102
{ACAD_REACTORS
330
C
102
}
330
C
100
AcDbDictionary
281
     1
  3
A0
350
48
  3
A1
350
49
  3
A2
350
4A
  3
A3
350
4B
  3
A4
350
4C
  3
A5
350
4D
  3
A6
350
4E
  3
A7
350
4F
  3
A8
350
50
  3
A9
350
51
  3
B0
350
52
  3
B1
350
53
  3
B2
350
54
  3
B3
350
55
  3
B4
350
56
  3
B5
350
57
  3
B6
350
58
  0
XRECORD
  5
76
102
{ACAD_REACTORS
330
C
102
}
330
C
100
AcDbXrecord
280
     1
  1
DWGPROPS COOKIE
  2

  3

  4

  6

  7

  8
partstream
  9

300
=
301
=
302
=
303
=
304
=
305
=
306
=
307
=
308
=
309
=
 40
0.0
 41
2460573.968556701
 42
2460573.968556887
  1

 90
        0
  0
LAYOUT
  5
1E
102
{ACAD_REACTORS
330
1A
102
}
330
1A
100
AcDbPlotSettings
  1

  2
none_device
  4

  6

 40
0.0
 41
0.0
 42
0.0
 43
0.0
 44
0.0
 45
0.0
 46
0.0
 47
0.0
 48
0.0
 49
0.0
140
0.0
141
0.0
142
1.0
143
1.0
 70
   688
 72
     1
 73
     0
 74
     5
  7

 75
    16
147
1.0
148
0.0
149
0.0
100
AcDbLayout
  1
Layout1
 70
     1
 71
     1
 10
0.0
 20
0.0
 11
420.0
 21
297.0
 12
0.0
 22
0.0
 32
0.0
 14
1.0000000000E+20
 24
1.0000000000E+20
 34
1.0000000000E+20
 15
-1.0000000000E+20
 25
-1.0000000000E+20
 35
-1.0000000000E+20
146
0.0
 13
0.0
 23
0.0
 33
0.0
 16
1.0
 26
0.0
 36
0.0
 17
0.0
 27
1.0
 37
0.0
 76
     0
330
1B
  0
LAYOUT
  5
26
102
{ACAD_REACTORS
330
1A
102
}
330
1A
100
AcDbPlotSettings
  1

  2
none_device
  4

  6

 40
0.0
 41
0.0
 42
0.0
 43
0.0
 44
0.0
 45
0.0
 46
0.0
 47
0.0
 48
0.0
 49
0.0
140
0.0
141
0.0
142
1.0
143
1.0
 70
   688
 72
     1
 73
     0
 74
     5
  7

 75
    16
147
1.0
148
0.0
149
0.0
100
AcDbLayout
  1
Layout2
 70
     1
 71
     2
 10
0.0
 20
0.0
 11
0.0
 21
0.0
 12
0.0
 22
0.0
 32
0.0
 14
0.0
 24
0.0
 34
0.0
 15
0.0
 25
0.0
 35
0.0
146
0.0
 13
0.0
 23
0.0
 33
0.0
 16
1.0
 26
0.0
 36
0.0
 17
0.0
 27
1.0
 37
0.0
 76
     0
330
23
  0
LAYOUT
  5
22
102
{ACAD_REACTORS
330
1A
102
}
330
1A
100
AcDbPlotSettings
  1

  2
none_device
  4
Letter_(8.50_x_11.00_Inches)
  6

 40
6.35
 41
6.35
 42
6.35000508
 43
6.35000508
 44
215.9
 45
279.4
 46
0.0
 47
0.0
 48
0.0
 49
0.0
140
0.0
141
0.0
142
1.0
143
1.0
 70
  1712
 72
     1
 73
     0
 74
     0
  7

 75
     0
147
1.0
148
0.0
149
0.0
100
AcDbLayout
  1
Model
 70
     1
 71
     0
 10
0.0
 20
0.0
 11
297.0
 21
210.0
 12
0.0
 22
0.0
 32
0.0
 14
0.0
 24
0.0
 34
0.0
 15
297.0
 25
210.0
 35
0.0
146
0.0
 13
0.0
 23
0.0
 33
0.0
 16
1.0
 26
0.0
 36
0.0
 17
0.0
 27
1.0
 37
0.0
 76
     0
330
1F
331
29
  0
MLINESTYLE
  5
18
102
{ACAD_REACTORS
330
17
102
}
330
17
100
AcDbMlineStyle
  2
Standard
 70
     0
  3

 62
   256
 51
90.0
 52
90.0
 71
     2
 49
0.5
 62
   256
  6
BYLAYER
 49
-0.5
 62
   256
  6
BYLAYER
  0
ACDBPLACEHOLDER
  5
F
102
{ACAD_REACTORS
330
E
102
}
330
E
  0
SCALE
  5
48
102
{ACAD_REACTORS
330
47
102
}
330
47
100
AcDbScale
 70
     0
300
1:1
140
1.0
141
1.0
290
     1
  0
SCALE
  5
49
102
{ACAD_REACTORS
330
47
102
}
330
47
100
AcDbScale
 70
     0
300
1:2
140
1.0
141
2.0
290
     0
  0
SCALE
  5
4A
102
{ACAD_REACTORS
330
47
102
}
330
47
100
AcDbScale
 70
     0
300
1:4
140
1.0
141
4.0
290
     0
  0
SCALE
  5
4B
102
{ACAD_REACTORS
330
47
102
}
330
47
100
AcDbScale
 70
     0
300
1:5
140
1.0
141
5.0
290
     0
  0
SCALE
  5
4C
102
{ACAD_REACTORS
330
47
102
}
330
47
100
AcDbScale
 70
     0
300
1:8
140
1.0
141
8.0
290
     0
  0
SCALE
  5
4D
102
{ACAD_REACTORS
330
47
102
}
330
47
100
AcDbScale
 70
     0
300
1:10
140
1.0
141
10.0
290
     0
  0
SCALE
  5
4E
102
{ACAD_REACTORS
330
47
102
}
330
47
100
AcDbScale
 70
     0
300
1:16
140
1.0
141
16.0
290
     0
  0
SCALE
  5
4F
102
{ACAD_REACTORS
330
47
102
}
330
47
100
AcDbScale
 70
     0
300
1:20
140
1.0
141
20.0
290
     0
  0
SCALE
  5
50
102
{ACAD_REACTORS
330
47
102
}
330
47
100
AcDbScale
 70
     0
300
1:30
140
1.0
141
30.0
290
     0
  0
SCALE
  5
51
102
{ACAD_REACTORS
330
47
102
}
330
47
100
AcDbScale
 70
     0
300
1:40
140
1.0
141
40.0
290
     0
  0
SCALE
  5
52
102
{ACAD_REACTORS
330
47
102
}
330
47
100
AcDbScale
 70
     0
300
1:50
140
1.0
141
50.0
290
     0
  0
SCALE
  5
53
102
{ACAD_REACTORS
330
47
102
}
330
47
100
AcDbScale
 70
     0
300
1:100
140
1.0
141
100.0
290
     0
  0
SCALE
  5
54
102
{ACAD_REACTORS
330
47
102
}
330
47
100
AcDbScale
 70
     0
300
2:1
140
2.0
141
1.0
290
     0
  0
SCALE
  5
55
102
{ACAD_REACTORS
330
47
102
}
330
47
100
AcDbScale
 70
     0
300
4:1
140
4.0
141
1.0
290
     0
  0
SCALE
  5
56
102
{ACAD_REACTORS
330
47
102
}
330
47
100
AcDbScale
 70
     0
300
8:1
140
8.0
141
1.0
290
     0
  0
SCALE
  5
57
102
{ACAD_REACTORS
330
47
102
}
330
47
100
AcDbScale
 70
     0
300
10:1
140
10.0
141
1.0
290
     0
  0
SCALE
  5
58
102
{ACAD_REACTORS
330
47
102
}
330
47
100
AcDbScale
 70
     0
300
100:1
140
100.0
141
1.0
290
     0
  0
ENDSEC
  0
EOF
