G04*
G04 #@! TF.GenerationSoftware,Altium Limited,Altium Designer,23.7.1 (13)*
G04*
G04 Layer_Physical_Order=3*
G04 Layer_Color=128*
%FSLAX25Y25*%
%MOIN*%
G70*
G04*
G04 #@! TF.SameCoordinates,1B8C2127-6F75-47A4-92DA-DE864E6653F8*
G04*
G04*
G04 #@! TF.FilePolarity,Negative*
G04*
G01*
G75*
%ADD39C,0.03937*%
%ADD55C,0.04000*%
%ADD56C,0.07150*%
%ADD57C,0.07937*%
%ADD58C,0.12661*%
%ADD59C,0.04787*%
%ADD60C,0.01575*%
D39*
X326772Y-30551D02*
Y-27047D01*
D55*
X0Y-144685D02*
X39Y-145689D01*
X158Y-146687D01*
X353Y-147672D01*
X626Y-148639D01*
X974Y-149582D01*
X1395Y-150494D01*
X1885Y-151371D01*
X2444Y-152206D01*
X3066Y-152995D01*
X3748Y-153733D01*
X4485Y-154415D01*
X5274Y-155037D01*
X6110Y-155595D01*
X6986Y-156086D01*
X7899Y-156506D01*
X8841Y-156854D01*
X9808Y-157127D01*
X10794Y-157323D01*
X11791Y-157441D01*
X12795Y-157480D01*
X313976Y-157480D02*
X314980Y-157441D01*
X315978Y-157323D01*
X316963Y-157127D01*
X317930Y-156854D01*
X318873Y-156506D01*
X319785Y-156086D01*
X320662Y-155595D01*
X321497Y-155037D01*
X322286Y-154415D01*
X323024Y-153733D01*
X323706Y-152995D01*
X324328Y-152206D01*
X324886Y-151371D01*
X325377Y-150494D01*
X325798Y-149582D01*
X326145Y-148639D01*
X326418Y-147672D01*
X326614Y-146687D01*
X326732Y-145689D01*
X326772Y-144685D01*
X326772Y-12795D02*
X326732Y-11791D01*
X326614Y-10794D01*
X326418Y-9808D01*
X326145Y-8841D01*
X325798Y-7899D01*
X325377Y-6986D01*
X324886Y-6110D01*
X324328Y-5274D01*
X323706Y-4485D01*
X323024Y-3748D01*
X322286Y-3066D01*
X321497Y-2444D01*
X320662Y-1885D01*
X319785Y-1395D01*
X318873Y-974D01*
X317930Y-626D01*
X316963Y-353D01*
X315978Y-158D01*
X314980Y-39D01*
X313976Y-0D01*
X12795D02*
X11791Y-39D01*
X10794Y-158D01*
X9808Y-353D01*
X8841Y-626D01*
X7899Y-974D01*
X6986Y-1395D01*
X6110Y-1885D01*
X5274Y-2444D01*
X4485Y-3066D01*
X3748Y-3748D01*
X3066Y-4485D01*
X2444Y-5274D01*
X1885Y-6110D01*
X1395Y-6986D01*
X974Y-7899D01*
X626Y-8841D01*
X353Y-9808D01*
X158Y-10794D01*
X39Y-11791D01*
X0Y-12795D01*
X12795Y-157480D02*
X313976D01*
X326772Y-13780D02*
X326772Y-144685D01*
X326772Y-12795D02*
X326772Y-13780D01*
X-0D02*
X0Y-144685D01*
X12795Y0D02*
X313976D01*
X-0Y-13780D02*
X0Y-12795D01*
D56*
X296299Y-43268D02*
D03*
X306299D02*
D03*
X179051Y-68697D02*
D03*
X218421D02*
D03*
X129441Y-81059D02*
D03*
X168811D02*
D03*
X218382D02*
D03*
X179012D02*
D03*
X168890Y-68657D02*
D03*
X129520D02*
D03*
D57*
X95512Y-97126D02*
D03*
X105512D02*
D03*
X115512D02*
D03*
Y-107126D02*
D03*
X105512D02*
D03*
X51142Y-129449D02*
D03*
X106890Y-82165D02*
D03*
X96890D02*
D03*
X86890D02*
D03*
X76890D02*
D03*
X66890D02*
D03*
X56890D02*
D03*
X46890D02*
D03*
Y-52165D02*
D03*
X56890Y-52165D02*
D03*
X66890D02*
D03*
X76890D02*
D03*
X86890D02*
D03*
X96890D02*
D03*
X254764Y-66378D02*
D03*
X264764D02*
D03*
X274764D02*
D03*
Y-96378D02*
D03*
X264764D02*
D03*
X254764D02*
D03*
X244764D02*
D03*
X8622Y-110429D02*
D03*
X34213D02*
D03*
X46732Y-107205D02*
D03*
X76339Y-96220D02*
D03*
X46811D02*
D03*
X161921Y-109878D02*
D03*
X136331D02*
D03*
X161921Y-92161D02*
D03*
X136331D02*
D03*
X211492Y-109878D02*
D03*
X185902D02*
D03*
X211492Y-92161D02*
D03*
X185902D02*
D03*
D58*
X307087Y-15748D02*
D03*
X19685Y-145669D02*
D03*
X307087D02*
D03*
X19685Y-15748D02*
D03*
D59*
X219764Y-94331D02*
D03*
X104095Y-69331D02*
D03*
X111653Y-59291D02*
D03*
X28780Y-53976D02*
D03*
X34882Y-43268D02*
D03*
X261575Y-51732D02*
D03*
X284095Y-109646D02*
D03*
X249685Y-61693D02*
D03*
X280591Y-85158D02*
D03*
X272677Y-89331D02*
D03*
X274764Y-85236D02*
D03*
X243110Y-108819D02*
D03*
X266850Y-114173D02*
D03*
X209449Y-81098D02*
D03*
X159917Y-81059D02*
D03*
X82622Y-43043D02*
D03*
X106122D02*
D03*
X176622D02*
D03*
X59122D02*
D03*
X34921Y-65019D02*
D03*
X34921Y-67067D02*
D03*
X32874Y-65019D02*
D03*
Y-67067D02*
D03*
X86693Y-59646D02*
D03*
X28858Y-103543D02*
D03*
X13661Y-103543D02*
D03*
X14134Y-84764D02*
D03*
X117835Y-68224D02*
D03*
X28937Y-95059D02*
D03*
X8071Y-98150D02*
D03*
X10118Y-98150D02*
D03*
X12165Y-98150D02*
D03*
X30827Y-67067D02*
D03*
Y-65019D02*
D03*
X65596Y-5508D02*
D03*
X206615Y-5528D02*
D03*
X242598Y-75236D02*
D03*
X236181Y-60512D02*
D03*
X230744Y-70197D02*
D03*
X10118Y-100197D02*
D03*
X12165D02*
D03*
X8071D02*
D03*
X253615Y-5528D02*
D03*
X183096Y-5508D02*
D03*
X230115Y-5528D02*
D03*
X112596Y-5508D02*
D03*
X136115Y-5528D02*
D03*
X159615D02*
D03*
X89096Y-5508D02*
D03*
X42076Y-5488D02*
D03*
X270621Y-43044D02*
D03*
X247122Y-43044D02*
D03*
X223622Y-43044D02*
D03*
X200122Y-43043D02*
D03*
X153122D02*
D03*
X129622D02*
D03*
D60*
X56890Y-157480D02*
Y-112087D01*
X23583D02*
X56890D01*
X123189Y-115748D02*
Y-79370D01*
Y-76772D01*
Y-63425D02*
Y-46850D01*
X107835Y-63425D02*
X123189D01*
X107835Y-76772D02*
Y-63425D01*
Y-76772D02*
X123189D01*
X222992Y-118465D02*
Y-76201D01*
X232913Y-47559D02*
X288976D01*
X232913Y-76201D02*
Y-47559D01*
X222992Y-76201D02*
X232913D01*
X222992Y-118465D02*
X288976D01*
Y-78307D01*
Y-47559D01*
X27323Y-36339D02*
Y0D01*
Y-36339D02*
X37402D01*
X326772Y-24134D02*
Y-24016D01*
X37402D02*
X326772D01*
X37402Y-29055D02*
Y-24016D01*
Y-36339D02*
Y-29055D01*
X70709Y-115748D02*
Y-101772D01*
Y-115748D02*
X123189D01*
X82008Y-46850D02*
X123189D01*
X82008Y-101772D02*
Y-46850D01*
X70709Y-101772D02*
X82008D01*
X23583Y-112087D02*
Y-58681D01*
X-394D02*
X23583D01*
M02*
