G04*
G04 #@! TF.GenerationSoftware,Altium Limited,Altium Designer,23.5.1 (21)*
G04*
G04 Layer_Color=32896*
%FSLAX25Y25*%
%MOIN*%
G70*
G04*
G04 #@! TF.SameCoordinates,E67CB547-5A9E-439B-8C78-AB5D31355585*
G04*
G04*
G04 #@! TF.FilePolarity,Positive*
G04*
G01*
G75*
%ADD11C,0.00787*%
%ADD14C,0.00500*%
%ADD15C,0.01000*%
%ADD16C,0.00591*%
%ADD81C,0.00606*%
G36*
X45525Y-143818D02*
X45620Y-143971D01*
X45722Y-144117D01*
X45824Y-144234D01*
X45911Y-144328D01*
X45992Y-144401D01*
X46021Y-144430D01*
X46043Y-144452D01*
X46057Y-144459D01*
X46065Y-144467D01*
X46225Y-144583D01*
X46378Y-144685D01*
X46517Y-144766D01*
X46641Y-144824D01*
X46743Y-144868D01*
X46815Y-144904D01*
X46845Y-144912D01*
X46867Y-144919D01*
X46874Y-144926D01*
X46881D01*
Y-145801D01*
X46619Y-145699D01*
X46385Y-145589D01*
X46276Y-145531D01*
X46174Y-145466D01*
X46079Y-145407D01*
X45992Y-145349D01*
X45911Y-145291D01*
X45839Y-145239D01*
X45780Y-145196D01*
X45729Y-145152D01*
X45685Y-145116D01*
X45656Y-145094D01*
X45642Y-145079D01*
X45634Y-145072D01*
Y-148724D01*
X44665D01*
Y-143650D01*
X45452D01*
X45525Y-143818D01*
D02*
G37*
G36*
X51816Y-148724D02*
X50942D01*
X49491Y-145065D01*
X50482D01*
X51182Y-146938D01*
X51226Y-147047D01*
X51255Y-147150D01*
X51270Y-147186D01*
X51277Y-147215D01*
X51284Y-147237D01*
Y-147244D01*
X51292Y-147281D01*
X51306Y-147325D01*
X51343Y-147434D01*
X51357Y-147477D01*
X51372Y-147521D01*
X51379Y-147550D01*
X51386Y-147558D01*
X51583Y-146938D01*
X52276Y-145065D01*
X53289D01*
X51816Y-148724D01*
D02*
G37*
G36*
X55476Y-144992D02*
X55600Y-145006D01*
X55724Y-145035D01*
X55833Y-145065D01*
X55943Y-145101D01*
X56037Y-145145D01*
X56132Y-145196D01*
X56212Y-145239D01*
X56285Y-145291D01*
X56351Y-145342D01*
X56409Y-145385D01*
X56453Y-145422D01*
X56489Y-145451D01*
X56519Y-145480D01*
X56533Y-145495D01*
X56540Y-145502D01*
X56621Y-145604D01*
X56693Y-145713D01*
X56759Y-145823D01*
X56817Y-145939D01*
X56861Y-146063D01*
X56898Y-146180D01*
X56956Y-146406D01*
X56978Y-146515D01*
X56992Y-146610D01*
X57000Y-146697D01*
X57007Y-146770D01*
X57014Y-146836D01*
Y-146887D01*
Y-146916D01*
Y-146923D01*
X57007Y-147062D01*
X57000Y-147201D01*
X56978Y-147325D01*
X56956Y-147441D01*
X56934Y-147558D01*
X56898Y-147660D01*
X56868Y-147755D01*
X56832Y-147842D01*
X56803Y-147922D01*
X56766Y-147988D01*
X56737Y-148046D01*
X56715Y-148097D01*
X56686Y-148134D01*
X56672Y-148163D01*
X56664Y-148177D01*
X56657Y-148185D01*
X56562Y-148294D01*
X56467Y-148389D01*
X56358Y-148469D01*
X56242Y-148542D01*
X56125Y-148600D01*
X56008Y-148651D01*
X55892Y-148695D01*
X55775Y-148724D01*
X55673Y-148753D01*
X55571Y-148768D01*
X55476Y-148782D01*
X55396Y-148797D01*
X55330D01*
X55287Y-148804D01*
X55243D01*
X55031Y-148790D01*
X54835Y-148761D01*
X54667Y-148717D01*
X54521Y-148666D01*
X54455Y-148637D01*
X54404Y-148615D01*
X54353Y-148593D01*
X54317Y-148571D01*
X54288Y-148549D01*
X54259Y-148542D01*
X54251Y-148527D01*
X54244D01*
X54106Y-148411D01*
X53982Y-148287D01*
X53879Y-148148D01*
X53799Y-148017D01*
X53734Y-147900D01*
X53712Y-147849D01*
X53690Y-147806D01*
X53675Y-147769D01*
X53661Y-147740D01*
X53654Y-147725D01*
Y-147718D01*
X54616Y-147558D01*
X54652Y-147652D01*
X54689Y-147740D01*
X54725Y-147806D01*
X54769Y-147864D01*
X54798Y-147908D01*
X54827Y-147937D01*
X54849Y-147951D01*
X54856Y-147959D01*
X54915Y-148002D01*
X54980Y-148032D01*
X55046Y-148053D01*
X55104Y-148068D01*
X55155Y-148075D01*
X55199Y-148083D01*
X55235D01*
X55352Y-148075D01*
X55461Y-148046D01*
X55563Y-148010D01*
X55644Y-147966D01*
X55709Y-147922D01*
X55753Y-147886D01*
X55790Y-147857D01*
X55797Y-147849D01*
X55870Y-147755D01*
X55921Y-147645D01*
X55964Y-147529D01*
X55994Y-147426D01*
X56008Y-147325D01*
X56015Y-147251D01*
X56023Y-147222D01*
Y-147201D01*
Y-147186D01*
Y-147179D01*
X53602D01*
Y-146975D01*
X53617Y-146792D01*
X53639Y-146617D01*
X53668Y-146457D01*
X53705Y-146304D01*
X53741Y-146173D01*
X53785Y-146049D01*
X53829Y-145939D01*
X53872Y-145845D01*
X53916Y-145757D01*
X53952Y-145692D01*
X53989Y-145633D01*
X54018Y-145589D01*
X54040Y-145553D01*
X54054Y-145538D01*
X54062Y-145531D01*
X54149Y-145436D01*
X54251Y-145349D01*
X54353Y-145276D01*
X54455Y-145218D01*
X54565Y-145159D01*
X54674Y-145116D01*
X54776Y-145079D01*
X54878Y-145050D01*
X54973Y-145028D01*
X55060Y-145013D01*
X55141Y-144999D01*
X55206Y-144992D01*
X55265Y-144984D01*
X55345D01*
X55476Y-144992D01*
D02*
G37*
G36*
X61811Y-148724D02*
X60790D01*
Y-146617D01*
X60462D01*
X60360Y-146625D01*
X60273Y-146632D01*
X60200Y-146646D01*
X60142Y-146654D01*
X60105Y-146668D01*
X60083Y-146676D01*
X60076D01*
X60018Y-146705D01*
X59959Y-146734D01*
X59908Y-146770D01*
X59857Y-146800D01*
X59821Y-146836D01*
X59792Y-146865D01*
X59777Y-146880D01*
X59770Y-146887D01*
X59741Y-146923D01*
X59704Y-146960D01*
X59624Y-147069D01*
X59536Y-147186D01*
X59442Y-147317D01*
X59362Y-147434D01*
X59325Y-147492D01*
X59296Y-147536D01*
X59267Y-147572D01*
X59245Y-147601D01*
X59238Y-147623D01*
X59230Y-147631D01*
X58501Y-148724D01*
X57277D01*
X57896Y-147740D01*
X57962Y-147638D01*
X58027Y-147536D01*
X58086Y-147448D01*
X58144Y-147368D01*
X58195Y-147295D01*
X58239Y-147222D01*
X58326Y-147113D01*
X58392Y-147026D01*
X58436Y-146967D01*
X58472Y-146931D01*
X58479Y-146923D01*
X58560Y-146836D01*
X58654Y-146756D01*
X58742Y-146690D01*
X58829Y-146625D01*
X58902Y-146574D01*
X58961Y-146537D01*
X59004Y-146508D01*
X59012Y-146501D01*
X59019D01*
X58895Y-146479D01*
X58786Y-146450D01*
X58684Y-146421D01*
X58582Y-146384D01*
X58494Y-146348D01*
X58414Y-146311D01*
X58334Y-146275D01*
X58268Y-146231D01*
X58210Y-146195D01*
X58159Y-146158D01*
X58115Y-146122D01*
X58086Y-146092D01*
X58057Y-146071D01*
X58035Y-146049D01*
X58027Y-146041D01*
X58020Y-146034D01*
X57962Y-145961D01*
X57911Y-145888D01*
X57823Y-145728D01*
X57765Y-145575D01*
X57729Y-145422D01*
X57700Y-145291D01*
X57692Y-145239D01*
Y-145188D01*
X57685Y-145152D01*
Y-145116D01*
Y-145101D01*
Y-145094D01*
X57692Y-144933D01*
X57721Y-144780D01*
X57758Y-144649D01*
X57794Y-144532D01*
X57838Y-144438D01*
X57874Y-144365D01*
X57889Y-144343D01*
X57904Y-144321D01*
X57911Y-144314D01*
Y-144306D01*
X57998Y-144183D01*
X58093Y-144080D01*
X58188Y-144000D01*
X58283Y-143927D01*
X58370Y-143884D01*
X58436Y-143847D01*
X58479Y-143825D01*
X58487Y-143818D01*
X58494D01*
X58567Y-143796D01*
X58647Y-143774D01*
X58829Y-143738D01*
X59026Y-143716D01*
X59216Y-143694D01*
X59311D01*
X59391Y-143687D01*
X59471D01*
X59536Y-143679D01*
X61811D01*
Y-148724D01*
D02*
G37*
G36*
X43010D02*
X42041D01*
Y-147755D01*
X43010D01*
Y-148724D01*
D02*
G37*
G36*
X39751Y-143658D02*
X39875Y-143672D01*
X39999Y-143701D01*
X40109Y-143730D01*
X40211Y-143774D01*
X40306Y-143818D01*
X40386Y-143862D01*
X40466Y-143913D01*
X40532Y-143964D01*
X40597Y-144008D01*
X40648Y-144051D01*
X40685Y-144095D01*
X40721Y-144124D01*
X40743Y-144153D01*
X40758Y-144168D01*
X40765Y-144175D01*
X40852Y-144299D01*
X40925Y-144445D01*
X40991Y-144598D01*
X41049Y-144758D01*
X41093Y-144926D01*
X41137Y-145101D01*
X41166Y-145269D01*
X41195Y-145436D01*
X41210Y-145597D01*
X41224Y-145742D01*
X41239Y-145881D01*
X41246Y-145998D01*
X41253Y-146092D01*
Y-146165D01*
Y-146195D01*
Y-146216D01*
Y-146224D01*
Y-146231D01*
X41246Y-146493D01*
X41231Y-146734D01*
X41210Y-146960D01*
X41180Y-147164D01*
X41151Y-147346D01*
X41115Y-147514D01*
X41071Y-147660D01*
X41027Y-147791D01*
X40991Y-147900D01*
X40947Y-148002D01*
X40911Y-148083D01*
X40874Y-148148D01*
X40852Y-148192D01*
X40830Y-148228D01*
X40816Y-148250D01*
X40808Y-148258D01*
X40721Y-148360D01*
X40626Y-148440D01*
X40532Y-148520D01*
X40429Y-148578D01*
X40335Y-148637D01*
X40233Y-148680D01*
X40138Y-148717D01*
X40043Y-148746D01*
X39956Y-148775D01*
X39875Y-148790D01*
X39803Y-148804D01*
X39744Y-148812D01*
X39693D01*
X39649Y-148819D01*
X39620D01*
X39489Y-148812D01*
X39365Y-148797D01*
X39241Y-148768D01*
X39132Y-148739D01*
X39030Y-148702D01*
X38935Y-148659D01*
X38855Y-148608D01*
X38775Y-148556D01*
X38709Y-148513D01*
X38643Y-148462D01*
X38592Y-148418D01*
X38549Y-148381D01*
X38519Y-148352D01*
X38498Y-148323D01*
X38483Y-148309D01*
X38476Y-148301D01*
X38388Y-148177D01*
X38315Y-148032D01*
X38243Y-147879D01*
X38191Y-147711D01*
X38140Y-147543D01*
X38104Y-147376D01*
X38067Y-147201D01*
X38038Y-147033D01*
X38024Y-146872D01*
X38009Y-146727D01*
X37995Y-146588D01*
X37987Y-146472D01*
X37980Y-146377D01*
Y-146304D01*
Y-146275D01*
Y-146253D01*
Y-146246D01*
Y-146238D01*
X37987Y-145976D01*
X38002Y-145735D01*
X38024Y-145517D01*
X38060Y-145312D01*
X38097Y-145123D01*
X38133Y-144955D01*
X38184Y-144802D01*
X38228Y-144671D01*
X38272Y-144547D01*
X38315Y-144452D01*
X38359Y-144365D01*
X38396Y-144292D01*
X38432Y-144241D01*
X38454Y-144204D01*
X38468Y-144183D01*
X38476Y-144175D01*
X38556Y-144080D01*
X38643Y-144000D01*
X38738Y-143935D01*
X38833Y-143869D01*
X38928Y-143818D01*
X39022Y-143781D01*
X39110Y-143745D01*
X39205Y-143716D01*
X39292Y-143694D01*
X39365Y-143679D01*
X39438Y-143665D01*
X39496Y-143658D01*
X39547Y-143650D01*
X39620D01*
X39751Y-143658D01*
D02*
G37*
G36*
X166209Y-16748D02*
X164755D01*
Y-15404D01*
X166209D01*
Y-16748D01*
D02*
G37*
G36*
X112149Y-16748D02*
X110695D01*
Y-15404D01*
X112149D01*
Y-16748D01*
D02*
G37*
G36*
X199742Y-22967D02*
X198398D01*
Y-22169D01*
X198266Y-22333D01*
X198135Y-22475D01*
X198004Y-22585D01*
X197884Y-22683D01*
X197775Y-22760D01*
X197687Y-22814D01*
X197633Y-22847D01*
X197611Y-22858D01*
X197436Y-22934D01*
X197272Y-22989D01*
X197119Y-23033D01*
X196977Y-23055D01*
X196856Y-23076D01*
X196758Y-23087D01*
X196682D01*
X196507Y-23076D01*
X196332Y-23055D01*
X196179Y-23022D01*
X196026Y-22967D01*
X195742Y-22847D01*
X195621Y-22781D01*
X195501Y-22705D01*
X195403Y-22639D01*
X195315Y-22574D01*
X195239Y-22508D01*
X195173Y-22453D01*
X195119Y-22399D01*
X195086Y-22366D01*
X195064Y-22344D01*
X195053Y-22333D01*
X194933Y-22180D01*
X194834Y-22027D01*
X194736Y-21852D01*
X194659Y-21677D01*
X194594Y-21492D01*
X194539Y-21317D01*
X194463Y-20967D01*
X194430Y-20803D01*
X194408Y-20650D01*
X194397Y-20519D01*
X194386Y-20399D01*
X194375Y-20300D01*
Y-20235D01*
Y-20180D01*
Y-20169D01*
X194386Y-19918D01*
X194408Y-19688D01*
X194441Y-19469D01*
X194474Y-19273D01*
X194528Y-19087D01*
X194583Y-18912D01*
X194649Y-18759D01*
X194703Y-18617D01*
X194769Y-18497D01*
X194834Y-18387D01*
X194889Y-18300D01*
X194933Y-18224D01*
X194976Y-18169D01*
X195009Y-18125D01*
X195031Y-18103D01*
X195042Y-18092D01*
X195173Y-17961D01*
X195304Y-17852D01*
X195436Y-17753D01*
X195578Y-17666D01*
X195720Y-17601D01*
X195851Y-17535D01*
X196113Y-17447D01*
X196244Y-17426D01*
X196354Y-17404D01*
X196452Y-17382D01*
X196539Y-17371D01*
X196605Y-17360D01*
X196703D01*
X196867Y-17371D01*
X197031Y-17393D01*
X197195Y-17426D01*
X197337Y-17480D01*
X197611Y-17601D01*
X197840Y-17743D01*
X197939Y-17808D01*
X198026Y-17885D01*
X198102Y-17950D01*
X198168Y-18005D01*
X198223Y-18060D01*
X198256Y-18092D01*
X198277Y-18114D01*
X198288Y-18125D01*
Y-15404D01*
X199742D01*
Y-22967D01*
D02*
G37*
G36*
X172723D02*
X171379D01*
Y-22169D01*
X171247Y-22333D01*
X171116Y-22475D01*
X170985Y-22585D01*
X170865Y-22683D01*
X170756Y-22760D01*
X170668Y-22814D01*
X170614Y-22847D01*
X170592Y-22858D01*
X170417Y-22934D01*
X170253Y-22989D01*
X170100Y-23033D01*
X169958Y-23055D01*
X169837Y-23076D01*
X169739Y-23087D01*
X169663D01*
X169488Y-23076D01*
X169313Y-23055D01*
X169160Y-23022D01*
X169007Y-22967D01*
X168723Y-22847D01*
X168602Y-22781D01*
X168482Y-22705D01*
X168384Y-22639D01*
X168296Y-22574D01*
X168220Y-22508D01*
X168154Y-22453D01*
X168100Y-22399D01*
X168067Y-22366D01*
X168045Y-22344D01*
X168034Y-22333D01*
X167914Y-22180D01*
X167815Y-22027D01*
X167717Y-21852D01*
X167641Y-21677D01*
X167575Y-21492D01*
X167520Y-21317D01*
X167444Y-20967D01*
X167411Y-20803D01*
X167389Y-20650D01*
X167378Y-20519D01*
X167367Y-20399D01*
X167356Y-20300D01*
Y-20235D01*
Y-20180D01*
Y-20169D01*
X167367Y-19918D01*
X167389Y-19688D01*
X167422Y-19469D01*
X167455Y-19273D01*
X167509Y-19087D01*
X167564Y-18912D01*
X167630Y-18759D01*
X167684Y-18617D01*
X167750Y-18497D01*
X167815Y-18387D01*
X167870Y-18300D01*
X167914Y-18224D01*
X167957Y-18169D01*
X167990Y-18125D01*
X168012Y-18103D01*
X168023Y-18092D01*
X168154Y-17961D01*
X168285Y-17852D01*
X168417Y-17753D01*
X168559Y-17666D01*
X168701Y-17601D01*
X168832Y-17535D01*
X169094Y-17447D01*
X169225Y-17426D01*
X169335Y-17404D01*
X169433Y-17382D01*
X169520Y-17371D01*
X169586Y-17360D01*
X169685D01*
X169848Y-17371D01*
X170012Y-17393D01*
X170176Y-17426D01*
X170318Y-17480D01*
X170592Y-17601D01*
X170821Y-17743D01*
X170920Y-17808D01*
X171007Y-17885D01*
X171083Y-17950D01*
X171149Y-18005D01*
X171204Y-18060D01*
X171237Y-18092D01*
X171258Y-18114D01*
X171269Y-18125D01*
Y-15404D01*
X172723D01*
Y-22967D01*
D02*
G37*
G36*
X107394Y-17371D02*
X107569Y-17393D01*
X107733Y-17426D01*
X107897Y-17469D01*
X108170Y-17590D01*
X108302Y-17655D01*
X108411Y-17721D01*
X108520Y-17797D01*
X108608Y-17863D01*
X108684Y-17918D01*
X108750Y-17972D01*
X108804Y-18027D01*
X108837Y-18060D01*
X108859Y-18081D01*
X108870Y-18092D01*
X108990Y-18235D01*
X109089Y-18387D01*
X109176Y-18562D01*
X109253Y-18726D01*
X109307Y-18901D01*
X109362Y-19076D01*
X109438Y-19426D01*
X109471Y-19579D01*
X109493Y-19732D01*
X109504Y-19863D01*
X109515Y-19972D01*
X109526Y-20071D01*
Y-20136D01*
Y-20191D01*
Y-20202D01*
X109515Y-20399D01*
X109504Y-20595D01*
X109449Y-20945D01*
X109406Y-21109D01*
X109362Y-21262D01*
X109318Y-21404D01*
X109274Y-21524D01*
X109231Y-21645D01*
X109187Y-21743D01*
X109143Y-21830D01*
X109099Y-21907D01*
X109067Y-21962D01*
X109045Y-22005D01*
X109023Y-22027D01*
Y-22038D01*
X108892Y-22202D01*
X108761Y-22344D01*
X108619Y-22464D01*
X108476Y-22574D01*
X108334Y-22661D01*
X108181Y-22738D01*
X108039Y-22803D01*
X107908Y-22847D01*
X107777Y-22891D01*
X107657Y-22912D01*
X107547Y-22934D01*
X107460Y-22956D01*
X107384D01*
X107318Y-22967D01*
X107274D01*
X107088Y-22956D01*
X106913Y-22923D01*
X106749Y-22880D01*
X106597Y-22825D01*
X106323Y-22683D01*
X106192Y-22606D01*
X106083Y-22519D01*
X105984Y-22443D01*
X105886Y-22366D01*
X105810Y-22289D01*
X105755Y-22224D01*
X105700Y-22158D01*
X105667Y-22115D01*
X105646Y-22093D01*
X105635Y-22082D01*
Y-22880D01*
Y-23044D01*
X105646Y-23186D01*
X105657Y-23295D01*
X105667Y-23382D01*
X105689Y-23459D01*
X105700Y-23503D01*
X105711Y-23525D01*
Y-23536D01*
X105755Y-23623D01*
X105799Y-23699D01*
X105842Y-23765D01*
X105886Y-23820D01*
X105930Y-23863D01*
X105963Y-23885D01*
X105984Y-23896D01*
X105995Y-23907D01*
X106116Y-23962D01*
X106247Y-24005D01*
X106389Y-24038D01*
X106531Y-24060D01*
X106651Y-24071D01*
X106749Y-24082D01*
X106848D01*
X107001Y-24071D01*
X107132Y-24060D01*
X107241Y-24027D01*
X107329Y-23995D01*
X107405Y-23973D01*
X107449Y-23940D01*
X107482Y-23929D01*
X107493Y-23918D01*
X107547Y-23874D01*
X107591Y-23809D01*
X107646Y-23678D01*
X107657Y-23623D01*
X107668Y-23568D01*
X107679Y-23536D01*
Y-23525D01*
X109340Y-23328D01*
X109351Y-23393D01*
Y-23448D01*
Y-23492D01*
Y-23503D01*
X109340Y-23634D01*
X109329Y-23765D01*
X109263Y-24005D01*
X109165Y-24213D01*
X109056Y-24388D01*
X108957Y-24530D01*
X108859Y-24629D01*
X108793Y-24694D01*
X108782Y-24705D01*
X108772Y-24716D01*
X108651Y-24803D01*
X108520Y-24869D01*
X108367Y-24935D01*
X108214Y-24989D01*
X107886Y-25077D01*
X107558Y-25131D01*
X107405Y-25153D01*
X107263Y-25175D01*
X107132Y-25186D01*
X107023D01*
X106924Y-25197D01*
X106793D01*
X106531Y-25186D01*
X106290Y-25175D01*
X106083Y-25142D01*
X105897Y-25109D01*
X105755Y-25088D01*
X105657Y-25055D01*
X105591Y-25044D01*
X105569Y-25033D01*
X105394Y-24967D01*
X105241Y-24902D01*
X105110Y-24825D01*
X105001Y-24760D01*
X104924Y-24705D01*
X104859Y-24650D01*
X104815Y-24618D01*
X104804Y-24607D01*
X104695Y-24497D01*
X104607Y-24377D01*
X104531Y-24246D01*
X104465Y-24126D01*
X104411Y-24016D01*
X104378Y-23929D01*
X104356Y-23874D01*
X104345Y-23853D01*
X104312Y-23754D01*
X104290Y-23656D01*
X104247Y-23426D01*
X104225Y-23186D01*
X104203Y-22945D01*
X104192Y-22738D01*
X104181Y-22650D01*
Y-22563D01*
Y-22497D01*
Y-22453D01*
Y-22421D01*
Y-22410D01*
Y-17480D01*
X105536D01*
Y-18267D01*
X105667Y-18103D01*
X105799Y-17972D01*
X105941Y-17841D01*
X106083Y-17743D01*
X106225Y-17655D01*
X106367Y-17579D01*
X106498Y-17524D01*
X106629Y-17469D01*
X106749Y-17437D01*
X106859Y-17404D01*
X106968Y-17393D01*
X107045Y-17371D01*
X107121D01*
X107176Y-17360D01*
X107220D01*
X107394Y-17371D01*
D02*
G37*
G36*
X153869Y-17382D02*
X154044Y-17393D01*
X154197Y-17426D01*
X154350Y-17447D01*
X154481Y-17480D01*
X154601Y-17524D01*
X154710Y-17557D01*
X154798Y-17590D01*
X154885Y-17633D01*
X154951Y-17666D01*
X155016Y-17688D01*
X155060Y-17721D01*
X155093Y-17732D01*
X155104Y-17753D01*
X155115D01*
X155301Y-17918D01*
X155454Y-18103D01*
X155585Y-18300D01*
X155694Y-18486D01*
X155771Y-18661D01*
X155803Y-18737D01*
X155825Y-18803D01*
X155847Y-18857D01*
X155858Y-18901D01*
X155869Y-18923D01*
Y-18934D01*
X154568Y-19174D01*
X154514Y-19043D01*
X154459Y-18934D01*
X154404Y-18836D01*
X154339Y-18759D01*
X154295Y-18704D01*
X154251Y-18672D01*
X154229Y-18650D01*
X154218Y-18639D01*
X154131Y-18584D01*
X154033Y-18541D01*
X153923Y-18519D01*
X153825Y-18497D01*
X153738Y-18486D01*
X153672Y-18475D01*
X153606D01*
X153410Y-18486D01*
X153246Y-18508D01*
X153115Y-18530D01*
X153005Y-18562D01*
X152929Y-18606D01*
X152874Y-18628D01*
X152841Y-18650D01*
X152830Y-18661D01*
X152754Y-18737D01*
X152699Y-18825D01*
X152666Y-18923D01*
X152634Y-19021D01*
X152623Y-19120D01*
X152612Y-19196D01*
Y-19240D01*
Y-19262D01*
Y-19404D01*
X152688Y-19437D01*
X152787Y-19470D01*
X152994Y-19535D01*
X153235Y-19590D01*
X153464Y-19644D01*
X153683Y-19699D01*
X153781Y-19721D01*
X153869Y-19732D01*
X153934Y-19743D01*
X153989Y-19754D01*
X154022Y-19765D01*
X154033D01*
X154295Y-19819D01*
X154535Y-19874D01*
X154732Y-19929D01*
X154896Y-19983D01*
X155027Y-20038D01*
X155115Y-20071D01*
X155169Y-20093D01*
X155191Y-20103D01*
X155333Y-20180D01*
X155454Y-20267D01*
X155563Y-20366D01*
X155639Y-20453D01*
X155716Y-20530D01*
X155760Y-20595D01*
X155792Y-20639D01*
X155803Y-20661D01*
X155880Y-20803D01*
X155935Y-20945D01*
X155967Y-21076D01*
X155989Y-21207D01*
X156011Y-21317D01*
X156022Y-21404D01*
Y-21459D01*
Y-21481D01*
X156011Y-21612D01*
X156000Y-21732D01*
X155946Y-21962D01*
X155869Y-22158D01*
X155781Y-22322D01*
X155694Y-22453D01*
X155618Y-22552D01*
X155563Y-22617D01*
X155541Y-22628D01*
Y-22639D01*
X155344Y-22792D01*
X155126Y-22902D01*
X154907Y-22978D01*
X154689Y-23033D01*
X154503Y-23065D01*
X154415Y-23076D01*
X154350D01*
X154284Y-23087D01*
X154208D01*
X154033Y-23076D01*
X153858Y-23055D01*
X153705Y-23033D01*
X153574Y-23000D01*
X153464Y-22967D01*
X153377Y-22934D01*
X153322Y-22923D01*
X153300Y-22912D01*
X153147Y-22836D01*
X152994Y-22760D01*
X152863Y-22661D01*
X152743Y-22574D01*
X152645Y-22497D01*
X152568Y-22432D01*
X152524Y-22388D01*
X152503Y-22377D01*
X152492Y-22421D01*
X152470Y-22475D01*
X152459Y-22519D01*
X152448Y-22530D01*
Y-22541D01*
X152415Y-22639D01*
X152393Y-22727D01*
X152371Y-22803D01*
X152349Y-22858D01*
X152328Y-22902D01*
X152317Y-22945D01*
X152306Y-22956D01*
Y-22967D01*
X150874D01*
X150940Y-22825D01*
X150994Y-22694D01*
X151038Y-22574D01*
X151082Y-22464D01*
X151103Y-22377D01*
X151125Y-22300D01*
X151136Y-22257D01*
Y-22246D01*
X151158Y-22104D01*
X151169Y-21929D01*
X151191Y-21754D01*
Y-21579D01*
X151202Y-21426D01*
Y-21295D01*
Y-21240D01*
Y-21207D01*
Y-21186D01*
Y-21175D01*
X151180Y-19480D01*
Y-19306D01*
X151191Y-19153D01*
X151202Y-19011D01*
X151213Y-18879D01*
X151224Y-18759D01*
X151246Y-18650D01*
X151257Y-18551D01*
X151278Y-18475D01*
X151300Y-18398D01*
X151311Y-18344D01*
X151344Y-18245D01*
X151366Y-18202D01*
X151377Y-18180D01*
X151464Y-18060D01*
X151563Y-17939D01*
X151672Y-17841D01*
X151792Y-17753D01*
X151891Y-17688D01*
X151978Y-17644D01*
X152032Y-17611D01*
X152043Y-17601D01*
X152054D01*
X152153Y-17557D01*
X152251Y-17524D01*
X152481Y-17458D01*
X152721Y-17415D01*
X152951Y-17393D01*
X153169Y-17371D01*
X153257D01*
X153333Y-17360D01*
X153694D01*
X153869Y-17382D01*
D02*
G37*
G36*
X232160Y-22967D02*
X230750D01*
X229821Y-19448D01*
X228881Y-22967D01*
X227482D01*
X225723Y-17480D01*
X227154D01*
X228204Y-21076D01*
X229111Y-17480D01*
X230510D01*
X231461Y-21076D01*
X232488Y-17480D01*
X233887D01*
X232160Y-22967D01*
D02*
G37*
G36*
X191829Y-22978D02*
X191883Y-23142D01*
X191938Y-23284D01*
X192004Y-23415D01*
X192058Y-23525D01*
X192113Y-23612D01*
X192157Y-23678D01*
X192189Y-23721D01*
X192200Y-23732D01*
X192299Y-23831D01*
X192419Y-23907D01*
X192539Y-23962D01*
X192659Y-23995D01*
X192769Y-24016D01*
X192856Y-24038D01*
X192944D01*
X193151Y-24027D01*
X193261Y-24016D01*
X193348Y-23995D01*
X193435Y-23984D01*
X193501Y-23973D01*
X193545Y-23962D01*
X193556D01*
X193424Y-25098D01*
X193129Y-25153D01*
X192998Y-25175D01*
X192867Y-25186D01*
X192769D01*
X192681Y-25197D01*
X192463D01*
X192321Y-25186D01*
X192200Y-25164D01*
X192091Y-25142D01*
X191993Y-25131D01*
X191927Y-25109D01*
X191883Y-25098D01*
X191872D01*
X191752Y-25066D01*
X191643Y-25022D01*
X191555Y-24978D01*
X191479Y-24946D01*
X191413Y-24913D01*
X191370Y-24880D01*
X191337Y-24869D01*
X191326Y-24858D01*
X191162Y-24727D01*
X191042Y-24596D01*
X190998Y-24530D01*
X190965Y-24486D01*
X190943Y-24454D01*
X190932Y-24443D01*
X190867Y-24333D01*
X190801Y-24224D01*
X190736Y-24104D01*
X190681Y-23984D01*
X190637Y-23874D01*
X190594Y-23787D01*
X190572Y-23732D01*
X190561Y-23710D01*
X190211Y-22770D01*
X188276Y-17480D01*
X189774D01*
X191064Y-21382D01*
X192364Y-17480D01*
X193905D01*
X191829Y-22978D01*
D02*
G37*
G36*
X144250Y-22978D02*
X144305Y-23142D01*
X144360Y-23284D01*
X144425Y-23415D01*
X144480Y-23525D01*
X144535Y-23612D01*
X144578Y-23678D01*
X144611Y-23721D01*
X144622Y-23732D01*
X144720Y-23831D01*
X144841Y-23907D01*
X144961Y-23962D01*
X145081Y-23995D01*
X145190Y-24016D01*
X145278Y-24038D01*
X145365D01*
X145573Y-24027D01*
X145682Y-24016D01*
X145770Y-23995D01*
X145857Y-23984D01*
X145923Y-23973D01*
X145966Y-23962D01*
X145977D01*
X145846Y-25098D01*
X145551Y-25153D01*
X145420Y-25175D01*
X145289Y-25186D01*
X145190D01*
X145103Y-25197D01*
X144884D01*
X144742Y-25186D01*
X144622Y-25164D01*
X144513Y-25142D01*
X144414Y-25131D01*
X144349Y-25109D01*
X144305Y-25098D01*
X144294D01*
X144174Y-25066D01*
X144065Y-25022D01*
X143977Y-24978D01*
X143901Y-24946D01*
X143835Y-24913D01*
X143791Y-24880D01*
X143758Y-24869D01*
X143748Y-24858D01*
X143584Y-24727D01*
X143463Y-24596D01*
X143420Y-24530D01*
X143387Y-24486D01*
X143365Y-24454D01*
X143354Y-24443D01*
X143289Y-24333D01*
X143223Y-24224D01*
X143157Y-24104D01*
X143103Y-23984D01*
X143059Y-23874D01*
X143015Y-23787D01*
X142993Y-23732D01*
X142982Y-23710D01*
X142633Y-22770D01*
X140698Y-17480D01*
X142195D01*
X143485Y-21382D01*
X144786Y-17480D01*
X146327D01*
X144250Y-22978D01*
D02*
G37*
G36*
X163192Y-16387D02*
Y-17480D01*
X163859D01*
Y-18639D01*
X163192D01*
Y-21033D01*
Y-21175D01*
Y-21295D01*
Y-21415D01*
X163181Y-21513D01*
Y-21688D01*
X163170Y-21830D01*
X163159Y-21940D01*
Y-22005D01*
X163148Y-22049D01*
Y-22060D01*
X163127Y-22180D01*
X163094Y-22289D01*
X163061Y-22388D01*
X163028Y-22464D01*
X162995Y-22530D01*
X162973Y-22574D01*
X162962Y-22606D01*
X162952Y-22617D01*
X162886Y-22694D01*
X162810Y-22760D01*
X162656Y-22869D01*
X162591Y-22902D01*
X162536Y-22934D01*
X162493Y-22945D01*
X162482Y-22956D01*
X162361Y-23000D01*
X162241Y-23033D01*
X162121Y-23055D01*
X162012Y-23065D01*
X161913Y-23076D01*
X161837Y-23087D01*
X161771D01*
X161542Y-23076D01*
X161323Y-23055D01*
X161126Y-23022D01*
X160962Y-22978D01*
X160820Y-22945D01*
X160711Y-22912D01*
X160645Y-22891D01*
X160634Y-22880D01*
X160624D01*
X160755Y-21754D01*
X160886Y-21798D01*
X161006Y-21830D01*
X161104Y-21852D01*
X161192Y-21863D01*
X161258Y-21874D01*
X161301Y-21885D01*
X161345D01*
X161443Y-21874D01*
X161520Y-21852D01*
X161564Y-21830D01*
X161585Y-21820D01*
X161651Y-21754D01*
X161684Y-21699D01*
X161706Y-21655D01*
X161716Y-21634D01*
Y-21612D01*
X161727Y-21568D01*
Y-21470D01*
Y-21339D01*
X161738Y-21207D01*
Y-21076D01*
Y-20967D01*
Y-20923D01*
Y-20890D01*
Y-20869D01*
Y-20858D01*
Y-18639D01*
X160744Y-18639D01*
Y-17480D01*
X161738Y-17480D01*
Y-15535D01*
X163192Y-16387D01*
D02*
G37*
G36*
X127353Y-16387D02*
Y-17480D01*
X128019D01*
Y-18639D01*
X127353D01*
Y-21033D01*
Y-21175D01*
Y-21295D01*
Y-21415D01*
X127342Y-21513D01*
Y-21688D01*
X127331Y-21830D01*
X127320Y-21940D01*
Y-22005D01*
X127309Y-22049D01*
Y-22060D01*
X127287Y-22180D01*
X127254Y-22289D01*
X127221Y-22388D01*
X127189Y-22464D01*
X127156Y-22530D01*
X127134Y-22574D01*
X127123Y-22606D01*
X127112Y-22617D01*
X127047Y-22694D01*
X126970Y-22760D01*
X126817Y-22869D01*
X126751Y-22902D01*
X126697Y-22934D01*
X126653Y-22945D01*
X126642Y-22956D01*
X126522Y-23000D01*
X126402Y-23033D01*
X126281Y-23055D01*
X126172Y-23065D01*
X126074Y-23076D01*
X125997Y-23087D01*
X125932D01*
X125702Y-23076D01*
X125484Y-23055D01*
X125287Y-23022D01*
X125123Y-22978D01*
X124981Y-22945D01*
X124872Y-22912D01*
X124806Y-22891D01*
X124795Y-22880D01*
X124784D01*
X124915Y-21754D01*
X125046Y-21798D01*
X125167Y-21830D01*
X125265Y-21852D01*
X125352Y-21863D01*
X125418Y-21874D01*
X125462Y-21885D01*
X125505D01*
X125604Y-21874D01*
X125680Y-21852D01*
X125724Y-21830D01*
X125746Y-21820D01*
X125812Y-21754D01*
X125844Y-21699D01*
X125866Y-21655D01*
X125877Y-21634D01*
Y-21612D01*
X125888Y-21568D01*
Y-21470D01*
Y-21339D01*
X125899Y-21207D01*
Y-21076D01*
Y-20967D01*
Y-20923D01*
Y-20890D01*
Y-20869D01*
Y-20858D01*
Y-18639D01*
X124904D01*
Y-17480D01*
X125899D01*
Y-15535D01*
X127353Y-16387D01*
D02*
G37*
G36*
X88300Y-17371D02*
X88507Y-17393D01*
X88715Y-17426D01*
X88890Y-17480D01*
X89065Y-17535D01*
X89229Y-17601D01*
X89371Y-17666D01*
X89502Y-17743D01*
X89622Y-17808D01*
X89721Y-17885D01*
X89808Y-17950D01*
X89885Y-18005D01*
X89939Y-18060D01*
X89983Y-18092D01*
X90005Y-18114D01*
X90016Y-18125D01*
X90136Y-18278D01*
X90245Y-18431D01*
X90344Y-18595D01*
X90431Y-18770D01*
X90497Y-18945D01*
X90551Y-19120D01*
X90639Y-19459D01*
X90671Y-19623D01*
X90693Y-19765D01*
X90704Y-19896D01*
X90715Y-20016D01*
X90726Y-20103D01*
Y-20180D01*
Y-20224D01*
Y-20235D01*
X90715Y-20475D01*
X90693Y-20716D01*
X90661Y-20923D01*
X90617Y-21131D01*
X90562Y-21317D01*
X90497Y-21492D01*
X90442Y-21645D01*
X90365Y-21787D01*
X90300Y-21918D01*
X90245Y-22027D01*
X90180Y-22115D01*
X90125Y-22191D01*
X90081Y-22257D01*
X90048Y-22300D01*
X90027Y-22322D01*
X90016Y-22333D01*
X89874Y-22464D01*
X89732Y-22585D01*
X89578Y-22683D01*
X89415Y-22770D01*
X89262Y-22847D01*
X89098Y-22902D01*
X88945Y-22956D01*
X88792Y-22989D01*
X88649Y-23022D01*
X88518Y-23044D01*
X88398Y-23065D01*
X88300Y-23076D01*
X88223Y-23087D01*
X88103D01*
X87906Y-23076D01*
X87731Y-23065D01*
X87556Y-23044D01*
X87392Y-23011D01*
X87239Y-22978D01*
X87108Y-22934D01*
X86977Y-22891D01*
X86868Y-22836D01*
X86759Y-22792D01*
X86671Y-22749D01*
X86595Y-22705D01*
X86529Y-22672D01*
X86485Y-22639D01*
X86453Y-22617D01*
X86431Y-22595D01*
X86420D01*
X86310Y-22497D01*
X86201Y-22388D01*
X86015Y-22147D01*
X85862Y-21907D01*
X85753Y-21666D01*
X85666Y-21448D01*
X85633Y-21350D01*
X85600Y-21273D01*
X85578Y-21207D01*
X85567Y-21153D01*
X85556Y-21120D01*
Y-21109D01*
X86977Y-20869D01*
X87021Y-21065D01*
X87086Y-21240D01*
X87141Y-21382D01*
X87207Y-21492D01*
X87272Y-21579D01*
X87316Y-21634D01*
X87349Y-21666D01*
X87360Y-21677D01*
X87469Y-21754D01*
X87578Y-21809D01*
X87688Y-21852D01*
X87797Y-21874D01*
X87895Y-21896D01*
X87972Y-21907D01*
X88037D01*
X88234Y-21885D01*
X88409Y-21841D01*
X88551Y-21787D01*
X88682Y-21710D01*
X88781Y-21634D01*
X88846Y-21579D01*
X88901Y-21535D01*
X88912Y-21513D01*
X88966Y-21426D01*
X89021Y-21339D01*
X89098Y-21131D01*
X89163Y-20901D01*
X89196Y-20672D01*
X89218Y-20453D01*
X89229Y-20366D01*
Y-20289D01*
X89240Y-20224D01*
Y-20169D01*
Y-20136D01*
Y-20125D01*
Y-19972D01*
X89229Y-19819D01*
X89207Y-19688D01*
X89185Y-19557D01*
X89163Y-19448D01*
X89141Y-19349D01*
X89076Y-19174D01*
X89021Y-19043D01*
X88966Y-18956D01*
X88934Y-18901D01*
X88923Y-18879D01*
X88792Y-18748D01*
X88649Y-18661D01*
X88507Y-18595D01*
X88376Y-18541D01*
X88245Y-18519D01*
X88147Y-18508D01*
X88081Y-18497D01*
X88059D01*
X87917Y-18508D01*
X87786Y-18530D01*
X87677Y-18562D01*
X87578Y-18606D01*
X87502Y-18650D01*
X87447Y-18683D01*
X87414Y-18704D01*
X87403Y-18715D01*
X87316Y-18803D01*
X87239Y-18901D01*
X87185Y-19011D01*
X87130Y-19109D01*
X87097Y-19207D01*
X87076Y-19284D01*
X87065Y-19328D01*
Y-19349D01*
X85633Y-19087D01*
X85742Y-18781D01*
X85873Y-18519D01*
X86015Y-18300D01*
X86157Y-18114D01*
X86289Y-17972D01*
X86387Y-17874D01*
X86431Y-17841D01*
X86463Y-17819D01*
X86474Y-17797D01*
X86485D01*
X86726Y-17655D01*
X86988Y-17546D01*
X87250Y-17469D01*
X87502Y-17415D01*
X87622Y-17393D01*
X87731Y-17382D01*
X87830Y-17371D01*
X87917D01*
X87983Y-17360D01*
X88081D01*
X88300Y-17371D01*
D02*
G37*
G36*
X223067Y-17371D02*
X223252Y-17393D01*
X223438Y-17436D01*
X223602Y-17480D01*
X223766Y-17535D01*
X223908Y-17601D01*
X224050Y-17677D01*
X224170Y-17743D01*
X224280Y-17819D01*
X224378Y-17896D01*
X224466Y-17961D01*
X224531Y-18016D01*
X224586Y-18060D01*
X224630Y-18103D01*
X224652Y-18125D01*
X224662Y-18136D01*
X224783Y-18289D01*
X224892Y-18453D01*
X224990Y-18617D01*
X225078Y-18792D01*
X225143Y-18978D01*
X225198Y-19153D01*
X225285Y-19491D01*
X225318Y-19655D01*
X225340Y-19797D01*
X225351Y-19929D01*
X225362Y-20038D01*
X225373Y-20136D01*
Y-20213D01*
Y-20256D01*
Y-20267D01*
X225362Y-20475D01*
X225351Y-20683D01*
X225318Y-20869D01*
X225285Y-21044D01*
X225253Y-21218D01*
X225198Y-21371D01*
X225154Y-21513D01*
X225100Y-21645D01*
X225056Y-21765D01*
X225001Y-21863D01*
X224957Y-21951D01*
X224925Y-22027D01*
X224881Y-22082D01*
X224859Y-22126D01*
X224848Y-22147D01*
X224837Y-22158D01*
X224695Y-22322D01*
X224553Y-22464D01*
X224389Y-22585D01*
X224214Y-22694D01*
X224039Y-22781D01*
X223865Y-22858D01*
X223690Y-22923D01*
X223515Y-22967D01*
X223362Y-23011D01*
X223209Y-23033D01*
X223067Y-23055D01*
X222946Y-23076D01*
X222848D01*
X222782Y-23087D01*
X222717D01*
X222400Y-23065D01*
X222105Y-23022D01*
X221853Y-22956D01*
X221635Y-22880D01*
X221536Y-22836D01*
X221460Y-22803D01*
X221383Y-22770D01*
X221329Y-22738D01*
X221285Y-22705D01*
X221241Y-22694D01*
X221230Y-22672D01*
X221219D01*
X221012Y-22497D01*
X220826Y-22311D01*
X220673Y-22104D01*
X220553Y-21907D01*
X220454Y-21732D01*
X220422Y-21655D01*
X220389Y-21590D01*
X220367Y-21535D01*
X220345Y-21492D01*
X220334Y-21470D01*
Y-21459D01*
X221777Y-21218D01*
X221831Y-21360D01*
X221886Y-21492D01*
X221941Y-21590D01*
X222006Y-21677D01*
X222050Y-21743D01*
X222094Y-21787D01*
X222127Y-21809D01*
X222138Y-21820D01*
X222225Y-21885D01*
X222323Y-21929D01*
X222422Y-21962D01*
X222509Y-21983D01*
X222586Y-21994D01*
X222651Y-22005D01*
X222706D01*
X222881Y-21994D01*
X223045Y-21951D01*
X223198Y-21896D01*
X223318Y-21830D01*
X223416Y-21765D01*
X223482Y-21710D01*
X223537Y-21666D01*
X223548Y-21655D01*
X223657Y-21513D01*
X223733Y-21350D01*
X223799Y-21175D01*
X223843Y-21022D01*
X223865Y-20869D01*
X223875Y-20759D01*
X223886Y-20716D01*
Y-20683D01*
Y-20661D01*
Y-20650D01*
X220258D01*
Y-20344D01*
X220280Y-20071D01*
X220312Y-19808D01*
X220356Y-19568D01*
X220411Y-19338D01*
X220465Y-19142D01*
X220531Y-18956D01*
X220596Y-18792D01*
X220662Y-18650D01*
X220728Y-18519D01*
X220782Y-18420D01*
X220837Y-18333D01*
X220881Y-18267D01*
X220913Y-18213D01*
X220935Y-18191D01*
X220946Y-18180D01*
X221077Y-18038D01*
X221230Y-17907D01*
X221383Y-17797D01*
X221536Y-17710D01*
X221700Y-17622D01*
X221864Y-17557D01*
X222017Y-17502D01*
X222170Y-17458D01*
X222312Y-17426D01*
X222444Y-17404D01*
X222564Y-17382D01*
X222662Y-17371D01*
X222750Y-17360D01*
X222870D01*
X223067Y-17371D01*
D02*
G37*
G36*
X213077Y-17371D02*
X213262Y-17393D01*
X213448Y-17437D01*
X213612Y-17480D01*
X213776Y-17535D01*
X213918Y-17601D01*
X214060Y-17677D01*
X214180Y-17743D01*
X214290Y-17819D01*
X214388Y-17896D01*
X214476Y-17961D01*
X214541Y-18016D01*
X214596Y-18060D01*
X214640Y-18103D01*
X214661Y-18125D01*
X214672Y-18136D01*
X214793Y-18289D01*
X214902Y-18453D01*
X215000Y-18617D01*
X215088Y-18792D01*
X215153Y-18978D01*
X215208Y-19153D01*
X215295Y-19491D01*
X215328Y-19655D01*
X215350Y-19797D01*
X215361Y-19929D01*
X215372Y-20038D01*
X215383Y-20136D01*
Y-20213D01*
Y-20256D01*
Y-20267D01*
X215372Y-20475D01*
X215361Y-20683D01*
X215328Y-20869D01*
X215295Y-21044D01*
X215263Y-21218D01*
X215208Y-21371D01*
X215164Y-21513D01*
X215110Y-21645D01*
X215066Y-21765D01*
X215011Y-21863D01*
X214967Y-21951D01*
X214935Y-22027D01*
X214891Y-22082D01*
X214869Y-22126D01*
X214858Y-22147D01*
X214847Y-22158D01*
X214705Y-22322D01*
X214563Y-22464D01*
X214399Y-22585D01*
X214224Y-22694D01*
X214049Y-22781D01*
X213875Y-22858D01*
X213700Y-22923D01*
X213525Y-22967D01*
X213372Y-23011D01*
X213219Y-23033D01*
X213077Y-23055D01*
X212956Y-23076D01*
X212858D01*
X212792Y-23087D01*
X212727D01*
X212410Y-23065D01*
X212115Y-23022D01*
X211863Y-22956D01*
X211645Y-22880D01*
X211546Y-22836D01*
X211470Y-22803D01*
X211393Y-22770D01*
X211339Y-22738D01*
X211295Y-22705D01*
X211251Y-22694D01*
X211240Y-22672D01*
X211229D01*
X211022Y-22497D01*
X210836Y-22311D01*
X210683Y-22104D01*
X210563Y-21907D01*
X210464Y-21732D01*
X210432Y-21655D01*
X210399Y-21590D01*
X210377Y-21535D01*
X210355Y-21492D01*
X210344Y-21470D01*
Y-21459D01*
X211787Y-21218D01*
X211842Y-21360D01*
X211896Y-21492D01*
X211951Y-21590D01*
X212016Y-21677D01*
X212060Y-21743D01*
X212104Y-21787D01*
X212137Y-21809D01*
X212147Y-21820D01*
X212235Y-21885D01*
X212333Y-21929D01*
X212432Y-21962D01*
X212519Y-21983D01*
X212596Y-21994D01*
X212661Y-22005D01*
X212716D01*
X212891Y-21994D01*
X213055Y-21951D01*
X213208Y-21896D01*
X213328Y-21830D01*
X213426Y-21765D01*
X213492Y-21710D01*
X213547Y-21666D01*
X213558Y-21655D01*
X213667Y-21513D01*
X213743Y-21350D01*
X213809Y-21175D01*
X213853Y-21022D01*
X213875Y-20869D01*
X213885Y-20759D01*
X213896Y-20716D01*
Y-20683D01*
Y-20661D01*
Y-20650D01*
X210268D01*
Y-20344D01*
X210289Y-20071D01*
X210322Y-19808D01*
X210366Y-19568D01*
X210421Y-19338D01*
X210475Y-19142D01*
X210541Y-18956D01*
X210606Y-18792D01*
X210672Y-18650D01*
X210738Y-18519D01*
X210792Y-18420D01*
X210847Y-18333D01*
X210891Y-18267D01*
X210923Y-18213D01*
X210945Y-18191D01*
X210956Y-18180D01*
X211087Y-18038D01*
X211240Y-17907D01*
X211393Y-17797D01*
X211546Y-17710D01*
X211710Y-17622D01*
X211874Y-17557D01*
X212027Y-17502D01*
X212180Y-17458D01*
X212322Y-17426D01*
X212454Y-17404D01*
X212574Y-17382D01*
X212672Y-17371D01*
X212760Y-17360D01*
X212880D01*
X213077Y-17371D01*
D02*
G37*
G36*
X122019Y-17371D02*
X122205Y-17393D01*
X122390Y-17437D01*
X122554Y-17480D01*
X122718Y-17535D01*
X122860Y-17601D01*
X123003Y-17677D01*
X123123Y-17743D01*
X123232Y-17819D01*
X123330Y-17896D01*
X123418Y-17961D01*
X123483Y-18016D01*
X123538Y-18060D01*
X123582Y-18103D01*
X123604Y-18125D01*
X123615Y-18136D01*
X123735Y-18289D01*
X123844Y-18453D01*
X123942Y-18617D01*
X124030Y-18792D01*
X124095Y-18978D01*
X124150Y-19153D01*
X124238Y-19491D01*
X124270Y-19655D01*
X124292Y-19797D01*
X124303Y-19929D01*
X124314Y-20038D01*
X124325Y-20136D01*
Y-20213D01*
Y-20256D01*
Y-20267D01*
X124314Y-20475D01*
X124303Y-20683D01*
X124270Y-20869D01*
X124238Y-21044D01*
X124205Y-21218D01*
X124150Y-21371D01*
X124106Y-21513D01*
X124052Y-21645D01*
X124008Y-21765D01*
X123953Y-21863D01*
X123910Y-21951D01*
X123877Y-22027D01*
X123833Y-22082D01*
X123811Y-22126D01*
X123800Y-22147D01*
X123789Y-22158D01*
X123647Y-22322D01*
X123505Y-22464D01*
X123341Y-22585D01*
X123166Y-22694D01*
X122992Y-22781D01*
X122817Y-22858D01*
X122642Y-22923D01*
X122467Y-22967D01*
X122314Y-23011D01*
X122161Y-23033D01*
X122019Y-23055D01*
X121898Y-23076D01*
X121800D01*
X121735Y-23087D01*
X121669D01*
X121352Y-23065D01*
X121057Y-23022D01*
X120806Y-22956D01*
X120587Y-22880D01*
X120489Y-22836D01*
X120412Y-22803D01*
X120335Y-22770D01*
X120281Y-22738D01*
X120237Y-22705D01*
X120194Y-22694D01*
X120183Y-22672D01*
X120172D01*
X119964Y-22497D01*
X119778Y-22311D01*
X119625Y-22104D01*
X119505Y-21907D01*
X119406Y-21732D01*
X119374Y-21655D01*
X119341Y-21590D01*
X119319Y-21535D01*
X119297Y-21492D01*
X119286Y-21470D01*
Y-21459D01*
X120729Y-21218D01*
X120784Y-21360D01*
X120838Y-21492D01*
X120893Y-21590D01*
X120958Y-21677D01*
X121002Y-21743D01*
X121046Y-21787D01*
X121079Y-21809D01*
X121090Y-21820D01*
X121177Y-21885D01*
X121275Y-21929D01*
X121374Y-21962D01*
X121461Y-21983D01*
X121538Y-21994D01*
X121603Y-22005D01*
X121658D01*
X121833Y-21994D01*
X121997Y-21951D01*
X122150Y-21896D01*
X122270Y-21830D01*
X122369Y-21765D01*
X122434Y-21710D01*
X122489Y-21666D01*
X122500Y-21655D01*
X122609Y-21513D01*
X122686Y-21350D01*
X122751Y-21175D01*
X122795Y-21022D01*
X122817Y-20869D01*
X122828Y-20759D01*
X122838Y-20716D01*
Y-20683D01*
Y-20661D01*
Y-20650D01*
X119210D01*
Y-20344D01*
X119232Y-20071D01*
X119264Y-19808D01*
X119308Y-19568D01*
X119363Y-19338D01*
X119417Y-19142D01*
X119483Y-18956D01*
X119549Y-18792D01*
X119614Y-18650D01*
X119680Y-18519D01*
X119734Y-18420D01*
X119789Y-18333D01*
X119833Y-18267D01*
X119866Y-18213D01*
X119887Y-18191D01*
X119898Y-18180D01*
X120029Y-18038D01*
X120183Y-17907D01*
X120335Y-17797D01*
X120489Y-17710D01*
X120652Y-17622D01*
X120817Y-17557D01*
X120969Y-17502D01*
X121123Y-17458D01*
X121265Y-17426D01*
X121396Y-17404D01*
X121516Y-17382D01*
X121614Y-17371D01*
X121702Y-17360D01*
X121822D01*
X122019Y-17371D01*
D02*
G37*
G36*
X100858Y-17371D02*
X101044Y-17393D01*
X101230Y-17437D01*
X101394Y-17480D01*
X101558Y-17535D01*
X101700Y-17601D01*
X101842Y-17677D01*
X101962Y-17743D01*
X102071Y-17819D01*
X102170Y-17896D01*
X102257Y-17961D01*
X102323Y-18016D01*
X102377Y-18060D01*
X102421Y-18103D01*
X102443Y-18125D01*
X102454Y-18136D01*
X102574Y-18289D01*
X102684Y-18453D01*
X102782Y-18617D01*
X102869Y-18792D01*
X102935Y-18978D01*
X102990Y-19153D01*
X103077Y-19491D01*
X103110Y-19655D01*
X103132Y-19797D01*
X103143Y-19929D01*
X103154Y-20038D01*
X103165Y-20136D01*
Y-20213D01*
Y-20256D01*
Y-20267D01*
X103154Y-20475D01*
X103143Y-20683D01*
X103110Y-20869D01*
X103077Y-21044D01*
X103044Y-21218D01*
X102990Y-21371D01*
X102946Y-21513D01*
X102891Y-21645D01*
X102848Y-21765D01*
X102793Y-21863D01*
X102749Y-21951D01*
X102716Y-22027D01*
X102673Y-22082D01*
X102651Y-22126D01*
X102640Y-22147D01*
X102629Y-22158D01*
X102487Y-22322D01*
X102345Y-22464D01*
X102181Y-22585D01*
X102006Y-22694D01*
X101831Y-22781D01*
X101656Y-22858D01*
X101481Y-22923D01*
X101306Y-22967D01*
X101153Y-23011D01*
X101000Y-23033D01*
X100858Y-23055D01*
X100738Y-23076D01*
X100640D01*
X100574Y-23087D01*
X100508D01*
X100191Y-23065D01*
X99896Y-23022D01*
X99645Y-22956D01*
X99426Y-22880D01*
X99328Y-22836D01*
X99252Y-22803D01*
X99175Y-22770D01*
X99120Y-22738D01*
X99077Y-22705D01*
X99033Y-22694D01*
X99022Y-22672D01*
X99011D01*
X98803Y-22497D01*
X98618Y-22311D01*
X98465Y-22104D01*
X98344Y-21907D01*
X98246Y-21732D01*
X98213Y-21656D01*
X98180Y-21590D01*
X98159Y-21535D01*
X98137Y-21492D01*
X98126Y-21470D01*
Y-21459D01*
X99568Y-21218D01*
X99623Y-21361D01*
X99678Y-21492D01*
X99733Y-21590D01*
X99798Y-21677D01*
X99842Y-21743D01*
X99885Y-21787D01*
X99918Y-21809D01*
X99929Y-21820D01*
X100017Y-21885D01*
X100115Y-21929D01*
X100213Y-21962D01*
X100301Y-21983D01*
X100377Y-21994D01*
X100443Y-22005D01*
X100498D01*
X100672Y-21994D01*
X100836Y-21951D01*
X100989Y-21896D01*
X101110Y-21830D01*
X101208Y-21765D01*
X101274Y-21710D01*
X101328Y-21666D01*
X101339Y-21656D01*
X101449Y-21513D01*
X101525Y-21350D01*
X101591Y-21175D01*
X101634Y-21022D01*
X101656Y-20869D01*
X101667Y-20759D01*
X101678Y-20716D01*
Y-20683D01*
Y-20661D01*
Y-20650D01*
X98049D01*
Y-20344D01*
X98071Y-20071D01*
X98104Y-19808D01*
X98148Y-19568D01*
X98202Y-19338D01*
X98257Y-19142D01*
X98322Y-18956D01*
X98388Y-18792D01*
X98454Y-18650D01*
X98519Y-18519D01*
X98574Y-18420D01*
X98629Y-18333D01*
X98672Y-18267D01*
X98705Y-18213D01*
X98727Y-18191D01*
X98738Y-18180D01*
X98869Y-18038D01*
X99022Y-17907D01*
X99175Y-17797D01*
X99328Y-17710D01*
X99492Y-17622D01*
X99656Y-17557D01*
X99809Y-17502D01*
X99962Y-17458D01*
X100104Y-17426D01*
X100235Y-17404D01*
X100356Y-17382D01*
X100454Y-17371D01*
X100541Y-17360D01*
X100662D01*
X100858Y-17371D01*
D02*
G37*
G36*
X82638D02*
X82824Y-17393D01*
X83010Y-17437D01*
X83174Y-17480D01*
X83337Y-17535D01*
X83480Y-17601D01*
X83622Y-17677D01*
X83742Y-17743D01*
X83851Y-17819D01*
X83950Y-17896D01*
X84037Y-17961D01*
X84103Y-18016D01*
X84157Y-18060D01*
X84201Y-18103D01*
X84223Y-18125D01*
X84234Y-18136D01*
X84354Y-18289D01*
X84463Y-18453D01*
X84562Y-18617D01*
X84649Y-18792D01*
X84715Y-18978D01*
X84769Y-19153D01*
X84857Y-19491D01*
X84890Y-19655D01*
X84911Y-19797D01*
X84922Y-19929D01*
X84933Y-20038D01*
X84944Y-20136D01*
Y-20213D01*
Y-20256D01*
Y-20267D01*
X84933Y-20475D01*
X84922Y-20683D01*
X84890Y-20869D01*
X84857Y-21044D01*
X84824Y-21218D01*
X84769Y-21371D01*
X84726Y-21513D01*
X84671Y-21645D01*
X84627Y-21765D01*
X84573Y-21863D01*
X84529Y-21951D01*
X84496Y-22027D01*
X84452Y-22082D01*
X84430Y-22126D01*
X84420Y-22147D01*
X84409Y-22158D01*
X84267Y-22322D01*
X84124Y-22464D01*
X83960Y-22585D01*
X83786Y-22694D01*
X83611Y-22781D01*
X83436Y-22858D01*
X83261Y-22923D01*
X83086Y-22967D01*
X82933Y-23011D01*
X82780Y-23033D01*
X82638Y-23055D01*
X82518Y-23076D01*
X82419D01*
X82354Y-23087D01*
X82288D01*
X81971Y-23065D01*
X81676Y-23022D01*
X81425Y-22956D01*
X81206Y-22880D01*
X81108Y-22836D01*
X81031Y-22803D01*
X80955Y-22770D01*
X80900Y-22738D01*
X80856Y-22705D01*
X80813Y-22694D01*
X80802Y-22672D01*
X80791D01*
X80583Y-22497D01*
X80397Y-22311D01*
X80244Y-22104D01*
X80124Y-21907D01*
X80026Y-21732D01*
X79993Y-21656D01*
X79960Y-21590D01*
X79938Y-21535D01*
X79916Y-21492D01*
X79905Y-21470D01*
Y-21459D01*
X81348Y-21218D01*
X81403Y-21361D01*
X81458Y-21492D01*
X81512Y-21590D01*
X81578Y-21677D01*
X81621Y-21743D01*
X81665Y-21787D01*
X81698Y-21809D01*
X81709Y-21820D01*
X81796Y-21885D01*
X81895Y-21929D01*
X81993Y-21962D01*
X82081Y-21983D01*
X82157Y-21994D01*
X82223Y-22005D01*
X82277D01*
X82452Y-21994D01*
X82616Y-21951D01*
X82769Y-21896D01*
X82889Y-21830D01*
X82988Y-21765D01*
X83053Y-21710D01*
X83108Y-21666D01*
X83119Y-21656D01*
X83228Y-21513D01*
X83305Y-21350D01*
X83370Y-21175D01*
X83414Y-21022D01*
X83436Y-20869D01*
X83447Y-20759D01*
X83458Y-20716D01*
Y-20683D01*
Y-20661D01*
Y-20650D01*
X79829D01*
Y-20344D01*
X79851Y-20071D01*
X79884Y-19808D01*
X79927Y-19568D01*
X79982Y-19338D01*
X80037Y-19142D01*
X80102Y-18956D01*
X80168Y-18792D01*
X80233Y-18650D01*
X80299Y-18519D01*
X80354Y-18420D01*
X80408Y-18333D01*
X80452Y-18267D01*
X80485Y-18213D01*
X80507Y-18191D01*
X80518Y-18180D01*
X80649Y-18038D01*
X80802Y-17907D01*
X80955Y-17797D01*
X81108Y-17710D01*
X81272Y-17622D01*
X81436Y-17557D01*
X81589Y-17502D01*
X81742Y-17458D01*
X81884Y-17426D01*
X82015Y-17404D01*
X82135Y-17382D01*
X82234Y-17371D01*
X82321Y-17360D01*
X82441D01*
X82638Y-17371D01*
D02*
G37*
G36*
X246665Y-22967D02*
X245134D01*
Y-20114D01*
X243779D01*
X243615Y-20103D01*
X243462D01*
X243320Y-20092D01*
X243189Y-20082D01*
X243069Y-20071D01*
X242970Y-20060D01*
X242872D01*
X242795Y-20049D01*
X242719Y-20038D01*
X242664Y-20027D01*
X242620D01*
X242588Y-20016D01*
X242566D01*
X242413Y-19972D01*
X242271Y-19918D01*
X242140Y-19863D01*
X242019Y-19797D01*
X241921Y-19743D01*
X241844Y-19699D01*
X241801Y-19666D01*
X241779Y-19655D01*
X241637Y-19546D01*
X241516Y-19426D01*
X241396Y-19295D01*
X241309Y-19185D01*
X241232Y-19076D01*
X241178Y-18989D01*
X241145Y-18934D01*
X241134Y-18912D01*
X241047Y-18726D01*
X240981Y-18530D01*
X240937Y-18322D01*
X240904Y-18136D01*
X240882Y-17983D01*
Y-17907D01*
X240872Y-17852D01*
Y-17797D01*
Y-17764D01*
Y-17743D01*
Y-17732D01*
X240893Y-17415D01*
X240937Y-17120D01*
X241014Y-16879D01*
X241090Y-16660D01*
X241134Y-16573D01*
X241178Y-16497D01*
X241210Y-16431D01*
X241254Y-16365D01*
X241276Y-16322D01*
X241298Y-16289D01*
X241320Y-16278D01*
Y-16267D01*
X241495Y-16070D01*
X241670Y-15906D01*
X241855Y-15775D01*
X242019Y-15677D01*
X242172Y-15611D01*
X242292Y-15557D01*
X242336Y-15546D01*
X242369Y-15535D01*
X242391Y-15524D01*
X242402D01*
X242489Y-15502D01*
X242599Y-15480D01*
X242730Y-15469D01*
X242861Y-15458D01*
X243167Y-15436D01*
X243473Y-15415D01*
X243757D01*
X243877Y-15404D01*
X246665D01*
Y-22967D01*
D02*
G37*
G36*
X216684Y-17371D02*
X216793Y-17382D01*
X216902Y-17415D01*
X216989Y-17447D01*
X217066Y-17480D01*
X217132Y-17502D01*
X217164Y-17524D01*
X217175Y-17535D01*
X217285Y-17611D01*
X217383Y-17721D01*
X217492Y-17841D01*
X217580Y-17961D01*
X217667Y-18081D01*
X217733Y-18180D01*
X217776Y-18245D01*
X217787Y-18256D01*
Y-17480D01*
X219132Y-17480D01*
Y-22967D01*
X217678Y-22967D01*
Y-21284D01*
Y-21033D01*
Y-20803D01*
X217667Y-20595D01*
X217656Y-20410D01*
Y-20235D01*
X217645Y-20092D01*
X217634Y-19951D01*
X217623Y-19841D01*
X217613Y-19743D01*
X217602Y-19655D01*
X217591Y-19590D01*
Y-19535D01*
X217580Y-19502D01*
X217569Y-19469D01*
Y-19448D01*
X217525Y-19295D01*
X217470Y-19163D01*
X217416Y-19054D01*
X217361Y-18978D01*
X217317Y-18912D01*
X217274Y-18868D01*
X217252Y-18846D01*
X217241Y-18836D01*
X217154Y-18781D01*
X217066Y-18737D01*
X216979Y-18704D01*
X216902Y-18683D01*
X216837Y-18672D01*
X216771Y-18661D01*
X216727D01*
X216607Y-18672D01*
X216487Y-18693D01*
X216377Y-18737D01*
X216268Y-18781D01*
X216181Y-18825D01*
X216115Y-18868D01*
X216060Y-18890D01*
X216050Y-18901D01*
X215591Y-17644D01*
X215765Y-17546D01*
X215929Y-17480D01*
X216093Y-17426D01*
X216246Y-17393D01*
X216367Y-17371D01*
X216465Y-17360D01*
X216552D01*
X216684Y-17371D01*
D02*
G37*
G36*
X185161Y-22967D02*
X183544D01*
X182921Y-21251D01*
X179882D01*
X179226Y-22967D01*
X177576D01*
X180614Y-15404D01*
X182232D01*
X185161Y-22967D01*
D02*
G37*
G36*
X174384Y-17371D02*
X174494Y-17382D01*
X174603Y-17415D01*
X174690Y-17447D01*
X174767Y-17480D01*
X174832Y-17502D01*
X174865Y-17524D01*
X174876Y-17535D01*
X174986Y-17611D01*
X175084Y-17721D01*
X175193Y-17841D01*
X175281Y-17961D01*
X175368Y-18081D01*
X175434Y-18180D01*
X175477Y-18245D01*
X175488Y-18256D01*
Y-17480D01*
X176833D01*
Y-22967D01*
X175379D01*
Y-21284D01*
Y-21033D01*
Y-20803D01*
X175368Y-20595D01*
X175357Y-20410D01*
Y-20235D01*
X175346Y-20092D01*
X175335Y-19951D01*
X175324Y-19841D01*
X175313Y-19743D01*
X175303Y-19655D01*
X175292Y-19590D01*
Y-19535D01*
X175281Y-19502D01*
X175270Y-19469D01*
Y-19448D01*
X175226Y-19295D01*
X175171Y-19163D01*
X175117Y-19054D01*
X175062Y-18978D01*
X175018Y-18912D01*
X174975Y-18868D01*
X174953Y-18846D01*
X174942Y-18836D01*
X174854Y-18781D01*
X174767Y-18737D01*
X174680Y-18704D01*
X174603Y-18683D01*
X174537Y-18672D01*
X174472Y-18661D01*
X174428D01*
X174308Y-18672D01*
X174188Y-18693D01*
X174078Y-18737D01*
X173969Y-18781D01*
X173882Y-18825D01*
X173816Y-18868D01*
X173761Y-18890D01*
X173750Y-18901D01*
X173291Y-17644D01*
X173466Y-17546D01*
X173630Y-17480D01*
X173794Y-17426D01*
X173947Y-17393D01*
X174067Y-17371D01*
X174166Y-17360D01*
X174253D01*
X174384Y-17371D01*
D02*
G37*
G36*
X166209Y-22967D02*
X164755D01*
Y-17480D01*
X166209D01*
Y-22967D01*
D02*
G37*
G36*
X157355Y-17371D02*
X157465Y-17382D01*
X157574Y-17415D01*
X157661Y-17447D01*
X157738Y-17480D01*
X157804Y-17502D01*
X157836Y-17524D01*
X157847Y-17535D01*
X157957Y-17611D01*
X158055Y-17721D01*
X158164Y-17841D01*
X158252Y-17961D01*
X158339Y-18081D01*
X158405Y-18180D01*
X158449Y-18245D01*
X158459Y-18256D01*
Y-17480D01*
X159804D01*
Y-22967D01*
X158350D01*
Y-21284D01*
Y-21033D01*
Y-20803D01*
X158339Y-20595D01*
X158328Y-20410D01*
Y-20235D01*
X158317Y-20093D01*
X158306Y-19951D01*
X158295Y-19841D01*
X158284Y-19743D01*
X158274Y-19655D01*
X158263Y-19590D01*
Y-19535D01*
X158252Y-19502D01*
X158241Y-19470D01*
Y-19448D01*
X158197Y-19295D01*
X158142Y-19163D01*
X158088Y-19054D01*
X158033Y-18978D01*
X157989Y-18912D01*
X157946Y-18868D01*
X157924Y-18846D01*
X157913Y-18836D01*
X157825Y-18781D01*
X157738Y-18737D01*
X157651Y-18704D01*
X157574Y-18683D01*
X157509Y-18672D01*
X157443Y-18661D01*
X157399D01*
X157279Y-18672D01*
X157159Y-18693D01*
X157049Y-18737D01*
X156940Y-18781D01*
X156853Y-18825D01*
X156787Y-18868D01*
X156732Y-18890D01*
X156721Y-18901D01*
X156262Y-17644D01*
X156437Y-17546D01*
X156601Y-17480D01*
X156765Y-17426D01*
X156918Y-17393D01*
X157038Y-17371D01*
X157137Y-17360D01*
X157224D01*
X157355Y-17371D01*
D02*
G37*
G36*
X147365D02*
X147475Y-17382D01*
X147584Y-17415D01*
X147671Y-17447D01*
X147748Y-17480D01*
X147814Y-17502D01*
X147846Y-17524D01*
X147857Y-17535D01*
X147967Y-17611D01*
X148065Y-17721D01*
X148174Y-17841D01*
X148262Y-17961D01*
X148349Y-18081D01*
X148415Y-18180D01*
X148458Y-18245D01*
X148469Y-18256D01*
Y-17480D01*
X149814D01*
Y-22967D01*
X148360D01*
Y-21284D01*
Y-21033D01*
Y-20803D01*
X148349Y-20595D01*
X148338Y-20410D01*
Y-20235D01*
X148327Y-20093D01*
X148316Y-19951D01*
X148305Y-19841D01*
X148294Y-19743D01*
X148284Y-19655D01*
X148273Y-19590D01*
Y-19535D01*
X148262Y-19502D01*
X148251Y-19470D01*
Y-19448D01*
X148207Y-19295D01*
X148152Y-19163D01*
X148098Y-19054D01*
X148043Y-18978D01*
X147999Y-18912D01*
X147956Y-18868D01*
X147934Y-18846D01*
X147923Y-18836D01*
X147835Y-18781D01*
X147748Y-18737D01*
X147661Y-18704D01*
X147584Y-18683D01*
X147519Y-18672D01*
X147453Y-18661D01*
X147409D01*
X147289Y-18672D01*
X147169Y-18693D01*
X147059Y-18737D01*
X146950Y-18781D01*
X146863Y-18825D01*
X146797Y-18868D01*
X146742Y-18890D01*
X146731Y-18901D01*
X146272Y-17644D01*
X146447Y-17546D01*
X146611Y-17480D01*
X146775Y-17426D01*
X146928Y-17393D01*
X147048Y-17371D01*
X147147Y-17360D01*
X147234D01*
X147365Y-17371D01*
D02*
G37*
G36*
X136862Y-22967D02*
X135331D01*
Y-15404D01*
X136862D01*
Y-22967D01*
D02*
G37*
G36*
X130949Y-17371D02*
X131145Y-17404D01*
X131320Y-17447D01*
X131495Y-17502D01*
X131659Y-17579D01*
X131801Y-17655D01*
X131943Y-17743D01*
X132063Y-17819D01*
X132173Y-17907D01*
X132271Y-17994D01*
X132359Y-18070D01*
X132424Y-18147D01*
X132479Y-18202D01*
X132522Y-18245D01*
X132544Y-18278D01*
X132555Y-18289D01*
Y-17480D01*
X133900D01*
Y-22967D01*
X132446D01*
Y-20497D01*
Y-20333D01*
Y-20180D01*
X132435Y-20038D01*
X132424Y-19918D01*
Y-19797D01*
X132413Y-19699D01*
X132402Y-19601D01*
X132391Y-19524D01*
X132369Y-19393D01*
X132359Y-19306D01*
X132337Y-19251D01*
Y-19240D01*
X132293Y-19120D01*
X132227Y-19000D01*
X132162Y-18912D01*
X132096Y-18825D01*
X132031Y-18770D01*
X131976Y-18715D01*
X131943Y-18693D01*
X131932Y-18683D01*
X131812Y-18617D01*
X131692Y-18562D01*
X131582Y-18530D01*
X131473Y-18497D01*
X131386Y-18486D01*
X131320Y-18475D01*
X131255D01*
X131145Y-18486D01*
X131047Y-18497D01*
X130970Y-18519D01*
X130894Y-18551D01*
X130828Y-18584D01*
X130785Y-18606D01*
X130763Y-18617D01*
X130752Y-18628D01*
X130675Y-18683D01*
X130621Y-18748D01*
X130522Y-18879D01*
X130490Y-18945D01*
X130468Y-18989D01*
X130446Y-19021D01*
Y-19032D01*
X130424Y-19087D01*
X130413Y-19153D01*
X130391Y-19317D01*
X130369Y-19513D01*
X130358Y-19699D01*
X130347Y-19885D01*
Y-19961D01*
Y-20038D01*
Y-20093D01*
Y-20136D01*
Y-20169D01*
Y-20180D01*
Y-22967D01*
X128894D01*
Y-19568D01*
Y-19338D01*
X128905Y-19153D01*
X128916Y-18978D01*
X128937Y-18846D01*
X128948Y-18737D01*
X128970Y-18661D01*
X128981Y-18606D01*
Y-18595D01*
X129014Y-18464D01*
X129058Y-18355D01*
X129101Y-18245D01*
X129156Y-18158D01*
X129200Y-18081D01*
X129233Y-18027D01*
X129254Y-17994D01*
X129265Y-17983D01*
X129353Y-17885D01*
X129451Y-17797D01*
X129550Y-17721D01*
X129648Y-17655D01*
X129735Y-17601D01*
X129812Y-17568D01*
X129856Y-17546D01*
X129877Y-17535D01*
X130030Y-17480D01*
X130183Y-17437D01*
X130326Y-17404D01*
X130457Y-17382D01*
X130577Y-17371D01*
X130675Y-17360D01*
X130752D01*
X130949Y-17371D01*
D02*
G37*
G36*
X118029Y-22967D02*
X116576D01*
Y-15404D01*
X118029D01*
Y-22967D01*
D02*
G37*
G36*
X115089D02*
X113635D01*
Y-15404D01*
X115089D01*
Y-22967D01*
D02*
G37*
G36*
X112149D02*
X110695D01*
Y-17480D01*
X112149D01*
Y-22967D01*
D02*
G37*
G36*
X93929Y-17371D02*
X94125Y-17404D01*
X94300Y-17447D01*
X94475Y-17502D01*
X94639Y-17579D01*
X94781Y-17655D01*
X94923Y-17743D01*
X95043Y-17819D01*
X95153Y-17907D01*
X95251Y-17994D01*
X95339Y-18070D01*
X95404Y-18147D01*
X95459Y-18202D01*
X95503Y-18245D01*
X95524Y-18278D01*
X95535Y-18289D01*
Y-17480D01*
X96880D01*
Y-22967D01*
X95426D01*
Y-20497D01*
Y-20333D01*
Y-20180D01*
X95415Y-20038D01*
X95404Y-19918D01*
Y-19797D01*
X95393Y-19699D01*
X95382Y-19601D01*
X95371Y-19524D01*
X95350Y-19393D01*
X95339Y-19306D01*
X95317Y-19251D01*
Y-19240D01*
X95273Y-19120D01*
X95208Y-19000D01*
X95142Y-18912D01*
X95076Y-18825D01*
X95011Y-18770D01*
X94956Y-18715D01*
X94923Y-18693D01*
X94912Y-18683D01*
X94792Y-18617D01*
X94672Y-18562D01*
X94563Y-18530D01*
X94453Y-18497D01*
X94366Y-18486D01*
X94300Y-18475D01*
X94235D01*
X94125Y-18486D01*
X94027Y-18497D01*
X93950Y-18519D01*
X93874Y-18551D01*
X93808Y-18584D01*
X93765Y-18606D01*
X93743Y-18617D01*
X93732Y-18628D01*
X93655Y-18683D01*
X93601Y-18748D01*
X93502Y-18879D01*
X93470Y-18945D01*
X93448Y-18989D01*
X93426Y-19021D01*
Y-19032D01*
X93404Y-19087D01*
X93393Y-19153D01*
X93371Y-19317D01*
X93349Y-19513D01*
X93338Y-19699D01*
X93327Y-19885D01*
Y-19961D01*
Y-20038D01*
Y-20093D01*
Y-20136D01*
Y-20169D01*
Y-20180D01*
Y-22967D01*
X91874D01*
Y-19568D01*
Y-19338D01*
X91885Y-19153D01*
X91896Y-18978D01*
X91918Y-18846D01*
X91928Y-18737D01*
X91950Y-18661D01*
X91961Y-18606D01*
Y-18595D01*
X91994Y-18464D01*
X92038Y-18355D01*
X92081Y-18245D01*
X92136Y-18158D01*
X92180Y-18081D01*
X92213Y-18027D01*
X92234Y-17994D01*
X92245Y-17983D01*
X92333Y-17885D01*
X92431Y-17797D01*
X92530Y-17721D01*
X92628Y-17655D01*
X92715Y-17601D01*
X92792Y-17568D01*
X92836Y-17546D01*
X92857Y-17535D01*
X93010Y-17480D01*
X93164Y-17437D01*
X93306Y-17404D01*
X93437Y-17382D01*
X93557Y-17371D01*
X93655Y-17360D01*
X93732D01*
X93929Y-17371D01*
D02*
G37*
G36*
X237440Y-17371D02*
X237713Y-17415D01*
X237964Y-17469D01*
X238183Y-17535D01*
X238270Y-17579D01*
X238358Y-17611D01*
X238434Y-17633D01*
X238489Y-17666D01*
X238544Y-17688D01*
X238576Y-17710D01*
X238598Y-17721D01*
X238609D01*
X238839Y-17874D01*
X239035Y-18038D01*
X239210Y-18213D01*
X239352Y-18376D01*
X239462Y-18530D01*
X239549Y-18650D01*
X239582Y-18693D01*
X239593Y-18726D01*
X239615Y-18748D01*
Y-18759D01*
X239735Y-19011D01*
X239811Y-19262D01*
X239877Y-19491D01*
X239921Y-19699D01*
X239943Y-19885D01*
X239953Y-19961D01*
Y-20027D01*
X239964Y-20071D01*
Y-20114D01*
Y-20136D01*
Y-20147D01*
X239953Y-20486D01*
X239910Y-20803D01*
X239855Y-21076D01*
X239822Y-21196D01*
X239790Y-21306D01*
X239757Y-21404D01*
X239724Y-21492D01*
X239691Y-21568D01*
X239669Y-21634D01*
X239647Y-21688D01*
X239626Y-21721D01*
X239615Y-21743D01*
Y-21754D01*
X239462Y-21983D01*
X239298Y-22180D01*
X239123Y-22355D01*
X238959Y-22497D01*
X238806Y-22606D01*
X238686Y-22683D01*
X238642Y-22716D01*
X238609Y-22738D01*
X238587Y-22749D01*
X238576D01*
X238314Y-22858D01*
X238063Y-22945D01*
X237822Y-23000D01*
X237593Y-23044D01*
X237407Y-23065D01*
X237330Y-23076D01*
X237265D01*
X237210Y-23087D01*
X237134D01*
X236904Y-23076D01*
X236696Y-23055D01*
X236489Y-23011D01*
X236303Y-22956D01*
X236117Y-22902D01*
X235953Y-22836D01*
X235800Y-22760D01*
X235658Y-22683D01*
X235538Y-22606D01*
X235428Y-22530D01*
X235330Y-22464D01*
X235254Y-22410D01*
X235188Y-22355D01*
X235144Y-22311D01*
X235122Y-22289D01*
X235111Y-22278D01*
X234969Y-22115D01*
X234849Y-21951D01*
X234740Y-21787D01*
X234642Y-21612D01*
X234565Y-21437D01*
X234499Y-21262D01*
X234445Y-21098D01*
X234401Y-20934D01*
X234368Y-20792D01*
X234346Y-20650D01*
X234325Y-20530D01*
X234314Y-20420D01*
X234303Y-20333D01*
Y-20267D01*
Y-20224D01*
Y-20213D01*
X234314Y-19983D01*
X234335Y-19765D01*
X234379Y-19568D01*
X234423Y-19371D01*
X234489Y-19196D01*
X234554Y-19021D01*
X234630Y-18868D01*
X234696Y-18726D01*
X234773Y-18606D01*
X234849Y-18486D01*
X234915Y-18398D01*
X234980Y-18311D01*
X235024Y-18256D01*
X235068Y-18202D01*
X235090Y-18180D01*
X235101Y-18169D01*
X235254Y-18027D01*
X235418Y-17907D01*
X235581Y-17797D01*
X235756Y-17699D01*
X235931Y-17622D01*
X236095Y-17557D01*
X236259Y-17502D01*
X236423Y-17458D01*
X236565Y-17426D01*
X236707Y-17404D01*
X236827Y-17382D01*
X236937Y-17371D01*
X237024Y-17360D01*
X237144D01*
X237440Y-17371D01*
D02*
G37*
G36*
X205502Y-18125D02*
X205633Y-17994D01*
X205764Y-17874D01*
X205896Y-17775D01*
X206038Y-17677D01*
X206169Y-17611D01*
X206300Y-17546D01*
X206431Y-17491D01*
X206551Y-17458D01*
X206672Y-17426D01*
X206770Y-17404D01*
X206868Y-17382D01*
X206945Y-17371D01*
X207010Y-17360D01*
X207098D01*
X207284Y-17371D01*
X207459Y-17393D01*
X207623Y-17426D01*
X207786Y-17469D01*
X208060Y-17590D01*
X208191Y-17655D01*
X208300Y-17721D01*
X208410Y-17797D01*
X208497Y-17863D01*
X208573Y-17918D01*
X208639Y-17972D01*
X208694Y-18027D01*
X208727Y-18060D01*
X208748Y-18081D01*
X208759Y-18092D01*
X208869Y-18235D01*
X208967Y-18387D01*
X209054Y-18551D01*
X209131Y-18726D01*
X209196Y-18901D01*
X209251Y-19076D01*
X209328Y-19426D01*
X209349Y-19579D01*
X209371Y-19732D01*
X209382Y-19863D01*
X209393Y-19983D01*
X209404Y-20082D01*
Y-20147D01*
Y-20202D01*
Y-20213D01*
X209393Y-20464D01*
X209371Y-20694D01*
X209338Y-20912D01*
X209295Y-21120D01*
X209251Y-21306D01*
X209196Y-21481D01*
X209131Y-21634D01*
X209065Y-21776D01*
X209011Y-21907D01*
X208945Y-22016D01*
X208890Y-22115D01*
X208836Y-22191D01*
X208803Y-22257D01*
X208770Y-22300D01*
X208748Y-22322D01*
X208737Y-22333D01*
X208606Y-22464D01*
X208475Y-22585D01*
X208333Y-22683D01*
X208202Y-22770D01*
X208060Y-22847D01*
X207929Y-22902D01*
X207797Y-22956D01*
X207677Y-22989D01*
X207557Y-23022D01*
X207448Y-23044D01*
X207360Y-23065D01*
X207273Y-23076D01*
X207207Y-23087D01*
X207120D01*
X206945Y-23076D01*
X206781Y-23055D01*
X206617Y-23022D01*
X206475Y-22978D01*
X206366Y-22934D01*
X206267Y-22902D01*
X206213Y-22880D01*
X206191Y-22869D01*
X206027Y-22770D01*
X205874Y-22661D01*
X205732Y-22541D01*
X205622Y-22432D01*
X205524Y-22333D01*
X205447Y-22246D01*
X205404Y-22191D01*
X205393Y-22169D01*
Y-22967D01*
X204048D01*
Y-15404D01*
X205502D01*
Y-18125D01*
D02*
G37*
G36*
X69576Y-143621D02*
X69714Y-143636D01*
X69845Y-143665D01*
X69955Y-143694D01*
X70042Y-143723D01*
X70115Y-143752D01*
X70159Y-143767D01*
X70166Y-143774D01*
X70173D01*
X70290Y-143840D01*
X70399Y-143913D01*
X70487Y-143986D01*
X70560Y-144051D01*
X70618Y-144117D01*
X70662Y-144168D01*
X70691Y-144197D01*
X70698Y-144212D01*
X70764Y-144321D01*
X70822Y-144438D01*
X70866Y-144562D01*
X70910Y-144678D01*
X70939Y-144788D01*
X70961Y-144868D01*
X70968Y-144904D01*
Y-144926D01*
X70975Y-144941D01*
Y-144948D01*
X70086Y-145094D01*
X70064Y-144977D01*
X70035Y-144875D01*
X70006Y-144788D01*
X69969Y-144722D01*
X69933Y-144664D01*
X69904Y-144620D01*
X69882Y-144598D01*
X69875Y-144591D01*
X69809Y-144532D01*
X69736Y-144489D01*
X69663Y-144459D01*
X69598Y-144438D01*
X69539Y-144423D01*
X69495Y-144416D01*
X69452D01*
X69364Y-144423D01*
X69277Y-144438D01*
X69211Y-144467D01*
X69153Y-144489D01*
X69102Y-144518D01*
X69073Y-144547D01*
X69051Y-144562D01*
X69043Y-144569D01*
X68992Y-144627D01*
X68956Y-144700D01*
X68927Y-144766D01*
X68912Y-144831D01*
X68898Y-144890D01*
X68890Y-144933D01*
Y-144963D01*
Y-144977D01*
X68898Y-145086D01*
X68919Y-145181D01*
X68956Y-145261D01*
X68992Y-145327D01*
X69036Y-145385D01*
X69065Y-145422D01*
X69095Y-145451D01*
X69102Y-145458D01*
X69189Y-145517D01*
X69284Y-145560D01*
X69386Y-145589D01*
X69481Y-145611D01*
X69568Y-145619D01*
X69641Y-145626D01*
X69707D01*
X69809Y-146406D01*
X69714Y-146384D01*
X69634Y-146362D01*
X69554Y-146348D01*
X69488Y-146340D01*
X69437Y-146333D01*
X69364D01*
X69262Y-146340D01*
X69175Y-146370D01*
X69095Y-146399D01*
X69022Y-146442D01*
X68971Y-146479D01*
X68927Y-146515D01*
X68898Y-146544D01*
X68890Y-146552D01*
X68825Y-146639D01*
X68774Y-146734D01*
X68737Y-146829D01*
X68708Y-146923D01*
X68694Y-147011D01*
X68686Y-147077D01*
Y-147120D01*
Y-147128D01*
Y-147135D01*
X68694Y-147273D01*
X68715Y-147397D01*
X68752Y-147507D01*
X68788Y-147594D01*
X68832Y-147660D01*
X68861Y-147711D01*
X68890Y-147747D01*
X68898Y-147755D01*
X68978Y-147827D01*
X69065Y-147886D01*
X69146Y-147922D01*
X69226Y-147951D01*
X69299Y-147966D01*
X69350Y-147973D01*
X69386Y-147981D01*
X69401D01*
X69503Y-147973D01*
X69590Y-147951D01*
X69670Y-147922D01*
X69743Y-147886D01*
X69794Y-147857D01*
X69838Y-147827D01*
X69867Y-147806D01*
X69875Y-147798D01*
X69940Y-147718D01*
X69998Y-147631D01*
X70035Y-147536D01*
X70071Y-147448D01*
X70093Y-147368D01*
X70108Y-147303D01*
X70115Y-147259D01*
Y-147252D01*
Y-147244D01*
X71048Y-147361D01*
X71034Y-147477D01*
X71004Y-147587D01*
X70939Y-147791D01*
X70859Y-147966D01*
X70808Y-148039D01*
X70764Y-148112D01*
X70720Y-148177D01*
X70676Y-148228D01*
X70640Y-148279D01*
X70604Y-148316D01*
X70574Y-148345D01*
X70552Y-148367D01*
X70538Y-148381D01*
X70531Y-148389D01*
X70443Y-148454D01*
X70348Y-148520D01*
X70261Y-148571D01*
X70159Y-148615D01*
X69969Y-148688D01*
X69794Y-148731D01*
X69707Y-148746D01*
X69634Y-148761D01*
X69568Y-148768D01*
X69510Y-148775D01*
X69459Y-148783D01*
X69393D01*
X69262Y-148775D01*
X69131Y-148761D01*
X69014Y-148739D01*
X68898Y-148710D01*
X68796Y-148673D01*
X68694Y-148637D01*
X68599Y-148593D01*
X68519Y-148549D01*
X68446Y-148505D01*
X68373Y-148462D01*
X68322Y-148425D01*
X68271Y-148389D01*
X68234Y-148360D01*
X68205Y-148338D01*
X68190Y-148323D01*
X68183Y-148316D01*
X68096Y-148228D01*
X68023Y-148134D01*
X67957Y-148039D01*
X67899Y-147944D01*
X67855Y-147842D01*
X67811Y-147747D01*
X67753Y-147572D01*
X67738Y-147492D01*
X67724Y-147412D01*
X67709Y-147346D01*
X67702Y-147288D01*
X67695Y-147244D01*
Y-147208D01*
Y-147186D01*
Y-147179D01*
X67709Y-147011D01*
X67738Y-146865D01*
X67775Y-146727D01*
X67826Y-146617D01*
X67877Y-146523D01*
X67914Y-146457D01*
X67943Y-146413D01*
X67957Y-146399D01*
X68059Y-146289D01*
X68176Y-146195D01*
X68293Y-146122D01*
X68402Y-146063D01*
X68497Y-146020D01*
X68577Y-145998D01*
X68606Y-145983D01*
X68628D01*
X68642Y-145976D01*
X68650D01*
X68519Y-145896D01*
X68409Y-145815D01*
X68314Y-145728D01*
X68227Y-145641D01*
X68154Y-145553D01*
X68096Y-145466D01*
X68052Y-145378D01*
X68008Y-145298D01*
X67979Y-145218D01*
X67957Y-145145D01*
X67943Y-145079D01*
X67935Y-145021D01*
X67928Y-144977D01*
X67921Y-144941D01*
Y-144919D01*
Y-144912D01*
X67928Y-144824D01*
X67935Y-144744D01*
X67979Y-144583D01*
X68030Y-144438D01*
X68096Y-144314D01*
X68161Y-144212D01*
X68220Y-144139D01*
X68242Y-144110D01*
X68263Y-144088D01*
X68271Y-144080D01*
X68278Y-144073D01*
X68358Y-143993D01*
X68453Y-143920D01*
X68540Y-143862D01*
X68635Y-143811D01*
X68737Y-143760D01*
X68832Y-143723D01*
X69014Y-143672D01*
X69095Y-143650D01*
X69175Y-143636D01*
X69240Y-143628D01*
X69306Y-143621D01*
X69357Y-143614D01*
X69423D01*
X69576Y-143621D01*
D02*
G37*
G36*
X81240D02*
X81356Y-143628D01*
X81582Y-143665D01*
X81772Y-143723D01*
X81859Y-143752D01*
X81940Y-143789D01*
X82012Y-143818D01*
X82071Y-143854D01*
X82129Y-143884D01*
X82173Y-143905D01*
X82209Y-143935D01*
X82231Y-143949D01*
X82246Y-143956D01*
X82253Y-143964D01*
X82333Y-144037D01*
X82406Y-144110D01*
X82472Y-144197D01*
X82530Y-144292D01*
X82617Y-144481D01*
X82690Y-144664D01*
X82712Y-144758D01*
X82734Y-144839D01*
X82756Y-144912D01*
X82763Y-144977D01*
X82778Y-145035D01*
Y-145072D01*
X82785Y-145101D01*
Y-145108D01*
X81823Y-145203D01*
X81808Y-145057D01*
X81779Y-144933D01*
X81750Y-144824D01*
X81713Y-144744D01*
X81684Y-144678D01*
X81655Y-144634D01*
X81633Y-144605D01*
X81626Y-144598D01*
X81553Y-144540D01*
X81473Y-144496D01*
X81393Y-144459D01*
X81313Y-144438D01*
X81247Y-144423D01*
X81189Y-144416D01*
X81138D01*
X81028Y-144423D01*
X80933Y-144445D01*
X80853Y-144474D01*
X80780Y-144503D01*
X80729Y-144532D01*
X80686Y-144562D01*
X80664Y-144583D01*
X80656Y-144591D01*
X80598Y-144664D01*
X80554Y-144744D01*
X80525Y-144824D01*
X80503Y-144904D01*
X80489Y-144977D01*
X80481Y-145043D01*
Y-145079D01*
Y-145086D01*
Y-145094D01*
X80489Y-145203D01*
X80511Y-145305D01*
X80547Y-145407D01*
X80584Y-145495D01*
X80620Y-145575D01*
X80656Y-145633D01*
X80678Y-145670D01*
X80686Y-145684D01*
X80715Y-145728D01*
X80759Y-145779D01*
X80817Y-145845D01*
X80875Y-145903D01*
X81006Y-146041D01*
X81138Y-146180D01*
X81269Y-146311D01*
X81327Y-146370D01*
X81385Y-146413D01*
X81429Y-146457D01*
X81458Y-146486D01*
X81480Y-146508D01*
X81488Y-146515D01*
X81633Y-146654D01*
X81765Y-146785D01*
X81888Y-146909D01*
X81998Y-147018D01*
X82100Y-147128D01*
X82187Y-147230D01*
X82267Y-147317D01*
X82333Y-147405D01*
X82391Y-147477D01*
X82442Y-147543D01*
X82486Y-147594D01*
X82515Y-147645D01*
X82544Y-147674D01*
X82559Y-147704D01*
X82574Y-147718D01*
Y-147725D01*
X82669Y-147893D01*
X82741Y-148068D01*
X82800Y-148228D01*
X82843Y-148374D01*
X82873Y-148505D01*
X82880Y-148556D01*
X82887Y-148600D01*
X82894Y-148637D01*
X82902Y-148666D01*
Y-148680D01*
Y-148688D01*
X79512D01*
Y-147791D01*
X81437D01*
X81378Y-147696D01*
X81313Y-147616D01*
X81283Y-147580D01*
X81261Y-147550D01*
X81247Y-147536D01*
X81240Y-147529D01*
X81211Y-147499D01*
X81181Y-147463D01*
X81094Y-147383D01*
X80999Y-147288D01*
X80904Y-147193D01*
X80809Y-147106D01*
X80729Y-147033D01*
X80700Y-147004D01*
X80678Y-146982D01*
X80664Y-146975D01*
X80656Y-146967D01*
X80496Y-146814D01*
X80365Y-146690D01*
X80256Y-146574D01*
X80168Y-146486D01*
X80102Y-146413D01*
X80059Y-146362D01*
X80029Y-146326D01*
X80022Y-146318D01*
X79927Y-146195D01*
X79847Y-146078D01*
X79782Y-145968D01*
X79731Y-145874D01*
X79687Y-145794D01*
X79658Y-145728D01*
X79643Y-145692D01*
X79636Y-145677D01*
X79592Y-145560D01*
X79563Y-145444D01*
X79541Y-145334D01*
X79527Y-145232D01*
X79519Y-145152D01*
X79512Y-145086D01*
Y-145043D01*
Y-145028D01*
X79519Y-144919D01*
X79534Y-144809D01*
X79548Y-144707D01*
X79577Y-144613D01*
X79650Y-144445D01*
X79723Y-144299D01*
X79767Y-144234D01*
X79804Y-144183D01*
X79840Y-144131D01*
X79876Y-144095D01*
X79906Y-144066D01*
X79920Y-144037D01*
X79935Y-144029D01*
X79942Y-144022D01*
X80022Y-143949D01*
X80117Y-143884D01*
X80204Y-143833D01*
X80307Y-143789D01*
X80496Y-143716D01*
X80686Y-143665D01*
X80773Y-143650D01*
X80853Y-143636D01*
X80926Y-143628D01*
X80992Y-143621D01*
X81043Y-143614D01*
X81116D01*
X81240Y-143621D01*
D02*
G37*
G36*
X73396D02*
X73512Y-143628D01*
X73738Y-143665D01*
X73928Y-143723D01*
X74015Y-143752D01*
X74095Y-143789D01*
X74168Y-143818D01*
X74227Y-143854D01*
X74285Y-143884D01*
X74329Y-143905D01*
X74365Y-143935D01*
X74387Y-143949D01*
X74402Y-143956D01*
X74409Y-143964D01*
X74489Y-144037D01*
X74562Y-144110D01*
X74628Y-144197D01*
X74686Y-144292D01*
X74773Y-144481D01*
X74846Y-144664D01*
X74868Y-144758D01*
X74890Y-144839D01*
X74912Y-144912D01*
X74919Y-144977D01*
X74934Y-145035D01*
Y-145072D01*
X74941Y-145101D01*
Y-145108D01*
X73979Y-145203D01*
X73964Y-145057D01*
X73935Y-144933D01*
X73906Y-144824D01*
X73869Y-144744D01*
X73840Y-144678D01*
X73811Y-144634D01*
X73789Y-144605D01*
X73782Y-144598D01*
X73709Y-144540D01*
X73629Y-144496D01*
X73549Y-144459D01*
X73469Y-144438D01*
X73403Y-144423D01*
X73345Y-144416D01*
X73294D01*
X73184Y-144423D01*
X73089Y-144445D01*
X73009Y-144474D01*
X72936Y-144503D01*
X72885Y-144532D01*
X72842Y-144562D01*
X72820Y-144583D01*
X72812Y-144591D01*
X72754Y-144664D01*
X72710Y-144744D01*
X72681Y-144824D01*
X72659Y-144904D01*
X72645Y-144977D01*
X72637Y-145043D01*
Y-145079D01*
Y-145086D01*
Y-145094D01*
X72645Y-145203D01*
X72667Y-145305D01*
X72703Y-145407D01*
X72739Y-145495D01*
X72776Y-145575D01*
X72812Y-145633D01*
X72834Y-145670D01*
X72842Y-145684D01*
X72871Y-145728D01*
X72914Y-145779D01*
X72973Y-145845D01*
X73031Y-145903D01*
X73162Y-146041D01*
X73294Y-146180D01*
X73425Y-146311D01*
X73483Y-146370D01*
X73541Y-146413D01*
X73585Y-146457D01*
X73614Y-146486D01*
X73636Y-146508D01*
X73643Y-146515D01*
X73789Y-146654D01*
X73921Y-146785D01*
X74044Y-146909D01*
X74154Y-147018D01*
X74256Y-147128D01*
X74343Y-147230D01*
X74423Y-147317D01*
X74489Y-147405D01*
X74547Y-147477D01*
X74598Y-147543D01*
X74642Y-147594D01*
X74671Y-147645D01*
X74700Y-147674D01*
X74715Y-147704D01*
X74730Y-147718D01*
Y-147725D01*
X74824Y-147893D01*
X74897Y-148068D01*
X74956Y-148228D01*
X74999Y-148374D01*
X75029Y-148505D01*
X75036Y-148556D01*
X75043Y-148600D01*
X75050Y-148637D01*
X75058Y-148666D01*
Y-148680D01*
Y-148688D01*
X71668D01*
Y-147791D01*
X73592D01*
X73534Y-147696D01*
X73469Y-147616D01*
X73439Y-147580D01*
X73417Y-147550D01*
X73403Y-147536D01*
X73396Y-147529D01*
X73366Y-147499D01*
X73337Y-147463D01*
X73250Y-147383D01*
X73155Y-147288D01*
X73060Y-147193D01*
X72966Y-147106D01*
X72885Y-147033D01*
X72856Y-147004D01*
X72834Y-146982D01*
X72820Y-146975D01*
X72812Y-146967D01*
X72652Y-146814D01*
X72521Y-146690D01*
X72411Y-146574D01*
X72324Y-146486D01*
X72258Y-146413D01*
X72215Y-146362D01*
X72185Y-146326D01*
X72178Y-146318D01*
X72083Y-146195D01*
X72003Y-146078D01*
X71938Y-145968D01*
X71886Y-145874D01*
X71843Y-145794D01*
X71814Y-145728D01*
X71799Y-145692D01*
X71792Y-145677D01*
X71748Y-145560D01*
X71719Y-145444D01*
X71697Y-145334D01*
X71682Y-145232D01*
X71675Y-145152D01*
X71668Y-145086D01*
Y-145043D01*
Y-145028D01*
X71675Y-144919D01*
X71690Y-144809D01*
X71704Y-144707D01*
X71733Y-144613D01*
X71806Y-144445D01*
X71879Y-144299D01*
X71923Y-144234D01*
X71960Y-144183D01*
X71996Y-144131D01*
X72032Y-144095D01*
X72062Y-144066D01*
X72076Y-144037D01*
X72091Y-144029D01*
X72098Y-144022D01*
X72178Y-143949D01*
X72273Y-143884D01*
X72360Y-143833D01*
X72462Y-143789D01*
X72652Y-143716D01*
X72842Y-143665D01*
X72929Y-143650D01*
X73009Y-143636D01*
X73082Y-143628D01*
X73148Y-143621D01*
X73199Y-143614D01*
X73272D01*
X73396Y-143621D01*
D02*
G37*
G36*
X139370Y-148688D02*
X138349D01*
Y-147164D01*
X137526Y-146318D01*
X136133Y-148688D01*
X134814D01*
X136819Y-145611D01*
X134909Y-143643D01*
X136279D01*
X138349Y-145888D01*
Y-143643D01*
X139370D01*
Y-148688D01*
D02*
G37*
G36*
X93873Y-146807D02*
X95193Y-148688D01*
X94063D01*
X93312Y-147558D01*
X92561Y-148688D01*
X91380D01*
X92729Y-146763D01*
X91497Y-145028D01*
X92627D01*
X93312Y-146041D01*
X93953Y-145028D01*
X95134D01*
X93873Y-146807D01*
D02*
G37*
G36*
X128807Y-144963D02*
X128923Y-144970D01*
X129026Y-144992D01*
X129128Y-145006D01*
X129215Y-145028D01*
X129295Y-145057D01*
X129368Y-145079D01*
X129427Y-145101D01*
X129485Y-145130D01*
X129529Y-145152D01*
X129572Y-145167D01*
X129602Y-145188D01*
X129623Y-145196D01*
X129631Y-145210D01*
X129638D01*
X129762Y-145320D01*
X129864Y-145444D01*
X129951Y-145575D01*
X130024Y-145699D01*
X130075Y-145815D01*
X130097Y-145867D01*
X130112Y-145910D01*
X130126Y-145947D01*
X130134Y-145976D01*
X130141Y-145990D01*
Y-145998D01*
X129273Y-146158D01*
X129237Y-146071D01*
X129200Y-145998D01*
X129164Y-145932D01*
X129120Y-145881D01*
X129091Y-145845D01*
X129062Y-145823D01*
X129047Y-145808D01*
X129040Y-145801D01*
X128982Y-145764D01*
X128916Y-145735D01*
X128843Y-145721D01*
X128778Y-145706D01*
X128719Y-145699D01*
X128676Y-145692D01*
X128632D01*
X128501Y-145699D01*
X128391Y-145713D01*
X128304Y-145728D01*
X128231Y-145750D01*
X128180Y-145779D01*
X128144Y-145794D01*
X128122Y-145808D01*
X128114Y-145815D01*
X128063Y-145867D01*
X128027Y-145925D01*
X128005Y-145990D01*
X127983Y-146056D01*
X127976Y-146122D01*
X127969Y-146173D01*
Y-146202D01*
Y-146216D01*
Y-146311D01*
X128020Y-146333D01*
X128085Y-146355D01*
X128224Y-146399D01*
X128384Y-146435D01*
X128537Y-146472D01*
X128683Y-146508D01*
X128749Y-146523D01*
X128807Y-146530D01*
X128851Y-146537D01*
X128887Y-146544D01*
X128909Y-146552D01*
X128916D01*
X129091Y-146588D01*
X129252Y-146625D01*
X129383Y-146661D01*
X129492Y-146697D01*
X129580Y-146734D01*
X129638Y-146756D01*
X129674Y-146770D01*
X129689Y-146778D01*
X129784Y-146829D01*
X129864Y-146887D01*
X129937Y-146953D01*
X129988Y-147011D01*
X130039Y-147062D01*
X130068Y-147106D01*
X130090Y-147135D01*
X130097Y-147150D01*
X130148Y-147244D01*
X130185Y-147339D01*
X130207Y-147426D01*
X130221Y-147514D01*
X130236Y-147587D01*
X130243Y-147645D01*
Y-147682D01*
Y-147696D01*
X130236Y-147784D01*
X130228Y-147864D01*
X130192Y-148017D01*
X130141Y-148148D01*
X130083Y-148258D01*
X130024Y-148345D01*
X129973Y-148411D01*
X129937Y-148454D01*
X129922Y-148462D01*
Y-148469D01*
X129791Y-148571D01*
X129645Y-148644D01*
X129499Y-148695D01*
X129354Y-148731D01*
X129230Y-148753D01*
X129171Y-148761D01*
X129128D01*
X129084Y-148768D01*
X129033D01*
X128916Y-148761D01*
X128800Y-148746D01*
X128698Y-148731D01*
X128610Y-148709D01*
X128537Y-148688D01*
X128479Y-148666D01*
X128442Y-148659D01*
X128428Y-148651D01*
X128326Y-148600D01*
X128224Y-148549D01*
X128136Y-148484D01*
X128056Y-148425D01*
X127990Y-148374D01*
X127939Y-148330D01*
X127910Y-148301D01*
X127896Y-148294D01*
X127888Y-148323D01*
X127874Y-148360D01*
X127866Y-148389D01*
X127859Y-148396D01*
Y-148403D01*
X127837Y-148469D01*
X127823Y-148527D01*
X127808Y-148578D01*
X127794Y-148615D01*
X127779Y-148644D01*
X127772Y-148673D01*
X127764Y-148680D01*
Y-148688D01*
X126809D01*
X126853Y-148593D01*
X126890Y-148505D01*
X126919Y-148425D01*
X126948Y-148352D01*
X126962Y-148294D01*
X126977Y-148243D01*
X126984Y-148214D01*
Y-148206D01*
X126999Y-148112D01*
X127006Y-147995D01*
X127021Y-147879D01*
Y-147762D01*
X127028Y-147660D01*
Y-147572D01*
Y-147536D01*
Y-147514D01*
Y-147499D01*
Y-147492D01*
X127014Y-146362D01*
Y-146246D01*
X127021Y-146143D01*
X127028Y-146049D01*
X127035Y-145961D01*
X127043Y-145881D01*
X127057Y-145808D01*
X127065Y-145742D01*
X127079Y-145692D01*
X127094Y-145641D01*
X127101Y-145604D01*
X127123Y-145538D01*
X127137Y-145509D01*
X127145Y-145495D01*
X127203Y-145414D01*
X127269Y-145334D01*
X127342Y-145269D01*
X127422Y-145210D01*
X127487Y-145167D01*
X127546Y-145137D01*
X127582Y-145116D01*
X127589Y-145108D01*
X127597D01*
X127662Y-145079D01*
X127728Y-145057D01*
X127881Y-145013D01*
X128041Y-144984D01*
X128194Y-144970D01*
X128340Y-144955D01*
X128399D01*
X128450Y-144948D01*
X128690D01*
X128807Y-144963D01*
D02*
G37*
G36*
X114650Y-143563D02*
X114759Y-143577D01*
X114861Y-143599D01*
X114949Y-143621D01*
X115036Y-143650D01*
X115116Y-143679D01*
X115182Y-143709D01*
X115247Y-143738D01*
X115298Y-143767D01*
X115349Y-143796D01*
X115386Y-143818D01*
X115415Y-143840D01*
X115437Y-143854D01*
X115444Y-143862D01*
X115452Y-143869D01*
X115517Y-143927D01*
X115568Y-143993D01*
X115619Y-144059D01*
X115663Y-144124D01*
X115729Y-144255D01*
X115772Y-144379D01*
X115794Y-144489D01*
X115809Y-144569D01*
X115816Y-144605D01*
Y-144627D01*
Y-144642D01*
Y-144649D01*
X115809Y-144744D01*
X115794Y-144839D01*
X115780Y-144926D01*
X115751Y-145006D01*
X115729Y-145072D01*
X115714Y-145123D01*
X115700Y-145159D01*
X115692Y-145174D01*
X115634Y-145276D01*
X115576Y-145378D01*
X115510Y-145480D01*
X115444Y-145568D01*
X115386Y-145648D01*
X115342Y-145706D01*
X115313Y-145742D01*
X115298Y-145757D01*
X115503Y-145867D01*
X115678Y-145983D01*
X115823Y-146100D01*
X115947Y-146202D01*
X116042Y-146297D01*
X116108Y-146370D01*
X116137Y-146399D01*
X116151Y-146421D01*
X116166Y-146428D01*
Y-146435D01*
X116261Y-146581D01*
X116334Y-146734D01*
X116377Y-146880D01*
X116414Y-147018D01*
X116436Y-147135D01*
X116443Y-147186D01*
Y-147230D01*
X116450Y-147259D01*
Y-147288D01*
Y-147303D01*
Y-147310D01*
X116443Y-147405D01*
X116436Y-147507D01*
X116392Y-147682D01*
X116334Y-147842D01*
X116268Y-147980D01*
X116202Y-148097D01*
X116173Y-148148D01*
X116144Y-148185D01*
X116122Y-148214D01*
X116100Y-148236D01*
X116093Y-148250D01*
X116086Y-148258D01*
X115991Y-148352D01*
X115889Y-148433D01*
X115780Y-148498D01*
X115663Y-148564D01*
X115546Y-148615D01*
X115430Y-148651D01*
X115313Y-148688D01*
X115204Y-148717D01*
X115094Y-148739D01*
X114992Y-148753D01*
X114905Y-148768D01*
X114825Y-148775D01*
X114759D01*
X114715Y-148782D01*
X114672D01*
X114497Y-148775D01*
X114336Y-148761D01*
X114198Y-148739D01*
X114081Y-148717D01*
X113979Y-148695D01*
X113906Y-148673D01*
X113884Y-148666D01*
X113862Y-148659D01*
X113855Y-148651D01*
X113848D01*
X113724Y-148593D01*
X113600Y-148535D01*
X113491Y-148469D01*
X113396Y-148403D01*
X113316Y-148345D01*
X113250Y-148294D01*
X113214Y-148265D01*
X113199Y-148250D01*
X113053Y-148381D01*
X112907Y-148491D01*
X112762Y-148593D01*
X112638Y-148673D01*
X112528Y-148731D01*
X112485Y-148761D01*
X112448Y-148782D01*
X112419Y-148797D01*
X112397Y-148812D01*
X112382Y-148819D01*
X112375D01*
X111792Y-148075D01*
X111843Y-148046D01*
X111901Y-148010D01*
X112025Y-147930D01*
X112084Y-147893D01*
X112127Y-147864D01*
X112156Y-147842D01*
X112171Y-147835D01*
X112259Y-147769D01*
X112346Y-147704D01*
X112412Y-147652D01*
X112477Y-147601D01*
X112521Y-147565D01*
X112557Y-147529D01*
X112579Y-147514D01*
X112587Y-147507D01*
X112506Y-147390D01*
X112441Y-147273D01*
X112419Y-147222D01*
X112397Y-147186D01*
X112390Y-147157D01*
X112382Y-147150D01*
X112346Y-147055D01*
X112310Y-146953D01*
X112266Y-146836D01*
X112237Y-146727D01*
X112200Y-146625D01*
X112178Y-146537D01*
X112171Y-146508D01*
X112164Y-146486D01*
X112156Y-146472D01*
Y-146464D01*
X113024Y-146267D01*
X113060Y-146391D01*
X113097Y-146501D01*
X113126Y-146603D01*
X113163Y-146683D01*
X113192Y-146748D01*
X113214Y-146800D01*
X113228Y-146829D01*
X113235Y-146836D01*
X113935Y-145903D01*
X113833Y-145837D01*
X113746Y-145779D01*
X113658Y-145713D01*
X113585Y-145655D01*
X113520Y-145604D01*
X113461Y-145553D01*
X113359Y-145458D01*
X113286Y-145385D01*
X113235Y-145327D01*
X113206Y-145298D01*
X113199Y-145283D01*
X113141Y-145181D01*
X113097Y-145072D01*
X113060Y-144977D01*
X113039Y-144890D01*
X113024Y-144809D01*
X113017Y-144751D01*
Y-144715D01*
Y-144700D01*
X113024Y-144613D01*
X113031Y-144525D01*
X113075Y-144372D01*
X113133Y-144234D01*
X113199Y-144110D01*
X113272Y-144015D01*
X113330Y-143942D01*
X113352Y-143920D01*
X113374Y-143898D01*
X113381Y-143891D01*
X113389Y-143884D01*
X113461Y-143825D01*
X113534Y-143774D01*
X113702Y-143687D01*
X113870Y-143628D01*
X114037Y-143592D01*
X114183Y-143563D01*
X114249Y-143555D01*
X114300D01*
X114344Y-143548D01*
X114533D01*
X114650Y-143563D01*
D02*
G37*
G36*
X109561Y-143563D02*
X109671Y-143577D01*
X109773Y-143599D01*
X109860Y-143621D01*
X109948Y-143650D01*
X110028Y-143679D01*
X110093Y-143709D01*
X110159Y-143738D01*
X110210Y-143767D01*
X110261Y-143796D01*
X110298Y-143818D01*
X110327Y-143840D01*
X110349Y-143854D01*
X110356Y-143862D01*
X110363Y-143869D01*
X110429Y-143927D01*
X110480Y-143993D01*
X110531Y-144059D01*
X110575Y-144124D01*
X110640Y-144255D01*
X110684Y-144379D01*
X110706Y-144489D01*
X110720Y-144569D01*
X110728Y-144605D01*
Y-144627D01*
Y-144642D01*
Y-144649D01*
X110720Y-144744D01*
X110706Y-144839D01*
X110691Y-144926D01*
X110662Y-145006D01*
X110640Y-145072D01*
X110626Y-145123D01*
X110611Y-145159D01*
X110604Y-145174D01*
X110545Y-145276D01*
X110487Y-145378D01*
X110422Y-145480D01*
X110356Y-145568D01*
X110298Y-145648D01*
X110254Y-145706D01*
X110225Y-145742D01*
X110210Y-145757D01*
X110414Y-145867D01*
X110589Y-145983D01*
X110735Y-146100D01*
X110859Y-146202D01*
X110954Y-146297D01*
X111019Y-146370D01*
X111048Y-146399D01*
X111063Y-146421D01*
X111078Y-146428D01*
Y-146435D01*
X111172Y-146581D01*
X111245Y-146734D01*
X111289Y-146880D01*
X111326Y-147018D01*
X111347Y-147135D01*
X111355Y-147186D01*
Y-147230D01*
X111362Y-147259D01*
Y-147288D01*
Y-147303D01*
Y-147310D01*
X111355Y-147405D01*
X111347Y-147507D01*
X111304Y-147682D01*
X111245Y-147842D01*
X111180Y-147980D01*
X111114Y-148097D01*
X111085Y-148148D01*
X111056Y-148185D01*
X111034Y-148214D01*
X111012Y-148236D01*
X111005Y-148250D01*
X110997Y-148258D01*
X110903Y-148352D01*
X110801Y-148433D01*
X110691Y-148498D01*
X110575Y-148564D01*
X110458Y-148615D01*
X110341Y-148651D01*
X110225Y-148688D01*
X110115Y-148717D01*
X110006Y-148739D01*
X109904Y-148753D01*
X109816Y-148768D01*
X109736Y-148775D01*
X109671D01*
X109627Y-148783D01*
X109583D01*
X109408Y-148775D01*
X109248Y-148761D01*
X109109Y-148739D01*
X108993Y-148717D01*
X108891Y-148695D01*
X108818Y-148673D01*
X108796Y-148666D01*
X108774Y-148659D01*
X108767Y-148651D01*
X108759D01*
X108635Y-148593D01*
X108511Y-148535D01*
X108402Y-148469D01*
X108307Y-148403D01*
X108227Y-148345D01*
X108162Y-148294D01*
X108125Y-148265D01*
X108111Y-148250D01*
X107965Y-148381D01*
X107819Y-148491D01*
X107673Y-148593D01*
X107549Y-148673D01*
X107440Y-148731D01*
X107396Y-148761D01*
X107360Y-148783D01*
X107331Y-148797D01*
X107309Y-148812D01*
X107294Y-148819D01*
X107287D01*
X106704Y-148075D01*
X106755Y-148046D01*
X106813Y-148010D01*
X106937Y-147930D01*
X106995Y-147893D01*
X107039Y-147864D01*
X107068Y-147842D01*
X107083Y-147835D01*
X107170Y-147769D01*
X107258Y-147704D01*
X107323Y-147652D01*
X107389Y-147601D01*
X107433Y-147565D01*
X107469Y-147529D01*
X107491Y-147514D01*
X107498Y-147507D01*
X107418Y-147390D01*
X107352Y-147273D01*
X107331Y-147222D01*
X107309Y-147186D01*
X107301Y-147157D01*
X107294Y-147150D01*
X107258Y-147055D01*
X107221Y-146953D01*
X107177Y-146836D01*
X107148Y-146727D01*
X107112Y-146625D01*
X107090Y-146537D01*
X107083Y-146508D01*
X107075Y-146486D01*
X107068Y-146472D01*
Y-146464D01*
X107936Y-146267D01*
X107972Y-146391D01*
X108009Y-146501D01*
X108038Y-146603D01*
X108074Y-146683D01*
X108103Y-146749D01*
X108125Y-146800D01*
X108140Y-146829D01*
X108147Y-146836D01*
X108847Y-145903D01*
X108745Y-145837D01*
X108657Y-145779D01*
X108570Y-145713D01*
X108497Y-145655D01*
X108431Y-145604D01*
X108373Y-145553D01*
X108271Y-145458D01*
X108198Y-145385D01*
X108147Y-145327D01*
X108118Y-145298D01*
X108111Y-145283D01*
X108052Y-145181D01*
X108009Y-145072D01*
X107972Y-144977D01*
X107950Y-144890D01*
X107936Y-144809D01*
X107928Y-144751D01*
Y-144715D01*
Y-144700D01*
X107936Y-144613D01*
X107943Y-144525D01*
X107987Y-144372D01*
X108045Y-144234D01*
X108111Y-144110D01*
X108184Y-144015D01*
X108242Y-143942D01*
X108264Y-143920D01*
X108285Y-143898D01*
X108293Y-143891D01*
X108300Y-143884D01*
X108373Y-143825D01*
X108446Y-143774D01*
X108614Y-143687D01*
X108781Y-143628D01*
X108949Y-143592D01*
X109095Y-143563D01*
X109160Y-143555D01*
X109211D01*
X109255Y-143548D01*
X109445D01*
X109561Y-143563D01*
D02*
G37*
G36*
X104108Y-148688D02*
X103168D01*
Y-145363D01*
X101119Y-148688D01*
X100099D01*
Y-143643D01*
X101039D01*
Y-147040D01*
X103124Y-143643D01*
X104108D01*
Y-148688D01*
D02*
G37*
G36*
X86831Y-144299D02*
Y-145028D01*
X87276D01*
Y-145801D01*
X86831D01*
Y-147397D01*
Y-147492D01*
Y-147572D01*
Y-147652D01*
X86824Y-147718D01*
Y-147835D01*
X86817Y-147930D01*
X86809Y-148002D01*
Y-148046D01*
X86802Y-148075D01*
Y-148083D01*
X86787Y-148163D01*
X86765Y-148236D01*
X86744Y-148301D01*
X86722Y-148352D01*
X86700Y-148396D01*
X86685Y-148425D01*
X86678Y-148447D01*
X86671Y-148454D01*
X86627Y-148505D01*
X86576Y-148549D01*
X86474Y-148622D01*
X86430Y-148644D01*
X86394Y-148666D01*
X86365Y-148673D01*
X86357Y-148680D01*
X86277Y-148710D01*
X86197Y-148731D01*
X86117Y-148746D01*
X86044Y-148753D01*
X85978Y-148761D01*
X85927Y-148768D01*
X85883D01*
X85730Y-148761D01*
X85584Y-148746D01*
X85453Y-148724D01*
X85344Y-148695D01*
X85249Y-148673D01*
X85176Y-148651D01*
X85132Y-148637D01*
X85125Y-148629D01*
X85118D01*
X85205Y-147879D01*
X85293Y-147908D01*
X85373Y-147930D01*
X85439Y-147944D01*
X85497Y-147951D01*
X85541Y-147959D01*
X85570Y-147966D01*
X85599D01*
X85665Y-147959D01*
X85716Y-147944D01*
X85745Y-147930D01*
X85759Y-147922D01*
X85803Y-147879D01*
X85825Y-147842D01*
X85840Y-147813D01*
X85847Y-147798D01*
Y-147784D01*
X85854Y-147755D01*
Y-147689D01*
Y-147601D01*
X85861Y-147514D01*
Y-147426D01*
Y-147354D01*
Y-147325D01*
Y-147303D01*
Y-147288D01*
Y-147281D01*
Y-145801D01*
X85198D01*
Y-145028D01*
X85861D01*
Y-143730D01*
X86831Y-144299D01*
D02*
G37*
G36*
X120883Y-144955D02*
X121007Y-144970D01*
X121131Y-144999D01*
X121240Y-145028D01*
X121349Y-145065D01*
X121444Y-145108D01*
X121539Y-145159D01*
X121619Y-145203D01*
X121692Y-145254D01*
X121757Y-145305D01*
X121816Y-145349D01*
X121860Y-145385D01*
X121896Y-145414D01*
X121925Y-145444D01*
X121940Y-145458D01*
X121947Y-145466D01*
X122027Y-145568D01*
X122100Y-145677D01*
X122166Y-145786D01*
X122224Y-145903D01*
X122268Y-146027D01*
X122304Y-146143D01*
X122362Y-146370D01*
X122384Y-146479D01*
X122399Y-146574D01*
X122406Y-146661D01*
X122414Y-146734D01*
X122421Y-146800D01*
Y-146851D01*
Y-146880D01*
Y-146887D01*
X122414Y-147026D01*
X122406Y-147164D01*
X122384Y-147288D01*
X122362Y-147405D01*
X122341Y-147521D01*
X122304Y-147623D01*
X122275Y-147718D01*
X122239Y-147806D01*
X122209Y-147886D01*
X122173Y-147951D01*
X122144Y-148010D01*
X122122Y-148061D01*
X122093Y-148097D01*
X122078Y-148126D01*
X122071Y-148141D01*
X122064Y-148148D01*
X121969Y-148258D01*
X121874Y-148352D01*
X121765Y-148433D01*
X121648Y-148505D01*
X121531Y-148564D01*
X121415Y-148615D01*
X121298Y-148659D01*
X121181Y-148688D01*
X121080Y-148717D01*
X120977Y-148731D01*
X120883Y-148746D01*
X120802Y-148761D01*
X120737D01*
X120693Y-148768D01*
X120649D01*
X120438Y-148753D01*
X120241Y-148724D01*
X120073Y-148680D01*
X119928Y-148629D01*
X119862Y-148600D01*
X119811Y-148578D01*
X119760Y-148556D01*
X119723Y-148535D01*
X119694Y-148513D01*
X119665Y-148505D01*
X119658Y-148491D01*
X119651D01*
X119512Y-148374D01*
X119388Y-148250D01*
X119286Y-148112D01*
X119206Y-147980D01*
X119140Y-147864D01*
X119118Y-147813D01*
X119097Y-147769D01*
X119082Y-147733D01*
X119067Y-147704D01*
X119060Y-147689D01*
Y-147682D01*
X120022Y-147521D01*
X120059Y-147616D01*
X120095Y-147704D01*
X120132Y-147769D01*
X120176Y-147827D01*
X120205Y-147871D01*
X120234Y-147900D01*
X120256Y-147915D01*
X120263Y-147922D01*
X120321Y-147966D01*
X120387Y-147995D01*
X120452Y-148017D01*
X120511Y-148032D01*
X120562Y-148039D01*
X120606Y-148046D01*
X120642D01*
X120759Y-148039D01*
X120868Y-148010D01*
X120970Y-147973D01*
X121050Y-147930D01*
X121116Y-147886D01*
X121160Y-147849D01*
X121196Y-147820D01*
X121203Y-147813D01*
X121276Y-147718D01*
X121327Y-147609D01*
X121371Y-147492D01*
X121400Y-147390D01*
X121415Y-147288D01*
X121422Y-147215D01*
X121429Y-147186D01*
Y-147164D01*
Y-147150D01*
Y-147142D01*
X119009D01*
Y-146938D01*
X119024Y-146756D01*
X119046Y-146581D01*
X119075Y-146421D01*
X119111Y-146267D01*
X119148Y-146136D01*
X119191Y-146012D01*
X119235Y-145903D01*
X119279Y-145808D01*
X119323Y-145721D01*
X119359Y-145655D01*
X119395Y-145597D01*
X119425Y-145553D01*
X119447Y-145517D01*
X119461Y-145502D01*
X119468Y-145495D01*
X119556Y-145400D01*
X119658Y-145312D01*
X119760Y-145239D01*
X119862Y-145181D01*
X119971Y-145123D01*
X120081Y-145079D01*
X120183Y-145043D01*
X120285Y-145013D01*
X120380Y-144992D01*
X120467Y-144977D01*
X120547Y-144963D01*
X120613Y-144955D01*
X120671Y-144948D01*
X120751D01*
X120883Y-144955D01*
D02*
G37*
G36*
X89543Y-144955D02*
X89667Y-144970D01*
X89791Y-144999D01*
X89900Y-145028D01*
X90009Y-145065D01*
X90104Y-145108D01*
X90199Y-145159D01*
X90279Y-145203D01*
X90352Y-145254D01*
X90418Y-145305D01*
X90476Y-145349D01*
X90520Y-145385D01*
X90556Y-145414D01*
X90585Y-145444D01*
X90600Y-145458D01*
X90607Y-145466D01*
X90688Y-145568D01*
X90760Y-145677D01*
X90826Y-145786D01*
X90884Y-145903D01*
X90928Y-146027D01*
X90965Y-146143D01*
X91023Y-146370D01*
X91045Y-146479D01*
X91059Y-146574D01*
X91066Y-146661D01*
X91074Y-146734D01*
X91081Y-146800D01*
Y-146851D01*
Y-146880D01*
Y-146887D01*
X91074Y-147026D01*
X91066Y-147164D01*
X91045Y-147288D01*
X91023Y-147405D01*
X91001Y-147521D01*
X90965Y-147623D01*
X90935Y-147718D01*
X90899Y-147806D01*
X90870Y-147886D01*
X90833Y-147951D01*
X90804Y-148010D01*
X90782Y-148061D01*
X90753Y-148097D01*
X90738Y-148126D01*
X90731Y-148141D01*
X90724Y-148148D01*
X90629Y-148258D01*
X90534Y-148352D01*
X90425Y-148433D01*
X90308Y-148505D01*
X90192Y-148564D01*
X90075Y-148615D01*
X89959Y-148659D01*
X89842Y-148688D01*
X89740Y-148717D01*
X89638Y-148731D01*
X89543Y-148746D01*
X89463Y-148761D01*
X89397D01*
X89353Y-148768D01*
X89310D01*
X89098Y-148753D01*
X88901Y-148724D01*
X88734Y-148680D01*
X88588Y-148629D01*
X88522Y-148600D01*
X88471Y-148578D01*
X88420Y-148556D01*
X88384Y-148535D01*
X88355Y-148513D01*
X88326Y-148505D01*
X88318Y-148491D01*
X88311D01*
X88172Y-148374D01*
X88048Y-148250D01*
X87946Y-148112D01*
X87866Y-147981D01*
X87801Y-147864D01*
X87779Y-147813D01*
X87757Y-147769D01*
X87742Y-147733D01*
X87728Y-147704D01*
X87720Y-147689D01*
Y-147682D01*
X88683Y-147521D01*
X88719Y-147616D01*
X88756Y-147704D01*
X88792Y-147769D01*
X88836Y-147827D01*
X88865Y-147871D01*
X88894Y-147900D01*
X88916Y-147915D01*
X88923Y-147922D01*
X88982Y-147966D01*
X89047Y-147995D01*
X89113Y-148017D01*
X89171Y-148032D01*
X89222Y-148039D01*
X89266Y-148046D01*
X89302D01*
X89419Y-148039D01*
X89528Y-148010D01*
X89630Y-147973D01*
X89711Y-147930D01*
X89776Y-147886D01*
X89820Y-147849D01*
X89856Y-147820D01*
X89864Y-147813D01*
X89937Y-147718D01*
X89988Y-147609D01*
X90031Y-147492D01*
X90061Y-147390D01*
X90075Y-147288D01*
X90082Y-147215D01*
X90090Y-147186D01*
Y-147164D01*
Y-147150D01*
Y-147142D01*
X87669D01*
Y-146938D01*
X87684Y-146756D01*
X87706Y-146581D01*
X87735Y-146421D01*
X87771Y-146267D01*
X87808Y-146136D01*
X87852Y-146012D01*
X87895Y-145903D01*
X87939Y-145808D01*
X87983Y-145721D01*
X88019Y-145655D01*
X88056Y-145597D01*
X88085Y-145553D01*
X88107Y-145517D01*
X88121Y-145502D01*
X88129Y-145495D01*
X88216Y-145400D01*
X88318Y-145312D01*
X88420Y-145239D01*
X88522Y-145181D01*
X88632Y-145123D01*
X88741Y-145079D01*
X88843Y-145043D01*
X88945Y-145013D01*
X89040Y-144992D01*
X89127Y-144977D01*
X89208Y-144963D01*
X89273Y-144955D01*
X89332Y-144948D01*
X89412D01*
X89543Y-144955D01*
D02*
G37*
G36*
X132335Y-144955D02*
X132466Y-144977D01*
X132583Y-145006D01*
X132700Y-145043D01*
X132809Y-145094D01*
X132904Y-145145D01*
X132999Y-145203D01*
X133079Y-145254D01*
X133152Y-145312D01*
X133217Y-145371D01*
X133276Y-145422D01*
X133319Y-145473D01*
X133356Y-145509D01*
X133385Y-145538D01*
X133400Y-145560D01*
X133407Y-145568D01*
Y-145028D01*
X134303D01*
Y-148688D01*
X133334D01*
Y-147040D01*
Y-146931D01*
Y-146829D01*
X133327Y-146734D01*
X133319Y-146654D01*
Y-146574D01*
X133312Y-146508D01*
X133305Y-146442D01*
X133298Y-146391D01*
X133283Y-146304D01*
X133276Y-146246D01*
X133261Y-146209D01*
Y-146202D01*
X133232Y-146122D01*
X133188Y-146041D01*
X133144Y-145983D01*
X133101Y-145925D01*
X133057Y-145888D01*
X133020Y-145852D01*
X132999Y-145837D01*
X132991Y-145830D01*
X132911Y-145786D01*
X132831Y-145750D01*
X132758Y-145728D01*
X132685Y-145706D01*
X132627Y-145699D01*
X132583Y-145692D01*
X132539D01*
X132466Y-145699D01*
X132401Y-145706D01*
X132350Y-145721D01*
X132299Y-145742D01*
X132255Y-145764D01*
X132226Y-145779D01*
X132211Y-145786D01*
X132204Y-145794D01*
X132153Y-145830D01*
X132116Y-145874D01*
X132051Y-145961D01*
X132029Y-146005D01*
X132015Y-146034D01*
X132000Y-146056D01*
Y-146063D01*
X131985Y-146100D01*
X131978Y-146143D01*
X131963Y-146253D01*
X131949Y-146384D01*
X131942Y-146508D01*
X131934Y-146632D01*
Y-146683D01*
Y-146734D01*
Y-146770D01*
Y-146800D01*
Y-146821D01*
Y-146829D01*
Y-148688D01*
X130965D01*
Y-146421D01*
Y-146267D01*
X130972Y-146143D01*
X130979Y-146027D01*
X130994Y-145939D01*
X131001Y-145867D01*
X131016Y-145815D01*
X131023Y-145779D01*
Y-145772D01*
X131045Y-145684D01*
X131074Y-145611D01*
X131103Y-145538D01*
X131140Y-145480D01*
X131169Y-145429D01*
X131191Y-145393D01*
X131205Y-145371D01*
X131213Y-145363D01*
X131271Y-145298D01*
X131336Y-145239D01*
X131402Y-145188D01*
X131468Y-145145D01*
X131526Y-145108D01*
X131577Y-145086D01*
X131606Y-145072D01*
X131621Y-145065D01*
X131723Y-145028D01*
X131825Y-144999D01*
X131920Y-144977D01*
X132007Y-144963D01*
X132087Y-144955D01*
X132153Y-144948D01*
X132204D01*
X132335Y-144955D01*
D02*
G37*
G36*
X126066Y-148688D02*
X125096D01*
Y-143643D01*
X126066D01*
Y-148688D01*
D02*
G37*
G36*
X124105D02*
X123135D01*
Y-143643D01*
X124105D01*
Y-148688D01*
D02*
G37*
G36*
X97569Y-144955D02*
X97751Y-144984D01*
X97919Y-145021D01*
X98065Y-145065D01*
X98123Y-145094D01*
X98182Y-145116D01*
X98233Y-145130D01*
X98269Y-145152D01*
X98305Y-145167D01*
X98327Y-145181D01*
X98342Y-145188D01*
X98349D01*
X98502Y-145291D01*
X98634Y-145400D01*
X98750Y-145517D01*
X98845Y-145626D01*
X98918Y-145728D01*
X98976Y-145808D01*
X98998Y-145837D01*
X99005Y-145859D01*
X99020Y-145874D01*
Y-145881D01*
X99100Y-146049D01*
X99151Y-146216D01*
X99195Y-146370D01*
X99224Y-146508D01*
X99239Y-146632D01*
X99246Y-146683D01*
Y-146727D01*
X99253Y-146756D01*
Y-146785D01*
Y-146800D01*
Y-146807D01*
X99246Y-147033D01*
X99217Y-147244D01*
X99180Y-147426D01*
X99158Y-147507D01*
X99137Y-147580D01*
X99115Y-147645D01*
X99093Y-147704D01*
X99071Y-147755D01*
X99056Y-147798D01*
X99042Y-147835D01*
X99027Y-147857D01*
X99020Y-147871D01*
Y-147879D01*
X98918Y-148032D01*
X98808Y-148163D01*
X98692Y-148279D01*
X98583Y-148374D01*
X98480Y-148447D01*
X98400Y-148498D01*
X98371Y-148520D01*
X98349Y-148535D01*
X98335Y-148542D01*
X98327D01*
X98152Y-148615D01*
X97985Y-148673D01*
X97824Y-148710D01*
X97671Y-148739D01*
X97547Y-148753D01*
X97496Y-148761D01*
X97453D01*
X97416Y-148768D01*
X97365D01*
X97212Y-148761D01*
X97074Y-148746D01*
X96935Y-148717D01*
X96811Y-148680D01*
X96687Y-148644D01*
X96578Y-148600D01*
X96476Y-148549D01*
X96381Y-148498D01*
X96301Y-148447D01*
X96228Y-148396D01*
X96162Y-148352D01*
X96111Y-148316D01*
X96068Y-148279D01*
X96038Y-148250D01*
X96024Y-148236D01*
X96016Y-148228D01*
X95922Y-148119D01*
X95841Y-148010D01*
X95769Y-147900D01*
X95703Y-147784D01*
X95652Y-147667D01*
X95608Y-147550D01*
X95572Y-147441D01*
X95543Y-147332D01*
X95521Y-147237D01*
X95506Y-147142D01*
X95492Y-147062D01*
X95484Y-146989D01*
X95477Y-146931D01*
Y-146887D01*
Y-146858D01*
Y-146851D01*
X95484Y-146697D01*
X95499Y-146552D01*
X95528Y-146421D01*
X95557Y-146289D01*
X95601Y-146173D01*
X95645Y-146056D01*
X95696Y-145954D01*
X95739Y-145859D01*
X95790Y-145779D01*
X95841Y-145699D01*
X95885Y-145641D01*
X95929Y-145582D01*
X95958Y-145546D01*
X95987Y-145509D01*
X96002Y-145495D01*
X96009Y-145487D01*
X96111Y-145393D01*
X96221Y-145312D01*
X96330Y-145239D01*
X96447Y-145174D01*
X96563Y-145123D01*
X96673Y-145079D01*
X96782Y-145043D01*
X96891Y-145013D01*
X96986Y-144992D01*
X97081Y-144977D01*
X97161Y-144963D01*
X97234Y-144955D01*
X97292Y-144948D01*
X97372D01*
X97569Y-144955D01*
D02*
G37*
G36*
X77354Y-143621D02*
X77478Y-143636D01*
X77602Y-143665D01*
X77711Y-143694D01*
X77813Y-143738D01*
X77908Y-143781D01*
X77988Y-143825D01*
X78069Y-143876D01*
X78134Y-143927D01*
X78200Y-143971D01*
X78251Y-144015D01*
X78287Y-144059D01*
X78324Y-144088D01*
X78346Y-144117D01*
X78360Y-144131D01*
X78367Y-144139D01*
X78455Y-144263D01*
X78528Y-144409D01*
X78593Y-144562D01*
X78652Y-144722D01*
X78695Y-144890D01*
X78739Y-145065D01*
X78768Y-145232D01*
X78798Y-145400D01*
X78812Y-145560D01*
X78827Y-145706D01*
X78841Y-145845D01*
X78848Y-145961D01*
X78856Y-146056D01*
Y-146129D01*
Y-146158D01*
Y-146180D01*
Y-146187D01*
Y-146195D01*
X78848Y-146457D01*
X78834Y-146697D01*
X78812Y-146923D01*
X78783Y-147128D01*
X78754Y-147310D01*
X78717Y-147477D01*
X78673Y-147623D01*
X78630Y-147755D01*
X78593Y-147864D01*
X78550Y-147966D01*
X78513Y-148046D01*
X78477Y-148112D01*
X78455Y-148155D01*
X78433Y-148192D01*
X78418Y-148214D01*
X78411Y-148221D01*
X78324Y-148323D01*
X78229Y-148403D01*
X78134Y-148484D01*
X78032Y-148542D01*
X77937Y-148600D01*
X77835Y-148644D01*
X77740Y-148680D01*
X77646Y-148710D01*
X77558Y-148739D01*
X77478Y-148753D01*
X77405Y-148768D01*
X77347Y-148775D01*
X77296D01*
X77252Y-148783D01*
X77223D01*
X77092Y-148775D01*
X76968Y-148761D01*
X76844Y-148731D01*
X76734Y-148702D01*
X76632Y-148666D01*
X76538Y-148622D01*
X76457Y-148571D01*
X76377Y-148520D01*
X76312Y-148476D01*
X76246Y-148425D01*
X76195Y-148381D01*
X76151Y-148345D01*
X76122Y-148316D01*
X76100Y-148287D01*
X76086Y-148272D01*
X76078Y-148265D01*
X75991Y-148141D01*
X75918Y-147995D01*
X75845Y-147842D01*
X75794Y-147674D01*
X75743Y-147507D01*
X75706Y-147339D01*
X75670Y-147164D01*
X75641Y-146996D01*
X75626Y-146836D01*
X75612Y-146690D01*
X75597Y-146552D01*
X75590Y-146435D01*
X75583Y-146340D01*
Y-146267D01*
Y-146238D01*
Y-146216D01*
Y-146209D01*
Y-146202D01*
X75590Y-145939D01*
X75604Y-145699D01*
X75626Y-145480D01*
X75663Y-145276D01*
X75699Y-145086D01*
X75736Y-144919D01*
X75787Y-144766D01*
X75830Y-144634D01*
X75874Y-144510D01*
X75918Y-144416D01*
X75962Y-144328D01*
X75998Y-144255D01*
X76035Y-144204D01*
X76056Y-144168D01*
X76071Y-144146D01*
X76078Y-144139D01*
X76158Y-144044D01*
X76246Y-143964D01*
X76341Y-143898D01*
X76436Y-143833D01*
X76530Y-143781D01*
X76625Y-143745D01*
X76713Y-143709D01*
X76807Y-143679D01*
X76895Y-143658D01*
X76968Y-143643D01*
X77041Y-143628D01*
X77099Y-143621D01*
X77150Y-143614D01*
X77223D01*
X77354Y-143621D01*
D02*
G37*
G36*
X278837Y-145213D02*
X276903Y-145202D01*
X276629D01*
X276509Y-145192D01*
X276345D01*
X276280Y-145180D01*
X276236D01*
X276345Y-145290D01*
X276455Y-145410D01*
X276586Y-145552D01*
X276706Y-145683D01*
X276815Y-145803D01*
X276903Y-145902D01*
X276968Y-145978D01*
X276979Y-145989D01*
X276990Y-146000D01*
X279034Y-148350D01*
Y-149498D01*
X274137D01*
Y-148219D01*
X276564D01*
X276684Y-148230D01*
X276815D01*
X276936Y-148241D01*
X277034D01*
X277078Y-148252D01*
X277132D01*
X276400Y-147454D01*
X274301Y-145038D01*
Y-144011D01*
X278837D01*
Y-145213D01*
D02*
G37*
G36*
X251228Y-145213D02*
X249293Y-145202D01*
X249020D01*
X248900Y-145192D01*
X248736D01*
X248671Y-145180D01*
X248627D01*
X248736Y-145290D01*
X248845Y-145410D01*
X248976Y-145552D01*
X249097Y-145683D01*
X249206Y-145803D01*
X249293Y-145902D01*
X249359Y-145978D01*
X249370Y-145989D01*
X249381Y-146000D01*
X251425Y-148350D01*
Y-149498D01*
X246528D01*
Y-148219D01*
X248955D01*
X249075Y-148230D01*
X249206D01*
X249326Y-148241D01*
X249425D01*
X249468Y-148252D01*
X249523D01*
X248791Y-147454D01*
X246692Y-145038D01*
Y-144011D01*
X251228D01*
Y-145213D01*
D02*
G37*
G36*
X223619D02*
X221684Y-145202D01*
X221411D01*
X221291Y-145192D01*
X221127D01*
X221061Y-145180D01*
X221018D01*
X221127Y-145290D01*
X221236Y-145410D01*
X221367Y-145552D01*
X221488Y-145683D01*
X221597Y-145803D01*
X221684Y-145902D01*
X221750Y-145978D01*
X221761Y-145989D01*
X221772Y-146000D01*
X223816Y-148350D01*
Y-149498D01*
X218919D01*
Y-148219D01*
X221345D01*
X221466Y-148230D01*
X221597D01*
X221717Y-148241D01*
X221815D01*
X221859Y-148252D01*
X221914D01*
X221182Y-147454D01*
X219083Y-145038D01*
Y-144011D01*
X223619D01*
Y-145213D01*
D02*
G37*
G36*
X296063Y-145978D02*
Y-146208D01*
X296052Y-146426D01*
Y-146634D01*
X296041Y-146820D01*
X296030Y-146995D01*
X296019Y-147148D01*
X296008Y-147290D01*
X295987Y-147421D01*
X295976Y-147530D01*
X295965Y-147629D01*
X295954Y-147716D01*
X295943Y-147782D01*
X295932Y-147836D01*
Y-147869D01*
X295921Y-147891D01*
Y-147902D01*
X295866Y-148066D01*
X295812Y-148219D01*
X295735Y-148361D01*
X295670Y-148481D01*
X295604Y-148591D01*
X295549Y-148678D01*
X295506Y-148722D01*
X295495Y-148744D01*
X295363Y-148886D01*
X295221Y-149017D01*
X295068Y-149126D01*
X294926Y-149225D01*
X294806Y-149301D01*
X294697Y-149356D01*
X294631Y-149389D01*
X294620Y-149399D01*
X294609D01*
X294500Y-149443D01*
X294380Y-149476D01*
X294107Y-149542D01*
X293833Y-149585D01*
X293571Y-149607D01*
X293451Y-149618D01*
X293331Y-149629D01*
X293232D01*
X293134Y-149640D01*
X292959D01*
X292642Y-149629D01*
X292358Y-149607D01*
X292106Y-149564D01*
X291899Y-149520D01*
X291811Y-149509D01*
X291724Y-149487D01*
X291658Y-149465D01*
X291603Y-149443D01*
X291560Y-149432D01*
X291527Y-149421D01*
X291516Y-149410D01*
X291505D01*
X291308Y-149323D01*
X291134Y-149214D01*
X290981Y-149115D01*
X290849Y-149017D01*
X290751Y-148930D01*
X290674Y-148864D01*
X290631Y-148820D01*
X290620Y-148798D01*
X290500Y-148645D01*
X290401Y-148481D01*
X290325Y-148328D01*
X290259Y-148175D01*
X290215Y-148044D01*
X290183Y-147935D01*
X290172Y-147902D01*
Y-147869D01*
X290161Y-147858D01*
Y-147847D01*
X290139Y-147727D01*
X290117Y-147596D01*
X290095Y-147454D01*
X290084Y-147312D01*
X290062Y-146984D01*
X290041Y-146667D01*
Y-146525D01*
Y-146383D01*
X290030Y-146252D01*
Y-146142D01*
Y-146055D01*
Y-145978D01*
Y-145935D01*
Y-145924D01*
Y-141934D01*
X291560D01*
Y-146131D01*
Y-146295D01*
Y-146448D01*
X291571Y-146590D01*
Y-146722D01*
X291582Y-146831D01*
Y-146940D01*
X291593Y-147039D01*
Y-147126D01*
X291615Y-147257D01*
X291625Y-147356D01*
X291636Y-147410D01*
Y-147432D01*
X291669Y-147574D01*
X291724Y-147694D01*
X291789Y-147804D01*
X291855Y-147902D01*
X291920Y-147979D01*
X291975Y-148033D01*
X292019Y-148066D01*
X292030Y-148077D01*
X292161Y-148164D01*
X292325Y-148230D01*
X292478Y-148274D01*
X292642Y-148307D01*
X292784Y-148328D01*
X292893Y-148339D01*
X293003D01*
X293232Y-148328D01*
X293429Y-148296D01*
X293604Y-148252D01*
X293757Y-148197D01*
X293866Y-148153D01*
X293953Y-148110D01*
X293997Y-148077D01*
X294019Y-148066D01*
X294139Y-147957D01*
X294238Y-147826D01*
X294325Y-147705D01*
X294380Y-147585D01*
X294424Y-147476D01*
X294456Y-147388D01*
X294478Y-147334D01*
Y-147312D01*
X294489Y-147246D01*
X294500Y-147181D01*
Y-147093D01*
X294511Y-146995D01*
X294522Y-146787D01*
Y-146569D01*
X294533Y-146372D01*
Y-146284D01*
Y-146197D01*
Y-146131D01*
Y-146088D01*
Y-146055D01*
Y-146044D01*
Y-141934D01*
X296063D01*
Y-145978D01*
D02*
G37*
G36*
X281898Y-142918D02*
Y-144011D01*
X282564D01*
Y-145170D01*
X281898D01*
Y-147563D01*
Y-147705D01*
Y-147826D01*
Y-147946D01*
X281887Y-148044D01*
Y-148219D01*
X281876Y-148361D01*
X281865Y-148470D01*
Y-148536D01*
X281854Y-148580D01*
Y-148591D01*
X281832Y-148711D01*
X281799Y-148820D01*
X281767Y-148919D01*
X281734Y-148995D01*
X281701Y-149061D01*
X281679Y-149104D01*
X281668Y-149137D01*
X281657Y-149148D01*
X281592Y-149225D01*
X281515Y-149290D01*
X281362Y-149399D01*
X281297Y-149432D01*
X281242Y-149465D01*
X281198Y-149476D01*
X281187Y-149487D01*
X281067Y-149531D01*
X280947Y-149564D01*
X280827Y-149585D01*
X280717Y-149596D01*
X280619Y-149607D01*
X280542Y-149618D01*
X280477D01*
X280247Y-149607D01*
X280029Y-149585D01*
X279832Y-149553D01*
X279668Y-149509D01*
X279526Y-149476D01*
X279417Y-149443D01*
X279351Y-149421D01*
X279340Y-149410D01*
X279329D01*
X279460Y-148285D01*
X279591Y-148328D01*
X279712Y-148361D01*
X279810Y-148383D01*
X279897Y-148394D01*
X279963Y-148405D01*
X280007Y-148416D01*
X280050D01*
X280149Y-148405D01*
X280225Y-148383D01*
X280269Y-148361D01*
X280291Y-148350D01*
X280357Y-148285D01*
X280389Y-148230D01*
X280411Y-148186D01*
X280422Y-148164D01*
Y-148143D01*
X280433Y-148099D01*
Y-148001D01*
Y-147869D01*
X280444Y-147738D01*
Y-147607D01*
Y-147498D01*
Y-147454D01*
Y-147421D01*
Y-147399D01*
Y-147388D01*
Y-145170D01*
X279449D01*
Y-144011D01*
X280444D01*
Y-142066D01*
X281898Y-142918D01*
D02*
G37*
G36*
X254289Y-142918D02*
Y-144011D01*
X254955D01*
Y-145170D01*
X254289D01*
Y-147563D01*
Y-147705D01*
Y-147826D01*
Y-147946D01*
X254278Y-148044D01*
Y-148219D01*
X254267Y-148361D01*
X254256Y-148470D01*
Y-148536D01*
X254245Y-148580D01*
Y-148591D01*
X254223Y-148711D01*
X254190Y-148820D01*
X254157Y-148919D01*
X254125Y-148995D01*
X254092Y-149061D01*
X254070Y-149104D01*
X254059Y-149137D01*
X254048Y-149148D01*
X253982Y-149225D01*
X253906Y-149290D01*
X253753Y-149399D01*
X253687Y-149432D01*
X253633Y-149465D01*
X253589Y-149476D01*
X253578Y-149487D01*
X253458Y-149531D01*
X253338Y-149564D01*
X253217Y-149585D01*
X253108Y-149596D01*
X253010Y-149607D01*
X252933Y-149618D01*
X252868D01*
X252638Y-149607D01*
X252419Y-149585D01*
X252223Y-149553D01*
X252059Y-149509D01*
X251917Y-149476D01*
X251807Y-149443D01*
X251742Y-149421D01*
X251731Y-149410D01*
X251720D01*
X251851Y-148285D01*
X251982Y-148328D01*
X252102Y-148361D01*
X252201Y-148383D01*
X252288Y-148394D01*
X252354Y-148405D01*
X252398Y-148416D01*
X252441D01*
X252540Y-148405D01*
X252616Y-148383D01*
X252660Y-148361D01*
X252682Y-148350D01*
X252747Y-148285D01*
X252780Y-148230D01*
X252802Y-148186D01*
X252813Y-148164D01*
Y-148143D01*
X252824Y-148099D01*
Y-148001D01*
Y-147869D01*
X252835Y-147738D01*
Y-147607D01*
Y-147498D01*
Y-147454D01*
Y-147421D01*
Y-147399D01*
Y-147388D01*
Y-145170D01*
X251840D01*
Y-144011D01*
X252835D01*
Y-142066D01*
X254289Y-142918D01*
D02*
G37*
G36*
X226679D02*
Y-144011D01*
X227346D01*
Y-145170D01*
X226679D01*
Y-147563D01*
Y-147705D01*
Y-147826D01*
Y-147946D01*
X226668Y-148044D01*
Y-148219D01*
X226658Y-148361D01*
X226647Y-148470D01*
Y-148536D01*
X226636Y-148580D01*
Y-148591D01*
X226614Y-148711D01*
X226581Y-148820D01*
X226548Y-148919D01*
X226515Y-148995D01*
X226483Y-149061D01*
X226461Y-149104D01*
X226450Y-149137D01*
X226439Y-149148D01*
X226373Y-149225D01*
X226297Y-149290D01*
X226144Y-149399D01*
X226078Y-149432D01*
X226024Y-149465D01*
X225980Y-149476D01*
X225969Y-149487D01*
X225849Y-149531D01*
X225728Y-149564D01*
X225608Y-149585D01*
X225499Y-149596D01*
X225400Y-149607D01*
X225324Y-149618D01*
X225258D01*
X225029Y-149607D01*
X224810Y-149585D01*
X224614Y-149553D01*
X224450Y-149509D01*
X224307Y-149476D01*
X224198Y-149443D01*
X224133Y-149421D01*
X224122Y-149410D01*
X224111D01*
X224242Y-148285D01*
X224373Y-148328D01*
X224493Y-148361D01*
X224592Y-148383D01*
X224679Y-148394D01*
X224745Y-148405D01*
X224788Y-148416D01*
X224832D01*
X224931Y-148405D01*
X225007Y-148383D01*
X225051Y-148361D01*
X225073Y-148350D01*
X225138Y-148285D01*
X225171Y-148230D01*
X225193Y-148186D01*
X225204Y-148164D01*
Y-148143D01*
X225215Y-148099D01*
Y-148001D01*
Y-147869D01*
X225226Y-147738D01*
Y-147607D01*
Y-147498D01*
Y-147454D01*
Y-147421D01*
Y-147399D01*
Y-147388D01*
Y-145170D01*
X224231D01*
Y-144011D01*
X225226D01*
Y-142066D01*
X226679Y-142918D01*
D02*
G37*
G36*
X267306Y-147487D02*
X267295Y-147760D01*
X267273Y-148001D01*
X267241Y-148208D01*
X267208Y-148383D01*
X267175Y-148525D01*
X267142Y-148624D01*
X267120Y-148678D01*
X267109Y-148700D01*
X267022Y-148853D01*
X266924Y-148995D01*
X266825Y-149104D01*
X266716Y-149203D01*
X266629Y-149279D01*
X266541Y-149334D01*
X266497Y-149367D01*
X266476Y-149378D01*
X266312Y-149454D01*
X266137Y-149520D01*
X265973Y-149564D01*
X265809Y-149585D01*
X265678Y-149607D01*
X265579Y-149618D01*
X265481D01*
X265284Y-149607D01*
X265098Y-149585D01*
X264923Y-149542D01*
X264770Y-149498D01*
X264639Y-149454D01*
X264541Y-149410D01*
X264475Y-149389D01*
X264453Y-149378D01*
X264279Y-149279D01*
X264125Y-149159D01*
X263983Y-149050D01*
X263874Y-148930D01*
X263776Y-148831D01*
X263710Y-148755D01*
X263667Y-148700D01*
X263655Y-148678D01*
Y-149498D01*
X262311D01*
Y-144011D01*
X263765D01*
Y-146328D01*
Y-146536D01*
Y-146722D01*
X263776Y-146897D01*
X263787Y-147050D01*
Y-147192D01*
X263798Y-147312D01*
X263809Y-147410D01*
X263820Y-147509D01*
X263830Y-147585D01*
X263841Y-147640D01*
X263852Y-147694D01*
Y-147738D01*
X263874Y-147793D01*
Y-147804D01*
X263918Y-147913D01*
X263983Y-148011D01*
X264049Y-148088D01*
X264115Y-148164D01*
X264180Y-148230D01*
X264235Y-148274D01*
X264268Y-148296D01*
X264279Y-148307D01*
X264388Y-148372D01*
X264508Y-148416D01*
X264617Y-148459D01*
X264727Y-148481D01*
X264814Y-148492D01*
X264880Y-148503D01*
X264945D01*
X265066Y-148492D01*
X265164Y-148481D01*
X265262Y-148459D01*
X265339Y-148427D01*
X265404Y-148405D01*
X265448Y-148383D01*
X265481Y-148372D01*
X265492Y-148361D01*
X265568Y-148296D01*
X265623Y-148230D01*
X265678Y-148164D01*
X265710Y-148099D01*
X265743Y-148033D01*
X265765Y-147990D01*
X265776Y-147957D01*
Y-147946D01*
X265787Y-147891D01*
X265798Y-147815D01*
X265809Y-147716D01*
X265820Y-147618D01*
X265831Y-147388D01*
X265842Y-147137D01*
X265852Y-146907D01*
Y-146809D01*
Y-146722D01*
Y-146645D01*
Y-146590D01*
Y-146547D01*
Y-146536D01*
Y-144011D01*
X267306D01*
Y-147487D01*
D02*
G37*
G36*
X239697D02*
X239686Y-147760D01*
X239664Y-148001D01*
X239631Y-148208D01*
X239599Y-148383D01*
X239566Y-148525D01*
X239533Y-148624D01*
X239511Y-148678D01*
X239500Y-148700D01*
X239413Y-148853D01*
X239314Y-148995D01*
X239216Y-149104D01*
X239107Y-149203D01*
X239019Y-149279D01*
X238932Y-149334D01*
X238888Y-149367D01*
X238866Y-149378D01*
X238702Y-149454D01*
X238527Y-149520D01*
X238364Y-149564D01*
X238200Y-149585D01*
X238068Y-149607D01*
X237970Y-149618D01*
X237872D01*
X237675Y-149607D01*
X237489Y-149585D01*
X237314Y-149542D01*
X237161Y-149498D01*
X237030Y-149454D01*
X236932Y-149410D01*
X236866Y-149389D01*
X236844Y-149378D01*
X236669Y-149279D01*
X236516Y-149159D01*
X236374Y-149050D01*
X236265Y-148930D01*
X236167Y-148831D01*
X236101Y-148755D01*
X236057Y-148700D01*
X236046Y-148678D01*
Y-149498D01*
X234702D01*
Y-144011D01*
X236156D01*
Y-146328D01*
Y-146536D01*
Y-146722D01*
X236167Y-146897D01*
X236177Y-147050D01*
Y-147192D01*
X236189Y-147312D01*
X236199Y-147410D01*
X236210Y-147509D01*
X236221Y-147585D01*
X236232Y-147640D01*
X236243Y-147694D01*
Y-147738D01*
X236265Y-147793D01*
Y-147804D01*
X236309Y-147913D01*
X236374Y-148011D01*
X236440Y-148088D01*
X236505Y-148164D01*
X236571Y-148230D01*
X236626Y-148274D01*
X236658Y-148296D01*
X236669Y-148307D01*
X236779Y-148372D01*
X236899Y-148416D01*
X237008Y-148459D01*
X237118Y-148481D01*
X237205Y-148492D01*
X237270Y-148503D01*
X237336D01*
X237456Y-148492D01*
X237555Y-148481D01*
X237653Y-148459D01*
X237730Y-148427D01*
X237795Y-148405D01*
X237839Y-148383D01*
X237872Y-148372D01*
X237883Y-148361D01*
X237959Y-148296D01*
X238014Y-148230D01*
X238068Y-148164D01*
X238101Y-148099D01*
X238134Y-148033D01*
X238156Y-147990D01*
X238167Y-147957D01*
Y-147946D01*
X238178Y-147891D01*
X238189Y-147815D01*
X238200Y-147716D01*
X238211Y-147618D01*
X238221Y-147388D01*
X238232Y-147137D01*
X238243Y-146907D01*
Y-146809D01*
Y-146722D01*
Y-146645D01*
Y-146590D01*
Y-146547D01*
Y-146536D01*
Y-144011D01*
X239697D01*
Y-147487D01*
D02*
G37*
G36*
X285494Y-143902D02*
X285690Y-143935D01*
X285865Y-143978D01*
X286040Y-144033D01*
X286204Y-144109D01*
X286346Y-144186D01*
X286488Y-144273D01*
X286609Y-144350D01*
X286718Y-144437D01*
X286816Y-144525D01*
X286904Y-144601D01*
X286969Y-144678D01*
X287024Y-144732D01*
X287068Y-144776D01*
X287089Y-144809D01*
X287100Y-144820D01*
Y-144011D01*
X288445D01*
Y-149498D01*
X286991D01*
Y-147028D01*
Y-146864D01*
Y-146711D01*
X286980Y-146569D01*
X286969Y-146448D01*
Y-146328D01*
X286958Y-146230D01*
X286947Y-146131D01*
X286936Y-146055D01*
X286915Y-145924D01*
X286904Y-145836D01*
X286882Y-145782D01*
Y-145771D01*
X286838Y-145650D01*
X286772Y-145530D01*
X286707Y-145443D01*
X286641Y-145355D01*
X286576Y-145301D01*
X286521Y-145246D01*
X286488Y-145224D01*
X286477Y-145213D01*
X286357Y-145148D01*
X286237Y-145093D01*
X286128Y-145060D01*
X286018Y-145027D01*
X285931Y-145017D01*
X285865Y-145006D01*
X285800D01*
X285690Y-145017D01*
X285592Y-145027D01*
X285515Y-145049D01*
X285439Y-145082D01*
X285373Y-145115D01*
X285330Y-145137D01*
X285308Y-145148D01*
X285297Y-145159D01*
X285220Y-145213D01*
X285166Y-145279D01*
X285067Y-145410D01*
X285035Y-145476D01*
X285013Y-145519D01*
X284991Y-145552D01*
Y-145563D01*
X284969Y-145618D01*
X284958Y-145683D01*
X284936Y-145847D01*
X284914Y-146044D01*
X284904Y-146230D01*
X284893Y-146416D01*
Y-146492D01*
Y-146569D01*
Y-146623D01*
Y-146667D01*
Y-146700D01*
Y-146711D01*
Y-149498D01*
X283439D01*
Y-146099D01*
Y-145869D01*
X283450Y-145683D01*
X283461Y-145508D01*
X283483Y-145377D01*
X283493Y-145268D01*
X283515Y-145192D01*
X283526Y-145137D01*
Y-145126D01*
X283559Y-144995D01*
X283603Y-144885D01*
X283646Y-144776D01*
X283701Y-144689D01*
X283745Y-144612D01*
X283778Y-144557D01*
X283800Y-144525D01*
X283810Y-144514D01*
X283898Y-144415D01*
X283996Y-144328D01*
X284095Y-144252D01*
X284193Y-144186D01*
X284280Y-144131D01*
X284357Y-144098D01*
X284401Y-144077D01*
X284422Y-144066D01*
X284576Y-144011D01*
X284729Y-143967D01*
X284871Y-143935D01*
X285002Y-143913D01*
X285122Y-143902D01*
X285220Y-143891D01*
X285297D01*
X285494Y-143902D01*
D02*
G37*
G36*
X257885Y-143902D02*
X258081Y-143935D01*
X258256Y-143978D01*
X258431Y-144033D01*
X258595Y-144109D01*
X258737Y-144186D01*
X258879Y-144273D01*
X258999Y-144350D01*
X259109Y-144437D01*
X259207Y-144525D01*
X259295Y-144601D01*
X259360Y-144678D01*
X259415Y-144732D01*
X259458Y-144776D01*
X259480Y-144809D01*
X259491Y-144820D01*
Y-144011D01*
X260836D01*
Y-149498D01*
X259382D01*
Y-147028D01*
Y-146864D01*
Y-146711D01*
X259371Y-146569D01*
X259360Y-146448D01*
Y-146328D01*
X259349Y-146230D01*
X259338Y-146131D01*
X259327Y-146055D01*
X259305Y-145924D01*
X259295Y-145836D01*
X259273Y-145782D01*
Y-145771D01*
X259229Y-145650D01*
X259163Y-145530D01*
X259098Y-145443D01*
X259032Y-145355D01*
X258967Y-145301D01*
X258912Y-145246D01*
X258879Y-145224D01*
X258868Y-145213D01*
X258748Y-145148D01*
X258628Y-145093D01*
X258518Y-145060D01*
X258409Y-145027D01*
X258322Y-145017D01*
X258256Y-145006D01*
X258190D01*
X258081Y-145017D01*
X257983Y-145027D01*
X257906Y-145049D01*
X257830Y-145082D01*
X257764Y-145115D01*
X257721Y-145137D01*
X257699Y-145148D01*
X257688Y-145159D01*
X257611Y-145213D01*
X257557Y-145279D01*
X257458Y-145410D01*
X257425Y-145476D01*
X257404Y-145519D01*
X257382Y-145552D01*
Y-145563D01*
X257360Y-145618D01*
X257349Y-145683D01*
X257327Y-145847D01*
X257305Y-146044D01*
X257294Y-146230D01*
X257283Y-146416D01*
Y-146492D01*
Y-146569D01*
Y-146623D01*
Y-146667D01*
Y-146700D01*
Y-146711D01*
Y-149498D01*
X255830D01*
Y-146099D01*
Y-145869D01*
X255841Y-145683D01*
X255852Y-145508D01*
X255873Y-145377D01*
X255884Y-145268D01*
X255906Y-145192D01*
X255917Y-145137D01*
Y-145126D01*
X255950Y-144995D01*
X255994Y-144885D01*
X256037Y-144776D01*
X256092Y-144689D01*
X256136Y-144612D01*
X256169Y-144557D01*
X256190Y-144525D01*
X256201Y-144514D01*
X256289Y-144415D01*
X256387Y-144328D01*
X256486Y-144252D01*
X256584Y-144186D01*
X256671Y-144131D01*
X256748Y-144098D01*
X256791Y-144077D01*
X256813Y-144066D01*
X256966Y-144011D01*
X257119Y-143967D01*
X257261Y-143935D01*
X257393Y-143913D01*
X257513Y-143902D01*
X257611Y-143891D01*
X257688D01*
X257885Y-143902D01*
D02*
G37*
G36*
X230275D02*
X230472Y-143935D01*
X230647Y-143978D01*
X230822Y-144033D01*
X230986Y-144109D01*
X231128Y-144186D01*
X231270Y-144273D01*
X231390Y-144350D01*
X231500Y-144437D01*
X231598Y-144525D01*
X231685Y-144601D01*
X231751Y-144678D01*
X231805Y-144732D01*
X231849Y-144776D01*
X231871Y-144809D01*
X231882Y-144820D01*
Y-144011D01*
X233226D01*
Y-149498D01*
X231773D01*
Y-147028D01*
Y-146864D01*
Y-146711D01*
X231762Y-146569D01*
X231751Y-146448D01*
Y-146328D01*
X231740Y-146230D01*
X231729Y-146131D01*
X231718Y-146055D01*
X231696Y-145924D01*
X231685Y-145836D01*
X231663Y-145782D01*
Y-145771D01*
X231620Y-145650D01*
X231554Y-145530D01*
X231488Y-145443D01*
X231423Y-145355D01*
X231357Y-145301D01*
X231303Y-145246D01*
X231270Y-145224D01*
X231259Y-145213D01*
X231139Y-145148D01*
X231019Y-145093D01*
X230909Y-145060D01*
X230800Y-145027D01*
X230713Y-145017D01*
X230647Y-145006D01*
X230581D01*
X230472Y-145017D01*
X230374Y-145027D01*
X230297Y-145049D01*
X230221Y-145082D01*
X230155Y-145115D01*
X230111Y-145137D01*
X230089Y-145148D01*
X230079Y-145159D01*
X230002Y-145213D01*
X229947Y-145279D01*
X229849Y-145410D01*
X229816Y-145476D01*
X229794Y-145519D01*
X229772Y-145552D01*
Y-145563D01*
X229751Y-145618D01*
X229740Y-145683D01*
X229718Y-145847D01*
X229696Y-146044D01*
X229685Y-146230D01*
X229674Y-146416D01*
Y-146492D01*
Y-146569D01*
Y-146623D01*
Y-146667D01*
Y-146700D01*
Y-146711D01*
Y-149498D01*
X228221D01*
Y-146099D01*
Y-145869D01*
X228231Y-145683D01*
X228242Y-145508D01*
X228264Y-145377D01*
X228275Y-145268D01*
X228297Y-145192D01*
X228308Y-145137D01*
Y-145126D01*
X228341Y-144995D01*
X228384Y-144885D01*
X228428Y-144776D01*
X228483Y-144689D01*
X228526Y-144612D01*
X228559Y-144557D01*
X228581Y-144525D01*
X228592Y-144514D01*
X228679Y-144415D01*
X228778Y-144328D01*
X228876Y-144252D01*
X228975Y-144186D01*
X229062Y-144131D01*
X229139Y-144098D01*
X229182Y-144077D01*
X229204Y-144066D01*
X229357Y-144011D01*
X229510Y-143967D01*
X229652Y-143935D01*
X229784Y-143913D01*
X229904Y-143902D01*
X230002Y-143891D01*
X230079D01*
X230275Y-143902D01*
D02*
G37*
G36*
X273197Y-149498D02*
X272487D01*
X272498Y-149651D01*
X272520Y-149782D01*
X272553Y-149902D01*
X272596Y-150001D01*
X272629Y-150077D01*
X272662Y-150132D01*
X272684Y-150165D01*
X272695Y-150175D01*
X272771Y-150263D01*
X272869Y-150339D01*
X272968Y-150416D01*
X273077Y-150471D01*
X273165Y-150514D01*
X273241Y-150547D01*
X273296Y-150569D01*
X273318Y-150580D01*
X273033Y-151181D01*
X272869Y-151116D01*
X272716Y-151039D01*
X272585Y-150962D01*
X272476Y-150886D01*
X272389Y-150820D01*
X272323Y-150766D01*
X272279Y-150733D01*
X272268Y-150722D01*
X272159Y-150613D01*
X272072Y-150503D01*
X272006Y-150394D01*
X271940Y-150285D01*
X271908Y-150197D01*
X271875Y-150132D01*
X271853Y-150077D01*
Y-150066D01*
X271820Y-149924D01*
X271788Y-149760D01*
X271766Y-149596D01*
X271755Y-149443D01*
X271744Y-149301D01*
Y-149181D01*
Y-149137D01*
Y-149104D01*
Y-149093D01*
Y-149083D01*
Y-148044D01*
X273197D01*
Y-149498D01*
D02*
G37*
G36*
X245588Y-149498D02*
X244878D01*
X244889Y-149651D01*
X244911Y-149782D01*
X244943Y-149902D01*
X244987Y-150001D01*
X245020Y-150077D01*
X245053Y-150132D01*
X245075Y-150165D01*
X245086Y-150175D01*
X245162Y-150263D01*
X245260Y-150339D01*
X245359Y-150416D01*
X245468Y-150471D01*
X245555Y-150514D01*
X245632Y-150547D01*
X245687Y-150569D01*
X245708Y-150580D01*
X245424Y-151181D01*
X245260Y-151116D01*
X245107Y-151039D01*
X244976Y-150962D01*
X244867Y-150886D01*
X244779Y-150820D01*
X244714Y-150766D01*
X244670Y-150733D01*
X244659Y-150722D01*
X244550Y-150613D01*
X244462Y-150503D01*
X244397Y-150394D01*
X244331Y-150285D01*
X244299Y-150197D01*
X244266Y-150132D01*
X244244Y-150077D01*
Y-150066D01*
X244211Y-149924D01*
X244178Y-149760D01*
X244156Y-149596D01*
X244145Y-149443D01*
X244135Y-149301D01*
Y-149181D01*
Y-149137D01*
Y-149104D01*
Y-149093D01*
Y-149083D01*
Y-148044D01*
X245588D01*
Y-149498D01*
D02*
G37*
%LPC*%
G36*
X55338Y-145728D02*
X55287D01*
X55177Y-145735D01*
X55082Y-145764D01*
X54995Y-145801D01*
X54922Y-145837D01*
X54864Y-145881D01*
X54820Y-145917D01*
X54791Y-145947D01*
X54783Y-145954D01*
X54718Y-146041D01*
X54659Y-146143D01*
X54623Y-146253D01*
X54594Y-146355D01*
X54579Y-146442D01*
X54572Y-146523D01*
X54565Y-146552D01*
Y-146566D01*
Y-146581D01*
Y-146588D01*
X56008D01*
X56001Y-146450D01*
X55979Y-146326D01*
X55950Y-146216D01*
X55906Y-146129D01*
X55870Y-146056D01*
X55833Y-146005D01*
X55811Y-145968D01*
X55804Y-145961D01*
X55724Y-145881D01*
X55636Y-145823D01*
X55549Y-145786D01*
X55469Y-145757D01*
X55396Y-145742D01*
X55338Y-145728D01*
D02*
G37*
G36*
X60790Y-144532D02*
X59624D01*
X59558Y-144540D01*
X59398D01*
X59332Y-144547D01*
X59289D01*
X59267Y-144554D01*
X59259D01*
X59172Y-144576D01*
X59092Y-144605D01*
X59026Y-144634D01*
X58975Y-144671D01*
X58931Y-144707D01*
X58895Y-144729D01*
X58880Y-144751D01*
X58873Y-144758D01*
X58829Y-144817D01*
X58793Y-144890D01*
X58771Y-144955D01*
X58749Y-145021D01*
X58742Y-145079D01*
X58735Y-145123D01*
Y-145152D01*
Y-145167D01*
X58742Y-145247D01*
X58749Y-145320D01*
X58771Y-145385D01*
X58786Y-145444D01*
X58807Y-145487D01*
X58829Y-145517D01*
X58837Y-145538D01*
X58844Y-145546D01*
X58888Y-145597D01*
X58931Y-145641D01*
X59026Y-145706D01*
X59063Y-145728D01*
X59099Y-145742D01*
X59121Y-145757D01*
X59128D01*
X59165Y-145764D01*
X59223Y-145779D01*
X59281Y-145786D01*
X59347Y-145794D01*
X59500Y-145801D01*
X59653Y-145808D01*
X59799Y-145815D01*
X60790D01*
Y-144532D01*
D02*
G37*
G36*
X39649Y-144452D02*
X39620D01*
X39555Y-144459D01*
X39496Y-144467D01*
X39445Y-144489D01*
X39402Y-144510D01*
X39365Y-144532D01*
X39336Y-144547D01*
X39321Y-144562D01*
X39314Y-144569D01*
X39270Y-144620D01*
X39227Y-144685D01*
X39190Y-144758D01*
X39154Y-144831D01*
X39132Y-144904D01*
X39110Y-144963D01*
X39103Y-144999D01*
X39095Y-145006D01*
Y-145013D01*
X39081Y-145079D01*
X39066Y-145159D01*
X39052Y-145254D01*
X39037Y-145349D01*
X39022Y-145546D01*
X39015Y-145750D01*
X39008Y-145845D01*
Y-145939D01*
X39001Y-146019D01*
Y-146092D01*
Y-146151D01*
Y-146202D01*
Y-146231D01*
Y-146238D01*
Y-146399D01*
X39008Y-146552D01*
Y-146690D01*
X39015Y-146814D01*
X39022Y-146931D01*
X39030Y-147033D01*
X39044Y-147128D01*
X39052Y-147208D01*
X39059Y-147281D01*
X39074Y-147339D01*
X39081Y-147390D01*
X39088Y-147434D01*
X39095Y-147463D01*
Y-147492D01*
X39103Y-147499D01*
Y-147507D01*
X39132Y-147609D01*
X39168Y-147689D01*
X39205Y-147762D01*
X39234Y-147813D01*
X39263Y-147857D01*
X39292Y-147886D01*
X39307Y-147900D01*
X39314Y-147908D01*
X39365Y-147944D01*
X39416Y-147973D01*
X39467Y-147988D01*
X39518Y-148002D01*
X39555Y-148010D01*
X39591Y-148017D01*
X39620D01*
X39686Y-148010D01*
X39744Y-148002D01*
X39795Y-147980D01*
X39839Y-147959D01*
X39875Y-147944D01*
X39905Y-147922D01*
X39919Y-147915D01*
X39926Y-147908D01*
X39970Y-147857D01*
X40014Y-147791D01*
X40050Y-147718D01*
X40087Y-147645D01*
X40109Y-147580D01*
X40131Y-147521D01*
X40138Y-147485D01*
X40145Y-147470D01*
X40160Y-147397D01*
X40174Y-147317D01*
X40189Y-147230D01*
X40196Y-147135D01*
X40211Y-146931D01*
X40218Y-146727D01*
X40225Y-146632D01*
Y-146537D01*
X40233Y-146457D01*
Y-146384D01*
Y-146326D01*
Y-146275D01*
Y-146246D01*
Y-146238D01*
Y-146078D01*
X40225Y-145925D01*
Y-145794D01*
X40218Y-145662D01*
X40211Y-145553D01*
X40203Y-145444D01*
X40196Y-145356D01*
X40182Y-145269D01*
X40174Y-145196D01*
X40167Y-145137D01*
X40160Y-145086D01*
X40152Y-145043D01*
X40145Y-145013D01*
Y-144984D01*
X40138Y-144977D01*
Y-144970D01*
X40109Y-144868D01*
X40072Y-144780D01*
X40043Y-144715D01*
X40007Y-144656D01*
X39977Y-144620D01*
X39956Y-144591D01*
X39941Y-144576D01*
X39934Y-144569D01*
X39883Y-144532D01*
X39824Y-144503D01*
X39773Y-144481D01*
X39722Y-144467D01*
X39686Y-144459D01*
X39649Y-144452D01*
D02*
G37*
G36*
X197108Y-18475D02*
X197086D01*
X196889Y-18497D01*
X196725Y-18541D01*
X196572Y-18606D01*
X196452Y-18683D01*
X196343Y-18759D01*
X196277Y-18825D01*
X196222Y-18868D01*
X196212Y-18890D01*
X196146Y-18978D01*
X196091Y-19065D01*
X196004Y-19273D01*
X195949Y-19502D01*
X195906Y-19721D01*
X195884Y-19929D01*
X195873Y-20016D01*
X195862Y-20092D01*
Y-20158D01*
Y-20202D01*
Y-20235D01*
Y-20246D01*
Y-20410D01*
X195873Y-20552D01*
X195895Y-20694D01*
X195916Y-20825D01*
X195971Y-21044D01*
X196037Y-21218D01*
X196102Y-21360D01*
X196157Y-21459D01*
X196201Y-21513D01*
X196212Y-21535D01*
X196343Y-21666D01*
X196485Y-21765D01*
X196616Y-21841D01*
X196747Y-21885D01*
X196856Y-21918D01*
X196955Y-21929D01*
X197010Y-21940D01*
X197031D01*
X197152Y-21929D01*
X197261Y-21918D01*
X197458Y-21852D01*
X197633Y-21765D01*
X197775Y-21655D01*
X197895Y-21546D01*
X197982Y-21459D01*
X198026Y-21393D01*
X198048Y-21382D01*
Y-21371D01*
X198135Y-21196D01*
X198201Y-21000D01*
X198245Y-20792D01*
X198277Y-20595D01*
X198299Y-20410D01*
Y-20322D01*
X198310Y-20256D01*
Y-20191D01*
Y-20147D01*
Y-20125D01*
Y-20114D01*
X198299Y-19819D01*
X198256Y-19568D01*
X198201Y-19360D01*
X198135Y-19185D01*
X198081Y-19054D01*
X198026Y-18956D01*
X197982Y-18901D01*
X197971Y-18879D01*
X197829Y-18748D01*
X197687Y-18650D01*
X197534Y-18573D01*
X197392Y-18530D01*
X197272Y-18497D01*
X197173Y-18486D01*
X197108Y-18475D01*
D02*
G37*
G36*
X170089D02*
X170067D01*
X169870Y-18497D01*
X169706Y-18541D01*
X169553Y-18606D01*
X169433Y-18683D01*
X169324Y-18759D01*
X169258Y-18825D01*
X169204Y-18868D01*
X169193Y-18890D01*
X169127Y-18978D01*
X169072Y-19065D01*
X168985Y-19273D01*
X168930Y-19502D01*
X168887Y-19721D01*
X168865Y-19929D01*
X168854Y-20016D01*
X168843Y-20092D01*
Y-20158D01*
Y-20202D01*
Y-20235D01*
Y-20246D01*
Y-20410D01*
X168854Y-20552D01*
X168876Y-20694D01*
X168897Y-20825D01*
X168952Y-21044D01*
X169018Y-21218D01*
X169083Y-21360D01*
X169138Y-21459D01*
X169182Y-21513D01*
X169193Y-21535D01*
X169324Y-21666D01*
X169466Y-21765D01*
X169597Y-21841D01*
X169728Y-21885D01*
X169837Y-21918D01*
X169936Y-21929D01*
X169991Y-21940D01*
X170012D01*
X170133Y-21929D01*
X170242Y-21918D01*
X170439Y-21852D01*
X170614Y-21765D01*
X170756Y-21655D01*
X170876Y-21546D01*
X170963Y-21459D01*
X171007Y-21393D01*
X171029Y-21382D01*
Y-21371D01*
X171116Y-21196D01*
X171182Y-21000D01*
X171226Y-20792D01*
X171258Y-20595D01*
X171280Y-20410D01*
Y-20322D01*
X171291Y-20256D01*
Y-20191D01*
Y-20147D01*
Y-20125D01*
Y-20114D01*
X171280Y-19819D01*
X171237Y-19568D01*
X171182Y-19360D01*
X171116Y-19185D01*
X171062Y-19054D01*
X171007Y-18956D01*
X170963Y-18901D01*
X170952Y-18879D01*
X170810Y-18748D01*
X170668Y-18650D01*
X170515Y-18573D01*
X170373Y-18530D01*
X170253Y-18497D01*
X170155Y-18486D01*
X170089Y-18475D01*
D02*
G37*
G36*
X106870Y-18475D02*
X106848D01*
X106651Y-18497D01*
X106487Y-18541D01*
X106334Y-18606D01*
X106203Y-18683D01*
X106105Y-18759D01*
X106028Y-18825D01*
X105973Y-18868D01*
X105963Y-18890D01*
X105842Y-19065D01*
X105755Y-19262D01*
X105700Y-19470D01*
X105657Y-19677D01*
X105635Y-19863D01*
X105624Y-19951D01*
X105613Y-20016D01*
Y-20082D01*
Y-20125D01*
Y-20147D01*
Y-20158D01*
X105624Y-20442D01*
X105667Y-20694D01*
X105733Y-20901D01*
X105799Y-21076D01*
X105864Y-21207D01*
X105930Y-21306D01*
X105973Y-21360D01*
X105984Y-21382D01*
X106126Y-21524D01*
X106280Y-21623D01*
X106422Y-21699D01*
X106564Y-21743D01*
X106695Y-21776D01*
X106793Y-21787D01*
X106859Y-21798D01*
X106881D01*
X107056Y-21776D01*
X107220Y-21732D01*
X107362Y-21666D01*
X107482Y-21590D01*
X107580Y-21524D01*
X107646Y-21459D01*
X107701Y-21415D01*
X107711Y-21393D01*
X107821Y-21218D01*
X107897Y-21022D01*
X107963Y-20814D01*
X107996Y-20606D01*
X108017Y-20421D01*
X108028Y-20333D01*
Y-20267D01*
X108039Y-20213D01*
Y-20158D01*
Y-20136D01*
Y-20125D01*
X108028Y-19830D01*
X107985Y-19579D01*
X107930Y-19371D01*
X107875Y-19196D01*
X107810Y-19065D01*
X107766Y-18967D01*
X107722Y-18912D01*
X107711Y-18890D01*
X107580Y-18748D01*
X107438Y-18650D01*
X107285Y-18573D01*
X107154Y-18530D01*
X107034Y-18497D01*
X106935Y-18486D01*
X106870Y-18475D01*
D02*
G37*
G36*
X152623Y-20344D02*
X152612D01*
Y-20639D01*
Y-20814D01*
X152623Y-20967D01*
X152634Y-21087D01*
X152645Y-21186D01*
X152655Y-21251D01*
X152666Y-21306D01*
X152677Y-21328D01*
Y-21339D01*
X152710Y-21437D01*
X152765Y-21535D01*
X152820Y-21612D01*
X152874Y-21688D01*
X152929Y-21743D01*
X152972Y-21787D01*
X153005Y-21809D01*
X153016Y-21820D01*
X153147Y-21907D01*
X153289Y-21962D01*
X153410Y-22005D01*
X153530Y-22038D01*
X153628Y-22060D01*
X153705Y-22071D01*
X153770D01*
X153891Y-22060D01*
X154011Y-22038D01*
X154109Y-22005D01*
X154186Y-21962D01*
X154262Y-21918D01*
X154306Y-21885D01*
X154339Y-21863D01*
X154350Y-21852D01*
X154426Y-21765D01*
X154481Y-21677D01*
X154514Y-21590D01*
X154535Y-21502D01*
X154557Y-21437D01*
X154568Y-21382D01*
Y-21339D01*
Y-21328D01*
X154557Y-21218D01*
X154525Y-21120D01*
X154481Y-21033D01*
X154426Y-20956D01*
X154383Y-20901D01*
X154339Y-20858D01*
X154306Y-20836D01*
X154295Y-20825D01*
X154208Y-20781D01*
X154098Y-20727D01*
X153967Y-20683D01*
X153836Y-20650D01*
X153705Y-20617D01*
X153606Y-20595D01*
X153563Y-20584D01*
X153530Y-20573D01*
X153508D01*
X153289Y-20530D01*
X153115Y-20486D01*
X152951Y-20442D01*
X152830Y-20410D01*
X152732Y-20377D01*
X152666Y-20366D01*
X152623Y-20344D01*
D02*
G37*
G36*
X222859Y-18475D02*
X222782D01*
X222619Y-18486D01*
X222476Y-18530D01*
X222345Y-18584D01*
X222236Y-18639D01*
X222148Y-18704D01*
X222083Y-18759D01*
X222039Y-18803D01*
X222028Y-18814D01*
X221930Y-18945D01*
X221843Y-19098D01*
X221788Y-19262D01*
X221744Y-19415D01*
X221722Y-19546D01*
X221711Y-19666D01*
X221700Y-19710D01*
Y-19732D01*
Y-19754D01*
Y-19765D01*
X223865D01*
X223854Y-19557D01*
X223821Y-19371D01*
X223777Y-19207D01*
X223711Y-19076D01*
X223657Y-18967D01*
X223602Y-18890D01*
X223569Y-18836D01*
X223558Y-18825D01*
X223438Y-18704D01*
X223307Y-18617D01*
X223176Y-18562D01*
X223056Y-18519D01*
X222946Y-18497D01*
X222859Y-18475D01*
D02*
G37*
G36*
X212869Y-18475D02*
X212792D01*
X212629Y-18486D01*
X212486Y-18530D01*
X212355Y-18584D01*
X212246Y-18639D01*
X212158Y-18704D01*
X212093Y-18759D01*
X212049Y-18803D01*
X212038Y-18814D01*
X211940Y-18945D01*
X211852Y-19098D01*
X211798Y-19262D01*
X211754Y-19415D01*
X211732Y-19546D01*
X211721Y-19666D01*
X211710Y-19710D01*
Y-19732D01*
Y-19754D01*
Y-19765D01*
X213875D01*
X213863Y-19557D01*
X213831Y-19371D01*
X213787Y-19207D01*
X213721Y-19076D01*
X213667Y-18967D01*
X213612Y-18890D01*
X213579Y-18836D01*
X213568Y-18825D01*
X213448Y-18704D01*
X213317Y-18617D01*
X213186Y-18562D01*
X213066Y-18519D01*
X212956Y-18497D01*
X212869Y-18475D01*
D02*
G37*
G36*
X121811Y-18475D02*
X121735D01*
X121571Y-18486D01*
X121429Y-18530D01*
X121297Y-18584D01*
X121188Y-18639D01*
X121101Y-18704D01*
X121035Y-18759D01*
X120991Y-18803D01*
X120980Y-18814D01*
X120882Y-18945D01*
X120795Y-19098D01*
X120740Y-19262D01*
X120696Y-19415D01*
X120674Y-19546D01*
X120663Y-19666D01*
X120652Y-19710D01*
Y-19732D01*
Y-19754D01*
Y-19765D01*
X122817D01*
X122806Y-19557D01*
X122773Y-19371D01*
X122729Y-19207D01*
X122664Y-19076D01*
X122609Y-18967D01*
X122554Y-18890D01*
X122521Y-18836D01*
X122511Y-18825D01*
X122390Y-18704D01*
X122259Y-18617D01*
X122128Y-18562D01*
X122008Y-18519D01*
X121898Y-18497D01*
X121811Y-18475D01*
D02*
G37*
G36*
X100651Y-18475D02*
X100574D01*
X100410Y-18486D01*
X100268Y-18530D01*
X100137Y-18584D01*
X100028Y-18639D01*
X99940Y-18704D01*
X99875Y-18759D01*
X99831Y-18803D01*
X99820Y-18814D01*
X99722Y-18945D01*
X99634Y-19098D01*
X99580Y-19262D01*
X99536Y-19415D01*
X99514Y-19546D01*
X99503Y-19666D01*
X99492Y-19710D01*
Y-19732D01*
Y-19754D01*
Y-19765D01*
X101656D01*
X101645Y-19557D01*
X101612Y-19371D01*
X101569Y-19207D01*
X101503Y-19076D01*
X101449Y-18967D01*
X101394Y-18890D01*
X101361Y-18836D01*
X101350Y-18825D01*
X101230Y-18704D01*
X101099Y-18617D01*
X100968Y-18562D01*
X100847Y-18519D01*
X100738Y-18497D01*
X100651Y-18475D01*
D02*
G37*
G36*
X82430D02*
X82354D01*
X82190Y-18486D01*
X82048Y-18530D01*
X81917Y-18584D01*
X81807Y-18639D01*
X81720Y-18704D01*
X81654Y-18759D01*
X81611Y-18803D01*
X81600Y-18814D01*
X81501Y-18945D01*
X81414Y-19098D01*
X81359Y-19262D01*
X81315Y-19415D01*
X81294Y-19546D01*
X81283Y-19666D01*
X81272Y-19710D01*
Y-19732D01*
Y-19754D01*
Y-19765D01*
X83436D01*
X83425Y-19557D01*
X83392Y-19371D01*
X83348Y-19207D01*
X83283Y-19076D01*
X83228Y-18967D01*
X83174Y-18890D01*
X83141Y-18836D01*
X83130Y-18825D01*
X83010Y-18704D01*
X82878Y-18617D01*
X82747Y-18562D01*
X82627Y-18519D01*
X82518Y-18497D01*
X82430Y-18475D01*
D02*
G37*
G36*
X245134Y-16682D02*
X243998D01*
X243888Y-16693D01*
X243790D01*
X243691Y-16704D01*
X243549D01*
X243440Y-16715D01*
X243364Y-16726D01*
X243320Y-16737D01*
X243309D01*
X243178Y-16770D01*
X243058Y-16814D01*
X242948Y-16868D01*
X242861Y-16934D01*
X242795Y-16988D01*
X242741Y-17032D01*
X242708Y-17065D01*
X242697Y-17076D01*
X242610Y-17185D01*
X242555Y-17294D01*
X242511Y-17415D01*
X242478Y-17524D01*
X242456Y-17622D01*
X242445Y-17699D01*
Y-17743D01*
Y-17764D01*
X242456Y-17885D01*
X242467Y-17994D01*
X242500Y-18092D01*
X242533Y-18180D01*
X242566Y-18256D01*
X242588Y-18311D01*
X242610Y-18344D01*
X242620Y-18355D01*
X242686Y-18442D01*
X242773Y-18519D01*
X242850Y-18584D01*
X242926Y-18639D01*
X242992Y-18672D01*
X243047Y-18704D01*
X243090Y-18715D01*
X243101Y-18726D01*
X243167Y-18748D01*
X243243Y-18759D01*
X243418Y-18792D01*
X243615Y-18814D01*
X243812Y-18825D01*
X244008D01*
X244085Y-18836D01*
X245134D01*
Y-16682D01*
D02*
G37*
G36*
X181434Y-17163D02*
X180374Y-19972D01*
X182462D01*
X181434Y-17163D01*
D02*
G37*
G36*
X237188Y-18541D02*
X237134D01*
X236926Y-18562D01*
X236740Y-18606D01*
X236587Y-18683D01*
X236445Y-18759D01*
X236336Y-18836D01*
X236248Y-18912D01*
X236205Y-18956D01*
X236183Y-18978D01*
X236052Y-19153D01*
X235953Y-19360D01*
X235888Y-19568D01*
X235833Y-19765D01*
X235811Y-19940D01*
X235800Y-20027D01*
Y-20092D01*
X235789Y-20147D01*
Y-20191D01*
Y-20213D01*
Y-20224D01*
X235811Y-20508D01*
X235855Y-20770D01*
X235909Y-20978D01*
X235986Y-21164D01*
X236062Y-21295D01*
X236117Y-21404D01*
X236161Y-21459D01*
X236183Y-21481D01*
X236336Y-21623D01*
X236489Y-21732D01*
X236653Y-21798D01*
X236806Y-21852D01*
X236937Y-21885D01*
X237035Y-21896D01*
X237079Y-21907D01*
X237134D01*
X237341Y-21885D01*
X237527Y-21841D01*
X237691Y-21776D01*
X237822Y-21688D01*
X237942Y-21612D01*
X238030Y-21546D01*
X238073Y-21502D01*
X238095Y-21481D01*
X238227Y-21306D01*
X238314Y-21098D01*
X238380Y-20890D01*
X238434Y-20683D01*
X238456Y-20508D01*
X238467Y-20431D01*
Y-20355D01*
X238478Y-20300D01*
Y-20256D01*
Y-20235D01*
Y-20224D01*
X238456Y-19940D01*
X238412Y-19688D01*
X238358Y-19469D01*
X238281Y-19295D01*
X238216Y-19163D01*
X238150Y-19054D01*
X238106Y-19000D01*
X238095Y-18978D01*
X237942Y-18836D01*
X237778Y-18726D01*
X237614Y-18650D01*
X237461Y-18595D01*
X237330Y-18562D01*
X237232Y-18551D01*
X237188Y-18541D01*
D02*
G37*
G36*
X206737Y-18475D02*
X206715D01*
X206529Y-18497D01*
X206355Y-18541D01*
X206213Y-18606D01*
X206081Y-18683D01*
X205983Y-18759D01*
X205917Y-18825D01*
X205863Y-18868D01*
X205852Y-18890D01*
X205786Y-18978D01*
X205732Y-19065D01*
X205644Y-19284D01*
X205590Y-19502D01*
X205546Y-19732D01*
X205524Y-19929D01*
X205513Y-20027D01*
X205502Y-20103D01*
Y-20169D01*
Y-20213D01*
Y-20246D01*
Y-20256D01*
X205513Y-20552D01*
X205557Y-20814D01*
X205611Y-21033D01*
X205677Y-21207D01*
X205743Y-21350D01*
X205797Y-21448D01*
X205841Y-21502D01*
X205852Y-21524D01*
X205994Y-21666D01*
X206136Y-21765D01*
X206278Y-21841D01*
X206409Y-21885D01*
X206529Y-21918D01*
X206617Y-21929D01*
X206682Y-21940D01*
X206704D01*
X206814Y-21929D01*
X206923Y-21918D01*
X207120Y-21852D01*
X207284Y-21765D01*
X207426Y-21655D01*
X207535Y-21557D01*
X207612Y-21470D01*
X207655Y-21404D01*
X207677Y-21393D01*
Y-21382D01*
X207721Y-21306D01*
X207754Y-21218D01*
X207819Y-21022D01*
X207863Y-20803D01*
X207885Y-20595D01*
X207907Y-20410D01*
Y-20333D01*
X207918Y-20256D01*
Y-20202D01*
Y-20147D01*
Y-20125D01*
Y-20114D01*
X207907Y-19830D01*
X207863Y-19579D01*
X207808Y-19371D01*
X207743Y-19196D01*
X207688Y-19065D01*
X207633Y-18967D01*
X207590Y-18912D01*
X207579Y-18890D01*
X207437Y-18748D01*
X207295Y-18650D01*
X207153Y-18573D01*
X207010Y-18530D01*
X206901Y-18497D01*
X206803Y-18486D01*
X206737Y-18475D01*
D02*
G37*
G36*
X127976Y-146938D02*
X127969D01*
Y-147135D01*
Y-147251D01*
X127976Y-147354D01*
X127983Y-147434D01*
X127990Y-147499D01*
X127998Y-147543D01*
X128005Y-147580D01*
X128012Y-147594D01*
Y-147601D01*
X128034Y-147667D01*
X128071Y-147733D01*
X128107Y-147784D01*
X128144Y-147835D01*
X128180Y-147871D01*
X128209Y-147900D01*
X128231Y-147915D01*
X128238Y-147922D01*
X128326Y-147980D01*
X128420Y-148017D01*
X128501Y-148046D01*
X128581Y-148068D01*
X128647Y-148083D01*
X128698Y-148090D01*
X128741D01*
X128822Y-148083D01*
X128902Y-148068D01*
X128967Y-148046D01*
X129018Y-148017D01*
X129069Y-147988D01*
X129098Y-147966D01*
X129120Y-147951D01*
X129128Y-147944D01*
X129179Y-147886D01*
X129215Y-147827D01*
X129237Y-147769D01*
X129252Y-147711D01*
X129266Y-147667D01*
X129273Y-147631D01*
Y-147601D01*
Y-147594D01*
X129266Y-147521D01*
X129244Y-147456D01*
X129215Y-147397D01*
X129179Y-147346D01*
X129149Y-147310D01*
X129120Y-147281D01*
X129098Y-147266D01*
X129091Y-147259D01*
X129033Y-147230D01*
X128960Y-147193D01*
X128873Y-147164D01*
X128785Y-147142D01*
X128698Y-147120D01*
X128632Y-147106D01*
X128603Y-147099D01*
X128581Y-147091D01*
X128566D01*
X128420Y-147062D01*
X128304Y-147033D01*
X128194Y-147004D01*
X128114Y-146982D01*
X128049Y-146960D01*
X128005Y-146953D01*
X127976Y-146938D01*
D02*
G37*
G36*
X114424Y-144226D02*
X114387D01*
X114307Y-144234D01*
X114227Y-144248D01*
X114169Y-144270D01*
X114110Y-144292D01*
X114074Y-144314D01*
X114037Y-144335D01*
X114023Y-144350D01*
X114015Y-144357D01*
X113964Y-144408D01*
X113928Y-144459D01*
X113906Y-144518D01*
X113884Y-144569D01*
X113877Y-144613D01*
X113870Y-144649D01*
Y-144671D01*
Y-144678D01*
X113884Y-144758D01*
X113913Y-144839D01*
X113964Y-144912D01*
X114015Y-144984D01*
X114067Y-145043D01*
X114118Y-145086D01*
X114147Y-145116D01*
X114161Y-145123D01*
X114424Y-145327D01*
X114657Y-145050D01*
X114730Y-144955D01*
X114781Y-144875D01*
X114825Y-144802D01*
X114847Y-144737D01*
X114861Y-144685D01*
X114868Y-144642D01*
X114876Y-144620D01*
Y-144613D01*
X114868Y-144554D01*
X114854Y-144503D01*
X114810Y-144423D01*
X114788Y-144387D01*
X114774Y-144365D01*
X114759Y-144350D01*
X114752Y-144343D01*
X114701Y-144306D01*
X114642Y-144277D01*
X114577Y-144255D01*
X114518Y-144241D01*
X114467Y-144234D01*
X114424Y-144226D01*
D02*
G37*
G36*
X114803Y-146377D02*
X113819Y-147594D01*
X113906Y-147667D01*
X113994Y-147733D01*
X114074Y-147784D01*
X114139Y-147820D01*
X114198Y-147857D01*
X114242Y-147879D01*
X114271Y-147886D01*
X114278Y-147893D01*
X114358Y-147922D01*
X114431Y-147944D01*
X114504Y-147959D01*
X114569Y-147966D01*
X114628Y-147973D01*
X114672Y-147980D01*
X114708D01*
X114832Y-147973D01*
X114941Y-147951D01*
X115029Y-147915D01*
X115109Y-147879D01*
X115175Y-147849D01*
X115218Y-147813D01*
X115247Y-147791D01*
X115255Y-147784D01*
X115320Y-147704D01*
X115371Y-147623D01*
X115408Y-147536D01*
X115430Y-147456D01*
X115444Y-147383D01*
X115459Y-147325D01*
Y-147288D01*
Y-147273D01*
X115452Y-147179D01*
X115437Y-147091D01*
X115408Y-147011D01*
X115379Y-146938D01*
X115349Y-146872D01*
X115320Y-146829D01*
X115306Y-146792D01*
X115298Y-146785D01*
X115226Y-146697D01*
X115153Y-146617D01*
X115065Y-146552D01*
X114985Y-146493D01*
X114912Y-146442D01*
X114854Y-146406D01*
X114817Y-146384D01*
X114803Y-146377D01*
D02*
G37*
G36*
X109335Y-144226D02*
X109299D01*
X109219Y-144234D01*
X109138Y-144248D01*
X109080Y-144270D01*
X109022Y-144292D01*
X108985Y-144314D01*
X108949Y-144336D01*
X108934Y-144350D01*
X108927Y-144357D01*
X108876Y-144409D01*
X108840Y-144459D01*
X108818Y-144518D01*
X108796Y-144569D01*
X108789Y-144613D01*
X108781Y-144649D01*
Y-144671D01*
Y-144678D01*
X108796Y-144758D01*
X108825Y-144839D01*
X108876Y-144912D01*
X108927Y-144984D01*
X108978Y-145043D01*
X109029Y-145086D01*
X109058Y-145116D01*
X109073Y-145123D01*
X109335Y-145327D01*
X109569Y-145050D01*
X109642Y-144955D01*
X109693Y-144875D01*
X109736Y-144802D01*
X109758Y-144737D01*
X109773Y-144685D01*
X109780Y-144642D01*
X109787Y-144620D01*
Y-144613D01*
X109780Y-144554D01*
X109765Y-144503D01*
X109722Y-144423D01*
X109700Y-144387D01*
X109685Y-144365D01*
X109671Y-144350D01*
X109663Y-144343D01*
X109612Y-144306D01*
X109554Y-144277D01*
X109488Y-144255D01*
X109430Y-144241D01*
X109379Y-144234D01*
X109335Y-144226D01*
D02*
G37*
G36*
X109714Y-146377D02*
X108730Y-147594D01*
X108818Y-147667D01*
X108905Y-147733D01*
X108985Y-147784D01*
X109051Y-147820D01*
X109109Y-147857D01*
X109153Y-147879D01*
X109182Y-147886D01*
X109189Y-147893D01*
X109270Y-147922D01*
X109343Y-147944D01*
X109415Y-147959D01*
X109481Y-147966D01*
X109539Y-147973D01*
X109583Y-147981D01*
X109620D01*
X109743Y-147973D01*
X109853Y-147951D01*
X109940Y-147915D01*
X110020Y-147879D01*
X110086Y-147849D01*
X110130Y-147813D01*
X110159Y-147791D01*
X110166Y-147784D01*
X110232Y-147704D01*
X110283Y-147623D01*
X110319Y-147536D01*
X110341Y-147456D01*
X110356Y-147383D01*
X110371Y-147325D01*
Y-147288D01*
Y-147273D01*
X110363Y-147179D01*
X110349Y-147091D01*
X110319Y-147011D01*
X110290Y-146938D01*
X110261Y-146872D01*
X110232Y-146829D01*
X110217Y-146792D01*
X110210Y-146785D01*
X110137Y-146697D01*
X110064Y-146617D01*
X109977Y-146552D01*
X109897Y-146493D01*
X109824Y-146442D01*
X109765Y-146406D01*
X109729Y-146384D01*
X109714Y-146377D01*
D02*
G37*
G36*
X120744Y-145692D02*
X120693D01*
X120584Y-145699D01*
X120489Y-145728D01*
X120402Y-145764D01*
X120329Y-145801D01*
X120270Y-145845D01*
X120227Y-145881D01*
X120197Y-145910D01*
X120190Y-145917D01*
X120124Y-146005D01*
X120066Y-146107D01*
X120030Y-146216D01*
X120001Y-146318D01*
X119986Y-146406D01*
X119979Y-146486D01*
X119971Y-146515D01*
Y-146530D01*
Y-146544D01*
Y-146552D01*
X121415D01*
X121407Y-146413D01*
X121386Y-146289D01*
X121356Y-146180D01*
X121313Y-146092D01*
X121276Y-146019D01*
X121240Y-145968D01*
X121218Y-145932D01*
X121211Y-145925D01*
X121131Y-145845D01*
X121043Y-145786D01*
X120956Y-145750D01*
X120875Y-145721D01*
X120802Y-145706D01*
X120744Y-145692D01*
D02*
G37*
G36*
X89404Y-145692D02*
X89353D01*
X89244Y-145699D01*
X89149Y-145728D01*
X89062Y-145764D01*
X88989Y-145801D01*
X88931Y-145845D01*
X88887Y-145881D01*
X88858Y-145910D01*
X88850Y-145917D01*
X88785Y-146005D01*
X88726Y-146107D01*
X88690Y-146216D01*
X88661Y-146318D01*
X88646Y-146406D01*
X88639Y-146486D01*
X88632Y-146515D01*
Y-146530D01*
Y-146544D01*
Y-146552D01*
X90075D01*
X90068Y-146413D01*
X90046Y-146289D01*
X90017Y-146180D01*
X89973Y-146092D01*
X89937Y-146020D01*
X89900Y-145968D01*
X89878Y-145932D01*
X89871Y-145925D01*
X89791Y-145845D01*
X89703Y-145786D01*
X89616Y-145750D01*
X89536Y-145721D01*
X89463Y-145706D01*
X89404Y-145692D01*
D02*
G37*
G36*
X97401Y-145735D02*
X97365D01*
X97227Y-145750D01*
X97103Y-145779D01*
X97001Y-145830D01*
X96906Y-145881D01*
X96833Y-145932D01*
X96775Y-145983D01*
X96746Y-146012D01*
X96731Y-146027D01*
X96643Y-146143D01*
X96578Y-146282D01*
X96534Y-146421D01*
X96498Y-146552D01*
X96483Y-146668D01*
X96476Y-146727D01*
Y-146770D01*
X96468Y-146807D01*
Y-146836D01*
Y-146851D01*
Y-146858D01*
X96483Y-147047D01*
X96512Y-147222D01*
X96549Y-147361D01*
X96600Y-147485D01*
X96651Y-147572D01*
X96687Y-147645D01*
X96716Y-147682D01*
X96731Y-147696D01*
X96833Y-147791D01*
X96935Y-147864D01*
X97044Y-147908D01*
X97146Y-147944D01*
X97234Y-147966D01*
X97299Y-147973D01*
X97329Y-147981D01*
X97365D01*
X97504Y-147966D01*
X97628Y-147937D01*
X97737Y-147893D01*
X97824Y-147835D01*
X97905Y-147784D01*
X97963Y-147740D01*
X97992Y-147711D01*
X98007Y-147696D01*
X98094Y-147580D01*
X98152Y-147441D01*
X98196Y-147303D01*
X98233Y-147164D01*
X98247Y-147047D01*
X98255Y-146996D01*
Y-146945D01*
X98262Y-146909D01*
Y-146880D01*
Y-146865D01*
Y-146858D01*
X98247Y-146668D01*
X98218Y-146501D01*
X98182Y-146355D01*
X98131Y-146238D01*
X98087Y-146151D01*
X98043Y-146078D01*
X98014Y-146041D01*
X98007Y-146027D01*
X97905Y-145932D01*
X97795Y-145859D01*
X97686Y-145808D01*
X97584Y-145772D01*
X97496Y-145750D01*
X97431Y-145742D01*
X97401Y-145735D01*
D02*
G37*
G36*
X77252Y-144416D02*
X77223D01*
X77157Y-144423D01*
X77099Y-144430D01*
X77048Y-144452D01*
X77004Y-144474D01*
X76968Y-144496D01*
X76938Y-144510D01*
X76924Y-144525D01*
X76917Y-144532D01*
X76873Y-144583D01*
X76829Y-144649D01*
X76793Y-144722D01*
X76756Y-144795D01*
X76734Y-144868D01*
X76713Y-144926D01*
X76705Y-144963D01*
X76698Y-144970D01*
Y-144977D01*
X76683Y-145043D01*
X76669Y-145123D01*
X76654Y-145218D01*
X76640Y-145312D01*
X76625Y-145509D01*
X76618Y-145713D01*
X76610Y-145808D01*
Y-145903D01*
X76603Y-145983D01*
Y-146056D01*
Y-146114D01*
Y-146165D01*
Y-146195D01*
Y-146202D01*
Y-146362D01*
X76610Y-146515D01*
Y-146654D01*
X76618Y-146778D01*
X76625Y-146894D01*
X76632Y-146996D01*
X76647Y-147091D01*
X76654Y-147171D01*
X76661Y-147244D01*
X76676Y-147303D01*
X76683Y-147354D01*
X76691Y-147397D01*
X76698Y-147426D01*
Y-147456D01*
X76705Y-147463D01*
Y-147470D01*
X76734Y-147572D01*
X76771Y-147652D01*
X76807Y-147725D01*
X76837Y-147776D01*
X76866Y-147820D01*
X76895Y-147849D01*
X76909Y-147864D01*
X76917Y-147871D01*
X76968Y-147908D01*
X77019Y-147937D01*
X77070Y-147951D01*
X77121Y-147966D01*
X77157Y-147973D01*
X77194Y-147981D01*
X77223D01*
X77288Y-147973D01*
X77347Y-147966D01*
X77398Y-147944D01*
X77442Y-147922D01*
X77478Y-147908D01*
X77507Y-147886D01*
X77522Y-147879D01*
X77529Y-147871D01*
X77573Y-147820D01*
X77617Y-147755D01*
X77653Y-147682D01*
X77689Y-147609D01*
X77711Y-147543D01*
X77733Y-147485D01*
X77740Y-147448D01*
X77748Y-147434D01*
X77762Y-147361D01*
X77777Y-147281D01*
X77791Y-147193D01*
X77799Y-147099D01*
X77813Y-146894D01*
X77821Y-146690D01*
X77828Y-146596D01*
Y-146501D01*
X77835Y-146421D01*
Y-146348D01*
Y-146289D01*
Y-146238D01*
Y-146209D01*
Y-146202D01*
Y-146041D01*
X77828Y-145888D01*
Y-145757D01*
X77821Y-145626D01*
X77813Y-145517D01*
X77806Y-145407D01*
X77799Y-145320D01*
X77784Y-145232D01*
X77777Y-145159D01*
X77770Y-145101D01*
X77762Y-145050D01*
X77755Y-145006D01*
X77748Y-144977D01*
Y-144948D01*
X77740Y-144941D01*
Y-144933D01*
X77711Y-144831D01*
X77675Y-144744D01*
X77646Y-144678D01*
X77609Y-144620D01*
X77580Y-144583D01*
X77558Y-144554D01*
X77544Y-144540D01*
X77536Y-144532D01*
X77485Y-144496D01*
X77427Y-144467D01*
X77376Y-144445D01*
X77325Y-144430D01*
X77288Y-144423D01*
X77252Y-144416D01*
D02*
G37*
%LPD*%
D11*
X17756Y-83602D02*
X16969D01*
X17756D01*
X229842Y-64095D02*
X233780D01*
X229842Y-76299D02*
X233780Y-76299D01*
X100512Y-75630D02*
X104449D01*
X100512Y-63425D02*
X104449D01*
D14*
X21299Y-85079D02*
X26024D01*
X21299Y-77401D02*
X26024D01*
D15*
X18512Y-47407D02*
Y-53405D01*
X14513D01*
X12514D02*
X10514D01*
X11514D01*
Y-47407D01*
X12514Y-48406D01*
D16*
X34000Y-77465D02*
X34328Y-77137D01*
X34984D01*
X35312Y-77465D01*
Y-78777D01*
X34984Y-79105D01*
X34328D01*
X34000Y-78777D01*
X33344Y-79105D02*
X32688D01*
X33016D01*
Y-77137D01*
X33344Y-77465D01*
X30392Y-77137D02*
X31048Y-77465D01*
X31704Y-78121D01*
Y-78777D01*
X31376Y-79105D01*
X30720D01*
X30392Y-78777D01*
Y-78449D01*
X30720Y-78121D01*
X31704D01*
X232034Y-78241D02*
Y-79880D01*
X231706Y-80208D01*
X231050D01*
X230722Y-79880D01*
Y-78241D01*
X229082Y-80208D02*
Y-78241D01*
X230066Y-79224D01*
X228754D01*
X105577Y-59252D02*
Y-60892D01*
X105249Y-61220D01*
X104593D01*
X104265Y-60892D01*
Y-59252D01*
X103609Y-59580D02*
X103281Y-59252D01*
X102625D01*
X102297Y-59580D01*
Y-59908D01*
X102625Y-60236D01*
X102953D01*
X102625D01*
X102297Y-60564D01*
Y-60892D01*
X102625Y-61220D01*
X103281D01*
X103609Y-60892D01*
X260433Y-119389D02*
X262401D01*
Y-118405D01*
X262073Y-118077D01*
X261417D01*
X261089Y-118405D01*
Y-119389D01*
Y-118733D02*
X260433Y-118077D01*
Y-117421D02*
Y-116765D01*
Y-117093D01*
X262401D01*
X262073Y-117421D01*
Y-115781D02*
X262401Y-115453D01*
Y-114797D01*
X262073Y-114469D01*
X261745D01*
X261417Y-114797D01*
X261089Y-114469D01*
X260761D01*
X260433Y-114797D01*
Y-115453D01*
X260761Y-115781D01*
X261089D01*
X261417Y-115453D01*
X261745Y-115781D01*
X262073D01*
X261417Y-115453D02*
Y-114797D01*
X252165Y-41635D02*
X250197D01*
Y-42619D01*
X250525Y-42947D01*
X251181D01*
X251509Y-42619D01*
Y-41635D01*
Y-42291D02*
X252165Y-42947D01*
Y-43602D02*
Y-44258D01*
Y-43931D01*
X250197D01*
X250525Y-43602D01*
X250197Y-45242D02*
Y-46554D01*
X250525D01*
X251837Y-45242D01*
X252165D01*
X276575Y-91436D02*
X278543D01*
Y-90452D01*
X278215Y-90124D01*
X277559D01*
X277231Y-90452D01*
Y-91436D01*
Y-90780D02*
X276575Y-90124D01*
Y-89468D02*
Y-88812D01*
Y-89140D01*
X278543D01*
X278215Y-89468D01*
X278543Y-86517D02*
X278215Y-87173D01*
X277559Y-87828D01*
X276903D01*
X276575Y-87501D01*
Y-86844D01*
X276903Y-86517D01*
X277231D01*
X277559Y-86844D01*
Y-87828D01*
X240748Y-51477D02*
X238780D01*
Y-52461D01*
X239108Y-52789D01*
X239764D01*
X240092Y-52461D01*
Y-51477D01*
Y-52133D02*
X240748Y-52789D01*
Y-53445D02*
Y-54101D01*
Y-53773D01*
X238780D01*
X239108Y-53445D01*
X240748Y-56069D02*
X238780D01*
X239764Y-55085D01*
Y-56397D01*
X271357Y-53740D02*
Y-51772D01*
X270374D01*
X270046Y-52100D01*
Y-52756D01*
X270374Y-53084D01*
X271357D01*
X270702D02*
X270046Y-53740D01*
X269390D02*
X268734D01*
X269062D01*
Y-51772D01*
X269390Y-52100D01*
X267750D02*
X267422Y-51772D01*
X266766D01*
X266438Y-52100D01*
Y-52428D01*
X266766Y-52756D01*
X267094D01*
X266766D01*
X266438Y-53084D01*
Y-53412D01*
X266766Y-53740D01*
X267422D01*
X267750Y-53412D01*
X250491Y-109645D02*
Y-107677D01*
X249507D01*
X249179Y-108005D01*
Y-108661D01*
X249507Y-108989D01*
X250491D01*
X249835D02*
X249179Y-109645D01*
X248523D02*
X247867D01*
X248196D01*
Y-107677D01*
X248523Y-108005D01*
X245572Y-109645D02*
X246884D01*
X245572Y-108333D01*
Y-108005D01*
X245900Y-107677D01*
X246556D01*
X246884Y-108005D01*
X238648Y-87992D02*
Y-86024D01*
X237664D01*
X237336Y-86352D01*
Y-87008D01*
X237664Y-87336D01*
X238648D01*
X237992D02*
X237336Y-87992D01*
X236680Y-87664D02*
X236352Y-87992D01*
X235696D01*
X235368Y-87664D01*
Y-86352D01*
X235696Y-86024D01*
X236352D01*
X236680Y-86352D01*
Y-86680D01*
X236352Y-87008D01*
X235368D01*
X36286Y-100197D02*
Y-98229D01*
X35302D01*
X34974Y-98557D01*
Y-99213D01*
X35302Y-99541D01*
X36286D01*
X35630D02*
X34974Y-100197D01*
X34318Y-98557D02*
X33990Y-98229D01*
X33334D01*
X33006Y-98557D01*
Y-98885D01*
X33334Y-99213D01*
X33006Y-99541D01*
Y-99869D01*
X33334Y-100197D01*
X33990D01*
X34318Y-99869D01*
Y-99541D01*
X33990Y-99213D01*
X34318Y-98885D01*
Y-98557D01*
X33990Y-99213D02*
X33334D01*
X36286Y-104133D02*
Y-102166D01*
X35302D01*
X34974Y-102494D01*
Y-103150D01*
X35302Y-103478D01*
X36286D01*
X35630D02*
X34974Y-104133D01*
X34318Y-102166D02*
X33006D01*
Y-102494D01*
X34318Y-103806D01*
Y-104133D01*
X36286Y-96259D02*
Y-94292D01*
X35302D01*
X34974Y-94620D01*
Y-95276D01*
X35302Y-95604D01*
X36286D01*
X35630D02*
X34974Y-96259D01*
X33006Y-94292D02*
X33662Y-94620D01*
X34318Y-95276D01*
Y-95932D01*
X33990Y-96259D01*
X33334D01*
X33006Y-95932D01*
Y-95604D01*
X33334Y-95276D01*
X34318D01*
X121719Y-49015D02*
Y-47048D01*
X120735D01*
X120407Y-47376D01*
Y-48031D01*
X120735Y-48360D01*
X121719D01*
X121063D02*
X120407Y-49015D01*
X118439Y-47048D02*
X119751D01*
Y-48031D01*
X119095Y-47703D01*
X118767D01*
X118439Y-48031D01*
Y-48687D01*
X118767Y-49015D01*
X119423D01*
X119751Y-48687D01*
X23785Y-115551D02*
Y-117519D01*
X22802D01*
X22474Y-117191D01*
Y-115879D01*
X22802Y-115551D01*
X23785D01*
X21817Y-117519D02*
X21162D01*
X21489D01*
Y-115551D01*
X21817Y-115879D01*
X20178Y-117519D02*
X19522D01*
X19850D01*
Y-115551D01*
X20178Y-115879D01*
X284120Y-90288D02*
X284449Y-90616D01*
Y-91272D01*
X284120Y-91600D01*
X282809D01*
X282481Y-91272D01*
Y-90616D01*
X282809Y-90288D01*
X282481Y-88320D02*
Y-89632D01*
X283792Y-88320D01*
X284120D01*
X284449Y-88648D01*
Y-89304D01*
X284120Y-89632D01*
X282481Y-86353D02*
Y-87665D01*
X283792Y-86353D01*
X284120D01*
X284449Y-86681D01*
Y-87336D01*
X284120Y-87665D01*
X255774Y-117847D02*
X256102Y-118175D01*
Y-118831D01*
X255774Y-119159D01*
X254462D01*
X254134Y-118831D01*
Y-118175D01*
X254462Y-117847D01*
X254134Y-115879D02*
Y-117191D01*
X255446Y-115879D01*
X255774D01*
X256102Y-116207D01*
Y-116863D01*
X255774Y-117191D01*
Y-115224D02*
X256102Y-114895D01*
Y-114240D01*
X255774Y-113912D01*
X254462D01*
X254134Y-114240D01*
Y-114895D01*
X254462Y-115224D01*
X255774D01*
X256431Y-42947D02*
X256103Y-42619D01*
Y-41963D01*
X256431Y-41635D01*
X257743D01*
X258070Y-41963D01*
Y-42619D01*
X257743Y-42947D01*
X258070Y-43602D02*
Y-44258D01*
Y-43931D01*
X256103D01*
X256431Y-43602D01*
X257743Y-45242D02*
X258070Y-45570D01*
Y-46226D01*
X257743Y-46554D01*
X256431D01*
X256103Y-46226D01*
Y-45570D01*
X256431Y-45242D01*
X256759D01*
X257087Y-45570D01*
Y-46554D01*
X244061Y-83990D02*
X244389Y-83662D01*
X245045D01*
X245373Y-83990D01*
Y-85302D01*
X245045Y-85630D01*
X244389D01*
X244061Y-85302D01*
X243405Y-85630D02*
X242749D01*
X243077D01*
Y-83662D01*
X243405Y-83990D01*
X241765D02*
X241438Y-83662D01*
X240781D01*
X240454Y-83990D01*
Y-84318D01*
X240781Y-84646D01*
X240454Y-84974D01*
Y-85302D01*
X240781Y-85630D01*
X241438D01*
X241765Y-85302D01*
Y-84974D01*
X241438Y-84646D01*
X241765Y-84318D01*
Y-83990D01*
X241438Y-84646D02*
X240781D01*
X221447Y-59879D02*
X221775Y-59552D01*
X222431D01*
X222759Y-59879D01*
Y-61191D01*
X222431Y-61519D01*
X221775D01*
X221447Y-61191D01*
X220791Y-61519D02*
X220135D01*
X220463D01*
Y-59552D01*
X220791Y-59879D01*
X219151Y-59552D02*
X217839D01*
Y-59879D01*
X219151Y-61191D01*
Y-61519D01*
X4987Y-88156D02*
X5315Y-88484D01*
Y-89140D01*
X4987Y-89468D01*
X3675D01*
X3347Y-89140D01*
Y-88484D01*
X3675Y-88156D01*
X3347Y-87500D02*
Y-86844D01*
Y-87172D01*
X5315D01*
X4987Y-87500D01*
X5315Y-84548D02*
Y-85860D01*
X4331D01*
X4659Y-85204D01*
Y-84876D01*
X4331Y-84548D01*
X3675D01*
X3347Y-84876D01*
Y-85532D01*
X3675Y-85860D01*
X86581Y-62730D02*
X86909Y-62402D01*
X87565D01*
X87893Y-62730D01*
Y-64042D01*
X87565Y-64370D01*
X86909D01*
X86581Y-64042D01*
X85925Y-64370D02*
X85269D01*
X85597D01*
Y-62402D01*
X85925Y-62730D01*
X83301Y-64370D02*
Y-62402D01*
X84285Y-63386D01*
X82973D01*
X114534Y-76903D02*
X114862Y-76575D01*
X115518D01*
X115846Y-76903D01*
Y-78215D01*
X115518Y-78543D01*
X114862D01*
X114534Y-78215D01*
X113878Y-78543D02*
X113222D01*
X113550D01*
Y-76575D01*
X113878Y-76903D01*
X112238D02*
X111910Y-76575D01*
X111254D01*
X110926Y-76903D01*
Y-77231D01*
X111254Y-77559D01*
X111582D01*
X111254D01*
X110926Y-77887D01*
Y-78215D01*
X111254Y-78543D01*
X111910D01*
X112238Y-78215D01*
X196741Y-74383D02*
X197069Y-74055D01*
X197725D01*
X198053Y-74383D01*
Y-75695D01*
X197725Y-76023D01*
X197069D01*
X196741Y-75695D01*
X194773Y-76023D02*
X196085D01*
X194773Y-74711D01*
Y-74383D01*
X195101Y-74055D01*
X195757D01*
X196085Y-74383D01*
X147248Y-73710D02*
X147576Y-73382D01*
X148232D01*
X148560Y-73710D01*
Y-75022D01*
X148232Y-75350D01*
X147576D01*
X147248Y-75022D01*
X146592Y-75350D02*
X145936D01*
X146264D01*
Y-73382D01*
X146592Y-73710D01*
D81*
X298025Y-80559D02*
Y-78496D01*
X296994D01*
X296651Y-78840D01*
Y-79528D01*
X296994Y-79871D01*
X298025D01*
X297338D02*
X296651Y-80559D01*
X294588D02*
X295963D01*
X294588Y-79184D01*
Y-78840D01*
X294932Y-78496D01*
X295619D01*
X295963Y-78840D01*
X292526Y-78496D02*
X293901D01*
Y-79528D01*
X293213Y-79184D01*
X292869D01*
X292526Y-79528D01*
Y-80215D01*
X292869Y-80559D01*
X293557D01*
X293901Y-80215D01*
X278197Y-113486D02*
X278540Y-113142D01*
X279228D01*
X279571Y-113486D01*
Y-114861D01*
X279228Y-115204D01*
X278540D01*
X278197Y-114861D01*
X276134Y-115204D02*
X277509D01*
X276134Y-113830D01*
Y-113486D01*
X276478Y-113142D01*
X277165D01*
X277509Y-113486D01*
X275447Y-115204D02*
X274759D01*
X275103D01*
Y-113142D01*
X275447Y-113486D01*
X296651Y-82777D02*
X296994Y-82433D01*
X297682D01*
X298025Y-82777D01*
Y-84152D01*
X297682Y-84496D01*
X296994D01*
X296651Y-84152D01*
X294588Y-84496D02*
X295963D01*
X294588Y-83121D01*
Y-82777D01*
X294932Y-82433D01*
X295619D01*
X295963Y-82777D01*
X293901D02*
X293557Y-82433D01*
X292869D01*
X292526Y-82777D01*
Y-83121D01*
X292869Y-83465D01*
X293213D01*
X292869D01*
X292526Y-83808D01*
Y-84152D01*
X292869Y-84496D01*
X293557D01*
X293901Y-84152D01*
X245713Y-90795D02*
Y-88733D01*
X244682D01*
X244338Y-89076D01*
Y-89764D01*
X244682Y-90108D01*
X245713D01*
X245026D02*
X244338Y-90795D01*
X242276D02*
X243651D01*
X242276Y-89420D01*
Y-89076D01*
X242620Y-88733D01*
X243307D01*
X243651Y-89076D01*
X241588Y-90795D02*
X240901D01*
X241245D01*
Y-88733D01*
X241588Y-89076D01*
X232521Y-99756D02*
Y-101819D01*
X231146D01*
X229084Y-99756D02*
X230459D01*
Y-101819D01*
X229084D01*
X230459Y-100787D02*
X229771D01*
X228396Y-99756D02*
Y-101819D01*
X227365D01*
X227022Y-101475D01*
Y-100100D01*
X227365Y-99756D01*
X228396D01*
X224959Y-101819D02*
X226334D01*
X224959Y-100444D01*
Y-100100D01*
X225303Y-99756D01*
X225990D01*
X226334Y-100100D01*
X123516Y-62748D02*
Y-64811D01*
X122141D01*
X120079Y-62748D02*
X121454D01*
Y-64811D01*
X120079D01*
X121454Y-63779D02*
X120766D01*
X119391Y-62748D02*
Y-64811D01*
X118360D01*
X118016Y-64467D01*
Y-63092D01*
X118360Y-62748D01*
X119391D01*
X117329Y-64811D02*
X116641D01*
X116985D01*
Y-62748D01*
X117329Y-63092D01*
X289364Y-104968D02*
Y-102906D01*
X288333D01*
X287989Y-103250D01*
Y-103937D01*
X288333Y-104281D01*
X289364D01*
X288677D02*
X287989Y-104968D01*
X285927D02*
X287302D01*
X285927Y-103593D01*
Y-103250D01*
X286270Y-102906D01*
X286958D01*
X287302Y-103250D01*
X284208Y-104968D02*
Y-102906D01*
X285239Y-103937D01*
X283864D01*
X298025Y-76622D02*
Y-74559D01*
X296994D01*
X296651Y-74903D01*
Y-75590D01*
X296994Y-75934D01*
X298025D01*
X297338D02*
X296651Y-76622D01*
X294588D02*
X295963D01*
X294588Y-75247D01*
Y-74903D01*
X294932Y-74559D01*
X295619D01*
X295963Y-74903D01*
X293901D02*
X293557Y-74559D01*
X292869D01*
X292526Y-74903D01*
Y-75247D01*
X292869Y-75590D01*
X293213D01*
X292869D01*
X292526Y-75934D01*
Y-76278D01*
X292869Y-76622D01*
X293557D01*
X293901Y-76278D01*
X266685Y-122828D02*
X268748D01*
Y-121797D01*
X268404Y-121454D01*
X267717D01*
X267373Y-121797D01*
Y-122828D01*
Y-122141D02*
X266685Y-121454D01*
Y-119391D02*
Y-120766D01*
X268060Y-119391D01*
X268404D01*
X268748Y-119735D01*
Y-120422D01*
X268404Y-120766D01*
X266685Y-117329D02*
Y-118704D01*
X268060Y-117329D01*
X268404D01*
X268748Y-117673D01*
Y-118360D01*
X268404Y-118704D01*
X251425Y-79743D02*
X249362D01*
Y-78712D01*
X249706Y-78368D01*
X251081D01*
X251425Y-78712D01*
Y-79743D01*
X249362Y-77681D02*
Y-76994D01*
Y-77337D01*
X251425D01*
X251081Y-77681D01*
X249362Y-74931D02*
X251425D01*
X250394Y-75962D01*
Y-74588D01*
M02*
