G04*
G04 #@! TF.GenerationSoftware,Altium Limited,Altium Designer,23.7.1 (13)*
G04*
G04 Layer_Physical_Order=1*
G04 Layer_Color=255*
%FSLAX25Y25*%
%MOIN*%
G70*
G04*
G04 #@! TF.SameCoordinates,1B8C2127-6F75-47A4-92DA-DE864E6653F8*
G04*
G04*
G04 #@! TF.FilePolarity,Positive*
G04*
G01*
G75*
%ADD11C,0.01181*%
%ADD14C,0.01000*%
%ADD16R,0.03937X0.03740*%
%ADD17R,0.05118X0.07284*%
%ADD18R,0.03937X0.05906*%
%ADD19R,0.05118X0.05906*%
%ADD38C,0.01968*%
%ADD39C,0.03937*%
%ADD40R,0.09646X0.06299*%
%ADD41C,0.07087*%
%ADD42R,0.07087X0.07087*%
%ADD43O,0.07874X0.05906*%
%ADD44C,0.07874*%
%ADD45R,0.07874X0.05906*%
%ADD46R,0.07874X0.07874*%
%ADD47O,0.05906X0.07874*%
%ADD48R,0.05906X0.07874*%
%ADD49R,0.07874X0.07874*%
%ADD50R,0.05937X0.05937*%
%ADD51C,0.05937*%
%ADD52C,0.05906*%
%ADD53C,0.01772*%
%ADD54C,0.09843*%
G36*
X315973Y-2756D02*
X317893Y-3339D01*
X319663Y-4285D01*
X321214Y-5558D01*
X322487Y-7109D01*
X323433Y-8878D01*
X324015Y-10798D01*
X324210Y-12774D01*
X324190Y-12795D01*
X324190D01*
X324255Y-13287D01*
X324190Y-13780D01*
X324191Y-144187D01*
X324190Y-144685D01*
X324164Y-145174D01*
X324015Y-146682D01*
X323433Y-148602D01*
X322487Y-150372D01*
X321214Y-151923D01*
X319663Y-153196D01*
X317893Y-154141D01*
X315973Y-154724D01*
X314193Y-154899D01*
X12795D01*
X12702Y-154911D01*
X10798Y-154724D01*
X8878Y-154141D01*
X7109Y-153196D01*
X5558Y-151923D01*
X4285Y-150372D01*
X3339Y-148602D01*
X2756Y-146682D01*
X2608Y-145174D01*
X2581Y-144685D01*
X2581Y-144193D01*
X2581Y-13780D01*
X2516Y-13287D01*
X2581Y-12795D01*
X2581D01*
X2562Y-12774D01*
X2756Y-10798D01*
X3339Y-8878D01*
X4285Y-7109D01*
X5558Y-5558D01*
X7109Y-4285D01*
X8878Y-3339D01*
X10798Y-2756D01*
X12702Y-2569D01*
X12795Y-2581D01*
X313976D01*
X314069Y-2569D01*
X315973Y-2756D01*
D02*
G37*
%LPC*%
G36*
X42076Y-3883D02*
X41462Y-4005D01*
X40941Y-4353D01*
X40593Y-4874D01*
X40470Y-5488D01*
Y-8721D01*
X38537D01*
Y-12173D01*
X45655D01*
Y-8721D01*
X43682D01*
Y-5488D01*
X43559Y-4874D01*
X43211Y-4353D01*
X42690Y-4005D01*
X42076Y-3883D01*
D02*
G37*
G36*
X253615Y-3922D02*
X253001Y-4044D01*
X252480Y-4392D01*
X252132Y-4913D01*
X252010Y-5528D01*
Y-8740D01*
X250056D01*
Y-12193D01*
X257174D01*
Y-8740D01*
X255221D01*
Y-5528D01*
X255099Y-4913D01*
X254751Y-4392D01*
X254230Y-4044D01*
X253615Y-3922D01*
D02*
G37*
G36*
X230115D02*
X229501Y-4044D01*
X228980Y-4392D01*
X228632Y-4913D01*
X228510Y-5528D01*
Y-8740D01*
X226556D01*
Y-12193D01*
X233674D01*
Y-8740D01*
X231721D01*
Y-5528D01*
X231599Y-4913D01*
X231251Y-4392D01*
X230730Y-4044D01*
X230115Y-3922D01*
D02*
G37*
G36*
X206615D02*
X206001Y-4044D01*
X205480Y-4392D01*
X205132Y-4913D01*
X205010Y-5528D01*
Y-8740D01*
X203056D01*
Y-12193D01*
X210174D01*
Y-8740D01*
X208221D01*
Y-5528D01*
X208099Y-4913D01*
X207751Y-4392D01*
X207230Y-4044D01*
X206615Y-3922D01*
D02*
G37*
G36*
X183096Y-3902D02*
X182481Y-4024D01*
X181960Y-4372D01*
X181612Y-4893D01*
X181490Y-5508D01*
Y-8740D01*
X179556D01*
Y-12193D01*
X186674D01*
Y-8740D01*
X184701D01*
Y-5508D01*
X184579Y-4893D01*
X184231Y-4372D01*
X183710Y-4024D01*
X183096Y-3902D01*
D02*
G37*
G36*
X159615Y-3922D02*
X159001Y-4044D01*
X158480Y-4392D01*
X158132Y-4913D01*
X158010Y-5528D01*
Y-8740D01*
X156056D01*
Y-12193D01*
X163174D01*
Y-8740D01*
X161221D01*
Y-5528D01*
X161099Y-4913D01*
X160751Y-4392D01*
X160230Y-4044D01*
X159615Y-3922D01*
D02*
G37*
G36*
X136115D02*
X135501Y-4044D01*
X134980Y-4392D01*
X134632Y-4913D01*
X134510Y-5528D01*
Y-8740D01*
X132556D01*
Y-12193D01*
X139674D01*
Y-8740D01*
X137721D01*
Y-5528D01*
X137599Y-4913D01*
X137251Y-4392D01*
X136730Y-4044D01*
X136115Y-3922D01*
D02*
G37*
G36*
X112596Y-3902D02*
X111981Y-4024D01*
X111460Y-4372D01*
X111112Y-4893D01*
X110990Y-5508D01*
Y-8740D01*
X109056D01*
Y-12193D01*
X116174D01*
Y-8740D01*
X114201D01*
Y-5508D01*
X114079Y-4893D01*
X113731Y-4372D01*
X113210Y-4024D01*
X112596Y-3902D01*
D02*
G37*
G36*
X89096D02*
X88481Y-4024D01*
X87960Y-4372D01*
X87612Y-4893D01*
X87490Y-5508D01*
Y-8740D01*
X85556D01*
Y-12193D01*
X92674D01*
Y-8740D01*
X90701D01*
Y-5508D01*
X90579Y-4893D01*
X90231Y-4372D01*
X89710Y-4024D01*
X89096Y-3902D01*
D02*
G37*
G36*
X65596D02*
X64981Y-4024D01*
X64460Y-4372D01*
X64112Y-4893D01*
X63990Y-5508D01*
Y-8740D01*
X62056D01*
Y-12193D01*
X69174D01*
Y-8740D01*
X67201D01*
Y-5508D01*
X67079Y-4893D01*
X66731Y-4372D01*
X66210Y-4024D01*
X65596Y-3902D01*
D02*
G37*
G36*
X45655Y-13173D02*
X42596D01*
Y-16626D01*
X45655D01*
Y-13173D01*
D02*
G37*
G36*
X41596D02*
X38537D01*
Y-16626D01*
X41596D01*
Y-13173D01*
D02*
G37*
G36*
X257174Y-13193D02*
X254115D01*
Y-16646D01*
X257174D01*
Y-13193D01*
D02*
G37*
G36*
X253115D02*
X250056D01*
Y-16646D01*
X253115D01*
Y-13193D01*
D02*
G37*
G36*
X233674D02*
X230615D01*
Y-16646D01*
X233674D01*
Y-13193D01*
D02*
G37*
G36*
X229615D02*
X226556D01*
Y-16646D01*
X229615D01*
Y-13193D01*
D02*
G37*
G36*
X210174D02*
X207115D01*
Y-16646D01*
X210174D01*
Y-13193D01*
D02*
G37*
G36*
X206115D02*
X203056D01*
Y-16646D01*
X206115D01*
Y-13193D01*
D02*
G37*
G36*
X186674D02*
X183615D01*
Y-16646D01*
X186674D01*
Y-13193D01*
D02*
G37*
G36*
X182615D02*
X179556D01*
Y-16646D01*
X182615D01*
Y-13193D01*
D02*
G37*
G36*
X163174D02*
X160115D01*
Y-16646D01*
X163174D01*
Y-13193D01*
D02*
G37*
G36*
X159115D02*
X156056D01*
Y-16646D01*
X159115D01*
Y-13193D01*
D02*
G37*
G36*
X139674D02*
X136615D01*
Y-16646D01*
X139674D01*
Y-13193D01*
D02*
G37*
G36*
X135615D02*
X132556D01*
Y-16646D01*
X135615D01*
Y-13193D01*
D02*
G37*
G36*
X116174D02*
X113115D01*
Y-16646D01*
X116174D01*
Y-13193D01*
D02*
G37*
G36*
X112115D02*
X109056D01*
Y-16646D01*
X112115D01*
Y-13193D01*
D02*
G37*
G36*
X92674D02*
X89615D01*
Y-16646D01*
X92674D01*
Y-13193D01*
D02*
G37*
G36*
X88615D02*
X85556D01*
Y-16646D01*
X88615D01*
Y-13193D01*
D02*
G37*
G36*
X69174D02*
X66115D01*
Y-16646D01*
X69174D01*
Y-13193D01*
D02*
G37*
G36*
X65115D02*
X62056D01*
Y-16646D01*
X65115D01*
Y-13193D01*
D02*
G37*
G36*
X307812Y-10236D02*
X306361D01*
X304959Y-10612D01*
X303702Y-11338D01*
X302676Y-12364D01*
X301950Y-13621D01*
X301575Y-15022D01*
Y-16474D01*
X301950Y-17876D01*
X302676Y-19132D01*
X303702Y-20159D01*
X304959Y-20884D01*
X306361Y-21260D01*
X307812D01*
X309214Y-20884D01*
X310471Y-20159D01*
X311497Y-19132D01*
X312223Y-17876D01*
X312598Y-16474D01*
Y-15022D01*
X312223Y-13621D01*
X311497Y-12364D01*
X310471Y-11338D01*
X309214Y-10612D01*
X307812Y-10236D01*
D02*
G37*
G36*
X20411D02*
X18959D01*
X17558Y-10612D01*
X16301Y-11338D01*
X15274Y-12364D01*
X14549Y-13621D01*
X14173Y-15022D01*
Y-16474D01*
X14549Y-17876D01*
X15274Y-19132D01*
X16301Y-20159D01*
X17558Y-20884D01*
X18959Y-21260D01*
X20411D01*
X21813Y-20884D01*
X23069Y-20159D01*
X24096Y-19132D01*
X24821Y-17876D01*
X25197Y-16474D01*
Y-15022D01*
X24821Y-13621D01*
X24096Y-12364D01*
X23069Y-11338D01*
X21813Y-10612D01*
X20411Y-10236D01*
D02*
G37*
G36*
X195311Y-3965D02*
X194697Y-4087D01*
X194176Y-4436D01*
X193828Y-4956D01*
X193705Y-5571D01*
Y-9193D01*
X192161D01*
Y-16280D01*
X193705D01*
Y-18240D01*
X192752D01*
Y-25327D01*
X197870D01*
Y-18240D01*
X196917D01*
Y-16280D01*
X198461D01*
Y-9193D01*
X196917D01*
Y-5571D01*
X196794Y-4956D01*
X196446Y-4436D01*
X195925Y-4087D01*
X195311Y-3965D01*
D02*
G37*
G36*
X171811D02*
X171197Y-4087D01*
X170676Y-4436D01*
X170328Y-4956D01*
X170205Y-5571D01*
Y-9193D01*
X168661D01*
Y-16280D01*
X170205D01*
Y-18240D01*
X169252D01*
Y-25327D01*
X174370D01*
Y-18240D01*
X173417D01*
Y-16280D01*
X174961D01*
Y-9193D01*
X173417D01*
Y-5571D01*
X173294Y-4956D01*
X172946Y-4436D01*
X172425Y-4087D01*
X171811Y-3965D01*
D02*
G37*
G36*
X148311D02*
X147697Y-4087D01*
X147176Y-4436D01*
X146828Y-4956D01*
X146705Y-5571D01*
Y-9193D01*
X145161D01*
Y-16280D01*
X146705D01*
Y-18240D01*
X145752D01*
Y-25327D01*
X150870D01*
Y-18240D01*
X149917D01*
Y-16280D01*
X151461D01*
Y-9193D01*
X149917D01*
Y-5571D01*
X149794Y-4956D01*
X149446Y-4436D01*
X148925Y-4087D01*
X148311Y-3965D01*
D02*
G37*
G36*
X124811D02*
X124197Y-4087D01*
X123676Y-4436D01*
X123328Y-4956D01*
X123205Y-5571D01*
Y-9193D01*
X121661D01*
Y-16280D01*
X123205D01*
Y-18240D01*
X122252D01*
Y-25327D01*
X127370D01*
Y-18240D01*
X126417D01*
Y-16280D01*
X127961D01*
Y-9193D01*
X126417D01*
Y-5571D01*
X126295Y-4956D01*
X125946Y-4436D01*
X125426Y-4087D01*
X124811Y-3965D01*
D02*
G37*
G36*
X101311Y-3946D02*
X101291D01*
X100677Y-4068D01*
X100156Y-4416D01*
X99808Y-4937D01*
X99686Y-5551D01*
X99705Y-5650D01*
Y-9193D01*
X98161D01*
Y-16280D01*
X99705D01*
Y-18240D01*
X98752D01*
Y-25327D01*
X103870D01*
Y-18240D01*
X102917D01*
Y-16280D01*
X104461D01*
Y-9193D01*
X102917D01*
Y-5551D01*
X102794Y-4937D01*
X102446Y-4416D01*
X101926Y-4068D01*
X101311Y-3946D01*
D02*
G37*
G36*
X77791D02*
X77177Y-4068D01*
X76656Y-4416D01*
X76308Y-4937D01*
X76186Y-5551D01*
Y-9193D01*
X74661D01*
Y-16280D01*
X76186D01*
Y-18240D01*
X75252D01*
Y-25327D01*
X80370D01*
Y-18240D01*
X79397D01*
Y-16280D01*
X80961D01*
Y-9193D01*
X79397D01*
Y-5551D01*
X79275Y-4937D01*
X78927Y-4416D01*
X78406Y-4068D01*
X77791Y-3946D01*
D02*
G37*
G36*
X54291D02*
X53677Y-4068D01*
X53156Y-4416D01*
X52808Y-4937D01*
X52686Y-5551D01*
Y-9173D01*
X51142D01*
Y-16260D01*
X52686D01*
Y-18240D01*
X51752D01*
Y-25327D01*
X56870D01*
Y-18240D01*
X55897D01*
Y-16260D01*
X57441D01*
Y-9173D01*
X55897D01*
Y-5551D01*
X55775Y-4937D01*
X55427Y-4416D01*
X54906Y-4068D01*
X54291Y-3946D01*
D02*
G37*
G36*
X218811Y-3965D02*
X218197Y-4087D01*
X217676Y-4436D01*
X217328Y-4956D01*
X217205Y-5571D01*
Y-9193D01*
X215661D01*
Y-16280D01*
X217205D01*
Y-18240D01*
X216252D01*
Y-25327D01*
X221370D01*
Y-18240D01*
X220417D01*
Y-16280D01*
X221961D01*
Y-9193D01*
X220417D01*
Y-5571D01*
X220294Y-4956D01*
X219946Y-4436D01*
X219426Y-4087D01*
X218811Y-3965D01*
D02*
G37*
G36*
X242311D02*
X241697Y-4087D01*
X241176Y-4436D01*
X240828Y-4956D01*
X240705Y-5571D01*
Y-9193D01*
X239161D01*
Y-16280D01*
X240705D01*
Y-18241D01*
X239752D01*
Y-25327D01*
X244870D01*
Y-18241D01*
X243917D01*
Y-16280D01*
X245461D01*
Y-9193D01*
X243917D01*
Y-5571D01*
X243794Y-4956D01*
X243446Y-4436D01*
X242926Y-4087D01*
X242311Y-3965D01*
D02*
G37*
G36*
X265811D02*
X265197Y-4087D01*
X264676Y-4436D01*
X264328Y-4956D01*
X264205Y-5571D01*
Y-9193D01*
X262661D01*
Y-16280D01*
X264205D01*
Y-18241D01*
X263251D01*
Y-25327D01*
X268370D01*
Y-18241D01*
X267417D01*
Y-16280D01*
X268961D01*
Y-9193D01*
X267417D01*
Y-5571D01*
X267295Y-4956D01*
X266946Y-4436D01*
X266425Y-4087D01*
X265811Y-3965D01*
D02*
G37*
G36*
X262071Y-18241D02*
X256953D01*
Y-25327D01*
X262071D01*
Y-18241D01*
D02*
G37*
G36*
X255771D02*
X250653D01*
Y-25327D01*
X255771D01*
Y-18241D01*
D02*
G37*
G36*
X191571Y-18240D02*
X186453D01*
Y-25327D01*
X187900D01*
Y-27914D01*
X187900Y-27914D01*
X187985Y-28339D01*
X188226Y-28700D01*
X189725Y-30200D01*
X189726Y-30200D01*
X189878Y-30301D01*
X189726Y-30801D01*
X184972D01*
X183825Y-29654D01*
Y-25327D01*
X185272D01*
Y-18240D01*
X180154D01*
Y-25327D01*
X181601D01*
Y-30114D01*
X181601Y-30114D01*
X181685Y-30540D01*
X181926Y-30900D01*
X183726Y-32700D01*
X183726Y-32700D01*
X184086Y-32941D01*
X184512Y-33025D01*
X184512Y-33025D01*
X190051D01*
X190900Y-33874D01*
Y-36913D01*
X190900Y-36913D01*
X190984Y-37339D01*
X191226Y-37700D01*
X192183Y-38657D01*
X192290Y-38947D01*
X192342Y-39151D01*
X192342Y-39333D01*
Y-42543D01*
X195311D01*
Y-43043D01*
X195811D01*
Y-46996D01*
X198280D01*
Y-44649D01*
X200122D01*
X200736Y-44527D01*
X201257Y-44179D01*
X201605Y-43658D01*
X201728Y-43043D01*
X201605Y-42429D01*
X201257Y-41908D01*
X200736Y-41560D01*
X200122Y-41438D01*
X198280D01*
X198280Y-39091D01*
X198752Y-39025D01*
X203593D01*
X203653Y-39500D01*
X203653D01*
Y-46587D01*
X208771D01*
Y-39500D01*
X207622D01*
X207324Y-39114D01*
X207240Y-38688D01*
X206999Y-38328D01*
X205798Y-37127D01*
X205646Y-37025D01*
X205797Y-36525D01*
X211051D01*
X211400Y-36874D01*
Y-39500D01*
X209953D01*
Y-46587D01*
X215071D01*
Y-39500D01*
X213624D01*
Y-36413D01*
X213539Y-35988D01*
X213298Y-35627D01*
X213298Y-35627D01*
X212298Y-34627D01*
X211937Y-34386D01*
X211512Y-34301D01*
X211512Y-34301D01*
X196472D01*
X196124Y-33953D01*
Y-30913D01*
X196124Y-30913D01*
X196039Y-30488D01*
X195798Y-30127D01*
X194298Y-28627D01*
X193937Y-28386D01*
X193512Y-28301D01*
X193512Y-28302D01*
X190972D01*
X190124Y-27453D01*
Y-25327D01*
X191571D01*
Y-18240D01*
D02*
G37*
G36*
X168071D02*
X162953D01*
Y-25327D01*
X164400D01*
Y-27914D01*
X164400Y-27914D01*
X164485Y-28339D01*
X164726Y-28700D01*
X166226Y-30200D01*
X166226Y-30200D01*
X166378Y-30301D01*
X166226Y-30801D01*
X161472D01*
X160325Y-29654D01*
Y-25327D01*
X161772D01*
Y-18240D01*
X156653D01*
Y-25327D01*
X158101D01*
Y-30114D01*
X158101Y-30114D01*
X158185Y-30540D01*
X158426Y-30900D01*
X160225Y-32700D01*
X160226Y-32700D01*
X160586Y-32941D01*
X161012Y-33025D01*
X161012Y-33025D01*
X166551D01*
X167400Y-33874D01*
Y-36913D01*
X167400Y-36913D01*
X167484Y-37339D01*
X167726Y-37700D01*
X168683Y-38657D01*
X168790Y-38947D01*
X168842Y-39151D01*
X168842Y-39333D01*
Y-42543D01*
X171811D01*
Y-43043D01*
X172311D01*
Y-46996D01*
X174779D01*
Y-44649D01*
X176622D01*
X177236Y-44527D01*
X177757Y-44179D01*
X178105Y-43658D01*
X178228Y-43043D01*
X178105Y-42429D01*
X177757Y-41908D01*
X177236Y-41560D01*
X176622Y-41438D01*
X174779D01*
X174779Y-39091D01*
X175252Y-39025D01*
X180093D01*
X180154Y-39500D01*
X180154D01*
Y-46587D01*
X185272D01*
Y-39500D01*
X184122D01*
X183824Y-39114D01*
X183740Y-38688D01*
X183499Y-38328D01*
X182298Y-37127D01*
X182146Y-37025D01*
X182297Y-36525D01*
X187551D01*
X187900Y-36874D01*
Y-39500D01*
X186453D01*
Y-46587D01*
X191571D01*
Y-39500D01*
X190124D01*
Y-36413D01*
X190039Y-35988D01*
X189798Y-35627D01*
X189798Y-35627D01*
X188798Y-34627D01*
X188437Y-34386D01*
X188012Y-34301D01*
X188012Y-34301D01*
X172972D01*
X172624Y-33953D01*
Y-30913D01*
X172624Y-30913D01*
X172539Y-30488D01*
X172298Y-30127D01*
X170798Y-28627D01*
X170437Y-28386D01*
X170012Y-28301D01*
X170012Y-28302D01*
X167472D01*
X166624Y-27453D01*
Y-25327D01*
X168071D01*
Y-18240D01*
D02*
G37*
G36*
X144571D02*
X139453D01*
Y-25327D01*
X140900D01*
Y-27914D01*
X140900Y-27914D01*
X140985Y-28339D01*
X141226Y-28700D01*
X142726Y-30200D01*
X142726Y-30200D01*
X142878Y-30301D01*
X142726Y-30801D01*
X137972D01*
X136825Y-29654D01*
Y-25327D01*
X138272D01*
Y-18240D01*
X133153D01*
Y-25327D01*
X134601D01*
Y-30114D01*
X134601Y-30114D01*
X134685Y-30540D01*
X134926Y-30900D01*
X136725Y-32700D01*
X136726Y-32700D01*
X137086Y-32941D01*
X137512Y-33025D01*
X137512Y-33025D01*
X143051D01*
X143900Y-33874D01*
Y-36913D01*
X143900Y-36913D01*
X143984Y-37339D01*
X144226Y-37700D01*
X145183Y-38657D01*
X145290Y-38947D01*
X145343Y-39151D01*
X145343Y-39333D01*
Y-42543D01*
X148311D01*
Y-43043D01*
X148811D01*
Y-46996D01*
X151279D01*
Y-44649D01*
X153122D01*
X153736Y-44527D01*
X154257Y-44179D01*
X154605Y-43658D01*
X154728Y-43043D01*
X154605Y-42429D01*
X154257Y-41908D01*
X153736Y-41560D01*
X153122Y-41438D01*
X151279D01*
X151279Y-39091D01*
X151752Y-39025D01*
X156593D01*
X156653Y-39500D01*
X156653D01*
Y-46587D01*
X161772D01*
Y-39500D01*
X160622D01*
X160324Y-39114D01*
X160240Y-38688D01*
X159999Y-38328D01*
X158798Y-37127D01*
X158646Y-37025D01*
X158797Y-36525D01*
X164051D01*
X164400Y-36874D01*
Y-39500D01*
X162953D01*
Y-46587D01*
X168071D01*
Y-39500D01*
X166624D01*
Y-36413D01*
X166539Y-35988D01*
X166298Y-35627D01*
X166298Y-35627D01*
X165298Y-34627D01*
X164937Y-34386D01*
X164512Y-34301D01*
X164512Y-34301D01*
X149472D01*
X149124Y-33953D01*
Y-30913D01*
X149124Y-30913D01*
X149039Y-30488D01*
X148798Y-30127D01*
X147298Y-28627D01*
X146937Y-28386D01*
X146512Y-28301D01*
X146512Y-28302D01*
X143972D01*
X143124Y-27453D01*
Y-25327D01*
X144571D01*
Y-18240D01*
D02*
G37*
G36*
X121071D02*
X115953D01*
Y-25327D01*
X117400D01*
Y-27914D01*
X117400Y-27914D01*
X117485Y-28339D01*
X117726Y-28700D01*
X119226Y-30200D01*
X119226Y-30200D01*
X119378Y-30301D01*
X119226Y-30801D01*
X114472D01*
X113324Y-29654D01*
Y-25327D01*
X114772D01*
Y-18240D01*
X109653D01*
Y-25327D01*
X111101D01*
Y-30114D01*
X111101Y-30114D01*
X111185Y-30540D01*
X111426Y-30900D01*
X113225Y-32700D01*
X113226Y-32700D01*
X113586Y-32941D01*
X114012Y-33025D01*
X114012Y-33025D01*
X119551D01*
X120400Y-33874D01*
Y-36913D01*
X120400Y-36913D01*
X120484Y-37339D01*
X120726Y-37700D01*
X121683Y-38657D01*
X121790Y-38947D01*
X121843Y-39151D01*
X121843Y-39333D01*
Y-42543D01*
X124811D01*
Y-43043D01*
X125311D01*
Y-46996D01*
X127779D01*
Y-44649D01*
X129622D01*
X130236Y-44527D01*
X130757Y-44179D01*
X131105Y-43658D01*
X131228Y-43043D01*
X131105Y-42429D01*
X130757Y-41908D01*
X130236Y-41560D01*
X129622Y-41438D01*
X127779D01*
X127779Y-39091D01*
X128252Y-39025D01*
X133093D01*
X133153Y-39500D01*
X133153D01*
Y-46587D01*
X138272D01*
Y-39500D01*
X137122D01*
X136824Y-39114D01*
X136740Y-38688D01*
X136499Y-38328D01*
X135298Y-37127D01*
X135146Y-37025D01*
X135297Y-36525D01*
X140551D01*
X140900Y-36874D01*
Y-39500D01*
X139453D01*
Y-46587D01*
X144571D01*
Y-39500D01*
X143124D01*
Y-36413D01*
X143039Y-35988D01*
X142798Y-35627D01*
X142798Y-35627D01*
X141798Y-34627D01*
X141437Y-34386D01*
X141012Y-34301D01*
X141012Y-34301D01*
X125972D01*
X125624Y-33953D01*
Y-30913D01*
X125624Y-30913D01*
X125539Y-30488D01*
X125298Y-30127D01*
X123798Y-28627D01*
X123437Y-28386D01*
X123012Y-28301D01*
X123012Y-28302D01*
X120472D01*
X119624Y-27453D01*
Y-25327D01*
X121071D01*
Y-18240D01*
D02*
G37*
G36*
X97571D02*
X92453D01*
Y-25327D01*
X93900D01*
Y-27914D01*
X93900Y-27914D01*
X93985Y-28339D01*
X94226Y-28700D01*
X95726Y-30200D01*
X95726Y-30200D01*
X95878Y-30301D01*
X95726Y-30801D01*
X90972D01*
X89824Y-29654D01*
Y-25327D01*
X91272D01*
Y-18240D01*
X86154D01*
Y-25327D01*
X87601D01*
Y-30114D01*
X87601Y-30114D01*
X87685Y-30540D01*
X87926Y-30900D01*
X89726Y-32700D01*
X89726Y-32700D01*
X90086Y-32941D01*
X90512Y-33025D01*
X90512Y-33025D01*
X96051D01*
X96900Y-33874D01*
Y-36913D01*
X96900Y-36913D01*
X96984Y-37339D01*
X97226Y-37700D01*
X98183Y-38657D01*
X98290Y-38947D01*
X98343Y-39151D01*
X98343Y-39333D01*
Y-42543D01*
X101311D01*
Y-43043D01*
X101811D01*
Y-46996D01*
X104279D01*
Y-44649D01*
X106122D01*
X106736Y-44527D01*
X107257Y-44179D01*
X107605Y-43658D01*
X107728Y-43043D01*
X107605Y-42429D01*
X107257Y-41908D01*
X106736Y-41560D01*
X106122Y-41438D01*
X104279D01*
X104279Y-39091D01*
X104752Y-39025D01*
X109593D01*
X109653Y-39500D01*
X109653D01*
Y-46587D01*
X114772D01*
Y-39500D01*
X113622D01*
X113324Y-39114D01*
X113240Y-38688D01*
X112999Y-38328D01*
X111798Y-37127D01*
X111646Y-37025D01*
X111797Y-36525D01*
X117051D01*
X117400Y-36874D01*
Y-39500D01*
X115953D01*
Y-46587D01*
X121071D01*
Y-39500D01*
X119624D01*
Y-36413D01*
X119539Y-35988D01*
X119298Y-35627D01*
X119298Y-35627D01*
X118298Y-34627D01*
X117937Y-34386D01*
X117512Y-34301D01*
X117512Y-34301D01*
X102472D01*
X102124Y-33953D01*
Y-30913D01*
X102124Y-30913D01*
X102039Y-30488D01*
X101798Y-30127D01*
X100298Y-28627D01*
X99937Y-28386D01*
X99512Y-28301D01*
X99512Y-28302D01*
X96972D01*
X96124Y-27453D01*
Y-25327D01*
X97571D01*
Y-18240D01*
D02*
G37*
G36*
X74071D02*
X68953D01*
Y-25327D01*
X70400D01*
Y-27914D01*
X70400Y-27914D01*
X70485Y-28339D01*
X70726Y-28700D01*
X72225Y-30200D01*
X72225Y-30200D01*
X72378Y-30301D01*
X72226Y-30801D01*
X67472D01*
X66325Y-29654D01*
Y-25327D01*
X67772D01*
Y-18240D01*
X62653D01*
Y-25327D01*
X64101D01*
Y-30114D01*
X64101Y-30114D01*
X64185Y-30540D01*
X64426Y-30900D01*
X66225Y-32700D01*
X66225Y-32700D01*
X66586Y-32941D01*
X67012Y-33025D01*
X67012Y-33025D01*
X72551D01*
X73400Y-33874D01*
Y-36913D01*
X73400Y-36913D01*
X73484Y-37339D01*
X73725Y-37700D01*
X74683Y-38657D01*
X74790Y-38947D01*
X74843Y-39151D01*
X74843Y-39333D01*
Y-42543D01*
X77811D01*
Y-43043D01*
X78311D01*
Y-46996D01*
X80779D01*
Y-44649D01*
X82622D01*
X83236Y-44527D01*
X83757Y-44179D01*
X84105Y-43658D01*
X84228Y-43043D01*
X84105Y-42429D01*
X83757Y-41908D01*
X83236Y-41560D01*
X82622Y-41438D01*
X80779D01*
X80779Y-39091D01*
X81252Y-39025D01*
X86093D01*
X86154Y-39500D01*
X86154D01*
Y-46587D01*
X91272D01*
Y-39500D01*
X90122D01*
X89824Y-39114D01*
X89740Y-38688D01*
X89499Y-38328D01*
X88298Y-37127D01*
X88146Y-37025D01*
X88297Y-36525D01*
X93551D01*
X93900Y-36874D01*
Y-39500D01*
X92453D01*
Y-46587D01*
X97571D01*
Y-39500D01*
X96124D01*
Y-36413D01*
X96039Y-35988D01*
X95798Y-35627D01*
X95798Y-35627D01*
X94798Y-34627D01*
X94437Y-34386D01*
X94012Y-34301D01*
X94012Y-34301D01*
X78972D01*
X78624Y-33953D01*
Y-30913D01*
X78624Y-30913D01*
X78539Y-30488D01*
X78298Y-30127D01*
X76798Y-28627D01*
X76437Y-28386D01*
X76012Y-28301D01*
X76012Y-28302D01*
X73472D01*
X72624Y-27453D01*
Y-25327D01*
X74071D01*
Y-18240D01*
D02*
G37*
G36*
X50571D02*
X45453D01*
Y-25327D01*
X46900D01*
Y-27914D01*
X46900Y-27914D01*
X46985Y-28339D01*
X47226Y-28700D01*
X48726Y-30200D01*
X48726Y-30200D01*
X48878Y-30301D01*
X48726Y-30801D01*
X43972D01*
X42825Y-29654D01*
Y-25327D01*
X44272D01*
Y-18240D01*
X39154D01*
Y-25327D01*
X40601D01*
Y-30114D01*
X40601Y-30114D01*
X40685Y-30540D01*
X40926Y-30900D01*
X42726Y-32700D01*
X42726Y-32700D01*
X43086Y-32941D01*
X43512Y-33025D01*
X43512Y-33025D01*
X49051D01*
X49900Y-33874D01*
Y-36913D01*
X49900Y-36913D01*
X49984Y-37339D01*
X50226Y-37700D01*
X51183Y-38657D01*
X51290Y-38947D01*
X51342Y-39151D01*
X51342Y-39333D01*
Y-42543D01*
X54311D01*
Y-43043D01*
X54811D01*
Y-46996D01*
X57279D01*
Y-44649D01*
X59122D01*
X59736Y-44527D01*
X60257Y-44179D01*
X60605Y-43658D01*
X60728Y-43043D01*
X60605Y-42429D01*
X60257Y-41908D01*
X59736Y-41560D01*
X59122Y-41438D01*
X57279D01*
X57279Y-39091D01*
X57752Y-39025D01*
X62593D01*
X62653Y-39500D01*
X62653D01*
Y-46587D01*
X67772D01*
Y-39500D01*
X66622D01*
X66324Y-39114D01*
X66240Y-38688D01*
X65999Y-38328D01*
X64798Y-37127D01*
X64646Y-37025D01*
X64797Y-36525D01*
X70051D01*
X70400Y-36874D01*
Y-39500D01*
X68953D01*
Y-46587D01*
X74071D01*
Y-39500D01*
X72624D01*
Y-36413D01*
X72539Y-35988D01*
X72298Y-35627D01*
X72298Y-35627D01*
X71298Y-34627D01*
X70937Y-34386D01*
X70512Y-34301D01*
X70512Y-34301D01*
X55472D01*
X55124Y-33953D01*
Y-30913D01*
X55124Y-30913D01*
X55039Y-30488D01*
X54798Y-30127D01*
X53298Y-28627D01*
X52937Y-28386D01*
X52512Y-28301D01*
X52512Y-28302D01*
X49972D01*
X49124Y-27453D01*
Y-25327D01*
X50571D01*
Y-18240D01*
D02*
G37*
G36*
X215071Y-18240D02*
X209953D01*
Y-25327D01*
X211400D01*
Y-27914D01*
X211400Y-27914D01*
X211485Y-28339D01*
X211726Y-28700D01*
X213225Y-30200D01*
X213225Y-30200D01*
X213378Y-30302D01*
X213226Y-30802D01*
X208472D01*
X207324Y-29654D01*
Y-25327D01*
X208771D01*
Y-18240D01*
X203653D01*
Y-25327D01*
X205100D01*
Y-30114D01*
X205100Y-30114D01*
X205185Y-30540D01*
X205426Y-30901D01*
X207225Y-32700D01*
X207225Y-32700D01*
X207586Y-32941D01*
X208012Y-33026D01*
X208012Y-33026D01*
X213551D01*
X214400Y-33874D01*
Y-36913D01*
X214400Y-36914D01*
X214484Y-37339D01*
X214725Y-37700D01*
X215683Y-38657D01*
X215790Y-38947D01*
X215842Y-39151D01*
X215842Y-39334D01*
Y-42544D01*
X218811D01*
Y-43044D01*
X219311D01*
Y-46996D01*
X221779D01*
Y-44649D01*
X223622D01*
X224236Y-44527D01*
X224757Y-44179D01*
X225105Y-43658D01*
X225227Y-43044D01*
X225105Y-42429D01*
X224757Y-41908D01*
X224236Y-41560D01*
X223622Y-41438D01*
X221779D01*
X221779Y-39091D01*
X222252Y-39026D01*
X227093D01*
X227153Y-39500D01*
X227153D01*
Y-46587D01*
X232271D01*
Y-39500D01*
X231122D01*
X230824Y-39114D01*
X230739Y-38689D01*
X230499Y-38328D01*
X229298Y-37127D01*
X229146Y-37025D01*
X229297Y-36525D01*
X234551D01*
X234900Y-36874D01*
Y-39500D01*
X233453D01*
Y-46587D01*
X238571D01*
Y-39500D01*
X237123D01*
Y-36414D01*
X237039Y-35988D01*
X236798Y-35627D01*
X236798Y-35627D01*
X235798Y-34627D01*
X235437Y-34386D01*
X235012Y-34302D01*
X235012Y-34302D01*
X219972D01*
X219623Y-33953D01*
Y-30914D01*
X219624Y-30914D01*
X219539Y-30488D01*
X219298Y-30127D01*
X217798Y-28627D01*
X217437Y-28386D01*
X217012Y-28302D01*
X217012Y-28302D01*
X214472D01*
X213624Y-27453D01*
Y-25327D01*
X215071D01*
Y-18240D01*
D02*
G37*
G36*
X238571Y-18241D02*
X233453D01*
Y-25327D01*
X234900D01*
Y-27914D01*
X234900Y-27914D01*
X234984Y-28339D01*
X235225Y-28700D01*
X236725Y-30200D01*
X236725Y-30200D01*
X236878Y-30302D01*
X236726Y-30802D01*
X231972D01*
X230824Y-29654D01*
Y-25327D01*
X232271D01*
Y-18241D01*
X227153D01*
Y-25327D01*
X228600D01*
Y-30114D01*
X228600Y-30114D01*
X228685Y-30540D01*
X228926Y-30901D01*
X230725Y-32700D01*
X230725Y-32700D01*
X231086Y-32941D01*
X231511Y-33026D01*
X231511Y-33026D01*
X237051D01*
X237899Y-33874D01*
Y-36914D01*
X237899Y-36914D01*
X237984Y-37339D01*
X238225Y-37700D01*
X239182Y-38657D01*
X239289Y-38948D01*
X239342Y-39151D01*
X239342Y-39334D01*
Y-42544D01*
X242311D01*
Y-43044D01*
X242811D01*
Y-46997D01*
X245279D01*
Y-44649D01*
X247122D01*
X247736Y-44527D01*
X248257Y-44179D01*
X248605Y-43658D01*
X248727Y-43044D01*
X248605Y-42429D01*
X248257Y-41908D01*
X247736Y-41560D01*
X247122Y-41438D01*
X245279D01*
X245279Y-39091D01*
X245752Y-39026D01*
X250593D01*
X250653Y-39501D01*
X250653D01*
Y-46587D01*
X255771D01*
Y-39501D01*
X254622D01*
X254324Y-39114D01*
X254239Y-38689D01*
X253998Y-38328D01*
X252798Y-37128D01*
X252645Y-37026D01*
X252797Y-36526D01*
X258051D01*
X258400Y-36874D01*
Y-39501D01*
X256953D01*
Y-46587D01*
X262071D01*
Y-39501D01*
X260623D01*
Y-36414D01*
X260539Y-35988D01*
X260298Y-35627D01*
X260298Y-35627D01*
X259298Y-34628D01*
X258937Y-34387D01*
X258511Y-34302D01*
X258511Y-34302D01*
X243472D01*
X243123Y-33953D01*
Y-30914D01*
X243123Y-30914D01*
X243039Y-30488D01*
X242798Y-30128D01*
X241298Y-28627D01*
X240937Y-28387D01*
X240511Y-28302D01*
X240511Y-28302D01*
X237972D01*
X237124Y-27453D01*
Y-25327D01*
X238571D01*
Y-18241D01*
D02*
G37*
G36*
X18347Y-26585D02*
X8425D01*
X7973Y-26772D01*
X7786Y-27224D01*
Y-34508D01*
X7973Y-34960D01*
X8425Y-35147D01*
X18347D01*
X18464Y-35098D01*
X18937D01*
Y-34625D01*
X18986Y-34508D01*
Y-27224D01*
X18937Y-27107D01*
Y-26634D01*
X18464D01*
X18347Y-26585D01*
D02*
G37*
G36*
X265311Y-39091D02*
X262842D01*
Y-42544D01*
X265311D01*
Y-39091D01*
D02*
G37*
G36*
X296897Y-38724D02*
X296799D01*
Y-42768D01*
X300842D01*
Y-42670D01*
X300533Y-41514D01*
X299935Y-40478D01*
X299089Y-39632D01*
X298053Y-39034D01*
X296897Y-38724D01*
D02*
G37*
G36*
X295799D02*
X295701D01*
X294546Y-39034D01*
X293510Y-39632D01*
X292664Y-40478D01*
X292066Y-41514D01*
X291756Y-42670D01*
Y-42768D01*
X295799D01*
Y-38724D01*
D02*
G37*
G36*
X30354Y-26634D02*
X24055D01*
Y-35098D01*
X24624D01*
Y-36752D01*
X24055D01*
Y-45217D01*
X30354D01*
Y-36752D01*
X29786D01*
Y-35098D01*
X30354D01*
Y-34655D01*
X34685D01*
X35137Y-34468D01*
X35324Y-34016D01*
Y-27717D01*
X35137Y-27265D01*
X34685Y-27077D01*
X30354D01*
Y-26634D01*
D02*
G37*
G36*
X194811Y-43543D02*
X192342D01*
Y-46996D01*
X194811D01*
Y-43543D01*
D02*
G37*
G36*
X171311D02*
X168842D01*
Y-46996D01*
X171311D01*
Y-43543D01*
D02*
G37*
G36*
X147811D02*
X145343D01*
Y-46996D01*
X147811D01*
Y-43543D01*
D02*
G37*
G36*
X124311D02*
X121843D01*
Y-46996D01*
X124311D01*
Y-43543D01*
D02*
G37*
G36*
X100811Y-43543D02*
X98343D01*
Y-46996D01*
X100811D01*
Y-43543D01*
D02*
G37*
G36*
X77311D02*
X74843D01*
Y-46996D01*
X77311D01*
Y-43543D01*
D02*
G37*
G36*
X218311Y-43544D02*
X215842D01*
Y-46996D01*
X218311D01*
Y-43544D01*
D02*
G37*
G36*
X241811Y-43544D02*
X239342D01*
Y-46997D01*
X241811D01*
Y-43544D01*
D02*
G37*
G36*
X268779Y-39091D02*
X266311D01*
Y-43044D01*
Y-46997D01*
X268779D01*
Y-44650D01*
X270621D01*
X271236Y-44527D01*
X271757Y-44179D01*
X272105Y-43658D01*
X272227Y-43044D01*
X272105Y-42430D01*
X271757Y-41909D01*
X271236Y-41561D01*
X270621Y-41438D01*
X268779D01*
Y-39091D01*
D02*
G37*
G36*
X265311Y-43544D02*
X262842D01*
Y-46997D01*
X265311D01*
Y-43544D01*
D02*
G37*
G36*
X31142Y-45768D02*
X26024D01*
Y-47024D01*
X24744D01*
Y-45768D01*
X19626D01*
Y-50689D01*
X24744D01*
Y-49433D01*
X26024D01*
Y-50689D01*
X27575D01*
Y-53093D01*
X27528Y-53140D01*
X27303Y-53683D01*
Y-54270D01*
X27528Y-54813D01*
X27943Y-55228D01*
X28486Y-55453D01*
X29073D01*
X29616Y-55228D01*
X30031Y-54813D01*
X30256Y-54270D01*
Y-53683D01*
X30031Y-53140D01*
X29984Y-53093D01*
Y-50689D01*
X31142D01*
Y-45768D01*
D02*
G37*
G36*
X310433Y-39134D02*
X302165D01*
Y-47402D01*
X310433D01*
Y-39134D01*
D02*
G37*
G36*
X34882Y-42064D02*
X34421Y-42155D01*
X34030Y-42416D01*
X33769Y-42807D01*
X33678Y-43268D01*
Y-45358D01*
X31913D01*
Y-47728D01*
X34882D01*
X37850D01*
Y-45358D01*
X36086D01*
Y-43268D01*
X35994Y-42807D01*
X35733Y-42416D01*
X35343Y-42155D01*
X34882Y-42064D01*
D02*
G37*
G36*
X300842Y-43768D02*
X296799D01*
Y-47811D01*
X296897D01*
X298053Y-47501D01*
X299089Y-46903D01*
X299935Y-46057D01*
X300533Y-45021D01*
X300842Y-43866D01*
Y-43768D01*
D02*
G37*
G36*
X295799D02*
X291756D01*
Y-43866D01*
X292066Y-45021D01*
X292664Y-46057D01*
X293510Y-46903D01*
X294546Y-47501D01*
X295701Y-47811D01*
X295799D01*
Y-43768D01*
D02*
G37*
G36*
X50571Y-39500D02*
X45453D01*
Y-46587D01*
X48999D01*
X50935Y-48523D01*
Y-50933D01*
X50435Y-50966D01*
X50342Y-50256D01*
X49985Y-49394D01*
X49417Y-48654D01*
X48677Y-48086D01*
X47815Y-47729D01*
X46890Y-47607D01*
X45965Y-47729D01*
X45103Y-48086D01*
X44363Y-48654D01*
X43795Y-49394D01*
X43438Y-50256D01*
X43333Y-51053D01*
X42825D01*
Y-46587D01*
X44272D01*
Y-39500D01*
X39154D01*
Y-46587D01*
X40601D01*
Y-51516D01*
X40601Y-51516D01*
X40685Y-51941D01*
X40926Y-52302D01*
X41576Y-52952D01*
X41576Y-52952D01*
X41937Y-53193D01*
X42362Y-53277D01*
X43333D01*
X43438Y-54075D01*
X43795Y-54936D01*
X44363Y-55677D01*
X45103Y-56245D01*
X45685Y-56486D01*
Y-59147D01*
X40369Y-64463D01*
X40108Y-64854D01*
X40016Y-65315D01*
X40016Y-65315D01*
Y-109764D01*
X40016Y-109764D01*
X40108Y-110225D01*
X40369Y-110615D01*
X43952Y-114198D01*
X44342Y-114459D01*
X44803Y-114551D01*
X44803Y-114551D01*
X46302D01*
X46614Y-114921D01*
X46614Y-115051D01*
Y-123976D01*
X55669D01*
Y-115051D01*
X55669Y-114921D01*
X55982Y-114551D01*
X101850D01*
X101850Y-114551D01*
X102311Y-114459D01*
X102702Y-114198D01*
X105083Y-111817D01*
X105192Y-111653D01*
X106108D01*
X107259Y-111345D01*
X108292Y-110749D01*
X109135Y-109906D01*
X109731Y-108874D01*
X110039Y-107722D01*
Y-106530D01*
X109731Y-105378D01*
X109135Y-104346D01*
X108292Y-103503D01*
X107259Y-102907D01*
X106108Y-102598D01*
X104916D01*
X103764Y-102907D01*
X102732Y-103503D01*
X101889Y-104346D01*
X101293Y-105378D01*
X100984Y-106530D01*
Y-107722D01*
X101293Y-108874D01*
X101889Y-109906D01*
X102732Y-110749D01*
X102733Y-110760D01*
X101352Y-112142D01*
X45302D01*
X42425Y-109265D01*
Y-108333D01*
X42925Y-108267D01*
X43049Y-108730D01*
X43569Y-109632D01*
X44305Y-110368D01*
X45207Y-110888D01*
X46212Y-111158D01*
X46232D01*
Y-107205D01*
Y-103252D01*
X46212D01*
X45207Y-103521D01*
X44305Y-104042D01*
X43569Y-104778D01*
X43049Y-105679D01*
X42925Y-106142D01*
X42425Y-106077D01*
Y-97055D01*
X42925Y-96989D01*
X43128Y-97746D01*
X43648Y-98647D01*
X44384Y-99383D01*
X45285Y-99904D01*
X46291Y-100173D01*
X46311D01*
Y-96220D01*
Y-92268D01*
X46291D01*
X45285Y-92537D01*
X44384Y-93058D01*
X43648Y-93793D01*
X43128Y-94695D01*
X42925Y-95452D01*
X42425Y-95386D01*
Y-65814D01*
X47741Y-60497D01*
X47741Y-60497D01*
X48002Y-60106D01*
X48094Y-59646D01*
X48094Y-59646D01*
Y-56486D01*
X48677Y-56245D01*
X49417Y-55677D01*
X49985Y-54936D01*
X50342Y-54075D01*
X50435Y-53365D01*
X50935Y-53397D01*
Y-69409D01*
X50935Y-69409D01*
X51020Y-69835D01*
X51261Y-70196D01*
X55778Y-74713D01*
Y-77806D01*
X55103Y-78086D01*
X54363Y-78654D01*
X53795Y-79394D01*
X53438Y-80256D01*
X53316Y-81181D01*
Y-83150D01*
X53438Y-84075D01*
X53795Y-84936D01*
X54363Y-85677D01*
X55103Y-86245D01*
X55965Y-86602D01*
X56890Y-86724D01*
X57815Y-86602D01*
X58677Y-86245D01*
X59417Y-85677D01*
X59985Y-84936D01*
X60342Y-84075D01*
X60464Y-83150D01*
Y-81181D01*
X60342Y-80256D01*
X59985Y-79394D01*
X59417Y-78654D01*
X58677Y-78086D01*
X58002Y-77806D01*
Y-74252D01*
X58002Y-74252D01*
X57917Y-73826D01*
X57676Y-73466D01*
X57676Y-73466D01*
X53159Y-68949D01*
Y-54709D01*
X53659Y-54609D01*
X53795Y-54936D01*
X54363Y-55677D01*
X55103Y-56245D01*
X55965Y-56602D01*
X56890Y-56723D01*
X57815Y-56602D01*
X58677Y-56245D01*
X59417Y-55677D01*
X59985Y-54936D01*
X60342Y-54075D01*
X60464Y-53150D01*
Y-51181D01*
X60342Y-50256D01*
X59985Y-49394D01*
X59417Y-48654D01*
X58677Y-48086D01*
X57815Y-47729D01*
X56890Y-47607D01*
X55965Y-47729D01*
X55103Y-48086D01*
X54363Y-48654D01*
X53795Y-49394D01*
X53659Y-49721D01*
X53159Y-49622D01*
Y-48063D01*
X53075Y-47637D01*
X52980Y-47496D01*
X53245Y-46996D01*
X53811D01*
Y-43543D01*
X51342D01*
Y-45037D01*
X50885Y-45235D01*
X50571Y-44980D01*
Y-39500D01*
D02*
G37*
G36*
X37850Y-48728D02*
X35382D01*
Y-51098D01*
X37850D01*
Y-48728D01*
D02*
G37*
G36*
X34382D02*
X31913D01*
Y-51098D01*
X34382D01*
Y-48728D01*
D02*
G37*
G36*
X110433Y-47638D02*
X103347D01*
Y-56693D01*
X110433D01*
Y-47638D01*
D02*
G37*
G36*
X96890Y-47607D02*
X95965Y-47729D01*
X95103Y-48086D01*
X94363Y-48654D01*
X93795Y-49394D01*
X93438Y-50256D01*
X93316Y-51181D01*
Y-53150D01*
X93438Y-54075D01*
X93795Y-54936D01*
X94363Y-55677D01*
X95103Y-56245D01*
X95965Y-56602D01*
X96890Y-56723D01*
X97815Y-56602D01*
X98677Y-56245D01*
X99417Y-55677D01*
X99985Y-54936D01*
X100342Y-54075D01*
X100464Y-53150D01*
Y-51181D01*
X100342Y-50256D01*
X99985Y-49394D01*
X99417Y-48654D01*
X98677Y-48086D01*
X97815Y-47729D01*
X96890Y-47607D01*
D02*
G37*
G36*
X86890D02*
X85965Y-47729D01*
X85103Y-48086D01*
X84363Y-48654D01*
X83795Y-49394D01*
X83438Y-50256D01*
X83316Y-51181D01*
Y-53150D01*
X83438Y-54075D01*
X83795Y-54936D01*
X84363Y-55677D01*
X85103Y-56245D01*
X85965Y-56602D01*
X86890Y-56723D01*
X87815Y-56602D01*
X88677Y-56245D01*
X89417Y-55677D01*
X89985Y-54936D01*
X90342Y-54075D01*
X90464Y-53150D01*
Y-51181D01*
X90342Y-50256D01*
X89985Y-49394D01*
X89417Y-48654D01*
X88677Y-48086D01*
X87815Y-47729D01*
X86890Y-47607D01*
D02*
G37*
G36*
X66890D02*
X65965Y-47729D01*
X65103Y-48086D01*
X64363Y-48654D01*
X63795Y-49394D01*
X63438Y-50256D01*
X63316Y-51181D01*
Y-53150D01*
X63438Y-54075D01*
X63795Y-54936D01*
X64363Y-55677D01*
X65103Y-56245D01*
X65965Y-56602D01*
X66890Y-56723D01*
X67815Y-56602D01*
X68677Y-56245D01*
X69417Y-55677D01*
X69985Y-54936D01*
X70342Y-54075D01*
X70464Y-53150D01*
Y-51181D01*
X70342Y-50256D01*
X69985Y-49394D01*
X69417Y-48654D01*
X68677Y-48086D01*
X67815Y-47729D01*
X66890Y-47607D01*
D02*
G37*
G36*
X226790Y-53366D02*
X226202D01*
X225660Y-53591D01*
X225244Y-54006D01*
X225020Y-54549D01*
Y-55136D01*
X225244Y-55679D01*
X225432Y-55866D01*
X225244Y-56054D01*
X225020Y-56596D01*
Y-57183D01*
X225244Y-57726D01*
X225660Y-58141D01*
X226202Y-58366D01*
X226790D01*
X227332Y-58141D01*
X227748Y-57726D01*
X227972Y-57183D01*
Y-56596D01*
X227748Y-56054D01*
X227560Y-55866D01*
X227748Y-55679D01*
X227972Y-55136D01*
Y-54549D01*
X227748Y-54006D01*
X227332Y-53591D01*
X226790Y-53366D01*
D02*
G37*
G36*
X273758Y-55768D02*
X273171D01*
X272628Y-55993D01*
X272213Y-56408D01*
X271988Y-56950D01*
Y-57538D01*
X272213Y-58080D01*
X272628Y-58496D01*
X273171Y-58720D01*
X273758D01*
X274301Y-58496D01*
X274716Y-58080D01*
X274941Y-57538D01*
Y-56950D01*
X274716Y-56408D01*
X274301Y-55993D01*
X273758Y-55768D01*
D02*
G37*
G36*
X169488Y-64114D02*
X169390D01*
Y-68158D01*
X173433D01*
Y-68059D01*
X173124Y-66904D01*
X172525Y-65868D01*
X171679Y-65022D01*
X170643Y-64424D01*
X169488Y-64114D01*
D02*
G37*
G36*
X168390D02*
X168292D01*
X167136Y-64424D01*
X166100Y-65022D01*
X165254Y-65868D01*
X164656Y-66904D01*
X164347Y-68059D01*
Y-68158D01*
X168390D01*
Y-64114D01*
D02*
G37*
G36*
X219019Y-64154D02*
X218921D01*
Y-68197D01*
X222965D01*
Y-68099D01*
X222655Y-66943D01*
X222057Y-65907D01*
X221211Y-65061D01*
X220175Y-64463D01*
X219019Y-64154D01*
D02*
G37*
G36*
X217921D02*
X217823D01*
X216668Y-64463D01*
X215632Y-65061D01*
X214786Y-65907D01*
X214188Y-66943D01*
X213878Y-68099D01*
Y-68197D01*
X217921D01*
Y-64154D01*
D02*
G37*
G36*
X92341Y-63406D02*
X91754D01*
X91211Y-63630D01*
X90796Y-64046D01*
X90571Y-64588D01*
Y-65176D01*
X90796Y-65718D01*
X90983Y-65905D01*
X90796Y-66093D01*
X90571Y-66636D01*
Y-67223D01*
X90796Y-67765D01*
X91211Y-68181D01*
X91754Y-68405D01*
X92341D01*
X92883Y-68181D01*
X93299Y-67765D01*
X93524Y-67223D01*
Y-66636D01*
X93299Y-66093D01*
X93111Y-65905D01*
X93299Y-65718D01*
X93524Y-65176D01*
Y-64588D01*
X93299Y-64046D01*
X92883Y-63630D01*
X92341Y-63406D01*
D02*
G37*
G36*
X275360Y-61850D02*
X274168D01*
X273016Y-62159D01*
X271984Y-62755D01*
X271141Y-63598D01*
X270545Y-64630D01*
X270236Y-65782D01*
Y-66974D01*
X270545Y-68125D01*
X271141Y-69158D01*
X271984Y-70001D01*
X273016Y-70597D01*
X274168Y-70906D01*
X275360D01*
X276511Y-70597D01*
X277544Y-70001D01*
X278387Y-69158D01*
X278983Y-68125D01*
X279291Y-66974D01*
Y-65782D01*
X278983Y-64630D01*
X278387Y-63598D01*
X277544Y-62755D01*
X276511Y-62159D01*
X275360Y-61850D01*
D02*
G37*
G36*
X265360D02*
X264168D01*
X263016Y-62159D01*
X261984Y-62755D01*
X261141Y-63598D01*
X260545Y-64630D01*
X260236Y-65782D01*
Y-66974D01*
X260545Y-68125D01*
X261141Y-69158D01*
X261984Y-70001D01*
X263016Y-70597D01*
X264168Y-70906D01*
X265360D01*
X266511Y-70597D01*
X267544Y-70001D01*
X268387Y-69158D01*
X268983Y-68125D01*
X269291Y-66974D01*
Y-65782D01*
X268983Y-64630D01*
X268387Y-63598D01*
X267544Y-62755D01*
X266511Y-62159D01*
X265360Y-61850D01*
D02*
G37*
G36*
X255360D02*
X254168D01*
X253016Y-62159D01*
X251984Y-62755D01*
X251141Y-63598D01*
X250545Y-64630D01*
X250236Y-65782D01*
Y-66974D01*
X250545Y-68125D01*
X251141Y-69158D01*
X251984Y-70001D01*
X253016Y-70597D01*
X254168Y-70906D01*
X255360D01*
X256511Y-70597D01*
X257544Y-70001D01*
X258387Y-69158D01*
X258983Y-68125D01*
X259291Y-66974D01*
Y-65782D01*
X258983Y-64630D01*
X258387Y-63598D01*
X257544Y-62755D01*
X256511Y-62159D01*
X255360Y-61850D01*
D02*
G37*
G36*
X245360D02*
X244168D01*
X243016Y-62159D01*
X241984Y-62755D01*
X241141Y-63598D01*
X240545Y-64630D01*
X240236Y-65782D01*
Y-66974D01*
X240545Y-68125D01*
X241141Y-69158D01*
X241984Y-70001D01*
X243016Y-70597D01*
X244168Y-70906D01*
X245360D01*
X246511Y-70597D01*
X247544Y-70001D01*
X248387Y-69158D01*
X248983Y-68125D01*
X249291Y-66974D01*
Y-65782D01*
X248983Y-64630D01*
X248387Y-63598D01*
X247544Y-62755D01*
X246511Y-62159D01*
X245360Y-61850D01*
D02*
G37*
G36*
X130064Y-64524D02*
X128975D01*
X127924Y-64805D01*
X126981Y-65350D01*
X126212Y-66119D01*
X125668Y-67062D01*
X125386Y-68113D01*
Y-69202D01*
X125668Y-70253D01*
X126212Y-71196D01*
X126981Y-71965D01*
X127924Y-72510D01*
X128975Y-72791D01*
X130064D01*
X131115Y-72510D01*
X132058Y-71965D01*
X132828Y-71196D01*
X133372Y-70253D01*
X133653Y-69202D01*
Y-68113D01*
X133372Y-67062D01*
X132828Y-66119D01*
X132058Y-65350D01*
X131115Y-64805D01*
X130064Y-64524D01*
D02*
G37*
G36*
X179595Y-64563D02*
X178507D01*
X177456Y-64845D01*
X176513Y-65389D01*
X175743Y-66159D01*
X175199Y-67101D01*
X174917Y-68153D01*
Y-69241D01*
X175199Y-70293D01*
X175743Y-71235D01*
X176513Y-72005D01*
X177456Y-72549D01*
X178507Y-72831D01*
X179595D01*
X180647Y-72549D01*
X181589Y-72005D01*
X182359Y-71235D01*
X182903Y-70293D01*
X183185Y-69241D01*
Y-68153D01*
X182903Y-67101D01*
X182359Y-66159D01*
X181589Y-65389D01*
X180647Y-64845D01*
X179595Y-64563D01*
D02*
G37*
G36*
X120648Y-72421D02*
X120061D01*
X119518Y-72646D01*
X119331Y-72833D01*
X119143Y-72646D01*
X118601Y-72421D01*
X118013D01*
X117471Y-72646D01*
X117055Y-73061D01*
X116831Y-73604D01*
Y-74191D01*
X117055Y-74734D01*
X117471Y-75149D01*
X118013Y-75374D01*
X118601D01*
X119143Y-75149D01*
X119331Y-74962D01*
X119518Y-75149D01*
X120061Y-75374D01*
X120648D01*
X121191Y-75149D01*
X121606Y-74734D01*
X121831Y-74191D01*
Y-73604D01*
X121606Y-73061D01*
X121191Y-72646D01*
X120648Y-72421D01*
D02*
G37*
G36*
X173433Y-69157D02*
X169390D01*
Y-73201D01*
X169488D01*
X170643Y-72891D01*
X171679Y-72293D01*
X172525Y-71447D01*
X173124Y-70411D01*
X173433Y-69256D01*
Y-69157D01*
D02*
G37*
G36*
X168390D02*
X164347D01*
Y-69256D01*
X164656Y-70411D01*
X165254Y-71447D01*
X166100Y-72293D01*
X167136Y-72891D01*
X168292Y-73201D01*
X168390D01*
Y-69157D01*
D02*
G37*
G36*
X222965Y-69197D02*
X218921D01*
Y-73240D01*
X219019D01*
X220175Y-72931D01*
X221211Y-72332D01*
X222057Y-71487D01*
X222655Y-70451D01*
X222965Y-69295D01*
Y-69197D01*
D02*
G37*
G36*
X217921D02*
X213878D01*
Y-69295D01*
X214188Y-70451D01*
X214786Y-71487D01*
X215632Y-72332D01*
X216668Y-72931D01*
X217823Y-73240D01*
X217921D01*
Y-69197D01*
D02*
G37*
G36*
X272363Y-79662D02*
X272363Y-79662D01*
X240158D01*
X240158Y-79662D01*
X239697Y-79754D01*
X239306Y-80015D01*
X236668Y-82652D01*
X236407Y-83043D01*
X236315Y-83504D01*
X236315Y-83504D01*
Y-106890D01*
X236315Y-106890D01*
X236407Y-107351D01*
X236668Y-107741D01*
X238597Y-109670D01*
X238597Y-109670D01*
X238988Y-109932D01*
X239449Y-110023D01*
X239449Y-110023D01*
X242227D01*
X242274Y-110071D01*
X242817Y-110295D01*
X243404D01*
X243947Y-110071D01*
X244362Y-109655D01*
X244587Y-109113D01*
Y-108525D01*
X244362Y-107983D01*
X243947Y-107567D01*
X243404Y-107343D01*
X242817D01*
X242274Y-107567D01*
X242227Y-107615D01*
X239948D01*
X238724Y-106391D01*
Y-84003D01*
X240656Y-82070D01*
X271864D01*
X273559Y-83766D01*
Y-84353D01*
X273512Y-84400D01*
X273287Y-84943D01*
Y-85530D01*
X273512Y-86072D01*
X273927Y-86488D01*
X274470Y-86713D01*
X275058D01*
X275600Y-86488D01*
X276015Y-86072D01*
X276240Y-85530D01*
Y-84943D01*
X276015Y-84400D01*
X275968Y-84353D01*
Y-83267D01*
X275876Y-82806D01*
X275615Y-82416D01*
X273214Y-80015D01*
X272824Y-79754D01*
X272363Y-79662D01*
D02*
G37*
G36*
X232616Y-78524D02*
X232029D01*
X231487Y-78748D01*
X231071Y-79164D01*
X230847Y-79706D01*
Y-80294D01*
X231071Y-80836D01*
X231487Y-81252D01*
X232029Y-81476D01*
X232616D01*
X233159Y-81252D01*
X233574Y-80836D01*
X233799Y-80294D01*
Y-79706D01*
X233574Y-79164D01*
X233159Y-78748D01*
X232616Y-78524D01*
D02*
G37*
G36*
X107390Y-77260D02*
Y-81665D01*
X110877D01*
Y-81181D01*
X110741Y-80149D01*
X110343Y-79188D01*
X109709Y-78362D01*
X108883Y-77728D01*
X107922Y-77330D01*
X107390Y-77260D01*
D02*
G37*
G36*
X106390Y-77260D02*
X105858Y-77330D01*
X104896Y-77728D01*
X104071Y-78362D01*
X103437Y-79188D01*
X103039Y-80149D01*
X102903Y-81181D01*
Y-81665D01*
X106390D01*
Y-77260D01*
D02*
G37*
G36*
X18347Y-36703D02*
X4567D01*
X4115Y-36891D01*
X3928Y-37343D01*
Y-82598D01*
X4115Y-83050D01*
X4567Y-83238D01*
X11181D01*
X11633Y-83050D01*
X11820Y-82598D01*
Y-52135D01*
X18347D01*
X18798Y-51948D01*
X18986Y-51496D01*
Y-44626D01*
Y-37343D01*
X18937Y-37225D01*
Y-36752D01*
X18464D01*
X18347Y-36703D01*
D02*
G37*
G36*
X226987Y-80571D02*
X226399D01*
X225857Y-80796D01*
X225441Y-81211D01*
X225217Y-81753D01*
Y-82341D01*
X225441Y-82884D01*
X225857Y-83299D01*
X226399Y-83524D01*
X226987D01*
X227529Y-83299D01*
X227944Y-82884D01*
X228169Y-82341D01*
Y-81753D01*
X227944Y-81211D01*
X227529Y-80796D01*
X226987Y-80571D01*
D02*
G37*
G36*
X218926Y-76925D02*
X217838D01*
X216786Y-77207D01*
X215844Y-77751D01*
X215074Y-78521D01*
X214530Y-79463D01*
X214248Y-80515D01*
Y-81603D01*
X214530Y-82655D01*
X215074Y-83597D01*
X215844Y-84367D01*
X216786Y-84911D01*
X217838Y-85193D01*
X218926D01*
X219977Y-84911D01*
X220920Y-84367D01*
X221690Y-83597D01*
X222234Y-82655D01*
X222516Y-81603D01*
Y-80515D01*
X222234Y-79463D01*
X221690Y-78521D01*
X220920Y-77751D01*
X219977Y-77207D01*
X218926Y-76925D01*
D02*
G37*
G36*
X179556D02*
X178468D01*
X177416Y-77207D01*
X176474Y-77751D01*
X175704Y-78521D01*
X175160Y-79463D01*
X174878Y-80515D01*
Y-81603D01*
X175160Y-82655D01*
X175704Y-83597D01*
X176474Y-84367D01*
X177416Y-84911D01*
X178468Y-85193D01*
X179556D01*
X180607Y-84911D01*
X181550Y-84367D01*
X182320Y-83597D01*
X182864Y-82655D01*
X183146Y-81603D01*
Y-80515D01*
X182864Y-79463D01*
X182320Y-78521D01*
X181550Y-77751D01*
X180607Y-77207D01*
X179556Y-76925D01*
D02*
G37*
G36*
X169355D02*
X168267D01*
X167215Y-77207D01*
X166273Y-77751D01*
X165503Y-78521D01*
X164959Y-79463D01*
X164677Y-80515D01*
Y-81603D01*
X164959Y-82655D01*
X165503Y-83597D01*
X166273Y-84367D01*
X167215Y-84911D01*
X168267Y-85193D01*
X169355D01*
X170407Y-84911D01*
X171349Y-84367D01*
X172119Y-83597D01*
X172663Y-82655D01*
X172945Y-81603D01*
Y-80515D01*
X172663Y-79463D01*
X172119Y-78521D01*
X171349Y-77751D01*
X170407Y-77207D01*
X169355Y-76925D01*
D02*
G37*
G36*
X129985D02*
X128897D01*
X127845Y-77207D01*
X126903Y-77751D01*
X126133Y-78521D01*
X125589Y-79463D01*
X125307Y-80515D01*
Y-81603D01*
X125589Y-82655D01*
X126133Y-83597D01*
X126903Y-84367D01*
X127845Y-84911D01*
X128897Y-85193D01*
X129985D01*
X131037Y-84911D01*
X131979Y-84367D01*
X132749Y-83597D01*
X133293Y-82655D01*
X133575Y-81603D01*
Y-80515D01*
X133293Y-79463D01*
X132749Y-78521D01*
X131979Y-77751D01*
X131037Y-77207D01*
X129985Y-76925D01*
D02*
G37*
G36*
X76890Y-77607D02*
X75965Y-77729D01*
X75103Y-78086D01*
X74363Y-78654D01*
X73795Y-79394D01*
X73438Y-80256D01*
X73316Y-81181D01*
Y-83150D01*
X73438Y-84075D01*
X73795Y-84936D01*
X74363Y-85677D01*
X75103Y-86245D01*
X75965Y-86602D01*
X76890Y-86724D01*
X77815Y-86602D01*
X78677Y-86245D01*
X79417Y-85677D01*
X79985Y-84936D01*
X80342Y-84075D01*
X80464Y-83150D01*
Y-81181D01*
X80342Y-80256D01*
X79985Y-79394D01*
X79417Y-78654D01*
X78677Y-78086D01*
X77815Y-77729D01*
X76890Y-77607D01*
D02*
G37*
G36*
X66890D02*
X65965Y-77729D01*
X65103Y-78086D01*
X64363Y-78654D01*
X63795Y-79394D01*
X63438Y-80256D01*
X63316Y-81181D01*
Y-83150D01*
X63438Y-84075D01*
X63795Y-84936D01*
X64363Y-85677D01*
X65103Y-86245D01*
X65965Y-86602D01*
X66890Y-86724D01*
X67815Y-86602D01*
X68677Y-86245D01*
X69417Y-85677D01*
X69985Y-84936D01*
X70342Y-84075D01*
X70464Y-83150D01*
Y-81181D01*
X70342Y-80256D01*
X69985Y-79394D01*
X69417Y-78654D01*
X68677Y-78086D01*
X67815Y-77729D01*
X66890Y-77607D01*
D02*
G37*
G36*
X96890D02*
X95965Y-77729D01*
X95103Y-78086D01*
X94363Y-78654D01*
X93795Y-79394D01*
X93438Y-80256D01*
X93316Y-81181D01*
Y-83150D01*
X93438Y-84075D01*
X93650Y-84586D01*
X91172Y-87063D01*
X88007D01*
X87907Y-86563D01*
X88677Y-86245D01*
X89417Y-85677D01*
X89985Y-84936D01*
X90342Y-84075D01*
X90464Y-83150D01*
Y-81181D01*
X90342Y-80256D01*
X89985Y-79394D01*
X89417Y-78654D01*
X88677Y-78086D01*
X87815Y-77729D01*
X86890Y-77607D01*
X85965Y-77729D01*
X85103Y-78086D01*
X84363Y-78654D01*
X83795Y-79394D01*
X83438Y-80256D01*
X83316Y-81181D01*
Y-83150D01*
X83438Y-84075D01*
X83795Y-84936D01*
X84363Y-85677D01*
X85103Y-86245D01*
X85873Y-86563D01*
X85773Y-87063D01*
X79449D01*
X78988Y-87155D01*
X78597Y-87416D01*
X78597Y-87416D01*
X75487Y-90526D01*
X75226Y-90917D01*
X75134Y-91378D01*
X75134Y-91378D01*
Y-92875D01*
X74971Y-92919D01*
X74163Y-93385D01*
X73503Y-94045D01*
X73037Y-94853D01*
X72795Y-95754D01*
Y-96687D01*
X73037Y-97588D01*
X73503Y-98396D01*
X74163Y-99056D01*
X74971Y-99522D01*
X75683Y-99713D01*
X75617Y-100213D01*
X62546D01*
X48967Y-86634D01*
X49005Y-85993D01*
X49417Y-85677D01*
X49985Y-84936D01*
X50342Y-84075D01*
X50464Y-83150D01*
Y-81181D01*
X50342Y-80256D01*
X49985Y-79394D01*
X49417Y-78654D01*
X48677Y-78086D01*
X47815Y-77729D01*
X46890Y-77607D01*
X45965Y-77729D01*
X45103Y-78086D01*
X44363Y-78654D01*
X43795Y-79394D01*
X43438Y-80256D01*
X43316Y-81181D01*
Y-83150D01*
X43438Y-84075D01*
X43795Y-84936D01*
X44363Y-85677D01*
X45103Y-86245D01*
X45965Y-86602D01*
X46290Y-86864D01*
X46382Y-87325D01*
X46643Y-87716D01*
X61196Y-102269D01*
X61196Y-102269D01*
X61586Y-102530D01*
X62047Y-102622D01*
X62047Y-102622D01*
X84370D01*
X84370Y-102622D01*
X84831Y-102530D01*
X85222Y-102269D01*
X89160Y-98330D01*
X91191D01*
X91432Y-98913D01*
X92000Y-99653D01*
X92741Y-100221D01*
X93603Y-100578D01*
X94528Y-100700D01*
X96496D01*
X97421Y-100578D01*
X98283Y-100221D01*
X99023Y-99653D01*
X99591Y-98913D01*
X99948Y-98051D01*
X100070Y-97126D01*
X99948Y-96201D01*
X99591Y-95339D01*
X99023Y-94599D01*
X98283Y-94031D01*
X97421Y-93674D01*
X96496Y-93552D01*
X94528D01*
X93603Y-93674D01*
X92741Y-94031D01*
X92000Y-94599D01*
X91432Y-95339D01*
X91191Y-95922D01*
X88661D01*
X88201Y-96013D01*
X87810Y-96275D01*
X83871Y-100213D01*
X77060D01*
X76994Y-99713D01*
X77706Y-99522D01*
X78514Y-99056D01*
X79174Y-98396D01*
X79640Y-97588D01*
X79882Y-96687D01*
Y-95754D01*
X79640Y-94853D01*
X79174Y-94045D01*
X78514Y-93385D01*
X77706Y-92919D01*
X77543Y-92875D01*
Y-91877D01*
X79948Y-89472D01*
X91671D01*
X91671Y-89472D01*
X92132Y-89380D01*
X92523Y-89119D01*
X95311Y-86331D01*
X95965Y-86602D01*
X96890Y-86724D01*
X97815Y-86602D01*
X98677Y-86245D01*
X99417Y-85677D01*
X99985Y-84936D01*
X100342Y-84075D01*
X100464Y-83150D01*
Y-81181D01*
X100342Y-80256D01*
X99985Y-79394D01*
X99417Y-78654D01*
X98677Y-78086D01*
X97815Y-77729D01*
X96890Y-77607D01*
D02*
G37*
G36*
X110877Y-82665D02*
X107390D01*
Y-87071D01*
X107922Y-87001D01*
X108883Y-86602D01*
X109709Y-85969D01*
X110343Y-85143D01*
X110741Y-84181D01*
X110877Y-83150D01*
Y-82665D01*
D02*
G37*
G36*
X106390D02*
X102903D01*
Y-83150D01*
X103039Y-84181D01*
X103437Y-85143D01*
X104071Y-85969D01*
X104896Y-86602D01*
X105858Y-87001D01*
X106390Y-87071D01*
Y-82665D01*
D02*
G37*
G36*
X35215Y-87638D02*
X34628D01*
X34085Y-87862D01*
X33898Y-88050D01*
X33710Y-87862D01*
X33168Y-87638D01*
X32580D01*
X32038Y-87862D01*
X31850Y-88050D01*
X31663Y-87862D01*
X31120Y-87638D01*
X30533D01*
X29991Y-87862D01*
X29575Y-88278D01*
X29350Y-88820D01*
Y-89408D01*
X29575Y-89950D01*
X29763Y-90137D01*
X29575Y-90325D01*
X29350Y-90868D01*
Y-91455D01*
X29575Y-91997D01*
X29991Y-92413D01*
X30533Y-92637D01*
X31120D01*
X31663Y-92413D01*
X31850Y-92225D01*
X32038Y-92413D01*
X32580Y-92637D01*
X33168D01*
X33710Y-92413D01*
X33898Y-92225D01*
X34085Y-92413D01*
X34628Y-92637D01*
X35215D01*
X35757Y-92413D01*
X36173Y-91997D01*
X36398Y-91455D01*
Y-90868D01*
X36173Y-90325D01*
X35985Y-90137D01*
X36173Y-89950D01*
X36398Y-89408D01*
Y-88820D01*
X36173Y-88278D01*
X35757Y-87862D01*
X35215Y-87638D01*
D02*
G37*
G36*
X211961Y-88602D02*
X211024D01*
X210118Y-88845D01*
X209307Y-89314D01*
X208644Y-89976D01*
X208176Y-90788D01*
X207933Y-91693D01*
Y-92630D01*
X208176Y-93535D01*
X208644Y-94347D01*
X209307Y-95009D01*
X210118Y-95478D01*
X211024Y-95720D01*
X211961D01*
X212866Y-95478D01*
X213677Y-95009D01*
X214340Y-94347D01*
X214809Y-93535D01*
X215051Y-92630D01*
Y-91693D01*
X214809Y-90788D01*
X214340Y-89976D01*
X213677Y-89314D01*
X212866Y-88845D01*
X211961Y-88602D01*
D02*
G37*
G36*
X189461D02*
X182343D01*
Y-95720D01*
X189461D01*
Y-88602D01*
D02*
G37*
G36*
X162390D02*
X161453D01*
X160547Y-88845D01*
X159736Y-89314D01*
X159073Y-89976D01*
X158605Y-90788D01*
X158362Y-91693D01*
Y-92630D01*
X158605Y-93535D01*
X159073Y-94347D01*
X159736Y-95009D01*
X160547Y-95478D01*
X161453Y-95720D01*
X162390D01*
X163295Y-95478D01*
X164107Y-95009D01*
X164769Y-94347D01*
X165238Y-93535D01*
X165480Y-92630D01*
Y-91693D01*
X165238Y-90788D01*
X164769Y-89976D01*
X164107Y-89314D01*
X163295Y-88845D01*
X162390Y-88602D01*
D02*
G37*
G36*
X139890D02*
X132772D01*
Y-95720D01*
X139890D01*
Y-88602D01*
D02*
G37*
G36*
X47331Y-92268D02*
X47311D01*
Y-95720D01*
X50764D01*
Y-95700D01*
X50494Y-94695D01*
X49974Y-93793D01*
X49238Y-93058D01*
X48337Y-92537D01*
X47331Y-92268D01*
D02*
G37*
G36*
X275414Y-91441D02*
X275264D01*
Y-95878D01*
X279701D01*
Y-95728D01*
X279364Y-94472D01*
X278714Y-93347D01*
X277795Y-92427D01*
X276669Y-91777D01*
X275414Y-91441D01*
D02*
G37*
G36*
X274264D02*
X274114D01*
X272858Y-91777D01*
X271732Y-92427D01*
X270813Y-93347D01*
X270163Y-94472D01*
X269827Y-95728D01*
Y-95878D01*
X274264D01*
Y-91441D01*
D02*
G37*
G36*
X50764Y-96720D02*
X47311D01*
Y-100173D01*
X47331D01*
X48337Y-99904D01*
X49238Y-99383D01*
X49974Y-98647D01*
X50494Y-97746D01*
X50764Y-96741D01*
Y-96720D01*
D02*
G37*
G36*
X76890Y-47607D02*
X75965Y-47729D01*
X75103Y-48086D01*
X74363Y-48654D01*
X73795Y-49394D01*
X73438Y-50256D01*
X73316Y-51181D01*
Y-53150D01*
X73438Y-54075D01*
X73795Y-54936D01*
X74363Y-55677D01*
X75103Y-56245D01*
X75686Y-56486D01*
Y-68622D01*
X75686Y-68622D01*
X75777Y-69083D01*
X76038Y-69474D01*
X82180Y-75615D01*
X82180Y-75615D01*
X82571Y-75876D01*
X83031Y-75968D01*
X83031Y-75968D01*
X111312D01*
X114308Y-78963D01*
Y-93581D01*
X113603Y-93674D01*
X112741Y-94031D01*
X112000Y-94599D01*
X111433Y-95339D01*
X111075Y-96201D01*
X110954Y-97126D01*
X111075Y-98051D01*
X111433Y-98913D01*
X112000Y-99653D01*
X112741Y-100221D01*
X113603Y-100578D01*
X114527Y-100700D01*
X116496D01*
X117421Y-100578D01*
X118283Y-100221D01*
X119023Y-99653D01*
X119591Y-98913D01*
X119948Y-98051D01*
X120070Y-97126D01*
X119948Y-96201D01*
X119591Y-95339D01*
X119023Y-94599D01*
X118283Y-94031D01*
X117421Y-93674D01*
X116716Y-93581D01*
Y-78465D01*
X116624Y-78004D01*
X116363Y-77613D01*
X116363Y-77613D01*
X112663Y-73912D01*
X112272Y-73651D01*
X111811Y-73559D01*
X111811Y-73559D01*
X83530D01*
X78094Y-68123D01*
Y-56486D01*
X78677Y-56245D01*
X79417Y-55677D01*
X79985Y-54936D01*
X80342Y-54075D01*
X80464Y-53150D01*
Y-51181D01*
X80342Y-50256D01*
X79985Y-49394D01*
X79417Y-48654D01*
X78677Y-48086D01*
X77815Y-47729D01*
X76890Y-47607D01*
D02*
G37*
G36*
X106496Y-93552D02*
X104527D01*
X103603Y-93674D01*
X102741Y-94031D01*
X102000Y-94599D01*
X101433Y-95339D01*
X101075Y-96201D01*
X100954Y-97126D01*
X101075Y-98051D01*
X101433Y-98913D01*
X102000Y-99653D01*
X102741Y-100221D01*
X103603Y-100578D01*
X104527Y-100700D01*
X106496D01*
X107421Y-100578D01*
X108283Y-100221D01*
X109023Y-99653D01*
X109591Y-98913D01*
X109948Y-98051D01*
X110070Y-97126D01*
X109948Y-96201D01*
X109591Y-95339D01*
X109023Y-94599D01*
X108283Y-94031D01*
X107421Y-93674D01*
X106496Y-93552D01*
D02*
G37*
G36*
X255360Y-91850D02*
X254168D01*
X253016Y-92159D01*
X251984Y-92755D01*
X251141Y-93598D01*
X250545Y-94630D01*
X250236Y-95782D01*
Y-96974D01*
X250545Y-98125D01*
X251141Y-99158D01*
X251984Y-100001D01*
X253016Y-100597D01*
X254168Y-100906D01*
X255360D01*
X256511Y-100597D01*
X257544Y-100001D01*
X258387Y-99158D01*
X258983Y-98125D01*
X259291Y-96974D01*
Y-95782D01*
X258983Y-94630D01*
X258387Y-93598D01*
X257544Y-92755D01*
X256511Y-92159D01*
X255360Y-91850D01*
D02*
G37*
G36*
X249291D02*
X240236D01*
Y-100906D01*
X249291D01*
Y-91850D01*
D02*
G37*
G36*
X279701Y-96878D02*
X275264D01*
Y-101315D01*
X275414D01*
X276669Y-100979D01*
X277795Y-100329D01*
X278714Y-99409D01*
X279364Y-98284D01*
X279701Y-97028D01*
Y-96878D01*
D02*
G37*
G36*
X274264D02*
X269827D01*
Y-97028D01*
X270163Y-98284D01*
X270813Y-99409D01*
X271732Y-100329D01*
X272858Y-100979D01*
X274114Y-101315D01*
X274264D01*
Y-96878D01*
D02*
G37*
G36*
X261868Y-50256D02*
X261281D01*
X260738Y-50481D01*
X260323Y-50896D01*
X260098Y-51439D01*
Y-52026D01*
X260323Y-52569D01*
X260738Y-52984D01*
X261281Y-53209D01*
X261868D01*
X262411Y-52984D01*
X262458Y-52937D01*
X278478D01*
X283126Y-57585D01*
Y-101430D01*
X281509Y-103048D01*
X267704D01*
X265968Y-101312D01*
Y-100743D01*
X266511Y-100597D01*
X267544Y-100001D01*
X268387Y-99158D01*
X268983Y-98125D01*
X269291Y-96974D01*
Y-95782D01*
X268983Y-94630D01*
X268387Y-93598D01*
X267544Y-92755D01*
X266511Y-92159D01*
X265360Y-91850D01*
X264168D01*
X263016Y-92159D01*
X261984Y-92755D01*
X261141Y-93598D01*
X260545Y-94630D01*
X260236Y-95782D01*
Y-96974D01*
X260545Y-98125D01*
X261141Y-99158D01*
X261984Y-100001D01*
X263016Y-100597D01*
X263560Y-100743D01*
Y-101811D01*
X263560Y-101811D01*
X263651Y-102272D01*
X263912Y-102663D01*
X266353Y-105104D01*
X266353Y-105104D01*
X266744Y-105365D01*
X267205Y-105456D01*
X282008D01*
X282008Y-105456D01*
X282469Y-105365D01*
X282859Y-105104D01*
X285182Y-102781D01*
X285182Y-102781D01*
X285443Y-102390D01*
X285535Y-101929D01*
X285535Y-101929D01*
Y-57087D01*
X285535Y-57087D01*
X285443Y-56626D01*
X285182Y-56235D01*
X279828Y-50881D01*
X279437Y-50620D01*
X278976Y-50528D01*
X278976Y-50528D01*
X262458D01*
X262411Y-50481D01*
X261868Y-50256D01*
D02*
G37*
G36*
X14427Y-83287D02*
X13840D01*
X13298Y-83512D01*
X12882Y-83928D01*
X12657Y-84470D01*
Y-85057D01*
X12882Y-85600D01*
X12930Y-85647D01*
Y-88819D01*
X12930Y-88819D01*
X13021Y-89280D01*
X13282Y-89670D01*
X27382Y-103770D01*
Y-103837D01*
X27607Y-104380D01*
X28022Y-104795D01*
X28565Y-105020D01*
X29152D01*
X29695Y-104795D01*
X30110Y-104380D01*
X30335Y-103837D01*
Y-103250D01*
X30110Y-102707D01*
X29695Y-102292D01*
X29152Y-102067D01*
X29085D01*
X15338Y-88320D01*
Y-85647D01*
X15385Y-85600D01*
X15610Y-85057D01*
Y-84470D01*
X15385Y-83928D01*
X14970Y-83512D01*
X14427Y-83287D01*
D02*
G37*
G36*
X100039Y-103583D02*
X90984D01*
Y-106000D01*
X79606D01*
X79562Y-105837D01*
X79095Y-105029D01*
X78435Y-104369D01*
X77627Y-103903D01*
X76726Y-103661D01*
X75793D01*
X74892Y-103903D01*
X74084Y-104369D01*
X73425Y-105029D01*
X72958Y-105837D01*
X72716Y-106738D01*
Y-107671D01*
X72958Y-108572D01*
X73425Y-109380D01*
X74084Y-110040D01*
X74892Y-110506D01*
X75793Y-110748D01*
X76726D01*
X77627Y-110506D01*
X78435Y-110040D01*
X79095Y-109380D01*
X79562Y-108572D01*
X79606Y-108409D01*
X90984D01*
Y-110669D01*
X100039D01*
Y-103583D01*
D02*
G37*
G36*
X116496Y-103139D02*
X116012D01*
Y-106626D01*
X120417D01*
X120347Y-106094D01*
X119949Y-105132D01*
X119315Y-104307D01*
X118490Y-103673D01*
X117528Y-103275D01*
X116496Y-103139D01*
D02*
G37*
G36*
X115012D02*
X114527D01*
X113496Y-103275D01*
X112534Y-103673D01*
X111708Y-104307D01*
X111075Y-105132D01*
X110677Y-106094D01*
X110607Y-106626D01*
X115012D01*
Y-103139D01*
D02*
G37*
G36*
X47253Y-103252D02*
X47232D01*
Y-106705D01*
X50685D01*
Y-106684D01*
X50416Y-105679D01*
X49895Y-104778D01*
X49159Y-104042D01*
X48258Y-103521D01*
X47253Y-103252D01*
D02*
G37*
G36*
X120417Y-107626D02*
X116012D01*
Y-111113D01*
X116496D01*
X117528Y-110977D01*
X118490Y-110579D01*
X119315Y-109945D01*
X119949Y-109119D01*
X120347Y-108158D01*
X120417Y-107626D01*
D02*
G37*
G36*
X115012D02*
X110607D01*
X110677Y-108158D01*
X111075Y-109119D01*
X111708Y-109945D01*
X112534Y-110579D01*
X113496Y-110977D01*
X114527Y-111113D01*
X115012D01*
Y-107626D01*
D02*
G37*
G36*
X50685Y-107705D02*
X47232D01*
Y-111158D01*
X47253D01*
X48258Y-110888D01*
X49159Y-110368D01*
X49895Y-109632D01*
X50416Y-108730D01*
X50685Y-107725D01*
Y-107705D01*
D02*
G37*
G36*
X211961Y-106319D02*
X211024D01*
X210118Y-106561D01*
X209307Y-107030D01*
X208644Y-107693D01*
X208176Y-108504D01*
X207933Y-109409D01*
Y-110346D01*
X208176Y-111252D01*
X208644Y-112063D01*
X209307Y-112726D01*
X210118Y-113195D01*
X211024Y-113437D01*
X211961D01*
X212866Y-113195D01*
X213677Y-112726D01*
X214340Y-112063D01*
X214809Y-111252D01*
X215051Y-110346D01*
Y-109409D01*
X214809Y-108504D01*
X214340Y-107693D01*
X213677Y-107030D01*
X212866Y-106561D01*
X211961Y-106319D01*
D02*
G37*
G36*
X186370D02*
X185433D01*
X184528Y-106561D01*
X183716Y-107030D01*
X183054Y-107693D01*
X182585Y-108504D01*
X182343Y-109409D01*
Y-110346D01*
X182585Y-111252D01*
X183054Y-112063D01*
X183716Y-112726D01*
X184528Y-113195D01*
X185433Y-113437D01*
X186370D01*
X187275Y-113195D01*
X188087Y-112726D01*
X188750Y-112063D01*
X189218Y-111252D01*
X189461Y-110346D01*
Y-109409D01*
X189218Y-108504D01*
X188750Y-107693D01*
X188087Y-107030D01*
X187275Y-106561D01*
X186370Y-106319D01*
D02*
G37*
G36*
X162390D02*
X161453D01*
X160547Y-106561D01*
X159736Y-107030D01*
X159073Y-107693D01*
X158605Y-108504D01*
X158362Y-109409D01*
Y-110346D01*
X158605Y-111252D01*
X159073Y-112063D01*
X159736Y-112726D01*
X160547Y-113195D01*
X161453Y-113437D01*
X162390D01*
X163295Y-113195D01*
X164107Y-112726D01*
X164769Y-112063D01*
X165238Y-111252D01*
X165480Y-110346D01*
Y-109409D01*
X165238Y-108504D01*
X164769Y-107693D01*
X164107Y-107030D01*
X163295Y-106561D01*
X162390Y-106319D01*
D02*
G37*
G36*
X136799D02*
X135862D01*
X134957Y-106561D01*
X134145Y-107030D01*
X133483Y-107693D01*
X133014Y-108504D01*
X132772Y-109409D01*
Y-110346D01*
X133014Y-111252D01*
X133483Y-112063D01*
X134145Y-112726D01*
X134957Y-113195D01*
X135862Y-113437D01*
X136799D01*
X137704Y-113195D01*
X138516Y-112726D01*
X139179Y-112063D01*
X139647Y-111252D01*
X139890Y-110346D01*
Y-109409D01*
X139647Y-108504D01*
X139179Y-107693D01*
X138516Y-107030D01*
X137704Y-106561D01*
X136799Y-106319D01*
D02*
G37*
G36*
X34681Y-106870D02*
X33744D01*
X32839Y-107113D01*
X32027Y-107581D01*
X31365Y-108244D01*
X30896Y-109055D01*
X30654Y-109961D01*
Y-110898D01*
X30896Y-111803D01*
X31365Y-112614D01*
X32027Y-113277D01*
X32839Y-113746D01*
X33744Y-113988D01*
X34681D01*
X35586Y-113746D01*
X36398Y-113277D01*
X37061Y-112614D01*
X37529Y-111803D01*
X37772Y-110898D01*
Y-109961D01*
X37529Y-109055D01*
X37061Y-108244D01*
X36398Y-107581D01*
X35586Y-107113D01*
X34681Y-106870D01*
D02*
G37*
G36*
X12181D02*
X5063D01*
Y-113988D01*
X12181D01*
Y-106870D01*
D02*
G37*
G36*
X51792Y-124512D02*
X51642D01*
Y-128949D01*
X56079D01*
Y-128799D01*
X55742Y-127543D01*
X55092Y-126417D01*
X54173Y-125498D01*
X53047Y-124848D01*
X51792Y-124512D01*
D02*
G37*
G36*
X50642D02*
X50492D01*
X49236Y-124848D01*
X48110Y-125498D01*
X47191Y-126417D01*
X46541Y-127543D01*
X46205Y-128799D01*
Y-128949D01*
X50642D01*
Y-124512D01*
D02*
G37*
G36*
X34681Y-124587D02*
X33744D01*
X32839Y-124829D01*
X32027Y-125298D01*
X31365Y-125960D01*
X30896Y-126772D01*
X30654Y-127677D01*
Y-128614D01*
X30896Y-129519D01*
X31365Y-130331D01*
X32027Y-130994D01*
X32839Y-131462D01*
X33744Y-131705D01*
X34681D01*
X35586Y-131462D01*
X36398Y-130994D01*
X37061Y-130331D01*
X37529Y-129519D01*
X37772Y-128614D01*
Y-127677D01*
X37529Y-126772D01*
X37061Y-125960D01*
X36398Y-125298D01*
X35586Y-124829D01*
X34681Y-124587D01*
D02*
G37*
G36*
X9091D02*
X8153D01*
X7248Y-124829D01*
X6437Y-125298D01*
X5774Y-125960D01*
X5305Y-126772D01*
X5063Y-127677D01*
Y-128614D01*
X5305Y-129519D01*
X5774Y-130331D01*
X6437Y-130994D01*
X7248Y-131462D01*
X8153Y-131705D01*
X9091D01*
X9996Y-131462D01*
X10807Y-130994D01*
X11470Y-130331D01*
X11938Y-129519D01*
X12181Y-128614D01*
Y-127677D01*
X11938Y-126772D01*
X11470Y-125960D01*
X10807Y-125298D01*
X9996Y-124829D01*
X9091Y-124587D01*
D02*
G37*
G36*
X56079Y-129949D02*
X51642D01*
Y-134386D01*
X51792D01*
X53047Y-134049D01*
X54173Y-133399D01*
X55092Y-132480D01*
X55742Y-131354D01*
X56079Y-130099D01*
Y-129949D01*
D02*
G37*
G36*
X50642D02*
X46205D01*
Y-130099D01*
X46541Y-131354D01*
X47191Y-132480D01*
X48110Y-133399D01*
X49236Y-134049D01*
X50492Y-134386D01*
X50642D01*
Y-129949D01*
D02*
G37*
G36*
X307812Y-140157D02*
X306361D01*
X304959Y-140533D01*
X303702Y-141259D01*
X302676Y-142285D01*
X301950Y-143542D01*
X301575Y-144944D01*
Y-146395D01*
X301950Y-147797D01*
X302676Y-149054D01*
X303702Y-150080D01*
X304959Y-150805D01*
X306361Y-151181D01*
X307812D01*
X309214Y-150805D01*
X310471Y-150080D01*
X311497Y-149054D01*
X312223Y-147797D01*
X312598Y-146395D01*
Y-144944D01*
X312223Y-143542D01*
X311497Y-142285D01*
X310471Y-141259D01*
X309214Y-140533D01*
X307812Y-140157D01*
D02*
G37*
G36*
X20411D02*
X18959D01*
X17558Y-140533D01*
X16301Y-141259D01*
X15274Y-142285D01*
X14549Y-143542D01*
X14173Y-144944D01*
Y-146395D01*
X14549Y-147797D01*
X15274Y-149054D01*
X16301Y-150080D01*
X17558Y-150805D01*
X18959Y-151181D01*
X20411D01*
X21813Y-150805D01*
X23069Y-150080D01*
X24096Y-149054D01*
X24821Y-147797D01*
X25197Y-146395D01*
Y-144944D01*
X24821Y-143542D01*
X24096Y-142285D01*
X23069Y-141259D01*
X21813Y-140533D01*
X20411Y-140157D01*
D02*
G37*
%LPD*%
G36*
X18347Y-34508D02*
X8425D01*
Y-27224D01*
X18347D01*
Y-34508D01*
D02*
G37*
G36*
Y-44626D02*
Y-51496D01*
X11181D01*
Y-82598D01*
X4567D01*
Y-37343D01*
X18347D01*
Y-44626D01*
D02*
G37*
D11*
X237520Y-106890D02*
Y-83504D01*
X240158Y-80866D02*
X272363D01*
X237520Y-83504D02*
X240158Y-80866D01*
X267205Y-104252D02*
X282008D01*
X264764Y-101811D02*
Y-96378D01*
Y-101811D02*
X267205Y-104252D01*
X274764Y-85236D02*
Y-83267D01*
X272363Y-80866D02*
X274764Y-83267D01*
X239449Y-108819D02*
X243110D01*
X237520Y-106890D02*
X239449Y-108819D01*
X284331Y-101929D02*
Y-57087D01*
X282008Y-104252D02*
X284331Y-101929D01*
X76890Y-68622D02*
X83031Y-74764D01*
X111811D01*
X76890Y-68622D02*
Y-52165D01*
X111811Y-74764D02*
X115512Y-78465D01*
Y-97126D02*
Y-78465D01*
X76339Y-96220D02*
Y-91378D01*
X91671Y-88268D02*
X96890Y-83049D01*
X76339Y-91378D02*
X79449Y-88268D01*
X91671D01*
X62047Y-101417D02*
X84370D01*
X88661Y-97126D02*
X95512D01*
X84370Y-101417D02*
X88661Y-97126D01*
X47494Y-86864D02*
X62047Y-101417D01*
X28583Y-48228D02*
X28780Y-48425D01*
Y-53976D02*
Y-48425D01*
X22185Y-48228D02*
X28583D01*
X34882Y-48228D02*
Y-43268D01*
X261575Y-51732D02*
X278976D01*
X284331Y-57087D01*
X46890Y-82165D02*
X47494Y-82770D01*
Y-86864D02*
Y-82770D01*
X96890Y-83049D02*
Y-82165D01*
X76260Y-107205D02*
X95433D01*
X95512Y-107126D01*
X44803Y-113347D02*
X101850D01*
X41221Y-109764D02*
X44803Y-113347D01*
X41221Y-109764D02*
Y-65315D01*
X101850Y-113347D02*
X104231Y-110966D01*
Y-108407D02*
X105512Y-107126D01*
X104231Y-110966D02*
Y-108407D01*
X46890Y-59646D02*
Y-52165D01*
X41221Y-65315D02*
X46890Y-59646D01*
X14134Y-88819D02*
X28858Y-103543D01*
X14134Y-88819D02*
Y-84764D01*
X15787Y-48130D02*
Y-40984D01*
Y-48130D02*
X15886Y-48228D01*
X54291Y-21764D02*
X54311Y-21783D01*
D14*
X41713Y-51516D02*
Y-43043D01*
Y-51516D02*
X42362Y-52165D01*
X46890D01*
X56890Y-82165D02*
Y-74252D01*
X52047Y-69409D02*
X56890Y-74252D01*
X52047Y-69409D02*
Y-48063D01*
X48012Y-44028D02*
Y-43043D01*
Y-44028D02*
X52047Y-48063D01*
X145012Y-36913D02*
Y-33413D01*
X143512Y-29413D02*
X146512D01*
X137512Y-31913D02*
X143512D01*
X145012Y-36913D02*
X146012Y-37913D01*
X148012Y-34413D02*
Y-30913D01*
Y-34413D02*
X149012Y-35413D01*
X146512Y-29413D02*
X148012Y-30913D01*
X146012Y-37913D02*
X158012D01*
X149012Y-35413D02*
X164512D01*
X143512Y-31913D02*
X145012Y-33413D01*
X135713Y-30114D02*
Y-21783D01*
Y-30114D02*
X137512Y-31913D01*
X142012Y-27914D02*
Y-21783D01*
Y-27914D02*
X143512Y-29413D01*
X164512Y-35413D02*
X165512Y-36413D01*
X158012Y-37913D02*
X159212Y-39114D01*
X71512Y-43044D02*
X71512Y-43044D01*
X71512Y-43044D02*
Y-36413D01*
X70512Y-35413D02*
X71512Y-36413D01*
X55012Y-35413D02*
X70512D01*
X54012Y-34413D02*
X55012Y-35413D01*
X54012Y-34413D02*
Y-30913D01*
X52512Y-29413D02*
X54012Y-30913D01*
X49512Y-29413D02*
X52512D01*
X48012Y-27914D02*
X49512Y-29413D01*
X48012Y-27914D02*
Y-21783D01*
X65212Y-43044D02*
Y-39114D01*
X52012Y-37913D02*
X64012D01*
X65212Y-39114D01*
X51012Y-36913D02*
X52012Y-37913D01*
X51012Y-36913D02*
Y-33413D01*
X49512Y-31913D02*
X51012Y-33413D01*
X43512Y-31913D02*
X49512D01*
X41713Y-30114D02*
X43512Y-31913D01*
X41713Y-30114D02*
Y-21783D01*
X95012Y-43044D02*
X95012Y-43044D01*
X95012Y-43044D02*
Y-36413D01*
X94012Y-35413D02*
X95012Y-36413D01*
X78512Y-35413D02*
X94012D01*
X77512Y-34413D02*
X78512Y-35413D01*
X77512Y-34413D02*
Y-30913D01*
X76012Y-29413D02*
X77512Y-30913D01*
X73012Y-29413D02*
X76012D01*
X71512Y-27914D02*
X73012Y-29413D01*
X71512Y-27914D02*
Y-21783D01*
X88712Y-43044D02*
Y-39114D01*
X75512Y-37913D02*
X87512D01*
X88712Y-39114D01*
X74512Y-36913D02*
X75512Y-37913D01*
X74512Y-36913D02*
Y-33413D01*
X73012Y-31913D02*
X74512Y-33413D01*
X67012Y-31913D02*
X73012D01*
X65213Y-30114D02*
X67012Y-31913D01*
X65213Y-30114D02*
Y-21783D01*
X118512Y-43044D02*
X118512Y-43044D01*
X118512Y-43044D02*
Y-36413D01*
X117512Y-35413D02*
X118512Y-36413D01*
X102012Y-35413D02*
X117512D01*
X101012Y-34413D02*
X102012Y-35413D01*
X101012Y-34413D02*
Y-30913D01*
X99512Y-29413D02*
X101012Y-30913D01*
X96512Y-29413D02*
X99512D01*
X95012Y-27914D02*
X96512Y-29413D01*
X95012Y-27914D02*
Y-21783D01*
X112212Y-43044D02*
Y-39114D01*
X99012Y-37913D02*
X111012D01*
X112212Y-39114D01*
X98012Y-36913D02*
X99012Y-37913D01*
X98012Y-36913D02*
Y-33413D01*
X96512Y-31913D02*
X98012Y-33413D01*
X90512Y-31913D02*
X96512D01*
X88713Y-30114D02*
X90512Y-31913D01*
X88713Y-30114D02*
Y-21783D01*
X142012Y-43044D02*
X142012Y-43044D01*
X142012Y-43044D02*
Y-36413D01*
X141012Y-35413D02*
X142012Y-36413D01*
X125512Y-35413D02*
X141012D01*
X124512Y-34413D02*
X125512Y-35413D01*
X124512Y-34413D02*
Y-30913D01*
X123012Y-29413D02*
X124512Y-30913D01*
X120012Y-29413D02*
X123012D01*
X118512Y-27914D02*
X120012Y-29413D01*
X118512Y-27914D02*
Y-21783D01*
X135712Y-43044D02*
Y-39114D01*
X122512Y-37913D02*
X134512D01*
X135712Y-39114D01*
X121512Y-36913D02*
X122512Y-37913D01*
X121512Y-36913D02*
Y-33413D01*
X120012Y-31913D02*
X121512Y-33413D01*
X114012Y-31913D02*
X120012D01*
X112213Y-30114D02*
X114012Y-31913D01*
X112213Y-30114D02*
Y-21783D01*
X165512Y-43044D02*
X165512Y-43044D01*
X165512Y-43044D02*
Y-36413D01*
X159212Y-43044D02*
Y-39114D01*
X229712Y-30114D02*
Y-21784D01*
Y-30114D02*
X231511Y-31914D01*
X237511D01*
X239012Y-33414D01*
Y-36914D02*
Y-33414D01*
Y-36914D02*
X240012Y-37914D01*
X252011D02*
X253212Y-39114D01*
X240012Y-37914D02*
X252011D01*
X253212Y-43044D02*
Y-39114D01*
X236012Y-27914D02*
Y-21784D01*
Y-27914D02*
X237511Y-29414D01*
X240511D01*
X242011Y-30914D01*
Y-34414D02*
Y-30914D01*
Y-34414D02*
X243011Y-35414D01*
X258511D01*
X259511Y-36414D01*
Y-43044D02*
Y-36414D01*
Y-43044D02*
X259511Y-43044D01*
X159213Y-30114D02*
Y-21783D01*
Y-30114D02*
X161012Y-31913D01*
X167012D01*
X168512Y-33413D01*
Y-36913D02*
Y-33413D01*
Y-36913D02*
X169512Y-37913D01*
X181512D02*
X182712Y-39114D01*
X169512Y-37913D02*
X181512D01*
X182712Y-43044D02*
Y-39114D01*
X165512Y-27914D02*
Y-21783D01*
Y-27914D02*
X167012Y-29413D01*
X170012D01*
X171512Y-30913D01*
Y-34413D02*
Y-30913D01*
Y-34413D02*
X172512Y-35413D01*
X188012D01*
X189012Y-36413D01*
Y-43044D02*
Y-36413D01*
Y-43044D02*
X189012Y-43044D01*
X206212Y-30114D02*
Y-21784D01*
Y-30114D02*
X208012Y-31914D01*
X214012D01*
X215512Y-33414D01*
Y-36914D02*
Y-33414D01*
Y-36914D02*
X216512Y-37914D01*
X228512D02*
X229712Y-39114D01*
X216512Y-37914D02*
X228512D01*
X229712Y-43044D02*
Y-39114D01*
X212512Y-27914D02*
Y-21784D01*
Y-27914D02*
X214012Y-29414D01*
X217012D01*
X218512Y-30914D01*
Y-34414D02*
Y-30914D01*
Y-34414D02*
X219512Y-35414D01*
X235012D01*
X236012Y-36414D01*
Y-43044D02*
Y-36414D01*
Y-43044D02*
X236012Y-43044D01*
X212512Y-43044D02*
X212512Y-43044D01*
X212512Y-43044D02*
Y-36413D01*
X211512Y-35413D02*
X212512Y-36413D01*
X196012Y-35413D02*
X211512D01*
X195012Y-34413D02*
X196012Y-35413D01*
X195012Y-34413D02*
Y-30913D01*
X193512Y-29413D02*
X195012Y-30913D01*
X190512Y-29413D02*
X193512D01*
X189012Y-27914D02*
X190512Y-29413D01*
X189012Y-27914D02*
Y-21783D01*
X206212Y-43044D02*
Y-39114D01*
X193012Y-37913D02*
X205012D01*
X206212Y-39114D01*
X192012Y-36913D02*
X193012Y-37913D01*
X192012Y-36913D02*
Y-33413D01*
X190512Y-31913D02*
X192012Y-33413D01*
X184512Y-31913D02*
X190512D01*
X182713Y-30114D02*
X184512Y-31913D01*
X182713Y-30114D02*
Y-21783D01*
D16*
X34882Y-48228D02*
D03*
X28583Y-48228D02*
D03*
X22185D02*
D03*
X15886D02*
D03*
D17*
X27205Y-40984D02*
D03*
X15787D02*
D03*
X27205Y-30866D02*
D03*
X15787Y-30866D02*
D03*
D18*
X65213Y-43043D02*
D03*
X71512D02*
D03*
X77811D02*
D03*
Y-21783D02*
D03*
X71512D02*
D03*
X65213D02*
D03*
X41713D02*
D03*
X48012D02*
D03*
X54311D02*
D03*
Y-43043D02*
D03*
X48012D02*
D03*
X41713D02*
D03*
X88713D02*
D03*
X95012D02*
D03*
X101311D02*
D03*
Y-21783D02*
D03*
X95012D02*
D03*
X88713D02*
D03*
X112213D02*
D03*
X118512D02*
D03*
X124811D02*
D03*
Y-43043D02*
D03*
X118512D02*
D03*
X112213D02*
D03*
X135713D02*
D03*
X142012D02*
D03*
X148311D02*
D03*
Y-21783D02*
D03*
X142012D02*
D03*
X135713D02*
D03*
X159213D02*
D03*
X165512D02*
D03*
X171811D02*
D03*
Y-43043D02*
D03*
X165512D02*
D03*
X159213D02*
D03*
X182713D02*
D03*
X189012D02*
D03*
X195311D02*
D03*
Y-21783D02*
D03*
X189012D02*
D03*
X182713D02*
D03*
X206212Y-21784D02*
D03*
X212512D02*
D03*
X218811D02*
D03*
Y-43044D02*
D03*
X212512D02*
D03*
X206212D02*
D03*
X229712Y-43044D02*
D03*
X236012D02*
D03*
X242311D02*
D03*
Y-21784D02*
D03*
X236012D02*
D03*
X229712D02*
D03*
X253212Y-21784D02*
D03*
X259511D02*
D03*
X265810D02*
D03*
Y-43044D02*
D03*
X259511D02*
D03*
X253212D02*
D03*
D19*
X136115Y-12693D02*
D03*
X148311Y-12736D02*
D03*
X253615Y-12693D02*
D03*
X265811Y-12736D02*
D03*
X230115Y-12693D02*
D03*
X242311Y-12736D02*
D03*
X206615Y-12693D02*
D03*
X218811Y-12736D02*
D03*
X183115Y-12693D02*
D03*
X195311Y-12736D02*
D03*
X159615Y-12693D02*
D03*
X171811Y-12736D02*
D03*
X112615Y-12693D02*
D03*
X124811Y-12736D02*
D03*
X89115Y-12693D02*
D03*
X101311Y-12736D02*
D03*
X65615Y-12693D02*
D03*
X77811Y-12736D02*
D03*
X42096Y-12673D02*
D03*
X54291Y-12717D02*
D03*
D38*
X77811Y-43043D02*
X82622D01*
X101311D02*
X106122D01*
X171811D02*
X176622D01*
X54311D02*
X59122D01*
X77791Y-21783D02*
Y-5551D01*
X65596Y-12673D02*
Y-5508D01*
X101311Y-12736D02*
Y-5551D01*
X206615Y-12693D02*
Y-5528D01*
X242311Y-21784D02*
Y-5571D01*
X124811Y-43043D02*
X129622D01*
X148311D02*
X153122D01*
X195311D02*
X200122D01*
X218811Y-43044D02*
X223622D01*
X242311Y-43044D02*
X247122D01*
X265810Y-43044D02*
X270621D01*
X265811Y-12736D02*
Y-5571D01*
Y-21783D02*
Y-12736D01*
X242311Y-21784D02*
X242311D01*
X218811Y-12736D02*
Y-5571D01*
Y-21783D02*
Y-12736D01*
X195311D02*
Y-5571D01*
Y-21783D02*
Y-12736D01*
X171811D02*
Y-5571D01*
Y-21783D02*
Y-12736D01*
X148311D02*
Y-5571D01*
Y-21783D02*
Y-12736D01*
X124811D02*
Y-5571D01*
Y-21783D02*
Y-12736D01*
X101311Y-21783D02*
Y-12736D01*
X101291Y-5551D02*
X101311D01*
X77791Y-21783D02*
X77811D01*
X54291Y-12717D02*
Y-5551D01*
Y-21764D02*
Y-12717D01*
X253615Y-12693D02*
Y-5528D01*
X183096Y-12673D02*
Y-5508D01*
X230115Y-12693D02*
Y-5528D01*
X112596Y-12673D02*
Y-5508D01*
X136115Y-12693D02*
Y-5528D01*
X159615Y-12693D02*
Y-5528D01*
X89096Y-12673D02*
Y-5508D01*
X42076Y-12653D02*
Y-5488D01*
D39*
X27205Y-40984D02*
Y-30866D01*
D40*
X29862Y-30866D02*
D03*
D41*
X296299Y-43268D02*
D03*
X179051Y-68697D02*
D03*
X218421D02*
D03*
X129441Y-81059D02*
D03*
X168811D02*
D03*
X218382D02*
D03*
X179012D02*
D03*
X168890Y-68657D02*
D03*
X129520D02*
D03*
D42*
X306299Y-43268D02*
D03*
D43*
X95512Y-97126D02*
D03*
X105512D02*
D03*
X115512D02*
D03*
Y-107126D02*
D03*
D44*
X105512D02*
D03*
X51142Y-129449D02*
D03*
X244764Y-66378D02*
D03*
X254764D02*
D03*
X264764D02*
D03*
X274764D02*
D03*
Y-96378D02*
D03*
X264764D02*
D03*
X254764D02*
D03*
D45*
X95512Y-107126D02*
D03*
D46*
X51142Y-119449D02*
D03*
D47*
X106890Y-82165D02*
D03*
X96890D02*
D03*
X86890D02*
D03*
X76890D02*
D03*
X66890D02*
D03*
X56890D02*
D03*
X46890D02*
D03*
Y-52165D02*
D03*
X56890Y-52165D02*
D03*
X66890D02*
D03*
X76890D02*
D03*
X86890D02*
D03*
X96890D02*
D03*
D48*
X106890Y-52165D02*
D03*
D49*
X244764Y-96378D02*
D03*
D50*
X8622Y-110429D02*
D03*
X136331Y-92161D02*
D03*
X185902D02*
D03*
D51*
X34213Y-110429D02*
D03*
X8622Y-128146D02*
D03*
X34213D02*
D03*
X161921Y-109878D02*
D03*
X136331D02*
D03*
X161921Y-92161D02*
D03*
X211492Y-109878D02*
D03*
X185902D02*
D03*
X211492Y-92161D02*
D03*
D52*
X76260Y-107205D02*
D03*
X46732D02*
D03*
X76339Y-96220D02*
D03*
X46811D02*
D03*
D53*
X219764Y-94331D02*
D03*
X104095Y-69331D02*
D03*
X111653Y-59291D02*
D03*
X28780Y-53976D02*
D03*
X34882Y-43268D02*
D03*
X261575Y-51732D02*
D03*
X284095Y-109646D02*
D03*
X249685Y-61693D02*
D03*
X232323Y-80000D02*
D03*
X226693Y-82047D02*
D03*
X280591Y-85158D02*
D03*
X272677Y-89331D02*
D03*
X274764Y-85236D02*
D03*
X243110Y-108819D02*
D03*
X273465Y-57244D02*
D03*
X266850Y-114173D02*
D03*
X118307Y-73898D02*
D03*
X92047Y-64882D02*
D03*
Y-66929D02*
D03*
X209449Y-81098D02*
D03*
X159917Y-81059D02*
D03*
X82622Y-43043D02*
D03*
X106122D02*
D03*
X176622D02*
D03*
X59122D02*
D03*
X34921Y-65019D02*
D03*
X34921Y-67067D02*
D03*
X32874Y-65019D02*
D03*
Y-67067D02*
D03*
X86693Y-59646D02*
D03*
X28858Y-103543D02*
D03*
X13661Y-103543D02*
D03*
X14134Y-84764D02*
D03*
X226496Y-54843D02*
D03*
X226496Y-56890D02*
D03*
X117835Y-68224D02*
D03*
X28937Y-95059D02*
D03*
X9409Y-32913D02*
D03*
Y-28819D02*
D03*
Y-30866D02*
D03*
X11457D02*
D03*
X11457Y-32913D02*
D03*
X11457Y-28819D02*
D03*
X30827Y-91161D02*
D03*
Y-89114D02*
D03*
X32874D02*
D03*
Y-91161D02*
D03*
X5945Y-78149D02*
D03*
X5945Y-76102D02*
D03*
X5945Y-74055D02*
D03*
X5945Y-72008D02*
D03*
X5945Y-69961D02*
D03*
X5945Y-67913D02*
D03*
X5945Y-61772D02*
D03*
X5945Y-63819D02*
D03*
X5945Y-65866D02*
D03*
X8071Y-98150D02*
D03*
X10118Y-98150D02*
D03*
X12165Y-98150D02*
D03*
X30827Y-67067D02*
D03*
Y-65019D02*
D03*
X31535Y-32913D02*
D03*
X31535Y-28819D02*
D03*
X31535Y-30866D02*
D03*
X65596Y-5508D02*
D03*
X206615Y-5528D02*
D03*
X120354Y-73898D02*
D03*
X242598Y-75236D02*
D03*
X236181Y-60512D02*
D03*
X230744Y-70197D02*
D03*
X33583Y-30866D02*
D03*
Y-32913D02*
D03*
Y-28819D02*
D03*
X34921Y-91161D02*
D03*
Y-89114D02*
D03*
X10118Y-100197D02*
D03*
X12165D02*
D03*
X8071D02*
D03*
X265811Y-5571D02*
D03*
X253615Y-5528D02*
D03*
X195311Y-5571D02*
D03*
X183096Y-5508D02*
D03*
X218811Y-5571D02*
D03*
X230115Y-5528D02*
D03*
X242311Y-5571D02*
D03*
X124811D02*
D03*
X112596Y-5508D02*
D03*
X136115Y-5528D02*
D03*
X148311Y-5571D02*
D03*
X159615Y-5528D02*
D03*
X171811Y-5571D02*
D03*
X101291Y-5551D02*
D03*
X89096Y-5508D02*
D03*
X77791Y-5551D02*
D03*
X42076Y-5488D02*
D03*
X54291Y-5551D02*
D03*
X270621Y-43044D02*
D03*
X247122Y-43044D02*
D03*
X223622Y-43044D02*
D03*
X200122Y-43043D02*
D03*
X153122D02*
D03*
X129622D02*
D03*
D54*
X307087Y-15748D02*
D03*
X19685Y-145669D02*
D03*
X307087D02*
D03*
X19685Y-15748D02*
D03*
M02*
