M48
;Layer_Color=9474304
;FILE_FORMAT=2:4
INCH,TZ
;TYPE=PLATED
T1F00S00C0.0079
T2F00S00C0.0315
T3F00S00C0.0394
T4F00S00C0.0866
%
T01
X807Y-10020
X1012
X1217
Y-9815
X1012Y-9815
X807Y-9815
X1366Y-10354
X2886Y-10354
X2894Y-9506
X3083Y-9116
X3287
X3492
Y-8911
X3287
X3083
X1413Y-8476
X594Y-7815
X594Y-7610
X594Y-7406
X594Y-7201
X594Y-6996
X594Y-6791
X594Y-6587
X594Y-6382
X594Y-6177
X3083Y-6502
X3287
X3492
X3492Y-6707
X3287Y-6707
X3083
X2878Y-5398
X3488Y-4327
X5912Y-4304
X8262
X8669Y-5965
X9205Y-6488
Y-6693
X10409Y-6933
X11783Y-6822
X11831Y-7390
X12035Y-7390
X11165Y-5929
X10612Y-4304
X12962
X15312
X17662
X20012
X22362Y-4304
X22650Y-5484
X22650Y-5689
X23618Y-6051
X23074Y-7020
X23250Y-8208
X22669Y-8205
X20945Y-8110
X21976Y-9433
X24311Y-10882
X15992Y-8106
X24674Y-7602
X24969Y-6169
X24712Y-4304
X26157Y-5173
X27346Y-5724
X27062Y-4304
X27476Y-8524
X28059Y-8516
X27268Y-8933
X26685Y-11417
X28409Y-10965
X26581Y-557
X25362Y-553
X24231Y-557
X23012Y-553
X21881Y-557
X20662Y-553
X19531Y-557
X18310Y-551
X17181Y-557
X15962Y-553
X14831Y-557
X13612Y-553
X12481Y-557
X11260Y-551
X10129Y-555
X8910Y-551
X7779Y-555
X6560Y-551
X5429Y-555
X4208Y-549
T02
X12944Y-8106
X12952Y-6866
X16889
X17905Y-6870
X17901Y-8106
X16881
X21838
X21842Y-6870
X29630Y-4327
X30630
T03
X862Y-12815
Y-11043
X3421
X4673Y-10720
X4681Y-9622
X4689Y-8217
X5689
X6689
X7689
X8689
X7634Y-9622
X7626Y-10720
X5114Y-11945
Y-12945
X3421Y-12815
X4689Y-5217
X5689Y-5217
X6689
X7689
X8689
X9689
X10689Y-5217
Y-8217
X9689
X9551Y-9713
X10551
X11551
Y-10713
X10551
X9551
X13633Y-10988
Y-9216
X16192
Y-10988
X18590
Y-9216
X21149
Y-10988
X24476Y-9638
X25476
X26476
X27476
Y-6638
X26476
X25476
X24476
T04
X1969Y-14567
X30709
Y-1575
X1969
M30
