G04*
G04 #@! TF.GenerationSoftware,Altium Limited,Altium Designer,23.5.1 (21)*
G04*
G04 Layer_Physical_Order=2*
G04 Layer_Color=32768*
%FSLAX25Y25*%
%MOIN*%
G70*
G04*
G04 #@! TF.SameCoordinates,E67CB547-5A9E-439B-8C78-AB5D31355585*
G04*
G04*
G04 #@! TF.FilePolarity,Negative*
G04*
G01*
G75*
%ADD53C,0.04000*%
%ADD54C,0.07937*%
%ADD55C,0.07150*%
%ADD56C,0.04787*%
%ADD57C,0.12661*%
D53*
X0Y-144685D02*
X39Y-145689D01*
X158Y-146687D01*
X353Y-147672D01*
X626Y-148639D01*
X974Y-149582D01*
X1395Y-150494D01*
X1885Y-151371D01*
X2444Y-152206D01*
X3066Y-152995D01*
X3748Y-153733D01*
X4485Y-154415D01*
X5274Y-155037D01*
X6110Y-155595D01*
X6986Y-156086D01*
X7899Y-156506D01*
X8841Y-156854D01*
X9808Y-157127D01*
X10794Y-157323D01*
X11791Y-157441D01*
X12795Y-157480D01*
X313976Y-157480D02*
X314980Y-157441D01*
X315978Y-157323D01*
X316963Y-157127D01*
X317930Y-156854D01*
X318873Y-156506D01*
X319785Y-156086D01*
X320662Y-155595D01*
X321497Y-155037D01*
X322286Y-154415D01*
X323024Y-153733D01*
X323706Y-152995D01*
X324328Y-152206D01*
X324886Y-151371D01*
X325377Y-150494D01*
X325798Y-149582D01*
X326145Y-148639D01*
X326418Y-147672D01*
X326614Y-146687D01*
X326732Y-145689D01*
X326772Y-144685D01*
X326772Y-12795D02*
X326732Y-11791D01*
X326614Y-10794D01*
X326418Y-9808D01*
X326145Y-8841D01*
X325798Y-7899D01*
X325377Y-6986D01*
X324886Y-6110D01*
X324328Y-5274D01*
X323706Y-4485D01*
X323024Y-3748D01*
X322286Y-3066D01*
X321497Y-2444D01*
X320662Y-1885D01*
X319785Y-1395D01*
X318873Y-974D01*
X317930Y-626D01*
X316963Y-353D01*
X315978Y-158D01*
X314980Y-39D01*
X313976Y-0D01*
X12795D02*
X11791Y-39D01*
X10794Y-158D01*
X9808Y-353D01*
X8841Y-626D01*
X7899Y-974D01*
X6986Y-1395D01*
X6110Y-1885D01*
X5274Y-2444D01*
X4485Y-3066D01*
X3748Y-3748D01*
X3066Y-4485D01*
X2444Y-5274D01*
X1885Y-6110D01*
X1395Y-6986D01*
X974Y-7899D01*
X626Y-8841D01*
X353Y-9808D01*
X158Y-10794D01*
X39Y-11791D01*
X0Y-12795D01*
X12795Y-157480D02*
X313976D01*
X326772Y-13780D02*
X326772Y-144685D01*
X326772Y-12795D02*
X326772Y-13780D01*
X-0D02*
X0Y-144685D01*
X12795Y0D02*
X313976D01*
X-0Y-13780D02*
X0Y-12795D01*
D54*
X244764Y-96378D02*
D03*
X254764D02*
D03*
X264764D02*
D03*
X274764Y-66378D02*
D03*
X264764D02*
D03*
X254764D02*
D03*
X244764D02*
D03*
X136331Y-109878D02*
D03*
X161921D02*
D03*
X185902D02*
D03*
X211492D02*
D03*
X76260Y-107205D02*
D03*
X76339Y-96220D02*
D03*
X96890Y-82165D02*
D03*
X95512Y-97126D02*
D03*
X105512D02*
D03*
X115512D02*
D03*
X105512Y-107126D02*
D03*
X95512D02*
D03*
X51142Y-119449D02*
D03*
X86890Y-82165D02*
D03*
X76890D02*
D03*
X66890D02*
D03*
X56890D02*
D03*
X46890D02*
D03*
Y-52165D02*
D03*
X56890Y-52165D02*
D03*
X66890D02*
D03*
X76890D02*
D03*
X86890D02*
D03*
X96890D02*
D03*
X106890Y-52165D02*
D03*
X8622Y-110429D02*
D03*
X34213D02*
D03*
X8622Y-128146D02*
D03*
X34213D02*
D03*
X161921Y-92161D02*
D03*
X136331D02*
D03*
X211492D02*
D03*
X185902D02*
D03*
D55*
X306299Y-43268D02*
D03*
X179051Y-68697D02*
D03*
X129441Y-81059D02*
D03*
X168811D02*
D03*
X218382D02*
D03*
X179012D02*
D03*
X129520Y-68657D02*
D03*
D56*
X232504Y-82083D02*
D03*
X28780Y-53976D02*
D03*
X261575Y-51732D02*
D03*
X226693Y-82047D02*
D03*
X274764Y-85236D02*
D03*
X243110Y-108819D02*
D03*
X273465Y-57244D02*
D03*
X118307Y-73898D02*
D03*
X92047Y-64882D02*
D03*
Y-66929D02*
D03*
X28858Y-103543D02*
D03*
X14134Y-84764D02*
D03*
X226496Y-54843D02*
D03*
X226496Y-56890D02*
D03*
X30827Y-91161D02*
D03*
Y-89114D02*
D03*
X32874D02*
D03*
Y-91161D02*
D03*
X5945Y-78149D02*
D03*
X5945Y-76102D02*
D03*
X5945Y-74055D02*
D03*
X5945Y-72008D02*
D03*
X5945Y-69961D02*
D03*
X5945Y-67913D02*
D03*
X5945Y-61772D02*
D03*
X5945Y-63819D02*
D03*
X5945Y-65866D02*
D03*
X120354Y-73898D02*
D03*
X34921Y-91161D02*
D03*
Y-89114D02*
D03*
X265811Y-5571D02*
D03*
X195311D02*
D03*
X218811D02*
D03*
X242311D02*
D03*
X124811D02*
D03*
X148311D02*
D03*
X171811D02*
D03*
X101291Y-5551D02*
D03*
X77791D02*
D03*
X54291D02*
D03*
D57*
X307087Y-15748D02*
D03*
X19685Y-145669D02*
D03*
X307087D02*
D03*
X19685Y-15748D02*
D03*
M02*
