G04*
G04 #@! TF.GenerationSoftware,Altium Limited,Altium Designer,23.7.1 (13)*
G04*
G04 Layer_Physical_Order=4*
G04 Layer_Color=8421376*
%FSLAX25Y25*%
%MOIN*%
G70*
G04*
G04 #@! TF.SameCoordinates,1B8C2127-6F75-47A4-92DA-DE864E6653F8*
G04*
G04*
G04 #@! TF.FilePolarity,Positive*
G04*
G01*
G75*
%ADD11C,0.01181*%
%ADD14C,0.01000*%
%ADD15C,0.00591*%
%ADD16R,0.03937X0.03740*%
%ADD22R,0.04331X0.06299*%
%ADD38C,0.01968*%
%ADD41C,0.07087*%
%ADD42R,0.07087X0.07087*%
%ADD43O,0.07874X0.05906*%
%ADD44C,0.07874*%
%ADD45R,0.07874X0.05906*%
%ADD46R,0.07874X0.07874*%
%ADD47O,0.05906X0.07874*%
%ADD48R,0.05906X0.07874*%
%ADD49R,0.07874X0.07874*%
%ADD50R,0.05937X0.05937*%
%ADD51C,0.05937*%
%ADD52C,0.05906*%
%ADD53C,0.01772*%
%ADD54C,0.09843*%
%ADD61R,0.03150X0.03150*%
%ADD62R,0.02598X0.01221*%
%ADD63R,0.06299X0.04331*%
%ADD64R,0.03937X0.04921*%
%ADD65R,0.03740X0.02362*%
%ADD66R,0.03150X0.03150*%
%ADD67R,0.03150X0.04724*%
%ADD68R,0.04724X0.03150*%
%ADD69R,0.05906X0.17323*%
%ADD70R,0.06299X0.09646*%
G36*
X315973Y-2756D02*
X317893Y-3339D01*
X319663Y-4285D01*
X321214Y-5558D01*
X322487Y-7109D01*
X323433Y-8878D01*
X324015Y-10798D01*
X324210Y-12774D01*
X324190Y-12795D01*
X324190D01*
X324255Y-13287D01*
X324190Y-13780D01*
X324191Y-144187D01*
X324190Y-144685D01*
X324164Y-145174D01*
X324015Y-146682D01*
X323433Y-148602D01*
X322487Y-150372D01*
X321214Y-151923D01*
X319663Y-153196D01*
X317893Y-154141D01*
X315973Y-154724D01*
X314193Y-154899D01*
X12795D01*
X12702Y-154911D01*
X10798Y-154724D01*
X8878Y-154141D01*
X7109Y-153196D01*
X5558Y-151923D01*
X4285Y-150372D01*
X3339Y-148602D01*
X2756Y-146682D01*
X2608Y-145174D01*
X2581Y-144685D01*
X2581Y-144193D01*
X2581Y-13780D01*
X2516Y-13287D01*
X2581Y-12795D01*
X2581D01*
X2562Y-12774D01*
X2756Y-10798D01*
X3339Y-8878D01*
X4285Y-7109D01*
X5558Y-5558D01*
X7109Y-4285D01*
X8878Y-3339D01*
X10798Y-2756D01*
X12702Y-2569D01*
X12795Y-2581D01*
X313976D01*
X314069Y-2569D01*
X315973Y-2756D01*
D02*
G37*
%LPC*%
G36*
X101585Y-4075D02*
X100998D01*
X100455Y-4300D01*
X100040Y-4715D01*
X99815Y-5257D01*
Y-5845D01*
X100040Y-6387D01*
X100455Y-6803D01*
X100998Y-7028D01*
X101585D01*
X102128Y-6803D01*
X102543Y-6387D01*
X102768Y-5845D01*
Y-5257D01*
X102543Y-4715D01*
X102128Y-4300D01*
X101585Y-4075D01*
D02*
G37*
G36*
X78085D02*
X77498D01*
X76955Y-4300D01*
X76540Y-4715D01*
X76315Y-5257D01*
Y-5845D01*
X76540Y-6387D01*
X76955Y-6803D01*
X77498Y-7028D01*
X78085D01*
X78628Y-6803D01*
X79043Y-6387D01*
X79268Y-5845D01*
Y-5257D01*
X79043Y-4715D01*
X78628Y-4300D01*
X78085Y-4075D01*
D02*
G37*
G36*
X54585D02*
X53998D01*
X53455Y-4300D01*
X53040Y-4715D01*
X52815Y-5257D01*
Y-5845D01*
X53040Y-6387D01*
X53455Y-6803D01*
X53998Y-7028D01*
X54585D01*
X55128Y-6803D01*
X55543Y-6387D01*
X55768Y-5845D01*
Y-5257D01*
X55543Y-4715D01*
X55128Y-4300D01*
X54585Y-4075D01*
D02*
G37*
G36*
X266105Y-4095D02*
X265517D01*
X264975Y-4319D01*
X264559Y-4735D01*
X264335Y-5277D01*
Y-5864D01*
X264559Y-6407D01*
X264975Y-6822D01*
X265517Y-7047D01*
X266105D01*
X266647Y-6822D01*
X267063Y-6407D01*
X267287Y-5864D01*
Y-5277D01*
X267063Y-4735D01*
X266647Y-4319D01*
X266105Y-4095D01*
D02*
G37*
G36*
X242605D02*
X242017D01*
X241475Y-4319D01*
X241059Y-4735D01*
X240835Y-5277D01*
Y-5864D01*
X241059Y-6407D01*
X241475Y-6822D01*
X242017Y-7047D01*
X242605D01*
X243147Y-6822D01*
X243563Y-6407D01*
X243787Y-5864D01*
Y-5277D01*
X243563Y-4735D01*
X243147Y-4319D01*
X242605Y-4095D01*
D02*
G37*
G36*
X219105D02*
X218517D01*
X217975Y-4319D01*
X217559Y-4735D01*
X217335Y-5277D01*
Y-5864D01*
X217559Y-6407D01*
X217975Y-6822D01*
X218517Y-7047D01*
X219105D01*
X219647Y-6822D01*
X220063Y-6407D01*
X220287Y-5864D01*
Y-5277D01*
X220063Y-4735D01*
X219647Y-4319D01*
X219105Y-4095D01*
D02*
G37*
G36*
X195605D02*
X195017D01*
X194475Y-4319D01*
X194059Y-4735D01*
X193835Y-5277D01*
Y-5864D01*
X194059Y-6407D01*
X194475Y-6822D01*
X195017Y-7047D01*
X195605D01*
X196147Y-6822D01*
X196563Y-6407D01*
X196787Y-5864D01*
Y-5277D01*
X196563Y-4735D01*
X196147Y-4319D01*
X195605Y-4095D01*
D02*
G37*
G36*
X172105D02*
X171517D01*
X170975Y-4319D01*
X170559Y-4735D01*
X170335Y-5277D01*
Y-5864D01*
X170559Y-6407D01*
X170975Y-6822D01*
X171517Y-7047D01*
X172105D01*
X172647Y-6822D01*
X173063Y-6407D01*
X173287Y-5864D01*
Y-5277D01*
X173063Y-4735D01*
X172647Y-4319D01*
X172105Y-4095D01*
D02*
G37*
G36*
X148605D02*
X148017D01*
X147475Y-4319D01*
X147059Y-4735D01*
X146835Y-5277D01*
Y-5864D01*
X147059Y-6407D01*
X147475Y-6822D01*
X148017Y-7047D01*
X148605D01*
X149147Y-6822D01*
X149563Y-6407D01*
X149787Y-5864D01*
Y-5277D01*
X149563Y-4735D01*
X149147Y-4319D01*
X148605Y-4095D01*
D02*
G37*
G36*
X125105D02*
X124517D01*
X123975Y-4319D01*
X123559Y-4735D01*
X123335Y-5277D01*
Y-5864D01*
X123559Y-6407D01*
X123975Y-6822D01*
X124517Y-7047D01*
X125105D01*
X125647Y-6822D01*
X126063Y-6407D01*
X126287Y-5864D01*
Y-5277D01*
X126063Y-4735D01*
X125647Y-4319D01*
X125105Y-4095D01*
D02*
G37*
G36*
X307812Y-10236D02*
X306361D01*
X304959Y-10612D01*
X303702Y-11338D01*
X302676Y-12364D01*
X301950Y-13621D01*
X301575Y-15022D01*
Y-16474D01*
X301950Y-17876D01*
X302676Y-19132D01*
X303702Y-20159D01*
X304959Y-20884D01*
X306361Y-21260D01*
X307812D01*
X309214Y-20884D01*
X310471Y-20159D01*
X311497Y-19132D01*
X312223Y-17876D01*
X312598Y-16474D01*
Y-15022D01*
X312223Y-13621D01*
X311497Y-12364D01*
X310471Y-11338D01*
X309214Y-10612D01*
X307812Y-10236D01*
D02*
G37*
G36*
X20411D02*
X18959D01*
X17558Y-10612D01*
X16301Y-11338D01*
X15274Y-12364D01*
X14549Y-13621D01*
X14173Y-15022D01*
Y-16474D01*
X14549Y-17876D01*
X15274Y-19132D01*
X16301Y-20159D01*
X17558Y-20884D01*
X18959Y-21260D01*
X20411D01*
X21813Y-20884D01*
X23069Y-20159D01*
X24096Y-19132D01*
X24821Y-17876D01*
X25197Y-16474D01*
Y-15022D01*
X24821Y-13621D01*
X24096Y-12364D01*
X23069Y-11338D01*
X21813Y-10612D01*
X20411Y-10236D01*
D02*
G37*
G36*
X11750Y-27343D02*
X11163D01*
X10620Y-27567D01*
X10433Y-27755D01*
X10246Y-27567D01*
X9703Y-27343D01*
X9116D01*
X8573Y-27567D01*
X8158Y-27983D01*
X7933Y-28525D01*
Y-29113D01*
X8158Y-29655D01*
X8345Y-29842D01*
X8158Y-30030D01*
X7933Y-30573D01*
Y-31160D01*
X8158Y-31702D01*
X8345Y-31890D01*
X8158Y-32077D01*
X7933Y-32620D01*
Y-33207D01*
X8158Y-33750D01*
X8573Y-34165D01*
X9116Y-34390D01*
X9703D01*
X10246Y-34165D01*
X10433Y-33978D01*
X10620Y-34165D01*
X11163Y-34390D01*
X11750D01*
X12293Y-34165D01*
X12708Y-33750D01*
X12933Y-33207D01*
Y-32620D01*
X12708Y-32077D01*
X12521Y-31890D01*
X12708Y-31702D01*
X12933Y-31160D01*
Y-30573D01*
X12708Y-30030D01*
X12521Y-29842D01*
X12708Y-29655D01*
X12933Y-29113D01*
Y-28525D01*
X12708Y-27983D01*
X12293Y-27567D01*
X11750Y-27343D01*
D02*
G37*
G36*
X31829Y-27343D02*
X31242D01*
X30699Y-27567D01*
X30284Y-27983D01*
X30059Y-28525D01*
Y-29113D01*
X30284Y-29655D01*
X30471Y-29842D01*
X30284Y-30030D01*
X30059Y-30573D01*
Y-31160D01*
X30284Y-31702D01*
X30471Y-31890D01*
X30284Y-32077D01*
X30059Y-32620D01*
Y-33207D01*
X30284Y-33750D01*
X30699Y-34165D01*
X31242Y-34390D01*
X31829D01*
X32372Y-34165D01*
X32559Y-33978D01*
X32746Y-34165D01*
X33289Y-34390D01*
X33876D01*
X34419Y-34165D01*
X34834Y-33750D01*
X35059Y-33207D01*
Y-32620D01*
X34834Y-32077D01*
X34647Y-31890D01*
X34834Y-31702D01*
X35059Y-31160D01*
Y-30573D01*
X34834Y-30030D01*
X34647Y-29842D01*
X34834Y-29655D01*
X35059Y-29113D01*
Y-28525D01*
X34834Y-27983D01*
X34419Y-27567D01*
X33876Y-27343D01*
X33289D01*
X32746Y-27567D01*
X32559Y-27755D01*
X32372Y-27567D01*
X31829Y-27343D01*
D02*
G37*
G36*
X296897Y-38724D02*
X296799D01*
Y-42768D01*
X300842D01*
Y-42670D01*
X300533Y-41514D01*
X299935Y-40478D01*
X299089Y-39632D01*
X298053Y-39034D01*
X296897Y-38724D01*
D02*
G37*
G36*
X295799D02*
X295701D01*
X294546Y-39034D01*
X293510Y-39632D01*
X292664Y-40478D01*
X292066Y-41514D01*
X291756Y-42670D01*
Y-42768D01*
X295799D01*
Y-38724D01*
D02*
G37*
G36*
X310433Y-39134D02*
X302165D01*
Y-47401D01*
X301786Y-47693D01*
X298720D01*
X298586Y-47193D01*
X299089Y-46903D01*
X299935Y-46057D01*
X300533Y-45021D01*
X300842Y-43866D01*
Y-43768D01*
X296299D01*
X291756D01*
Y-43866D01*
X292066Y-45021D01*
X292664Y-46057D01*
X293510Y-46903D01*
X294012Y-47193D01*
X293878Y-47693D01*
X268268D01*
X268268Y-47693D01*
X267807Y-47785D01*
X267416Y-48046D01*
X267416Y-48046D01*
X263551Y-51911D01*
X263051Y-51704D01*
Y-51439D01*
X262826Y-50896D01*
X262411Y-50481D01*
X261868Y-50256D01*
X261281D01*
X260738Y-50481D01*
X260691Y-50528D01*
X259262D01*
Y-49567D01*
X254931D01*
Y-50528D01*
X252795D01*
Y-49567D01*
X248465D01*
Y-50528D01*
X247008D01*
Y-49567D01*
X242677D01*
Y-53898D01*
X247008D01*
Y-52937D01*
X248465D01*
Y-53898D01*
X252795D01*
Y-52937D01*
X254931D01*
Y-53898D01*
X259262D01*
Y-52937D01*
X260691D01*
X260738Y-52984D01*
X261281Y-53209D01*
X261641D01*
X261881Y-53530D01*
X261950Y-53675D01*
X261867Y-54094D01*
X261867Y-54094D01*
Y-55079D01*
X260906D01*
Y-56040D01*
X259262D01*
Y-55079D01*
X254931D01*
Y-59409D01*
X259262D01*
Y-58448D01*
X260906D01*
Y-59409D01*
X265236D01*
Y-55079D01*
X264310D01*
X264290Y-54579D01*
X268766Y-50102D01*
X305433D01*
X305433Y-50102D01*
X305894Y-50010D01*
X306285Y-49749D01*
X307151Y-48883D01*
X307151Y-48883D01*
X307412Y-48492D01*
X307504Y-48031D01*
X307504Y-48031D01*
Y-47402D01*
X310433D01*
Y-39134D01*
D02*
G37*
G36*
X110433Y-47638D02*
X103347D01*
Y-56693D01*
X105284D01*
Y-57839D01*
X105004Y-58119D01*
X99370D01*
Y-57559D01*
X95039D01*
Y-61890D01*
X95501D01*
Y-63967D01*
X94950D01*
X93838Y-62855D01*
X93703Y-62799D01*
X93802Y-62299D01*
X94268D01*
Y-60224D01*
X91693D01*
X89118D01*
Y-62299D01*
X89780D01*
X89880Y-62799D01*
X89745Y-62855D01*
X89558Y-63307D01*
Y-65787D01*
Y-68386D01*
X89745Y-68838D01*
X90197Y-69025D01*
X93268D01*
X93720Y-68838D01*
X94950Y-67608D01*
X99035D01*
X99211Y-68070D01*
Y-71496D01*
X94705D01*
Y-75039D01*
X99626D01*
Y-73348D01*
X100088Y-73156D01*
X100985Y-74054D01*
X100985Y-74054D01*
X101346Y-74295D01*
X101772Y-74380D01*
X105286D01*
Y-75236D01*
X105473Y-75688D01*
X105925Y-75875D01*
X121732D01*
X122184Y-75688D01*
X122371Y-75236D01*
Y-72087D01*
X122184Y-71635D01*
X121732Y-71447D01*
X110665D01*
Y-70028D01*
X107795D01*
Y-69028D01*
X110665D01*
Y-67347D01*
X110256D01*
Y-64016D01*
X105335D01*
Y-64675D01*
X101693D01*
X101693Y-64675D01*
X101267Y-64760D01*
X100907Y-65001D01*
X100907Y-65001D01*
X100088Y-65820D01*
X99626Y-65628D01*
Y-64724D01*
X99675Y-64606D01*
X99636Y-64514D01*
X99645Y-64414D01*
X99626Y-64016D01*
X99371D01*
X99036Y-63967D01*
X98712Y-63546D01*
Y-61890D01*
X99370D01*
Y-61330D01*
X105669D01*
X105669Y-61330D01*
X106284Y-61208D01*
X106805Y-60860D01*
X108025Y-59639D01*
X108025Y-59639D01*
X108373Y-59118D01*
X108495Y-58504D01*
X108495Y-58504D01*
Y-56693D01*
X110433D01*
Y-53810D01*
X115000D01*
Y-54370D01*
X119331D01*
Y-50039D01*
X115000D01*
Y-50599D01*
X110433D01*
Y-47638D01*
D02*
G37*
G36*
X46890Y-47607D02*
X45965Y-47729D01*
X45103Y-48086D01*
X44363Y-48654D01*
X43795Y-49394D01*
X43438Y-50256D01*
X43316Y-51181D01*
Y-53150D01*
X43438Y-54075D01*
X43795Y-54936D01*
X44363Y-55677D01*
X45103Y-56245D01*
X45965Y-56602D01*
X46890Y-56723D01*
X47815Y-56602D01*
X48677Y-56245D01*
X49417Y-55677D01*
X49985Y-54936D01*
X50342Y-54075D01*
X50464Y-53150D01*
Y-51181D01*
X50342Y-50256D01*
X49985Y-49394D01*
X49417Y-48654D01*
X48677Y-48086D01*
X47815Y-47729D01*
X46890Y-47607D01*
D02*
G37*
G36*
X96890Y-47607D02*
X95965Y-47729D01*
X95103Y-48086D01*
X94363Y-48654D01*
X93795Y-49394D01*
X93438Y-50256D01*
X93316Y-51181D01*
Y-53150D01*
X93438Y-54075D01*
X93795Y-54936D01*
X94363Y-55677D01*
X95103Y-56245D01*
X95965Y-56602D01*
X96890Y-56723D01*
X97815Y-56602D01*
X98677Y-56245D01*
X99417Y-55677D01*
X99985Y-54936D01*
X100342Y-54075D01*
X100464Y-53150D01*
Y-51181D01*
X100342Y-50256D01*
X99985Y-49394D01*
X99417Y-48654D01*
X98677Y-48086D01*
X97815Y-47729D01*
X96890Y-47607D01*
D02*
G37*
G36*
X86890D02*
X85965Y-47729D01*
X85103Y-48086D01*
X84363Y-48654D01*
X83795Y-49394D01*
X83438Y-50256D01*
X83316Y-51181D01*
Y-53150D01*
X83438Y-54075D01*
X83795Y-54936D01*
X84363Y-55677D01*
X85103Y-56245D01*
X85965Y-56602D01*
X86890Y-56723D01*
X87815Y-56602D01*
X88677Y-56245D01*
X89417Y-55677D01*
X89985Y-54936D01*
X90342Y-54075D01*
X90464Y-53150D01*
Y-51181D01*
X90342Y-50256D01*
X89985Y-49394D01*
X89417Y-48654D01*
X88677Y-48086D01*
X87815Y-47729D01*
X86890Y-47607D01*
D02*
G37*
G36*
X76890D02*
X75965Y-47729D01*
X75103Y-48086D01*
X74363Y-48654D01*
X73795Y-49394D01*
X73438Y-50256D01*
X73316Y-51181D01*
Y-53150D01*
X73438Y-54075D01*
X73795Y-54936D01*
X74363Y-55677D01*
X75103Y-56245D01*
X75965Y-56602D01*
X76890Y-56723D01*
X77815Y-56602D01*
X78677Y-56245D01*
X79417Y-55677D01*
X79985Y-54936D01*
X80342Y-54075D01*
X80464Y-53150D01*
Y-51181D01*
X80342Y-50256D01*
X79985Y-49394D01*
X79417Y-48654D01*
X78677Y-48086D01*
X77815Y-47729D01*
X76890Y-47607D01*
D02*
G37*
G36*
X253205Y-54669D02*
X251130D01*
Y-56744D01*
X253205D01*
Y-54669D01*
D02*
G37*
G36*
X250130D02*
X248055D01*
Y-56744D01*
X250130D01*
Y-54669D01*
D02*
G37*
G36*
X270748Y-55079D02*
X266417D01*
Y-59409D01*
X269391D01*
X269542Y-59909D01*
X269503Y-59936D01*
X266999Y-62440D01*
X266511Y-62159D01*
X265360Y-61850D01*
X264168D01*
X263016Y-62159D01*
X261984Y-62755D01*
X261141Y-63598D01*
X260545Y-64630D01*
X260236Y-65782D01*
Y-66974D01*
X260545Y-68125D01*
X261141Y-69158D01*
X261984Y-70001D01*
X263016Y-70597D01*
X264168Y-70906D01*
X265360D01*
X265689Y-70817D01*
X266237Y-71365D01*
Y-72362D01*
X265276D01*
Y-76693D01*
X269606D01*
Y-72362D01*
X268645D01*
Y-70866D01*
X268553Y-70405D01*
X268292Y-70015D01*
X268292Y-70015D01*
X267911Y-69633D01*
X268387Y-69158D01*
X268983Y-68125D01*
X269291Y-66974D01*
Y-65782D01*
X268983Y-64630D01*
X268702Y-64143D01*
X270853Y-61992D01*
X272306D01*
X272440Y-62492D01*
X271984Y-62755D01*
X271141Y-63598D01*
X270545Y-64630D01*
X270236Y-65782D01*
Y-66974D01*
X270545Y-68125D01*
X271141Y-69158D01*
X271984Y-70001D01*
X273016Y-70597D01*
X273559Y-70743D01*
Y-73071D01*
X272598D01*
Y-77402D01*
X276929D01*
Y-76401D01*
X278425D01*
Y-77323D01*
X282756D01*
Y-72992D01*
X278425D01*
Y-73993D01*
X276929D01*
Y-73071D01*
X275968D01*
Y-70743D01*
X276511Y-70597D01*
X277544Y-70001D01*
X278387Y-69158D01*
X278983Y-68125D01*
X279291Y-66974D01*
Y-65782D01*
X278983Y-64630D01*
X278387Y-63598D01*
X277544Y-62755D01*
X277088Y-62492D01*
X277222Y-61992D01*
X284068D01*
X284898Y-62822D01*
Y-100604D01*
X282454Y-103048D01*
X281654D01*
Y-102087D01*
X277323D01*
Y-106417D01*
X281654D01*
Y-105456D01*
X282953D01*
X282953Y-105456D01*
X283414Y-105365D01*
X283804Y-105104D01*
X286954Y-101954D01*
X286954Y-101954D01*
X287215Y-101563D01*
X287307Y-101102D01*
X287307Y-101102D01*
Y-62323D01*
X287307Y-62323D01*
X287215Y-61862D01*
X286954Y-61471D01*
X286954Y-61471D01*
X285419Y-59936D01*
X285028Y-59675D01*
X284567Y-59583D01*
X284567Y-59583D01*
X271176D01*
X270748Y-59409D01*
X270748Y-59083D01*
Y-58448D01*
X272581D01*
X272628Y-58496D01*
X273171Y-58720D01*
X273758D01*
X274301Y-58496D01*
X274716Y-58080D01*
X274941Y-57538D01*
Y-56950D01*
X274716Y-56408D01*
X274301Y-55993D01*
X273758Y-55768D01*
X273171D01*
X272628Y-55993D01*
X272581Y-56040D01*
X270748D01*
Y-55079D01*
D02*
G37*
G36*
X119228Y-55831D02*
X116760D01*
Y-58791D01*
X119228D01*
Y-55831D01*
D02*
G37*
G36*
X115760D02*
X113291D01*
Y-58791D01*
X115760D01*
Y-55831D01*
D02*
G37*
G36*
X94268Y-57150D02*
X92193D01*
Y-59224D01*
X94268D01*
Y-57150D01*
D02*
G37*
G36*
X91193D02*
X89118D01*
Y-59224D01*
X91193D01*
Y-57150D01*
D02*
G37*
G36*
X253205Y-57744D02*
X251130D01*
Y-59819D01*
X253205D01*
Y-57744D01*
D02*
G37*
G36*
X250130D02*
X248055D01*
Y-59819D01*
X250130D01*
Y-57744D01*
D02*
G37*
G36*
X234780Y-57937D02*
X232705D01*
Y-60012D01*
X234780D01*
Y-57937D01*
D02*
G37*
G36*
X231705D02*
X229630D01*
Y-60012D01*
X231705D01*
Y-57937D01*
D02*
G37*
G36*
X124843Y-50039D02*
X120512D01*
Y-54370D01*
X121473D01*
Y-54961D01*
X121473Y-54961D01*
X121565Y-55422D01*
X121777Y-55740D01*
X121635Y-56240D01*
X121575D01*
Y-62343D01*
X126693D01*
Y-56240D01*
X125240D01*
X125168Y-55878D01*
X124907Y-55487D01*
X124907Y-55487D01*
X124290Y-54870D01*
X124497Y-54370D01*
X124843D01*
Y-50039D01*
D02*
G37*
G36*
X119228Y-59791D02*
X116760D01*
Y-62752D01*
X119228D01*
Y-59791D01*
D02*
G37*
G36*
X115760D02*
X113291D01*
Y-62752D01*
X115760D01*
Y-59791D01*
D02*
G37*
G36*
X234780Y-61012D02*
X232705D01*
Y-63087D01*
X234780D01*
Y-61012D01*
D02*
G37*
G36*
X231705D02*
X229630D01*
Y-63087D01*
X231705D01*
Y-61012D01*
D02*
G37*
G36*
X116354Y-65575D02*
X114279D01*
Y-67650D01*
X116354D01*
Y-65575D01*
D02*
G37*
G36*
X113279D02*
X111205D01*
Y-67650D01*
X113279D01*
Y-65575D01*
D02*
G37*
G36*
X169488Y-64114D02*
X169390D01*
Y-68158D01*
X173433D01*
Y-68059D01*
X173124Y-66904D01*
X172525Y-65868D01*
X171679Y-65022D01*
X170643Y-64424D01*
X169488Y-64114D01*
D02*
G37*
G36*
X168390D02*
X168292D01*
X167136Y-64424D01*
X166100Y-65022D01*
X165254Y-65868D01*
X164656Y-66904D01*
X164347Y-68059D01*
Y-68158D01*
X168390D01*
Y-64114D01*
D02*
G37*
G36*
X219019Y-64154D02*
X218921D01*
Y-68197D01*
X222965D01*
Y-68099D01*
X222655Y-66943D01*
X222057Y-65907D01*
X221211Y-65061D01*
X220175Y-64463D01*
X219019Y-64154D01*
D02*
G37*
G36*
X217921D02*
X217823D01*
X216668Y-64463D01*
X215632Y-65061D01*
X214786Y-65907D01*
X214188Y-66943D01*
X213878Y-68099D01*
Y-68197D01*
X217921D01*
Y-64154D01*
D02*
G37*
G36*
X32374Y-68232D02*
X28724D01*
Y-70232D01*
X29724Y-69232D01*
X32374D01*
Y-68232D01*
D02*
G37*
G36*
X116354Y-68650D02*
X114279D01*
Y-70724D01*
X116354D01*
Y-68650D01*
D02*
G37*
G36*
X113279D02*
X111205D01*
Y-70724D01*
X113279D01*
Y-68650D01*
D02*
G37*
G36*
X37024Y-68232D02*
X33374D01*
Y-69232D01*
X36024D01*
Y-70897D01*
X37024D01*
Y-68232D01*
D02*
G37*
G36*
X228366Y-52786D02*
X224626D01*
X224174Y-52973D01*
X223987Y-53425D01*
Y-67638D01*
X223643Y-68016D01*
X223626D01*
Y-69697D01*
X226496D01*
Y-70697D01*
X223626D01*
Y-72378D01*
X224035D01*
Y-75709D01*
X228957D01*
Y-75049D01*
X232598D01*
X232598Y-75049D01*
X233024Y-74964D01*
X233385Y-74723D01*
X234015Y-74093D01*
X234015Y-74093D01*
X234165Y-73868D01*
X234665Y-74019D01*
Y-75709D01*
X235882D01*
Y-77835D01*
X234921D01*
Y-78796D01*
X233207D01*
X233159Y-78748D01*
X232616Y-78524D01*
X232029D01*
X231487Y-78748D01*
X231071Y-79164D01*
X230847Y-79706D01*
Y-80294D01*
X231071Y-80836D01*
X231487Y-81252D01*
X232029Y-81476D01*
X232616D01*
X233159Y-81252D01*
X233207Y-81204D01*
X234921D01*
Y-82165D01*
X239252D01*
Y-77835D01*
X238291D01*
Y-75709D01*
X239587D01*
Y-72165D01*
X239086D01*
X238870Y-71680D01*
X239088Y-71401D01*
X240509D01*
X240509Y-71401D01*
X240970Y-71309D01*
X241361Y-71048D01*
X242253Y-70156D01*
X243016Y-70597D01*
X244168Y-70906D01*
X245360D01*
X246511Y-70597D01*
X247544Y-70001D01*
X248387Y-69158D01*
X248983Y-68125D01*
X249291Y-66974D01*
Y-65782D01*
X248983Y-64630D01*
X248387Y-63598D01*
X247544Y-62755D01*
X246511Y-62159D01*
X245968Y-62013D01*
Y-59409D01*
X247008D01*
Y-55079D01*
X242677D01*
Y-59409D01*
X243560D01*
Y-62013D01*
X243016Y-62159D01*
X241984Y-62755D01*
X241141Y-63598D01*
X240545Y-64630D01*
X240236Y-65782D01*
Y-66974D01*
X240545Y-68125D01*
X240667Y-68337D01*
X240011Y-68993D01*
X238465D01*
X238004Y-69084D01*
X237613Y-69345D01*
X237613Y-69345D01*
X236274Y-70684D01*
X236013Y-71075D01*
X235922Y-71535D01*
X235922Y-71535D01*
Y-71812D01*
X235568Y-72165D01*
X234665Y-72165D01*
X234340Y-71800D01*
Y-68594D01*
X234665Y-68228D01*
X234840Y-68228D01*
X239587D01*
Y-64685D01*
X234665D01*
Y-66807D01*
X234165Y-66959D01*
X234015Y-66733D01*
X232952Y-65670D01*
X232591Y-65429D01*
X232165Y-65345D01*
X232165Y-65345D01*
X229005Y-65345D01*
Y-53425D01*
X228818Y-52973D01*
X228366Y-52786D01*
D02*
G37*
G36*
X173433Y-69157D02*
X169390D01*
Y-73201D01*
X169488D01*
X170643Y-72891D01*
X171679Y-72293D01*
X172525Y-71447D01*
X173124Y-70411D01*
X173433Y-69256D01*
Y-69157D01*
D02*
G37*
G36*
X168390D02*
X164347D01*
Y-69256D01*
X164656Y-70411D01*
X165254Y-71447D01*
X166100Y-72293D01*
X167136Y-72891D01*
X168292Y-73201D01*
X168390D01*
Y-69157D01*
D02*
G37*
G36*
X222965Y-69197D02*
X218921D01*
Y-73240D01*
X219019D01*
X220175Y-72931D01*
X221211Y-72332D01*
X222057Y-71487D01*
X222655Y-70451D01*
X222965Y-69295D01*
Y-69197D01*
D02*
G37*
G36*
X217921D02*
X213878D01*
Y-69295D01*
X214188Y-70451D01*
X214786Y-71487D01*
X215632Y-72332D01*
X216668Y-72931D01*
X217823Y-73240D01*
X217921D01*
Y-69197D01*
D02*
G37*
G36*
X37024Y-71897D02*
X36024D01*
Y-73563D01*
X35024Y-74563D01*
X37024D01*
Y-71897D01*
D02*
G37*
G36*
X255360Y-61850D02*
X254168D01*
X253016Y-62159D01*
X251984Y-62755D01*
X251141Y-63598D01*
X250545Y-64630D01*
X250236Y-65782D01*
Y-66974D01*
X250545Y-68125D01*
X251141Y-69158D01*
X251984Y-70001D01*
X253016Y-70597D01*
X253559Y-70743D01*
Y-71929D01*
X251969D01*
Y-76260D01*
X257874D01*
Y-71929D01*
X255968D01*
Y-70743D01*
X256511Y-70597D01*
X257544Y-70001D01*
X258387Y-69158D01*
X258983Y-68125D01*
X259291Y-66974D01*
Y-65782D01*
X258983Y-64630D01*
X258387Y-63598D01*
X257544Y-62755D01*
X256511Y-62159D01*
X255360Y-61850D01*
D02*
G37*
G36*
X245173Y-77425D02*
X243098D01*
Y-79500D01*
X245173D01*
Y-77425D01*
D02*
G37*
G36*
X242098D02*
X240024D01*
Y-79500D01*
X242098D01*
Y-77425D01*
D02*
G37*
G36*
X283165Y-78095D02*
X281090D01*
Y-80169D01*
X283165D01*
Y-78095D01*
D02*
G37*
G36*
X280090D02*
X278016D01*
Y-80169D01*
X280090D01*
Y-78095D01*
D02*
G37*
G36*
X270016Y-78291D02*
X267941D01*
Y-80366D01*
X270016D01*
Y-78291D01*
D02*
G37*
G36*
X266941D02*
X264866D01*
Y-80366D01*
X266941D01*
Y-78291D01*
D02*
G37*
G36*
X156669Y-76910D02*
X154004D01*
Y-80559D01*
X156669D01*
Y-76910D01*
D02*
G37*
G36*
X153004D02*
X150339D01*
Y-80559D01*
X153004D01*
Y-76910D01*
D02*
G37*
G36*
X206201Y-76949D02*
X203535D01*
Y-80598D01*
X206201D01*
Y-76949D01*
D02*
G37*
G36*
X202535D02*
X199870D01*
Y-80598D01*
X202535D01*
Y-76949D01*
D02*
G37*
G36*
X107390Y-77260D02*
Y-81665D01*
X110877D01*
Y-81181D01*
X110741Y-80149D01*
X110343Y-79188D01*
X109709Y-78362D01*
X108883Y-77728D01*
X107922Y-77330D01*
X107390Y-77260D01*
D02*
G37*
G36*
X106390Y-77260D02*
X105858Y-77330D01*
X104896Y-77728D01*
X104071Y-78362D01*
X103437Y-79188D01*
X103039Y-80149D01*
X102903Y-81181D01*
Y-81665D01*
X106390D01*
Y-77260D01*
D02*
G37*
G36*
X245173Y-80500D02*
X243098D01*
Y-82575D01*
X245173D01*
Y-80500D01*
D02*
G37*
G36*
X242098D02*
X240024D01*
Y-82575D01*
X242098D01*
Y-80500D01*
D02*
G37*
G36*
X283165Y-81169D02*
X281090D01*
Y-83244D01*
X283165D01*
Y-81169D01*
D02*
G37*
G36*
X280090D02*
X278016D01*
Y-83244D01*
X280090D01*
Y-81169D01*
D02*
G37*
G36*
X270016Y-81366D02*
X267941D01*
Y-83441D01*
X270016D01*
Y-81366D01*
D02*
G37*
G36*
X266941D02*
X264866D01*
Y-83441D01*
X266941D01*
Y-81366D01*
D02*
G37*
G36*
X120603Y-38886D02*
X120602Y-38886D01*
X77980D01*
X77519Y-38978D01*
X77129Y-39239D01*
X77129Y-39239D01*
X68397Y-47970D01*
X67815Y-47729D01*
X66890Y-47607D01*
X65965Y-47729D01*
X65103Y-48086D01*
X64363Y-48654D01*
X63795Y-49394D01*
X63438Y-50256D01*
X63316Y-51181D01*
Y-53150D01*
X63438Y-54075D01*
X63795Y-54936D01*
X64363Y-55677D01*
X65103Y-56245D01*
X65965Y-56602D01*
X66890Y-56723D01*
X67815Y-56602D01*
X68677Y-56245D01*
X69417Y-55677D01*
X69985Y-54936D01*
X70342Y-54075D01*
X70464Y-53150D01*
Y-51181D01*
X70342Y-50256D01*
X70100Y-49673D01*
X78479Y-41295D01*
X120104D01*
X128315Y-49507D01*
Y-64701D01*
X127924Y-64805D01*
X126981Y-65350D01*
X126212Y-66119D01*
X125668Y-67062D01*
X125386Y-68113D01*
Y-69202D01*
X125668Y-70253D01*
X126212Y-71196D01*
X126981Y-71965D01*
X127924Y-72510D01*
X128276Y-72604D01*
Y-77091D01*
X127845Y-77207D01*
X126903Y-77751D01*
X126133Y-78521D01*
X125589Y-79463D01*
X125307Y-80515D01*
Y-81603D01*
X125589Y-82655D01*
X126133Y-83597D01*
X126903Y-84367D01*
X127845Y-84911D01*
X128897Y-85193D01*
X129985D01*
X131037Y-84911D01*
X131979Y-84367D01*
X132749Y-83597D01*
X133293Y-82655D01*
X133398Y-82263D01*
X137362D01*
Y-84799D01*
X142874D01*
Y-77319D01*
X137362D01*
Y-79855D01*
X133398D01*
X133293Y-79463D01*
X132749Y-78521D01*
X131979Y-77751D01*
X131037Y-77207D01*
X130685Y-77113D01*
Y-72625D01*
X131115Y-72510D01*
X132058Y-71965D01*
X132828Y-71196D01*
X133372Y-70253D01*
X133653Y-69202D01*
Y-68113D01*
X133372Y-67062D01*
X132828Y-66119D01*
X132058Y-65350D01*
X131115Y-64805D01*
X130724Y-64701D01*
Y-49008D01*
X130632Y-48547D01*
X130371Y-48156D01*
X121454Y-39239D01*
X121063Y-38978D01*
X120603Y-38886D01*
D02*
G37*
G36*
X157008Y-31788D02*
X157008Y-31788D01*
X75079D01*
X74618Y-31880D01*
X74227Y-32141D01*
X74227Y-32141D01*
X58397Y-47970D01*
X57815Y-47729D01*
X56890Y-47607D01*
X55965Y-47729D01*
X55103Y-48086D01*
X54363Y-48654D01*
X53795Y-49394D01*
X53438Y-50256D01*
X53316Y-51181D01*
Y-53150D01*
X53438Y-54075D01*
X53795Y-54936D01*
X54363Y-55677D01*
X55103Y-56245D01*
X55965Y-56602D01*
X56890Y-56723D01*
X57815Y-56602D01*
X58677Y-56245D01*
X59417Y-55677D01*
X59985Y-54936D01*
X60342Y-54075D01*
X60464Y-53150D01*
Y-51181D01*
X60342Y-50256D01*
X60101Y-49673D01*
X75577Y-34196D01*
X156509D01*
X177847Y-55534D01*
Y-64740D01*
X177456Y-64845D01*
X176513Y-65389D01*
X175743Y-66159D01*
X175199Y-67101D01*
X174917Y-68153D01*
Y-69241D01*
X175199Y-70293D01*
X175743Y-71235D01*
X176513Y-72005D01*
X177456Y-72549D01*
X177847Y-72654D01*
Y-77091D01*
X177416Y-77207D01*
X176474Y-77751D01*
X175704Y-78521D01*
X175160Y-79463D01*
X174878Y-80515D01*
Y-81603D01*
X175160Y-82655D01*
X175704Y-83597D01*
X176474Y-84367D01*
X177416Y-84911D01*
X178468Y-85193D01*
X179556D01*
X180607Y-84911D01*
X181550Y-84367D01*
X182320Y-83597D01*
X182864Y-82655D01*
X182958Y-82303D01*
X186894D01*
Y-84839D01*
X192405D01*
Y-77358D01*
X186894D01*
Y-79894D01*
X182979D01*
X182864Y-79463D01*
X182320Y-78521D01*
X181550Y-77751D01*
X180607Y-77207D01*
X180255Y-77113D01*
Y-72654D01*
X180647Y-72549D01*
X181589Y-72005D01*
X182359Y-71235D01*
X182903Y-70293D01*
X183185Y-69241D01*
Y-68153D01*
X182903Y-67101D01*
X182359Y-66159D01*
X181589Y-65389D01*
X180647Y-64845D01*
X180255Y-64740D01*
Y-55036D01*
X180255Y-55036D01*
X180164Y-54575D01*
X179903Y-54184D01*
X179903Y-54184D01*
X157859Y-32141D01*
X157469Y-31880D01*
X157008Y-31788D01*
D02*
G37*
G36*
X156669Y-81559D02*
X154004D01*
Y-85209D01*
X156669D01*
Y-81559D01*
D02*
G37*
G36*
X153004D02*
X150339D01*
Y-85209D01*
X153004D01*
Y-81559D01*
D02*
G37*
G36*
X206201Y-81599D02*
X203535D01*
Y-85248D01*
X206201D01*
Y-81599D01*
D02*
G37*
G36*
X202535D02*
X199870D01*
Y-85248D01*
X202535D01*
Y-81599D01*
D02*
G37*
G36*
X276929Y-78583D02*
X272598D01*
Y-82913D01*
X273559D01*
Y-84353D01*
X273512Y-84400D01*
X273287Y-84943D01*
Y-85530D01*
X273512Y-86072D01*
X273927Y-86488D01*
X274470Y-86713D01*
X275058D01*
X275600Y-86488D01*
X276015Y-86072D01*
X276240Y-85530D01*
Y-84943D01*
X276015Y-84400D01*
X275968Y-84353D01*
Y-82913D01*
X276929D01*
Y-78583D01*
D02*
G37*
G36*
X96890Y-77607D02*
X95965Y-77729D01*
X95103Y-78086D01*
X94363Y-78654D01*
X93795Y-79394D01*
X93438Y-80256D01*
X93316Y-81181D01*
Y-83150D01*
X93438Y-84075D01*
X93795Y-84936D01*
X94363Y-85677D01*
X95103Y-86245D01*
X95965Y-86602D01*
X96890Y-86724D01*
X97815Y-86602D01*
X98677Y-86245D01*
X99417Y-85677D01*
X99985Y-84936D01*
X100342Y-84075D01*
X100464Y-83150D01*
Y-81181D01*
X100342Y-80256D01*
X99985Y-79394D01*
X99417Y-78654D01*
X98677Y-78086D01*
X97815Y-77729D01*
X96890Y-77607D01*
D02*
G37*
G36*
X29073Y-52500D02*
X28486D01*
X27943Y-52725D01*
X27528Y-53140D01*
X27303Y-53683D01*
Y-54270D01*
X27528Y-54813D01*
X27943Y-55228D01*
X28486Y-55453D01*
X28553D01*
X34109Y-61009D01*
X34109Y-61009D01*
X34500Y-61270D01*
X34961Y-61362D01*
X34961Y-61362D01*
X55367D01*
X73679Y-79673D01*
X73438Y-80256D01*
X73316Y-81181D01*
Y-83150D01*
X73438Y-84075D01*
X73795Y-84936D01*
X74363Y-85677D01*
X75103Y-86245D01*
X75965Y-86602D01*
X76890Y-86724D01*
X77815Y-86602D01*
X78677Y-86245D01*
X79417Y-85677D01*
X79985Y-84936D01*
X80342Y-84075D01*
X80464Y-83150D01*
Y-81181D01*
X80342Y-80256D01*
X79985Y-79394D01*
X79417Y-78654D01*
X78677Y-78086D01*
X77815Y-77729D01*
X76890Y-77607D01*
X75965Y-77729D01*
X75382Y-77970D01*
X56718Y-59306D01*
X56327Y-59045D01*
X55866Y-58953D01*
X55866Y-58953D01*
X35459D01*
X30256Y-53750D01*
Y-53683D01*
X30031Y-53140D01*
X29616Y-52725D01*
X29073Y-52500D01*
D02*
G37*
G36*
X264094Y-72362D02*
X259764D01*
Y-76693D01*
X260725D01*
Y-78701D01*
X259764D01*
Y-83031D01*
X260725D01*
Y-85787D01*
X259764D01*
Y-86748D01*
X257047D01*
Y-85787D01*
X256086D01*
Y-85118D01*
X257874D01*
Y-80787D01*
X251969D01*
Y-85118D01*
X253678D01*
Y-85787D01*
X252716D01*
Y-90118D01*
X257047D01*
Y-89157D01*
X259764D01*
Y-90118D01*
X264094D01*
Y-85787D01*
X263133D01*
Y-83031D01*
X264094D01*
Y-78701D01*
X263133D01*
Y-76693D01*
X264094D01*
Y-72362D01*
D02*
G37*
G36*
X110877Y-82665D02*
X107390D01*
Y-87071D01*
X107922Y-87001D01*
X108883Y-86602D01*
X109709Y-85969D01*
X110343Y-85143D01*
X110741Y-84181D01*
X110877Y-83150D01*
Y-82665D01*
D02*
G37*
G36*
X106390D02*
X102903D01*
Y-83150D01*
X103039Y-84181D01*
X103437Y-85143D01*
X104071Y-85969D01*
X104896Y-86602D01*
X105858Y-87001D01*
X106390Y-87071D01*
Y-82665D01*
D02*
G37*
G36*
X270016Y-85378D02*
X267941D01*
Y-87453D01*
X270016D01*
Y-85378D01*
D02*
G37*
G36*
X266941D02*
X264866D01*
Y-87453D01*
X266941D01*
Y-85378D01*
D02*
G37*
G36*
X226987Y-80571D02*
X226399D01*
X225857Y-80796D01*
X225441Y-81211D01*
X225217Y-81753D01*
Y-82341D01*
X225441Y-82884D01*
X225489Y-82931D01*
Y-84646D01*
X224528D01*
Y-88976D01*
X228858D01*
Y-84646D01*
X227897D01*
Y-82931D01*
X227944Y-82884D01*
X228169Y-82341D01*
Y-81753D01*
X227944Y-81211D01*
X227529Y-80796D01*
X226987Y-80571D01*
D02*
G37*
G36*
X61260Y-75331D02*
X61260Y-75331D01*
X45110D01*
X44649Y-75423D01*
X44259Y-75684D01*
X44259Y-75684D01*
X38519Y-81424D01*
X38258Y-81815D01*
X38166Y-82276D01*
X38166Y-82276D01*
Y-97926D01*
X33753Y-102339D01*
X29742D01*
X29695Y-102292D01*
X29152Y-102067D01*
X28565D01*
X28022Y-102292D01*
X27975Y-102339D01*
X27165D01*
Y-101083D01*
X22047D01*
Y-106004D01*
X23402D01*
Y-106496D01*
X23402Y-106496D01*
X23494Y-106957D01*
X23755Y-107348D01*
X23942Y-107535D01*
X23751Y-107997D01*
X23681D01*
Y-113903D01*
X28012D01*
Y-107997D01*
X26823D01*
Y-107508D01*
X26823Y-107508D01*
X26731Y-107047D01*
X26470Y-106656D01*
X26470Y-106656D01*
X26279Y-106466D01*
X26471Y-106004D01*
X27165D01*
Y-104747D01*
X27975D01*
X28022Y-104795D01*
X28565Y-105020D01*
X29152D01*
X29695Y-104795D01*
X29742Y-104747D01*
X34252D01*
X34252Y-104748D01*
X34713Y-104656D01*
X35103Y-104395D01*
X40222Y-99277D01*
X40483Y-98886D01*
X40574Y-98425D01*
Y-82774D01*
X42909Y-80440D01*
X43383Y-80673D01*
X43316Y-81181D01*
Y-83150D01*
X43438Y-84075D01*
X43795Y-84936D01*
X44363Y-85677D01*
X45103Y-86245D01*
X45965Y-86602D01*
X46890Y-86724D01*
X47815Y-86602D01*
X48677Y-86245D01*
X49417Y-85677D01*
X49985Y-84936D01*
X50342Y-84075D01*
X50464Y-83150D01*
Y-81181D01*
X50342Y-80256D01*
X49985Y-79394D01*
X49417Y-78654D01*
X48877Y-78240D01*
X49047Y-77740D01*
X54733D01*
X54903Y-78240D01*
X54363Y-78654D01*
X53795Y-79394D01*
X53438Y-80256D01*
X53316Y-81181D01*
Y-83150D01*
X53438Y-84075D01*
X53795Y-84936D01*
X54363Y-85677D01*
X55103Y-86245D01*
X55686Y-86486D01*
Y-94528D01*
X55686Y-94528D01*
X55777Y-94988D01*
X56038Y-95379D01*
X63440Y-102781D01*
X63440Y-102781D01*
X63831Y-103042D01*
X64291Y-103133D01*
X90862D01*
X90984Y-103583D01*
X90984Y-103633D01*
Y-110669D01*
X100039D01*
Y-103583D01*
X100029D01*
X99979Y-103083D01*
X100185Y-103042D01*
X100576Y-102781D01*
X103020Y-100337D01*
X103603Y-100578D01*
X104527Y-100700D01*
X106496D01*
X107421Y-100578D01*
X108283Y-100221D01*
X109023Y-99653D01*
X109591Y-98913D01*
X109948Y-98051D01*
X110070Y-97126D01*
X109948Y-96201D01*
X109591Y-95339D01*
X109023Y-94599D01*
X108283Y-94031D01*
X107989Y-93909D01*
X108088Y-93409D01*
X112936D01*
X113035Y-93909D01*
X112741Y-94031D01*
X112000Y-94599D01*
X111433Y-95339D01*
X111075Y-96201D01*
X110954Y-97126D01*
X111075Y-98051D01*
X111433Y-98913D01*
X112000Y-99653D01*
X112741Y-100221D01*
X113603Y-100578D01*
X114527Y-100700D01*
X116496D01*
X117421Y-100578D01*
X118283Y-100221D01*
X119023Y-99653D01*
X119591Y-98913D01*
X119948Y-98051D01*
X120070Y-97126D01*
X119948Y-96201D01*
X119591Y-95339D01*
X119023Y-94599D01*
X118283Y-94031D01*
X117989Y-93909D01*
X118088Y-93409D01*
X120879D01*
X131511Y-104041D01*
X131511Y-104041D01*
X131901Y-104302D01*
X132362Y-104393D01*
X132362Y-104393D01*
X233504D01*
X233504Y-104393D01*
X233965Y-104302D01*
X234355Y-104041D01*
X238332Y-100064D01*
X238332Y-100064D01*
X238593Y-99673D01*
X238685Y-99213D01*
X238685Y-99212D01*
Y-93215D01*
X239736Y-92164D01*
X240236Y-92371D01*
Y-100906D01*
X241906D01*
Y-102087D01*
X240945D01*
Y-106417D01*
X241906D01*
Y-107935D01*
X241859Y-107983D01*
X241634Y-108525D01*
Y-109113D01*
X241859Y-109655D01*
X242274Y-110071D01*
X242817Y-110295D01*
X243404D01*
X243947Y-110071D01*
X244362Y-109655D01*
X244587Y-109113D01*
Y-108525D01*
X244362Y-107983D01*
X244315Y-107935D01*
Y-106417D01*
X245276D01*
Y-102087D01*
X244315D01*
Y-100906D01*
X249291D01*
Y-91850D01*
X240757D01*
X240549Y-91350D01*
X242743Y-89157D01*
X247205D01*
Y-90118D01*
X251535D01*
Y-85787D01*
X247205D01*
Y-86748D01*
X242244D01*
X242244Y-86748D01*
X241783Y-86840D01*
X241393Y-87101D01*
X241392Y-87101D01*
X236629Y-91865D01*
X236368Y-92256D01*
X236276Y-92716D01*
X236276Y-92717D01*
Y-98714D01*
X233005Y-101985D01*
X132861D01*
X122230Y-91353D01*
X121839Y-91092D01*
X121378Y-91000D01*
X121378Y-91000D01*
X89633D01*
X88094Y-89462D01*
Y-86486D01*
X88677Y-86245D01*
X89417Y-85677D01*
X89985Y-84936D01*
X90342Y-84075D01*
X90464Y-83150D01*
Y-81181D01*
X90342Y-80256D01*
X89985Y-79394D01*
X89417Y-78654D01*
X88677Y-78086D01*
X87815Y-77729D01*
X86890Y-77607D01*
X85965Y-77729D01*
X85103Y-78086D01*
X84363Y-78654D01*
X83795Y-79394D01*
X83438Y-80256D01*
X83316Y-81181D01*
Y-83150D01*
X83438Y-84075D01*
X83795Y-84936D01*
X84363Y-85677D01*
X85103Y-86245D01*
X85685Y-86486D01*
Y-89961D01*
X85685Y-89961D01*
X85777Y-90421D01*
X86038Y-90812D01*
X88282Y-93056D01*
X88282Y-93056D01*
X88673Y-93317D01*
X89134Y-93409D01*
X89134Y-93409D01*
X92936D01*
X93035Y-93909D01*
X92741Y-94031D01*
X92000Y-94599D01*
X91432Y-95339D01*
X91075Y-96201D01*
X90954Y-97126D01*
X91075Y-98051D01*
X91432Y-98913D01*
X92000Y-99653D01*
X92741Y-100221D01*
X92750Y-100225D01*
X92650Y-100725D01*
X64790D01*
X58094Y-94029D01*
Y-86486D01*
X58677Y-86245D01*
X59417Y-85677D01*
X59985Y-84936D01*
X60342Y-84075D01*
X60464Y-83150D01*
Y-81181D01*
X60342Y-80256D01*
X59985Y-79394D01*
X59417Y-78654D01*
X58877Y-78240D01*
X59047Y-77740D01*
X60761D01*
X63419Y-80398D01*
X63316Y-81181D01*
Y-83150D01*
X63438Y-84075D01*
X63795Y-84936D01*
X64363Y-85677D01*
X65103Y-86245D01*
X65965Y-86602D01*
X66890Y-86724D01*
X67815Y-86602D01*
X68677Y-86245D01*
X69417Y-85677D01*
X69985Y-84936D01*
X70342Y-84075D01*
X70464Y-83150D01*
Y-81181D01*
X70342Y-80256D01*
X69985Y-79394D01*
X69417Y-78654D01*
X68677Y-78086D01*
X67815Y-77729D01*
X66890Y-77607D01*
X65965Y-77729D01*
X65103Y-78086D01*
X64769Y-78342D01*
X62111Y-75684D01*
X61721Y-75423D01*
X61260Y-75331D01*
D02*
G37*
G36*
X270016Y-88453D02*
X267941D01*
Y-90527D01*
X270016D01*
Y-88453D01*
D02*
G37*
G36*
X266941D02*
X264866D01*
Y-90527D01*
X266941D01*
Y-88453D01*
D02*
G37*
G36*
X218926Y-76925D02*
X217838D01*
X216786Y-77207D01*
X215844Y-77751D01*
X215074Y-78521D01*
X214530Y-79463D01*
X214248Y-80515D01*
Y-81603D01*
X214530Y-82655D01*
X215074Y-83597D01*
X215844Y-84367D01*
X216786Y-84911D01*
X217178Y-85016D01*
Y-89891D01*
X216111Y-90957D01*
X214854D01*
X214809Y-90788D01*
X214340Y-89976D01*
X213677Y-89314D01*
X212866Y-88845D01*
X211961Y-88602D01*
X211024D01*
X210118Y-88845D01*
X209307Y-89314D01*
X208644Y-89976D01*
X208176Y-90788D01*
X208130Y-90957D01*
X189461D01*
Y-88602D01*
X182343D01*
Y-95720D01*
X189461D01*
Y-93366D01*
X208130D01*
X208176Y-93535D01*
X208644Y-94347D01*
X209307Y-95009D01*
X210118Y-95478D01*
X211024Y-95720D01*
X211961D01*
X212866Y-95478D01*
X213677Y-95009D01*
X214340Y-94347D01*
X214809Y-93535D01*
X214854Y-93366D01*
X216610D01*
X216610Y-93366D01*
X217071Y-93274D01*
X217462Y-93013D01*
X219233Y-91241D01*
X219495Y-90851D01*
X219586Y-90390D01*
Y-85016D01*
X219977Y-84911D01*
X220920Y-84367D01*
X221690Y-83597D01*
X222234Y-82655D01*
X222516Y-81603D01*
Y-80515D01*
X222234Y-79463D01*
X221690Y-78521D01*
X220920Y-77751D01*
X219977Y-77207D01*
X218926Y-76925D01*
D02*
G37*
G36*
X169355D02*
X168267D01*
X167215Y-77207D01*
X166273Y-77751D01*
X165503Y-78521D01*
X164959Y-79463D01*
X164677Y-80515D01*
Y-81603D01*
X164959Y-82655D01*
X165503Y-83597D01*
X166273Y-84367D01*
X167215Y-84911D01*
X167607Y-85016D01*
Y-89891D01*
X166541Y-90957D01*
X165283D01*
X165238Y-90788D01*
X164769Y-89976D01*
X164107Y-89314D01*
X163295Y-88845D01*
X162390Y-88602D01*
X161453D01*
X160547Y-88845D01*
X159736Y-89314D01*
X159073Y-89976D01*
X158605Y-90788D01*
X158559Y-90957D01*
X139890D01*
Y-88602D01*
X132772D01*
Y-95720D01*
X139890D01*
Y-93366D01*
X158559D01*
X158605Y-93535D01*
X159073Y-94347D01*
X159736Y-95009D01*
X160547Y-95478D01*
X161453Y-95720D01*
X162390D01*
X163295Y-95478D01*
X164107Y-95009D01*
X164769Y-94347D01*
X165238Y-93535D01*
X165283Y-93366D01*
X167039D01*
X167039Y-93366D01*
X167500Y-93274D01*
X167891Y-93013D01*
X169663Y-91241D01*
X169924Y-90851D01*
X170015Y-90390D01*
Y-85016D01*
X170407Y-84911D01*
X171349Y-84367D01*
X172119Y-83597D01*
X172663Y-82655D01*
X172945Y-81603D01*
Y-80515D01*
X172663Y-79463D01*
X172119Y-78521D01*
X171349Y-77751D01*
X170407Y-77207D01*
X169355Y-76925D01*
D02*
G37*
G36*
X14921Y-58042D02*
X4567D01*
X4115Y-58229D01*
X3928Y-58681D01*
Y-82598D01*
X4115Y-83050D01*
X4567Y-83238D01*
X12865D01*
X13072Y-83738D01*
X12882Y-83928D01*
X12657Y-84470D01*
Y-85057D01*
X12882Y-85600D01*
X13298Y-86015D01*
X13840Y-86240D01*
X14427D01*
X14658Y-86145D01*
X15157Y-86479D01*
Y-90669D01*
X16605D01*
X16605Y-92598D01*
X15197D01*
Y-97519D01*
X20315D01*
Y-92598D01*
X18828D01*
X18828Y-90669D01*
X20276D01*
Y-85748D01*
X19765D01*
X19574Y-85286D01*
X20398Y-84462D01*
X20768D01*
X21034Y-84409D01*
X22658D01*
X22904Y-84807D01*
Y-85748D01*
X21457D01*
Y-90669D01*
X26575D01*
Y-85748D01*
X25128D01*
Y-84920D01*
X25256Y-84458D01*
X26290Y-84458D01*
X29085Y-87253D01*
Y-92264D01*
X29272Y-92716D01*
X29724Y-92903D01*
X36024D01*
X36476Y-92716D01*
X36663Y-92264D01*
Y-82618D01*
X36663Y-82618D01*
Y-82598D01*
X36614Y-82481D01*
Y-82027D01*
X36189D01*
X36024Y-81959D01*
X28828D01*
X28366Y-81850D01*
Y-80882D01*
X28854D01*
Y-79882D01*
X25256D01*
Y-78661D01*
X26672Y-77245D01*
X26654Y-77199D01*
X27291Y-76562D01*
X27326Y-76476D01*
X27402D01*
Y-76295D01*
X27441Y-76200D01*
Y-58681D01*
X27402Y-58587D01*
Y-58208D01*
X27023D01*
X26929Y-58170D01*
X21035Y-58170D01*
X21024Y-58169D01*
X20551Y-58208D01*
Y-58236D01*
X20551Y-58236D01*
Y-58236D01*
X20527Y-58509D01*
X20512Y-58681D01*
X20512Y-58703D01*
Y-76467D01*
X20512Y-76467D01*
X18749D01*
X15561Y-73278D01*
Y-58681D01*
X15512Y-58563D01*
Y-58090D01*
X15039D01*
X14921Y-58042D01*
D02*
G37*
G36*
X14268Y-90654D02*
X10618D01*
Y-93319D01*
X14268D01*
Y-90654D01*
D02*
G37*
G36*
X9618D02*
X5968D01*
Y-93319D01*
X9618D01*
Y-90654D01*
D02*
G37*
G36*
X227299Y-90870D02*
X224831D01*
Y-93831D01*
X227299D01*
Y-90870D01*
D02*
G37*
G36*
X223831D02*
X221362D01*
Y-93831D01*
X223831D01*
Y-90870D01*
D02*
G37*
G36*
X27024Y-92189D02*
X24555D01*
Y-94559D01*
X27024D01*
Y-92189D01*
D02*
G37*
G36*
X23555D02*
X21087D01*
Y-94559D01*
X23555D01*
Y-92189D01*
D02*
G37*
G36*
X47331Y-92268D02*
X47311D01*
Y-95720D01*
X50764D01*
Y-95700D01*
X50494Y-94695D01*
X49974Y-93793D01*
X49238Y-93058D01*
X48337Y-92537D01*
X47331Y-92268D01*
D02*
G37*
G36*
X46311D02*
X46291D01*
X45285Y-92537D01*
X44384Y-93058D01*
X43648Y-93793D01*
X43128Y-94695D01*
X42858Y-95700D01*
Y-95720D01*
X46311D01*
Y-92268D01*
D02*
G37*
G36*
X275414Y-91441D02*
X275264D01*
Y-95878D01*
X279701D01*
Y-95728D01*
X279364Y-94472D01*
X278714Y-93347D01*
X277795Y-92427D01*
X276669Y-91777D01*
X275414Y-91441D01*
D02*
G37*
G36*
X274264D02*
X274114D01*
X272858Y-91777D01*
X271732Y-92427D01*
X270813Y-93347D01*
X270163Y-94472D01*
X269827Y-95728D01*
Y-95878D01*
X274264D01*
Y-91441D01*
D02*
G37*
G36*
X14268Y-94319D02*
X10618D01*
Y-96984D01*
X14268D01*
Y-94319D01*
D02*
G37*
G36*
X9618D02*
X5968D01*
Y-96984D01*
X9618D01*
Y-94319D01*
D02*
G37*
G36*
X234370Y-84646D02*
X230039D01*
Y-88976D01*
X231000D01*
Y-91280D01*
X229646D01*
Y-97382D01*
X234764D01*
Y-91280D01*
X233409D01*
Y-88976D01*
X234370D01*
Y-84646D01*
D02*
G37*
G36*
X227299Y-94831D02*
X224831D01*
Y-97791D01*
X227299D01*
Y-94831D01*
D02*
G37*
G36*
X223831D02*
X221362D01*
Y-97791D01*
X223831D01*
Y-94831D01*
D02*
G37*
G36*
X27024Y-95559D02*
X24555D01*
Y-97929D01*
X27024D01*
Y-95559D01*
D02*
G37*
G36*
X23555D02*
X21087D01*
Y-97929D01*
X23555D01*
Y-95559D01*
D02*
G37*
G36*
X76805Y-92677D02*
X75872D01*
X74971Y-92919D01*
X74163Y-93385D01*
X73503Y-94045D01*
X73037Y-94853D01*
X72795Y-95754D01*
Y-96687D01*
X73037Y-97588D01*
X73503Y-98396D01*
X74163Y-99056D01*
X74971Y-99522D01*
X75872Y-99764D01*
X76805D01*
X77706Y-99522D01*
X78514Y-99056D01*
X79174Y-98396D01*
X79640Y-97588D01*
X79882Y-96687D01*
Y-95754D01*
X79640Y-94853D01*
X79174Y-94045D01*
X78514Y-93385D01*
X77706Y-92919D01*
X76805Y-92677D01*
D02*
G37*
G36*
X50764Y-96720D02*
X47311D01*
Y-100173D01*
X47331D01*
X48337Y-99904D01*
X49238Y-99383D01*
X49974Y-98647D01*
X50494Y-97746D01*
X50764Y-96741D01*
Y-96720D01*
D02*
G37*
G36*
X46311D02*
X42858D01*
Y-96741D01*
X43128Y-97746D01*
X43648Y-98647D01*
X44384Y-99383D01*
X45285Y-99904D01*
X46291Y-100173D01*
X46311D01*
Y-96720D01*
D02*
G37*
G36*
X265360Y-91850D02*
X264168D01*
X263016Y-92159D01*
X261984Y-92755D01*
X261141Y-93598D01*
X260545Y-94630D01*
X260236Y-95782D01*
Y-96974D01*
X260545Y-98125D01*
X261141Y-99158D01*
X261984Y-100001D01*
X263016Y-100597D01*
X264168Y-100906D01*
X265360D01*
X266511Y-100597D01*
X267544Y-100001D01*
X268387Y-99158D01*
X268983Y-98125D01*
X269291Y-96974D01*
Y-95782D01*
X268983Y-94630D01*
X268387Y-93598D01*
X267544Y-92755D01*
X266511Y-92159D01*
X265360Y-91850D01*
D02*
G37*
G36*
X279701Y-96878D02*
X275264D01*
Y-101315D01*
X275414D01*
X276669Y-100979D01*
X277795Y-100329D01*
X278714Y-99409D01*
X279364Y-98284D01*
X279701Y-97028D01*
Y-96878D01*
D02*
G37*
G36*
X274264D02*
X269827D01*
Y-97028D01*
X270163Y-98284D01*
X270813Y-99409D01*
X271732Y-100329D01*
X272858Y-100979D01*
X274114Y-101315D01*
X274264D01*
Y-96878D01*
D02*
G37*
G36*
X21276Y-100673D02*
X18807D01*
Y-103043D01*
X21276D01*
Y-100673D01*
D02*
G37*
G36*
X17807D02*
X15339D01*
Y-103043D01*
X17807D01*
Y-100673D01*
D02*
G37*
G36*
X255360Y-91850D02*
X254168D01*
X253016Y-92159D01*
X251984Y-92755D01*
X251141Y-93598D01*
X250545Y-94630D01*
X250236Y-95782D01*
Y-96974D01*
X250545Y-98125D01*
X251141Y-99158D01*
X251984Y-100001D01*
X253016Y-100597D01*
X253559Y-100743D01*
Y-102087D01*
X252598D01*
Y-103048D01*
X250787D01*
Y-102087D01*
X246457D01*
Y-106417D01*
X250787D01*
Y-105456D01*
X252598D01*
Y-106417D01*
X256929D01*
Y-102087D01*
X255968D01*
Y-100743D01*
X256511Y-100597D01*
X257544Y-100001D01*
X258387Y-99158D01*
X258983Y-98125D01*
X259291Y-96974D01*
Y-95782D01*
X258983Y-94630D01*
X258387Y-93598D01*
X257544Y-92755D01*
X256511Y-92159D01*
X255360Y-91850D01*
D02*
G37*
G36*
X269016Y-102126D02*
X264685D01*
Y-103107D01*
X263347D01*
Y-102165D01*
X259016D01*
Y-106496D01*
X263347D01*
Y-105515D01*
X264685D01*
Y-106457D01*
X269016D01*
Y-102126D01*
D02*
G37*
G36*
X21276Y-104043D02*
X18807D01*
Y-106413D01*
X21276D01*
Y-104043D01*
D02*
G37*
G36*
X17807D02*
X15339D01*
Y-106413D01*
X17807D01*
Y-104043D01*
D02*
G37*
G36*
X116496Y-103139D02*
X116012D01*
Y-106626D01*
X120417D01*
X120347Y-106094D01*
X119949Y-105132D01*
X119315Y-104307D01*
X118490Y-103673D01*
X117528Y-103275D01*
X116496Y-103139D01*
D02*
G37*
G36*
X115012D02*
X114527D01*
X113496Y-103275D01*
X112534Y-103673D01*
X111708Y-104307D01*
X111075Y-105132D01*
X110677Y-106094D01*
X110607Y-106626D01*
X115012D01*
Y-103139D01*
D02*
G37*
G36*
X47253Y-103252D02*
X47232D01*
Y-106705D01*
X50685D01*
Y-106684D01*
X50416Y-105679D01*
X49895Y-104778D01*
X49159Y-104042D01*
X48258Y-103521D01*
X47253Y-103252D01*
D02*
G37*
G36*
X46232D02*
X46212D01*
X45207Y-103521D01*
X44305Y-104042D01*
X43569Y-104778D01*
X43049Y-105679D01*
X42779Y-106684D01*
Y-106705D01*
X46232D01*
Y-103252D01*
D02*
G37*
G36*
X211961Y-106319D02*
X211024D01*
X210118Y-106561D01*
X209307Y-107030D01*
X208644Y-107693D01*
X208176Y-108504D01*
X208130Y-108674D01*
X189263D01*
X189218Y-108504D01*
X188750Y-107693D01*
X188087Y-107030D01*
X187275Y-106561D01*
X186370Y-106319D01*
X185433D01*
X184528Y-106561D01*
X183716Y-107030D01*
X183054Y-107693D01*
X182585Y-108504D01*
X182540Y-108674D01*
X165283D01*
X165238Y-108504D01*
X164769Y-107693D01*
X164107Y-107030D01*
X163295Y-106561D01*
X162390Y-106319D01*
X161453D01*
X160547Y-106561D01*
X159736Y-107030D01*
X159073Y-107693D01*
X158605Y-108504D01*
X158559Y-108674D01*
X139693D01*
X139647Y-108504D01*
X139179Y-107693D01*
X138516Y-107030D01*
X137704Y-106561D01*
X136799Y-106319D01*
X135862D01*
X134957Y-106561D01*
X134145Y-107030D01*
X133483Y-107693D01*
X133014Y-108504D01*
X132772Y-109409D01*
Y-110346D01*
X133014Y-111252D01*
X133483Y-112063D01*
X134145Y-112726D01*
X134957Y-113195D01*
X135862Y-113437D01*
X136799D01*
X137704Y-113195D01*
X138516Y-112726D01*
X139179Y-112063D01*
X139647Y-111252D01*
X139693Y-111082D01*
X158559D01*
X158605Y-111252D01*
X159073Y-112063D01*
X159736Y-112726D01*
X160547Y-113195D01*
X161453Y-113437D01*
X162390D01*
X163295Y-113195D01*
X164107Y-112726D01*
X164769Y-112063D01*
X165238Y-111252D01*
X165283Y-111082D01*
X182540D01*
X182585Y-111252D01*
X183054Y-112063D01*
X183716Y-112726D01*
X184528Y-113195D01*
X185433Y-113437D01*
X186370D01*
X187275Y-113195D01*
X188087Y-112726D01*
X188750Y-112063D01*
X189218Y-111252D01*
X189263Y-111082D01*
X208130D01*
X208176Y-111252D01*
X208644Y-112063D01*
X209307Y-112726D01*
X210118Y-113195D01*
X211024Y-113437D01*
X211961D01*
X212866Y-113195D01*
X213677Y-112726D01*
X214340Y-112063D01*
X214809Y-111252D01*
X215051Y-110346D01*
Y-109409D01*
X214809Y-108504D01*
X214340Y-107693D01*
X213677Y-107030D01*
X212866Y-106561D01*
X211961Y-106319D01*
D02*
G37*
G36*
X282063Y-107071D02*
X279988D01*
Y-109146D01*
X282063D01*
Y-107071D01*
D02*
G37*
G36*
X278988D02*
X276913D01*
Y-109146D01*
X278988D01*
Y-107071D01*
D02*
G37*
G36*
X269425Y-107228D02*
X267350D01*
Y-109303D01*
X269425D01*
Y-107228D01*
D02*
G37*
G36*
X266350D02*
X264276D01*
Y-109303D01*
X266350D01*
Y-107228D01*
D02*
G37*
G36*
X76726Y-103661D02*
X75793D01*
X74892Y-103903D01*
X74084Y-104369D01*
X73425Y-105029D01*
X72958Y-105837D01*
X72716Y-106738D01*
Y-107671D01*
X72958Y-108572D01*
X73425Y-109380D01*
X74084Y-110040D01*
X74892Y-110506D01*
X75793Y-110748D01*
X76726D01*
X77627Y-110506D01*
X78435Y-110040D01*
X79095Y-109380D01*
X79562Y-108572D01*
X79803Y-107671D01*
Y-106738D01*
X79562Y-105837D01*
X79095Y-105029D01*
X78435Y-104369D01*
X77627Y-103903D01*
X76726Y-103661D01*
D02*
G37*
G36*
X120417Y-107626D02*
X116012D01*
Y-111113D01*
X116496D01*
X117528Y-110977D01*
X118490Y-110579D01*
X119315Y-109945D01*
X119949Y-109119D01*
X120347Y-108158D01*
X120417Y-107626D01*
D02*
G37*
G36*
X115012D02*
X110607D01*
X110677Y-108158D01*
X111075Y-109119D01*
X111708Y-109945D01*
X112534Y-110579D01*
X113496Y-110977D01*
X114527Y-111113D01*
X115012D01*
Y-107626D01*
D02*
G37*
G36*
X50685Y-107705D02*
X47232D01*
Y-111158D01*
X47253D01*
X48258Y-110888D01*
X49159Y-110368D01*
X49895Y-109632D01*
X50416Y-108730D01*
X50685Y-107725D01*
Y-107705D01*
D02*
G37*
G36*
X46232D02*
X42779D01*
Y-107725D01*
X43049Y-108730D01*
X43569Y-109632D01*
X44305Y-110368D01*
X45207Y-110888D01*
X46212Y-111158D01*
X46232D01*
Y-107705D01*
D02*
G37*
G36*
X106108Y-102598D02*
X104916D01*
X103764Y-102907D01*
X102732Y-103503D01*
X101889Y-104346D01*
X101293Y-105378D01*
X100984Y-106530D01*
Y-107722D01*
X101293Y-108874D01*
X101889Y-109906D01*
X102732Y-110749D01*
X103764Y-111345D01*
X104916Y-111653D01*
X106108D01*
X107259Y-111345D01*
X108292Y-110749D01*
X109135Y-109906D01*
X109731Y-108874D01*
X110039Y-107722D01*
Y-106530D01*
X109731Y-105378D01*
X109135Y-104346D01*
X108292Y-103503D01*
X107259Y-102907D01*
X106108Y-102598D01*
D02*
G37*
G36*
X276142Y-102087D02*
X271811D01*
Y-106417D01*
X272772D01*
Y-107480D01*
X271811D01*
Y-111811D01*
X276142D01*
Y-107480D01*
X275181D01*
Y-106417D01*
X276142D01*
Y-102087D01*
D02*
G37*
G36*
X256929Y-107598D02*
X252598D01*
Y-111929D01*
X256929D01*
Y-111007D01*
X259016D01*
Y-112008D01*
X263347D01*
Y-107677D01*
X259016D01*
Y-108599D01*
X256929D01*
Y-107598D01*
D02*
G37*
G36*
X282063Y-110146D02*
X279988D01*
Y-112221D01*
X282063D01*
Y-110146D01*
D02*
G37*
G36*
X278988D02*
X276913D01*
Y-112221D01*
X278988D01*
Y-110146D01*
D02*
G37*
G36*
X269425Y-110303D02*
X267350D01*
Y-112378D01*
X269425D01*
Y-110303D01*
D02*
G37*
G36*
X266350D02*
X264276D01*
Y-112378D01*
X266350D01*
Y-110303D01*
D02*
G37*
G36*
X34681Y-106870D02*
X33744D01*
X32839Y-107113D01*
X32027Y-107581D01*
X31365Y-108244D01*
X30896Y-109055D01*
X30654Y-109961D01*
Y-110898D01*
X30896Y-111803D01*
X31365Y-112614D01*
X32027Y-113277D01*
X32839Y-113746D01*
X33008Y-113791D01*
Y-115682D01*
X32178Y-116512D01*
X19003D01*
X18192Y-115702D01*
Y-113903D01*
X19153D01*
Y-107997D01*
X14823D01*
Y-109746D01*
X12181D01*
Y-106870D01*
X5063D01*
Y-113988D01*
X12181D01*
Y-112154D01*
X14823D01*
Y-113903D01*
X15784D01*
Y-116201D01*
X15784Y-116201D01*
X15876Y-116662D01*
X16137Y-117052D01*
X17652Y-118568D01*
X18043Y-118829D01*
X18504Y-118921D01*
X18504Y-118921D01*
X32677D01*
X32677Y-118921D01*
X33138Y-118829D01*
X33529Y-118568D01*
X35064Y-117033D01*
X35325Y-116642D01*
X35417Y-116181D01*
X35417Y-116181D01*
Y-113791D01*
X35586Y-113746D01*
X36398Y-113277D01*
X37061Y-112614D01*
X37529Y-111803D01*
X37772Y-110898D01*
Y-109961D01*
X37529Y-109055D01*
X37061Y-108244D01*
X36398Y-107581D01*
X35586Y-107113D01*
X34681Y-106870D01*
D02*
G37*
G36*
X55669Y-114921D02*
X46614D01*
Y-123976D01*
X55669D01*
Y-114921D01*
D02*
G37*
G36*
X51792Y-124512D02*
X51642D01*
Y-128949D01*
X56079D01*
Y-128799D01*
X55742Y-127543D01*
X55092Y-126417D01*
X54173Y-125498D01*
X53047Y-124848D01*
X51792Y-124512D01*
D02*
G37*
G36*
X50642D02*
X50492D01*
X49236Y-124848D01*
X48110Y-125498D01*
X47191Y-126417D01*
X46541Y-127543D01*
X46205Y-128799D01*
Y-128949D01*
X50642D01*
Y-124512D01*
D02*
G37*
G36*
X34681Y-124587D02*
X33744D01*
X32839Y-124829D01*
X32027Y-125298D01*
X31365Y-125960D01*
X30896Y-126772D01*
X30654Y-127677D01*
Y-128614D01*
X30896Y-129519D01*
X31365Y-130331D01*
X32027Y-130994D01*
X32839Y-131462D01*
X33744Y-131705D01*
X34681D01*
X35586Y-131462D01*
X36398Y-130994D01*
X37061Y-130331D01*
X37529Y-129519D01*
X37772Y-128614D01*
Y-127677D01*
X37529Y-126772D01*
X37061Y-125960D01*
X36398Y-125298D01*
X35586Y-124829D01*
X34681Y-124587D01*
D02*
G37*
G36*
X9091D02*
X8153D01*
X7248Y-124829D01*
X6437Y-125298D01*
X5774Y-125960D01*
X5305Y-126772D01*
X5063Y-127677D01*
Y-128614D01*
X5305Y-129519D01*
X5774Y-130331D01*
X6437Y-130994D01*
X7248Y-131462D01*
X8153Y-131705D01*
X9091D01*
X9996Y-131462D01*
X10807Y-130994D01*
X11470Y-130331D01*
X11938Y-129519D01*
X12181Y-128614D01*
Y-127677D01*
X11938Y-126772D01*
X11470Y-125960D01*
X10807Y-125298D01*
X9996Y-124829D01*
X9091Y-124587D01*
D02*
G37*
G36*
X56079Y-129949D02*
X51642D01*
Y-134386D01*
X51792D01*
X53047Y-134049D01*
X54173Y-133399D01*
X55092Y-132480D01*
X55742Y-131354D01*
X56079Y-130099D01*
Y-129949D01*
D02*
G37*
G36*
X50642D02*
X46205D01*
Y-130099D01*
X46541Y-131354D01*
X47191Y-132480D01*
X48110Y-133399D01*
X49236Y-134049D01*
X50492Y-134386D01*
X50642D01*
Y-129949D01*
D02*
G37*
G36*
X307812Y-140157D02*
X306361D01*
X304959Y-140533D01*
X303702Y-141259D01*
X302676Y-142285D01*
X301950Y-143542D01*
X301575Y-144944D01*
Y-146395D01*
X301950Y-147797D01*
X302676Y-149054D01*
X303702Y-150080D01*
X304959Y-150805D01*
X306361Y-151181D01*
X307812D01*
X309214Y-150805D01*
X310471Y-150080D01*
X311497Y-149054D01*
X312223Y-147797D01*
X312598Y-146395D01*
Y-144944D01*
X312223Y-143542D01*
X311497Y-142285D01*
X310471Y-141259D01*
X309214Y-140533D01*
X307812Y-140157D01*
D02*
G37*
G36*
X20411D02*
X18959D01*
X17558Y-140533D01*
X16301Y-141259D01*
X15274Y-142285D01*
X14549Y-143542D01*
X14173Y-144944D01*
Y-146395D01*
X14549Y-147797D01*
X15274Y-149054D01*
X16301Y-150080D01*
X17558Y-150805D01*
X18959Y-151181D01*
X20411D01*
X21813Y-150805D01*
X23069Y-150080D01*
X24096Y-149054D01*
X24821Y-147797D01*
X25197Y-146395D01*
Y-144944D01*
X24821Y-143542D01*
X24096Y-142285D01*
X23069Y-141259D01*
X21813Y-140533D01*
X20411Y-140157D01*
D02*
G37*
%LPD*%
G36*
X94685Y-64606D02*
X99036D01*
X95295Y-65787D01*
X99036Y-66969D01*
X94685D01*
X93268Y-68386D01*
X90197D01*
Y-65787D01*
Y-63307D01*
X93386D01*
X94685Y-64606D01*
D02*
G37*
G36*
X121732Y-75236D02*
X105925D01*
Y-72087D01*
X121732D01*
Y-75236D01*
D02*
G37*
G36*
X228366Y-67638D02*
X224626D01*
Y-53425D01*
X228366D01*
Y-67638D01*
D02*
G37*
G36*
X26929Y-58681D02*
Y-76200D01*
X24646Y-78484D01*
Y-80019D01*
X25256Y-80630D01*
X27854D01*
Y-81850D01*
X23091D01*
X22677Y-81437D01*
Y-78523D01*
X21024Y-76870D01*
Y-58681D01*
X26929Y-58681D01*
D02*
G37*
G36*
X14921Y-73543D02*
X18484Y-77106D01*
X20512D01*
X22067Y-78661D01*
Y-79882D01*
X18937Y-79882D01*
X16220Y-82598D01*
X4567D01*
Y-58681D01*
X14921D01*
Y-73543D01*
D02*
G37*
G36*
X36024Y-86949D02*
X29685D01*
X26555Y-83819D01*
X25256Y-83819D01*
Y-82598D01*
X36024D01*
X36024Y-86949D01*
D02*
G37*
D11*
X185902Y-109878D02*
X211492D01*
X136331D02*
X161921D01*
X34213Y-116181D02*
Y-110429D01*
X32677Y-117717D02*
X34213Y-116181D01*
X18504Y-117717D02*
X32677D01*
X16988Y-116201D02*
X18504Y-117717D01*
X16988Y-116201D02*
Y-110950D01*
X219764Y-94331D02*
X224331D01*
X263071Y-54094D02*
X268268Y-48898D01*
X305433D01*
X306299Y-48031D02*
Y-43268D01*
X305433Y-48898D02*
X306299Y-48031D01*
X107697Y-69429D02*
X107795Y-69528D01*
X104193Y-69429D02*
X107697D01*
X104095Y-69331D02*
X104193Y-69429D01*
X124055Y-59291D02*
Y-56339D01*
X122677Y-54961D02*
X124055Y-56339D01*
X122677Y-54961D02*
Y-52205D01*
X111653Y-59291D02*
X116260D01*
X55866Y-60158D02*
X76890Y-81181D01*
X28780Y-53976D02*
X34961Y-60158D01*
X55866D01*
X263071Y-57244D02*
Y-54094D01*
X257097Y-51732D02*
X261575D01*
X250630D02*
X257097D01*
X284095Y-109646D02*
X284173Y-109724D01*
X279488Y-109646D02*
X284095D01*
X264764Y-66378D02*
X270354Y-60787D01*
X284567D01*
X286102Y-62323D01*
Y-101102D02*
Y-62323D01*
X282953Y-104252D02*
X286102Y-101102D01*
X279488Y-104252D02*
X282953D01*
X273976Y-109646D02*
Y-104252D01*
X249685Y-61693D02*
X250630Y-60748D01*
Y-57244D01*
X232323Y-80000D02*
X237087D01*
X237480Y-92716D02*
X242244Y-87953D01*
X233504Y-103189D02*
X237480Y-99213D01*
Y-92716D01*
X280591Y-85158D02*
Y-80669D01*
X271299Y-87953D02*
X272677Y-89331D01*
X267441Y-87953D02*
X271299D01*
X274764Y-85236D02*
Y-80748D01*
X243110Y-108819D02*
Y-104252D01*
X244764Y-66378D02*
Y-57244D01*
X244328Y-66378D02*
X244764D01*
X240509Y-70197D02*
X244328Y-66378D01*
X238465Y-70197D02*
X240509D01*
X237126Y-71535D02*
X238465Y-70197D01*
X237126Y-73937D02*
Y-71535D01*
X237087Y-73976D02*
X237126Y-73937D01*
X268583Y-57244D02*
X273465D01*
X266850Y-114173D02*
Y-109803D01*
X254764Y-109764D02*
X254803Y-109803D01*
X261142D01*
X261181Y-109843D01*
Y-104331D02*
X261201Y-104311D01*
X266831D01*
X266850Y-104291D01*
X254764Y-104252D02*
Y-96378D01*
X243110Y-104252D02*
Y-98032D01*
X244764Y-96378D01*
X254764Y-104252D02*
X254764Y-104252D01*
X248622Y-104252D02*
X254764D01*
X248622Y-104252D02*
X248622Y-104252D01*
X274764Y-75236D02*
X274803Y-75197D01*
X280551D01*
X280591Y-75157D01*
X274764Y-75236D02*
Y-66378D01*
X267441Y-87953D02*
Y-80866D01*
Y-74528D02*
Y-70866D01*
X264764Y-68189D02*
X267441Y-70866D01*
X264764Y-68189D02*
Y-66378D01*
X254764Y-73937D02*
Y-66378D01*
Y-73937D02*
X254921Y-74094D01*
X261929Y-80866D02*
Y-74528D01*
Y-87953D02*
Y-80866D01*
X254882Y-82992D02*
X254921Y-82953D01*
X254882Y-87953D02*
Y-82992D01*
Y-87953D02*
X261929D01*
X28858Y-103543D02*
X34252D01*
X39370Y-98425D01*
Y-82276D01*
X45110Y-76535D02*
X61260D01*
X39370Y-82276D02*
X45110Y-76535D01*
X226693Y-86811D02*
Y-82047D01*
X232205Y-94331D02*
Y-86811D01*
X132362Y-103189D02*
X233504D01*
X242244Y-87953D02*
X249370D01*
X77980Y-40091D02*
X120603D01*
X129520Y-68657D02*
Y-49008D01*
X120603Y-40091D02*
X129520Y-49008D01*
X89134Y-92205D02*
X121378D01*
X132362Y-103189D01*
X211492Y-92161D02*
X216610D01*
X218382Y-90390D01*
X86890Y-89961D02*
X89134Y-92205D01*
X86890Y-89961D02*
Y-82165D01*
X56890Y-94528D02*
X64291Y-101929D01*
X99724D01*
X104528Y-97126D02*
X105512D01*
X99724Y-101929D02*
X104528Y-97126D01*
X178972Y-81098D02*
X189650D01*
X203035D02*
X209449D01*
X178972D02*
X189650D01*
X153504Y-81059D02*
X159917D01*
X129441D02*
X140118D01*
X56890Y-94528D02*
Y-82165D01*
X61260Y-76535D02*
X66890Y-82165D01*
Y-51181D02*
X77980Y-40091D01*
X66890Y-52165D02*
Y-51181D01*
X179051Y-68697D02*
Y-55036D01*
X157008Y-32992D02*
X179051Y-55036D01*
X75079Y-32992D02*
X157008D01*
X56890Y-52165D02*
Y-51181D01*
X75079Y-32992D01*
X161921Y-109878D02*
X185902D01*
X76890Y-82165D02*
Y-81181D01*
X91654Y-59685D02*
X91693Y-59724D01*
X86732Y-59685D02*
X91654D01*
X86693Y-59646D02*
X86732Y-59685D01*
X24606Y-103543D02*
X28858D01*
X9143Y-110950D02*
X16988D01*
X8622Y-110429D02*
X9143Y-110950D01*
X13661Y-103543D02*
X18307D01*
X25618Y-110722D02*
Y-107508D01*
Y-110722D02*
X25846Y-110950D01*
X24606Y-106496D02*
X25618Y-107508D01*
X24606Y-106496D02*
Y-103543D01*
X257097Y-57244D02*
X263071D01*
X244843Y-51732D02*
X250630D01*
X244764Y-57244D02*
X244843D01*
X117797Y-68187D02*
X117835Y-68224D01*
X113779Y-68150D02*
X113817Y-68187D01*
X117797D01*
X237087Y-80000D02*
Y-73976D01*
X129480Y-68697D02*
X129520Y-68657D01*
X242598Y-80000D02*
Y-75236D01*
X226496Y-70197D02*
X230744D01*
X232205Y-60512D02*
X236181D01*
X179012Y-81059D02*
X179051Y-81020D01*
Y-68697D01*
X185902Y-92161D02*
X211492D01*
X218382Y-90390D02*
Y-81059D01*
X129480Y-81020D02*
Y-68697D01*
X129441Y-81059D02*
X129480Y-81020D01*
X168811Y-90390D02*
Y-81059D01*
X167039Y-92161D02*
X168811Y-90390D01*
X161921Y-92161D02*
X167039D01*
X136331D02*
X161921D01*
D14*
X101772Y-73268D02*
X107795D01*
X100323Y-71819D02*
Y-67158D01*
Y-71819D02*
X101772Y-73268D01*
X100323Y-67158D02*
X101693Y-65787D01*
X107795D01*
X17863Y-85424D02*
X19937Y-83350D01*
X17863Y-85424D02*
X17863Y-88062D01*
X17717Y-88208D02*
X17863Y-88062D01*
X19937Y-83350D02*
X20768Y-83350D01*
X24055Y-95059D02*
X28937Y-95059D01*
X17717Y-95019D02*
X17756Y-95059D01*
X17717Y-95019D02*
X17717Y-88208D01*
X233228Y-73307D02*
Y-67520D01*
X232165Y-66457D02*
X233228Y-67520D01*
X232598Y-73937D02*
X233228Y-73307D01*
X226496Y-66457D02*
X232165Y-66457D01*
X226496Y-73937D02*
X232598D01*
X24016Y-88208D02*
Y-83917D01*
X24724Y-83208D02*
X26555Y-83208D01*
X24016Y-83917D02*
X24724Y-83208D01*
D15*
X14134Y-84764D02*
Y-83830D01*
X18832Y-81240D02*
X20768D01*
X16587Y-83484D02*
X18832Y-81240D01*
X14480Y-83484D02*
X16587D01*
X14134Y-83830D02*
X14480Y-83484D01*
D16*
X17717Y-88208D02*
D03*
X24016D02*
D03*
X24055Y-95059D02*
D03*
X17756D02*
D03*
X18307Y-103543D02*
D03*
X24606Y-103543D02*
D03*
D22*
X189650Y-81098D02*
D03*
X203035D02*
D03*
X140118Y-81059D02*
D03*
X153504D02*
D03*
D38*
X106929Y-52205D02*
X117165D01*
X106890Y-52165D02*
X106929Y-52205D01*
X97106Y-65728D02*
Y-59724D01*
X106890Y-58504D02*
Y-52165D01*
X105669Y-59724D02*
X106890Y-58504D01*
X97205Y-59724D02*
X105669D01*
D41*
X296299Y-43268D02*
D03*
X179051Y-68697D02*
D03*
X218421D02*
D03*
X129441Y-81059D02*
D03*
X168811D02*
D03*
X218382D02*
D03*
X179012D02*
D03*
X168890Y-68657D02*
D03*
X129520D02*
D03*
D42*
X306299Y-43268D02*
D03*
D43*
X95512Y-97126D02*
D03*
X105512D02*
D03*
X115512D02*
D03*
Y-107126D02*
D03*
D44*
X105512D02*
D03*
X51142Y-129449D02*
D03*
X244764Y-66378D02*
D03*
X254764D02*
D03*
X264764D02*
D03*
X274764D02*
D03*
Y-96378D02*
D03*
X264764D02*
D03*
X254764D02*
D03*
D45*
X95512Y-107126D02*
D03*
D46*
X51142Y-119449D02*
D03*
D47*
X106890Y-82165D02*
D03*
X96890D02*
D03*
X86890D02*
D03*
X76890D02*
D03*
X66890D02*
D03*
X56890D02*
D03*
X46890D02*
D03*
Y-52165D02*
D03*
X56890Y-52165D02*
D03*
X66890D02*
D03*
X76890D02*
D03*
X86890D02*
D03*
X96890D02*
D03*
D48*
X106890Y-52165D02*
D03*
D49*
X244764Y-96378D02*
D03*
D50*
X8622Y-110429D02*
D03*
X136331Y-92161D02*
D03*
X185902D02*
D03*
D51*
X34213Y-110429D02*
D03*
X8622Y-128146D02*
D03*
X34213D02*
D03*
X161921Y-109878D02*
D03*
X136331D02*
D03*
X161921Y-92161D02*
D03*
X211492Y-109878D02*
D03*
X185902D02*
D03*
X211492Y-92161D02*
D03*
D52*
X76260Y-107205D02*
D03*
X46732D02*
D03*
X76339Y-96220D02*
D03*
X46811D02*
D03*
D53*
X219764Y-94331D02*
D03*
X104095Y-69331D02*
D03*
X111653Y-59291D02*
D03*
X28780Y-53976D02*
D03*
X34882Y-43268D02*
D03*
X261575Y-51732D02*
D03*
X284095Y-109646D02*
D03*
X249685Y-61693D02*
D03*
X232323Y-80000D02*
D03*
X226693Y-82047D02*
D03*
X280591Y-85158D02*
D03*
X272677Y-89331D02*
D03*
X274764Y-85236D02*
D03*
X243110Y-108819D02*
D03*
X273465Y-57244D02*
D03*
X266850Y-114173D02*
D03*
X118307Y-73898D02*
D03*
X92047Y-64882D02*
D03*
Y-66929D02*
D03*
X209449Y-81098D02*
D03*
X159917Y-81059D02*
D03*
X82622Y-43043D02*
D03*
X106122D02*
D03*
X176622D02*
D03*
X59122D02*
D03*
X34921Y-65019D02*
D03*
X34921Y-67067D02*
D03*
X32874Y-65019D02*
D03*
Y-67067D02*
D03*
X86693Y-59646D02*
D03*
X28858Y-103543D02*
D03*
X13661Y-103543D02*
D03*
X14134Y-84764D02*
D03*
X226496Y-54843D02*
D03*
X226496Y-56890D02*
D03*
X117835Y-68224D02*
D03*
X28937Y-95059D02*
D03*
X9409Y-32913D02*
D03*
Y-28819D02*
D03*
Y-30866D02*
D03*
X11457D02*
D03*
X11457Y-32913D02*
D03*
X11457Y-28819D02*
D03*
X30827Y-91161D02*
D03*
Y-89114D02*
D03*
X32874D02*
D03*
Y-91161D02*
D03*
X5945Y-78149D02*
D03*
X5945Y-76102D02*
D03*
X5945Y-74055D02*
D03*
X5945Y-72008D02*
D03*
X5945Y-69961D02*
D03*
X5945Y-67913D02*
D03*
X5945Y-61772D02*
D03*
X5945Y-63819D02*
D03*
X5945Y-65866D02*
D03*
X8071Y-98150D02*
D03*
X10118Y-98150D02*
D03*
X12165Y-98150D02*
D03*
X30827Y-67067D02*
D03*
Y-65019D02*
D03*
X31535Y-32913D02*
D03*
X31535Y-28819D02*
D03*
X31535Y-30866D02*
D03*
X65596Y-5508D02*
D03*
X206615Y-5528D02*
D03*
X120354Y-73898D02*
D03*
X242598Y-75236D02*
D03*
X236181Y-60512D02*
D03*
X230744Y-70197D02*
D03*
X33583Y-30866D02*
D03*
Y-32913D02*
D03*
Y-28819D02*
D03*
X34921Y-91161D02*
D03*
Y-89114D02*
D03*
X10118Y-100197D02*
D03*
X12165D02*
D03*
X8071D02*
D03*
X265811Y-5571D02*
D03*
X253615Y-5528D02*
D03*
X195311Y-5571D02*
D03*
X183096Y-5508D02*
D03*
X218811Y-5571D02*
D03*
X230115Y-5528D02*
D03*
X242311Y-5571D02*
D03*
X124811D02*
D03*
X112596Y-5508D02*
D03*
X136115Y-5528D02*
D03*
X148311Y-5571D02*
D03*
X159615Y-5528D02*
D03*
X171811Y-5571D02*
D03*
X101291Y-5551D02*
D03*
X89096Y-5508D02*
D03*
X77791Y-5551D02*
D03*
X42076Y-5488D02*
D03*
X54291Y-5551D02*
D03*
X270621Y-43044D02*
D03*
X247122Y-43044D02*
D03*
X223622Y-43044D02*
D03*
X200122Y-43043D02*
D03*
X153122D02*
D03*
X129622D02*
D03*
D54*
X307087Y-15748D02*
D03*
X19685Y-145669D02*
D03*
X307087D02*
D03*
X19685Y-15748D02*
D03*
D61*
X226693Y-60512D02*
D03*
X232205D02*
D03*
X249370Y-87953D02*
D03*
X254882D02*
D03*
X237087Y-80000D02*
D03*
X242598D02*
D03*
X97205Y-59724D02*
D03*
X91693D02*
D03*
X279488Y-109646D02*
D03*
X273976D02*
D03*
X279488Y-104252D02*
D03*
X273976D02*
D03*
X122677Y-52205D02*
D03*
X117165D02*
D03*
X232205Y-86811D02*
D03*
X226693D02*
D03*
X261929Y-87953D02*
D03*
X267441D02*
D03*
Y-80866D02*
D03*
X261929D02*
D03*
X267441Y-74528D02*
D03*
X261929D02*
D03*
X248622Y-104252D02*
D03*
X243110D02*
D03*
X268583Y-57244D02*
D03*
X263071D02*
D03*
D62*
X20768Y-83208D02*
D03*
Y-81240D02*
D03*
Y-79271D02*
D03*
X26555D02*
D03*
Y-81240D02*
D03*
Y-83208D02*
D03*
D63*
X10118Y-93819D02*
D03*
Y-80433D02*
D03*
X32874Y-71397D02*
D03*
X32874Y-84783D02*
D03*
D64*
X232205Y-94331D02*
D03*
X224331D02*
D03*
X116260Y-59291D02*
D03*
X124134D02*
D03*
D65*
X97165Y-65787D02*
D03*
Y-73268D02*
D03*
X107795Y-73268D02*
D03*
X107795Y-69528D02*
D03*
X107795Y-65787D02*
D03*
X226496Y-73937D02*
D03*
X226496Y-70197D02*
D03*
X226496Y-66457D02*
D03*
X237126D02*
D03*
Y-73937D02*
D03*
D66*
X113779Y-73661D02*
D03*
Y-68150D02*
D03*
X280591Y-75157D02*
D03*
Y-80669D02*
D03*
X274764Y-80748D02*
D03*
Y-75236D02*
D03*
X266850Y-104291D02*
D03*
Y-109803D02*
D03*
X261181Y-109843D02*
D03*
Y-104331D02*
D03*
X254764Y-104252D02*
D03*
Y-109764D02*
D03*
X257097Y-57244D02*
D03*
Y-51732D02*
D03*
X244843Y-57244D02*
D03*
Y-51732D02*
D03*
X250630D02*
D03*
Y-57244D02*
D03*
D67*
X16988Y-110950D02*
D03*
X25846D02*
D03*
D68*
X254921Y-74094D02*
D03*
Y-82953D02*
D03*
D69*
X23976Y-67342D02*
D03*
X11969D02*
D03*
D70*
X32874Y-87441D02*
D03*
X10118Y-96476D02*
D03*
X32874Y-68740D02*
D03*
M02*
