G04*
G04 #@! TF.GenerationSoftware,Altium Limited,Altium Designer,24.3.1 (35)*
G04*
G04 Layer_Color=8421504*
%FSLAX25Y25*%
%MOIN*%
G70*
G04*
G04 #@! TF.SameCoordinates,B31CD4F0-C50D-4F02-9F32-B226106F2F3E*
G04*
G04*
G04 #@! TF.FilePolarity,Positive*
G04*
G01*
G75*
%ADD18R,0.03150X0.03150*%
%ADD19R,0.03937X0.04921*%
%ADD20R,0.03150X0.03150*%
%ADD21R,0.03937X0.03740*%
%ADD22R,0.03937X0.05906*%
%ADD23R,0.05118X0.05906*%
D18*
X35484Y23161D02*
D03*
Y17650D02*
D03*
Y34284D02*
D03*
Y28772D02*
D03*
X40522Y23260D02*
D03*
Y28772D02*
D03*
X250356Y82961D02*
D03*
Y77449D02*
D03*
D19*
X47397Y90271D02*
D03*
X39523D02*
D03*
D20*
X53224Y96433D02*
D03*
X47713D02*
D03*
D21*
X8898Y97441D02*
D03*
X15197Y97441D02*
D03*
X-3799Y97441D02*
D03*
X2500D02*
D03*
D22*
X45527Y102626D02*
D03*
X51827D02*
D03*
X58126D02*
D03*
Y123886D02*
D03*
X51827D02*
D03*
X45527D02*
D03*
X22027D02*
D03*
X28327D02*
D03*
X34626D02*
D03*
Y102626D02*
D03*
X28327D02*
D03*
X22027D02*
D03*
X69028D02*
D03*
X75327D02*
D03*
X81626D02*
D03*
Y123886D02*
D03*
X75327D02*
D03*
X69028D02*
D03*
X92528D02*
D03*
X98827D02*
D03*
X105126D02*
D03*
Y102626D02*
D03*
X98827D02*
D03*
X92528D02*
D03*
X116027D02*
D03*
X122327D02*
D03*
X128626D02*
D03*
Y123886D02*
D03*
X122327D02*
D03*
X116027D02*
D03*
X139527D02*
D03*
X145827D02*
D03*
X152126D02*
D03*
Y102626D02*
D03*
X145827D02*
D03*
X139527D02*
D03*
X163028D02*
D03*
X169327D02*
D03*
X175626D02*
D03*
Y123886D02*
D03*
X169327D02*
D03*
X163028D02*
D03*
X186527Y123886D02*
D03*
X192827D02*
D03*
X199126D02*
D03*
Y102626D02*
D03*
X192827D02*
D03*
X186527D02*
D03*
X210027Y102626D02*
D03*
X216327D02*
D03*
X222626D02*
D03*
Y123885D02*
D03*
X216327D02*
D03*
X210027D02*
D03*
X233527Y123885D02*
D03*
X239826D02*
D03*
X246125D02*
D03*
Y102625D02*
D03*
X239826D02*
D03*
X233527D02*
D03*
D23*
X116430Y132976D02*
D03*
X128626Y132933D02*
D03*
X233930Y132976D02*
D03*
X246126Y132933D02*
D03*
X210430Y132976D02*
D03*
X222626Y132933D02*
D03*
X186930Y132976D02*
D03*
X199126Y132933D02*
D03*
X163430Y132976D02*
D03*
X175626Y132933D02*
D03*
X139930Y132976D02*
D03*
X152126Y132933D02*
D03*
X92930Y132976D02*
D03*
X105126Y132933D02*
D03*
X69430Y132976D02*
D03*
X81626Y132933D02*
D03*
X45930Y132976D02*
D03*
X58126Y132933D02*
D03*
X22411Y132996D02*
D03*
X34606Y132953D02*
D03*
M02*
