G04*
G04 #@! TF.GenerationSoftware,Altium Limited,Altium Designer,23.5.1 (21)*
G04*
G04 Layer_Color=65535*
%FSLAX25Y25*%
%MOIN*%
G70*
G04*
G04 #@! TF.SameCoordinates,E67CB547-5A9E-439B-8C78-AB5D31355585*
G04*
G04*
G04 #@! TF.FilePolarity,Positive*
G04*
G01*
G75*
%ADD10C,0.01575*%
%ADD11C,0.00787*%
%ADD12C,0.01181*%
%ADD13C,0.00984*%
%ADD14C,0.00500*%
%ADD15C,0.01000*%
%ADD16C,0.00591*%
G36*
X261421Y-142904D02*
X259968D01*
Y-141560D01*
X261421D01*
Y-142904D01*
D02*
G37*
G36*
X241332Y-142926D02*
X240086D01*
Y-141680D01*
X241332D01*
Y-142926D01*
D02*
G37*
G36*
X239102D02*
X237856D01*
Y-141680D01*
X239102D01*
Y-142926D01*
D02*
G37*
G36*
X246229Y-143527D02*
X246349Y-143549D01*
X246502Y-143582D01*
X246666Y-143637D01*
X246830Y-143702D01*
X247005Y-143801D01*
X246546Y-145058D01*
X246535Y-145047D01*
X246480Y-145025D01*
X246414Y-144981D01*
X246327Y-144937D01*
X246218Y-144894D01*
X246108Y-144850D01*
X245988Y-144828D01*
X245868Y-144817D01*
X245824D01*
X245759Y-144828D01*
X245693Y-144839D01*
X245617Y-144861D01*
X245529Y-144894D01*
X245442Y-144937D01*
X245354Y-144992D01*
X245343Y-145003D01*
X245321Y-145025D01*
X245278Y-145069D01*
X245234Y-145134D01*
X245179Y-145211D01*
X245125Y-145320D01*
X245070Y-145451D01*
X245026Y-145604D01*
Y-145626D01*
X245015Y-145659D01*
X245004Y-145692D01*
Y-145746D01*
X244993Y-145812D01*
X244983Y-145899D01*
X244972Y-145998D01*
X244961Y-146107D01*
X244950Y-146249D01*
X244939Y-146391D01*
Y-146566D01*
X244928Y-146752D01*
X244917Y-146959D01*
Y-147189D01*
Y-147440D01*
Y-149124D01*
X243463D01*
Y-143637D01*
X244808D01*
Y-144413D01*
X244819Y-144402D01*
X244862Y-144336D01*
X244928Y-144238D01*
X245015Y-144118D01*
X245103Y-143997D01*
X245212Y-143877D01*
X245310Y-143768D01*
X245420Y-143691D01*
X245431Y-143681D01*
X245463Y-143659D01*
X245529Y-143637D01*
X245605Y-143604D01*
X245693Y-143571D01*
X245802Y-143538D01*
X245912Y-143527D01*
X246043Y-143517D01*
X246130D01*
X246229Y-143527D01*
D02*
G37*
G36*
X285019Y-143527D02*
X285139Y-143538D01*
X285271Y-143560D01*
X285413Y-143593D01*
X285566Y-143637D01*
X285719Y-143691D01*
X285740Y-143702D01*
X285784Y-143724D01*
X285861Y-143757D01*
X285948Y-143812D01*
X286047Y-143877D01*
X286145Y-143954D01*
X286243Y-144041D01*
X286331Y-144140D01*
X286342Y-144150D01*
X286364Y-144183D01*
X286396Y-144238D01*
X286440Y-144314D01*
X286495Y-144402D01*
X286538Y-144511D01*
X286582Y-144620D01*
X286615Y-144752D01*
Y-144763D01*
X286626Y-144817D01*
X286648Y-144894D01*
X286659Y-145003D01*
X286681Y-145134D01*
X286691Y-145309D01*
X286702Y-145495D01*
Y-145724D01*
Y-149124D01*
X285249D01*
Y-146336D01*
Y-146326D01*
Y-146293D01*
Y-146249D01*
Y-146194D01*
Y-146118D01*
Y-146041D01*
X285238Y-145855D01*
X285227Y-145670D01*
X285205Y-145473D01*
X285183Y-145309D01*
X285172Y-145244D01*
X285150Y-145189D01*
Y-145178D01*
X285128Y-145145D01*
X285107Y-145101D01*
X285074Y-145036D01*
X284975Y-144905D01*
X284921Y-144839D01*
X284844Y-144784D01*
X284833Y-144773D01*
X284811Y-144763D01*
X284768Y-144741D01*
X284702Y-144708D01*
X284626Y-144675D01*
X284549Y-144653D01*
X284451Y-144642D01*
X284342Y-144631D01*
X284276D01*
X284210Y-144642D01*
X284123Y-144653D01*
X284014Y-144686D01*
X283904Y-144719D01*
X283784Y-144773D01*
X283664Y-144839D01*
X283653Y-144850D01*
X283620Y-144872D01*
X283565Y-144927D01*
X283500Y-144981D01*
X283434Y-145069D01*
X283369Y-145156D01*
X283303Y-145276D01*
X283259Y-145396D01*
Y-145407D01*
X283238Y-145462D01*
X283227Y-145549D01*
X283205Y-145681D01*
X283194Y-145757D01*
X283183Y-145855D01*
X283172Y-145954D01*
Y-146074D01*
X283161Y-146194D01*
X283150Y-146336D01*
Y-146490D01*
Y-146653D01*
Y-149124D01*
X281696D01*
Y-143637D01*
X283041D01*
Y-144446D01*
X283052Y-144435D01*
X283074Y-144402D01*
X283117Y-144358D01*
X283172Y-144304D01*
X283238Y-144227D01*
X283325Y-144150D01*
X283423Y-144063D01*
X283533Y-143976D01*
X283653Y-143899D01*
X283795Y-143812D01*
X283937Y-143735D01*
X284101Y-143659D01*
X284276Y-143604D01*
X284451Y-143560D01*
X284647Y-143527D01*
X284844Y-143517D01*
X284921D01*
X285019Y-143527D01*
D02*
G37*
G36*
X266219D02*
X266340Y-143538D01*
X266471Y-143560D01*
X266613Y-143593D01*
X266766Y-143637D01*
X266919Y-143691D01*
X266941Y-143702D01*
X266985Y-143724D01*
X267061Y-143757D01*
X267149Y-143812D01*
X267247Y-143877D01*
X267345Y-143954D01*
X267444Y-144041D01*
X267531Y-144140D01*
X267542Y-144150D01*
X267564Y-144183D01*
X267597Y-144238D01*
X267640Y-144314D01*
X267695Y-144402D01*
X267739Y-144511D01*
X267782Y-144620D01*
X267815Y-144752D01*
Y-144763D01*
X267826Y-144817D01*
X267848Y-144894D01*
X267859Y-145003D01*
X267881Y-145134D01*
X267892Y-145309D01*
X267903Y-145495D01*
Y-145724D01*
Y-149124D01*
X266449D01*
Y-146336D01*
Y-146326D01*
Y-146293D01*
Y-146249D01*
Y-146194D01*
Y-146118D01*
Y-146041D01*
X266438Y-145855D01*
X266427Y-145670D01*
X266405Y-145473D01*
X266384Y-145309D01*
X266372Y-145244D01*
X266351Y-145189D01*
Y-145178D01*
X266329Y-145145D01*
X266307Y-145101D01*
X266274Y-145036D01*
X266176Y-144905D01*
X266121Y-144839D01*
X266045Y-144784D01*
X266034Y-144773D01*
X266012Y-144763D01*
X265968Y-144741D01*
X265903Y-144708D01*
X265826Y-144675D01*
X265750Y-144653D01*
X265651Y-144642D01*
X265542Y-144631D01*
X265476D01*
X265411Y-144642D01*
X265323Y-144653D01*
X265214Y-144686D01*
X265105Y-144719D01*
X264984Y-144773D01*
X264864Y-144839D01*
X264853Y-144850D01*
X264821Y-144872D01*
X264766Y-144927D01*
X264700Y-144981D01*
X264635Y-145069D01*
X264569Y-145156D01*
X264504Y-145276D01*
X264460Y-145396D01*
Y-145407D01*
X264438Y-145462D01*
X264427Y-145549D01*
X264405Y-145681D01*
X264394Y-145757D01*
X264383Y-145855D01*
X264372Y-145954D01*
Y-146074D01*
X264361Y-146194D01*
X264351Y-146336D01*
Y-146490D01*
Y-146653D01*
Y-149124D01*
X262897D01*
Y-143637D01*
X264241D01*
Y-144446D01*
X264252Y-144435D01*
X264274Y-144402D01*
X264318Y-144358D01*
X264372Y-144304D01*
X264438Y-144227D01*
X264525Y-144150D01*
X264624Y-144063D01*
X264733Y-143976D01*
X264853Y-143899D01*
X264995Y-143812D01*
X265137Y-143735D01*
X265301Y-143659D01*
X265476Y-143604D01*
X265651Y-143560D01*
X265848Y-143527D01*
X266045Y-143517D01*
X266121D01*
X266219Y-143527D01*
D02*
G37*
G36*
X256820Y-143527D02*
X256940Y-143538D01*
X257071Y-143560D01*
X257213Y-143593D01*
X257366Y-143637D01*
X257519Y-143691D01*
X257541Y-143702D01*
X257585Y-143724D01*
X257661Y-143757D01*
X257749Y-143812D01*
X257847Y-143877D01*
X257945Y-143954D01*
X258044Y-144041D01*
X258131Y-144140D01*
X258142Y-144150D01*
X258164Y-144183D01*
X258197Y-144238D01*
X258241Y-144314D01*
X258295Y-144402D01*
X258339Y-144511D01*
X258383Y-144621D01*
X258416Y-144752D01*
Y-144763D01*
X258426Y-144817D01*
X258448Y-144894D01*
X258459Y-145003D01*
X258481Y-145134D01*
X258492Y-145309D01*
X258503Y-145495D01*
Y-145724D01*
Y-149124D01*
X257049D01*
Y-146336D01*
Y-146326D01*
Y-146293D01*
Y-146249D01*
Y-146194D01*
Y-146118D01*
Y-146041D01*
X257038Y-145855D01*
X257027Y-145670D01*
X257006Y-145473D01*
X256984Y-145309D01*
X256973Y-145244D01*
X256951Y-145189D01*
Y-145178D01*
X256929Y-145145D01*
X256907Y-145101D01*
X256874Y-145036D01*
X256776Y-144905D01*
X256721Y-144839D01*
X256645Y-144784D01*
X256634Y-144773D01*
X256612Y-144763D01*
X256568Y-144741D01*
X256503Y-144708D01*
X256426Y-144675D01*
X256350Y-144653D01*
X256251Y-144642D01*
X256142Y-144631D01*
X256077D01*
X256011Y-144642D01*
X255924Y-144653D01*
X255814Y-144686D01*
X255705Y-144719D01*
X255585Y-144773D01*
X255464Y-144839D01*
X255453Y-144850D01*
X255421Y-144872D01*
X255366Y-144927D01*
X255300Y-144981D01*
X255235Y-145069D01*
X255169Y-145156D01*
X255104Y-145276D01*
X255060Y-145396D01*
Y-145407D01*
X255038Y-145462D01*
X255027Y-145549D01*
X255005Y-145681D01*
X254994Y-145757D01*
X254983Y-145855D01*
X254973Y-145954D01*
Y-146074D01*
X254962Y-146194D01*
X254951Y-146336D01*
Y-146490D01*
Y-146653D01*
Y-149124D01*
X253497D01*
Y-143637D01*
X254841D01*
Y-144446D01*
X254852Y-144435D01*
X254874Y-144402D01*
X254918Y-144358D01*
X254973Y-144304D01*
X255038Y-144227D01*
X255126Y-144150D01*
X255224Y-144063D01*
X255333Y-143976D01*
X255453Y-143899D01*
X255596Y-143812D01*
X255738Y-143735D01*
X255902Y-143659D01*
X256077Y-143604D01*
X256251Y-143560D01*
X256448Y-143527D01*
X256645Y-143517D01*
X256721D01*
X256820Y-143527D01*
D02*
G37*
G36*
X261421Y-149124D02*
X259968D01*
Y-143637D01*
X261421D01*
Y-149124D01*
D02*
G37*
G36*
X235812Y-142839D02*
X232151D01*
Y-144631D01*
X235310D01*
Y-145910D01*
X232151D01*
Y-149124D01*
X230621D01*
Y-141560D01*
X235812D01*
Y-142839D01*
D02*
G37*
G36*
X278122Y-143527D02*
X278221Y-143538D01*
X278341Y-143560D01*
X278472Y-143582D01*
X278614Y-143615D01*
X278767Y-143659D01*
X278920Y-143713D01*
X279084Y-143779D01*
X279248Y-143866D01*
X279401Y-143954D01*
X279554Y-144063D01*
X279707Y-144194D01*
X279838Y-144336D01*
X279849Y-144347D01*
X279871Y-144369D01*
X279904Y-144424D01*
X279948Y-144489D01*
X280002Y-144577D01*
X280057Y-144675D01*
X280122Y-144806D01*
X280188Y-144948D01*
X280254Y-145112D01*
X280319Y-145298D01*
X280374Y-145495D01*
X280429Y-145724D01*
X280472Y-145965D01*
X280505Y-146227D01*
X280527Y-146500D01*
Y-146806D01*
X276898D01*
Y-146817D01*
Y-146839D01*
Y-146872D01*
X276909Y-146916D01*
X276920Y-147025D01*
X276942Y-147178D01*
X276986Y-147331D01*
X277051Y-147506D01*
X277128Y-147670D01*
X277237Y-147812D01*
X277248Y-147823D01*
X277303Y-147867D01*
X277368Y-147921D01*
X277467Y-147987D01*
X277587Y-148053D01*
X277740Y-148107D01*
X277904Y-148151D01*
X278079Y-148162D01*
X278133D01*
X278199Y-148151D01*
X278275Y-148140D01*
X278363Y-148118D01*
X278461Y-148085D01*
X278559Y-148041D01*
X278647Y-147976D01*
X278658Y-147965D01*
X278691Y-147943D01*
X278734Y-147899D01*
X278778Y-147834D01*
X278844Y-147746D01*
X278898Y-147648D01*
X278953Y-147517D01*
X279008Y-147375D01*
X280450Y-147615D01*
Y-147626D01*
X280439Y-147648D01*
X280418Y-147692D01*
X280396Y-147746D01*
X280363Y-147812D01*
X280330Y-147889D01*
X280232Y-148063D01*
X280112Y-148260D01*
X279959Y-148468D01*
X279773Y-148654D01*
X279565Y-148828D01*
X279554D01*
X279543Y-148850D01*
X279500Y-148861D01*
X279456Y-148894D01*
X279401Y-148927D01*
X279325Y-148960D01*
X279248Y-148992D01*
X279150Y-149036D01*
X278931Y-149113D01*
X278680Y-149178D01*
X278385Y-149222D01*
X278068Y-149244D01*
X278002D01*
X277937Y-149233D01*
X277838D01*
X277718Y-149211D01*
X277576Y-149189D01*
X277423Y-149167D01*
X277270Y-149124D01*
X277095Y-149080D01*
X276920Y-149014D01*
X276745Y-148938D01*
X276570Y-148850D01*
X276395Y-148741D01*
X276231Y-148621D01*
X276089Y-148479D01*
X275947Y-148315D01*
X275936Y-148304D01*
X275925Y-148282D01*
X275904Y-148238D01*
X275860Y-148184D01*
X275827Y-148107D01*
X275783Y-148020D01*
X275729Y-147921D01*
X275685Y-147801D01*
X275630Y-147670D01*
X275587Y-147528D01*
X275532Y-147375D01*
X275499Y-147200D01*
X275466Y-147025D01*
X275433Y-146839D01*
X275423Y-146632D01*
X275412Y-146424D01*
Y-146413D01*
Y-146369D01*
Y-146293D01*
X275423Y-146194D01*
X275433Y-146085D01*
X275444Y-145954D01*
X275466Y-145812D01*
X275499Y-145648D01*
X275587Y-145309D01*
X275641Y-145134D01*
X275707Y-144948D01*
X275794Y-144773D01*
X275893Y-144609D01*
X276002Y-144446D01*
X276122Y-144292D01*
X276133Y-144282D01*
X276155Y-144260D01*
X276199Y-144216D01*
X276253Y-144172D01*
X276319Y-144118D01*
X276406Y-144052D01*
X276505Y-143976D01*
X276614Y-143899D01*
X276734Y-143833D01*
X276876Y-143757D01*
X277018Y-143691D01*
X277182Y-143637D01*
X277346Y-143593D01*
X277532Y-143549D01*
X277718Y-143527D01*
X277915Y-143517D01*
X278035D01*
X278122Y-143527D01*
D02*
G37*
G36*
X249923Y-143527D02*
X250021Y-143538D01*
X250142Y-143560D01*
X250273Y-143582D01*
X250415Y-143615D01*
X250568Y-143659D01*
X250721Y-143713D01*
X250885Y-143779D01*
X251049Y-143866D01*
X251202Y-143954D01*
X251355Y-144063D01*
X251508Y-144194D01*
X251639Y-144336D01*
X251650Y-144347D01*
X251672Y-144369D01*
X251705Y-144424D01*
X251748Y-144489D01*
X251803Y-144577D01*
X251857Y-144675D01*
X251923Y-144806D01*
X251989Y-144948D01*
X252054Y-145112D01*
X252120Y-145298D01*
X252174Y-145495D01*
X252229Y-145724D01*
X252273Y-145965D01*
X252306Y-146227D01*
X252327Y-146500D01*
Y-146806D01*
X248699D01*
Y-146817D01*
Y-146839D01*
Y-146872D01*
X248710Y-146916D01*
X248721Y-147025D01*
X248743Y-147178D01*
X248786Y-147331D01*
X248852Y-147506D01*
X248928Y-147670D01*
X249038Y-147812D01*
X249048Y-147823D01*
X249103Y-147867D01*
X249169Y-147921D01*
X249267Y-147987D01*
X249387Y-148053D01*
X249540Y-148107D01*
X249704Y-148151D01*
X249879Y-148162D01*
X249934D01*
X249999Y-148151D01*
X250076Y-148140D01*
X250163Y-148118D01*
X250262Y-148085D01*
X250360Y-148041D01*
X250448Y-147976D01*
X250459Y-147965D01*
X250491Y-147943D01*
X250535Y-147899D01*
X250579Y-147834D01*
X250644Y-147746D01*
X250699Y-147648D01*
X250754Y-147517D01*
X250808Y-147375D01*
X252251Y-147615D01*
Y-147626D01*
X252240Y-147648D01*
X252218Y-147692D01*
X252196Y-147746D01*
X252164Y-147812D01*
X252131Y-147889D01*
X252032Y-148063D01*
X251912Y-148260D01*
X251759Y-148468D01*
X251573Y-148654D01*
X251366Y-148828D01*
X251355D01*
X251344Y-148850D01*
X251300Y-148861D01*
X251256Y-148894D01*
X251202Y-148927D01*
X251125Y-148960D01*
X251049Y-148993D01*
X250950Y-149036D01*
X250732Y-149113D01*
X250480Y-149178D01*
X250185Y-149222D01*
X249868Y-149244D01*
X249803D01*
X249737Y-149233D01*
X249639D01*
X249518Y-149211D01*
X249376Y-149189D01*
X249223Y-149167D01*
X249070Y-149124D01*
X248896Y-149080D01*
X248721Y-149014D01*
X248546Y-148938D01*
X248371Y-148850D01*
X248196Y-148741D01*
X248032Y-148621D01*
X247890Y-148479D01*
X247748Y-148315D01*
X247737Y-148304D01*
X247726Y-148282D01*
X247704Y-148238D01*
X247660Y-148184D01*
X247628Y-148107D01*
X247584Y-148020D01*
X247529Y-147921D01*
X247485Y-147801D01*
X247431Y-147670D01*
X247387Y-147528D01*
X247333Y-147375D01*
X247300Y-147200D01*
X247267Y-147025D01*
X247234Y-146839D01*
X247223Y-146632D01*
X247212Y-146424D01*
Y-146413D01*
Y-146369D01*
Y-146293D01*
X247223Y-146194D01*
X247234Y-146085D01*
X247245Y-145954D01*
X247267Y-145812D01*
X247300Y-145648D01*
X247387Y-145309D01*
X247442Y-145134D01*
X247507Y-144948D01*
X247595Y-144773D01*
X247693Y-144609D01*
X247802Y-144446D01*
X247923Y-144293D01*
X247934Y-144282D01*
X247955Y-144260D01*
X247999Y-144216D01*
X248054Y-144172D01*
X248119Y-144118D01*
X248207Y-144052D01*
X248305Y-143976D01*
X248415Y-143899D01*
X248535Y-143833D01*
X248677Y-143757D01*
X248819Y-143691D01*
X248983Y-143637D01*
X249147Y-143593D01*
X249333Y-143549D01*
X249518Y-143527D01*
X249715Y-143517D01*
X249835D01*
X249923Y-143527D01*
D02*
G37*
G36*
X239758D02*
X239867Y-143538D01*
X239987Y-143560D01*
X240130Y-143582D01*
X240272Y-143615D01*
X240436Y-143659D01*
X240600Y-143713D01*
X240763Y-143779D01*
X240938Y-143855D01*
X241113Y-143954D01*
X241277Y-144063D01*
X241441Y-144183D01*
X241594Y-144325D01*
X241605Y-144336D01*
X241627Y-144358D01*
X241671Y-144413D01*
X241715Y-144467D01*
X241780Y-144555D01*
X241846Y-144642D01*
X241922Y-144763D01*
X241999Y-144883D01*
X242064Y-145025D01*
X242141Y-145178D01*
X242206Y-145353D01*
X242272Y-145528D01*
X242316Y-145724D01*
X242359Y-145921D01*
X242381Y-146140D01*
X242392Y-146369D01*
Y-146380D01*
Y-146424D01*
Y-146490D01*
X242381Y-146577D01*
X242370Y-146686D01*
X242348Y-146806D01*
X242326Y-146949D01*
X242294Y-147091D01*
X242250Y-147255D01*
X242195Y-147418D01*
X242130Y-147593D01*
X242053Y-147768D01*
X241955Y-147943D01*
X241846Y-148107D01*
X241725Y-148271D01*
X241583Y-148435D01*
X241572Y-148446D01*
X241550Y-148468D01*
X241507Y-148512D01*
X241441Y-148566D01*
X241365Y-148621D01*
X241266Y-148686D01*
X241157Y-148763D01*
X241037Y-148839D01*
X240895Y-148916D01*
X240742Y-148993D01*
X240578Y-149058D01*
X240392Y-149113D01*
X240206Y-149167D01*
X239999Y-149211D01*
X239791Y-149233D01*
X239561Y-149244D01*
X239485D01*
X239430Y-149233D01*
X239365D01*
X239288Y-149222D01*
X239102Y-149200D01*
X238873Y-149156D01*
X238632Y-149102D01*
X238381Y-149014D01*
X238119Y-148905D01*
X238108D01*
X238086Y-148894D01*
X238053Y-148872D01*
X238009Y-148839D01*
X237889Y-148763D01*
X237736Y-148654D01*
X237572Y-148512D01*
X237397Y-148337D01*
X237233Y-148140D01*
X237080Y-147910D01*
Y-147899D01*
X237069Y-147878D01*
X237047Y-147845D01*
X237025Y-147790D01*
X237004Y-147725D01*
X236971Y-147648D01*
X236938Y-147561D01*
X236905Y-147462D01*
X236873Y-147353D01*
X236840Y-147233D01*
X236785Y-146959D01*
X236741Y-146642D01*
X236730Y-146304D01*
Y-146293D01*
Y-146271D01*
Y-146227D01*
X236741Y-146183D01*
Y-146118D01*
X236752Y-146041D01*
X236774Y-145855D01*
X236818Y-145648D01*
X236883Y-145418D01*
X236960Y-145167D01*
X237080Y-144916D01*
Y-144905D01*
X237102Y-144883D01*
X237113Y-144850D01*
X237146Y-144806D01*
X237233Y-144686D01*
X237343Y-144533D01*
X237485Y-144369D01*
X237659Y-144194D01*
X237856Y-144030D01*
X238086Y-143877D01*
X238097D01*
X238119Y-143866D01*
X238151Y-143844D01*
X238206Y-143823D01*
X238261Y-143790D01*
X238337Y-143768D01*
X238424Y-143735D01*
X238512Y-143691D01*
X238731Y-143626D01*
X238982Y-143571D01*
X239255Y-143527D01*
X239550Y-143517D01*
X239671D01*
X239758Y-143527D01*
D02*
G37*
G36*
X271455Y-143527D02*
X271532D01*
X271608Y-143549D01*
X271717Y-143560D01*
X271827Y-143593D01*
X271947Y-143626D01*
X272078Y-143681D01*
X272209Y-143735D01*
X272351Y-143812D01*
X272493Y-143899D01*
X272635Y-143997D01*
X272778Y-144129D01*
X272909Y-144260D01*
X273040Y-144424D01*
Y-143637D01*
X274395D01*
Y-148566D01*
Y-148577D01*
Y-148610D01*
Y-148654D01*
Y-148719D01*
Y-148807D01*
X274384Y-148894D01*
X274373Y-149102D01*
X274351Y-149342D01*
X274330Y-149583D01*
X274286Y-149812D01*
X274264Y-149911D01*
X274231Y-150009D01*
X274220Y-150031D01*
X274198Y-150085D01*
X274166Y-150173D01*
X274111Y-150282D01*
X274045Y-150402D01*
X273969Y-150534D01*
X273881Y-150654D01*
X273772Y-150763D01*
X273761Y-150774D01*
X273717Y-150807D01*
X273652Y-150862D01*
X273575Y-150916D01*
X273466Y-150982D01*
X273335Y-151058D01*
X273182Y-151124D01*
X273007Y-151189D01*
X272985Y-151200D01*
X272920Y-151211D01*
X272821Y-151244D01*
X272679Y-151266D01*
X272493Y-151299D01*
X272286Y-151331D01*
X272045Y-151342D01*
X271783Y-151353D01*
X271652D01*
X271553Y-151342D01*
X271444D01*
X271313Y-151331D01*
X271171Y-151310D01*
X271018Y-151288D01*
X270690Y-151233D01*
X270362Y-151146D01*
X270209Y-151091D01*
X270056Y-151025D01*
X269925Y-150960D01*
X269805Y-150872D01*
X269794Y-150862D01*
X269783Y-150850D01*
X269717Y-150785D01*
X269619Y-150687D01*
X269520Y-150545D01*
X269411Y-150370D01*
X269313Y-150162D01*
X269247Y-149922D01*
X269236Y-149790D01*
X269225Y-149659D01*
Y-149648D01*
Y-149604D01*
Y-149550D01*
X269236Y-149484D01*
X270898Y-149681D01*
Y-149692D01*
X270908Y-149725D01*
X270919Y-149779D01*
X270930Y-149834D01*
X270985Y-149965D01*
X271029Y-150031D01*
X271083Y-150075D01*
X271094Y-150085D01*
X271127Y-150096D01*
X271171Y-150129D01*
X271247Y-150151D01*
X271335Y-150184D01*
X271444Y-150217D01*
X271575Y-150227D01*
X271728Y-150239D01*
X271827D01*
X271925Y-150227D01*
X272045Y-150217D01*
X272187Y-150195D01*
X272329Y-150162D01*
X272461Y-150118D01*
X272581Y-150064D01*
X272592Y-150053D01*
X272614Y-150042D01*
X272646Y-150020D01*
X272690Y-149976D01*
X272734Y-149922D01*
X272778Y-149856D01*
X272821Y-149779D01*
X272865Y-149692D01*
Y-149681D01*
X272876Y-149659D01*
X272887Y-149616D01*
X272909Y-149539D01*
X272920Y-149451D01*
X272931Y-149342D01*
X272941Y-149200D01*
Y-149036D01*
Y-148238D01*
X272931Y-148249D01*
X272909Y-148271D01*
X272876Y-148315D01*
X272821Y-148380D01*
X272767Y-148446D01*
X272690Y-148522D01*
X272592Y-148599D01*
X272493Y-148676D01*
X272384Y-148763D01*
X272253Y-148839D01*
X271980Y-148981D01*
X271827Y-149036D01*
X271663Y-149080D01*
X271488Y-149113D01*
X271302Y-149124D01*
X271258D01*
X271193Y-149113D01*
X271116D01*
X271029Y-149091D01*
X270919Y-149069D01*
X270799Y-149047D01*
X270668Y-149003D01*
X270537Y-148960D01*
X270395Y-148894D01*
X270242Y-148818D01*
X270100Y-148730D01*
X269958Y-148621D01*
X269815Y-148501D01*
X269684Y-148359D01*
X269553Y-148195D01*
Y-148184D01*
X269531Y-148162D01*
X269510Y-148118D01*
X269477Y-148063D01*
X269433Y-147987D01*
X269389Y-147899D01*
X269345Y-147801D01*
X269302Y-147681D01*
X269258Y-147561D01*
X269214Y-147418D01*
X269171Y-147266D01*
X269127Y-147101D01*
X269072Y-146752D01*
X269061Y-146555D01*
X269050Y-146358D01*
Y-146347D01*
Y-146293D01*
Y-146227D01*
X269061Y-146129D01*
X269072Y-146019D01*
X269083Y-145888D01*
X269105Y-145735D01*
X269138Y-145582D01*
X269214Y-145232D01*
X269269Y-145058D01*
X269324Y-144883D01*
X269400Y-144719D01*
X269488Y-144544D01*
X269586Y-144391D01*
X269706Y-144249D01*
X269717Y-144238D01*
X269739Y-144216D01*
X269772Y-144183D01*
X269826Y-144129D01*
X269892Y-144074D01*
X269969Y-144019D01*
X270056Y-143954D01*
X270165Y-143877D01*
X270274Y-143812D01*
X270406Y-143746D01*
X270679Y-143626D01*
X270843Y-143582D01*
X271007Y-143549D01*
X271182Y-143527D01*
X271357Y-143517D01*
X271400D01*
X271455Y-143527D01*
D02*
G37*
G36*
X128382Y-141781D02*
X128535Y-141792D01*
X128721Y-141814D01*
X128928Y-141847D01*
X129147Y-141891D01*
X129377Y-141956D01*
X129180Y-142973D01*
X129169D01*
X129125Y-142962D01*
X129049Y-142940D01*
X128961Y-142929D01*
X128863Y-142907D01*
X128754Y-142896D01*
X128513Y-142885D01*
X128458D01*
X128404Y-142896D01*
X128338Y-142907D01*
X128185Y-142951D01*
X128120Y-142984D01*
X128054Y-143038D01*
Y-143049D01*
X128032Y-143071D01*
X128010Y-143104D01*
X127989Y-143170D01*
X127967Y-143246D01*
X127945Y-143344D01*
X127934Y-143465D01*
X127923Y-143607D01*
Y-143989D01*
X129005D01*
Y-145126D01*
X127923D01*
Y-149476D01*
X126469D01*
Y-145126D01*
X125660D01*
Y-143989D01*
X126469D01*
Y-143585D01*
Y-143574D01*
Y-143552D01*
Y-143519D01*
Y-143465D01*
X126480Y-143344D01*
X126491Y-143192D01*
X126502Y-143027D01*
X126535Y-142853D01*
X126568Y-142689D01*
X126611Y-142547D01*
X126622Y-142536D01*
X126644Y-142492D01*
X126677Y-142426D01*
X126732Y-142350D01*
X126808Y-142262D01*
X126895Y-142164D01*
X127016Y-142077D01*
X127147Y-141989D01*
X127169Y-141978D01*
X127223Y-141956D01*
X127311Y-141924D01*
X127420Y-141880D01*
X127573Y-141836D01*
X127737Y-141803D01*
X127934Y-141781D01*
X128153Y-141771D01*
X128262D01*
X128382Y-141781D01*
D02*
G37*
G36*
X180015Y-143257D02*
X178562Y-143257D01*
Y-141913D01*
X180015Y-141913D01*
Y-143257D01*
D02*
G37*
G36*
X47828Y-143257D02*
X46374D01*
Y-141913D01*
X47828D01*
Y-143257D01*
D02*
G37*
G36*
X121398Y-143279D02*
X120152D01*
Y-142033D01*
X121398D01*
Y-143279D01*
D02*
G37*
G36*
X119168D02*
X117922D01*
Y-142033D01*
X119168D01*
Y-143279D01*
D02*
G37*
G36*
X157784Y-143880D02*
X157904Y-143902D01*
X158057Y-143935D01*
X158221Y-143989D01*
X158385Y-144055D01*
X158560Y-144153D01*
X158101Y-145410D01*
X158090Y-145399D01*
X158035Y-145378D01*
X157969Y-145334D01*
X157882Y-145290D01*
X157773Y-145246D01*
X157664Y-145203D01*
X157543Y-145181D01*
X157423Y-145170D01*
X157379D01*
X157314Y-145181D01*
X157248Y-145192D01*
X157172Y-145213D01*
X157084Y-145246D01*
X156997Y-145290D01*
X156909Y-145345D01*
X156898Y-145356D01*
X156877Y-145378D01*
X156833Y-145421D01*
X156789Y-145487D01*
X156734Y-145563D01*
X156680Y-145673D01*
X156625Y-145804D01*
X156581Y-145957D01*
Y-145979D01*
X156570Y-146011D01*
X156560Y-146044D01*
Y-146099D01*
X156549Y-146164D01*
X156538Y-146252D01*
X156527Y-146350D01*
X156516Y-146459D01*
X156505Y-146602D01*
X156494Y-146744D01*
Y-146919D01*
X156483Y-147104D01*
X156472Y-147312D01*
Y-147542D01*
Y-147793D01*
Y-149476D01*
X155018D01*
Y-143989D01*
X156363D01*
Y-144765D01*
X156374Y-144755D01*
X156418Y-144689D01*
X156483Y-144590D01*
X156570Y-144470D01*
X156658Y-144350D01*
X156767Y-144230D01*
X156866Y-144121D01*
X156975Y-144044D01*
X156986Y-144033D01*
X157019Y-144011D01*
X157084Y-143989D01*
X157161Y-143957D01*
X157248Y-143924D01*
X157357Y-143891D01*
X157467Y-143880D01*
X157598Y-143869D01*
X157685D01*
X157784Y-143880D01*
D02*
G37*
G36*
X44975Y-143880D02*
X45095Y-143902D01*
X45248Y-143935D01*
X45412Y-143989D01*
X45576Y-144055D01*
X45751Y-144153D01*
X45292Y-145410D01*
X45281Y-145399D01*
X45227Y-145378D01*
X45161Y-145334D01*
X45074Y-145290D01*
X44964Y-145246D01*
X44855Y-145203D01*
X44735Y-145181D01*
X44614Y-145170D01*
X44571D01*
X44505Y-145181D01*
X44440Y-145192D01*
X44363Y-145213D01*
X44276Y-145246D01*
X44188Y-145290D01*
X44101Y-145345D01*
X44090Y-145356D01*
X44068Y-145378D01*
X44024Y-145421D01*
X43981Y-145487D01*
X43926Y-145563D01*
X43871Y-145673D01*
X43817Y-145804D01*
X43773Y-145957D01*
Y-145979D01*
X43762Y-146011D01*
X43751Y-146044D01*
Y-146099D01*
X43740Y-146165D01*
X43729Y-146252D01*
X43718Y-146350D01*
X43707Y-146460D01*
X43696Y-146602D01*
X43685Y-146744D01*
Y-146919D01*
X43674Y-147104D01*
X43664Y-147312D01*
Y-147542D01*
Y-147793D01*
Y-149476D01*
X42210D01*
Y-143989D01*
X43554D01*
Y-144765D01*
X43565Y-144755D01*
X43609Y-144689D01*
X43674Y-144590D01*
X43762Y-144470D01*
X43849Y-144350D01*
X43959Y-144230D01*
X44057Y-144121D01*
X44166Y-144044D01*
X44177Y-144033D01*
X44210Y-144011D01*
X44276Y-143989D01*
X44352Y-143957D01*
X44440Y-143924D01*
X44549Y-143891D01*
X44658Y-143880D01*
X44789Y-143869D01*
X44877D01*
X44975Y-143880D01*
D02*
G37*
G36*
X175414Y-143880D02*
X175534Y-143891D01*
X175665Y-143913D01*
X175807Y-143946D01*
X175960Y-143989D01*
X176113Y-144044D01*
X176135Y-144055D01*
X176179Y-144077D01*
X176255Y-144110D01*
X176343Y-144164D01*
X176441Y-144230D01*
X176540Y-144306D01*
X176638Y-144394D01*
X176725Y-144492D01*
X176736Y-144503D01*
X176758Y-144536D01*
X176791Y-144590D01*
X176835Y-144667D01*
X176889Y-144755D01*
X176933Y-144864D01*
X176977Y-144973D01*
X177010Y-145104D01*
Y-145115D01*
X177021Y-145170D01*
X177042Y-145246D01*
X177053Y-145356D01*
X177075Y-145487D01*
X177086Y-145662D01*
X177097Y-145847D01*
Y-146077D01*
Y-149476D01*
X175643D01*
Y-146689D01*
Y-146678D01*
Y-146645D01*
Y-146602D01*
Y-146547D01*
Y-146470D01*
Y-146394D01*
X175632Y-146208D01*
X175621Y-146022D01*
X175600Y-145826D01*
X175578Y-145662D01*
X175567Y-145596D01*
X175545Y-145541D01*
Y-145530D01*
X175523Y-145498D01*
X175501Y-145454D01*
X175469Y-145388D01*
X175370Y-145257D01*
X175315Y-145192D01*
X175239Y-145137D01*
X175228Y-145126D01*
X175206Y-145115D01*
X175162Y-145093D01*
X175097Y-145061D01*
X175020Y-145028D01*
X174944Y-145006D01*
X174845Y-144995D01*
X174736Y-144984D01*
X174671D01*
X174605Y-144995D01*
X174518Y-145006D01*
X174408Y-145039D01*
X174299Y-145071D01*
X174179Y-145126D01*
X174058Y-145192D01*
X174048Y-145203D01*
X174015Y-145224D01*
X173960Y-145279D01*
X173895Y-145334D01*
X173829Y-145421D01*
X173763Y-145509D01*
X173698Y-145629D01*
X173654Y-145749D01*
Y-145760D01*
X173632Y-145815D01*
X173621Y-145902D01*
X173599Y-146033D01*
X173589Y-146110D01*
X173578Y-146208D01*
X173567Y-146307D01*
Y-146427D01*
X173556Y-146547D01*
X173545Y-146689D01*
Y-146842D01*
Y-147006D01*
Y-149476D01*
X172091D01*
Y-143989D01*
X173435D01*
Y-144798D01*
X173446Y-144787D01*
X173468Y-144755D01*
X173512Y-144711D01*
X173567Y-144656D01*
X173632Y-144580D01*
X173720Y-144503D01*
X173818Y-144416D01*
X173927Y-144328D01*
X174048Y-144252D01*
X174190Y-144164D01*
X174332Y-144088D01*
X174496Y-144011D01*
X174671Y-143957D01*
X174845Y-143913D01*
X175042Y-143880D01*
X175239Y-143869D01*
X175315D01*
X175414Y-143880D01*
D02*
G37*
G36*
X168954D02*
X169074Y-143891D01*
X169206Y-143913D01*
X169348Y-143946D01*
X169501Y-143989D01*
X169654Y-144044D01*
X169676Y-144055D01*
X169719Y-144077D01*
X169796Y-144110D01*
X169883Y-144164D01*
X169982Y-144230D01*
X170080Y-144306D01*
X170178Y-144394D01*
X170266Y-144492D01*
X170277Y-144503D01*
X170299Y-144536D01*
X170331Y-144590D01*
X170375Y-144667D01*
X170430Y-144755D01*
X170473Y-144864D01*
X170517Y-144973D01*
X170550Y-145104D01*
Y-145115D01*
X170561Y-145170D01*
X170583Y-145246D01*
X170594Y-145356D01*
X170615Y-145487D01*
X170626Y-145662D01*
X170637Y-145847D01*
Y-146077D01*
Y-149476D01*
X169184D01*
Y-146689D01*
Y-146678D01*
Y-146645D01*
Y-146602D01*
Y-146547D01*
Y-146470D01*
Y-146394D01*
X169173Y-146208D01*
X169162Y-146022D01*
X169140Y-145826D01*
X169118Y-145662D01*
X169107Y-145596D01*
X169085Y-145541D01*
Y-145530D01*
X169063Y-145498D01*
X169042Y-145454D01*
X169009Y-145388D01*
X168910Y-145257D01*
X168856Y-145192D01*
X168779Y-145137D01*
X168768Y-145126D01*
X168746Y-145115D01*
X168703Y-145093D01*
X168637Y-145061D01*
X168561Y-145028D01*
X168484Y-145006D01*
X168386Y-144995D01*
X168277Y-144984D01*
X168211D01*
X168145Y-144995D01*
X168058Y-145006D01*
X167949Y-145039D01*
X167839Y-145071D01*
X167719Y-145126D01*
X167599Y-145192D01*
X167588Y-145203D01*
X167555Y-145224D01*
X167500Y-145279D01*
X167435Y-145334D01*
X167369Y-145421D01*
X167304Y-145509D01*
X167238Y-145629D01*
X167194Y-145749D01*
Y-145760D01*
X167173Y-145815D01*
X167162Y-145902D01*
X167140Y-146033D01*
X167129Y-146110D01*
X167118Y-146208D01*
X167107Y-146307D01*
Y-146427D01*
X167096Y-146547D01*
X167085Y-146689D01*
Y-146842D01*
Y-147006D01*
Y-149476D01*
X165631D01*
Y-143989D01*
X166976D01*
Y-144798D01*
X166987Y-144787D01*
X167009Y-144755D01*
X167052Y-144711D01*
X167107Y-144656D01*
X167173Y-144580D01*
X167260Y-144503D01*
X167358Y-144416D01*
X167468Y-144328D01*
X167588Y-144252D01*
X167730Y-144164D01*
X167872Y-144088D01*
X168036Y-144011D01*
X168211Y-143957D01*
X168386Y-143913D01*
X168582Y-143880D01*
X168779Y-143869D01*
X168856D01*
X168954Y-143880D01*
D02*
G37*
G36*
X142525D02*
X142646Y-143891D01*
X142777Y-143913D01*
X142919Y-143946D01*
X143072Y-143989D01*
X143225Y-144044D01*
X143247Y-144055D01*
X143290Y-144077D01*
X143367Y-144110D01*
X143455Y-144164D01*
X143553Y-144230D01*
X143651Y-144306D01*
X143750Y-144394D01*
X143837Y-144492D01*
X143848Y-144503D01*
X143870Y-144536D01*
X143903Y-144590D01*
X143946Y-144667D01*
X144001Y-144755D01*
X144045Y-144864D01*
X144088Y-144973D01*
X144121Y-145104D01*
Y-145115D01*
X144132Y-145170D01*
X144154Y-145246D01*
X144165Y-145356D01*
X144187Y-145487D01*
X144198Y-145662D01*
X144209Y-145847D01*
Y-146077D01*
Y-149476D01*
X142755D01*
Y-146689D01*
Y-146678D01*
Y-146645D01*
Y-146602D01*
Y-146547D01*
Y-146470D01*
Y-146394D01*
X142744Y-146208D01*
X142733Y-146022D01*
X142711Y-145826D01*
X142689Y-145662D01*
X142678Y-145596D01*
X142657Y-145541D01*
Y-145530D01*
X142635Y-145498D01*
X142613Y-145454D01*
X142580Y-145388D01*
X142482Y-145257D01*
X142427Y-145192D01*
X142350Y-145137D01*
X142340Y-145126D01*
X142318Y-145115D01*
X142274Y-145093D01*
X142209Y-145061D01*
X142132Y-145028D01*
X142055Y-145006D01*
X141957Y-144995D01*
X141848Y-144984D01*
X141782D01*
X141717Y-144995D01*
X141629Y-145006D01*
X141520Y-145039D01*
X141411Y-145071D01*
X141290Y-145126D01*
X141170Y-145192D01*
X141159Y-145203D01*
X141126Y-145224D01*
X141072Y-145279D01*
X141006Y-145334D01*
X140941Y-145421D01*
X140875Y-145509D01*
X140809Y-145629D01*
X140766Y-145749D01*
Y-145760D01*
X140744Y-145815D01*
X140733Y-145902D01*
X140711Y-146033D01*
X140700Y-146110D01*
X140689Y-146208D01*
X140678Y-146307D01*
Y-146427D01*
X140667Y-146547D01*
X140656Y-146689D01*
Y-146842D01*
Y-147006D01*
Y-149476D01*
X139203D01*
Y-143989D01*
X140547D01*
Y-144798D01*
X140558Y-144787D01*
X140580Y-144755D01*
X140624Y-144711D01*
X140678Y-144656D01*
X140744Y-144580D01*
X140831Y-144503D01*
X140930Y-144416D01*
X141039Y-144328D01*
X141159Y-144252D01*
X141301Y-144164D01*
X141443Y-144088D01*
X141607Y-144011D01*
X141782Y-143957D01*
X141957Y-143913D01*
X142154Y-143880D01*
X142350Y-143869D01*
X142427D01*
X142525Y-143880D01*
D02*
G37*
G36*
X89526Y-143880D02*
X89602Y-143891D01*
X89701Y-143913D01*
X89810Y-143935D01*
X89919Y-143967D01*
X90051Y-144000D01*
X90171Y-144055D01*
X90313Y-144110D01*
X90444Y-144186D01*
X90586Y-144274D01*
X90717Y-144372D01*
X90848Y-144492D01*
X90979Y-144623D01*
X90991Y-144634D01*
X91012Y-144656D01*
X91045Y-144700D01*
X91089Y-144765D01*
X91133Y-144831D01*
X91187Y-144929D01*
X91253Y-145039D01*
X91318Y-145159D01*
X91373Y-145301D01*
X91439Y-145454D01*
X91493Y-145629D01*
X91548Y-145815D01*
X91581Y-146022D01*
X91614Y-146230D01*
X91635Y-146470D01*
X91646Y-146711D01*
Y-146722D01*
Y-146766D01*
Y-146842D01*
X91635Y-146941D01*
X91624Y-147050D01*
X91614Y-147181D01*
X91592Y-147334D01*
X91559Y-147487D01*
X91482Y-147837D01*
X91428Y-148012D01*
X91362Y-148187D01*
X91286Y-148361D01*
X91187Y-148525D01*
X91089Y-148689D01*
X90969Y-148842D01*
X90958Y-148853D01*
X90936Y-148875D01*
X90903Y-148908D01*
X90848Y-148962D01*
X90783Y-149017D01*
X90706Y-149083D01*
X90619Y-149148D01*
X90521Y-149214D01*
X90400Y-149290D01*
X90280Y-149356D01*
X90007Y-149476D01*
X89854Y-149531D01*
X89690Y-149564D01*
X89526Y-149585D01*
X89351Y-149597D01*
X89275D01*
X89187Y-149585D01*
X89078Y-149575D01*
X88947Y-149553D01*
X88805Y-149520D01*
X88662Y-149476D01*
X88520Y-149422D01*
X88509Y-149411D01*
X88455Y-149389D01*
X88389Y-149334D01*
X88291Y-149269D01*
X88170Y-149192D01*
X88050Y-149083D01*
X87908Y-148952D01*
X87755Y-148799D01*
Y-151575D01*
X86301D01*
Y-143989D01*
X87657D01*
Y-144798D01*
X87668Y-144776D01*
X87700Y-144733D01*
X87766Y-144656D01*
X87843Y-144558D01*
X87941Y-144448D01*
X88072Y-144339D01*
X88203Y-144230D01*
X88367Y-144132D01*
X88389Y-144121D01*
X88444Y-144088D01*
X88542Y-144044D01*
X88662Y-144000D01*
X88805Y-143957D01*
X88979Y-143913D01*
X89165Y-143880D01*
X89362Y-143869D01*
X89449D01*
X89526Y-143880D01*
D02*
G37*
G36*
X83066D02*
X83143Y-143891D01*
X83241Y-143913D01*
X83350Y-143935D01*
X83460Y-143967D01*
X83591Y-144000D01*
X83711Y-144055D01*
X83853Y-144110D01*
X83984Y-144186D01*
X84126Y-144274D01*
X84258Y-144372D01*
X84389Y-144492D01*
X84520Y-144623D01*
X84531Y-144634D01*
X84553Y-144656D01*
X84585Y-144700D01*
X84629Y-144765D01*
X84673Y-144831D01*
X84728Y-144929D01*
X84793Y-145039D01*
X84859Y-145159D01*
X84913Y-145301D01*
X84979Y-145454D01*
X85034Y-145629D01*
X85088Y-145815D01*
X85121Y-146022D01*
X85154Y-146230D01*
X85176Y-146470D01*
X85187Y-146711D01*
Y-146722D01*
Y-146766D01*
Y-146842D01*
X85176Y-146941D01*
X85165Y-147050D01*
X85154Y-147181D01*
X85132Y-147334D01*
X85099Y-147487D01*
X85023Y-147837D01*
X84968Y-148012D01*
X84903Y-148187D01*
X84826Y-148361D01*
X84728Y-148525D01*
X84629Y-148689D01*
X84509Y-148842D01*
X84498Y-148853D01*
X84476Y-148875D01*
X84443Y-148908D01*
X84389Y-148962D01*
X84323Y-149017D01*
X84247Y-149083D01*
X84159Y-149148D01*
X84061Y-149214D01*
X83941Y-149290D01*
X83820Y-149356D01*
X83547Y-149476D01*
X83394Y-149531D01*
X83230Y-149564D01*
X83066Y-149585D01*
X82891Y-149597D01*
X82815D01*
X82727Y-149585D01*
X82618Y-149575D01*
X82487Y-149553D01*
X82345Y-149520D01*
X82203Y-149476D01*
X82061Y-149422D01*
X82050Y-149411D01*
X81995Y-149389D01*
X81929Y-149334D01*
X81831Y-149269D01*
X81711Y-149192D01*
X81591Y-149083D01*
X81449Y-148952D01*
X81296Y-148799D01*
Y-151575D01*
X79842D01*
Y-143989D01*
X81197D01*
Y-144798D01*
X81208Y-144776D01*
X81241Y-144733D01*
X81306Y-144656D01*
X81383Y-144558D01*
X81481Y-144448D01*
X81612Y-144339D01*
X81744Y-144230D01*
X81908Y-144132D01*
X81929Y-144121D01*
X81984Y-144088D01*
X82082Y-144044D01*
X82203Y-144000D01*
X82345Y-143957D01*
X82520Y-143913D01*
X82705Y-143880D01*
X82902Y-143869D01*
X82990D01*
X83066Y-143880D01*
D02*
G37*
G36*
X51588Y-143880D02*
X51697Y-143891D01*
X51817Y-143902D01*
X51948Y-143913D01*
X52222Y-143957D01*
X52495Y-144022D01*
X52757Y-144121D01*
X52878Y-144175D01*
X52987Y-144241D01*
X52998D01*
X53009Y-144263D01*
X53074Y-144306D01*
X53173Y-144394D01*
X53282Y-144514D01*
X53413Y-144656D01*
X53533Y-144842D01*
X53654Y-145061D01*
X53741Y-145312D01*
X52375Y-145563D01*
Y-145552D01*
X52353Y-145509D01*
X52331Y-145454D01*
X52298Y-145388D01*
X52255Y-145301D01*
X52189Y-145224D01*
X52123Y-145148D01*
X52036Y-145082D01*
X52025Y-145071D01*
X51992Y-145050D01*
X51938Y-145028D01*
X51861Y-144995D01*
X51763Y-144962D01*
X51643Y-144929D01*
X51500Y-144918D01*
X51336Y-144907D01*
X51238D01*
X51140Y-144918D01*
X51020Y-144929D01*
X50877Y-144951D01*
X50746Y-144973D01*
X50626Y-145017D01*
X50517Y-145071D01*
X50506D01*
X50495Y-145093D01*
X50440Y-145148D01*
X50375Y-145246D01*
X50364Y-145301D01*
X50353Y-145367D01*
Y-145378D01*
Y-145388D01*
X50375Y-145454D01*
X50418Y-145541D01*
X50451Y-145585D01*
X50495Y-145629D01*
X50506Y-145640D01*
X50550Y-145651D01*
X50571Y-145673D01*
X50615Y-145684D01*
X50670Y-145705D01*
X50735Y-145738D01*
X50823Y-145760D01*
X50910Y-145793D01*
X51020Y-145826D01*
X51151Y-145858D01*
X51293Y-145902D01*
X51457Y-145946D01*
X51643Y-145990D01*
X51850Y-146044D01*
X51861D01*
X51905Y-146055D01*
X51960Y-146066D01*
X52036Y-146088D01*
X52134Y-146121D01*
X52244Y-146143D01*
X52484Y-146219D01*
X52757Y-146318D01*
X53020Y-146427D01*
X53151Y-146492D01*
X53271Y-146547D01*
X53369Y-146624D01*
X53468Y-146689D01*
X53490Y-146711D01*
X53544Y-146755D01*
X53610Y-146842D01*
X53697Y-146962D01*
X53785Y-147115D01*
X53850Y-147301D01*
X53905Y-147520D01*
X53927Y-147760D01*
Y-147771D01*
Y-147793D01*
Y-147837D01*
X53916Y-147891D01*
X53905Y-147946D01*
X53894Y-148023D01*
X53850Y-148208D01*
X53774Y-148405D01*
X53719Y-148514D01*
X53664Y-148624D01*
X53588Y-148733D01*
X53501Y-148842D01*
X53402Y-148952D01*
X53293Y-149061D01*
X53282Y-149072D01*
X53260Y-149083D01*
X53227Y-149105D01*
X53173Y-149148D01*
X53107Y-149181D01*
X53031Y-149225D01*
X52932Y-149279D01*
X52823Y-149323D01*
X52703Y-149378D01*
X52561Y-149422D01*
X52408Y-149476D01*
X52244Y-149509D01*
X52058Y-149542D01*
X51861Y-149575D01*
X51653Y-149585D01*
X51435Y-149597D01*
X51326D01*
X51249Y-149585D01*
X51151D01*
X51041Y-149575D01*
X50921Y-149564D01*
X50790Y-149542D01*
X50506Y-149487D01*
X50211Y-149411D01*
X49916Y-149301D01*
X49784Y-149225D01*
X49653Y-149148D01*
X49642Y-149137D01*
X49620Y-149127D01*
X49588Y-149105D01*
X49555Y-149061D01*
X49435Y-148962D01*
X49303Y-148820D01*
X49161Y-148646D01*
X49030Y-148438D01*
X48910Y-148187D01*
X48812Y-147913D01*
X50265Y-147695D01*
Y-147716D01*
X50287Y-147760D01*
X50309Y-147837D01*
X50342Y-147935D01*
X50397Y-148044D01*
X50462Y-148143D01*
X50538Y-148252D01*
X50637Y-148339D01*
X50648Y-148351D01*
X50692Y-148372D01*
X50757Y-148405D01*
X50845Y-148438D01*
X50954Y-148482D01*
X51096Y-148514D01*
X51249Y-148536D01*
X51435Y-148547D01*
X51522D01*
X51632Y-148536D01*
X51752Y-148525D01*
X51883Y-148503D01*
X52025Y-148460D01*
X52156Y-148416D01*
X52276Y-148351D01*
X52287Y-148339D01*
X52309Y-148318D01*
X52342Y-148285D01*
X52375Y-148241D01*
X52408Y-148187D01*
X52440Y-148121D01*
X52462Y-148044D01*
X52473Y-147957D01*
Y-147946D01*
Y-147924D01*
X52462Y-147859D01*
X52429Y-147771D01*
X52364Y-147684D01*
X52342Y-147662D01*
X52309Y-147651D01*
X52266Y-147618D01*
X52200Y-147596D01*
X52113Y-147564D01*
X52014Y-147531D01*
X51883Y-147498D01*
X51861D01*
X51806Y-147476D01*
X51719Y-147454D01*
X51599Y-147432D01*
X51457Y-147399D01*
X51304Y-147356D01*
X51129Y-147312D01*
X50943Y-147257D01*
X50560Y-147148D01*
X50375Y-147093D01*
X50200Y-147028D01*
X50036Y-146973D01*
X49883Y-146908D01*
X49752Y-146842D01*
X49653Y-146788D01*
X49642Y-146776D01*
X49620Y-146766D01*
X49599Y-146744D01*
X49555Y-146700D01*
X49446Y-146602D01*
X49336Y-146460D01*
X49216Y-146285D01*
X49107Y-146077D01*
X49063Y-145957D01*
X49041Y-145826D01*
X49019Y-145694D01*
X49008Y-145552D01*
Y-145541D01*
Y-145520D01*
Y-145487D01*
X49019Y-145432D01*
X49030Y-145378D01*
X49041Y-145301D01*
X49074Y-145137D01*
X49139Y-144951D01*
X49249Y-144755D01*
X49303Y-144645D01*
X49380Y-144547D01*
X49467Y-144448D01*
X49566Y-144361D01*
X49577Y-144350D01*
X49588Y-144339D01*
X49620Y-144317D01*
X49675Y-144284D01*
X49730Y-144252D01*
X49806Y-144208D01*
X49894Y-144164D01*
X49992Y-144110D01*
X50112Y-144066D01*
X50243Y-144022D01*
X50385Y-143978D01*
X50538Y-143946D01*
X50713Y-143913D01*
X50899Y-143891D01*
X51096Y-143869D01*
X51500D01*
X51588Y-143880D01*
D02*
G37*
G36*
X164156Y-149476D02*
X162812D01*
Y-148656D01*
X162801Y-148678D01*
X162757Y-148733D01*
X162691Y-148810D01*
X162593Y-148908D01*
X162484Y-149028D01*
X162341Y-149137D01*
X162188Y-149258D01*
X162014Y-149356D01*
X161992Y-149367D01*
X161926Y-149389D01*
X161828Y-149433D01*
X161697Y-149476D01*
X161544Y-149520D01*
X161369Y-149564D01*
X161183Y-149585D01*
X160986Y-149597D01*
X160888D01*
X160790Y-149585D01*
X160658Y-149564D01*
X160494Y-149542D01*
X160330Y-149498D01*
X160155Y-149433D01*
X159992Y-149356D01*
X159970Y-149345D01*
X159926Y-149312D01*
X159839Y-149258D01*
X159751Y-149181D01*
X159642Y-149083D01*
X159543Y-148973D01*
X159445Y-148831D01*
X159358Y-148678D01*
X159347Y-148656D01*
X159325Y-148602D01*
X159292Y-148503D01*
X159259Y-148361D01*
X159227Y-148187D01*
X159194Y-147979D01*
X159172Y-147738D01*
X159161Y-147465D01*
Y-143989D01*
X160615D01*
Y-146514D01*
Y-146525D01*
Y-146569D01*
Y-146624D01*
Y-146700D01*
Y-146787D01*
Y-146886D01*
X160626Y-147115D01*
X160636Y-147367D01*
X160647Y-147596D01*
X160658Y-147695D01*
X160669Y-147793D01*
X160680Y-147870D01*
X160691Y-147924D01*
Y-147935D01*
X160702Y-147968D01*
X160724Y-148012D01*
X160757Y-148077D01*
X160790Y-148143D01*
X160844Y-148208D01*
X160899Y-148274D01*
X160975Y-148339D01*
X160986Y-148350D01*
X161019Y-148361D01*
X161063Y-148383D01*
X161128Y-148405D01*
X161205Y-148438D01*
X161303Y-148460D01*
X161401Y-148471D01*
X161522Y-148482D01*
X161587D01*
X161653Y-148471D01*
X161740Y-148460D01*
X161850Y-148438D01*
X161959Y-148394D01*
X162079Y-148350D01*
X162188Y-148285D01*
X162199Y-148274D01*
X162232Y-148252D01*
X162287Y-148208D01*
X162352Y-148143D01*
X162418Y-148066D01*
X162484Y-147990D01*
X162549Y-147891D01*
X162593Y-147782D01*
Y-147771D01*
X162615Y-147716D01*
Y-147673D01*
X162626Y-147618D01*
X162637Y-147564D01*
X162648Y-147487D01*
X162659Y-147389D01*
X162669Y-147290D01*
X162680Y-147170D01*
Y-147028D01*
X162691Y-146875D01*
X162702Y-146700D01*
Y-146514D01*
Y-146307D01*
Y-143989D01*
X164156D01*
Y-149476D01*
D02*
G37*
G36*
X180015Y-149476D02*
X178562Y-149476D01*
Y-143989D01*
X180015Y-143989D01*
Y-149476D01*
D02*
G37*
G36*
X124808Y-149476D02*
X123354D01*
Y-141913D01*
X124808D01*
Y-149476D01*
D02*
G37*
G36*
X119857Y-143880D02*
X119944D01*
X120163Y-143902D01*
X120392Y-143924D01*
X120633Y-143967D01*
X120862Y-144033D01*
X120960Y-144066D01*
X121059Y-144110D01*
X121070D01*
X121081Y-144121D01*
X121135Y-144153D01*
X121223Y-144197D01*
X121321Y-144263D01*
X121441Y-144350D01*
X121551Y-144448D01*
X121649Y-144569D01*
X121737Y-144689D01*
X121748Y-144711D01*
X121769Y-144755D01*
X121802Y-144853D01*
X121813Y-144907D01*
X121835Y-144984D01*
X121857Y-145061D01*
X121868Y-145159D01*
X121890Y-145268D01*
X121900Y-145388D01*
X121911Y-145520D01*
X121922Y-145662D01*
X121933Y-145815D01*
Y-145990D01*
X121911Y-147684D01*
Y-147695D01*
Y-147716D01*
Y-147749D01*
Y-147804D01*
Y-147935D01*
X121922Y-148088D01*
Y-148263D01*
X121944Y-148438D01*
X121955Y-148613D01*
X121977Y-148755D01*
Y-148766D01*
X121988Y-148810D01*
X122010Y-148886D01*
X122032Y-148973D01*
X122075Y-149083D01*
X122119Y-149203D01*
X122174Y-149334D01*
X122239Y-149476D01*
X120808Y-149476D01*
Y-149465D01*
X120797Y-149454D01*
X120786Y-149411D01*
X120764Y-149367D01*
X120742Y-149312D01*
X120720Y-149236D01*
X120698Y-149148D01*
X120665Y-149050D01*
Y-149039D01*
X120654Y-149028D01*
X120644Y-148984D01*
X120622Y-148930D01*
X120611Y-148886D01*
X120589Y-148897D01*
X120545Y-148941D01*
X120469Y-149006D01*
X120370Y-149083D01*
X120250Y-149170D01*
X120119Y-149269D01*
X119966Y-149345D01*
X119813Y-149422D01*
X119791Y-149433D01*
X119736Y-149443D01*
X119649Y-149476D01*
X119540Y-149509D01*
X119409Y-149542D01*
X119255Y-149564D01*
X119081Y-149585D01*
X118906Y-149597D01*
X118829D01*
X118764Y-149585D01*
X118698D01*
X118611Y-149575D01*
X118425Y-149542D01*
X118206Y-149487D01*
X117988Y-149411D01*
X117769Y-149301D01*
X117572Y-149148D01*
Y-149137D01*
X117550Y-149127D01*
X117496Y-149061D01*
X117419Y-148962D01*
X117332Y-148831D01*
X117244Y-148667D01*
X117168Y-148471D01*
X117113Y-148241D01*
X117102Y-148121D01*
X117091Y-147990D01*
Y-147968D01*
Y-147913D01*
X117102Y-147826D01*
X117124Y-147716D01*
X117146Y-147585D01*
X117179Y-147454D01*
X117233Y-147312D01*
X117310Y-147170D01*
X117321Y-147148D01*
X117354Y-147104D01*
X117397Y-147039D01*
X117474Y-146962D01*
X117550Y-146875D01*
X117660Y-146776D01*
X117780Y-146689D01*
X117922Y-146613D01*
X117944Y-146602D01*
X117999Y-146580D01*
X118086Y-146547D01*
X118217Y-146492D01*
X118381Y-146438D01*
X118578Y-146383D01*
X118818Y-146328D01*
X119081Y-146274D01*
X119091D01*
X119124Y-146263D01*
X119179Y-146252D01*
X119245Y-146241D01*
X119332Y-146230D01*
X119430Y-146208D01*
X119649Y-146153D01*
X119878Y-146099D01*
X120119Y-146044D01*
X120327Y-145979D01*
X120425Y-145946D01*
X120501Y-145913D01*
Y-145771D01*
Y-145749D01*
Y-145705D01*
X120491Y-145629D01*
X120480Y-145530D01*
X120447Y-145432D01*
X120414Y-145334D01*
X120359Y-145246D01*
X120283Y-145170D01*
X120272Y-145159D01*
X120239Y-145137D01*
X120185Y-145115D01*
X120108Y-145071D01*
X119999Y-145039D01*
X119868Y-145017D01*
X119704Y-144995D01*
X119507Y-144984D01*
X119441D01*
X119376Y-144995D01*
X119288Y-145006D01*
X119190Y-145028D01*
X119081Y-145050D01*
X118982Y-145093D01*
X118895Y-145148D01*
X118884Y-145159D01*
X118862Y-145181D01*
X118818Y-145213D01*
X118774Y-145268D01*
X118709Y-145345D01*
X118654Y-145443D01*
X118600Y-145552D01*
X118545Y-145684D01*
X117244Y-145443D01*
Y-145432D01*
X117255Y-145410D01*
X117266Y-145367D01*
X117288Y-145312D01*
X117310Y-145246D01*
X117343Y-145170D01*
X117419Y-144995D01*
X117528Y-144809D01*
X117660Y-144612D01*
X117813Y-144427D01*
X117999Y-144263D01*
X118009D01*
X118020Y-144241D01*
X118053Y-144230D01*
X118097Y-144197D01*
X118163Y-144175D01*
X118228Y-144142D01*
X118315Y-144099D01*
X118403Y-144066D01*
X118512Y-144033D01*
X118632Y-143989D01*
X118764Y-143957D01*
X118917Y-143935D01*
X119070Y-143902D01*
X119245Y-143891D01*
X119419Y-143869D01*
X119780D01*
X119857Y-143880D01*
D02*
G37*
G36*
X112457Y-144711D02*
X112468Y-144700D01*
X112490Y-144678D01*
X112533Y-144634D01*
X112577Y-144580D01*
X112654Y-144514D01*
X112730Y-144448D01*
X112829Y-144372D01*
X112927Y-144284D01*
X113047Y-144208D01*
X113178Y-144132D01*
X113463Y-144000D01*
X113616Y-143946D01*
X113779Y-143902D01*
X113954Y-143880D01*
X114129Y-143869D01*
X114217D01*
X114315Y-143880D01*
X114435Y-143891D01*
X114577Y-143913D01*
X114719Y-143957D01*
X114883Y-144000D01*
X115036Y-144066D01*
X115058Y-144077D01*
X115102Y-144099D01*
X115179Y-144142D01*
X115266Y-144197D01*
X115364Y-144263D01*
X115463Y-144339D01*
X115561Y-144438D01*
X115649Y-144536D01*
X115659Y-144547D01*
X115681Y-144590D01*
X115714Y-144645D01*
X115758Y-144722D01*
X115813Y-144820D01*
X115856Y-144929D01*
X115900Y-145050D01*
X115933Y-145181D01*
Y-145192D01*
X115944Y-145246D01*
X115955Y-145334D01*
X115977Y-145443D01*
X115987Y-145596D01*
X115998Y-145782D01*
X116009Y-146001D01*
Y-146263D01*
Y-149476D01*
X114556D01*
Y-146591D01*
Y-146580D01*
Y-146558D01*
Y-146514D01*
Y-146449D01*
Y-146383D01*
Y-146307D01*
X114545Y-146132D01*
X114534Y-145946D01*
X114523Y-145760D01*
X114501Y-145607D01*
X114479Y-145552D01*
X114468Y-145498D01*
Y-145487D01*
X114446Y-145454D01*
X114424Y-145421D01*
X114402Y-145367D01*
X114304Y-145246D01*
X114250Y-145181D01*
X114173Y-145126D01*
X114162Y-145115D01*
X114140Y-145104D01*
X114086Y-145082D01*
X114031Y-145050D01*
X113954Y-145028D01*
X113867Y-145006D01*
X113758Y-144995D01*
X113648Y-144984D01*
X113583D01*
X113517Y-144995D01*
X113430Y-145006D01*
X113331Y-145028D01*
X113222Y-145061D01*
X113113Y-145104D01*
X113004Y-145170D01*
X112993Y-145181D01*
X112960Y-145203D01*
X112905Y-145246D01*
X112850Y-145301D01*
X112774Y-145378D01*
X112708Y-145465D01*
X112643Y-145574D01*
X112588Y-145694D01*
Y-145705D01*
X112566Y-145760D01*
X112544Y-145836D01*
X112523Y-145957D01*
X112501Y-146099D01*
X112479Y-146285D01*
X112468Y-146492D01*
X112457Y-146733D01*
Y-149476D01*
X111003D01*
Y-141913D01*
X112457D01*
Y-144711D01*
D02*
G37*
G36*
X98117Y-143880D02*
X98204D01*
X98423Y-143902D01*
X98652Y-143924D01*
X98893Y-143967D01*
X99122Y-144033D01*
X99221Y-144066D01*
X99319Y-144110D01*
X99330D01*
X99341Y-144121D01*
X99396Y-144153D01*
X99483Y-144197D01*
X99581Y-144263D01*
X99702Y-144350D01*
X99811Y-144448D01*
X99909Y-144569D01*
X99997Y-144689D01*
X100008Y-144711D01*
X100030Y-144755D01*
X100062Y-144853D01*
X100073Y-144907D01*
X100095Y-144984D01*
X100117Y-145061D01*
X100128Y-145159D01*
X100150Y-145268D01*
X100161Y-145388D01*
X100172Y-145520D01*
X100183Y-145662D01*
X100194Y-145815D01*
Y-145990D01*
X100172Y-147684D01*
Y-147695D01*
Y-147716D01*
Y-147749D01*
Y-147804D01*
Y-147935D01*
X100183Y-148088D01*
Y-148263D01*
X100205Y-148438D01*
X100215Y-148613D01*
X100237Y-148755D01*
Y-148766D01*
X100248Y-148810D01*
X100270Y-148886D01*
X100292Y-148974D01*
X100336Y-149083D01*
X100379Y-149203D01*
X100434Y-149334D01*
X100500Y-149476D01*
X99068D01*
Y-149465D01*
X99057Y-149454D01*
X99046Y-149411D01*
X99024Y-149367D01*
X99002Y-149312D01*
X98980Y-149236D01*
X98958Y-149148D01*
X98926Y-149050D01*
Y-149039D01*
X98915Y-149028D01*
X98904Y-148984D01*
X98882Y-148930D01*
X98871Y-148886D01*
X98849Y-148897D01*
X98805Y-148941D01*
X98729Y-149006D01*
X98631Y-149083D01*
X98510Y-149170D01*
X98379Y-149269D01*
X98226Y-149345D01*
X98073Y-149422D01*
X98051Y-149433D01*
X97997Y-149443D01*
X97909Y-149476D01*
X97800Y-149509D01*
X97669Y-149542D01*
X97516Y-149564D01*
X97341Y-149585D01*
X97166Y-149597D01*
X97089D01*
X97024Y-149585D01*
X96958D01*
X96871Y-149575D01*
X96685Y-149542D01*
X96466Y-149487D01*
X96248Y-149411D01*
X96029Y-149301D01*
X95833Y-149148D01*
Y-149137D01*
X95811Y-149127D01*
X95756Y-149061D01*
X95679Y-148962D01*
X95592Y-148831D01*
X95505Y-148667D01*
X95428Y-148471D01*
X95373Y-148241D01*
X95363Y-148121D01*
X95351Y-147990D01*
Y-147968D01*
Y-147913D01*
X95363Y-147826D01*
X95384Y-147716D01*
X95406Y-147585D01*
X95439Y-147454D01*
X95494Y-147312D01*
X95570Y-147170D01*
X95581Y-147148D01*
X95614Y-147104D01*
X95658Y-147039D01*
X95734Y-146962D01*
X95811Y-146875D01*
X95920Y-146776D01*
X96040Y-146689D01*
X96182Y-146613D01*
X96204Y-146602D01*
X96259Y-146580D01*
X96346Y-146547D01*
X96477Y-146492D01*
X96641Y-146438D01*
X96838Y-146383D01*
X97079Y-146328D01*
X97341Y-146274D01*
X97352D01*
X97385Y-146263D01*
X97439Y-146252D01*
X97505Y-146241D01*
X97592Y-146230D01*
X97691Y-146208D01*
X97909Y-146153D01*
X98139Y-146099D01*
X98379Y-146044D01*
X98587Y-145979D01*
X98685Y-145946D01*
X98762Y-145913D01*
Y-145771D01*
Y-145749D01*
Y-145705D01*
X98751Y-145629D01*
X98740Y-145530D01*
X98707Y-145432D01*
X98674Y-145334D01*
X98620Y-145246D01*
X98543Y-145170D01*
X98532Y-145159D01*
X98499Y-145137D01*
X98445Y-145115D01*
X98368Y-145071D01*
X98259Y-145039D01*
X98128Y-145017D01*
X97964Y-144995D01*
X97767Y-144984D01*
X97702D01*
X97636Y-144995D01*
X97549Y-145006D01*
X97450Y-145028D01*
X97341Y-145050D01*
X97242Y-145093D01*
X97155Y-145148D01*
X97144Y-145159D01*
X97122Y-145181D01*
X97079Y-145213D01*
X97035Y-145268D01*
X96969Y-145345D01*
X96914Y-145443D01*
X96860Y-145552D01*
X96805Y-145684D01*
X95505Y-145443D01*
Y-145432D01*
X95516Y-145410D01*
X95526Y-145367D01*
X95548Y-145312D01*
X95570Y-145246D01*
X95603Y-145170D01*
X95679Y-144995D01*
X95789Y-144809D01*
X95920Y-144612D01*
X96073Y-144427D01*
X96259Y-144263D01*
X96270D01*
X96281Y-144241D01*
X96313Y-144230D01*
X96357Y-144197D01*
X96423Y-144175D01*
X96488Y-144142D01*
X96576Y-144099D01*
X96663Y-144066D01*
X96772Y-144033D01*
X96893Y-143989D01*
X97024Y-143957D01*
X97177Y-143935D01*
X97330Y-143902D01*
X97505Y-143891D01*
X97680Y-143869D01*
X98040D01*
X98117Y-143880D01*
D02*
G37*
G36*
X94248Y-149476D02*
X92794D01*
Y-141913D01*
X94248D01*
Y-149476D01*
D02*
G37*
G36*
X68945Y-145924D02*
X70639Y-143989D01*
X72420D01*
X70540Y-146001D01*
X72552Y-149476D01*
X70989D01*
X69600Y-147017D01*
X68945Y-147727D01*
Y-149476D01*
X67491D01*
Y-141913D01*
X68945D01*
Y-145924D01*
D02*
G37*
G36*
X56605Y-145924D02*
X58299Y-143989D01*
X60080D01*
X58201Y-146001D01*
X60212Y-149476D01*
X58649D01*
X57261Y-147017D01*
X56605Y-147727D01*
Y-149476D01*
X55151D01*
Y-141913D01*
X56605D01*
Y-145924D01*
D02*
G37*
G36*
X47828Y-149476D02*
X46374D01*
Y-143989D01*
X47828D01*
Y-149476D01*
D02*
G37*
G36*
X41019Y-143192D02*
X37357D01*
Y-144984D01*
X40516D01*
Y-146263D01*
X37357D01*
Y-149476D01*
X35827D01*
Y-141913D01*
X41019D01*
Y-143192D01*
D02*
G37*
G36*
X183032Y-143989D02*
X184027D01*
Y-145148D01*
X183032D01*
Y-147367D01*
Y-147378D01*
Y-147399D01*
Y-147432D01*
Y-147476D01*
Y-147585D01*
Y-147716D01*
X183043Y-147848D01*
Y-147979D01*
Y-148077D01*
X183054Y-148121D01*
Y-148143D01*
X183065Y-148165D01*
X183087Y-148208D01*
X183119Y-148263D01*
X183185Y-148329D01*
X183207Y-148339D01*
X183251Y-148361D01*
X183327Y-148383D01*
X183425Y-148394D01*
X183469D01*
X183513Y-148383D01*
X183579Y-148372D01*
X183666Y-148361D01*
X183764Y-148339D01*
X183885Y-148307D01*
X184016Y-148263D01*
X184147Y-149389D01*
X184136D01*
X184125Y-149400D01*
X184059Y-149422D01*
X183950Y-149454D01*
X183808Y-149487D01*
X183644Y-149531D01*
X183447Y-149564D01*
X183229Y-149585D01*
X182999Y-149596D01*
X182934D01*
X182857Y-149585D01*
X182759Y-149575D01*
X182650Y-149564D01*
X182529Y-149542D01*
X182409Y-149509D01*
X182289Y-149465D01*
X182278Y-149454D01*
X182234Y-149443D01*
X182179Y-149411D01*
X182114Y-149378D01*
X181961Y-149268D01*
X181884Y-149203D01*
X181819Y-149126D01*
X181808Y-149116D01*
X181797Y-149083D01*
X181775Y-149039D01*
X181742Y-148973D01*
X181710Y-148897D01*
X181677Y-148799D01*
X181644Y-148689D01*
X181622Y-148569D01*
Y-148558D01*
X181611Y-148514D01*
Y-148449D01*
X181600Y-148339D01*
X181589Y-148197D01*
Y-148022D01*
X181578Y-147924D01*
Y-147804D01*
Y-147684D01*
Y-147542D01*
Y-145148D01*
X180912D01*
Y-143989D01*
X181578D01*
Y-142896D01*
X183032Y-142044D01*
Y-143989D01*
D02*
G37*
G36*
X150013Y-144634D02*
X150023Y-144623D01*
X150045Y-144601D01*
X150078Y-144569D01*
X150133Y-144514D01*
X150198Y-144459D01*
X150275Y-144394D01*
X150362Y-144317D01*
X150461Y-144252D01*
X150690Y-144110D01*
X150963Y-143989D01*
X151105Y-143935D01*
X151269Y-143902D01*
X151433Y-143880D01*
X151597Y-143869D01*
X151696D01*
X151761Y-143880D01*
X151849Y-143891D01*
X151947Y-143913D01*
X152056Y-143935D01*
X152188Y-143957D01*
X152450Y-144044D01*
X152581Y-144110D01*
X152723Y-144175D01*
X152865Y-144263D01*
X152996Y-144361D01*
X153128Y-144470D01*
X153259Y-144601D01*
X153270Y-144612D01*
X153291Y-144634D01*
X153324Y-144678D01*
X153368Y-144733D01*
X153412Y-144809D01*
X153466Y-144897D01*
X153532Y-145006D01*
X153597Y-145126D01*
X153652Y-145268D01*
X153718Y-145421D01*
X153772Y-145596D01*
X153827Y-145782D01*
X153860Y-145979D01*
X153893Y-146197D01*
X153914Y-146427D01*
X153925Y-146678D01*
Y-146689D01*
Y-146744D01*
Y-146809D01*
X153914Y-146908D01*
X153904Y-147028D01*
X153893Y-147159D01*
X153871Y-147312D01*
X153838Y-147476D01*
X153761Y-147826D01*
X153707Y-148001D01*
X153641Y-148187D01*
X153565Y-148361D01*
X153466Y-148536D01*
X153368Y-148689D01*
X153248Y-148842D01*
X153237Y-148853D01*
X153215Y-148875D01*
X153182Y-148908D01*
X153128Y-148962D01*
X153062Y-149017D01*
X152985Y-149083D01*
X152898Y-149148D01*
X152800Y-149214D01*
X152679Y-149290D01*
X152559Y-149356D01*
X152275Y-149476D01*
X152122Y-149531D01*
X151969Y-149564D01*
X151794Y-149585D01*
X151619Y-149597D01*
X151543D01*
X151444Y-149585D01*
X151324Y-149564D01*
X151182Y-149542D01*
X151029Y-149498D01*
X150865Y-149443D01*
X150690Y-149367D01*
X150668Y-149356D01*
X150614Y-149323D01*
X150526Y-149269D01*
X150417Y-149192D01*
X150297Y-149094D01*
X150165Y-148984D01*
X150034Y-148842D01*
X149903Y-148678D01*
Y-149476D01*
X148559D01*
Y-141913D01*
X150013D01*
Y-144634D01*
D02*
G37*
G36*
X135629Y-143880D02*
X135727Y-143891D01*
X135847Y-143913D01*
X135978Y-143935D01*
X136120Y-143967D01*
X136274Y-144011D01*
X136426Y-144066D01*
X136590Y-144131D01*
X136754Y-144219D01*
X136907Y-144306D01*
X137060Y-144416D01*
X137213Y-144547D01*
X137345Y-144689D01*
X137355Y-144700D01*
X137377Y-144722D01*
X137410Y-144776D01*
X137454Y-144842D01*
X137509Y-144929D01*
X137563Y-145028D01*
X137629Y-145159D01*
X137694Y-145301D01*
X137760Y-145465D01*
X137826Y-145651D01*
X137880Y-145847D01*
X137935Y-146077D01*
X137978Y-146318D01*
X138011Y-146580D01*
X138033Y-146853D01*
Y-147159D01*
X134404D01*
Y-147170D01*
Y-147192D01*
Y-147225D01*
X134415Y-147268D01*
X134426Y-147378D01*
X134448Y-147531D01*
X134492Y-147684D01*
X134557Y-147859D01*
X134634Y-148022D01*
X134743Y-148165D01*
X134754Y-148176D01*
X134809Y-148219D01*
X134874Y-148274D01*
X134973Y-148339D01*
X135093Y-148405D01*
X135246Y-148460D01*
X135410Y-148503D01*
X135585Y-148514D01*
X135640D01*
X135705Y-148503D01*
X135782Y-148493D01*
X135869Y-148471D01*
X135967Y-148438D01*
X136066Y-148394D01*
X136153Y-148329D01*
X136164Y-148318D01*
X136197Y-148296D01*
X136241Y-148252D01*
X136284Y-148187D01*
X136350Y-148099D01*
X136405Y-148001D01*
X136459Y-147870D01*
X136514Y-147727D01*
X137957Y-147968D01*
Y-147979D01*
X137946Y-148001D01*
X137924Y-148044D01*
X137902Y-148099D01*
X137869Y-148165D01*
X137837Y-148241D01*
X137738Y-148416D01*
X137618Y-148613D01*
X137465Y-148820D01*
X137279Y-149006D01*
X137071Y-149181D01*
X137060D01*
X137049Y-149203D01*
X137006Y-149214D01*
X136962Y-149247D01*
X136907Y-149279D01*
X136831Y-149312D01*
X136754Y-149345D01*
X136656Y-149389D01*
X136437Y-149465D01*
X136186Y-149531D01*
X135891Y-149575D01*
X135574Y-149597D01*
X135508D01*
X135443Y-149585D01*
X135344D01*
X135224Y-149564D01*
X135082Y-149542D01*
X134929Y-149520D01*
X134776Y-149476D01*
X134601Y-149433D01*
X134426Y-149367D01*
X134251Y-149290D01*
X134076Y-149203D01*
X133902Y-149094D01*
X133738Y-148973D01*
X133596Y-148831D01*
X133454Y-148667D01*
X133443Y-148656D01*
X133432Y-148635D01*
X133410Y-148591D01*
X133366Y-148536D01*
X133333Y-148460D01*
X133290Y-148372D01*
X133235Y-148274D01*
X133191Y-148154D01*
X133137Y-148022D01*
X133093Y-147880D01*
X133038Y-147727D01*
X133005Y-147553D01*
X132973Y-147378D01*
X132940Y-147192D01*
X132929Y-146984D01*
X132918Y-146776D01*
Y-146766D01*
Y-146722D01*
Y-146645D01*
X132929Y-146547D01*
X132940Y-146438D01*
X132951Y-146307D01*
X132973Y-146164D01*
X133005Y-146001D01*
X133093Y-145662D01*
X133148Y-145487D01*
X133213Y-145301D01*
X133300Y-145126D01*
X133399Y-144962D01*
X133508Y-144798D01*
X133628Y-144645D01*
X133639Y-144634D01*
X133661Y-144612D01*
X133705Y-144569D01*
X133760Y-144525D01*
X133825Y-144470D01*
X133913Y-144405D01*
X134011Y-144328D01*
X134120Y-144252D01*
X134240Y-144186D01*
X134383Y-144110D01*
X134525Y-144044D01*
X134689Y-143989D01*
X134853Y-143946D01*
X135038Y-143902D01*
X135224Y-143880D01*
X135421Y-143869D01*
X135541D01*
X135629Y-143880D01*
D02*
G37*
G36*
X131344Y-143989D02*
X132339D01*
Y-145148D01*
X131344D01*
Y-147367D01*
Y-147378D01*
Y-147399D01*
Y-147432D01*
Y-147476D01*
Y-147585D01*
Y-147716D01*
X131355Y-147848D01*
Y-147979D01*
Y-148077D01*
X131366Y-148121D01*
Y-148143D01*
X131377Y-148165D01*
X131399Y-148208D01*
X131431Y-148263D01*
X131497Y-148329D01*
X131519Y-148339D01*
X131563Y-148361D01*
X131639Y-148383D01*
X131737Y-148394D01*
X131781D01*
X131825Y-148383D01*
X131890Y-148372D01*
X131978Y-148361D01*
X132076Y-148339D01*
X132197Y-148307D01*
X132328Y-148263D01*
X132459Y-149389D01*
X132448D01*
X132437Y-149400D01*
X132371Y-149422D01*
X132262Y-149454D01*
X132120Y-149487D01*
X131956Y-149531D01*
X131759Y-149564D01*
X131541Y-149585D01*
X131311Y-149597D01*
X131246D01*
X131169Y-149585D01*
X131071Y-149575D01*
X130962Y-149564D01*
X130841Y-149542D01*
X130721Y-149509D01*
X130601Y-149465D01*
X130590Y-149454D01*
X130546Y-149443D01*
X130491Y-149411D01*
X130426Y-149378D01*
X130273Y-149269D01*
X130196Y-149203D01*
X130131Y-149127D01*
X130120Y-149116D01*
X130109Y-149083D01*
X130087Y-149039D01*
X130054Y-148973D01*
X130022Y-148897D01*
X129989Y-148799D01*
X129956Y-148689D01*
X129934Y-148569D01*
Y-148558D01*
X129923Y-148514D01*
Y-148449D01*
X129912Y-148339D01*
X129901Y-148197D01*
Y-148022D01*
X129890Y-147924D01*
Y-147804D01*
Y-147684D01*
Y-147542D01*
Y-145148D01*
X129224D01*
Y-143989D01*
X129890D01*
Y-142896D01*
X131344Y-142044D01*
Y-143989D01*
D02*
G37*
G36*
X103145Y-143989D02*
X104139D01*
Y-145148D01*
X103145D01*
Y-147367D01*
Y-147378D01*
Y-147399D01*
Y-147432D01*
Y-147476D01*
Y-147585D01*
Y-147716D01*
X103156Y-147848D01*
Y-147979D01*
Y-148077D01*
X103166Y-148121D01*
Y-148143D01*
X103177Y-148165D01*
X103199Y-148208D01*
X103232Y-148263D01*
X103298Y-148329D01*
X103320Y-148339D01*
X103363Y-148361D01*
X103440Y-148383D01*
X103538Y-148394D01*
X103582D01*
X103626Y-148383D01*
X103691Y-148372D01*
X103779Y-148361D01*
X103877Y-148339D01*
X103997Y-148307D01*
X104128Y-148263D01*
X104260Y-149389D01*
X104249D01*
X104238Y-149400D01*
X104172Y-149422D01*
X104063Y-149454D01*
X103921Y-149487D01*
X103757Y-149531D01*
X103560Y-149564D01*
X103341Y-149585D01*
X103112Y-149597D01*
X103046D01*
X102970Y-149585D01*
X102871Y-149575D01*
X102762Y-149564D01*
X102642Y-149542D01*
X102522Y-149509D01*
X102401Y-149465D01*
X102391Y-149454D01*
X102347Y-149443D01*
X102292Y-149411D01*
X102226Y-149378D01*
X102074Y-149269D01*
X101997Y-149203D01*
X101931Y-149127D01*
X101920Y-149116D01*
X101910Y-149083D01*
X101888Y-149039D01*
X101855Y-148974D01*
X101822Y-148897D01*
X101789Y-148799D01*
X101757Y-148689D01*
X101735Y-148569D01*
Y-148558D01*
X101724Y-148514D01*
Y-148449D01*
X101713Y-148339D01*
X101702Y-148197D01*
Y-148022D01*
X101691Y-147924D01*
Y-147804D01*
Y-147684D01*
Y-147542D01*
Y-145148D01*
X101024D01*
Y-143989D01*
X101691D01*
Y-142896D01*
X103145Y-142044D01*
Y-143989D01*
D02*
G37*
G36*
X76115Y-143880D02*
X76224Y-143891D01*
X76344Y-143913D01*
X76486Y-143935D01*
X76629Y-143967D01*
X76792Y-144011D01*
X76956Y-144066D01*
X77120Y-144132D01*
X77295Y-144208D01*
X77470Y-144306D01*
X77634Y-144416D01*
X77798Y-144536D01*
X77951Y-144678D01*
X77962Y-144689D01*
X77984Y-144711D01*
X78027Y-144765D01*
X78071Y-144820D01*
X78137Y-144907D01*
X78202Y-144995D01*
X78279Y-145115D01*
X78355Y-145235D01*
X78421Y-145378D01*
X78497Y-145530D01*
X78563Y-145705D01*
X78629Y-145880D01*
X78672Y-146077D01*
X78716Y-146274D01*
X78738Y-146492D01*
X78749Y-146722D01*
Y-146733D01*
Y-146776D01*
Y-146842D01*
X78738Y-146930D01*
X78727Y-147039D01*
X78705Y-147159D01*
X78683Y-147301D01*
X78650Y-147443D01*
X78607Y-147607D01*
X78552Y-147771D01*
X78487Y-147946D01*
X78410Y-148121D01*
X78312Y-148296D01*
X78202Y-148460D01*
X78082Y-148624D01*
X77940Y-148788D01*
X77929Y-148799D01*
X77907Y-148820D01*
X77864Y-148864D01*
X77798Y-148919D01*
X77722Y-148974D01*
X77623Y-149039D01*
X77514Y-149116D01*
X77394Y-149192D01*
X77251Y-149269D01*
X77099Y-149345D01*
X76934Y-149411D01*
X76749Y-149465D01*
X76563Y-149520D01*
X76355Y-149564D01*
X76148Y-149585D01*
X75918Y-149597D01*
X75841D01*
X75787Y-149585D01*
X75721D01*
X75645Y-149575D01*
X75459Y-149553D01*
X75229Y-149509D01*
X74989Y-149454D01*
X74738Y-149367D01*
X74475Y-149258D01*
X74464D01*
X74442Y-149247D01*
X74410Y-149225D01*
X74366Y-149192D01*
X74246Y-149116D01*
X74093Y-149006D01*
X73929Y-148864D01*
X73754Y-148689D01*
X73590Y-148493D01*
X73437Y-148263D01*
Y-148252D01*
X73426Y-148230D01*
X73404Y-148197D01*
X73382Y-148143D01*
X73360Y-148077D01*
X73328Y-148001D01*
X73295Y-147913D01*
X73262Y-147815D01*
X73229Y-147706D01*
X73196Y-147585D01*
X73142Y-147312D01*
X73098Y-146995D01*
X73087Y-146656D01*
Y-146645D01*
Y-146624D01*
Y-146580D01*
X73098Y-146536D01*
Y-146470D01*
X73109Y-146394D01*
X73131Y-146208D01*
X73175Y-146001D01*
X73240Y-145771D01*
X73317Y-145520D01*
X73437Y-145268D01*
Y-145257D01*
X73459Y-145235D01*
X73470Y-145203D01*
X73502Y-145159D01*
X73590Y-145039D01*
X73699Y-144886D01*
X73841Y-144722D01*
X74016Y-144547D01*
X74213Y-144383D01*
X74442Y-144230D01*
X74453D01*
X74475Y-144219D01*
X74508Y-144197D01*
X74563Y-144175D01*
X74617Y-144142D01*
X74694Y-144121D01*
X74781Y-144088D01*
X74869Y-144044D01*
X75087Y-143978D01*
X75339Y-143924D01*
X75612Y-143880D01*
X75907Y-143869D01*
X76027D01*
X76115Y-143880D01*
D02*
G37*
G36*
X62605Y-143989D02*
X63600D01*
Y-145148D01*
X62605D01*
Y-147367D01*
Y-147378D01*
Y-147399D01*
Y-147432D01*
Y-147476D01*
Y-147585D01*
Y-147716D01*
X62616Y-147848D01*
Y-147979D01*
Y-148077D01*
X62627Y-148121D01*
Y-148143D01*
X62638Y-148165D01*
X62660Y-148208D01*
X62693Y-148263D01*
X62758Y-148329D01*
X62780Y-148339D01*
X62824Y-148361D01*
X62900Y-148383D01*
X62999Y-148394D01*
X63042D01*
X63086Y-148383D01*
X63152Y-148372D01*
X63239Y-148361D01*
X63338Y-148339D01*
X63458Y-148307D01*
X63589Y-148263D01*
X63720Y-149389D01*
X63709D01*
X63698Y-149400D01*
X63633Y-149422D01*
X63523Y-149454D01*
X63381Y-149487D01*
X63217Y-149531D01*
X63021Y-149564D01*
X62802Y-149585D01*
X62572Y-149597D01*
X62507D01*
X62430Y-149585D01*
X62332Y-149575D01*
X62223Y-149564D01*
X62103Y-149542D01*
X61982Y-149509D01*
X61862Y-149465D01*
X61851Y-149454D01*
X61807Y-149443D01*
X61753Y-149411D01*
X61687Y-149378D01*
X61534Y-149269D01*
X61458Y-149203D01*
X61392Y-149127D01*
X61381Y-149116D01*
X61370Y-149083D01*
X61348Y-149039D01*
X61316Y-148974D01*
X61283Y-148897D01*
X61250Y-148799D01*
X61217Y-148689D01*
X61195Y-148569D01*
Y-148558D01*
X61184Y-148514D01*
Y-148449D01*
X61173Y-148339D01*
X61163Y-148197D01*
Y-148023D01*
X61152Y-147924D01*
Y-147804D01*
Y-147684D01*
Y-147542D01*
Y-145148D01*
X60485D01*
Y-143989D01*
X61152D01*
Y-142896D01*
X62605Y-142044D01*
Y-143989D01*
D02*
G37*
G36*
X106555Y-149061D02*
Y-149072D01*
Y-149083D01*
Y-149116D01*
Y-149159D01*
Y-149279D01*
X106544Y-149422D01*
X106533Y-149575D01*
X106511Y-149739D01*
X106478Y-149902D01*
X106446Y-150045D01*
Y-150056D01*
X106424Y-150110D01*
X106391Y-150176D01*
X106358Y-150263D01*
X106292Y-150373D01*
X106227Y-150482D01*
X106140Y-150591D01*
X106030Y-150700D01*
X106019Y-150711D01*
X105975Y-150744D01*
X105910Y-150799D01*
X105823Y-150864D01*
X105713Y-150941D01*
X105582Y-151017D01*
X105429Y-151094D01*
X105265Y-151159D01*
X104981Y-150558D01*
X105003Y-150547D01*
X105057Y-150525D01*
X105134Y-150493D01*
X105221Y-150449D01*
X105331Y-150394D01*
X105429Y-150318D01*
X105527Y-150241D01*
X105604Y-150154D01*
X105615Y-150143D01*
X105637Y-150110D01*
X105669Y-150056D01*
X105702Y-149979D01*
X105746Y-149881D01*
X105779Y-149760D01*
X105801Y-149629D01*
X105812Y-149476D01*
X105101D01*
Y-148022D01*
X106555D01*
Y-149061D01*
D02*
G37*
G36*
X280631Y-133818D02*
X279177D01*
Y-132474D01*
X280631D01*
Y-133818D01*
D02*
G37*
G36*
X246638Y-134441D02*
X246759Y-134463D01*
X246912Y-134496D01*
X247076Y-134550D01*
X247240Y-134616D01*
X247414Y-134714D01*
X246955Y-135971D01*
X246944Y-135960D01*
X246890Y-135939D01*
X246824Y-135895D01*
X246737Y-135851D01*
X246627Y-135807D01*
X246518Y-135764D01*
X246398Y-135742D01*
X246278Y-135731D01*
X246234D01*
X246168Y-135742D01*
X246103Y-135753D01*
X246026Y-135775D01*
X245939Y-135807D01*
X245851Y-135851D01*
X245764Y-135906D01*
X245753Y-135917D01*
X245731Y-135939D01*
X245688Y-135982D01*
X245644Y-136048D01*
X245589Y-136124D01*
X245534Y-136234D01*
X245480Y-136365D01*
X245436Y-136518D01*
Y-136540D01*
X245425Y-136572D01*
X245414Y-136605D01*
Y-136660D01*
X245403Y-136725D01*
X245392Y-136813D01*
X245381Y-136911D01*
X245371Y-137021D01*
X245360Y-137163D01*
X245349Y-137305D01*
Y-137480D01*
X245338Y-137665D01*
X245327Y-137873D01*
Y-138103D01*
Y-138354D01*
Y-140037D01*
X243873D01*
Y-134550D01*
X245217D01*
Y-135326D01*
X245229Y-135316D01*
X245272Y-135250D01*
X245338Y-135152D01*
X245425Y-135031D01*
X245513Y-134911D01*
X245622Y-134791D01*
X245720Y-134681D01*
X245830Y-134605D01*
X245841Y-134594D01*
X245873Y-134572D01*
X245939Y-134550D01*
X246015Y-134518D01*
X246103Y-134485D01*
X246212Y-134452D01*
X246322Y-134441D01*
X246453Y-134430D01*
X246540D01*
X246638Y-134441D01*
D02*
G37*
G36*
X276029D02*
X276149Y-134452D01*
X276281Y-134474D01*
X276423Y-134507D01*
X276576Y-134550D01*
X276729Y-134605D01*
X276751Y-134616D01*
X276794Y-134638D01*
X276871Y-134671D01*
X276958Y-134725D01*
X277057Y-134791D01*
X277155Y-134867D01*
X277253Y-134955D01*
X277341Y-135053D01*
X277352Y-135064D01*
X277374Y-135097D01*
X277406Y-135152D01*
X277450Y-135228D01*
X277505Y-135316D01*
X277549Y-135425D01*
X277592Y-135534D01*
X277625Y-135665D01*
Y-135676D01*
X277636Y-135731D01*
X277658Y-135807D01*
X277669Y-135917D01*
X277691Y-136048D01*
X277701Y-136223D01*
X277712Y-136408D01*
Y-136638D01*
Y-140037D01*
X276259D01*
Y-137250D01*
Y-137239D01*
Y-137206D01*
Y-137163D01*
Y-137108D01*
Y-137031D01*
Y-136955D01*
X276248Y-136769D01*
X276237Y-136583D01*
X276215Y-136387D01*
X276193Y-136223D01*
X276182Y-136157D01*
X276160Y-136102D01*
Y-136091D01*
X276138Y-136059D01*
X276117Y-136015D01*
X276084Y-135949D01*
X275986Y-135818D01*
X275931Y-135753D01*
X275854Y-135698D01*
X275843Y-135687D01*
X275821Y-135676D01*
X275778Y-135654D01*
X275712Y-135622D01*
X275636Y-135589D01*
X275559Y-135567D01*
X275461Y-135556D01*
X275352Y-135545D01*
X275286D01*
X275220Y-135556D01*
X275133Y-135567D01*
X275024Y-135600D01*
X274914Y-135633D01*
X274794Y-135687D01*
X274674Y-135753D01*
X274663Y-135764D01*
X274630Y-135785D01*
X274575Y-135840D01*
X274510Y-135895D01*
X274444Y-135982D01*
X274379Y-136070D01*
X274313Y-136190D01*
X274270Y-136310D01*
Y-136321D01*
X274248Y-136376D01*
X274237Y-136463D01*
X274215Y-136594D01*
X274204Y-136671D01*
X274193Y-136769D01*
X274182Y-136868D01*
Y-136988D01*
X274171Y-137108D01*
X274160Y-137250D01*
Y-137403D01*
Y-137567D01*
Y-140037D01*
X272707D01*
Y-134550D01*
X274051D01*
Y-135359D01*
X274062Y-135348D01*
X274084Y-135316D01*
X274127Y-135272D01*
X274182Y-135217D01*
X274248Y-135141D01*
X274335Y-135064D01*
X274433Y-134977D01*
X274543Y-134889D01*
X274663Y-134813D01*
X274805Y-134725D01*
X274947Y-134649D01*
X275111Y-134572D01*
X275286Y-134518D01*
X275461Y-134474D01*
X275658Y-134441D01*
X275854Y-134430D01*
X275931D01*
X276029Y-134441D01*
D02*
G37*
G36*
X284391D02*
X284500Y-134452D01*
X284620Y-134463D01*
X284751Y-134474D01*
X285025Y-134518D01*
X285298Y-134583D01*
X285560Y-134681D01*
X285680Y-134736D01*
X285790Y-134802D01*
X285801D01*
X285811Y-134824D01*
X285877Y-134867D01*
X285976Y-134955D01*
X286085Y-135075D01*
X286216Y-135217D01*
X286336Y-135403D01*
X286456Y-135622D01*
X286544Y-135873D01*
X285178Y-136124D01*
Y-136113D01*
X285156Y-136070D01*
X285134Y-136015D01*
X285101Y-135949D01*
X285057Y-135862D01*
X284992Y-135785D01*
X284926Y-135709D01*
X284839Y-135643D01*
X284828Y-135633D01*
X284795Y-135611D01*
X284740Y-135589D01*
X284664Y-135556D01*
X284565Y-135523D01*
X284445Y-135490D01*
X284303Y-135479D01*
X284139Y-135468D01*
X284041D01*
X283943Y-135479D01*
X283822Y-135490D01*
X283680Y-135512D01*
X283549Y-135534D01*
X283429Y-135578D01*
X283319Y-135633D01*
X283309D01*
X283298Y-135654D01*
X283243Y-135709D01*
X283177Y-135807D01*
X283167Y-135862D01*
X283155Y-135928D01*
Y-135939D01*
Y-135949D01*
X283177Y-136015D01*
X283221Y-136102D01*
X283254Y-136146D01*
X283298Y-136190D01*
X283309Y-136201D01*
X283352Y-136212D01*
X283374Y-136234D01*
X283418Y-136244D01*
X283472Y-136266D01*
X283538Y-136299D01*
X283626Y-136321D01*
X283713Y-136354D01*
X283822Y-136387D01*
X283953Y-136419D01*
X284096Y-136463D01*
X284260Y-136507D01*
X284445Y-136551D01*
X284653Y-136605D01*
X284664D01*
X284708Y-136616D01*
X284762Y-136627D01*
X284839Y-136649D01*
X284937Y-136682D01*
X285046Y-136704D01*
X285287Y-136780D01*
X285560Y-136879D01*
X285823Y-136988D01*
X285954Y-137053D01*
X286074Y-137108D01*
X286172Y-137185D01*
X286271Y-137250D01*
X286293Y-137272D01*
X286347Y-137316D01*
X286413Y-137403D01*
X286500Y-137523D01*
X286588Y-137676D01*
X286653Y-137862D01*
X286708Y-138081D01*
X286730Y-138321D01*
Y-138332D01*
Y-138354D01*
Y-138398D01*
X286719Y-138452D01*
X286708Y-138507D01*
X286697Y-138584D01*
X286653Y-138769D01*
X286577Y-138966D01*
X286522Y-139075D01*
X286467Y-139185D01*
X286391Y-139294D01*
X286303Y-139403D01*
X286205Y-139513D01*
X286096Y-139622D01*
X286085Y-139633D01*
X286063Y-139644D01*
X286030Y-139666D01*
X285976Y-139709D01*
X285910Y-139742D01*
X285833Y-139786D01*
X285735Y-139840D01*
X285626Y-139884D01*
X285506Y-139939D01*
X285363Y-139983D01*
X285210Y-140037D01*
X285046Y-140070D01*
X284861Y-140103D01*
X284664Y-140136D01*
X284456Y-140147D01*
X284238Y-140157D01*
X284128D01*
X284052Y-140147D01*
X283953D01*
X283844Y-140136D01*
X283724Y-140125D01*
X283593Y-140103D01*
X283309Y-140048D01*
X283014Y-139972D01*
X282718Y-139862D01*
X282587Y-139786D01*
X282456Y-139709D01*
X282445Y-139698D01*
X282423Y-139688D01*
X282390Y-139666D01*
X282358Y-139622D01*
X282237Y-139523D01*
X282106Y-139381D01*
X281964Y-139207D01*
X281833Y-138999D01*
X281713Y-138748D01*
X281614Y-138474D01*
X283068Y-138256D01*
Y-138277D01*
X283090Y-138321D01*
X283112Y-138398D01*
X283145Y-138496D01*
X283199Y-138605D01*
X283265Y-138704D01*
X283341Y-138813D01*
X283440Y-138900D01*
X283451Y-138911D01*
X283494Y-138933D01*
X283560Y-138966D01*
X283647Y-138999D01*
X283757Y-139043D01*
X283899Y-139075D01*
X284052Y-139097D01*
X284238Y-139108D01*
X284325D01*
X284434Y-139097D01*
X284555Y-139086D01*
X284686Y-139065D01*
X284828Y-139021D01*
X284959Y-138977D01*
X285079Y-138911D01*
X285090Y-138900D01*
X285112Y-138879D01*
X285145Y-138846D01*
X285178Y-138802D01*
X285210Y-138748D01*
X285243Y-138682D01*
X285265Y-138605D01*
X285276Y-138518D01*
Y-138507D01*
Y-138485D01*
X285265Y-138420D01*
X285232Y-138332D01*
X285167Y-138245D01*
X285145Y-138223D01*
X285112Y-138212D01*
X285068Y-138179D01*
X285003Y-138157D01*
X284915Y-138125D01*
X284817Y-138092D01*
X284686Y-138059D01*
X284664D01*
X284609Y-138037D01*
X284522Y-138015D01*
X284402Y-137993D01*
X284260Y-137961D01*
X284106Y-137917D01*
X283932Y-137873D01*
X283746Y-137819D01*
X283363Y-137709D01*
X283177Y-137654D01*
X283002Y-137589D01*
X282839Y-137534D01*
X282686Y-137469D01*
X282554Y-137403D01*
X282456Y-137348D01*
X282445Y-137338D01*
X282423Y-137327D01*
X282401Y-137305D01*
X282358Y-137261D01*
X282248Y-137163D01*
X282139Y-137021D01*
X282019Y-136846D01*
X281909Y-136638D01*
X281866Y-136518D01*
X281844Y-136387D01*
X281822Y-136256D01*
X281811Y-136113D01*
Y-136102D01*
Y-136081D01*
Y-136048D01*
X281822Y-135993D01*
X281833Y-135939D01*
X281844Y-135862D01*
X281877Y-135698D01*
X281942Y-135512D01*
X282052Y-135316D01*
X282106Y-135206D01*
X282183Y-135108D01*
X282270Y-135009D01*
X282369Y-134922D01*
X282380Y-134911D01*
X282390Y-134900D01*
X282423Y-134878D01*
X282478Y-134845D01*
X282533Y-134813D01*
X282609Y-134769D01*
X282697Y-134725D01*
X282795Y-134671D01*
X282915Y-134627D01*
X283046Y-134583D01*
X283188Y-134539D01*
X283341Y-134507D01*
X283516Y-134474D01*
X283702Y-134452D01*
X283899Y-134430D01*
X284303D01*
X284391Y-134441D01*
D02*
G37*
G36*
X296261D02*
X296348D01*
X296567Y-134463D01*
X296796Y-134485D01*
X297037Y-134529D01*
X297266Y-134594D01*
X297365Y-134627D01*
X297463Y-134671D01*
X297474D01*
X297485Y-134681D01*
X297539Y-134714D01*
X297627Y-134758D01*
X297725Y-134824D01*
X297846Y-134911D01*
X297955Y-135009D01*
X298053Y-135130D01*
X298141Y-135250D01*
X298151Y-135272D01*
X298173Y-135316D01*
X298206Y-135414D01*
X298217Y-135468D01*
X298239Y-135545D01*
X298261Y-135622D01*
X298272Y-135720D01*
X298294Y-135829D01*
X298305Y-135949D01*
X298316Y-136081D01*
X298326Y-136223D01*
X298337Y-136376D01*
Y-136551D01*
X298316Y-138245D01*
Y-138256D01*
Y-138277D01*
Y-138310D01*
Y-138365D01*
Y-138496D01*
X298326Y-138649D01*
Y-138824D01*
X298348Y-138999D01*
X298359Y-139174D01*
X298381Y-139316D01*
Y-139327D01*
X298392Y-139371D01*
X298414Y-139447D01*
X298436Y-139534D01*
X298479Y-139644D01*
X298523Y-139764D01*
X298578Y-139895D01*
X298643Y-140037D01*
X297212D01*
Y-140026D01*
X297201Y-140015D01*
X297190Y-139972D01*
X297168Y-139928D01*
X297146Y-139873D01*
X297124Y-139797D01*
X297102Y-139709D01*
X297069Y-139611D01*
Y-139600D01*
X297059Y-139589D01*
X297048Y-139545D01*
X297026Y-139491D01*
X297015Y-139447D01*
X296993Y-139458D01*
X296949Y-139502D01*
X296873Y-139567D01*
X296774Y-139644D01*
X296654Y-139731D01*
X296523Y-139830D01*
X296370Y-139906D01*
X296217Y-139983D01*
X296195Y-139994D01*
X296140Y-140005D01*
X296053Y-140037D01*
X295944Y-140070D01*
X295813Y-140103D01*
X295659Y-140125D01*
X295485Y-140147D01*
X295310Y-140157D01*
X295233D01*
X295168Y-140147D01*
X295102D01*
X295015Y-140136D01*
X294829Y-140103D01*
X294610Y-140048D01*
X294392Y-139972D01*
X294173Y-139862D01*
X293976Y-139709D01*
Y-139698D01*
X293954Y-139688D01*
X293900Y-139622D01*
X293823Y-139523D01*
X293736Y-139392D01*
X293648Y-139228D01*
X293572Y-139032D01*
X293517Y-138802D01*
X293506Y-138682D01*
X293495Y-138551D01*
Y-138529D01*
Y-138474D01*
X293506Y-138387D01*
X293528Y-138277D01*
X293550Y-138146D01*
X293583Y-138015D01*
X293637Y-137873D01*
X293714Y-137731D01*
X293725Y-137709D01*
X293758Y-137665D01*
X293801Y-137600D01*
X293878Y-137523D01*
X293954Y-137436D01*
X294064Y-137338D01*
X294184Y-137250D01*
X294326Y-137174D01*
X294348Y-137163D01*
X294403Y-137141D01*
X294490Y-137108D01*
X294621Y-137053D01*
X294785Y-136999D01*
X294982Y-136944D01*
X295222Y-136889D01*
X295485Y-136835D01*
X295496D01*
X295528Y-136824D01*
X295583Y-136813D01*
X295649Y-136802D01*
X295736Y-136791D01*
X295834Y-136769D01*
X296053Y-136714D01*
X296283Y-136660D01*
X296523Y-136605D01*
X296731Y-136540D01*
X296829Y-136507D01*
X296905Y-136474D01*
Y-136332D01*
Y-136310D01*
Y-136266D01*
X296895Y-136190D01*
X296884Y-136091D01*
X296851Y-135993D01*
X296818Y-135895D01*
X296763Y-135807D01*
X296687Y-135731D01*
X296676Y-135720D01*
X296643Y-135698D01*
X296588Y-135676D01*
X296512Y-135633D01*
X296403Y-135600D01*
X296271Y-135578D01*
X296108Y-135556D01*
X295911Y-135545D01*
X295845D01*
X295780Y-135556D01*
X295692Y-135567D01*
X295594Y-135589D01*
X295485Y-135611D01*
X295386Y-135654D01*
X295299Y-135709D01*
X295288Y-135720D01*
X295266Y-135742D01*
X295222Y-135775D01*
X295179Y-135829D01*
X295113Y-135906D01*
X295058Y-136004D01*
X295004Y-136113D01*
X294949Y-136244D01*
X293648Y-136004D01*
Y-135993D01*
X293659Y-135971D01*
X293670Y-135928D01*
X293692Y-135873D01*
X293714Y-135807D01*
X293747Y-135731D01*
X293823Y-135556D01*
X293933Y-135370D01*
X294064Y-135173D01*
X294217Y-134988D01*
X294403Y-134824D01*
X294413D01*
X294424Y-134802D01*
X294457Y-134791D01*
X294501Y-134758D01*
X294566Y-134736D01*
X294632Y-134703D01*
X294720Y-134660D01*
X294807Y-134627D01*
X294916Y-134594D01*
X295037Y-134550D01*
X295168Y-134518D01*
X295321Y-134496D01*
X295474Y-134463D01*
X295649Y-134452D01*
X295823Y-134430D01*
X296184D01*
X296261Y-134441D01*
D02*
G37*
G36*
X289407Y-136485D02*
X291102Y-134550D01*
X292883D01*
X291003Y-136562D01*
X293014Y-140037D01*
X291451D01*
X290063Y-137578D01*
X289407Y-138288D01*
Y-140037D01*
X287954D01*
Y-132474D01*
X289407D01*
Y-136485D01*
D02*
G37*
G36*
X280631Y-140037D02*
X279177D01*
Y-134550D01*
X280631D01*
Y-140037D01*
D02*
G37*
G36*
X268247Y-136485D02*
X269941Y-134550D01*
X271723D01*
X269843Y-136562D01*
X271854Y-140037D01*
X270291D01*
X268903Y-137578D01*
X268247Y-138288D01*
Y-140037D01*
X266793D01*
Y-132474D01*
X268247D01*
Y-136485D01*
D02*
G37*
G36*
X259984Y-133753D02*
X257754D01*
Y-140037D01*
X256224D01*
Y-133753D01*
X253983D01*
Y-132474D01*
X259984D01*
Y-133753D01*
D02*
G37*
G36*
X235938Y-136485D02*
X237632Y-134550D01*
X239414D01*
X237534Y-136562D01*
X239545Y-140037D01*
X237982D01*
X236594Y-137578D01*
X235938Y-138288D01*
Y-140037D01*
X234484D01*
Y-132474D01*
X235938D01*
Y-136485D01*
D02*
G37*
G36*
X227161Y-140037D02*
X225708D01*
Y-132474D01*
X227161D01*
Y-140037D01*
D02*
G37*
G36*
X224287Y-133753D02*
X220210D01*
Y-135425D01*
X224002D01*
Y-136704D01*
X220210D01*
Y-138758D01*
X224429D01*
Y-140037D01*
X218679D01*
Y-132474D01*
X224287D01*
Y-133753D01*
D02*
G37*
G36*
X263252Y-134441D02*
X263350Y-134452D01*
X263471Y-134474D01*
X263602Y-134496D01*
X263744Y-134529D01*
X263897Y-134572D01*
X264050Y-134627D01*
X264214Y-134693D01*
X264378Y-134780D01*
X264531Y-134867D01*
X264684Y-134977D01*
X264837Y-135108D01*
X264968Y-135250D01*
X264979Y-135261D01*
X265001Y-135283D01*
X265034Y-135337D01*
X265077Y-135403D01*
X265132Y-135490D01*
X265187Y-135589D01*
X265252Y-135720D01*
X265318Y-135862D01*
X265383Y-136026D01*
X265449Y-136212D01*
X265504Y-136408D01*
X265558Y-136638D01*
X265602Y-136879D01*
X265635Y-137141D01*
X265657Y-137414D01*
Y-137720D01*
X262028D01*
Y-137731D01*
Y-137753D01*
Y-137786D01*
X262039Y-137829D01*
X262050Y-137939D01*
X262072Y-138092D01*
X262115Y-138245D01*
X262181Y-138420D01*
X262257Y-138584D01*
X262367Y-138726D01*
X262378Y-138737D01*
X262432Y-138780D01*
X262498Y-138835D01*
X262596Y-138900D01*
X262716Y-138966D01*
X262870Y-139021D01*
X263033Y-139065D01*
X263208Y-139075D01*
X263263D01*
X263329Y-139065D01*
X263405Y-139053D01*
X263492Y-139032D01*
X263591Y-138999D01*
X263689Y-138955D01*
X263777Y-138890D01*
X263788Y-138879D01*
X263820Y-138857D01*
X263864Y-138813D01*
X263908Y-138748D01*
X263973Y-138660D01*
X264028Y-138562D01*
X264083Y-138431D01*
X264137Y-138288D01*
X265580Y-138529D01*
Y-138540D01*
X265569Y-138562D01*
X265547Y-138605D01*
X265526Y-138660D01*
X265493Y-138726D01*
X265460Y-138802D01*
X265361Y-138977D01*
X265241Y-139174D01*
X265088Y-139381D01*
X264902Y-139567D01*
X264695Y-139742D01*
X264684D01*
X264673Y-139764D01*
X264629Y-139775D01*
X264585Y-139808D01*
X264531Y-139840D01*
X264454Y-139873D01*
X264378Y-139906D01*
X264279Y-139950D01*
X264061Y-140026D01*
X263809Y-140092D01*
X263514Y-140136D01*
X263197Y-140157D01*
X263132D01*
X263066Y-140147D01*
X262968D01*
X262848Y-140125D01*
X262705Y-140103D01*
X262552Y-140081D01*
X262400Y-140037D01*
X262225Y-139994D01*
X262050Y-139928D01*
X261875Y-139851D01*
X261700Y-139764D01*
X261525Y-139655D01*
X261361Y-139534D01*
X261219Y-139392D01*
X261077Y-139228D01*
X261066Y-139217D01*
X261055Y-139196D01*
X261033Y-139152D01*
X260989Y-139097D01*
X260957Y-139021D01*
X260913Y-138933D01*
X260858Y-138835D01*
X260815Y-138715D01*
X260760Y-138584D01*
X260716Y-138442D01*
X260662Y-138288D01*
X260629Y-138114D01*
X260596Y-137939D01*
X260563Y-137753D01*
X260552Y-137545D01*
X260541Y-137338D01*
Y-137327D01*
Y-137283D01*
Y-137206D01*
X260552Y-137108D01*
X260563Y-136999D01*
X260574Y-136868D01*
X260596Y-136725D01*
X260629Y-136562D01*
X260716Y-136223D01*
X260771Y-136048D01*
X260837Y-135862D01*
X260924Y-135687D01*
X261022Y-135523D01*
X261132Y-135359D01*
X261252Y-135206D01*
X261263Y-135195D01*
X261285Y-135173D01*
X261328Y-135130D01*
X261383Y-135086D01*
X261449Y-135031D01*
X261536Y-134966D01*
X261634Y-134889D01*
X261744Y-134813D01*
X261864Y-134747D01*
X262006Y-134671D01*
X262148Y-134605D01*
X262312Y-134550D01*
X262476Y-134507D01*
X262662Y-134463D01*
X262848Y-134441D01*
X263044Y-134430D01*
X263165D01*
X263252Y-134441D01*
D02*
G37*
G36*
X250737D02*
X250847Y-134452D01*
X250967Y-134474D01*
X251109Y-134496D01*
X251251Y-134529D01*
X251415Y-134572D01*
X251579Y-134627D01*
X251743Y-134693D01*
X251918Y-134769D01*
X252093Y-134867D01*
X252256Y-134977D01*
X252420Y-135097D01*
X252573Y-135239D01*
X252584Y-135250D01*
X252606Y-135272D01*
X252650Y-135326D01*
X252694Y-135381D01*
X252759Y-135468D01*
X252825Y-135556D01*
X252901Y-135676D01*
X252978Y-135796D01*
X253043Y-135939D01*
X253120Y-136091D01*
X253186Y-136266D01*
X253251Y-136441D01*
X253295Y-136638D01*
X253339Y-136835D01*
X253360Y-137053D01*
X253371Y-137283D01*
Y-137294D01*
Y-137338D01*
Y-137403D01*
X253360Y-137491D01*
X253349Y-137600D01*
X253328Y-137720D01*
X253306Y-137862D01*
X253273Y-138004D01*
X253229Y-138168D01*
X253175Y-138332D01*
X253109Y-138507D01*
X253032Y-138682D01*
X252934Y-138857D01*
X252825Y-139021D01*
X252705Y-139185D01*
X252562Y-139349D01*
X252552Y-139360D01*
X252530Y-139381D01*
X252486Y-139425D01*
X252420Y-139480D01*
X252344Y-139534D01*
X252245Y-139600D01*
X252136Y-139677D01*
X252016Y-139753D01*
X251874Y-139830D01*
X251721Y-139906D01*
X251557Y-139972D01*
X251371Y-140026D01*
X251185Y-140081D01*
X250978Y-140125D01*
X250770Y-140147D01*
X250540Y-140157D01*
X250464D01*
X250409Y-140147D01*
X250344D01*
X250267Y-140136D01*
X250081Y-140114D01*
X249852Y-140070D01*
X249611Y-140015D01*
X249360Y-139928D01*
X249098Y-139819D01*
X249087D01*
X249065Y-139808D01*
X249032Y-139786D01*
X248988Y-139753D01*
X248868Y-139677D01*
X248715Y-139567D01*
X248551Y-139425D01*
X248376Y-139250D01*
X248212Y-139053D01*
X248059Y-138824D01*
Y-138813D01*
X248048Y-138791D01*
X248026Y-138758D01*
X248005Y-138704D01*
X247983Y-138638D01*
X247950Y-138562D01*
X247917Y-138474D01*
X247884Y-138376D01*
X247852Y-138267D01*
X247819Y-138146D01*
X247764Y-137873D01*
X247721Y-137556D01*
X247710Y-137217D01*
Y-137206D01*
Y-137185D01*
Y-137141D01*
X247721Y-137097D01*
Y-137031D01*
X247731Y-136955D01*
X247753Y-136769D01*
X247797Y-136562D01*
X247863Y-136332D01*
X247939Y-136081D01*
X248059Y-135829D01*
Y-135818D01*
X248081Y-135796D01*
X248092Y-135764D01*
X248125Y-135720D01*
X248212Y-135600D01*
X248322Y-135447D01*
X248464Y-135283D01*
X248639Y-135108D01*
X248835Y-134944D01*
X249065Y-134791D01*
X249076D01*
X249098Y-134780D01*
X249131Y-134758D01*
X249185Y-134736D01*
X249240Y-134703D01*
X249316Y-134681D01*
X249404Y-134649D01*
X249491Y-134605D01*
X249710Y-134539D01*
X249961Y-134485D01*
X250234Y-134441D01*
X250530Y-134430D01*
X250650D01*
X250737Y-134441D01*
D02*
G37*
G36*
X241938Y-134550D02*
X242933D01*
Y-135709D01*
X241938D01*
Y-137928D01*
Y-137939D01*
Y-137961D01*
Y-137993D01*
Y-138037D01*
Y-138146D01*
Y-138277D01*
X241949Y-138409D01*
Y-138540D01*
Y-138638D01*
X241960Y-138682D01*
Y-138704D01*
X241971Y-138726D01*
X241993Y-138769D01*
X242026Y-138824D01*
X242091Y-138890D01*
X242113Y-138900D01*
X242157Y-138922D01*
X242234Y-138944D01*
X242332Y-138955D01*
X242376D01*
X242419Y-138944D01*
X242485Y-138933D01*
X242572Y-138922D01*
X242671Y-138900D01*
X242791Y-138868D01*
X242922Y-138824D01*
X243053Y-139950D01*
X243042D01*
X243032Y-139961D01*
X242966Y-139983D01*
X242857Y-140015D01*
X242715Y-140048D01*
X242551Y-140092D01*
X242354Y-140125D01*
X242135Y-140147D01*
X241906Y-140157D01*
X241840D01*
X241764Y-140147D01*
X241665Y-140136D01*
X241556Y-140125D01*
X241436Y-140103D01*
X241316Y-140070D01*
X241195Y-140026D01*
X241184Y-140015D01*
X241141Y-140005D01*
X241086Y-139972D01*
X241020Y-139939D01*
X240867Y-139830D01*
X240791Y-139764D01*
X240725Y-139688D01*
X240714Y-139677D01*
X240703Y-139644D01*
X240682Y-139600D01*
X240649Y-139534D01*
X240616Y-139458D01*
X240583Y-139360D01*
X240550Y-139250D01*
X240528Y-139130D01*
Y-139119D01*
X240518Y-139075D01*
Y-139010D01*
X240507Y-138900D01*
X240496Y-138758D01*
Y-138584D01*
X240485Y-138485D01*
Y-138365D01*
Y-138245D01*
Y-138103D01*
Y-135709D01*
X239818D01*
Y-134550D01*
X240485D01*
Y-133457D01*
X241938Y-132605D01*
Y-134550D01*
D02*
G37*
G36*
X230943Y-134441D02*
X231041Y-134452D01*
X231161Y-134474D01*
X231293Y-134496D01*
X231435Y-134529D01*
X231588Y-134572D01*
X231741Y-134627D01*
X231905Y-134693D01*
X232069Y-134780D01*
X232222Y-134867D01*
X232375Y-134977D01*
X232528Y-135108D01*
X232659Y-135250D01*
X232670Y-135261D01*
X232692Y-135283D01*
X232724Y-135337D01*
X232768Y-135403D01*
X232823Y-135490D01*
X232878Y-135589D01*
X232943Y-135720D01*
X233009Y-135862D01*
X233074Y-136026D01*
X233140Y-136212D01*
X233194Y-136408D01*
X233249Y-136638D01*
X233293Y-136879D01*
X233326Y-137141D01*
X233348Y-137414D01*
Y-137720D01*
X229719D01*
Y-137731D01*
Y-137753D01*
Y-137786D01*
X229730Y-137829D01*
X229741Y-137939D01*
X229763Y-138092D01*
X229806Y-138245D01*
X229872Y-138420D01*
X229948Y-138584D01*
X230058Y-138726D01*
X230068Y-138737D01*
X230123Y-138780D01*
X230189Y-138835D01*
X230287Y-138900D01*
X230407Y-138966D01*
X230560Y-139021D01*
X230724Y-139065D01*
X230899Y-139075D01*
X230954D01*
X231019Y-139065D01*
X231096Y-139053D01*
X231183Y-139032D01*
X231282Y-138999D01*
X231380Y-138955D01*
X231468Y-138890D01*
X231479Y-138879D01*
X231511Y-138857D01*
X231555Y-138813D01*
X231599Y-138748D01*
X231664Y-138660D01*
X231719Y-138562D01*
X231774Y-138431D01*
X231828Y-138288D01*
X233271Y-138529D01*
Y-138540D01*
X233260Y-138562D01*
X233238Y-138605D01*
X233216Y-138660D01*
X233184Y-138726D01*
X233151Y-138802D01*
X233052Y-138977D01*
X232932Y-139174D01*
X232779Y-139381D01*
X232593Y-139567D01*
X232386Y-139742D01*
X232375D01*
X232364Y-139764D01*
X232320Y-139775D01*
X232276Y-139808D01*
X232222Y-139840D01*
X232145Y-139873D01*
X232069Y-139906D01*
X231970Y-139950D01*
X231752Y-140026D01*
X231500Y-140092D01*
X231205Y-140136D01*
X230888Y-140157D01*
X230823D01*
X230757Y-140147D01*
X230659D01*
X230539Y-140125D01*
X230396Y-140103D01*
X230243Y-140081D01*
X230090Y-140037D01*
X229915Y-139994D01*
X229741Y-139928D01*
X229566Y-139851D01*
X229391Y-139764D01*
X229216Y-139655D01*
X229052Y-139534D01*
X228910Y-139392D01*
X228768Y-139228D01*
X228757Y-139217D01*
X228746Y-139196D01*
X228724Y-139152D01*
X228680Y-139097D01*
X228648Y-139021D01*
X228604Y-138933D01*
X228549Y-138835D01*
X228505Y-138715D01*
X228451Y-138584D01*
X228407Y-138442D01*
X228352Y-138288D01*
X228320Y-138114D01*
X228287Y-137939D01*
X228254Y-137753D01*
X228243Y-137545D01*
X228232Y-137338D01*
Y-137327D01*
Y-137283D01*
Y-137206D01*
X228243Y-137108D01*
X228254Y-136999D01*
X228265Y-136868D01*
X228287Y-136725D01*
X228320Y-136562D01*
X228407Y-136223D01*
X228462Y-136048D01*
X228527Y-135862D01*
X228615Y-135687D01*
X228713Y-135523D01*
X228822Y-135359D01*
X228943Y-135206D01*
X228954Y-135195D01*
X228976Y-135173D01*
X229019Y-135130D01*
X229074Y-135086D01*
X229139Y-135031D01*
X229227Y-134966D01*
X229325Y-134889D01*
X229435Y-134813D01*
X229555Y-134747D01*
X229697Y-134671D01*
X229839Y-134605D01*
X230003Y-134550D01*
X230167Y-134507D01*
X230353Y-134463D01*
X230539Y-134441D01*
X230735Y-134430D01*
X230855D01*
X230943Y-134441D01*
D02*
G37*
G36*
X187341Y-49674D02*
X185401D01*
Y-47881D01*
X187341D01*
Y-49674D01*
D02*
G37*
G36*
X146575D02*
X144636D01*
Y-47881D01*
X146575D01*
Y-49674D01*
D02*
G37*
G36*
X171244Y-50899D02*
X170501Y-51759D01*
X170515Y-51789D01*
X170574Y-51847D01*
X170647Y-51949D01*
X170734Y-52095D01*
X170836Y-52255D01*
X170938Y-52459D01*
X171055Y-52678D01*
X171142Y-52926D01*
X171157Y-52955D01*
X171186Y-53043D01*
X171215Y-53174D01*
X171274Y-53349D01*
X171317Y-53567D01*
X171346Y-53801D01*
X171376Y-54049D01*
X171390Y-54326D01*
Y-54340D01*
Y-54399D01*
Y-54486D01*
X171376Y-54603D01*
X171361Y-54734D01*
X171332Y-54909D01*
X171303Y-55084D01*
X171259Y-55288D01*
X171201Y-55492D01*
X171128Y-55711D01*
X171040Y-55944D01*
X170924Y-56177D01*
X170807Y-56396D01*
X170661Y-56629D01*
X170486Y-56848D01*
X170297Y-57052D01*
X170282Y-57067D01*
X170253Y-57096D01*
X170180Y-57154D01*
X170107Y-57227D01*
X169991Y-57300D01*
X169874Y-57387D01*
X169728Y-57489D01*
X169553Y-57591D01*
X169364Y-57693D01*
X169159Y-57796D01*
X168941Y-57883D01*
X168693Y-57956D01*
X168445Y-58029D01*
X168168Y-58087D01*
X167891Y-58116D01*
X167585Y-58131D01*
X167468D01*
X167381Y-58116D01*
X167279D01*
X167162Y-58102D01*
X167031Y-58087D01*
X166885Y-58058D01*
X166550Y-57985D01*
X166200Y-57898D01*
X165835Y-57752D01*
X165471Y-57562D01*
X164683Y-58466D01*
X163925Y-57825D01*
X164727Y-56906D01*
X164713Y-56877D01*
X164654Y-56819D01*
X164581Y-56717D01*
X164494Y-56571D01*
X164377Y-56396D01*
X164275Y-56192D01*
X164173Y-55958D01*
X164071Y-55711D01*
Y-55696D01*
X164056Y-55682D01*
X164042Y-55594D01*
X163998Y-55448D01*
X163954Y-55273D01*
X163911Y-55055D01*
X163882Y-54807D01*
X163852Y-54559D01*
X163838Y-54282D01*
Y-54267D01*
Y-54209D01*
X163852Y-54121D01*
Y-54005D01*
X163867Y-53874D01*
X163896Y-53699D01*
X163925Y-53524D01*
X163969Y-53320D01*
X164027Y-53115D01*
X164100Y-52897D01*
X164173Y-52663D01*
X164275Y-52445D01*
X164406Y-52211D01*
X164538Y-51993D01*
X164698Y-51774D01*
X164887Y-51570D01*
X164902Y-51555D01*
X164931Y-51526D01*
X165004Y-51468D01*
X165077Y-51395D01*
X165179Y-51322D01*
X165310Y-51235D01*
X165456Y-51133D01*
X165631Y-51030D01*
X165806Y-50928D01*
X166025Y-50826D01*
X166243Y-50739D01*
X166477Y-50666D01*
X166739Y-50593D01*
X167016Y-50535D01*
X167293Y-50506D01*
X167599Y-50491D01*
X167716D01*
X167804Y-50506D01*
X167920D01*
X168037Y-50520D01*
X168183Y-50549D01*
X168328Y-50564D01*
X168678Y-50637D01*
X169028Y-50753D01*
X169407Y-50914D01*
X169582Y-51001D01*
X169757Y-51118D01*
X170486Y-50272D01*
X171244Y-50899D01*
D02*
G37*
G36*
X214284Y-50506D02*
X214430Y-50520D01*
X214591Y-50535D01*
X214766Y-50549D01*
X215130Y-50608D01*
X215495Y-50695D01*
X215845Y-50826D01*
X216005Y-50899D01*
X216151Y-50987D01*
X216165D01*
X216180Y-51016D01*
X216267Y-51074D01*
X216399Y-51191D01*
X216544Y-51351D01*
X216719Y-51541D01*
X216880Y-51789D01*
X217040Y-52080D01*
X217157Y-52416D01*
X215334Y-52751D01*
Y-52736D01*
X215305Y-52678D01*
X215276Y-52605D01*
X215232Y-52518D01*
X215174Y-52401D01*
X215086Y-52299D01*
X214999Y-52197D01*
X214882Y-52109D01*
X214868Y-52095D01*
X214824Y-52066D01*
X214751Y-52036D01*
X214649Y-51993D01*
X214518Y-51949D01*
X214357Y-51905D01*
X214168Y-51891D01*
X213949Y-51876D01*
X213818D01*
X213687Y-51891D01*
X213526Y-51905D01*
X213337Y-51934D01*
X213162Y-51964D01*
X213001Y-52022D01*
X212856Y-52095D01*
X212841D01*
X212826Y-52124D01*
X212754Y-52197D01*
X212666Y-52328D01*
X212652Y-52401D01*
X212637Y-52488D01*
Y-52503D01*
Y-52518D01*
X212666Y-52605D01*
X212724Y-52722D01*
X212768Y-52780D01*
X212826Y-52838D01*
X212841Y-52853D01*
X212899Y-52868D01*
X212929Y-52897D01*
X212987Y-52911D01*
X213060Y-52940D01*
X213147Y-52984D01*
X213264Y-53013D01*
X213381Y-53057D01*
X213526Y-53101D01*
X213701Y-53145D01*
X213891Y-53203D01*
X214110Y-53261D01*
X214357Y-53320D01*
X214634Y-53392D01*
X214649D01*
X214707Y-53407D01*
X214780Y-53422D01*
X214882Y-53451D01*
X215014Y-53495D01*
X215159Y-53524D01*
X215480Y-53626D01*
X215845Y-53757D01*
X216195Y-53903D01*
X216370Y-53990D01*
X216530Y-54063D01*
X216661Y-54165D01*
X216792Y-54253D01*
X216822Y-54282D01*
X216894Y-54340D01*
X216982Y-54457D01*
X217098Y-54617D01*
X217215Y-54821D01*
X217303Y-55069D01*
X217375Y-55361D01*
X217405Y-55682D01*
Y-55696D01*
Y-55725D01*
Y-55784D01*
X217390Y-55857D01*
X217375Y-55929D01*
X217361Y-56031D01*
X217303Y-56279D01*
X217200Y-56542D01*
X217128Y-56687D01*
X217055Y-56833D01*
X216953Y-56979D01*
X216836Y-57125D01*
X216705Y-57271D01*
X216559Y-57416D01*
X216544Y-57431D01*
X216515Y-57446D01*
X216472Y-57475D01*
X216399Y-57533D01*
X216311Y-57577D01*
X216209Y-57635D01*
X216078Y-57708D01*
X215932Y-57766D01*
X215772Y-57839D01*
X215582Y-57898D01*
X215378Y-57971D01*
X215159Y-58014D01*
X214912Y-58058D01*
X214649Y-58102D01*
X214372Y-58116D01*
X214080Y-58131D01*
X213935D01*
X213832Y-58116D01*
X213701D01*
X213556Y-58102D01*
X213395Y-58087D01*
X213220Y-58058D01*
X212841Y-57985D01*
X212447Y-57883D01*
X212054Y-57737D01*
X211879Y-57635D01*
X211704Y-57533D01*
X211689Y-57519D01*
X211660Y-57504D01*
X211616Y-57475D01*
X211573Y-57416D01*
X211412Y-57285D01*
X211237Y-57096D01*
X211048Y-56862D01*
X210873Y-56586D01*
X210712Y-56250D01*
X210581Y-55886D01*
X212520Y-55594D01*
Y-55623D01*
X212549Y-55682D01*
X212579Y-55784D01*
X212622Y-55915D01*
X212695Y-56061D01*
X212783Y-56192D01*
X212885Y-56338D01*
X213016Y-56454D01*
X213031Y-56469D01*
X213089Y-56498D01*
X213176Y-56542D01*
X213293Y-56586D01*
X213439Y-56644D01*
X213628Y-56687D01*
X213832Y-56717D01*
X214080Y-56731D01*
X214197D01*
X214343Y-56717D01*
X214503Y-56702D01*
X214678Y-56673D01*
X214868Y-56615D01*
X215043Y-56556D01*
X215203Y-56469D01*
X215218Y-56454D01*
X215247Y-56425D01*
X215290Y-56381D01*
X215334Y-56323D01*
X215378Y-56250D01*
X215422Y-56163D01*
X215451Y-56061D01*
X215465Y-55944D01*
Y-55929D01*
Y-55900D01*
X215451Y-55813D01*
X215407Y-55696D01*
X215320Y-55579D01*
X215290Y-55550D01*
X215247Y-55536D01*
X215189Y-55492D01*
X215101Y-55463D01*
X214984Y-55419D01*
X214853Y-55375D01*
X214678Y-55332D01*
X214649D01*
X214576Y-55302D01*
X214459Y-55273D01*
X214299Y-55244D01*
X214110Y-55200D01*
X213906Y-55142D01*
X213672Y-55084D01*
X213424Y-55011D01*
X212914Y-54865D01*
X212666Y-54792D01*
X212433Y-54705D01*
X212214Y-54632D01*
X212010Y-54544D01*
X211835Y-54457D01*
X211704Y-54384D01*
X211689Y-54369D01*
X211660Y-54355D01*
X211631Y-54326D01*
X211573Y-54267D01*
X211427Y-54136D01*
X211281Y-53947D01*
X211121Y-53713D01*
X210975Y-53436D01*
X210917Y-53276D01*
X210887Y-53101D01*
X210858Y-52926D01*
X210844Y-52736D01*
Y-52722D01*
Y-52693D01*
Y-52649D01*
X210858Y-52576D01*
X210873Y-52503D01*
X210887Y-52401D01*
X210931Y-52182D01*
X211019Y-51934D01*
X211164Y-51672D01*
X211237Y-51526D01*
X211339Y-51395D01*
X211456Y-51264D01*
X211587Y-51147D01*
X211602Y-51133D01*
X211616Y-51118D01*
X211660Y-51089D01*
X211733Y-51045D01*
X211806Y-51001D01*
X211908Y-50943D01*
X212025Y-50885D01*
X212156Y-50812D01*
X212316Y-50753D01*
X212491Y-50695D01*
X212681Y-50637D01*
X212885Y-50593D01*
X213118Y-50549D01*
X213366Y-50520D01*
X213628Y-50491D01*
X214168D01*
X214284Y-50506D01*
D02*
G37*
G36*
X151591D02*
X151736Y-50520D01*
X151897Y-50535D01*
X152072Y-50549D01*
X152436Y-50608D01*
X152801Y-50695D01*
X153151Y-50826D01*
X153311Y-50899D01*
X153457Y-50987D01*
X153471D01*
X153486Y-51016D01*
X153573Y-51074D01*
X153705Y-51191D01*
X153850Y-51351D01*
X154025Y-51541D01*
X154186Y-51789D01*
X154346Y-52080D01*
X154463Y-52416D01*
X152640Y-52751D01*
Y-52736D01*
X152611Y-52678D01*
X152582Y-52605D01*
X152538Y-52518D01*
X152480Y-52401D01*
X152392Y-52299D01*
X152305Y-52197D01*
X152188Y-52109D01*
X152174Y-52095D01*
X152130Y-52066D01*
X152057Y-52036D01*
X151955Y-51993D01*
X151824Y-51949D01*
X151663Y-51905D01*
X151474Y-51891D01*
X151255Y-51876D01*
X151124D01*
X150993Y-51891D01*
X150832Y-51905D01*
X150643Y-51934D01*
X150468Y-51964D01*
X150308Y-52022D01*
X150162Y-52095D01*
X150147D01*
X150133Y-52124D01*
X150060Y-52197D01*
X149972Y-52328D01*
X149958Y-52401D01*
X149943Y-52488D01*
Y-52503D01*
Y-52518D01*
X149972Y-52605D01*
X150031Y-52722D01*
X150074Y-52780D01*
X150133Y-52838D01*
X150147Y-52853D01*
X150205Y-52868D01*
X150235Y-52897D01*
X150293Y-52911D01*
X150366Y-52940D01*
X150453Y-52984D01*
X150570Y-53013D01*
X150687Y-53057D01*
X150832Y-53101D01*
X151007Y-53145D01*
X151197Y-53203D01*
X151416Y-53261D01*
X151663Y-53320D01*
X151941Y-53392D01*
X151955D01*
X152013Y-53407D01*
X152086Y-53422D01*
X152188Y-53451D01*
X152320Y-53495D01*
X152465Y-53524D01*
X152786Y-53626D01*
X153151Y-53757D01*
X153500Y-53903D01*
X153675Y-53990D01*
X153836Y-54063D01*
X153967Y-54165D01*
X154098Y-54253D01*
X154127Y-54282D01*
X154200Y-54340D01*
X154288Y-54457D01*
X154404Y-54617D01*
X154521Y-54821D01*
X154609Y-55069D01*
X154682Y-55361D01*
X154711Y-55682D01*
Y-55696D01*
Y-55725D01*
Y-55784D01*
X154696Y-55857D01*
X154682Y-55929D01*
X154667Y-56031D01*
X154609Y-56279D01*
X154507Y-56542D01*
X154434Y-56687D01*
X154361Y-56833D01*
X154259Y-56979D01*
X154142Y-57125D01*
X154011Y-57271D01*
X153865Y-57416D01*
X153850Y-57431D01*
X153821Y-57446D01*
X153778Y-57475D01*
X153705Y-57533D01*
X153617Y-57577D01*
X153515Y-57635D01*
X153384Y-57708D01*
X153238Y-57766D01*
X153078Y-57839D01*
X152888Y-57898D01*
X152684Y-57971D01*
X152465Y-58014D01*
X152217Y-58058D01*
X151955Y-58102D01*
X151678Y-58116D01*
X151386Y-58131D01*
X151241D01*
X151139Y-58116D01*
X151007D01*
X150862Y-58102D01*
X150701Y-58087D01*
X150526Y-58058D01*
X150147Y-57985D01*
X149753Y-57883D01*
X149360Y-57737D01*
X149185Y-57635D01*
X149010Y-57533D01*
X148995Y-57519D01*
X148966Y-57504D01*
X148922Y-57475D01*
X148879Y-57416D01*
X148718Y-57285D01*
X148543Y-57096D01*
X148354Y-56862D01*
X148179Y-56586D01*
X148018Y-56250D01*
X147887Y-55886D01*
X149826Y-55594D01*
Y-55623D01*
X149855Y-55682D01*
X149885Y-55784D01*
X149928Y-55915D01*
X150001Y-56061D01*
X150089Y-56192D01*
X150191Y-56338D01*
X150322Y-56454D01*
X150337Y-56469D01*
X150395Y-56498D01*
X150482Y-56542D01*
X150599Y-56586D01*
X150745Y-56644D01*
X150934Y-56687D01*
X151139Y-56717D01*
X151386Y-56731D01*
X151503D01*
X151649Y-56717D01*
X151809Y-56702D01*
X151984Y-56673D01*
X152174Y-56615D01*
X152349Y-56556D01*
X152509Y-56469D01*
X152524Y-56454D01*
X152553Y-56425D01*
X152597Y-56381D01*
X152640Y-56323D01*
X152684Y-56250D01*
X152728Y-56163D01*
X152757Y-56061D01*
X152771Y-55944D01*
Y-55929D01*
Y-55900D01*
X152757Y-55813D01*
X152713Y-55696D01*
X152626Y-55579D01*
X152597Y-55550D01*
X152553Y-55536D01*
X152495Y-55492D01*
X152407Y-55463D01*
X152290Y-55419D01*
X152159Y-55375D01*
X151984Y-55332D01*
X151955D01*
X151882Y-55302D01*
X151766Y-55273D01*
X151605Y-55244D01*
X151416Y-55200D01*
X151211Y-55142D01*
X150978Y-55084D01*
X150730Y-55011D01*
X150220Y-54865D01*
X149972Y-54792D01*
X149739Y-54705D01*
X149520Y-54632D01*
X149316Y-54544D01*
X149141Y-54457D01*
X149010Y-54384D01*
X148995Y-54369D01*
X148966Y-54355D01*
X148937Y-54326D01*
X148879Y-54267D01*
X148733Y-54136D01*
X148587Y-53947D01*
X148427Y-53713D01*
X148281Y-53436D01*
X148223Y-53276D01*
X148193Y-53101D01*
X148164Y-52926D01*
X148150Y-52736D01*
Y-52722D01*
Y-52693D01*
Y-52649D01*
X148164Y-52576D01*
X148179Y-52503D01*
X148193Y-52401D01*
X148237Y-52182D01*
X148325Y-51934D01*
X148470Y-51672D01*
X148543Y-51526D01*
X148645Y-51395D01*
X148762Y-51264D01*
X148893Y-51147D01*
X148908Y-51133D01*
X148922Y-51118D01*
X148966Y-51089D01*
X149039Y-51045D01*
X149112Y-51001D01*
X149214Y-50943D01*
X149331Y-50885D01*
X149462Y-50812D01*
X149622Y-50753D01*
X149797Y-50695D01*
X149987Y-50637D01*
X150191Y-50593D01*
X150424Y-50549D01*
X150672Y-50520D01*
X150934Y-50491D01*
X151474D01*
X151591Y-50506D01*
D02*
G37*
G36*
X159726D02*
X159843D01*
X159974Y-50520D01*
X160120Y-50535D01*
X160280Y-50564D01*
X160616Y-50637D01*
X160966Y-50739D01*
X161315Y-50885D01*
X161636Y-51074D01*
X161651D01*
X161665Y-51103D01*
X161709Y-51133D01*
X161767Y-51176D01*
X161899Y-51307D01*
X162074Y-51497D01*
X162263Y-51745D01*
X162453Y-52036D01*
X162628Y-52386D01*
X162773Y-52795D01*
X160863Y-53145D01*
Y-53115D01*
X160849Y-53057D01*
X160820Y-52955D01*
X160776Y-52824D01*
X160703Y-52693D01*
X160630Y-52547D01*
X160528Y-52416D01*
X160411Y-52299D01*
X160397Y-52284D01*
X160353Y-52255D01*
X160280Y-52211D01*
X160178Y-52153D01*
X160047Y-52095D01*
X159901Y-52051D01*
X159726Y-52022D01*
X159537Y-52007D01*
X159508D01*
X159420Y-52022D01*
X159289Y-52036D01*
X159114Y-52066D01*
X158939Y-52139D01*
X158749Y-52226D01*
X158560Y-52343D01*
X158385Y-52518D01*
X158370Y-52547D01*
X158326Y-52620D01*
X158254Y-52736D01*
X158181Y-52911D01*
X158093Y-53145D01*
X158064Y-53276D01*
X158035Y-53422D01*
X158006Y-53597D01*
X157977Y-53772D01*
X157962Y-53976D01*
Y-54180D01*
Y-54194D01*
Y-54238D01*
Y-54311D01*
X157977Y-54399D01*
Y-54501D01*
X157991Y-54617D01*
X158020Y-54909D01*
X158064Y-55215D01*
X158151Y-55521D01*
X158254Y-55798D01*
X158326Y-55915D01*
X158399Y-56031D01*
X158414Y-56061D01*
X158487Y-56119D01*
X158574Y-56192D01*
X158706Y-56294D01*
X158880Y-56396D01*
X159070Y-56469D01*
X159303Y-56527D01*
X159566Y-56556D01*
X159653D01*
X159755Y-56542D01*
X159887Y-56513D01*
X160032Y-56483D01*
X160178Y-56425D01*
X160324Y-56352D01*
X160470Y-56250D01*
X160484Y-56235D01*
X160528Y-56192D01*
X160586Y-56119D01*
X160674Y-56002D01*
X160761Y-55857D01*
X160834Y-55667D01*
X160922Y-55434D01*
X160980Y-55171D01*
X162875Y-55492D01*
Y-55506D01*
X162861Y-55550D01*
X162846Y-55623D01*
X162817Y-55711D01*
X162773Y-55813D01*
X162730Y-55944D01*
X162613Y-56235D01*
X162467Y-56556D01*
X162263Y-56877D01*
X162015Y-57198D01*
X161869Y-57344D01*
X161724Y-57475D01*
X161709D01*
X161680Y-57504D01*
X161636Y-57533D01*
X161578Y-57577D01*
X161490Y-57621D01*
X161388Y-57679D01*
X161272Y-57737D01*
X161126Y-57796D01*
X160980Y-57868D01*
X160805Y-57927D01*
X160630Y-57985D01*
X160426Y-58029D01*
X160207Y-58073D01*
X159974Y-58102D01*
X159741Y-58116D01*
X159478Y-58131D01*
X159318D01*
X159216Y-58116D01*
X159085Y-58102D01*
X158924Y-58073D01*
X158749Y-58043D01*
X158560Y-58000D01*
X158356Y-57956D01*
X158151Y-57883D01*
X157933Y-57810D01*
X157729Y-57708D01*
X157510Y-57591D01*
X157306Y-57460D01*
X157116Y-57300D01*
X156927Y-57125D01*
X156912Y-57110D01*
X156883Y-57081D01*
X156839Y-57023D01*
X156781Y-56935D01*
X156708Y-56833D01*
X156621Y-56717D01*
X156548Y-56571D01*
X156460Y-56396D01*
X156358Y-56206D01*
X156285Y-56002D01*
X156198Y-55769D01*
X156125Y-55521D01*
X156067Y-55244D01*
X156023Y-54967D01*
X155994Y-54646D01*
X155979Y-54326D01*
Y-54311D01*
Y-54253D01*
Y-54151D01*
X155994Y-54034D01*
X156008Y-53874D01*
X156023Y-53699D01*
X156052Y-53509D01*
X156096Y-53290D01*
X156212Y-52838D01*
X156285Y-52605D01*
X156373Y-52372D01*
X156489Y-52139D01*
X156621Y-51920D01*
X156766Y-51716D01*
X156927Y-51512D01*
X156941Y-51497D01*
X156971Y-51468D01*
X157029Y-51424D01*
X157102Y-51351D01*
X157204Y-51278D01*
X157320Y-51191D01*
X157452Y-51089D01*
X157612Y-51001D01*
X157787Y-50899D01*
X157977Y-50812D01*
X158195Y-50724D01*
X158429Y-50651D01*
X158662Y-50578D01*
X158939Y-50535D01*
X159216Y-50506D01*
X159508Y-50491D01*
X159639D01*
X159726Y-50506D01*
D02*
G37*
G36*
X199865Y-51614D02*
X199880Y-51599D01*
X199909Y-51570D01*
X199967Y-51512D01*
X200025Y-51439D01*
X200127Y-51351D01*
X200229Y-51264D01*
X200361Y-51162D01*
X200492Y-51045D01*
X200652Y-50943D01*
X200827Y-50841D01*
X201206Y-50666D01*
X201410Y-50593D01*
X201629Y-50535D01*
X201862Y-50506D01*
X202096Y-50491D01*
X202212D01*
X202344Y-50506D01*
X202504Y-50520D01*
X202693Y-50549D01*
X202883Y-50608D01*
X203102Y-50666D01*
X203306Y-50753D01*
X203335Y-50768D01*
X203393Y-50797D01*
X203495Y-50855D01*
X203612Y-50928D01*
X203743Y-51016D01*
X203874Y-51118D01*
X204006Y-51249D01*
X204122Y-51380D01*
X204137Y-51395D01*
X204166Y-51453D01*
X204210Y-51526D01*
X204268Y-51628D01*
X204341Y-51759D01*
X204399Y-51905D01*
X204458Y-52066D01*
X204501Y-52241D01*
Y-52255D01*
X204516Y-52328D01*
X204531Y-52445D01*
X204560Y-52591D01*
X204574Y-52795D01*
X204589Y-53043D01*
X204603Y-53334D01*
Y-53684D01*
Y-57971D01*
X202664D01*
Y-54121D01*
Y-54107D01*
Y-54078D01*
Y-54019D01*
Y-53932D01*
Y-53844D01*
Y-53742D01*
X202650Y-53509D01*
X202635Y-53261D01*
X202621Y-53013D01*
X202591Y-52809D01*
X202562Y-52736D01*
X202548Y-52663D01*
Y-52649D01*
X202519Y-52605D01*
X202489Y-52561D01*
X202460Y-52488D01*
X202329Y-52328D01*
X202256Y-52241D01*
X202154Y-52168D01*
X202139Y-52153D01*
X202110Y-52139D01*
X202037Y-52109D01*
X201964Y-52066D01*
X201862Y-52036D01*
X201746Y-52007D01*
X201600Y-51993D01*
X201454Y-51978D01*
X201367D01*
X201279Y-51993D01*
X201163Y-52007D01*
X201031Y-52036D01*
X200886Y-52080D01*
X200740Y-52139D01*
X200594Y-52226D01*
X200579Y-52241D01*
X200536Y-52270D01*
X200463Y-52328D01*
X200390Y-52401D01*
X200288Y-52503D01*
X200200Y-52620D01*
X200113Y-52766D01*
X200040Y-52926D01*
Y-52940D01*
X200011Y-53013D01*
X199981Y-53115D01*
X199952Y-53276D01*
X199923Y-53465D01*
X199894Y-53713D01*
X199880Y-53990D01*
X199865Y-54311D01*
Y-57971D01*
X197926D01*
Y-47881D01*
X199865D01*
Y-51614D01*
D02*
G37*
G36*
X187341Y-57971D02*
X185401D01*
Y-50651D01*
X187341D01*
Y-57971D01*
D02*
G37*
G36*
X178899Y-56265D02*
X183973D01*
Y-57971D01*
X176858D01*
Y-47954D01*
X178899D01*
Y-56265D01*
D02*
G37*
G36*
X146575Y-57971D02*
X144636D01*
Y-50651D01*
X146575D01*
Y-57971D01*
D02*
G37*
G36*
X138629Y-47896D02*
X138906Y-47910D01*
X139212Y-47925D01*
X139533Y-47969D01*
X139839Y-48012D01*
X140116Y-48085D01*
X140131D01*
X140160Y-48100D01*
X140203Y-48114D01*
X140262Y-48129D01*
X140437Y-48202D01*
X140641Y-48304D01*
X140874Y-48435D01*
X141137Y-48596D01*
X141384Y-48785D01*
X141632Y-49018D01*
X141647D01*
X141662Y-49048D01*
X141734Y-49135D01*
X141851Y-49281D01*
X141982Y-49470D01*
X142143Y-49704D01*
X142303Y-49981D01*
X142463Y-50301D01*
X142595Y-50651D01*
Y-50666D01*
X142609Y-50695D01*
X142624Y-50753D01*
X142653Y-50826D01*
X142668Y-50914D01*
X142697Y-51030D01*
X142726Y-51162D01*
X142770Y-51307D01*
X142799Y-51468D01*
X142828Y-51657D01*
X142857Y-51847D01*
X142872Y-52066D01*
X142915Y-52518D01*
X142930Y-53028D01*
Y-53043D01*
Y-53086D01*
Y-53145D01*
Y-53232D01*
X142915Y-53349D01*
Y-53465D01*
X142901Y-53611D01*
X142886Y-53772D01*
X142857Y-54107D01*
X142799Y-54457D01*
X142711Y-54821D01*
X142609Y-55171D01*
Y-55186D01*
X142595Y-55215D01*
X142566Y-55273D01*
X142536Y-55361D01*
X142507Y-55448D01*
X142449Y-55550D01*
X142332Y-55813D01*
X142186Y-56090D01*
X141997Y-56396D01*
X141778Y-56687D01*
X141530Y-56964D01*
X141501Y-56994D01*
X141428Y-57052D01*
X141312Y-57139D01*
X141151Y-57256D01*
X140947Y-57387D01*
X140714Y-57519D01*
X140422Y-57650D01*
X140102Y-57766D01*
X140087D01*
X140072Y-57781D01*
X140029D01*
X139985Y-57796D01*
X139824Y-57825D01*
X139620Y-57868D01*
X139373Y-57912D01*
X139066Y-57941D01*
X138702Y-57956D01*
X138308Y-57971D01*
X134488D01*
Y-47881D01*
X138512D01*
X138629Y-47896D01*
D02*
G37*
G36*
X208598Y-50651D02*
X209925D01*
Y-52197D01*
X208598D01*
Y-55157D01*
Y-55171D01*
Y-55200D01*
Y-55244D01*
Y-55302D01*
Y-55448D01*
Y-55623D01*
X208613Y-55798D01*
Y-55973D01*
Y-56104D01*
X208628Y-56163D01*
Y-56192D01*
X208642Y-56221D01*
X208671Y-56279D01*
X208715Y-56352D01*
X208802Y-56440D01*
X208832Y-56454D01*
X208890Y-56483D01*
X208992Y-56513D01*
X209123Y-56527D01*
X209181D01*
X209240Y-56513D01*
X209327Y-56498D01*
X209444Y-56483D01*
X209575Y-56454D01*
X209736Y-56410D01*
X209910Y-56352D01*
X210086Y-57854D01*
X210071D01*
X210056Y-57868D01*
X209969Y-57898D01*
X209823Y-57941D01*
X209633Y-57985D01*
X209415Y-58043D01*
X209152Y-58087D01*
X208861Y-58116D01*
X208555Y-58131D01*
X208467D01*
X208365Y-58116D01*
X208234Y-58102D01*
X208088Y-58087D01*
X207928Y-58058D01*
X207767Y-58014D01*
X207607Y-57956D01*
X207592Y-57941D01*
X207534Y-57927D01*
X207461Y-57883D01*
X207374Y-57839D01*
X207170Y-57693D01*
X207067Y-57606D01*
X206980Y-57504D01*
X206965Y-57489D01*
X206951Y-57446D01*
X206922Y-57387D01*
X206878Y-57300D01*
X206834Y-57198D01*
X206790Y-57067D01*
X206747Y-56921D01*
X206717Y-56760D01*
Y-56746D01*
X206703Y-56687D01*
Y-56600D01*
X206688Y-56454D01*
X206674Y-56265D01*
Y-56031D01*
X206659Y-55900D01*
Y-55740D01*
Y-55579D01*
Y-55390D01*
Y-52197D01*
X205770D01*
Y-50651D01*
X206659D01*
Y-49193D01*
X208598Y-48056D01*
Y-50651D01*
D02*
G37*
G36*
X192108Y-50506D02*
X192210D01*
X192313Y-50535D01*
X192458Y-50549D01*
X192604Y-50593D01*
X192764Y-50637D01*
X192939Y-50710D01*
X193114Y-50783D01*
X193304Y-50885D01*
X193493Y-51001D01*
X193683Y-51133D01*
X193872Y-51307D01*
X194047Y-51482D01*
X194222Y-51701D01*
Y-50651D01*
X196030D01*
Y-57227D01*
Y-57242D01*
Y-57285D01*
Y-57344D01*
Y-57431D01*
Y-57548D01*
X196016Y-57664D01*
X196001Y-57941D01*
X195972Y-58262D01*
X195943Y-58583D01*
X195885Y-58889D01*
X195855Y-59020D01*
X195812Y-59152D01*
X195797Y-59181D01*
X195768Y-59254D01*
X195724Y-59370D01*
X195651Y-59516D01*
X195564Y-59676D01*
X195462Y-59851D01*
X195345Y-60012D01*
X195199Y-60158D01*
X195185Y-60172D01*
X195126Y-60216D01*
X195039Y-60289D01*
X194937Y-60362D01*
X194791Y-60449D01*
X194616Y-60551D01*
X194412Y-60639D01*
X194179Y-60726D01*
X194149Y-60741D01*
X194062Y-60755D01*
X193931Y-60799D01*
X193741Y-60828D01*
X193493Y-60872D01*
X193216Y-60916D01*
X192896Y-60930D01*
X192546Y-60945D01*
X192371D01*
X192240Y-60930D01*
X192094D01*
X191919Y-60916D01*
X191729Y-60887D01*
X191525Y-60857D01*
X191088Y-60785D01*
X190650Y-60668D01*
X190446Y-60595D01*
X190242Y-60508D01*
X190067Y-60420D01*
X189907Y-60303D01*
X189892Y-60289D01*
X189878Y-60274D01*
X189790Y-60187D01*
X189659Y-60056D01*
X189528Y-59866D01*
X189382Y-59633D01*
X189251Y-59356D01*
X189163Y-59035D01*
X189149Y-58860D01*
X189134Y-58685D01*
Y-58670D01*
Y-58612D01*
Y-58539D01*
X189149Y-58452D01*
X191365Y-58714D01*
Y-58729D01*
X191379Y-58772D01*
X191394Y-58845D01*
X191409Y-58918D01*
X191481Y-59093D01*
X191540Y-59181D01*
X191613Y-59239D01*
X191627Y-59254D01*
X191671Y-59268D01*
X191729Y-59312D01*
X191831Y-59341D01*
X191948Y-59385D01*
X192094Y-59429D01*
X192269Y-59443D01*
X192473Y-59458D01*
X192604D01*
X192735Y-59443D01*
X192896Y-59429D01*
X193085Y-59399D01*
X193275Y-59356D01*
X193450Y-59297D01*
X193610Y-59224D01*
X193625Y-59210D01*
X193654Y-59195D01*
X193698Y-59166D01*
X193756Y-59108D01*
X193814Y-59035D01*
X193872Y-58947D01*
X193931Y-58845D01*
X193989Y-58729D01*
Y-58714D01*
X194004Y-58685D01*
X194018Y-58627D01*
X194047Y-58525D01*
X194062Y-58408D01*
X194077Y-58262D01*
X194091Y-58073D01*
Y-57854D01*
Y-56790D01*
X194077Y-56804D01*
X194047Y-56833D01*
X194004Y-56892D01*
X193931Y-56979D01*
X193858Y-57067D01*
X193756Y-57169D01*
X193625Y-57271D01*
X193493Y-57373D01*
X193348Y-57489D01*
X193173Y-57591D01*
X192808Y-57781D01*
X192604Y-57854D01*
X192385Y-57912D01*
X192152Y-57956D01*
X191904Y-57971D01*
X191846D01*
X191758Y-57956D01*
X191656D01*
X191540Y-57927D01*
X191394Y-57898D01*
X191234Y-57868D01*
X191059Y-57810D01*
X190884Y-57752D01*
X190694Y-57664D01*
X190490Y-57562D01*
X190300Y-57446D01*
X190111Y-57300D01*
X189921Y-57139D01*
X189746Y-56950D01*
X189571Y-56731D01*
Y-56717D01*
X189542Y-56687D01*
X189513Y-56629D01*
X189469Y-56556D01*
X189411Y-56454D01*
X189353Y-56338D01*
X189294Y-56206D01*
X189236Y-56046D01*
X189178Y-55886D01*
X189120Y-55696D01*
X189061Y-55492D01*
X189003Y-55273D01*
X188930Y-54807D01*
X188915Y-54544D01*
X188901Y-54282D01*
Y-54267D01*
Y-54194D01*
Y-54107D01*
X188915Y-53976D01*
X188930Y-53830D01*
X188944Y-53655D01*
X188974Y-53451D01*
X189017Y-53247D01*
X189120Y-52780D01*
X189192Y-52547D01*
X189265Y-52314D01*
X189367Y-52095D01*
X189484Y-51862D01*
X189615Y-51657D01*
X189776Y-51468D01*
X189790Y-51453D01*
X189819Y-51424D01*
X189863Y-51380D01*
X189936Y-51307D01*
X190023Y-51235D01*
X190126Y-51162D01*
X190242Y-51074D01*
X190388Y-50972D01*
X190534Y-50885D01*
X190709Y-50797D01*
X191073Y-50637D01*
X191292Y-50578D01*
X191511Y-50535D01*
X191744Y-50506D01*
X191977Y-50491D01*
X192035D01*
X192108Y-50506D01*
D02*
G37*
%LPC*%
G36*
X278002Y-144631D02*
X277926D01*
X277838Y-144653D01*
X277729Y-144675D01*
X277609Y-144719D01*
X277477Y-144773D01*
X277346Y-144861D01*
X277226Y-144981D01*
X277215Y-144992D01*
X277182Y-145047D01*
X277128Y-145123D01*
X277073Y-145232D01*
X277007Y-145364D01*
X276964Y-145528D01*
X276931Y-145713D01*
X276920Y-145921D01*
X279084D01*
Y-145910D01*
Y-145888D01*
Y-145867D01*
X279073Y-145823D01*
X279062Y-145703D01*
X279040Y-145571D01*
X278997Y-145418D01*
X278942Y-145254D01*
X278855Y-145101D01*
X278756Y-144970D01*
X278745Y-144959D01*
X278702Y-144916D01*
X278636Y-144861D01*
X278549Y-144795D01*
X278439Y-144741D01*
X278308Y-144686D01*
X278166Y-144642D01*
X278002Y-144631D01*
D02*
G37*
G36*
X249803Y-144631D02*
X249726D01*
X249639Y-144653D01*
X249529Y-144675D01*
X249409Y-144719D01*
X249278Y-144773D01*
X249147Y-144861D01*
X249027Y-144981D01*
X249016Y-144992D01*
X248983Y-145047D01*
X248928Y-145123D01*
X248874Y-145232D01*
X248808Y-145364D01*
X248764Y-145528D01*
X248731Y-145713D01*
X248721Y-145921D01*
X250885D01*
Y-145910D01*
Y-145888D01*
Y-145867D01*
X250874Y-145823D01*
X250863Y-145703D01*
X250841Y-145571D01*
X250797Y-145418D01*
X250743Y-145254D01*
X250655Y-145101D01*
X250557Y-144970D01*
X250546Y-144959D01*
X250502Y-144916D01*
X250437Y-144861D01*
X250349Y-144795D01*
X250240Y-144741D01*
X250109Y-144686D01*
X249967Y-144642D01*
X249803Y-144631D01*
D02*
G37*
G36*
X239561Y-144697D02*
X239507D01*
X239463Y-144708D01*
X239365Y-144719D01*
X239233Y-144752D01*
X239080Y-144806D01*
X238916Y-144883D01*
X238752Y-144992D01*
X238599Y-145134D01*
X238589Y-145156D01*
X238545Y-145211D01*
X238479Y-145320D01*
X238414Y-145451D01*
X238337Y-145626D01*
X238282Y-145845D01*
X238239Y-146096D01*
X238217Y-146380D01*
Y-146391D01*
Y-146413D01*
Y-146457D01*
X238228Y-146511D01*
Y-146588D01*
X238239Y-146664D01*
X238261Y-146839D01*
X238315Y-147047D01*
X238381Y-147255D01*
X238468Y-147462D01*
X238599Y-147637D01*
X238621Y-147659D01*
X238665Y-147703D01*
X238752Y-147768D01*
X238873Y-147845D01*
X239004Y-147932D01*
X239168Y-147998D01*
X239354Y-148041D01*
X239561Y-148063D01*
X239616D01*
X239660Y-148053D01*
X239758Y-148041D01*
X239889Y-148009D01*
X240042Y-147954D01*
X240206Y-147889D01*
X240359Y-147779D01*
X240512Y-147637D01*
X240534Y-147615D01*
X240578Y-147561D01*
X240632Y-147451D01*
X240709Y-147320D01*
X240785Y-147134D01*
X240840Y-146927D01*
X240884Y-146664D01*
X240906Y-146380D01*
Y-146369D01*
Y-146347D01*
Y-146304D01*
X240895Y-146249D01*
Y-146183D01*
X240884Y-146096D01*
X240862Y-145921D01*
X240807Y-145724D01*
X240742Y-145517D01*
X240643Y-145309D01*
X240512Y-145134D01*
X240490Y-145112D01*
X240447Y-145069D01*
X240359Y-144992D01*
X240250Y-144916D01*
X240108Y-144839D01*
X239955Y-144763D01*
X239769Y-144719D01*
X239561Y-144697D01*
D02*
G37*
G36*
X271728Y-144631D02*
X271706D01*
X271641Y-144642D01*
X271542Y-144653D01*
X271422Y-144686D01*
X271291Y-144730D01*
X271138Y-144806D01*
X270996Y-144905D01*
X270865Y-145047D01*
X270854Y-145069D01*
X270810Y-145123D01*
X270766Y-145222D01*
X270701Y-145353D01*
X270646Y-145528D01*
X270591Y-145735D01*
X270548Y-145987D01*
X270537Y-146282D01*
Y-146293D01*
Y-146315D01*
Y-146369D01*
X270548Y-146424D01*
Y-146490D01*
X270559Y-146577D01*
X270581Y-146763D01*
X270613Y-146970D01*
X270679Y-147178D01*
X270756Y-147375D01*
X270865Y-147550D01*
X270876Y-147572D01*
X270930Y-147615D01*
X270996Y-147681D01*
X271094Y-147746D01*
X271215Y-147823D01*
X271357Y-147889D01*
X271521Y-147932D01*
X271695Y-147954D01*
X271717D01*
X271783Y-147943D01*
X271881Y-147932D01*
X272012Y-147899D01*
X272154Y-147856D01*
X272297Y-147779D01*
X272450Y-147681D01*
X272592Y-147539D01*
X272603Y-147517D01*
X272646Y-147462D01*
X272712Y-147364D01*
X272778Y-147233D01*
X272843Y-147058D01*
X272909Y-146850D01*
X272952Y-146599D01*
X272963Y-146315D01*
Y-146304D01*
Y-146282D01*
Y-146238D01*
Y-146172D01*
X272952Y-146107D01*
X272941Y-146019D01*
X272920Y-145834D01*
X272876Y-145626D01*
X272821Y-145418D01*
X272734Y-145222D01*
X272614Y-145047D01*
X272603Y-145025D01*
X272548Y-144981D01*
X272471Y-144916D01*
X272373Y-144839D01*
X272242Y-144763D01*
X272089Y-144697D01*
X271925Y-144653D01*
X271728Y-144631D01*
D02*
G37*
G36*
X88958Y-145017D02*
X88936D01*
X88870Y-145028D01*
X88772Y-145039D01*
X88652Y-145071D01*
X88509Y-145115D01*
X88356Y-145192D01*
X88214Y-145290D01*
X88072Y-145432D01*
X88061Y-145454D01*
X88017Y-145509D01*
X87963Y-145607D01*
X87908Y-145738D01*
X87843Y-145913D01*
X87788Y-146121D01*
X87744Y-146361D01*
X87733Y-146645D01*
Y-146656D01*
Y-146689D01*
Y-146733D01*
X87744Y-146798D01*
Y-146875D01*
X87755Y-146962D01*
X87777Y-147159D01*
X87821Y-147389D01*
X87886Y-147618D01*
X87974Y-147826D01*
X88028Y-147924D01*
X88094Y-148012D01*
X88116Y-148033D01*
X88160Y-148077D01*
X88236Y-148154D01*
X88345Y-148230D01*
X88466Y-148307D01*
X88619Y-148383D01*
X88794Y-148427D01*
X88979Y-148449D01*
X89001D01*
X89067Y-148438D01*
X89154Y-148427D01*
X89275Y-148394D01*
X89406Y-148350D01*
X89548Y-148274D01*
X89690Y-148176D01*
X89821Y-148044D01*
X89832Y-148022D01*
X89876Y-147968D01*
X89930Y-147870D01*
X89996Y-147727D01*
X90018Y-147640D01*
X90051Y-147542D01*
X90083Y-147432D01*
X90105Y-147312D01*
X90127Y-147181D01*
X90149Y-147039D01*
X90160Y-146886D01*
Y-146722D01*
Y-146711D01*
Y-146678D01*
Y-146634D01*
Y-146580D01*
X90149Y-146503D01*
X90138Y-146427D01*
X90116Y-146241D01*
X90072Y-146033D01*
X90018Y-145815D01*
X89930Y-145618D01*
X89810Y-145443D01*
X89799Y-145421D01*
X89745Y-145378D01*
X89668Y-145312D01*
X89570Y-145224D01*
X89449Y-145148D01*
X89307Y-145082D01*
X89143Y-145039D01*
X88958Y-145017D01*
D02*
G37*
G36*
X82498D02*
X82476D01*
X82410Y-145028D01*
X82312Y-145039D01*
X82192Y-145071D01*
X82050Y-145115D01*
X81897Y-145192D01*
X81755Y-145290D01*
X81612Y-145432D01*
X81602Y-145454D01*
X81558Y-145509D01*
X81503Y-145607D01*
X81449Y-145738D01*
X81383Y-145913D01*
X81328Y-146121D01*
X81285Y-146361D01*
X81274Y-146645D01*
Y-146656D01*
Y-146689D01*
Y-146733D01*
X81285Y-146798D01*
Y-146875D01*
X81296Y-146962D01*
X81317Y-147159D01*
X81361Y-147389D01*
X81427Y-147618D01*
X81514Y-147826D01*
X81569Y-147924D01*
X81634Y-148012D01*
X81656Y-148033D01*
X81700Y-148077D01*
X81776Y-148154D01*
X81886Y-148230D01*
X82006Y-148307D01*
X82159Y-148383D01*
X82334Y-148427D01*
X82520Y-148449D01*
X82542D01*
X82607Y-148438D01*
X82695Y-148427D01*
X82815Y-148394D01*
X82946Y-148350D01*
X83088Y-148274D01*
X83230Y-148176D01*
X83361Y-148044D01*
X83372Y-148022D01*
X83416Y-147968D01*
X83471Y-147870D01*
X83536Y-147727D01*
X83558Y-147640D01*
X83591Y-147542D01*
X83624Y-147432D01*
X83645Y-147312D01*
X83667Y-147181D01*
X83689Y-147039D01*
X83700Y-146886D01*
Y-146722D01*
Y-146711D01*
Y-146678D01*
Y-146634D01*
Y-146580D01*
X83689Y-146503D01*
X83678Y-146427D01*
X83656Y-146241D01*
X83613Y-146033D01*
X83558Y-145815D01*
X83471Y-145618D01*
X83350Y-145443D01*
X83340Y-145421D01*
X83285Y-145378D01*
X83208Y-145312D01*
X83110Y-145224D01*
X82990Y-145148D01*
X82848Y-145082D01*
X82684Y-145039D01*
X82498Y-145017D01*
D02*
G37*
G36*
X120501Y-146853D02*
X120491D01*
X120447Y-146875D01*
X120381Y-146886D01*
X120283Y-146919D01*
X120163Y-146951D01*
X119999Y-146995D01*
X119824Y-147039D01*
X119605Y-147083D01*
X119583D01*
X119551Y-147093D01*
X119507Y-147104D01*
X119409Y-147126D01*
X119277Y-147159D01*
X119146Y-147192D01*
X119015Y-147236D01*
X118906Y-147290D01*
X118818Y-147334D01*
X118807Y-147345D01*
X118774Y-147367D01*
X118731Y-147411D01*
X118687Y-147465D01*
X118632Y-147542D01*
X118589Y-147629D01*
X118556Y-147727D01*
X118545Y-147837D01*
Y-147848D01*
Y-147891D01*
X118556Y-147946D01*
X118578Y-148012D01*
X118600Y-148099D01*
X118632Y-148187D01*
X118687Y-148274D01*
X118764Y-148361D01*
X118774Y-148372D01*
X118807Y-148394D01*
X118851Y-148427D01*
X118928Y-148471D01*
X119004Y-148514D01*
X119102Y-148547D01*
X119223Y-148569D01*
X119343Y-148580D01*
X119409D01*
X119485Y-148569D01*
X119583Y-148547D01*
X119704Y-148514D01*
X119824Y-148471D01*
X119966Y-148416D01*
X120097Y-148329D01*
X120108Y-148318D01*
X120141Y-148296D01*
X120185Y-148252D01*
X120239Y-148197D01*
X120294Y-148121D01*
X120349Y-148044D01*
X120403Y-147946D01*
X120436Y-147848D01*
Y-147837D01*
X120447Y-147815D01*
X120458Y-147760D01*
X120469Y-147695D01*
X120480Y-147596D01*
X120491Y-147476D01*
X120501Y-147323D01*
Y-147148D01*
Y-146853D01*
D02*
G37*
G36*
X98762D02*
X98751D01*
X98707Y-146875D01*
X98642Y-146886D01*
X98543Y-146919D01*
X98423Y-146951D01*
X98259Y-146995D01*
X98084Y-147039D01*
X97865Y-147083D01*
X97844D01*
X97811Y-147093D01*
X97767Y-147104D01*
X97669Y-147126D01*
X97537Y-147159D01*
X97406Y-147192D01*
X97275Y-147236D01*
X97166Y-147290D01*
X97079Y-147334D01*
X97068Y-147345D01*
X97035Y-147367D01*
X96991Y-147411D01*
X96947Y-147465D01*
X96893Y-147542D01*
X96849Y-147629D01*
X96816Y-147727D01*
X96805Y-147837D01*
Y-147848D01*
Y-147891D01*
X96816Y-147946D01*
X96838Y-148012D01*
X96860Y-148099D01*
X96893Y-148187D01*
X96947Y-148274D01*
X97024Y-148361D01*
X97035Y-148372D01*
X97068Y-148394D01*
X97111Y-148427D01*
X97188Y-148471D01*
X97264Y-148514D01*
X97363Y-148547D01*
X97483Y-148569D01*
X97603Y-148580D01*
X97669D01*
X97745Y-148569D01*
X97844Y-148547D01*
X97964Y-148514D01*
X98084Y-148471D01*
X98226Y-148416D01*
X98357Y-148329D01*
X98368Y-148318D01*
X98401Y-148296D01*
X98445Y-148252D01*
X98499Y-148197D01*
X98554Y-148121D01*
X98609Y-148044D01*
X98663Y-147946D01*
X98696Y-147848D01*
Y-147837D01*
X98707Y-147815D01*
X98718Y-147760D01*
X98729Y-147695D01*
X98740Y-147596D01*
X98751Y-147476D01*
X98762Y-147323D01*
Y-147148D01*
Y-146853D01*
D02*
G37*
G36*
X151215Y-144984D02*
X151193D01*
X151127Y-144995D01*
X151029Y-145006D01*
X150909Y-145039D01*
X150767Y-145082D01*
X150614Y-145159D01*
X150471Y-145257D01*
X150329Y-145388D01*
X150319Y-145410D01*
X150275Y-145465D01*
X150220Y-145563D01*
X150165Y-145694D01*
X150100Y-145869D01*
X150045Y-146077D01*
X150002Y-146328D01*
X149991Y-146624D01*
Y-146634D01*
Y-146656D01*
Y-146700D01*
Y-146766D01*
X150002Y-146831D01*
Y-146919D01*
X150023Y-147104D01*
X150056Y-147301D01*
X150100Y-147509D01*
X150165Y-147706D01*
X150253Y-147880D01*
Y-147891D01*
X150275Y-147902D01*
X150319Y-147968D01*
X150406Y-148055D01*
X150526Y-148165D01*
X150668Y-148274D01*
X150843Y-148361D01*
X151040Y-148427D01*
X151149Y-148438D01*
X151269Y-148449D01*
X151291D01*
X151346Y-148438D01*
X151444Y-148427D01*
X151554Y-148394D01*
X151685Y-148350D01*
X151816Y-148274D01*
X151958Y-148176D01*
X152089Y-148044D01*
X152100Y-148022D01*
X152144Y-147968D01*
X152199Y-147870D01*
X152264Y-147727D01*
X152330Y-147553D01*
X152384Y-147334D01*
X152406Y-147203D01*
X152428Y-147061D01*
X152439Y-146919D01*
Y-146755D01*
Y-146744D01*
Y-146711D01*
Y-146667D01*
Y-146602D01*
X152428Y-146525D01*
X152417Y-146438D01*
X152395Y-146230D01*
X152351Y-146011D01*
X152297Y-145782D01*
X152209Y-145574D01*
X152155Y-145487D01*
X152089Y-145399D01*
X152078Y-145378D01*
X152024Y-145334D01*
X151958Y-145268D01*
X151849Y-145192D01*
X151728Y-145115D01*
X151576Y-145050D01*
X151411Y-145006D01*
X151215Y-144984D01*
D02*
G37*
G36*
X135508D02*
X135432D01*
X135344Y-145006D01*
X135235Y-145028D01*
X135115Y-145071D01*
X134984Y-145126D01*
X134853Y-145213D01*
X134732Y-145334D01*
X134721Y-145345D01*
X134689Y-145399D01*
X134634Y-145476D01*
X134579Y-145585D01*
X134514Y-145716D01*
X134470Y-145880D01*
X134437Y-146066D01*
X134426Y-146274D01*
X136590D01*
Y-146263D01*
Y-146241D01*
Y-146219D01*
X136580Y-146175D01*
X136569Y-146055D01*
X136547Y-145924D01*
X136503Y-145771D01*
X136448Y-145607D01*
X136361Y-145454D01*
X136263Y-145323D01*
X136252Y-145312D01*
X136208Y-145268D01*
X136142Y-145213D01*
X136055Y-145148D01*
X135946Y-145093D01*
X135814Y-145039D01*
X135672Y-144995D01*
X135508Y-144984D01*
D02*
G37*
G36*
X75918Y-145050D02*
X75863D01*
X75820Y-145061D01*
X75721Y-145071D01*
X75590Y-145104D01*
X75437Y-145159D01*
X75273Y-145235D01*
X75109Y-145345D01*
X74956Y-145487D01*
X74945Y-145509D01*
X74901Y-145563D01*
X74836Y-145673D01*
X74770Y-145804D01*
X74694Y-145979D01*
X74639Y-146197D01*
X74595Y-146449D01*
X74574Y-146733D01*
Y-146744D01*
Y-146766D01*
Y-146809D01*
X74585Y-146864D01*
Y-146941D01*
X74595Y-147017D01*
X74617Y-147192D01*
X74672Y-147399D01*
X74738Y-147607D01*
X74825Y-147815D01*
X74956Y-147990D01*
X74978Y-148012D01*
X75022Y-148055D01*
X75109Y-148121D01*
X75229Y-148197D01*
X75361Y-148285D01*
X75524Y-148350D01*
X75710Y-148394D01*
X75918Y-148416D01*
X75973D01*
X76016Y-148405D01*
X76115Y-148394D01*
X76246Y-148361D01*
X76399Y-148307D01*
X76563Y-148241D01*
X76716Y-148132D01*
X76869Y-147990D01*
X76891Y-147968D01*
X76934Y-147913D01*
X76989Y-147804D01*
X77066Y-147673D01*
X77142Y-147487D01*
X77197Y-147279D01*
X77241Y-147017D01*
X77262Y-146733D01*
Y-146722D01*
Y-146700D01*
Y-146656D01*
X77251Y-146602D01*
Y-146536D01*
X77241Y-146449D01*
X77219Y-146274D01*
X77164Y-146077D01*
X77099Y-145869D01*
X77000Y-145662D01*
X76869Y-145487D01*
X76847Y-145465D01*
X76803Y-145421D01*
X76716Y-145345D01*
X76607Y-145268D01*
X76464Y-145192D01*
X76311Y-145115D01*
X76126Y-145071D01*
X75918Y-145050D01*
D02*
G37*
G36*
X296905Y-137414D02*
X296895D01*
X296851Y-137436D01*
X296785Y-137447D01*
X296687Y-137480D01*
X296567Y-137512D01*
X296403Y-137556D01*
X296228Y-137600D01*
X296009Y-137644D01*
X295987D01*
X295955Y-137654D01*
X295911Y-137665D01*
X295813Y-137687D01*
X295681Y-137720D01*
X295550Y-137753D01*
X295419Y-137797D01*
X295310Y-137851D01*
X295222Y-137895D01*
X295211Y-137906D01*
X295179Y-137928D01*
X295135Y-137971D01*
X295091Y-138026D01*
X295037Y-138103D01*
X294993Y-138190D01*
X294960Y-138288D01*
X294949Y-138398D01*
Y-138409D01*
Y-138452D01*
X294960Y-138507D01*
X294982Y-138573D01*
X295004Y-138660D01*
X295037Y-138748D01*
X295091Y-138835D01*
X295168Y-138922D01*
X295179Y-138933D01*
X295211Y-138955D01*
X295255Y-138988D01*
X295332Y-139032D01*
X295408Y-139075D01*
X295506Y-139108D01*
X295627Y-139130D01*
X295747Y-139141D01*
X295813D01*
X295889Y-139130D01*
X295987Y-139108D01*
X296108Y-139075D01*
X296228Y-139032D01*
X296370Y-138977D01*
X296501Y-138890D01*
X296512Y-138879D01*
X296545Y-138857D01*
X296588Y-138813D01*
X296643Y-138758D01*
X296698Y-138682D01*
X296753Y-138605D01*
X296807Y-138507D01*
X296840Y-138409D01*
Y-138398D01*
X296851Y-138376D01*
X296862Y-138321D01*
X296873Y-138256D01*
X296884Y-138157D01*
X296895Y-138037D01*
X296905Y-137884D01*
Y-137709D01*
Y-137414D01*
D02*
G37*
G36*
X263132Y-135545D02*
X263055D01*
X262968Y-135567D01*
X262859Y-135589D01*
X262738Y-135633D01*
X262607Y-135687D01*
X262476Y-135775D01*
X262356Y-135895D01*
X262345Y-135906D01*
X262312Y-135960D01*
X262257Y-136037D01*
X262203Y-136146D01*
X262137Y-136277D01*
X262093Y-136441D01*
X262061Y-136627D01*
X262050Y-136835D01*
X264214D01*
Y-136824D01*
Y-136802D01*
Y-136780D01*
X264203Y-136736D01*
X264192Y-136616D01*
X264170Y-136485D01*
X264126Y-136332D01*
X264072Y-136168D01*
X263984Y-136015D01*
X263886Y-135884D01*
X263875Y-135873D01*
X263831Y-135829D01*
X263766Y-135775D01*
X263678Y-135709D01*
X263569Y-135654D01*
X263438Y-135600D01*
X263296Y-135556D01*
X263132Y-135545D01*
D02*
G37*
G36*
X250540Y-135611D02*
X250486D01*
X250442Y-135622D01*
X250344Y-135633D01*
X250213Y-135665D01*
X250060Y-135720D01*
X249896Y-135796D01*
X249732Y-135906D01*
X249579Y-136048D01*
X249568Y-136070D01*
X249524Y-136124D01*
X249458Y-136234D01*
X249393Y-136365D01*
X249316Y-136540D01*
X249262Y-136758D01*
X249218Y-137010D01*
X249196Y-137294D01*
Y-137305D01*
Y-137327D01*
Y-137370D01*
X249207Y-137425D01*
Y-137502D01*
X249218Y-137578D01*
X249240Y-137753D01*
X249294Y-137961D01*
X249360Y-138168D01*
X249447Y-138376D01*
X249579Y-138551D01*
X249601Y-138573D01*
X249644Y-138616D01*
X249732Y-138682D01*
X249852Y-138758D01*
X249983Y-138846D01*
X250147Y-138911D01*
X250333Y-138955D01*
X250540Y-138977D01*
X250595D01*
X250639Y-138966D01*
X250737Y-138955D01*
X250868Y-138922D01*
X251021Y-138868D01*
X251185Y-138802D01*
X251338Y-138693D01*
X251491Y-138551D01*
X251513Y-138529D01*
X251557Y-138474D01*
X251612Y-138365D01*
X251688Y-138234D01*
X251765Y-138048D01*
X251819Y-137840D01*
X251863Y-137578D01*
X251885Y-137294D01*
Y-137283D01*
Y-137261D01*
Y-137217D01*
X251874Y-137163D01*
Y-137097D01*
X251863Y-137010D01*
X251841Y-136835D01*
X251786Y-136638D01*
X251721Y-136430D01*
X251623Y-136223D01*
X251491Y-136048D01*
X251469Y-136026D01*
X251426Y-135982D01*
X251338Y-135906D01*
X251229Y-135829D01*
X251087Y-135753D01*
X250934Y-135676D01*
X250748Y-135633D01*
X250540Y-135611D01*
D02*
G37*
G36*
X230823Y-135545D02*
X230746D01*
X230659Y-135567D01*
X230550Y-135589D01*
X230429Y-135633D01*
X230298Y-135687D01*
X230167Y-135775D01*
X230047Y-135895D01*
X230036Y-135906D01*
X230003Y-135960D01*
X229948Y-136037D01*
X229894Y-136146D01*
X229828Y-136277D01*
X229784Y-136441D01*
X229752Y-136627D01*
X229741Y-136835D01*
X231905D01*
Y-136824D01*
Y-136802D01*
Y-136780D01*
X231894Y-136736D01*
X231883Y-136616D01*
X231861Y-136485D01*
X231817Y-136332D01*
X231763Y-136168D01*
X231675Y-136015D01*
X231577Y-135884D01*
X231566Y-135873D01*
X231522Y-135829D01*
X231457Y-135775D01*
X231369Y-135709D01*
X231260Y-135654D01*
X231129Y-135600D01*
X230987Y-135556D01*
X230823Y-135545D01*
D02*
G37*
G36*
X167614Y-51978D02*
X167541D01*
X167483Y-51993D01*
X167337Y-52007D01*
X167162Y-52051D01*
X166958Y-52124D01*
X166739Y-52241D01*
X166521Y-52386D01*
X166302Y-52591D01*
X166273Y-52620D01*
X166214Y-52707D01*
X166127Y-52838D01*
X166039Y-53028D01*
X165937Y-53261D01*
X165850Y-53553D01*
X165791Y-53888D01*
X165762Y-54267D01*
Y-54296D01*
Y-54384D01*
X165777Y-54515D01*
X165791Y-54676D01*
X165806Y-54865D01*
X165850Y-55069D01*
X165893Y-55273D01*
X165952Y-55492D01*
X168664Y-52357D01*
X168649Y-52343D01*
X168591Y-52299D01*
X168489Y-52241D01*
X168358Y-52168D01*
X168212Y-52095D01*
X168037Y-52036D01*
X167833Y-51993D01*
X167614Y-51978D01*
D02*
G37*
G36*
X169262Y-53203D02*
X166564Y-56308D01*
X166579Y-56323D01*
X166652Y-56352D01*
X166739Y-56410D01*
X166870Y-56469D01*
X167016Y-56527D01*
X167191Y-56586D01*
X167381Y-56615D01*
X167599Y-56629D01*
X167672D01*
X167731Y-56615D01*
X167876Y-56600D01*
X168066Y-56556D01*
X168270Y-56483D01*
X168489Y-56381D01*
X168707Y-56235D01*
X168926Y-56046D01*
X168955Y-56017D01*
X169014Y-55929D01*
X169101Y-55798D01*
X169203Y-55609D01*
X169291Y-55375D01*
X169378Y-55098D01*
X169436Y-54763D01*
X169466Y-54384D01*
Y-54369D01*
Y-54355D01*
Y-54267D01*
X169451Y-54151D01*
X169436Y-53990D01*
X169422Y-53801D01*
X169378Y-53611D01*
X169334Y-53407D01*
X169262Y-53203D01*
D02*
G37*
G36*
X137856Y-49587D02*
X136529D01*
Y-56265D01*
X138323D01*
X138512Y-56250D01*
X138716D01*
X138920Y-56221D01*
X139110Y-56206D01*
X139270Y-56177D01*
X139300D01*
X139358Y-56148D01*
X139445Y-56119D01*
X139562Y-56075D01*
X139693Y-56017D01*
X139824Y-55944D01*
X139956Y-55857D01*
X140087Y-55754D01*
X140102Y-55740D01*
X140145Y-55696D01*
X140203Y-55623D01*
X140276Y-55521D01*
X140349Y-55390D01*
X140451Y-55230D01*
X140524Y-55025D01*
X140612Y-54792D01*
Y-54777D01*
X140626Y-54763D01*
Y-54719D01*
X140641Y-54661D01*
X140670Y-54603D01*
X140685Y-54515D01*
X140728Y-54296D01*
X140758Y-54034D01*
X140801Y-53728D01*
X140816Y-53349D01*
X140831Y-52940D01*
Y-52926D01*
Y-52882D01*
Y-52824D01*
Y-52751D01*
Y-52649D01*
X140816Y-52532D01*
X140801Y-52284D01*
X140772Y-51993D01*
X140743Y-51687D01*
X140685Y-51410D01*
X140612Y-51147D01*
Y-51133D01*
X140597Y-51118D01*
X140568Y-51045D01*
X140524Y-50928D01*
X140466Y-50783D01*
X140378Y-50637D01*
X140276Y-50476D01*
X140160Y-50316D01*
X140029Y-50170D01*
X140014Y-50156D01*
X139970Y-50112D01*
X139883Y-50054D01*
X139781Y-49981D01*
X139635Y-49893D01*
X139474Y-49820D01*
X139300Y-49747D01*
X139095Y-49689D01*
X139081D01*
X139008Y-49674D01*
X138891Y-49660D01*
X138731Y-49631D01*
X138629D01*
X138498Y-49616D01*
X138366D01*
X138221Y-49602D01*
X138046D01*
X137856Y-49587D01*
D02*
G37*
G36*
X192473Y-51978D02*
X192444D01*
X192356Y-51993D01*
X192225Y-52007D01*
X192065Y-52051D01*
X191890Y-52109D01*
X191685Y-52211D01*
X191496Y-52343D01*
X191321Y-52532D01*
X191306Y-52561D01*
X191248Y-52634D01*
X191190Y-52766D01*
X191102Y-52940D01*
X191029Y-53174D01*
X190956Y-53451D01*
X190898Y-53786D01*
X190884Y-54180D01*
Y-54194D01*
Y-54224D01*
Y-54296D01*
X190898Y-54369D01*
Y-54457D01*
X190913Y-54573D01*
X190942Y-54821D01*
X190986Y-55098D01*
X191073Y-55375D01*
X191175Y-55638D01*
X191321Y-55871D01*
X191336Y-55900D01*
X191409Y-55958D01*
X191496Y-56046D01*
X191627Y-56134D01*
X191788Y-56235D01*
X191977Y-56323D01*
X192196Y-56381D01*
X192429Y-56410D01*
X192458D01*
X192546Y-56396D01*
X192677Y-56381D01*
X192852Y-56338D01*
X193042Y-56279D01*
X193231Y-56177D01*
X193435Y-56046D01*
X193625Y-55857D01*
X193639Y-55827D01*
X193698Y-55754D01*
X193785Y-55623D01*
X193872Y-55448D01*
X193960Y-55215D01*
X194047Y-54938D01*
X194106Y-54603D01*
X194120Y-54224D01*
Y-54209D01*
Y-54180D01*
Y-54121D01*
Y-54034D01*
X194106Y-53947D01*
X194091Y-53830D01*
X194062Y-53582D01*
X194004Y-53305D01*
X193931Y-53028D01*
X193814Y-52766D01*
X193654Y-52532D01*
X193639Y-52503D01*
X193566Y-52445D01*
X193464Y-52357D01*
X193333Y-52255D01*
X193158Y-52153D01*
X192954Y-52066D01*
X192735Y-52007D01*
X192473Y-51978D01*
D02*
G37*
%LPD*%
D10*
X239764Y-86378D02*
X240739Y-86282D01*
X241677Y-85997D01*
X242542Y-85535D01*
X243299Y-84913D01*
X243921Y-84156D01*
X244383Y-83291D01*
X244668Y-82353D01*
X244764Y-81378D01*
X244668Y-80402D01*
X244383Y-79465D01*
X243921Y-78600D01*
X243299Y-77842D01*
X242542Y-77221D01*
X241677Y-76759D01*
X240739Y-76474D01*
X239764Y-76378D01*
X239252Y-72428D02*
X278314D01*
Y-90278D02*
Y-72428D01*
X239252Y-90278D02*
X278314D01*
X239252D02*
Y-72428D01*
D11*
X61669Y-45012D02*
X60882D01*
X61669D01*
X38169D02*
X37382D01*
X38169D01*
X85169D02*
X84382D01*
X85169D01*
X108669D02*
X107882D01*
X108669D01*
X132169D02*
X131382D01*
X132169D01*
X155669D02*
X154882D01*
X155669D01*
X179169D02*
X178382D01*
X179169D01*
X202669Y-45012D02*
X201882D01*
X202669D01*
X226169Y-45012D02*
X225381D01*
X226169D01*
X249669Y-45012D02*
X248881D01*
X249669D01*
X320394Y-51142D02*
X320368Y-50142D01*
X320289Y-49146D01*
X320159Y-48155D01*
X319976Y-47172D01*
X319743Y-46200D01*
X319459Y-45241D01*
X319126Y-44299D01*
X318743Y-43375D01*
X318313Y-42473D01*
X317835Y-41594D01*
X317313Y-40742D01*
X316747Y-39918D01*
X316138Y-39125D01*
X315489Y-38365D01*
X314801Y-37640D01*
X314076Y-36952D01*
X313316Y-36303D01*
X312523Y-35694D01*
X311699Y-35128D01*
X310846Y-34605D01*
X309968Y-34128D01*
X309066Y-33698D01*
X308142Y-33316D01*
X307200Y-32982D01*
X306241Y-32698D01*
X305269Y-32465D01*
X304286Y-32282D01*
X303295Y-32152D01*
X302298Y-32073D01*
X301299Y-32047D01*
X300300Y-32073D01*
X299303Y-32152D01*
X298312Y-32282D01*
X297329Y-32465D01*
X296357Y-32698D01*
X295399Y-32982D01*
X294456Y-33316D01*
X293533Y-33698D01*
X292631Y-34128D01*
X291752Y-34605D01*
X290900Y-35128D01*
X290076Y-35694D01*
X289283Y-36303D01*
X288523Y-36952D01*
X287797Y-37640D01*
X287109Y-38365D01*
X286460Y-39125D01*
X285851Y-39918D01*
X285285Y-40742D01*
X284763Y-41594D01*
X284286Y-42473D01*
X283856Y-43375D01*
X283473Y-44299D01*
X283139Y-45241D01*
X282855Y-46200D01*
X282622Y-47172D01*
X282440Y-48155D01*
X282309Y-49146D01*
X282231Y-50142D01*
X282205Y-51142D01*
X282231Y-52141D01*
X282309Y-53138D01*
X282440Y-54129D01*
X282622Y-55112D01*
X282855Y-56084D01*
X283139Y-57042D01*
X283473Y-57985D01*
X283856Y-58908D01*
X284286Y-59811D01*
X284763Y-60689D01*
X285285Y-61541D01*
X285851Y-62365D01*
X286460Y-63158D01*
X287109Y-63918D01*
X287797Y-64644D01*
X288523Y-65332D01*
X289283Y-65981D01*
X290076Y-66589D01*
X290900Y-67156D01*
X291752Y-67678D01*
X292631Y-68155D01*
X293533Y-68585D01*
X294456Y-68968D01*
X295399Y-69302D01*
X296357Y-69586D01*
X297329Y-69819D01*
X298312Y-70001D01*
X299303Y-70132D01*
X300300Y-70210D01*
X301299Y-70236D01*
X302298Y-70210D01*
X303295Y-70132D01*
X304286Y-70001D01*
X305269Y-69819D01*
X306241Y-69586D01*
X307200Y-69302D01*
X308142Y-68968D01*
X309066Y-68585D01*
X309968Y-68155D01*
X310846Y-67678D01*
X311699Y-67156D01*
X312523Y-66589D01*
X313316Y-65981D01*
X314076Y-65332D01*
X314801Y-64644D01*
X315489Y-63918D01*
X316138Y-63158D01*
X316747Y-62365D01*
X317313Y-61541D01*
X317835Y-60689D01*
X318313Y-59811D01*
X318743Y-58908D01*
X319126Y-57985D01*
X319459Y-57042D01*
X319743Y-56084D01*
X319976Y-55112D01*
X320159Y-54129D01*
X320289Y-53138D01*
X320368Y-52141D01*
X320394Y-51142D01*
X9016Y-103524D02*
X8228D01*
X9016D01*
X136724Y-85256D02*
X135937D01*
X136724D01*
X186295D02*
X185508D01*
X186295D01*
X149624Y-17171D02*
X152676D01*
X149624Y-8116D02*
X152676D01*
X131776Y-17171D02*
X134828D01*
X131776D02*
Y-16778D01*
Y-15862D01*
X131776Y-8116D02*
X134828D01*
X131776D02*
X131776Y-9524D01*
Y-15862D02*
Y-9524D01*
X152676Y-17171D02*
X152676Y-8116D01*
X267124Y-17171D02*
X270176D01*
X267124Y-8116D02*
X270176D01*
X249276Y-17171D02*
X252328D01*
X249276D02*
Y-16778D01*
Y-15862D01*
X249276Y-8116D02*
X252328D01*
X249276D02*
X249276Y-9524D01*
Y-15862D02*
Y-9524D01*
X270176Y-17171D02*
X270176Y-8116D01*
X243624Y-17171D02*
X246676D01*
X243624Y-8116D02*
X246676D01*
X225776Y-17171D02*
X228828D01*
X225776D02*
Y-16778D01*
Y-15862D01*
X225776Y-8116D02*
X228828D01*
X225776D02*
X225776Y-9524D01*
Y-15862D02*
Y-9524D01*
X246676Y-17171D02*
X246676Y-8116D01*
X220124Y-17171D02*
X223176D01*
X220124Y-8116D02*
X223176D01*
X202276Y-17171D02*
X205328D01*
X202276D02*
Y-16778D01*
Y-15862D01*
X202276Y-8116D02*
X205328D01*
X202276D02*
X202276Y-9524D01*
Y-15862D02*
Y-9524D01*
X223176Y-17171D02*
X223176Y-8116D01*
X196624Y-17171D02*
X199676D01*
X196624Y-8116D02*
X199676D01*
X178776Y-17171D02*
X181828D01*
X178776D02*
Y-16778D01*
Y-15862D01*
X178776Y-8116D02*
X181828D01*
X178776D02*
X178776Y-9524D01*
Y-15862D02*
Y-9524D01*
X199676Y-17171D02*
X199676Y-8116D01*
X173124Y-17171D02*
X176176D01*
X173124Y-8116D02*
X176176D01*
X155276Y-17171D02*
X158328D01*
X155276D02*
Y-16778D01*
Y-15862D01*
Y-8116D02*
X158328D01*
X155276Y-9524D02*
Y-8116D01*
Y-15862D02*
Y-9524D01*
X176176Y-17171D02*
Y-8116D01*
X126124Y-17171D02*
X129176D01*
X126124Y-8116D02*
X129176D01*
X108276Y-17171D02*
X111328D01*
X108276D02*
Y-16778D01*
Y-15862D01*
X108276Y-8116D02*
X111328D01*
X108276D02*
X108276Y-9524D01*
Y-15862D02*
Y-9524D01*
X129176Y-17171D02*
X129176Y-8116D01*
X102624Y-17171D02*
X105676D01*
X102624Y-8116D02*
X105676D01*
X84776Y-17171D02*
X87828D01*
X84776D02*
Y-16778D01*
Y-15862D01*
X84776Y-8116D02*
X87828D01*
X84776D02*
X84776Y-9524D01*
Y-15862D02*
Y-9524D01*
X105676Y-17171D02*
X105676Y-8116D01*
X79124Y-17171D02*
X82176D01*
X79124Y-8116D02*
X82176D01*
X61276Y-17171D02*
X64328D01*
X61276D02*
Y-16778D01*
Y-15862D01*
X61276Y-8116D02*
X64328D01*
X61276D02*
X61276Y-9524D01*
Y-15862D02*
Y-9524D01*
X82176Y-17171D02*
X82176Y-8116D01*
X55605Y-17152D02*
X58657D01*
X55605Y-8096D02*
X58657D01*
X37757Y-17152D02*
X40809D01*
X37757D02*
Y-16758D01*
Y-15843D01*
X37757Y-8096D02*
X40809D01*
X37757D02*
X37757Y-9504D01*
Y-15843D02*
Y-9504D01*
X58657Y-17152D02*
X58657Y-8096D01*
D12*
X308547Y-29713D02*
X307760D01*
X308547D01*
D13*
X213410Y-73205D02*
X213648Y-73106D01*
X163800Y-85567D02*
X164037Y-85469D01*
X213371Y-85567D02*
X213608Y-85469D01*
X163879Y-73165D02*
X164116Y-73067D01*
X213648Y-73106D02*
Y-63825D01*
X183973Y-73205D02*
X213410D01*
X183973D02*
X183973Y-63825D01*
X213648D01*
X164037Y-85469D02*
X164037Y-76187D01*
X134362Y-85567D02*
X163800D01*
X134362Y-76187D02*
X134362Y-85567D01*
X134362Y-76187D02*
X164037D01*
X183933D02*
X213608D01*
X183933Y-85567D02*
X183933Y-76187D01*
X183933Y-85567D02*
X213371D01*
X213608Y-76187D02*
X213608Y-85469D01*
X134441Y-63785D02*
X164116D01*
X134441Y-73165D02*
X134441Y-63785D01*
X134441Y-73165D02*
X163879D01*
X164116Y-73067D02*
Y-63785D01*
X62390Y-121613D02*
Y-116497D01*
X64948D01*
X65801Y-117350D01*
Y-119055D01*
X64948Y-119908D01*
X62390D01*
X67506Y-117350D02*
X68359Y-116497D01*
X70065D01*
X70917Y-117350D01*
Y-118202D01*
X70065Y-119055D01*
X69212D01*
X70065D01*
X70917Y-119908D01*
Y-120761D01*
X70065Y-121613D01*
X68359D01*
X67506Y-120761D01*
X58123Y-94341D02*
X57270Y-93488D01*
X55564D01*
X54712Y-94341D01*
Y-97752D01*
X55564Y-98605D01*
X57270D01*
X58123Y-97752D01*
X63239Y-98605D02*
X59828D01*
X63239Y-95194D01*
Y-94341D01*
X62387Y-93488D01*
X60681D01*
X59828Y-94341D01*
X68356Y-93488D02*
X64945D01*
Y-96047D01*
X66650Y-95194D01*
X67503D01*
X68356Y-96047D01*
Y-97752D01*
X67503Y-98605D01*
X65798D01*
X64945Y-97752D01*
X58123Y-105341D02*
X57270Y-104488D01*
X55564D01*
X54712Y-105341D01*
Y-108752D01*
X55564Y-109605D01*
X57270D01*
X58123Y-108752D01*
X63239Y-109605D02*
X59828D01*
X63239Y-106194D01*
Y-105341D01*
X62387Y-104488D01*
X60681D01*
X59828Y-105341D01*
X67503Y-109605D02*
Y-104488D01*
X64945Y-107046D01*
X68356D01*
X255212Y-78788D02*
Y-83052D01*
X256065Y-83905D01*
X257770D01*
X258623Y-83052D01*
Y-78788D01*
X263739D02*
X260328D01*
Y-81346D01*
X262034Y-80494D01*
X262887D01*
X263739Y-81346D01*
Y-83052D01*
X262887Y-83905D01*
X261181D01*
X260328Y-83052D01*
X20523Y-115741D02*
X19670Y-114888D01*
X17965D01*
X17112Y-115741D01*
Y-116594D01*
X17965Y-117446D01*
X19670D01*
X20523Y-118299D01*
Y-119152D01*
X19670Y-120005D01*
X17965D01*
X17112Y-119152D01*
X22228Y-115741D02*
X23081Y-114888D01*
X24787D01*
X25639Y-115741D01*
Y-116594D01*
X24787Y-117446D01*
X23934D01*
X24787D01*
X25639Y-118299D01*
Y-119152D01*
X24787Y-120005D01*
X23081D01*
X22228Y-119152D01*
X197823Y-97541D02*
X196970Y-96688D01*
X195265D01*
X194412Y-97541D01*
Y-98394D01*
X195265Y-99247D01*
X196970D01*
X197823Y-100099D01*
Y-100952D01*
X196970Y-101805D01*
X195265D01*
X194412Y-100952D01*
X202939Y-101805D02*
X199528D01*
X202939Y-98394D01*
Y-97541D01*
X202086Y-96688D01*
X200381D01*
X199528Y-97541D01*
X149123D02*
X148270Y-96688D01*
X146565D01*
X145712Y-97541D01*
Y-98394D01*
X146565Y-99247D01*
X148270D01*
X149123Y-100099D01*
Y-100952D01*
X148270Y-101805D01*
X146565D01*
X145712Y-100952D01*
X150828Y-101805D02*
X152534D01*
X151681D01*
Y-96688D01*
X150828Y-97541D01*
X194512Y-71105D02*
Y-65988D01*
X197070D01*
X197923Y-66841D01*
Y-68546D01*
X197070Y-69399D01*
X194512D01*
X196217D02*
X197923Y-71105D01*
X202186D02*
Y-65988D01*
X199628Y-68546D01*
X203039D01*
X144912Y-71005D02*
Y-65888D01*
X147470D01*
X148323Y-66741D01*
Y-68446D01*
X147470Y-69299D01*
X144912D01*
X146617D02*
X148323Y-71005D01*
X150028Y-66741D02*
X150881Y-65888D01*
X152586D01*
X153439Y-66741D01*
Y-67594D01*
X152586Y-68446D01*
X151734D01*
X152586D01*
X153439Y-69299D01*
Y-70152D01*
X152586Y-71005D01*
X150881D01*
X150028Y-70152D01*
X194412Y-83405D02*
Y-78288D01*
X196970D01*
X197823Y-79141D01*
Y-80847D01*
X196970Y-81699D01*
X194412D01*
X196117D02*
X197823Y-83405D01*
X202939D02*
X199528D01*
X202939Y-79994D01*
Y-79141D01*
X202086Y-78288D01*
X200381D01*
X199528Y-79141D01*
X145712Y-83405D02*
Y-78288D01*
X148270D01*
X149123Y-79141D01*
Y-80847D01*
X148270Y-81699D01*
X145712D01*
X147417D02*
X149123Y-83405D01*
X150828D02*
X152534D01*
X151681D01*
Y-78288D01*
X150828Y-79141D01*
D14*
X12850Y-107476D02*
X29984D01*
X33228Y-123917D02*
Y-114657D01*
X12850Y-131098D02*
X29984D01*
X9606Y-123917D02*
Y-114657D01*
X137315Y-105650D02*
Y-96390D01*
X140559Y-112831D02*
X157693D01*
X160937Y-105650D02*
Y-96390D01*
X140559Y-89209D02*
X157693D01*
X186886Y-105650D02*
Y-96390D01*
X190130Y-112831D02*
X207264D01*
X210508Y-105650D02*
Y-96390D01*
X190130Y-89209D02*
X207264D01*
D15*
X123190Y-97941D02*
X128306D01*
Y-100499D01*
X127453Y-101352D01*
X125748D01*
X124895Y-100499D01*
Y-97941D01*
X123190Y-106468D02*
Y-103058D01*
X126601Y-106468D01*
X127453D01*
X128306Y-105616D01*
Y-103910D01*
X127453Y-103058D01*
D16*
X75212Y-66145D02*
Y-67785D01*
X75540Y-68113D01*
X76196D01*
X76524Y-67785D01*
Y-66145D01*
X78492D02*
X77836Y-66474D01*
X77180Y-67129D01*
Y-67785D01*
X77508Y-68113D01*
X78164D01*
X78492Y-67785D01*
Y-67457D01*
X78164Y-67129D01*
X77180D01*
X33695Y-54527D02*
Y-52559D01*
X34679D01*
X35007Y-52887D01*
Y-53543D01*
X34679Y-53871D01*
X33695D01*
X34351D02*
X35007Y-54527D01*
X35663D02*
X36319D01*
X35991D01*
Y-52559D01*
X35663Y-52887D01*
X37303Y-54527D02*
X37959D01*
X37631D01*
Y-52559D01*
X37303Y-52887D01*
X5414Y-49409D02*
Y-47441D01*
X6398D01*
X6726Y-47769D01*
Y-48425D01*
X6398Y-48753D01*
X5414D01*
X6070D02*
X6726Y-49409D01*
X7382D02*
X8038D01*
X7710D01*
Y-47441D01*
X7382Y-47769D01*
X9022D02*
X9350Y-47441D01*
X10006D01*
X10334Y-47769D01*
Y-49081D01*
X10006Y-49409D01*
X9350D01*
X9022Y-49081D01*
Y-47769D01*
X257012Y-31446D02*
Y-33413D01*
X257996D01*
X258324Y-33085D01*
Y-31773D01*
X257996Y-31446D01*
X257012D01*
X258980Y-33413D02*
X259636D01*
X259308D01*
Y-31446D01*
X258980Y-31773D01*
X260620D02*
X260947Y-31446D01*
X261603D01*
X261931Y-31773D01*
Y-33085D01*
X261603Y-33413D01*
X260947D01*
X260620Y-33085D01*
Y-31773D01*
X234412Y-31446D02*
Y-33413D01*
X235396D01*
X235724Y-33085D01*
Y-31773D01*
X235396Y-31446D01*
X234412D01*
X236380Y-33085D02*
X236708Y-33413D01*
X237364D01*
X237692Y-33085D01*
Y-31773D01*
X237364Y-31446D01*
X236708D01*
X236380Y-31773D01*
Y-32102D01*
X236708Y-32430D01*
X237692D01*
X210912Y-31446D02*
Y-33413D01*
X211896D01*
X212224Y-33085D01*
Y-31773D01*
X211896Y-31446D01*
X210912D01*
X212880Y-31773D02*
X213208Y-31446D01*
X213864D01*
X214192Y-31773D01*
Y-32102D01*
X213864Y-32430D01*
X214192Y-32757D01*
Y-33085D01*
X213864Y-33413D01*
X213208D01*
X212880Y-33085D01*
Y-32757D01*
X213208Y-32430D01*
X212880Y-32102D01*
Y-31773D01*
X213208Y-32430D02*
X213864D01*
X187412Y-31446D02*
Y-33413D01*
X188396D01*
X188724Y-33085D01*
Y-31773D01*
X188396Y-31446D01*
X187412D01*
X189380D02*
X190692D01*
Y-31773D01*
X189380Y-33085D01*
Y-33413D01*
X163912Y-31446D02*
Y-33413D01*
X164896D01*
X165224Y-33085D01*
Y-31773D01*
X164896Y-31446D01*
X163912D01*
X167192D02*
X166536Y-31773D01*
X165880Y-32430D01*
Y-33085D01*
X166208Y-33413D01*
X166864D01*
X167192Y-33085D01*
Y-32757D01*
X166864Y-32430D01*
X165880D01*
X140412Y-31446D02*
Y-33413D01*
X141396D01*
X141724Y-33085D01*
Y-31773D01*
X141396Y-31446D01*
X140412D01*
X143692D02*
X142380D01*
Y-32430D01*
X143036Y-32102D01*
X143364D01*
X143692Y-32430D01*
Y-33085D01*
X143364Y-33413D01*
X142708D01*
X142380Y-33085D01*
X116912Y-31446D02*
Y-33413D01*
X117896D01*
X118224Y-33085D01*
Y-31773D01*
X117896Y-31446D01*
X116912D01*
X119864Y-33413D02*
Y-31446D01*
X118880Y-32430D01*
X120192D01*
X93412Y-31446D02*
Y-33413D01*
X94396D01*
X94724Y-33085D01*
Y-31773D01*
X94396Y-31446D01*
X93412D01*
X95380Y-31773D02*
X95708Y-31446D01*
X96364D01*
X96692Y-31773D01*
Y-32102D01*
X96364Y-32430D01*
X96036D01*
X96364D01*
X96692Y-32757D01*
Y-33085D01*
X96364Y-33413D01*
X95708D01*
X95380Y-33085D01*
X58596Y-19489D02*
Y-21456D01*
X59580D01*
X59908Y-21128D01*
Y-19816D01*
X59580Y-19489D01*
X58596D01*
X61876Y-21456D02*
X60564D01*
X61876Y-20144D01*
Y-19816D01*
X61548Y-19489D01*
X60892D01*
X60564Y-19816D01*
X33334Y-19489D02*
Y-21456D01*
X34318D01*
X34646Y-21128D01*
Y-19816D01*
X34318Y-19489D01*
X33334D01*
X35302Y-21456D02*
X35958D01*
X35630D01*
Y-19489D01*
X35302Y-19816D01*
X258624Y-11974D02*
X258296Y-11646D01*
X257640D01*
X257312Y-11974D01*
Y-13285D01*
X257640Y-13613D01*
X258296D01*
X258624Y-13285D01*
X259280Y-13613D02*
X259936D01*
X259608D01*
Y-11646D01*
X259280Y-11974D01*
X262231Y-13613D02*
X260920D01*
X262231Y-12302D01*
Y-11974D01*
X261904Y-11646D01*
X261247D01*
X260920Y-11974D01*
X235424D02*
X235096Y-11646D01*
X234440D01*
X234112Y-11974D01*
Y-13285D01*
X234440Y-13613D01*
X235096D01*
X235424Y-13285D01*
X236080Y-13613D02*
X236736D01*
X236408D01*
Y-11646D01*
X236080Y-11974D01*
X237720Y-13613D02*
X238375D01*
X238048D01*
Y-11646D01*
X237720Y-11974D01*
X211624D02*
X211296Y-11646D01*
X210640D01*
X210312Y-11974D01*
Y-13285D01*
X210640Y-13613D01*
X211296D01*
X211624Y-13285D01*
X212280Y-13613D02*
X212936D01*
X212608D01*
Y-11646D01*
X212280Y-11974D01*
X213920D02*
X214247Y-11646D01*
X214903D01*
X215231Y-11974D01*
Y-13285D01*
X214903Y-13613D01*
X214247D01*
X213920Y-13285D01*
Y-11974D01*
X188924D02*
X188596Y-11646D01*
X187940D01*
X187612Y-11974D01*
Y-13285D01*
X187940Y-13613D01*
X188596D01*
X188924Y-13285D01*
X189580D02*
X189908Y-13613D01*
X190564D01*
X190892Y-13285D01*
Y-11974D01*
X190564Y-11646D01*
X189908D01*
X189580Y-11974D01*
Y-12302D01*
X189908Y-12629D01*
X190892D01*
X165424Y-11974D02*
X165096Y-11646D01*
X164440D01*
X164112Y-11974D01*
Y-13285D01*
X164440Y-13613D01*
X165096D01*
X165424Y-13285D01*
X166080Y-11974D02*
X166408Y-11646D01*
X167064D01*
X167392Y-11974D01*
Y-12302D01*
X167064Y-12629D01*
X167392Y-12957D01*
Y-13285D01*
X167064Y-13613D01*
X166408D01*
X166080Y-13285D01*
Y-12957D01*
X166408Y-12629D01*
X166080Y-12302D01*
Y-11974D01*
X166408Y-12629D02*
X167064D01*
X141924Y-11974D02*
X141596Y-11646D01*
X140940D01*
X140612Y-11974D01*
Y-13285D01*
X140940Y-13613D01*
X141596D01*
X141924Y-13285D01*
X142580Y-11646D02*
X143892D01*
Y-11974D01*
X142580Y-13285D01*
Y-13613D01*
X118424Y-11974D02*
X118096Y-11646D01*
X117440D01*
X117112Y-11974D01*
Y-13285D01*
X117440Y-13613D01*
X118096D01*
X118424Y-13285D01*
X120392Y-11646D02*
X119736Y-11974D01*
X119080Y-12629D01*
Y-13285D01*
X119408Y-13613D01*
X120064D01*
X120392Y-13285D01*
Y-12957D01*
X120064Y-12629D01*
X119080D01*
X94924Y-11974D02*
X94596Y-11646D01*
X93940D01*
X93612Y-11974D01*
Y-13285D01*
X93940Y-13613D01*
X94596D01*
X94924Y-13285D01*
X96892Y-11646D02*
X95580D01*
Y-12629D01*
X96236Y-12302D01*
X96564D01*
X96892Y-12629D01*
Y-13285D01*
X96564Y-13613D01*
X95908D01*
X95580Y-13285D01*
X71424Y-11974D02*
X71096Y-11646D01*
X70440D01*
X70112Y-11974D01*
Y-13285D01*
X70440Y-13613D01*
X71096D01*
X71424Y-13285D01*
X73064Y-13613D02*
Y-11646D01*
X72080Y-12629D01*
X73392D01*
X47924Y-11974D02*
X47596Y-11646D01*
X46940D01*
X46612Y-11974D01*
Y-13285D01*
X46940Y-13613D01*
X47596D01*
X47924Y-13285D01*
X48580Y-11974D02*
X48908Y-11646D01*
X49564D01*
X49892Y-11974D01*
Y-12302D01*
X49564Y-12629D01*
X49236D01*
X49564D01*
X49892Y-12957D01*
Y-13285D01*
X49564Y-13613D01*
X48908D01*
X48580Y-13285D01*
M02*
