G04*
G04 #@! TF.GenerationSoftware,Altium Limited,Altium Designer,23.5.1 (21)*
G04*
G04 Layer_Physical_Order=4*
G04 Layer_Color=16711680*
%FSLAX25Y25*%
%MOIN*%
G70*
G04*
G04 #@! TF.SameCoordinates,DE79A155-BC9A-472D-AE6B-8F39F035A5D6*
G04*
G04*
G04 #@! TF.FilePolarity,Positive*
G04*
G01*
G75*
%ADD13C,0.01181*%
%ADD16C,0.01000*%
%ADD17C,0.00591*%
%ADD18R,0.03150X0.03150*%
%ADD19R,0.03937X0.04921*%
%ADD20R,0.03150X0.03150*%
%ADD21R,0.03937X0.03740*%
%ADD28R,0.04331X0.06299*%
%ADD45C,0.01968*%
%ADD46R,0.07874X0.05906*%
%ADD47C,0.05906*%
%ADD48O,0.05906X0.07874*%
%ADD49R,0.05906X0.07874*%
%ADD50C,0.12598*%
%ADD51C,0.05937*%
%ADD52R,0.05937X0.05937*%
%ADD53R,0.07874X0.07874*%
%ADD54C,0.07874*%
%ADD55R,0.07874X0.07874*%
%ADD56C,0.07087*%
%ADD57R,0.07087X0.07087*%
%ADD58C,0.01772*%
%ADD65R,0.04724X0.03150*%
%ADD66R,0.03740X0.02362*%
%ADD67R,0.03150X0.04724*%
%ADD68R,0.05906X0.18898*%
%ADD69R,0.02598X0.01221*%
%ADD70R,0.06299X0.04331*%
%ADD71R,0.06299X0.09646*%
G36*
X296288Y142913D02*
X298208Y142330D01*
X299978Y141384D01*
X301529Y140112D01*
X302802Y138561D01*
X303748Y136791D01*
X304330Y134871D01*
X304525Y132895D01*
X304505Y132874D01*
X304505D01*
X304570Y132382D01*
X304505Y131890D01*
X304505Y1482D01*
X304505Y984D01*
X304479Y495D01*
X304330Y-1013D01*
X303748Y-2933D01*
X302802Y-4702D01*
X301529Y-6253D01*
X299978Y-7526D01*
X298208Y-8472D01*
X296288Y-9055D01*
X294508Y-9230D01*
X-6890D01*
X-6983Y-9242D01*
X-8887Y-9055D01*
X-10807Y-8472D01*
X-12576Y-7526D01*
X-14127Y-6253D01*
X-15400Y-4702D01*
X-16346Y-2933D01*
X-16929Y-1013D01*
X-17077Y495D01*
X-17104Y984D01*
X-17104Y1477D01*
X-17104Y131890D01*
X-17169Y132382D01*
X-17104Y132874D01*
X-17104D01*
X-17123Y132895D01*
X-16929Y134871D01*
X-16346Y136791D01*
X-15400Y138561D01*
X-14127Y140112D01*
X-12576Y141384D01*
X-10807Y142330D01*
X-8887Y142913D01*
X-6983Y143100D01*
X-6890Y143088D01*
X294291D01*
X294384Y143100D01*
X296288Y142913D01*
D02*
G37*
%LPC*%
G36*
X81900Y141595D02*
X81313D01*
X80770Y141370D01*
X80355Y140954D01*
X80130Y140412D01*
Y139824D01*
X80355Y139282D01*
X80770Y138866D01*
X81313Y138642D01*
X81900D01*
X82443Y138866D01*
X82858Y139282D01*
X83083Y139824D01*
Y140412D01*
X82858Y140954D01*
X82443Y141370D01*
X81900Y141595D01*
D02*
G37*
G36*
X58400D02*
X57813D01*
X57270Y141370D01*
X56855Y140954D01*
X56630Y140412D01*
Y139824D01*
X56855Y139282D01*
X57270Y138866D01*
X57813Y138642D01*
X58400D01*
X58943Y138866D01*
X59358Y139282D01*
X59583Y139824D01*
Y140412D01*
X59358Y140954D01*
X58943Y141370D01*
X58400Y141595D01*
D02*
G37*
G36*
X34900D02*
X34313D01*
X33770Y141370D01*
X33355Y140954D01*
X33130Y140412D01*
Y139824D01*
X33355Y139282D01*
X33770Y138866D01*
X34313Y138642D01*
X34900D01*
X35443Y138866D01*
X35858Y139282D01*
X36083Y139824D01*
Y140412D01*
X35858Y140954D01*
X35443Y141370D01*
X34900Y141595D01*
D02*
G37*
G36*
X246420Y141575D02*
X245832D01*
X245290Y141350D01*
X244874Y140935D01*
X244650Y140392D01*
Y139805D01*
X244874Y139262D01*
X245290Y138847D01*
X245832Y138622D01*
X246420D01*
X246962Y138847D01*
X247378Y139262D01*
X247602Y139805D01*
Y140392D01*
X247378Y140935D01*
X246962Y141350D01*
X246420Y141575D01*
D02*
G37*
G36*
X222920D02*
X222332D01*
X221790Y141350D01*
X221374Y140935D01*
X221150Y140392D01*
Y139805D01*
X221374Y139262D01*
X221790Y138847D01*
X222332Y138622D01*
X222920D01*
X223462Y138847D01*
X223878Y139262D01*
X224102Y139805D01*
Y140392D01*
X223878Y140935D01*
X223462Y141350D01*
X222920Y141575D01*
D02*
G37*
G36*
X199420D02*
X198832D01*
X198290Y141350D01*
X197874Y140935D01*
X197650Y140392D01*
Y139805D01*
X197874Y139262D01*
X198290Y138847D01*
X198832Y138622D01*
X199420D01*
X199962Y138847D01*
X200378Y139262D01*
X200602Y139805D01*
Y140392D01*
X200378Y140935D01*
X199962Y141350D01*
X199420Y141575D01*
D02*
G37*
G36*
X175920D02*
X175332D01*
X174790Y141350D01*
X174374Y140935D01*
X174150Y140392D01*
Y139805D01*
X174374Y139262D01*
X174790Y138847D01*
X175332Y138622D01*
X175920D01*
X176462Y138847D01*
X176878Y139262D01*
X177102Y139805D01*
Y140392D01*
X176878Y140935D01*
X176462Y141350D01*
X175920Y141575D01*
D02*
G37*
G36*
X152420D02*
X151832D01*
X151290Y141350D01*
X150874Y140935D01*
X150650Y140392D01*
Y139805D01*
X150874Y139262D01*
X151290Y138847D01*
X151832Y138622D01*
X152420D01*
X152962Y138847D01*
X153378Y139262D01*
X153602Y139805D01*
Y140392D01*
X153378Y140935D01*
X152962Y141350D01*
X152420Y141575D01*
D02*
G37*
G36*
X128920D02*
X128332D01*
X127790Y141350D01*
X127374Y140935D01*
X127150Y140392D01*
Y139805D01*
X127374Y139262D01*
X127790Y138847D01*
X128332Y138622D01*
X128920D01*
X129462Y138847D01*
X129878Y139262D01*
X130102Y139805D01*
Y140392D01*
X129878Y140935D01*
X129462Y141350D01*
X128920Y141575D01*
D02*
G37*
G36*
X105420D02*
X104832D01*
X104290Y141350D01*
X103874Y140935D01*
X103650Y140392D01*
Y139805D01*
X103874Y139262D01*
X104290Y138847D01*
X104832Y138622D01*
X105420D01*
X105962Y138847D01*
X106378Y139262D01*
X106602Y139805D01*
Y140392D01*
X106378Y140935D01*
X105962Y141350D01*
X105420Y141575D01*
D02*
G37*
G36*
X288080Y136811D02*
X286723D01*
X285392Y136546D01*
X284138Y136027D01*
X283010Y135273D01*
X282050Y134313D01*
X281296Y133185D01*
X280777Y131931D01*
X280512Y130600D01*
Y129243D01*
X280777Y127912D01*
X281296Y126658D01*
X282050Y125529D01*
X283010Y124570D01*
X284138Y123816D01*
X285392Y123296D01*
X286723Y123031D01*
X288080D01*
X289411Y123296D01*
X290665Y123816D01*
X291793Y124570D01*
X292753Y125529D01*
X293507Y126658D01*
X294027Y127912D01*
X294291Y129243D01*
Y130600D01*
X294027Y131931D01*
X293507Y133185D01*
X292753Y134313D01*
X291793Y135273D01*
X290665Y136027D01*
X289411Y136546D01*
X288080Y136811D01*
D02*
G37*
G36*
X679D02*
X-679D01*
X-2010Y136546D01*
X-3263Y136027D01*
X-4392Y135273D01*
X-5352Y134313D01*
X-6106Y133185D01*
X-6625Y131931D01*
X-6890Y130600D01*
Y129243D01*
X-6625Y127912D01*
X-6106Y126658D01*
X-5352Y125529D01*
X-4392Y124570D01*
X-3263Y123816D01*
X-2010Y123296D01*
X-679Y123031D01*
X679D01*
X2010Y123296D01*
X3263Y123816D01*
X4392Y124570D01*
X5352Y125529D01*
X6106Y126658D01*
X6625Y127912D01*
X6890Y129243D01*
Y130600D01*
X6625Y131931D01*
X6106Y133185D01*
X5352Y134313D01*
X4392Y135273D01*
X3263Y136027D01*
X2010Y136546D01*
X679Y136811D01*
D02*
G37*
G36*
X277212Y106945D02*
X277114D01*
Y102902D01*
X281157D01*
Y103000D01*
X280848Y104155D01*
X280250Y105191D01*
X279404Y106037D01*
X278368Y106635D01*
X277212Y106945D01*
D02*
G37*
G36*
X276114D02*
X276016D01*
X274861Y106635D01*
X273825Y106037D01*
X272979Y105191D01*
X272380Y104155D01*
X272071Y103000D01*
Y102902D01*
X276114D01*
Y106945D01*
D02*
G37*
G36*
X106000Y98566D02*
X106000Y98566D01*
X51410D01*
X51409Y98566D01*
X50949Y98475D01*
X50558Y98214D01*
X41239Y88895D01*
X40978Y88504D01*
X40886Y88043D01*
X40886Y88043D01*
Y86254D01*
X40304Y86012D01*
X39563Y85444D01*
X38996Y84704D01*
X38638Y83842D01*
X38517Y82917D01*
Y80949D01*
X38638Y80024D01*
X38996Y79162D01*
X39563Y78422D01*
X40304Y77854D01*
X41166Y77497D01*
X42090Y77375D01*
X43016Y77497D01*
X43878Y77854D01*
X44618Y78422D01*
X45186Y79162D01*
X45543Y80024D01*
X45664Y80949D01*
Y82917D01*
X45543Y83842D01*
X45186Y84704D01*
X44618Y85444D01*
X43878Y86012D01*
X43295Y86254D01*
Y87545D01*
X51908Y96158D01*
X60191D01*
X60325Y95658D01*
X60136Y95549D01*
X59400Y94813D01*
X58880Y93911D01*
X58610Y92906D01*
Y92886D01*
X62563D01*
X66516D01*
Y92906D01*
X66246Y93911D01*
X65726Y94813D01*
X64990Y95549D01*
X64801Y95658D01*
X64935Y96158D01*
X90382D01*
X90425Y96091D01*
X90266Y95424D01*
X89915Y95221D01*
X89255Y94561D01*
X88789Y93753D01*
X88547Y92852D01*
Y91919D01*
X88789Y91018D01*
X89255Y90210D01*
X89915Y89551D01*
X90583Y89165D01*
X90449Y88665D01*
X65024D01*
X64890Y89165D01*
X64990Y89223D01*
X65726Y89959D01*
X66246Y90860D01*
X66516Y91865D01*
Y91886D01*
X62563D01*
X58610D01*
Y91865D01*
X58880Y90860D01*
X59400Y89959D01*
X60136Y89223D01*
X60236Y89165D01*
X60102Y88665D01*
X56634D01*
X56173Y88573D01*
X55782Y88312D01*
X55782Y88312D01*
X53598Y86128D01*
X53016Y86369D01*
X52091Y86491D01*
X51166Y86369D01*
X50304Y86012D01*
X49563Y85444D01*
X48996Y84704D01*
X48638Y83842D01*
X48517Y82917D01*
Y80949D01*
X48638Y80024D01*
X48996Y79162D01*
X49563Y78422D01*
X50304Y77854D01*
X51166Y77497D01*
X52091Y77375D01*
X53016Y77497D01*
X53878Y77854D01*
X54618Y78422D01*
X55186Y79162D01*
X55543Y80024D01*
X55664Y80949D01*
Y82917D01*
X55543Y83842D01*
X55301Y84425D01*
X57133Y86256D01*
X59800D01*
X59970Y85756D01*
X59563Y85444D01*
X58995Y84704D01*
X58639Y83842D01*
X58517Y82917D01*
Y80949D01*
X58639Y80024D01*
X58995Y79162D01*
X59563Y78422D01*
X60304Y77854D01*
X60886Y77612D01*
Y59343D01*
X60886Y59342D01*
X60978Y58882D01*
X61239Y58491D01*
X62832Y56898D01*
X62599Y56424D01*
X62090Y56491D01*
X61165Y56369D01*
X60304Y56012D01*
X59563Y55444D01*
X59251Y55038D01*
X58751Y55208D01*
Y60563D01*
X58751Y60563D01*
X58660Y61024D01*
X58399Y61414D01*
X58399Y61415D01*
X52540Y67273D01*
X52150Y67534D01*
X51689Y67625D01*
X51689Y67625D01*
X47053D01*
X47006Y67673D01*
X46463Y67898D01*
X46396D01*
X35162Y79131D01*
X35186Y79162D01*
X35543Y80024D01*
X35664Y80949D01*
Y82917D01*
X35543Y83842D01*
X35186Y84704D01*
X34618Y85444D01*
X33878Y86012D01*
X33015Y86369D01*
X32090Y86491D01*
X31166Y86369D01*
X30304Y86012D01*
X29563Y85444D01*
X28995Y84704D01*
X28638Y83842D01*
X28517Y82917D01*
Y80949D01*
X28638Y80024D01*
X28995Y79162D01*
X29563Y78422D01*
X30304Y77854D01*
X31166Y77497D01*
X32090Y77375D01*
X33015Y77497D01*
X33281Y77607D01*
X44693Y66195D01*
Y66128D01*
X44918Y65585D01*
X45333Y65170D01*
X45876Y64945D01*
X46463D01*
X47006Y65170D01*
X47053Y65217D01*
X51190D01*
X56343Y60064D01*
Y43221D01*
X55843Y43087D01*
X55726Y43289D01*
X54990Y44025D01*
X54089Y44546D01*
X53083Y44815D01*
X53063D01*
Y40862D01*
Y36909D01*
X53083D01*
X54089Y37179D01*
X54990Y37699D01*
X55726Y38435D01*
X56246Y39336D01*
X56339Y39681D01*
X56895Y39827D01*
X77889Y18834D01*
X78279Y18573D01*
X78740Y18481D01*
X78740Y18481D01*
X100635D01*
X100635Y18481D01*
X101096Y18573D01*
X101487Y18834D01*
X105243Y22590D01*
X105389Y22505D01*
X106291Y22264D01*
X107224D01*
X108125Y22505D01*
X108933Y22972D01*
X109592Y23631D01*
X110059Y24439D01*
X110300Y25341D01*
Y26274D01*
X110059Y27175D01*
X109592Y27983D01*
X108933Y28642D01*
X108125Y29109D01*
X107224Y29350D01*
X106291D01*
X105389Y29109D01*
X104581Y28642D01*
X103922Y27983D01*
X103455Y27175D01*
X103214Y26274D01*
Y25341D01*
X103455Y24439D01*
X103540Y24293D01*
X102156Y22909D01*
X101694Y23100D01*
Y25307D01*
X97257D01*
Y21854D01*
X100448D01*
X100639Y21392D01*
X100136Y20889D01*
X79239D01*
X58751Y41377D01*
Y48658D01*
X59251Y48828D01*
X59563Y48422D01*
X60304Y47854D01*
X61165Y47497D01*
X62090Y47375D01*
X63016Y47497D01*
X63877Y47854D01*
X64618Y48422D01*
X65186Y49162D01*
X65543Y50024D01*
X65664Y50949D01*
Y52917D01*
X65629Y53185D01*
X66098Y53456D01*
X66343Y53268D01*
Y41740D01*
X66343Y41740D01*
X66435Y41279D01*
X66696Y40889D01*
X72629Y34956D01*
X72629Y34956D01*
X73019Y34694D01*
X73480Y34603D01*
X73480Y34603D01*
X93411D01*
X93455Y34439D01*
X93922Y33632D01*
X94581Y32972D01*
X95389Y32505D01*
X96291Y32264D01*
X97224D01*
X98125Y32505D01*
X98933Y32972D01*
X99592Y33632D01*
X100059Y34439D01*
X100300Y35341D01*
Y36274D01*
X100059Y37175D01*
X99592Y37983D01*
X98933Y38642D01*
X98125Y39109D01*
X97224Y39350D01*
X96291D01*
X95389Y39109D01*
X94581Y38642D01*
X93922Y37983D01*
X93455Y37175D01*
X93411Y37011D01*
X83341D01*
X83275Y37511D01*
X83458Y37560D01*
X84266Y38027D01*
X84926Y38687D01*
X85392Y39494D01*
X85634Y40396D01*
Y41329D01*
X85392Y42230D01*
X84926Y43038D01*
X84266Y43698D01*
X83458Y44164D01*
X83295Y44208D01*
Y47612D01*
X83877Y47854D01*
X84618Y48422D01*
X85186Y49162D01*
X85543Y50024D01*
X85664Y50949D01*
Y52917D01*
X85543Y53842D01*
X85186Y54704D01*
X84618Y55444D01*
X83877Y56012D01*
X83016Y56369D01*
X82091Y56491D01*
X81165Y56369D01*
X80304Y56012D01*
X79563Y55444D01*
X78996Y54704D01*
X78638Y53842D01*
X78517Y52917D01*
Y50949D01*
X78638Y50024D01*
X78996Y49162D01*
X79563Y48422D01*
X80304Y47854D01*
X80886Y47612D01*
Y44208D01*
X80723Y44164D01*
X79915Y43698D01*
X79255Y43038D01*
X78789Y42230D01*
X78547Y41329D01*
Y40396D01*
X78789Y39494D01*
X79255Y38687D01*
X79915Y38027D01*
X80723Y37560D01*
X80906Y37511D01*
X80840Y37011D01*
X73979D01*
X68752Y42239D01*
Y48658D01*
X69252Y48828D01*
X69563Y48422D01*
X70304Y47854D01*
X71166Y47497D01*
X72091Y47375D01*
X73015Y47497D01*
X73878Y47854D01*
X74618Y48422D01*
X75186Y49162D01*
X75543Y50024D01*
X75664Y50949D01*
Y52917D01*
X75543Y53842D01*
X75186Y54704D01*
X74618Y55444D01*
X73878Y56012D01*
X73015Y56369D01*
X72091Y56491D01*
X71166Y56369D01*
X70304Y56012D01*
X69563Y55444D01*
X68995Y54704D01*
X68441Y54673D01*
X68399Y54737D01*
X68399Y54737D01*
X63295Y59841D01*
Y77612D01*
X63877Y77854D01*
X64618Y78422D01*
X65186Y79162D01*
X65543Y80024D01*
X65664Y80949D01*
Y82917D01*
X65543Y83842D01*
X65186Y84704D01*
X64618Y85444D01*
X64211Y85756D01*
X64381Y86256D01*
X69800D01*
X69970Y85756D01*
X69563Y85444D01*
X68995Y84704D01*
X68638Y83842D01*
X68517Y82917D01*
Y80949D01*
X68638Y80024D01*
X68995Y79162D01*
X69563Y78422D01*
X70304Y77854D01*
X71166Y77497D01*
X72091Y77375D01*
X72848Y77475D01*
X73082Y77002D01*
X70015Y73934D01*
X69754Y73544D01*
X69662Y73083D01*
X69662Y73083D01*
Y59939D01*
X69614Y59891D01*
X69390Y59349D01*
Y58762D01*
X69614Y58219D01*
X70030Y57803D01*
X70573Y57579D01*
X71160D01*
X71702Y57803D01*
X72118Y58219D01*
X72342Y58762D01*
Y59349D01*
X72118Y59891D01*
X72070Y59939D01*
Y72584D01*
X75877Y76390D01*
X78736D01*
X78736Y76390D01*
X79197Y76482D01*
X79588Y76743D01*
X80583Y77738D01*
X81166Y77497D01*
X82091Y77375D01*
X83016Y77497D01*
X83877Y77854D01*
X84618Y78422D01*
X85186Y79162D01*
X85543Y80024D01*
X85664Y80949D01*
Y82917D01*
X85543Y83842D01*
X85186Y84704D01*
X84618Y85444D01*
X84211Y85756D01*
X84381Y86256D01*
X88547D01*
Y77406D01*
X95465D01*
X95634Y77406D01*
X95965Y77043D01*
Y76925D01*
X95685Y76645D01*
X87886D01*
X87837Y76635D01*
X87787Y76645D01*
X87173Y76523D01*
X86652Y76175D01*
X86304Y75654D01*
X86182Y75039D01*
Y70797D01*
X84833D01*
Y71142D01*
X80502D01*
Y71142D01*
X80033Y71216D01*
X79340Y71909D01*
X78888Y72096D01*
X75699D01*
X75247Y71909D01*
X75060Y71457D01*
Y66496D01*
X75247Y66044D01*
X75699Y65857D01*
X78888D01*
X79340Y66044D01*
X80033Y66737D01*
X80502Y66811D01*
Y66811D01*
X84833D01*
Y67156D01*
X88097D01*
X88172Y67187D01*
X88252Y67175D01*
X88292Y67205D01*
X89892D01*
Y63268D01*
X85386Y63268D01*
X85242Y63708D01*
Y66039D01*
X83167D01*
Y63465D01*
Y60890D01*
X85242Y60890D01*
X85386Y60449D01*
Y59724D01*
X90307D01*
Y61416D01*
X90769Y61607D01*
X91667Y60710D01*
X91667Y60710D01*
X92027Y60469D01*
X92453Y60384D01*
X95967D01*
Y59527D01*
X96154Y59075D01*
X96606Y58888D01*
X112413D01*
X112865Y59075D01*
X113053Y59527D01*
Y62677D01*
X112865Y63129D01*
X112413Y63316D01*
X101346D01*
Y64736D01*
X98476D01*
Y65736D01*
X101346D01*
Y67417D01*
X100937D01*
Y70748D01*
X96016D01*
Y70088D01*
X92374D01*
X92374Y70088D01*
X91948Y70004D01*
X91588Y69763D01*
X91588Y69763D01*
X90769Y68944D01*
X90307Y69135D01*
Y70748D01*
X89393D01*
Y73434D01*
X96350D01*
X96350Y73434D01*
X96965Y73556D01*
X97486Y73904D01*
X98706Y75125D01*
X98706Y75125D01*
X99054Y75645D01*
X99177Y76260D01*
X99177Y76260D01*
Y80953D01*
X105681D01*
Y80394D01*
X110012D01*
Y84724D01*
X105681D01*
Y84165D01*
X97769D01*
X97571Y84204D01*
X96956Y84082D01*
X96435Y83734D01*
X96134Y83282D01*
X95850Y83293D01*
X95634Y83365D01*
Y86256D01*
X122329D01*
X123107Y85479D01*
Y82030D01*
X122794Y81947D01*
X121852Y81402D01*
X121082Y80633D01*
X120538Y79690D01*
X120256Y78639D01*
Y77550D01*
X120538Y76499D01*
X121082Y75556D01*
X121852Y74787D01*
X122794Y74242D01*
X123107Y74159D01*
Y69650D01*
X122715Y69545D01*
X121773Y69001D01*
X121003Y68231D01*
X120459Y67289D01*
X120177Y66237D01*
Y65149D01*
X120459Y64097D01*
X121003Y63155D01*
X121773Y62385D01*
X122715Y61841D01*
X123767Y61559D01*
X124855D01*
X125907Y61841D01*
X126849Y62385D01*
X127619Y63155D01*
X128163Y64097D01*
X128268Y64489D01*
X132232D01*
Y61953D01*
X137744D01*
Y69433D01*
X132232D01*
Y66897D01*
X128268D01*
X128163Y67289D01*
X127619Y68231D01*
X126849Y69001D01*
X125907Y69545D01*
X125515Y69650D01*
Y74116D01*
X125985Y74242D01*
X126928Y74787D01*
X127698Y75556D01*
X128242Y76499D01*
X128524Y77550D01*
Y78639D01*
X128242Y79690D01*
X127698Y80633D01*
X126928Y81402D01*
X125985Y81947D01*
X125515Y82073D01*
Y85977D01*
X125515Y85977D01*
X125424Y86438D01*
X125162Y86829D01*
X123679Y88312D01*
X123289Y88573D01*
X122828Y88665D01*
X122828Y88665D01*
X93732D01*
X93598Y89165D01*
X94266Y89551D01*
X94926Y90210D01*
X95392Y91018D01*
X95634Y91919D01*
Y92852D01*
X95392Y93753D01*
X94926Y94561D01*
X94266Y95221D01*
X93915Y95424D01*
X93756Y96091D01*
X93799Y96158D01*
X105501D01*
X109357Y92302D01*
X109357Y92302D01*
X109748Y92041D01*
X110209Y91949D01*
X155462D01*
X164274Y83138D01*
X164260Y83104D01*
Y78095D01*
X163760D01*
D01*
X164260D01*
Y73551D01*
X164358D01*
X165514Y73861D01*
X166550Y74459D01*
X167395Y75305D01*
X167973Y76305D01*
X168081Y76340D01*
X168509Y76334D01*
X168983Y75513D01*
X169753Y74743D01*
X170696Y74199D01*
X171048Y74105D01*
Y69646D01*
X170656Y69541D01*
X169714Y68997D01*
X168944Y68227D01*
X168400Y67285D01*
X168226Y66635D01*
X167708D01*
X167533Y67289D01*
X166989Y68231D01*
X166219Y69001D01*
X165277Y69545D01*
X164225Y69827D01*
X163137D01*
X162085Y69545D01*
X161143Y69001D01*
X160373Y68231D01*
X159829Y67289D01*
X159547Y66237D01*
Y65149D01*
X159829Y64097D01*
X160373Y63155D01*
X161143Y62385D01*
X162085Y61841D01*
X162477Y61736D01*
Y56861D01*
X161411Y55795D01*
X160153D01*
X160108Y55964D01*
X159639Y56776D01*
X158977Y57438D01*
X158165Y57907D01*
X157260Y58150D01*
X156323D01*
X155418Y57907D01*
X154606Y57438D01*
X153943Y56776D01*
X153475Y55964D01*
X153429Y55795D01*
X134760D01*
Y58150D01*
X127642D01*
Y51032D01*
X134760D01*
Y53386D01*
X153429D01*
X153475Y53217D01*
X153943Y52405D01*
X154606Y51743D01*
X155418Y51274D01*
X156323Y51032D01*
X157260D01*
X158165Y51274D01*
X158977Y51743D01*
X159639Y52405D01*
X160108Y53217D01*
X160153Y53386D01*
X161909D01*
X161909Y53386D01*
X162370Y53478D01*
X162761Y53739D01*
X164533Y55511D01*
X164794Y55901D01*
X164885Y56362D01*
Y61736D01*
X165277Y61841D01*
X166219Y62385D01*
X166989Y63155D01*
X167533Y64097D01*
X167707Y64746D01*
X168225D01*
X168400Y64093D01*
X168944Y63151D01*
X169714Y62381D01*
X170656Y61837D01*
X171708Y61555D01*
X172796D01*
X173848Y61837D01*
X174790Y62381D01*
X175560Y63151D01*
X176104Y64093D01*
X176209Y64485D01*
X180134D01*
Y61910D01*
X185646D01*
Y69390D01*
X180134D01*
Y66893D01*
X176209D01*
X176104Y67285D01*
X175560Y68227D01*
X174790Y68997D01*
X173848Y69541D01*
X173456Y69646D01*
Y74084D01*
X173887Y74199D01*
X174830Y74743D01*
X175599Y75513D01*
X176144Y76456D01*
X176425Y77507D01*
Y78595D01*
X176144Y79647D01*
X175599Y80589D01*
X174830Y81359D01*
X173887Y81903D01*
X172836Y82185D01*
X171747D01*
X170696Y81903D01*
X169753Y81359D01*
X169606Y81212D01*
X156813Y94005D01*
X156422Y94266D01*
X155961Y94358D01*
X155961Y94358D01*
X110708D01*
X106852Y98214D01*
X106461Y98475D01*
X106000Y98566D01*
D02*
G37*
G36*
X281157Y101902D02*
X277114D01*
Y97858D01*
X277212D01*
X278368Y98168D01*
X279404Y98766D01*
X280250Y99612D01*
X280848Y100648D01*
X281157Y101803D01*
Y101902D01*
D02*
G37*
G36*
X276114D02*
X272071D01*
Y101803D01*
X272380Y100648D01*
X272979Y99612D01*
X273825Y98766D01*
X274861Y98168D01*
X276016Y97858D01*
X276114D01*
Y101902D01*
D02*
G37*
G36*
X290748Y106535D02*
X282480D01*
Y98268D01*
X285410D01*
Y95668D01*
X276793Y87051D01*
X273937D01*
X273937Y87051D01*
X273476Y86959D01*
X273085Y86698D01*
X273085Y86698D01*
X267948Y81560D01*
X267687Y81169D01*
X267595Y80709D01*
X267595Y80709D01*
Y79689D01*
X266634D01*
Y78728D01*
X264990D01*
Y79689D01*
X260659D01*
Y75358D01*
X264990D01*
Y76319D01*
X266634D01*
Y75358D01*
X270965D01*
Y79689D01*
X270003D01*
Y80210D01*
X274436Y84642D01*
X277291D01*
X277291Y84642D01*
X277752Y84734D01*
X278143Y84995D01*
X287466Y94318D01*
X287466Y94318D01*
X287727Y94709D01*
X287818Y95169D01*
Y98268D01*
X290748D01*
Y106535D01*
D02*
G37*
G36*
X269077Y87039D02*
X268490D01*
X267947Y86815D01*
X267532Y86399D01*
X267307Y85857D01*
Y85790D01*
X265757Y84240D01*
X264990D01*
Y85201D01*
X260659D01*
Y84240D01*
X258524D01*
Y85201D01*
X254193D01*
Y84240D01*
X252736D01*
Y85201D01*
X248406D01*
Y80870D01*
X252736D01*
Y81831D01*
X254193D01*
Y80870D01*
X258524D01*
Y81831D01*
X260659D01*
Y80870D01*
X264990D01*
Y81831D01*
X266256D01*
X266256Y81831D01*
X266717Y81923D01*
X267108Y82184D01*
X269010Y84087D01*
X269077D01*
X269620Y84311D01*
X270035Y84727D01*
X270260Y85269D01*
Y85857D01*
X270035Y86399D01*
X269620Y86815D01*
X269077Y87039D01*
D02*
G37*
G36*
X163260Y82638D02*
X163162D01*
X162006Y82328D01*
X160970Y81730D01*
X160124Y80884D01*
X159526Y79848D01*
X159216Y78693D01*
Y78594D01*
X163260D01*
Y82638D01*
D02*
G37*
G36*
X212260Y82595D02*
X212161D01*
Y78551D01*
X216205D01*
Y78649D01*
X215895Y79805D01*
X215297Y80841D01*
X214451Y81687D01*
X213415Y82285D01*
X212260Y82595D01*
D02*
G37*
G36*
X211161D02*
X211063D01*
X209908Y82285D01*
X208872Y81687D01*
X208026Y80841D01*
X207428Y79805D01*
X207118Y78649D01*
Y78551D01*
X211161D01*
Y82595D01*
D02*
G37*
G36*
X258933Y80098D02*
X256858D01*
Y78024D01*
X258933D01*
Y80098D01*
D02*
G37*
G36*
X255858D02*
X253783D01*
Y78024D01*
X255858D01*
Y80098D01*
D02*
G37*
G36*
X276476Y79689D02*
X272146D01*
Y75358D01*
X275119D01*
X275271Y74858D01*
X275231Y74832D01*
X272727Y72328D01*
X272240Y72609D01*
X271088Y72917D01*
X269896D01*
X268744Y72609D01*
X267712Y72013D01*
X266869Y71170D01*
X266273Y70137D01*
X265965Y68986D01*
Y67794D01*
X266273Y66642D01*
X266869Y65610D01*
X267712Y64767D01*
X268744Y64171D01*
X269896Y63862D01*
X271088D01*
X271417Y63950D01*
X271965Y63403D01*
Y62406D01*
X271004D01*
Y58075D01*
X275335D01*
Y62406D01*
X274374D01*
Y63902D01*
X274282Y64362D01*
X274021Y64753D01*
X274021Y64753D01*
X273640Y65134D01*
X274115Y65610D01*
X274711Y66642D01*
X275020Y67794D01*
Y68986D01*
X274711Y70137D01*
X274430Y70625D01*
X276582Y72776D01*
X278034D01*
X278168Y72276D01*
X277712Y72013D01*
X276869Y71170D01*
X276273Y70137D01*
X275965Y68986D01*
Y67794D01*
X276273Y66642D01*
X276869Y65610D01*
X277712Y64767D01*
X278745Y64171D01*
X279288Y64025D01*
Y61697D01*
X278327D01*
Y57366D01*
X282658D01*
Y58367D01*
X284154D01*
Y57445D01*
X288484D01*
Y61776D01*
X284154D01*
Y60775D01*
X282658D01*
Y61697D01*
X281696D01*
Y64025D01*
X282240Y64171D01*
X283272Y64767D01*
X284115Y65610D01*
X284711Y66642D01*
X285020Y67794D01*
Y68986D01*
X284711Y70137D01*
X284115Y71170D01*
X283272Y72013D01*
X282816Y72276D01*
X282950Y72776D01*
X289796D01*
X290627Y71946D01*
Y34164D01*
X288182Y31720D01*
X287382D01*
Y32681D01*
X283051D01*
Y28350D01*
X287382D01*
Y29311D01*
X288681D01*
X288681Y29311D01*
X289142Y29403D01*
X289533Y29664D01*
X292682Y32814D01*
X292682Y32814D01*
X292943Y33204D01*
X293035Y33665D01*
X293035Y33665D01*
Y72445D01*
X293035Y72445D01*
X292943Y72906D01*
X292682Y73296D01*
X292682Y73296D01*
X291147Y74832D01*
X290756Y75093D01*
X290295Y75185D01*
X290295Y75185D01*
X276904D01*
X276476Y75358D01*
X276476Y75685D01*
Y76319D01*
X278309D01*
X278357Y76272D01*
X278899Y76047D01*
X279487D01*
X280029Y76272D01*
X280445Y76687D01*
X280669Y77230D01*
Y77817D01*
X280445Y78360D01*
X280029Y78775D01*
X279487Y79000D01*
X278899D01*
X278357Y78775D01*
X278309Y78728D01*
X276476D01*
Y79689D01*
D02*
G37*
G36*
X109909Y78933D02*
X107441D01*
Y75972D01*
X109909D01*
Y78933D01*
D02*
G37*
G36*
X106441D02*
X103972D01*
Y75972D01*
X106441D01*
Y78933D01*
D02*
G37*
G36*
X12689Y77437D02*
X9039D01*
Y75437D01*
X10039Y76437D01*
X12689D01*
Y77437D01*
D02*
G37*
G36*
X258933Y77024D02*
X256858D01*
Y74949D01*
X258933D01*
Y77024D01*
D02*
G37*
G36*
X255858D02*
X253783D01*
Y74949D01*
X255858D01*
Y77024D01*
D02*
G37*
G36*
X17339Y77437D02*
X13689D01*
Y76437D01*
X16339D01*
Y74772D01*
X17339D01*
Y77437D01*
D02*
G37*
G36*
X240508Y76831D02*
X238433D01*
Y74756D01*
X240508D01*
Y76831D01*
D02*
G37*
G36*
X237433D02*
X235358D01*
Y74756D01*
X237433D01*
Y76831D01*
D02*
G37*
G36*
X163260Y77595D02*
X159216D01*
Y77496D01*
X159526Y76341D01*
X160124Y75305D01*
X160970Y74459D01*
X162006Y73861D01*
X163162Y73551D01*
X163260D01*
Y77595D01*
D02*
G37*
G36*
X216205Y77551D02*
X212161D01*
Y73508D01*
X212260D01*
X213415Y73817D01*
X214451Y74416D01*
X215297Y75261D01*
X215895Y76297D01*
X216205Y77453D01*
Y77551D01*
D02*
G37*
G36*
X211161D02*
X207118D01*
Y77453D01*
X207428Y76297D01*
X208026Y75261D01*
X208872Y74416D01*
X209908Y73817D01*
X211063Y73508D01*
X211161D01*
Y77551D01*
D02*
G37*
G36*
X115524Y84724D02*
X111193D01*
Y80394D01*
X112154D01*
Y79803D01*
X112154Y79803D01*
X112246Y79342D01*
X112459Y79024D01*
X112316Y78524D01*
X112256D01*
Y72421D01*
X117374D01*
Y78524D01*
X115921D01*
X115849Y78886D01*
X115588Y79277D01*
X115588Y79277D01*
X114971Y79894D01*
X115178Y80394D01*
X115524D01*
Y84724D01*
D02*
G37*
G36*
X109909Y74972D02*
X107441D01*
Y72012D01*
X109909D01*
Y74972D01*
D02*
G37*
G36*
X106441D02*
X103972D01*
Y72012D01*
X106441D01*
Y74972D01*
D02*
G37*
G36*
X240508Y73756D02*
X238433D01*
Y71681D01*
X240508D01*
Y73756D01*
D02*
G37*
G36*
X237433D02*
X235358D01*
Y71681D01*
X237433D01*
Y73756D01*
D02*
G37*
G36*
X17339Y73772D02*
X16339D01*
Y72106D01*
X15339Y71106D01*
X17339D01*
Y73772D01*
D02*
G37*
G36*
X29232Y70084D02*
X24902D01*
Y68335D01*
X20377D01*
X20377Y68335D01*
X19916Y68244D01*
X19525Y67983D01*
X19525Y67983D01*
X18834Y67291D01*
X18573Y66900D01*
X18481Y66439D01*
X18481Y66439D01*
Y43806D01*
X18005Y43330D01*
X10057D01*
X10009Y43378D01*
X9467Y43602D01*
X8880D01*
X8337Y43378D01*
X8290Y43330D01*
X7480D01*
Y44587D01*
X2362D01*
Y39665D01*
X7480D01*
Y40922D01*
X8290D01*
X8337Y40874D01*
X8880Y40650D01*
X8946D01*
X12357Y37239D01*
X12357Y37239D01*
X12581Y37089D01*
X12429Y36589D01*
X8606D01*
Y34841D01*
X5965D01*
Y37716D01*
X-1154D01*
Y30598D01*
X5965D01*
Y32432D01*
X8606D01*
Y30684D01*
X9567D01*
Y28386D01*
X9567Y28386D01*
X9659Y27925D01*
X9920Y27534D01*
X11436Y26019D01*
X11827Y25758D01*
X12287Y25666D01*
X12287Y25666D01*
X26461D01*
X26461Y25666D01*
X26921Y25758D01*
X27312Y26019D01*
X28848Y27554D01*
X29109Y27945D01*
X29200Y28405D01*
X29200Y28406D01*
Y30796D01*
X29370Y30841D01*
X30181Y31310D01*
X30844Y31972D01*
X31313Y32784D01*
X31555Y33689D01*
Y34626D01*
X31313Y35531D01*
X30844Y36343D01*
X30181Y37005D01*
X29370Y37474D01*
X28465Y37716D01*
X27527D01*
X26622Y37474D01*
X25811Y37005D01*
X25148Y36343D01*
X24680Y35531D01*
X24437Y34626D01*
Y33689D01*
X24680Y32784D01*
X25148Y31972D01*
X25811Y31310D01*
X26622Y30841D01*
X26792Y30796D01*
Y28904D01*
X25962Y28074D01*
X12786D01*
X11976Y28885D01*
Y30684D01*
X12937D01*
Y36431D01*
X13115Y36730D01*
X13314Y36886D01*
X17087D01*
X17465Y36589D01*
Y30684D01*
X21795D01*
Y36589D01*
X20606D01*
Y37079D01*
X20606Y37079D01*
X20514Y37539D01*
X20253Y37930D01*
X20253Y37930D01*
X19241Y38942D01*
X18851Y39203D01*
X18390Y39295D01*
X18390Y39295D01*
X13708D01*
X12542Y40460D01*
X12734Y40922D01*
X18504D01*
X18504Y40922D01*
X18965Y41013D01*
X19355Y41274D01*
X20537Y42456D01*
X20537Y42456D01*
X20798Y42846D01*
X20889Y43307D01*
Y65927D01*
X24902D01*
Y64178D01*
X29232D01*
Y70084D01*
D02*
G37*
G36*
X107035Y69189D02*
X104961D01*
Y67114D01*
X107035D01*
Y69189D01*
D02*
G37*
G36*
X103961D02*
X101886D01*
Y67114D01*
X103961D01*
Y69189D01*
D02*
G37*
G36*
X151539Y69842D02*
X148874D01*
Y66193D01*
X151539D01*
Y69842D01*
D02*
G37*
G36*
X147874D02*
X145209D01*
Y66193D01*
X147874D01*
Y69842D01*
D02*
G37*
G36*
X199441Y69799D02*
X196776D01*
Y66150D01*
X199441D01*
Y69799D01*
D02*
G37*
G36*
X195776D02*
X193110D01*
Y66150D01*
X195776D01*
Y69799D01*
D02*
G37*
G36*
X107035Y66114D02*
X104961D01*
Y64039D01*
X107035D01*
Y66114D01*
D02*
G37*
G36*
X103961D02*
X101886D01*
Y64039D01*
X103961D01*
Y66114D01*
D02*
G37*
G36*
X82167Y66039D02*
X80093D01*
Y63965D01*
X82167D01*
Y66039D01*
D02*
G37*
G36*
X151539Y65193D02*
X148874D01*
Y61543D01*
X151539D01*
Y65193D01*
D02*
G37*
G36*
X147874D02*
X145209D01*
Y61543D01*
X147874D01*
Y65193D01*
D02*
G37*
G36*
X199441Y65150D02*
X196776D01*
Y61500D01*
X199441D01*
Y65150D01*
D02*
G37*
G36*
X195776D02*
X193110D01*
Y61500D01*
X195776D01*
Y65150D01*
D02*
G37*
G36*
X269823Y62406D02*
X265492D01*
Y61444D01*
X263461D01*
X263461Y61444D01*
X263000Y61353D01*
X262609Y61092D01*
X259265Y57748D01*
X256496D01*
X256035Y57656D01*
X255644Y57395D01*
X255644Y57395D01*
X254306Y56056D01*
X254045Y55666D01*
X253953Y55205D01*
X253953Y55205D01*
Y54094D01*
X252992D01*
Y54094D01*
X252522Y54168D01*
Y54193D01*
X246617D01*
Y49862D01*
X252522D01*
Y49862D01*
X252992Y49789D01*
Y49764D01*
X257323D01*
Y54094D01*
X256362D01*
Y54706D01*
X256995Y55339D01*
X259764D01*
X259764Y55339D01*
X260225Y55431D01*
X260615Y55692D01*
X263960Y59036D01*
X265492D01*
Y58075D01*
X269823D01*
Y62406D01*
D02*
G37*
G36*
X82167Y62965D02*
X80093D01*
Y60890D01*
X82167D01*
Y62965D01*
D02*
G37*
G36*
X234095Y81982D02*
X230354D01*
X229902Y81795D01*
X229715Y81343D01*
Y67130D01*
X229371Y66752D01*
X229354D01*
Y65071D01*
X232224D01*
Y64071D01*
X229354D01*
Y62390D01*
X229764D01*
Y59059D01*
X234685D01*
Y59719D01*
X238327D01*
X238327Y59719D01*
X238752Y59803D01*
X239113Y60044D01*
X239743Y60674D01*
X239743Y60674D01*
X239894Y60900D01*
X240394Y60748D01*
Y59059D01*
X241504D01*
Y58041D01*
X240543D01*
Y53711D01*
X244874D01*
Y58041D01*
X243913D01*
Y59059D01*
X245315D01*
Y62602D01*
X244814D01*
X244598Y63087D01*
X244816Y63367D01*
X246025D01*
X246439Y63143D01*
X246617Y62932D01*
X246617Y62777D01*
X246617Y62743D01*
Y58720D01*
X252522D01*
Y59682D01*
X259409D01*
X259409Y59682D01*
X259870Y59773D01*
X260261Y60034D01*
X261344Y61117D01*
X261605Y61508D01*
X261696Y61968D01*
Y64025D01*
X262240Y64171D01*
X263272Y64767D01*
X264115Y65610D01*
X264711Y66642D01*
X265020Y67794D01*
Y68986D01*
X264711Y70137D01*
X264115Y71170D01*
X263272Y72013D01*
X262240Y72609D01*
X261088Y72917D01*
X259896D01*
X258745Y72609D01*
X257712Y72013D01*
X256869Y71170D01*
X256273Y70137D01*
X255965Y68986D01*
Y67794D01*
X256273Y66642D01*
X256869Y65610D01*
X257712Y64767D01*
X258745Y64171D01*
X259288Y64025D01*
Y62467D01*
X258911Y62090D01*
X252522D01*
Y63051D01*
X247068D01*
X247064Y63051D01*
X247064Y63051D01*
X246989Y63051D01*
X246887Y63387D01*
D01*
X246887Y63387D01*
X247144Y63774D01*
X247981Y64611D01*
X248745Y64171D01*
X249896Y63862D01*
X251088D01*
X252240Y64171D01*
X253272Y64767D01*
X254115Y65610D01*
X254711Y66642D01*
X255020Y67794D01*
Y68986D01*
X254711Y70137D01*
X254115Y71170D01*
X253272Y72013D01*
X252240Y72609D01*
X251696Y72754D01*
Y75358D01*
X252736D01*
Y79689D01*
X248406D01*
Y75358D01*
X249288D01*
Y72754D01*
X248745Y72609D01*
X247712Y72013D01*
X246869Y71170D01*
X246273Y70137D01*
X245965Y68986D01*
Y67794D01*
X246273Y66642D01*
X246395Y66431D01*
X245739Y65775D01*
X244193D01*
X243732Y65684D01*
X243341Y65422D01*
X243341Y65422D01*
X242003Y64084D01*
X241742Y63693D01*
X241650Y63232D01*
X241650Y63232D01*
Y62956D01*
X241297Y62602D01*
X240394Y62602D01*
X240069Y62968D01*
Y66174D01*
X240394Y66539D01*
X240569Y66539D01*
X245315D01*
Y70083D01*
X240394D01*
Y68437D01*
X239894Y68286D01*
X239743Y68511D01*
X239743Y68511D01*
X239157Y69097D01*
X238796Y69338D01*
X238371Y69423D01*
X238371Y69423D01*
X234734D01*
Y81343D01*
X234546Y81795D01*
X234095Y81982D01*
D02*
G37*
G36*
X239772Y58451D02*
X237697D01*
Y56376D01*
X239772D01*
Y58451D01*
D02*
G37*
G36*
X236697D02*
X234622D01*
Y56376D01*
X236697D01*
Y58451D01*
D02*
G37*
G36*
X212166Y69823D02*
X211078D01*
X210026Y69541D01*
X209084Y68997D01*
X208314Y68227D01*
X207770Y67285D01*
X207488Y66233D01*
Y65145D01*
X207770Y64093D01*
X208314Y63151D01*
X209084Y62381D01*
X210026Y61837D01*
X210418Y61732D01*
Y56857D01*
X209352Y55791D01*
X208094D01*
X208049Y55960D01*
X207580Y56772D01*
X206918Y57435D01*
X206106Y57903D01*
X205201Y58146D01*
X204264D01*
X203359Y57903D01*
X202547Y57435D01*
X201884Y56772D01*
X201416Y55960D01*
X201370Y55791D01*
X182701D01*
Y58146D01*
X175583D01*
Y51028D01*
X182701D01*
Y53382D01*
X201370D01*
X201416Y53213D01*
X201884Y52401D01*
X202547Y51739D01*
X203359Y51270D01*
X204264Y51028D01*
X205201D01*
X206106Y51270D01*
X206918Y51739D01*
X207580Y52401D01*
X208049Y53213D01*
X208094Y53382D01*
X209850D01*
X209850Y53382D01*
X210311Y53474D01*
X210702Y53735D01*
X212474Y55507D01*
X212735Y55897D01*
X212826Y56358D01*
Y61732D01*
X213218Y61837D01*
X214160Y62381D01*
X214930Y63151D01*
X215474Y64093D01*
X215756Y65145D01*
Y66233D01*
X215474Y67285D01*
X214930Y68227D01*
X214160Y68997D01*
X213218Y69541D01*
X212166Y69823D01*
D02*
G37*
G36*
X288894Y56673D02*
X286819D01*
Y54598D01*
X288894D01*
Y56673D01*
D02*
G37*
G36*
X285819D02*
X283744D01*
Y54598D01*
X285819D01*
Y56673D01*
D02*
G37*
G36*
X275744Y56476D02*
X273669D01*
Y54402D01*
X275744D01*
Y56476D01*
D02*
G37*
G36*
X272669D02*
X270595D01*
Y54402D01*
X272669D01*
Y56476D01*
D02*
G37*
G36*
X239772Y55376D02*
X237697D01*
Y53301D01*
X239772D01*
Y55376D01*
D02*
G37*
G36*
X236697D02*
X234622D01*
Y53301D01*
X236697D01*
Y55376D01*
D02*
G37*
G36*
X-4764Y89458D02*
X-15118D01*
X-15570Y89271D01*
X-15757Y88819D01*
Y63071D01*
X-15570Y62619D01*
X-15118Y62432D01*
X-6820D01*
X-6613Y61932D01*
X-6803Y61742D01*
X-7028Y61199D01*
Y60612D01*
X-6803Y60069D01*
X-6387Y59654D01*
X-5845Y59429D01*
X-5257D01*
X-5028Y59524D01*
X-4527Y59190D01*
Y55000D01*
X-3080D01*
X-3080Y53071D01*
X-4488D01*
Y48150D01*
X630D01*
Y53071D01*
X-857D01*
X-857Y55000D01*
X591D01*
Y59921D01*
X80D01*
X-111Y60383D01*
X713Y61207D01*
X1083D01*
X1348Y61260D01*
X2972D01*
X3219Y60862D01*
Y59921D01*
X1772D01*
Y55000D01*
X6890D01*
Y59921D01*
X5443D01*
Y60750D01*
X5571Y61211D01*
X6605Y61212D01*
X9400Y58417D01*
Y53406D01*
X9587Y52954D01*
X10039Y52767D01*
X16339D01*
X16791Y52954D01*
X16978Y53406D01*
Y63051D01*
X16978Y63051D01*
Y63071D01*
X16929Y63189D01*
Y63642D01*
X16504D01*
X16339Y63710D01*
X9143D01*
X8681Y63819D01*
Y64788D01*
X9169D01*
Y65788D01*
X5571D01*
Y67008D01*
X6987Y68425D01*
X6969Y68470D01*
X7554Y69056D01*
X7704Y69418D01*
Y88819D01*
X7665Y88913D01*
Y89291D01*
X7287D01*
X7193Y89330D01*
X1299Y89330D01*
X1287Y89330D01*
X815Y89291D01*
Y89264D01*
X815D01*
Y89264D01*
X791Y88991D01*
X776Y88819D01*
X776Y88796D01*
Y69203D01*
X-936D01*
X-3240Y71507D01*
Y89410D01*
X-4646D01*
X-4764Y89458D01*
D02*
G37*
G36*
X92590Y56838D02*
Y52433D01*
X96077D01*
Y52917D01*
X95942Y53949D01*
X95543Y54911D01*
X94910Y55737D01*
X94084Y56370D01*
X93122Y56768D01*
X92590Y56838D01*
D02*
G37*
G36*
X91590Y56838D02*
X91059Y56768D01*
X90097Y56370D01*
X89271Y55737D01*
X88638Y54911D01*
X88240Y53949D01*
X88104Y52917D01*
Y52433D01*
X91590D01*
Y56838D01*
D02*
G37*
G36*
X-5417Y55016D02*
X-9067D01*
Y52350D01*
X-5417D01*
Y55016D01*
D02*
G37*
G36*
X-10067D02*
X-13716D01*
Y52350D01*
X-10067D01*
Y55016D01*
D02*
G37*
G36*
X288894Y53598D02*
X286819D01*
Y51524D01*
X288894D01*
Y53598D01*
D02*
G37*
G36*
X285819D02*
X283744D01*
Y51524D01*
X285819D01*
Y53598D01*
D02*
G37*
G36*
X275744Y53402D02*
X273669D01*
Y51327D01*
X275744D01*
Y53402D01*
D02*
G37*
G36*
X272669D02*
X270595D01*
Y51327D01*
X272669D01*
Y53402D01*
D02*
G37*
G36*
X7339Y53481D02*
X4870D01*
Y51111D01*
X7339D01*
Y53481D01*
D02*
G37*
G36*
X3870D02*
X1402D01*
Y51111D01*
X3870D01*
Y53481D01*
D02*
G37*
G36*
X-5417Y51350D02*
X-9067D01*
Y48685D01*
X-5417D01*
Y51350D01*
D02*
G37*
G36*
X-10067D02*
X-13716D01*
Y48685D01*
X-10067D01*
Y51350D01*
D02*
G37*
G36*
X282658Y56185D02*
X278327D01*
Y51854D01*
X279288D01*
Y50415D01*
X279240Y50368D01*
X279016Y49825D01*
Y49238D01*
X279240Y48695D01*
X279656Y48280D01*
X280199Y48055D01*
X280786D01*
X281328Y48280D01*
X281744Y48695D01*
X281968Y49238D01*
Y49825D01*
X281744Y50368D01*
X281696Y50415D01*
Y51854D01*
X282658D01*
Y56185D01*
D02*
G37*
G36*
X269823Y56067D02*
X265492D01*
Y51736D01*
X266453D01*
Y48980D01*
X265492D01*
Y48019D01*
X262776D01*
Y48980D01*
X261844D01*
Y49764D01*
X262835D01*
Y54094D01*
X258504D01*
Y49764D01*
X259436D01*
Y48980D01*
X258445D01*
Y44650D01*
X262776D01*
Y45611D01*
X265492D01*
Y44650D01*
X269823D01*
Y48980D01*
X268862D01*
Y51736D01*
X269823D01*
Y56067D01*
D02*
G37*
G36*
X257264Y48980D02*
X252933D01*
Y48019D01*
X248794D01*
X248794Y48019D01*
X248333Y47927D01*
X247942Y47666D01*
X242473Y42197D01*
X242212Y41806D01*
X242120Y41345D01*
X242120Y41345D01*
Y33756D01*
X237580Y29217D01*
X237561D01*
X237018Y28992D01*
X236603Y28576D01*
X236378Y28034D01*
Y27446D01*
X236603Y26904D01*
X237018Y26489D01*
X237561Y26264D01*
X238148D01*
X238691Y26489D01*
X239106Y26904D01*
X239331Y27446D01*
Y27561D01*
X244176Y32406D01*
X244176Y32406D01*
X244437Y32796D01*
X244528Y33257D01*
X244528Y33257D01*
Y40846D01*
X245503Y41821D01*
X245965Y41629D01*
Y33862D01*
X247634D01*
Y32681D01*
X246673D01*
Y28350D01*
X247634D01*
Y26833D01*
X247587Y26785D01*
X247362Y26243D01*
Y25655D01*
X247587Y25113D01*
X248002Y24697D01*
X248545Y24473D01*
X249132D01*
X249675Y24697D01*
X250090Y25113D01*
X250315Y25655D01*
Y26243D01*
X250090Y26785D01*
X250043Y26833D01*
Y28350D01*
X251004D01*
Y32681D01*
X250043D01*
Y33862D01*
X255020D01*
Y42917D01*
X247253D01*
X247061Y43379D01*
X249293Y45611D01*
X252933D01*
Y44650D01*
X257264D01*
Y48980D01*
D02*
G37*
G36*
X7339Y50111D02*
X4870D01*
Y47740D01*
X7339D01*
Y50111D01*
D02*
G37*
G36*
X3870D02*
X1402D01*
Y47740D01*
X3870D01*
Y50111D01*
D02*
G37*
G36*
X38091Y70084D02*
X33760D01*
Y64178D01*
X38091D01*
Y65927D01*
X38669D01*
X42456Y62141D01*
X42456Y62141D01*
X42846Y61880D01*
X43307Y61788D01*
X43307Y61788D01*
X48073D01*
X50886Y58975D01*
Y56254D01*
X50304Y56012D01*
X49563Y55444D01*
X48996Y54704D01*
X48638Y53842D01*
X48517Y52917D01*
Y50949D01*
X48638Y50024D01*
X48996Y49162D01*
X49563Y48422D01*
X50304Y47854D01*
X51166Y47497D01*
X52091Y47375D01*
X53016Y47497D01*
X53878Y47854D01*
X54618Y48422D01*
X55186Y49162D01*
X55543Y50024D01*
X55664Y50949D01*
Y52917D01*
X55543Y53842D01*
X55186Y54704D01*
X54618Y55444D01*
X53878Y56012D01*
X53295Y56254D01*
Y59474D01*
X53295Y59474D01*
X53203Y59934D01*
X52942Y60325D01*
X52942Y60325D01*
X49424Y63844D01*
X49033Y64105D01*
X48572Y64196D01*
X48572Y64196D01*
X43806D01*
X40020Y67983D01*
X39629Y68244D01*
X39168Y68335D01*
X39168Y68335D01*
X38091D01*
Y70084D01*
D02*
G37*
G36*
X42090Y56491D02*
X41166Y56369D01*
X40304Y56012D01*
X39563Y55444D01*
X38996Y54704D01*
X38638Y53842D01*
X38517Y52917D01*
Y50949D01*
X38638Y50024D01*
X38996Y49162D01*
X39563Y48422D01*
X40304Y47854D01*
X41166Y47497D01*
X42090Y47375D01*
X43016Y47497D01*
X43878Y47854D01*
X44618Y48422D01*
X45186Y49162D01*
X45543Y50024D01*
X45664Y50949D01*
Y52917D01*
X45543Y53842D01*
X45186Y54704D01*
X44618Y55444D01*
X43878Y56012D01*
X43016Y56369D01*
X42090Y56491D01*
D02*
G37*
G36*
X275744Y49390D02*
X273669D01*
Y47315D01*
X275744D01*
Y49390D01*
D02*
G37*
G36*
X272669D02*
X270595D01*
Y47315D01*
X272669D01*
Y49390D01*
D02*
G37*
G36*
X91590Y51433D02*
X88104D01*
Y50949D01*
X88240Y49917D01*
X88638Y48955D01*
X89271Y48130D01*
X90097Y47496D01*
X91059Y47098D01*
X91590Y47028D01*
Y51433D01*
D02*
G37*
G36*
X96077D02*
X92590D01*
Y47028D01*
X93122Y47098D01*
X94084Y47496D01*
X94910Y48130D01*
X95543Y48955D01*
X95942Y49917D01*
X96077Y50949D01*
Y51433D01*
D02*
G37*
G36*
X232715Y54197D02*
X232128D01*
X231585Y53972D01*
X231170Y53557D01*
X230945Y53014D01*
Y52427D01*
X231170Y51884D01*
X231217Y51837D01*
Y50122D01*
X230256D01*
Y45791D01*
X234587D01*
Y50122D01*
X233626D01*
Y51837D01*
X233673Y51884D01*
X233898Y52427D01*
Y53014D01*
X233673Y53557D01*
X233258Y53972D01*
X232715Y54197D01*
D02*
G37*
G36*
X275744Y46315D02*
X273669D01*
Y44240D01*
X275744D01*
Y46315D01*
D02*
G37*
G36*
X272669D02*
X270595D01*
Y44240D01*
X272669D01*
Y46315D01*
D02*
G37*
G36*
X1591Y44996D02*
X-878D01*
Y42626D01*
X1591D01*
Y44996D01*
D02*
G37*
G36*
X-1878D02*
X-4346D01*
Y42626D01*
X-1878D01*
Y44996D01*
D02*
G37*
G36*
X52063Y44815D02*
X52043D01*
X51037Y44546D01*
X50136Y44025D01*
X49400Y43289D01*
X48880Y42388D01*
X48610Y41383D01*
Y41362D01*
X52063D01*
Y44815D01*
D02*
G37*
G36*
X233028Y43898D02*
X230559D01*
Y40937D01*
X233028D01*
Y43898D01*
D02*
G37*
G36*
X229559D02*
X227091D01*
Y40937D01*
X229559D01*
Y43898D01*
D02*
G37*
G36*
X1591Y41626D02*
X-878D01*
Y39256D01*
X1591D01*
Y41626D01*
D02*
G37*
G36*
X-1878D02*
X-4346D01*
Y39256D01*
X-1878D01*
Y41626D01*
D02*
G37*
G36*
X281142Y43327D02*
X280992D01*
Y38890D01*
X285429D01*
Y39040D01*
X285093Y40295D01*
X284443Y41421D01*
X283524Y42340D01*
X282398Y42990D01*
X281142Y43327D01*
D02*
G37*
G36*
X279992D02*
X279842D01*
X278587Y42990D01*
X277461Y42340D01*
X276541Y41421D01*
X275892Y40295D01*
X275555Y39040D01*
Y38890D01*
X279992D01*
Y43327D01*
D02*
G37*
G36*
X240098Y50122D02*
X235768D01*
Y45791D01*
X236729D01*
Y43488D01*
X235374D01*
Y37386D01*
X240492D01*
Y43488D01*
X239137D01*
Y45791D01*
X240098D01*
Y50122D01*
D02*
G37*
G36*
X233028Y39937D02*
X230559D01*
Y36976D01*
X233028D01*
Y39937D01*
D02*
G37*
G36*
X229559D02*
X227091D01*
Y36976D01*
X229559D01*
Y39937D01*
D02*
G37*
G36*
X52063Y40362D02*
X48610D01*
Y40342D01*
X48880Y39336D01*
X49400Y38435D01*
X50136Y37699D01*
X51037Y37179D01*
X52043Y36909D01*
X52063D01*
Y40362D01*
D02*
G37*
G36*
X271088Y42917D02*
X269896D01*
X268744Y42609D01*
X267712Y42013D01*
X266869Y41170D01*
X266273Y40137D01*
X265965Y38986D01*
Y37794D01*
X266273Y36642D01*
X266869Y35610D01*
X267712Y34767D01*
X268744Y34171D01*
X269896Y33862D01*
X271088D01*
X272240Y34171D01*
X273272Y34767D01*
X274115Y35610D01*
X274711Y36642D01*
X275020Y37794D01*
Y38986D01*
X274711Y40137D01*
X274115Y41170D01*
X273272Y42013D01*
X272240Y42609D01*
X271088Y42917D01*
D02*
G37*
G36*
X285429Y37890D02*
X280992D01*
Y33453D01*
X281142D01*
X282398Y33789D01*
X283524Y34439D01*
X284443Y35358D01*
X285093Y36484D01*
X285429Y37740D01*
Y37890D01*
D02*
G37*
G36*
X279992D02*
X275555D01*
Y37740D01*
X275892Y36484D01*
X276541Y35358D01*
X277461Y34439D01*
X278587Y33789D01*
X279842Y33453D01*
X279992D01*
Y37890D01*
D02*
G37*
G36*
X157260Y40433D02*
X156323D01*
X155418Y40191D01*
X154606Y39722D01*
X153943Y39059D01*
X153475Y38248D01*
X153232Y37343D01*
Y36406D01*
X153475Y35500D01*
X153943Y34689D01*
X154606Y34026D01*
X155418Y33558D01*
X156323Y33315D01*
X157260D01*
X158165Y33558D01*
X158977Y34026D01*
X159639Y34689D01*
X160108Y35500D01*
X160350Y36406D01*
Y37343D01*
X160108Y38248D01*
X159639Y39059D01*
X158977Y39722D01*
X158165Y40191D01*
X157260Y40433D01*
D02*
G37*
G36*
X131669D02*
X130732D01*
X129827Y40191D01*
X129016Y39722D01*
X128353Y39059D01*
X127884Y38248D01*
X127642Y37343D01*
Y36406D01*
X127884Y35500D01*
X128353Y34689D01*
X129016Y34026D01*
X129827Y33558D01*
X130732Y33315D01*
X131669D01*
X132574Y33558D01*
X133386Y34026D01*
X134049Y34689D01*
X134517Y35500D01*
X134760Y36406D01*
Y37343D01*
X134517Y38248D01*
X134049Y39059D01*
X133386Y39722D01*
X132574Y40191D01*
X131669Y40433D01*
D02*
G37*
G36*
X205201Y40429D02*
X204264D01*
X203359Y40187D01*
X202547Y39718D01*
X201884Y39055D01*
X201416Y38244D01*
X201173Y37339D01*
Y36402D01*
X201416Y35496D01*
X201884Y34685D01*
X202547Y34022D01*
X203359Y33554D01*
X204264Y33311D01*
X205201D01*
X206106Y33554D01*
X206918Y34022D01*
X207580Y34685D01*
X208049Y35496D01*
X208291Y36402D01*
Y37339D01*
X208049Y38244D01*
X207580Y39055D01*
X206918Y39718D01*
X206106Y40187D01*
X205201Y40429D01*
D02*
G37*
G36*
X179610D02*
X178673D01*
X177768Y40187D01*
X176956Y39718D01*
X176294Y39055D01*
X175825Y38244D01*
X175583Y37339D01*
Y36402D01*
X175825Y35496D01*
X176294Y34685D01*
X176956Y34022D01*
X177768Y33554D01*
X178673Y33311D01*
X179610D01*
X180516Y33554D01*
X181327Y34022D01*
X181990Y34685D01*
X182458Y35496D01*
X182701Y36402D01*
Y37339D01*
X182458Y38244D01*
X181990Y39055D01*
X181327Y39718D01*
X180516Y40187D01*
X179610Y40429D01*
D02*
G37*
G36*
X107224Y39350D02*
X106291D01*
X105389Y39109D01*
X104581Y38642D01*
X103922Y37983D01*
X103455Y37175D01*
X103214Y36274D01*
Y35341D01*
X103455Y34439D01*
X103922Y33632D01*
X104581Y32972D01*
X105389Y32505D01*
X106291Y32264D01*
X107224D01*
X108125Y32505D01*
X108933Y32972D01*
X109592Y33632D01*
X110059Y34439D01*
X110300Y35341D01*
Y36274D01*
X110059Y37175D01*
X109592Y37983D01*
X108933Y38642D01*
X108125Y39109D01*
X107224Y39350D01*
D02*
G37*
G36*
X261088Y42917D02*
X259896D01*
X258745Y42609D01*
X257712Y42013D01*
X256869Y41170D01*
X256273Y40137D01*
X255965Y38986D01*
Y37794D01*
X256273Y36642D01*
X256869Y35610D01*
X257712Y34767D01*
X258745Y34171D01*
X259288Y34025D01*
Y32681D01*
X258327D01*
Y31720D01*
X256516D01*
Y32681D01*
X252185D01*
Y28350D01*
X256516D01*
Y29311D01*
X258327D01*
Y28350D01*
X262657D01*
Y32681D01*
X261696D01*
Y34025D01*
X262240Y34171D01*
X263272Y34767D01*
X264115Y35610D01*
X264711Y36642D01*
X265020Y37794D01*
Y38986D01*
X264711Y40137D01*
X264115Y41170D01*
X263272Y42013D01*
X262240Y42609D01*
X261088Y42917D01*
D02*
G37*
G36*
X274744Y32642D02*
X270413D01*
Y31661D01*
X269075D01*
Y32602D01*
X264744D01*
Y28272D01*
X269075D01*
Y29252D01*
X270413D01*
Y28311D01*
X274744D01*
Y32642D01*
D02*
G37*
G36*
X-9023Y35965D02*
X-9173D01*
Y31528D01*
X-4736D01*
Y31677D01*
X-5073Y32933D01*
X-5723Y34059D01*
X-6642Y34978D01*
X-7768Y35628D01*
X-9023Y35965D01*
D02*
G37*
G36*
X-10173D02*
X-10323D01*
X-11579Y35628D01*
X-12705Y34978D01*
X-13624Y34059D01*
X-14274Y32933D01*
X-14610Y31677D01*
Y31528D01*
X-10173D01*
Y35965D01*
D02*
G37*
G36*
X101694Y29760D02*
X97257D01*
Y26307D01*
X101694D01*
Y29760D01*
D02*
G37*
G36*
X96257D02*
X91820D01*
Y26307D01*
X96257D01*
Y29760D01*
D02*
G37*
G36*
X-4736Y30528D02*
X-9173D01*
Y26091D01*
X-9023D01*
X-7768Y26427D01*
X-6642Y27077D01*
X-5723Y27996D01*
X-5073Y29122D01*
X-4736Y30378D01*
Y30528D01*
D02*
G37*
G36*
X-10173D02*
X-14610D01*
Y30378D01*
X-14274Y29122D01*
X-13624Y27996D01*
X-12705Y27077D01*
X-11579Y26427D01*
X-10323Y26091D01*
X-10173D01*
Y30528D01*
D02*
G37*
G36*
X287791Y27697D02*
X285717D01*
Y25622D01*
X287791D01*
Y27697D01*
D02*
G37*
G36*
X284717D02*
X282642D01*
Y25622D01*
X284717D01*
Y27697D01*
D02*
G37*
G36*
X275153Y27539D02*
X273079D01*
Y25464D01*
X275153D01*
Y27539D01*
D02*
G37*
G36*
X272079D02*
X270004D01*
Y25464D01*
X272079D01*
Y27539D01*
D02*
G37*
G36*
X281870Y32681D02*
X277539D01*
Y28350D01*
X278501D01*
Y27287D01*
X277539D01*
Y22957D01*
X281870D01*
Y27287D01*
X280909D01*
Y28350D01*
X281870D01*
Y32681D01*
D02*
G37*
G36*
X262657Y27169D02*
X258327D01*
Y22839D01*
X262657D01*
Y23760D01*
X264744D01*
Y22760D01*
X269075D01*
Y27091D01*
X264744D01*
Y26169D01*
X262657D01*
Y27169D01*
D02*
G37*
G36*
X287791Y24622D02*
X285717D01*
Y22547D01*
X287791D01*
Y24622D01*
D02*
G37*
G36*
X284717D02*
X282642D01*
Y22547D01*
X284717D01*
Y24622D01*
D02*
G37*
G36*
X275153Y24464D02*
X273079D01*
Y22390D01*
X275153D01*
Y24464D01*
D02*
G37*
G36*
X272079D02*
X270004D01*
Y22390D01*
X272079D01*
Y24464D01*
D02*
G37*
G36*
X117224Y29350D02*
X116291D01*
X115389Y29109D01*
X114581Y28642D01*
X113922Y27983D01*
X113455Y27175D01*
X113214Y26274D01*
Y25341D01*
X113455Y24439D01*
X113922Y23631D01*
X114581Y22972D01*
X115389Y22505D01*
X116291Y22264D01*
X117224D01*
X118125Y22505D01*
X118933Y22972D01*
X119592Y23631D01*
X120059Y24439D01*
X120300Y25341D01*
Y26274D01*
X120059Y27175D01*
X119592Y27983D01*
X118933Y28642D01*
X118125Y29109D01*
X117224Y29350D01*
D02*
G37*
G36*
X96257Y25307D02*
X91820D01*
Y21854D01*
X96257D01*
Y25307D01*
D02*
G37*
G36*
X-5146Y25555D02*
X-14201D01*
Y16500D01*
X-5146D01*
Y25555D01*
D02*
G37*
G36*
X32090Y56491D02*
X31166Y56369D01*
X30304Y56012D01*
X29563Y55444D01*
X28995Y54704D01*
X28638Y53842D01*
X28517Y52917D01*
Y50949D01*
X28638Y50024D01*
X28995Y49162D01*
X29563Y48422D01*
X30304Y47854D01*
X31166Y47497D01*
X32090Y47375D01*
X32808Y47469D01*
X65381Y14897D01*
X65381Y14897D01*
X65771Y14636D01*
X66232Y14544D01*
X123201D01*
X123201Y14544D01*
X123662Y14636D01*
X124052Y14897D01*
X124744Y15588D01*
X124744Y15588D01*
X125005Y15979D01*
X125097Y16440D01*
X125097Y16440D01*
Y34261D01*
X125005Y34722D01*
X124744Y35112D01*
X123198Y36659D01*
X122807Y36920D01*
X122346Y37011D01*
X122346Y37011D01*
X120103D01*
X120059Y37175D01*
X119592Y37983D01*
X118933Y38642D01*
X118125Y39109D01*
X117224Y39350D01*
X116291D01*
X115389Y39109D01*
X114581Y38642D01*
X113922Y37983D01*
X113455Y37175D01*
X113214Y36274D01*
Y35341D01*
X113455Y34439D01*
X113922Y33632D01*
X114581Y32972D01*
X115389Y32505D01*
X116291Y32264D01*
X117224D01*
X118125Y32505D01*
X118933Y32972D01*
X119592Y33632D01*
X120059Y34439D01*
X120103Y34603D01*
X121848D01*
X122688Y33762D01*
Y16952D01*
X66731D01*
X34897Y48786D01*
X35186Y49162D01*
X35543Y50024D01*
X35664Y50949D01*
Y52917D01*
X35543Y53842D01*
X35186Y54704D01*
X34618Y55444D01*
X33878Y56012D01*
X33015Y56369D01*
X32090Y56491D01*
D02*
G37*
G36*
X28465Y20000D02*
X27527D01*
X26622Y19758D01*
X25811Y19289D01*
X25148Y18626D01*
X24680Y17815D01*
X24437Y16909D01*
Y15972D01*
X24680Y15067D01*
X25148Y14256D01*
X25811Y13593D01*
X26622Y13124D01*
X27527Y12882D01*
X28465D01*
X29370Y13124D01*
X30181Y13593D01*
X30844Y14256D01*
X31313Y15067D01*
X31555Y15972D01*
Y16909D01*
X31313Y17815D01*
X30844Y18626D01*
X30181Y19289D01*
X29370Y19758D01*
X28465Y20000D01*
D02*
G37*
G36*
X2874D02*
X1937D01*
X1032Y19758D01*
X220Y19289D01*
X-442Y18626D01*
X-911Y17815D01*
X-1154Y16909D01*
Y15972D01*
X-911Y15067D01*
X-442Y14256D01*
X220Y13593D01*
X1032Y13124D01*
X1937Y12882D01*
X2874D01*
X3779Y13124D01*
X4591Y13593D01*
X5254Y14256D01*
X5722Y15067D01*
X5965Y15972D01*
Y16909D01*
X5722Y17815D01*
X5254Y18626D01*
X4591Y19289D01*
X3779Y19758D01*
X2874Y20000D01*
D02*
G37*
G36*
X288080Y6890D02*
X286723D01*
X285392Y6625D01*
X284138Y6106D01*
X283010Y5352D01*
X282050Y4392D01*
X281296Y3263D01*
X280777Y2010D01*
X280512Y679D01*
Y-679D01*
X280777Y-2010D01*
X281296Y-3263D01*
X282050Y-4392D01*
X283010Y-5352D01*
X284138Y-6106D01*
X285392Y-6625D01*
X286723Y-6890D01*
X288080D01*
X289411Y-6625D01*
X290665Y-6106D01*
X291793Y-5352D01*
X292753Y-4392D01*
X293507Y-3263D01*
X294027Y-2010D01*
X294291Y-679D01*
Y679D01*
X294027Y2010D01*
X293507Y3263D01*
X292753Y4392D01*
X291793Y5352D01*
X290665Y6106D01*
X289411Y6625D01*
X288080Y6890D01*
D02*
G37*
G36*
X679D02*
X-679D01*
X-2010Y6625D01*
X-3263Y6106D01*
X-4392Y5352D01*
X-5352Y4392D01*
X-6106Y3263D01*
X-6625Y2010D01*
X-6890Y679D01*
Y-679D01*
X-6625Y-2010D01*
X-6106Y-3263D01*
X-5352Y-4392D01*
X-4392Y-5352D01*
X-3263Y-6106D01*
X-2010Y-6625D01*
X-679Y-6890D01*
X679D01*
X2010Y-6625D01*
X3263Y-6106D01*
X4392Y-5352D01*
X5352Y-4392D01*
X6106Y-3263D01*
X6625Y-2010D01*
X6890Y-679D01*
Y679D01*
X6625Y2010D01*
X6106Y3263D01*
X5352Y4392D01*
X4392Y5352D01*
X3263Y6106D01*
X2010Y6625D01*
X679Y6890D01*
D02*
G37*
%LPD*%
G36*
X80187Y70157D02*
X88142D01*
X87846Y68976D01*
X87802D01*
X88097Y67795D01*
X80187D01*
X78888Y66496D01*
X75699D01*
Y68976D01*
Y71457D01*
X78888D01*
X80187Y70157D01*
D02*
G37*
G36*
X112413Y59527D02*
X96606D01*
Y62677D01*
X112413D01*
Y59527D01*
D02*
G37*
G36*
X234095Y67130D02*
X230354D01*
Y81343D01*
X234095D01*
Y67130D01*
D02*
G37*
G36*
X7193Y88819D02*
Y69418D01*
X4961Y67185D01*
Y65650D01*
X5571Y65040D01*
X8169D01*
Y63819D01*
X3405D01*
X2992Y64232D01*
Y67146D01*
X1287Y68851D01*
Y88819D01*
X7193Y88819D01*
D02*
G37*
G36*
X-4764Y72126D02*
X-1201Y68563D01*
X827D01*
X2382Y67008D01*
Y65788D01*
X-748Y65788D01*
X-3465Y63071D01*
X-15118D01*
Y88819D01*
X-4764D01*
Y72126D01*
D02*
G37*
G36*
X16339Y58721D02*
X10000D01*
X6870Y61851D01*
X5571Y61851D01*
Y63071D01*
X16339D01*
X16339Y58721D01*
D02*
G37*
D13*
X78687Y63465D02*
X82667D01*
X46169Y66421D02*
X51689D01*
X57547Y60563D01*
X39168Y67131D02*
X43307Y62992D01*
X48572D02*
X52091Y59474D01*
X43307Y62992D02*
X48572D01*
X52091Y51933D02*
Y59474D01*
X57547Y40878D02*
X78740Y19685D01*
X57547Y40878D02*
Y60563D01*
X35925Y67131D02*
X39168D01*
X32090Y80500D02*
Y81933D01*
Y80500D02*
X46169Y66421D01*
X78740Y19685D02*
X100635D01*
X106757Y25807D01*
X123201Y15748D02*
X123893Y16440D01*
X66232Y15748D02*
X123201D01*
X32090Y49890D02*
X66232Y15748D01*
X123893Y16440D02*
Y34261D01*
X70866Y73083D02*
X75378Y77595D01*
X70866Y59055D02*
Y73083D01*
X20377Y67131D02*
X27067D01*
X19685Y66439D02*
X20377Y67131D01*
X19685Y43307D02*
Y66439D01*
X18504Y42126D02*
X19685Y43307D01*
X232224Y64571D02*
X236472D01*
X82091Y80949D02*
Y81933D01*
X78736Y77595D02*
X82091Y80949D01*
X75378Y77595D02*
X78736D01*
X52091Y82917D02*
X56634Y87461D01*
X124311Y65693D02*
Y85977D01*
X56634Y87461D02*
X122828D01*
X67547Y41740D02*
X73480Y35807D01*
X67547Y41740D02*
Y53886D01*
X73480Y35807D02*
X96757D01*
X9173Y42126D02*
X13209Y38091D01*
X18390D01*
X250492Y68390D02*
Y77524D01*
X51409Y97362D02*
X106000D01*
X42090Y88043D02*
X51409Y97362D01*
X106000D02*
X110209Y93154D01*
X237197Y52248D02*
Y55876D01*
X242709Y60685D02*
X242854Y60831D01*
X242709Y55876D02*
Y60685D01*
X237854Y27740D02*
Y27787D01*
X243324Y33257D01*
X248794Y46815D02*
X255098D01*
X243324Y41345D02*
X248794Y46815D01*
X243324Y33257D02*
Y41345D01*
X260640Y51900D02*
X260669Y51929D01*
X260640Y46845D02*
Y51900D01*
X260610Y46815D02*
X260640Y46845D01*
X255157Y51929D02*
Y55205D01*
X256496Y56543D01*
X259764D01*
X263461Y60240D01*
X267657D01*
X260492Y61968D02*
Y68390D01*
X249570Y60886D02*
X259409D01*
X260492Y61968D01*
X255108Y51978D02*
X255157Y51929D01*
X249619Y51978D02*
X255108D01*
X249570Y52027D02*
X249619Y51978D01*
X266256Y83035D02*
X268783Y85563D01*
X262825Y83035D02*
X266256D01*
X256358D02*
X262825D01*
X268799Y80709D02*
X273937Y85847D01*
X268799Y77524D02*
Y80709D01*
X273937Y85847D02*
X277291D01*
X286614Y95169D01*
Y102402D01*
X250571Y83035D02*
X256358D01*
X262825Y77524D02*
X268799D01*
X124311Y65693D02*
X134988D01*
X172252Y65689D02*
X182850D01*
X182890Y65650D01*
X155961Y93154D02*
X172252Y76863D01*
X42090Y81933D02*
Y88043D01*
X110209Y93154D02*
X155961D01*
X172252Y65689D02*
Y76863D01*
X122828Y87461D02*
X124311Y85977D01*
X52091Y81933D02*
Y82917D01*
X116757Y35807D02*
X122346D01*
X123893Y34261D01*
X32090Y49890D02*
Y51933D01*
X82091Y40862D02*
Y51933D01*
X62090Y59342D02*
Y81933D01*
Y59342D02*
X67547Y53886D01*
X279705Y25122D02*
Y30516D01*
X272559Y30457D02*
X272579Y30476D01*
X289823Y25122D02*
X289902Y25043D01*
X285216Y25122D02*
X289823D01*
X250492Y77524D02*
X250571D01*
X255413Y73075D02*
X256358Y74020D01*
Y77524D01*
X270492Y68390D02*
X276083Y73980D01*
X270492Y66579D02*
Y68390D01*
Y66579D02*
X273169Y63902D01*
X280492Y59531D02*
Y68390D01*
X273169Y46815D02*
Y53902D01*
Y60240D02*
Y63902D01*
X277028Y46815D02*
X278405Y45437D01*
X280492Y59531D02*
X280532Y59571D01*
X280492Y49531D02*
Y54020D01*
X273169Y46815D02*
X277028D01*
X237933Y40437D02*
Y47957D01*
X248839Y36736D02*
X250492Y38390D01*
X286280Y59571D02*
X286319Y59610D01*
Y49610D02*
Y54098D01*
X290295Y73980D02*
X291831Y72445D01*
Y33665D02*
Y72445D01*
X285216Y30516D02*
X288681D01*
X291831Y33665D01*
X266929Y30457D02*
X272559D01*
X280532Y59571D02*
X286280D01*
X267657Y46815D02*
Y53902D01*
X260610Y46815D02*
X267657D01*
X250057Y68390D02*
X250492D01*
X246238Y64571D02*
X250057Y68390D01*
X237933Y74256D02*
X241909D01*
X242854Y60831D02*
Y63232D01*
X244193Y64571D01*
X274311Y77524D02*
X279193D01*
X276083Y73980D02*
X290295D01*
X248839Y25949D02*
Y30516D01*
X254350Y30516D02*
X260492D01*
X254350Y30516D02*
X254350Y30516D01*
X248839Y30516D02*
Y36736D01*
X260492Y30516D02*
Y38390D01*
X244193Y64571D02*
X246238D01*
X232421Y47957D02*
Y52720D01*
X225492Y40437D02*
X230059D01*
X266910Y30437D02*
X266929Y30457D01*
X266870Y24965D02*
X266910Y24925D01*
X260492Y30516D02*
X260492Y30516D01*
X260531Y24965D02*
X266870D01*
X260492Y25004D02*
X260531Y24965D01*
X272579Y20595D02*
Y24965D01*
X163681Y56362D02*
Y65693D01*
X131201Y54591D02*
X156791D01*
X161909D01*
X163681Y56362D01*
X148374Y65693D02*
X154787D01*
X179142Y54587D02*
X204732D01*
X209850D01*
X211622Y56358D01*
Y65689D01*
X27996Y28405D02*
Y34157D01*
X26461Y26870D02*
X27996Y28405D01*
X12287Y26870D02*
X26461D01*
X10772Y28386D02*
X12287Y26870D01*
X10772Y28386D02*
Y33637D01*
X98378Y65335D02*
X98476Y65236D01*
X94874Y65335D02*
X98378D01*
X94776Y65433D02*
X94874Y65335D01*
X114736Y75472D02*
Y78425D01*
X113358Y79803D02*
X114736Y78425D01*
X113358Y79803D02*
Y82559D01*
X102335Y75472D02*
X106941D01*
X9173Y42126D02*
X18504D01*
X196276Y65650D02*
X202689D01*
X4921Y42126D02*
X9173D01*
X2926Y33637D02*
X10772D01*
X2406Y34157D02*
X2926Y33637D01*
X-6024Y42126D02*
X-1378D01*
X19402Y33865D02*
Y37079D01*
Y33865D02*
X19630Y33637D01*
X18390Y38091D02*
X19402Y37079D01*
X108478Y66577D02*
X108516Y66540D01*
X104461Y66614D02*
X104498Y66577D01*
X108478D01*
D16*
X232224Y68311D02*
X232224Y68311D01*
X238371D01*
X238957Y61461D02*
Y67725D01*
X238371Y68311D02*
X238957Y67725D01*
X238327Y60831D02*
X238957Y61461D01*
X232224Y60831D02*
X238327D01*
X92453Y61496D02*
X98476D01*
X91004Y62945D02*
Y67606D01*
Y62945D02*
X92453Y61496D01*
X91004Y67606D02*
X92374Y68976D01*
X98476D01*
X-1822Y60245D02*
X252Y62319D01*
X-1822Y60245D02*
X-1822Y57607D01*
X-1969Y57461D02*
X-1822Y57607D01*
X252Y62319D02*
X1083Y62319D01*
X4370Y50611D02*
X9252Y50611D01*
X-1969Y50650D02*
X-1929Y50611D01*
X-1969Y50650D02*
X-1969Y57461D01*
X4331D02*
Y61752D01*
X5039Y62461D02*
X6870Y62461D01*
X4331Y61752D02*
X5039Y62461D01*
D17*
X-5551Y60905D02*
Y61839D01*
X-853Y64429D02*
X1083D01*
X-3098Y62185D02*
X-853Y64429D01*
X-5205Y62185D02*
X-3098D01*
X-5551Y61839D02*
X-5205Y62185D01*
D18*
X82667Y63465D02*
D03*
Y68976D02*
D03*
X262825Y83035D02*
D03*
Y77524D02*
D03*
X256358D02*
D03*
Y83035D02*
D03*
X250571D02*
D03*
Y77524D02*
D03*
X272579Y24965D02*
D03*
Y30476D02*
D03*
X266910Y30437D02*
D03*
Y24925D02*
D03*
X286319Y54098D02*
D03*
Y59610D02*
D03*
X280492Y59531D02*
D03*
Y54020D02*
D03*
X260492Y25004D02*
D03*
Y30516D02*
D03*
X104461Y61102D02*
D03*
Y66614D02*
D03*
D19*
X230059Y40437D02*
D03*
X237933D02*
D03*
X106941Y75472D02*
D03*
X114815D02*
D03*
D20*
X260669Y51929D02*
D03*
X255157D02*
D03*
X232421Y47957D02*
D03*
X237933D02*
D03*
X268799Y77524D02*
D03*
X274311D02*
D03*
X237933Y74256D02*
D03*
X232421D02*
D03*
X237197Y55876D02*
D03*
X242709D02*
D03*
X279705Y25122D02*
D03*
X285216D02*
D03*
X279705Y30516D02*
D03*
X285216D02*
D03*
X260610Y46815D02*
D03*
X255098D02*
D03*
X273169D02*
D03*
X267657D02*
D03*
Y60240D02*
D03*
X273169D02*
D03*
X267657Y53902D02*
D03*
X273169D02*
D03*
X248839Y30516D02*
D03*
X254350D02*
D03*
X113358Y82559D02*
D03*
X107846D02*
D03*
D21*
X-1969Y57461D02*
D03*
X4331D02*
D03*
X4370Y50611D02*
D03*
X-1929D02*
D03*
X-1378Y42126D02*
D03*
X4921Y42126D02*
D03*
D28*
X134988Y65693D02*
D03*
X148374D02*
D03*
X182890Y65650D02*
D03*
X196276D02*
D03*
D45*
X97610Y82559D02*
X107846D01*
X97571Y82598D02*
X97610Y82559D01*
X87787Y69035D02*
Y75039D01*
X97571Y76260D02*
Y82598D01*
X96350Y75039D02*
X97571Y76260D01*
X87886Y75039D02*
X96350D01*
D46*
X96757Y25807D02*
D03*
D47*
X106757D02*
D03*
X116757D02*
D03*
Y35807D02*
D03*
X106757D02*
D03*
X96757D02*
D03*
X92090Y92386D02*
D03*
X62563D02*
D03*
X52563Y40862D02*
D03*
X82091D02*
D03*
D48*
Y51933D02*
D03*
X92090D02*
D03*
X72091D02*
D03*
X62090D02*
D03*
X52091D02*
D03*
X42090D02*
D03*
X32090D02*
D03*
Y81933D02*
D03*
X42090Y81933D02*
D03*
X52091D02*
D03*
X62090D02*
D03*
X72091D02*
D03*
X82091D02*
D03*
D49*
X92090Y81933D02*
D03*
D50*
X287402Y0D02*
D03*
Y129921D02*
D03*
X0D02*
D03*
Y0D02*
D03*
D51*
X27996Y16441D02*
D03*
X2406D02*
D03*
X27996Y34157D02*
D03*
X204732Y54587D02*
D03*
Y36870D02*
D03*
X179142D02*
D03*
X156791Y54591D02*
D03*
Y36874D02*
D03*
X131201D02*
D03*
D52*
X2406Y34157D02*
D03*
X179142Y54587D02*
D03*
X131201Y54591D02*
D03*
D53*
X-9673Y21028D02*
D03*
D54*
Y31028D02*
D03*
X250492Y68390D02*
D03*
X260492D02*
D03*
X270492D02*
D03*
X280492D02*
D03*
Y38390D02*
D03*
X270492D02*
D03*
X260492D02*
D03*
D55*
X250492D02*
D03*
D56*
X124390Y78095D02*
D03*
X163760D02*
D03*
X211661Y78051D02*
D03*
X172291D02*
D03*
X172252Y65689D02*
D03*
X211622D02*
D03*
X163681Y65693D02*
D03*
X124311D02*
D03*
X276614Y102402D02*
D03*
D57*
X286614D02*
D03*
D58*
X78649Y63502D02*
D03*
X46169Y66421D02*
D03*
X70866Y59055D02*
D03*
X77549Y69882D02*
D03*
Y67835D02*
D03*
X236472Y64571D02*
D03*
X35484Y13606D02*
D03*
X40522Y19124D02*
D03*
X245854Y82961D02*
D03*
X34638Y93902D02*
D03*
X237197Y52248D02*
D03*
X237854Y27740D02*
D03*
X268783Y85563D02*
D03*
X62937Y102626D02*
D03*
X15197Y102402D02*
D03*
X289823Y25122D02*
D03*
X272579Y20595D02*
D03*
X248839Y25949D02*
D03*
X286319Y49610D02*
D03*
X278405Y45437D02*
D03*
X255413Y73075D02*
D03*
X280492Y49531D02*
D03*
X279193Y77524D02*
D03*
X232421Y52720D02*
D03*
X225492Y40437D02*
D03*
X232224Y79925D02*
D03*
X232224Y77878D02*
D03*
X241909Y74256D02*
D03*
X154787Y65693D02*
D03*
X94776Y65433D02*
D03*
X102335Y75472D02*
D03*
X108988Y60866D02*
D03*
X202689Y65650D02*
D03*
X86437Y102626D02*
D03*
X156937D02*
D03*
X39437D02*
D03*
X15236Y80650D02*
D03*
X15236Y78603D02*
D03*
X13189Y80650D02*
D03*
Y78603D02*
D03*
X9173Y42126D02*
D03*
X-6024Y42126D02*
D03*
X-5551Y60905D02*
D03*
X108516Y66540D02*
D03*
X9252Y50611D02*
D03*
X11142Y54508D02*
D03*
Y56555D02*
D03*
X13189D02*
D03*
Y54508D02*
D03*
X-13740Y67520D02*
D03*
X-13740Y69567D02*
D03*
X-13740Y71614D02*
D03*
X-13740Y73662D02*
D03*
X-13740Y75709D02*
D03*
X-13740Y77756D02*
D03*
X-13740Y83898D02*
D03*
X-13740Y81850D02*
D03*
X-13740Y79803D02*
D03*
X-11614Y47520D02*
D03*
X-9567Y47520D02*
D03*
X-7520Y47520D02*
D03*
X11142Y78603D02*
D03*
Y80650D02*
D03*
X45911Y140161D02*
D03*
X186930Y140142D02*
D03*
X111035Y60866D02*
D03*
X15236Y54508D02*
D03*
Y56555D02*
D03*
X-9567Y45472D02*
D03*
X-7520D02*
D03*
X-11614D02*
D03*
X246126Y140098D02*
D03*
X233930Y140142D02*
D03*
X175626Y140098D02*
D03*
X163411Y140161D02*
D03*
X199126Y140098D02*
D03*
X210430Y140142D02*
D03*
X222626Y140098D02*
D03*
X105126D02*
D03*
X92911Y140161D02*
D03*
X116430Y140142D02*
D03*
X128626Y140098D02*
D03*
X139930Y140142D02*
D03*
X152126Y140098D02*
D03*
X81606Y140118D02*
D03*
X69411Y140161D02*
D03*
X58106Y140118D02*
D03*
X22391Y140181D02*
D03*
X34606Y140118D02*
D03*
X250936Y102625D02*
D03*
X227437Y102626D02*
D03*
X203937Y102626D02*
D03*
X180437Y102626D02*
D03*
X133437D02*
D03*
X109937D02*
D03*
D65*
X249570Y52027D02*
D03*
X249570Y60886D02*
D03*
D66*
X232224Y60831D02*
D03*
X232224Y64571D02*
D03*
X232224Y68311D02*
D03*
X242854D02*
D03*
Y60831D02*
D03*
X87846Y68976D02*
D03*
Y61496D02*
D03*
X98476Y61496D02*
D03*
X98476Y65236D02*
D03*
X98476Y68976D02*
D03*
D67*
X27067Y67131D02*
D03*
X35925D02*
D03*
X10772Y33637D02*
D03*
X19630D02*
D03*
D68*
X4240Y79370D02*
D03*
X-6784D02*
D03*
D69*
X1083Y62461D02*
D03*
Y64429D02*
D03*
Y66398D02*
D03*
X6870D02*
D03*
Y64429D02*
D03*
Y62461D02*
D03*
D70*
X-9567Y51850D02*
D03*
Y65236D02*
D03*
X13189Y74272D02*
D03*
X13189Y60886D02*
D03*
D71*
X13189Y58229D02*
D03*
X-9567Y49193D02*
D03*
X13189Y76929D02*
D03*
M02*
