G04*
G04 #@! TF.GenerationSoftware,Altium Limited,Altium Designer,23.7.1 (13)*
G04*
G04 Layer_Color=128*
%FSLAX25Y25*%
%MOIN*%
G70*
G04*
G04 #@! TF.SameCoordinates,1B8C2127-6F75-47A4-92DA-DE864E6653F8*
G04*
G04*
G04 #@! TF.FilePolarity,Positive*
G04*
G01*
G75*
%ADD16R,0.03937X0.03740*%
%ADD22R,0.04331X0.06299*%
%ADD61R,0.03150X0.03150*%
%ADD62R,0.02598X0.01221*%
%ADD63R,0.06299X0.04331*%
%ADD64R,0.03937X0.04921*%
%ADD65R,0.03740X0.02362*%
%ADD66R,0.03150X0.03150*%
%ADD67R,0.03150X0.04724*%
%ADD68R,0.04724X0.03150*%
%ADD69R,0.05906X0.17323*%
D16*
X17717Y-88208D02*
D03*
X24016D02*
D03*
X24055Y-95059D02*
D03*
X17756D02*
D03*
X18307Y-103543D02*
D03*
X24606Y-103543D02*
D03*
D22*
X189650Y-81098D02*
D03*
X203035D02*
D03*
X140118Y-81059D02*
D03*
X153504D02*
D03*
D61*
X226693Y-60512D02*
D03*
X232205D02*
D03*
X249370Y-87953D02*
D03*
X254882D02*
D03*
X237087Y-80000D02*
D03*
X242598D02*
D03*
X97205Y-59724D02*
D03*
X91693D02*
D03*
X279488Y-109646D02*
D03*
X273976D02*
D03*
X279488Y-104252D02*
D03*
X273976D02*
D03*
X122677Y-52205D02*
D03*
X117165D02*
D03*
X232205Y-86811D02*
D03*
X226693D02*
D03*
X261929Y-87953D02*
D03*
X267441D02*
D03*
Y-80866D02*
D03*
X261929D02*
D03*
X267441Y-74528D02*
D03*
X261929D02*
D03*
X248622Y-104252D02*
D03*
X243110D02*
D03*
X268583Y-57244D02*
D03*
X263071D02*
D03*
D62*
X20768Y-83208D02*
D03*
Y-81240D02*
D03*
Y-79271D02*
D03*
X26555D02*
D03*
Y-81240D02*
D03*
Y-83208D02*
D03*
D63*
X10118Y-93819D02*
D03*
Y-80433D02*
D03*
X32874Y-71397D02*
D03*
X32874Y-84783D02*
D03*
D64*
X232205Y-94331D02*
D03*
X224331D02*
D03*
X116260Y-59291D02*
D03*
X124134D02*
D03*
D65*
X97165Y-65787D02*
D03*
Y-73268D02*
D03*
X107795Y-73268D02*
D03*
X107795Y-69528D02*
D03*
X107795Y-65787D02*
D03*
X226496Y-73937D02*
D03*
X226496Y-70197D02*
D03*
X226496Y-66457D02*
D03*
X237126D02*
D03*
Y-73937D02*
D03*
D66*
X113779Y-73661D02*
D03*
Y-68150D02*
D03*
X280591Y-75157D02*
D03*
Y-80669D02*
D03*
X274764Y-80748D02*
D03*
Y-75236D02*
D03*
X266850Y-104291D02*
D03*
Y-109803D02*
D03*
X261181Y-109843D02*
D03*
Y-104331D02*
D03*
X254764Y-104252D02*
D03*
Y-109764D02*
D03*
X257097Y-57244D02*
D03*
Y-51732D02*
D03*
X244843Y-57244D02*
D03*
Y-51732D02*
D03*
X250630D02*
D03*
Y-57244D02*
D03*
D67*
X16988Y-110950D02*
D03*
X25846D02*
D03*
D68*
X254921Y-74094D02*
D03*
Y-82953D02*
D03*
D69*
X23976Y-67342D02*
D03*
X11969D02*
D03*
M02*
