G04*
G04 #@! TF.GenerationSoftware,Altium Limited,Altium Designer,24.3.1 (35)*
G04*
G04 Layer_Color=16711935*
%FSLAX25Y25*%
%MOIN*%
G70*
G04*
G04 #@! TF.SameCoordinates,B31CD4F0-C50D-4F02-9F32-B226106F2F3E*
G04*
G04*
G04 #@! TF.FilePolarity,Positive*
G04*
G01*
G75*
%ADD64C,0.03937*%
D64*
X294291Y-11811D02*
X295295Y-11772D01*
X296293Y-11654D01*
X297278Y-11457D01*
X298245Y-11185D01*
X299188Y-10837D01*
X300100Y-10416D01*
X300977Y-9926D01*
X301812Y-9367D01*
X302601Y-8745D01*
X303339Y-8063D01*
X304021Y-7326D01*
X304643Y-6537D01*
X305201Y-5701D01*
X305692Y-4825D01*
X306113Y-3912D01*
X306460Y-2970D01*
X306733Y-2003D01*
X306929Y-1017D01*
X307047Y-20D01*
X307087Y984D01*
X-19685D02*
X-19646Y-20D01*
X-19527Y-1017D01*
X-19331Y-2003D01*
X-19059Y-2970D01*
X-18711Y-3912D01*
X-18291Y-4825D01*
X-17799Y-5701D01*
X-17241Y-6537D01*
X-16619Y-7326D01*
X-15937Y-8063D01*
X-15200Y-8745D01*
X-14411Y-9367D01*
X-13575Y-9926D01*
X-12699Y-10416D01*
X-11786Y-10837D01*
X-10844Y-11185D01*
X-9877Y-11457D01*
X-8891Y-11654D01*
X-7894Y-11772D01*
X-6890Y-11811D01*
Y145669D02*
X-7894Y145630D01*
X-8891Y145512D01*
X-9877Y145316D01*
X-10844Y145043D01*
X-11786Y144695D01*
X-12699Y144275D01*
X-13575Y143784D01*
X-14411Y143226D01*
X-15200Y142604D01*
X-15937Y141922D01*
X-16619Y141184D01*
X-17241Y140395D01*
X-17799Y139559D01*
X-18291Y138683D01*
X-18711Y137771D01*
X-19059Y136828D01*
X-19331Y135861D01*
X-19527Y134876D01*
X-19646Y133878D01*
X-19685Y132874D01*
X307087D02*
X307047Y133878D01*
X306929Y134876D01*
X306733Y135861D01*
X306460Y136828D01*
X306113Y137771D01*
X305692Y138683D01*
X305201Y139559D01*
X304643Y140395D01*
X304021Y141184D01*
X303339Y141922D01*
X302601Y142604D01*
X301812Y143226D01*
X300977Y143784D01*
X300100Y144275D01*
X299188Y144695D01*
X298245Y145043D01*
X297278Y145316D01*
X296293Y145512D01*
X295295Y145630D01*
X294291Y145669D01*
X-6890Y-11811D02*
X295276D01*
X307087Y131890D02*
X307087Y984D01*
X-19685D02*
X-19685Y131890D01*
X-6890Y145669D02*
X294291D01*
M02*
