G04*
G04 #@! TF.GenerationSoftware,Altium Limited,Altium Designer,23.7.1 (13)*
G04*
G04 Layer_Color=8421504*
%FSLAX25Y25*%
%MOIN*%
G70*
G04*
G04 #@! TF.SameCoordinates,1B8C2127-6F75-47A4-92DA-DE864E6653F8*
G04*
G04*
G04 #@! TF.FilePolarity,Positive*
G04*
G01*
G75*
%ADD16R,0.03937X0.03740*%
%ADD17R,0.05118X0.07284*%
%ADD18R,0.03937X0.05906*%
%ADD19R,0.05118X0.05906*%
D16*
X34882Y-48228D02*
D03*
X28583Y-48228D02*
D03*
X22185D02*
D03*
X15886D02*
D03*
D17*
X27205Y-40984D02*
D03*
X15787D02*
D03*
X27205Y-30866D02*
D03*
X15787Y-30866D02*
D03*
D18*
X65213Y-43043D02*
D03*
X71512D02*
D03*
X77811D02*
D03*
Y-21783D02*
D03*
X71512D02*
D03*
X65213D02*
D03*
X41713D02*
D03*
X48012D02*
D03*
X54311D02*
D03*
Y-43043D02*
D03*
X48012D02*
D03*
X41713D02*
D03*
X88713D02*
D03*
X95012D02*
D03*
X101311D02*
D03*
Y-21783D02*
D03*
X95012D02*
D03*
X88713D02*
D03*
X112213D02*
D03*
X118512D02*
D03*
X124811D02*
D03*
Y-43043D02*
D03*
X118512D02*
D03*
X112213D02*
D03*
X135713D02*
D03*
X142012D02*
D03*
X148311D02*
D03*
Y-21783D02*
D03*
X142012D02*
D03*
X135713D02*
D03*
X159213D02*
D03*
X165512D02*
D03*
X171811D02*
D03*
Y-43043D02*
D03*
X165512D02*
D03*
X159213D02*
D03*
X182713D02*
D03*
X189012D02*
D03*
X195311D02*
D03*
Y-21783D02*
D03*
X189012D02*
D03*
X182713D02*
D03*
X206212Y-21784D02*
D03*
X212512D02*
D03*
X218811D02*
D03*
Y-43044D02*
D03*
X212512D02*
D03*
X206212D02*
D03*
X229712Y-43044D02*
D03*
X236012D02*
D03*
X242311D02*
D03*
Y-21784D02*
D03*
X236012D02*
D03*
X229712D02*
D03*
X253212Y-21784D02*
D03*
X259511D02*
D03*
X265810D02*
D03*
Y-43044D02*
D03*
X259511D02*
D03*
X253212D02*
D03*
D19*
X136115Y-12693D02*
D03*
X148311Y-12736D02*
D03*
X253615Y-12693D02*
D03*
X265811Y-12736D02*
D03*
X230115Y-12693D02*
D03*
X242311Y-12736D02*
D03*
X206615Y-12693D02*
D03*
X218811Y-12736D02*
D03*
X183115Y-12693D02*
D03*
X195311Y-12736D02*
D03*
X159615Y-12693D02*
D03*
X171811Y-12736D02*
D03*
X112615Y-12693D02*
D03*
X124811Y-12736D02*
D03*
X89115Y-12693D02*
D03*
X101311Y-12736D02*
D03*
X65615Y-12693D02*
D03*
X77811Y-12736D02*
D03*
X42096Y-12673D02*
D03*
X54291Y-12717D02*
D03*
M02*
