G04*
G04 #@! TF.GenerationSoftware,Altium Limited,Altium Designer,23.7.1 (13)*
G04*
G04 Layer_Color=8388736*
%FSLAX25Y25*%
%MOIN*%
G70*
G04*
G04 #@! TF.SameCoordinates,1B8C2127-6F75-47A4-92DA-DE864E6653F8*
G04*
G04*
G04 #@! TF.FilePolarity,Negative*
G04*
G01*
G75*
%ADD20R,0.04331X0.04134*%
%ADD21R,0.05512X0.07677*%
%ADD22R,0.04331X0.06299*%
%ADD23R,0.05512X0.06299*%
%ADD24C,0.07480*%
%ADD25R,0.07480X0.07480*%
%ADD26O,0.08268X0.06299*%
%ADD27C,0.08268*%
%ADD28R,0.08268X0.06299*%
%ADD29R,0.08268X0.08268*%
%ADD30O,0.06299X0.08268*%
%ADD31R,0.06299X0.08268*%
%ADD32R,0.08268X0.08268*%
%ADD33R,0.06331X0.06331*%
%ADD34C,0.06331*%
%ADD35C,0.06299*%
%ADD36C,0.02165*%
%ADD37C,0.10236*%
D20*
X34882Y-48228D02*
D03*
X28583Y-48228D02*
D03*
X22185D02*
D03*
X15886D02*
D03*
D21*
X27205Y-40984D02*
D03*
X15787D02*
D03*
X27205Y-30866D02*
D03*
X15787Y-30866D02*
D03*
D22*
X65213Y-43043D02*
D03*
X71512D02*
D03*
X77811D02*
D03*
Y-21783D02*
D03*
X71512D02*
D03*
X65213D02*
D03*
X41713D02*
D03*
X48012D02*
D03*
X54311D02*
D03*
Y-43043D02*
D03*
X48012D02*
D03*
X41713D02*
D03*
X88713D02*
D03*
X95012D02*
D03*
X101311D02*
D03*
Y-21783D02*
D03*
X95012D02*
D03*
X88713D02*
D03*
X112213D02*
D03*
X118512D02*
D03*
X124811D02*
D03*
Y-43043D02*
D03*
X118512D02*
D03*
X112213D02*
D03*
X135713D02*
D03*
X142012D02*
D03*
X148311D02*
D03*
Y-21783D02*
D03*
X142012D02*
D03*
X135713D02*
D03*
X159213D02*
D03*
X165512D02*
D03*
X171811D02*
D03*
Y-43043D02*
D03*
X165512D02*
D03*
X159213D02*
D03*
X182713D02*
D03*
X189012D02*
D03*
X195311D02*
D03*
Y-21783D02*
D03*
X189012D02*
D03*
X182713D02*
D03*
X206212Y-21784D02*
D03*
X212512D02*
D03*
X218811D02*
D03*
Y-43044D02*
D03*
X212512D02*
D03*
X206212D02*
D03*
X229712Y-43044D02*
D03*
X236012D02*
D03*
X242311D02*
D03*
Y-21784D02*
D03*
X236012D02*
D03*
X229712D02*
D03*
X253212Y-21784D02*
D03*
X259511D02*
D03*
X265810D02*
D03*
Y-43044D02*
D03*
X259511D02*
D03*
X253212D02*
D03*
D23*
X136115Y-12693D02*
D03*
X148311Y-12736D02*
D03*
X253615Y-12693D02*
D03*
X265811Y-12736D02*
D03*
X230115Y-12693D02*
D03*
X242311Y-12736D02*
D03*
X206615Y-12693D02*
D03*
X218811Y-12736D02*
D03*
X183115Y-12693D02*
D03*
X195311Y-12736D02*
D03*
X159615Y-12693D02*
D03*
X171811Y-12736D02*
D03*
X112615Y-12693D02*
D03*
X124811Y-12736D02*
D03*
X89115Y-12693D02*
D03*
X101311Y-12736D02*
D03*
X65615Y-12693D02*
D03*
X77811Y-12736D02*
D03*
X42096Y-12673D02*
D03*
X54291Y-12717D02*
D03*
D24*
X296299Y-43268D02*
D03*
X179051Y-68697D02*
D03*
X218421D02*
D03*
X129441Y-81059D02*
D03*
X168811D02*
D03*
X218382D02*
D03*
X179012D02*
D03*
X168890Y-68657D02*
D03*
X129520D02*
D03*
D25*
X306299Y-43268D02*
D03*
D26*
X95512Y-97126D02*
D03*
X105512D02*
D03*
X115512D02*
D03*
Y-107126D02*
D03*
D27*
X105512D02*
D03*
X51142Y-129449D02*
D03*
X244764Y-66378D02*
D03*
X254764D02*
D03*
X264764D02*
D03*
X274764D02*
D03*
Y-96378D02*
D03*
X264764D02*
D03*
X254764D02*
D03*
D28*
X95512Y-107126D02*
D03*
D29*
X51142Y-119449D02*
D03*
D30*
X106890Y-82165D02*
D03*
X96890D02*
D03*
X86890D02*
D03*
X76890D02*
D03*
X66890D02*
D03*
X56890D02*
D03*
X46890D02*
D03*
Y-52165D02*
D03*
X56890Y-52165D02*
D03*
X66890D02*
D03*
X76890D02*
D03*
X86890D02*
D03*
X96890D02*
D03*
D31*
X106890Y-52165D02*
D03*
D32*
X244764Y-96378D02*
D03*
D33*
X8622Y-110429D02*
D03*
X136331Y-92161D02*
D03*
X185902D02*
D03*
D34*
X34213Y-110429D02*
D03*
X8622Y-128146D02*
D03*
X34213D02*
D03*
X161921Y-109878D02*
D03*
X136331D02*
D03*
X161921Y-92161D02*
D03*
X211492Y-109878D02*
D03*
X185902D02*
D03*
X211492Y-92161D02*
D03*
D35*
X76260Y-107205D02*
D03*
X46732D02*
D03*
X76339Y-96220D02*
D03*
X46811D02*
D03*
D36*
X219764Y-94331D02*
D03*
X104095Y-69331D02*
D03*
X111653Y-59291D02*
D03*
X28780Y-53976D02*
D03*
X34882Y-43268D02*
D03*
X261575Y-51732D02*
D03*
X284095Y-109646D02*
D03*
X249685Y-61693D02*
D03*
X232323Y-80000D02*
D03*
X226693Y-82047D02*
D03*
X280591Y-85158D02*
D03*
X272677Y-89331D02*
D03*
X274764Y-85236D02*
D03*
X243110Y-108819D02*
D03*
X273465Y-57244D02*
D03*
X266850Y-114173D02*
D03*
X118307Y-73898D02*
D03*
X92047Y-64882D02*
D03*
Y-66929D02*
D03*
X209449Y-81098D02*
D03*
X159917Y-81059D02*
D03*
X82622Y-43043D02*
D03*
X106122D02*
D03*
X176622D02*
D03*
X59122D02*
D03*
X34921Y-65019D02*
D03*
X34921Y-67067D02*
D03*
X32874Y-65019D02*
D03*
Y-67067D02*
D03*
X86693Y-59646D02*
D03*
X28858Y-103543D02*
D03*
X13661Y-103543D02*
D03*
X14134Y-84764D02*
D03*
X226496Y-54843D02*
D03*
X226496Y-56890D02*
D03*
X117835Y-68224D02*
D03*
X28937Y-95059D02*
D03*
X9409Y-32913D02*
D03*
Y-28819D02*
D03*
Y-30866D02*
D03*
X11457D02*
D03*
X11457Y-32913D02*
D03*
X11457Y-28819D02*
D03*
X30827Y-91161D02*
D03*
Y-89114D02*
D03*
X32874D02*
D03*
Y-91161D02*
D03*
X5945Y-78149D02*
D03*
X5945Y-76102D02*
D03*
X5945Y-74055D02*
D03*
X5945Y-72008D02*
D03*
X5945Y-69961D02*
D03*
X5945Y-67913D02*
D03*
X5945Y-61772D02*
D03*
X5945Y-63819D02*
D03*
X5945Y-65866D02*
D03*
X8071Y-98150D02*
D03*
X10118Y-98150D02*
D03*
X12165Y-98150D02*
D03*
X30827Y-67067D02*
D03*
Y-65019D02*
D03*
X31535Y-32913D02*
D03*
X31535Y-28819D02*
D03*
X31535Y-30866D02*
D03*
X65596Y-5508D02*
D03*
X206615Y-5528D02*
D03*
X120354Y-73898D02*
D03*
X242598Y-75236D02*
D03*
X236181Y-60512D02*
D03*
X230744Y-70197D02*
D03*
X33583Y-30866D02*
D03*
Y-32913D02*
D03*
Y-28819D02*
D03*
X34921Y-91161D02*
D03*
Y-89114D02*
D03*
X10118Y-100197D02*
D03*
X12165D02*
D03*
X8071D02*
D03*
X265811Y-5571D02*
D03*
X253615Y-5528D02*
D03*
X195311Y-5571D02*
D03*
X183096Y-5508D02*
D03*
X218811Y-5571D02*
D03*
X230115Y-5528D02*
D03*
X242311Y-5571D02*
D03*
X124811D02*
D03*
X112596Y-5508D02*
D03*
X136115Y-5528D02*
D03*
X148311Y-5571D02*
D03*
X159615Y-5528D02*
D03*
X171811Y-5571D02*
D03*
X101291Y-5551D02*
D03*
X89096Y-5508D02*
D03*
X77791Y-5551D02*
D03*
X42076Y-5488D02*
D03*
X54291Y-5551D02*
D03*
X270621Y-43044D02*
D03*
X247122Y-43044D02*
D03*
X223622Y-43044D02*
D03*
X200122Y-43043D02*
D03*
X153122D02*
D03*
X129622D02*
D03*
D37*
X307087Y-15748D02*
D03*
X19685Y-145669D02*
D03*
X307087D02*
D03*
X19685Y-15748D02*
D03*
M02*
