M48
;Layer_Color=9474304
;FILE_FORMAT=2:4
INCH,TZ
;TYPE=PLATED
T1F00S00C0.0079
T2F00S00C0.0315
T3F00S00C0.0394
T4F00S00C0.0866
%
T01
X-1161Y4547
X-957
X-752
Y4752
X-957Y4752
X-1161Y4752
X-602Y4213
X917Y4213
X925Y5061
X1114Y5451
X1319
X1524
Y5656
X1319
X1114
X-555Y6091
X-1374Y6752
X-1374Y6957
X-1374Y7161
X-1374Y7366
X-1374Y7571
X-1374Y7776
X-1374Y7980
X-1374Y8185
X-1374Y8390
X1114Y8065
X1319
X1524
X1524Y7860
X1319Y7860
X1114
X1520Y10240
X3944Y10263
X3464Y9390
X6294Y10263
X4617Y6642
X4052Y1912
X3548Y1361
X7087Y5906
X7865Y6350
X7755Y6783
Y6988
X9478Y6543
X10852Y6654
X10899Y6087
X11104Y6087
X10233Y7547
X10994Y10263
X13344
X15694
X18044
X20394Y10263
X20269Y6565
X15479Y6569
X8644Y10263
X22744Y10263
X25094Y10263
X24585Y8296
X24191Y7426
X23222Y7788
X23222Y7993
X23647Y6457
X23720Y5225
X23242Y5272
X22549Y4044
X23785Y2774
X24884Y2595
X27258Y2059
X28982Y2512
X28632Y4961
X28049Y4953
X27841Y4544
X27919Y7752
X26878Y8556
X25541Y7307
X24613Y14010
X23393Y14014
X22263Y14010
X21043Y14014
X19913Y14010
X18693Y14014
X17563Y14010
X16341Y14016
X15213Y14010
X13993Y14014
X12863Y14010
X11643Y14014
X10513Y14010
X9291Y14016
X8161Y14012
X6941Y14016
X5811Y14012
X4591Y14016
X3461Y14012
X2239Y14018
T02
X12431Y6569
X12439Y7809
X16376
X17229Y7805
X17225Y6569
X16368Y6569
X21162Y6569
X21166Y7805
X27661Y10240
X28661
T03
X-967Y2103
Y3103
X241Y3416
Y1644
X2800
Y3416
X3209Y5193
X4209
X5209
X6209
X5256Y4086
X5209Y8193
X6209
X6256Y9239
X4209Y8193
X3209Y8193
X7209Y8193
X8209
X9209Y8193
Y9239
Y5193
X8209
X7209
X8209Y4086
X9676Y3581
Y2581
X10676
X11676
Y3581
X10676
X13120Y3687
Y5459
X15679
Y3687
X17914Y3687
Y5459
X20473
Y3687
X25049Y3839
X26049
X27049
X28049
Y6839
X27049
X26049
X25049
T04
X0Y0
X28740
Y12992
X0
M30
