G04*
G04 #@! TF.GenerationSoftware,Altium Limited,Altium Designer,23.7.1 (13)*
G04*
G04 Layer_Color=65535*
%FSLAX25Y25*%
%MOIN*%
G70*
G04*
G04 #@! TF.SameCoordinates,1B8C2127-6F75-47A4-92DA-DE864E6653F8*
G04*
G04*
G04 #@! TF.FilePolarity,Positive*
G04*
G01*
G75*
%ADD10C,0.00787*%
%ADD11C,0.01181*%
%ADD12C,0.00984*%
%ADD13C,0.00500*%
%ADD14C,0.01000*%
%ADD15C,0.00591*%
G36*
X261421Y-142905D02*
X259975D01*
Y-141567D01*
X261421D01*
Y-142905D01*
D02*
G37*
G36*
X241361Y-142938D02*
X240117D01*
Y-141693D01*
X241361D01*
Y-142938D01*
D02*
G37*
G36*
X239134D02*
X237889D01*
Y-141693D01*
X239134D01*
Y-142938D01*
D02*
G37*
G36*
X246161Y-143533D02*
X246204Y-143538D01*
X246254Y-143544D01*
X246314Y-143549D01*
X246379Y-143560D01*
X246527Y-143593D01*
X246690Y-143642D01*
X246772Y-143675D01*
X246860Y-143713D01*
X246947Y-143757D01*
X247034Y-143806D01*
X246581Y-145067D01*
X246576Y-145062D01*
X246565Y-145056D01*
X246543Y-145045D01*
X246521Y-145029D01*
X246488Y-145012D01*
X246450Y-144991D01*
X246357Y-144947D01*
X246254Y-144903D01*
X246139Y-144865D01*
X246019Y-144838D01*
X245959Y-144827D01*
X245849D01*
X245790Y-144838D01*
X245719Y-144849D01*
X245637Y-144871D01*
X245549Y-144898D01*
X245462Y-144941D01*
X245380Y-144996D01*
X245369Y-145002D01*
X245347Y-145029D01*
X245309Y-145073D01*
X245260Y-145133D01*
X245211Y-145220D01*
X245183Y-145269D01*
X245156Y-145324D01*
X245129Y-145384D01*
X245101Y-145449D01*
X245074Y-145526D01*
X245052Y-145602D01*
Y-145608D01*
X245047Y-145624D01*
X245041Y-145651D01*
X245036Y-145690D01*
X245025Y-145744D01*
X245014Y-145815D01*
X245003Y-145897D01*
X244992Y-145995D01*
X244981Y-146110D01*
X244970Y-146241D01*
X244959Y-146394D01*
X244949Y-146558D01*
X244943Y-146749D01*
X244938Y-146956D01*
X244932Y-147186D01*
Y-147306D01*
Y-147437D01*
Y-149124D01*
X243485D01*
Y-143648D01*
X244829D01*
Y-144428D01*
X244834Y-144423D01*
X244845Y-144406D01*
X244861Y-144374D01*
X244889Y-144341D01*
X244916Y-144297D01*
X244954Y-144243D01*
X245036Y-144128D01*
X245129Y-144008D01*
X245233Y-143888D01*
X245287Y-143833D01*
X245342Y-143784D01*
X245396Y-143740D01*
X245445Y-143702D01*
X245451D01*
X245456Y-143697D01*
X245473Y-143686D01*
X245495Y-143675D01*
X245555Y-143648D01*
X245631Y-143615D01*
X245724Y-143582D01*
X245828Y-143555D01*
X245948Y-143533D01*
X246073Y-143527D01*
X246123D01*
X246161Y-143533D01*
D02*
G37*
G36*
X284932Y-143533D02*
X284981Y-143538D01*
X285036Y-143544D01*
X285096Y-143549D01*
X285232Y-143571D01*
X285380Y-143598D01*
X285527Y-143642D01*
X285680Y-143702D01*
X285686D01*
X285697Y-143708D01*
X285718Y-143719D01*
X285746Y-143735D01*
X285778Y-143751D01*
X285817Y-143773D01*
X285904Y-143822D01*
X286002Y-143888D01*
X286101Y-143964D01*
X286199Y-144046D01*
X286281Y-144144D01*
Y-144150D01*
X286292Y-144155D01*
X286303Y-144172D01*
X286314Y-144193D01*
X286352Y-144248D01*
X286396Y-144319D01*
X286445Y-144412D01*
X286488Y-144510D01*
X286532Y-144625D01*
X286570Y-144750D01*
Y-144756D01*
X286576Y-144767D01*
Y-144783D01*
X286581Y-144810D01*
X286592Y-144849D01*
X286597Y-144892D01*
X286603Y-144941D01*
X286614Y-145002D01*
X286619Y-145067D01*
X286625Y-145138D01*
X286636Y-145220D01*
X286641Y-145307D01*
X286647Y-145400D01*
Y-145504D01*
X286652Y-145613D01*
Y-145728D01*
Y-149124D01*
X285205D01*
Y-146334D01*
Y-146323D01*
Y-146296D01*
Y-146252D01*
Y-146192D01*
X285200Y-146121D01*
Y-146039D01*
Y-145952D01*
X285194Y-145859D01*
X285183Y-145668D01*
X285172Y-145569D01*
X285161Y-145477D01*
X285151Y-145389D01*
X285140Y-145313D01*
X285123Y-145242D01*
X285107Y-145187D01*
Y-145182D01*
X285102Y-145176D01*
X285090Y-145144D01*
X285069Y-145094D01*
X285036Y-145040D01*
X284992Y-144974D01*
X284943Y-144903D01*
X284878Y-144843D01*
X284807Y-144783D01*
X284796Y-144778D01*
X284768Y-144761D01*
X284725Y-144734D01*
X284665Y-144707D01*
X284594Y-144685D01*
X284506Y-144658D01*
X284408Y-144641D01*
X284304Y-144636D01*
X284266D01*
X284239Y-144641D01*
X284206D01*
X284168Y-144647D01*
X284075Y-144663D01*
X283971Y-144685D01*
X283857Y-144723D01*
X283736Y-144772D01*
X283622Y-144843D01*
X283616D01*
X283611Y-144854D01*
X283594Y-144865D01*
X283573Y-144881D01*
X283524Y-144925D01*
X283458Y-144991D01*
X283393Y-145067D01*
X283321Y-145165D01*
X283261Y-145275D01*
X283212Y-145395D01*
Y-145400D01*
X283207Y-145411D01*
X283201Y-145433D01*
X283196Y-145460D01*
X283185Y-145499D01*
X283180Y-145548D01*
X283169Y-145608D01*
X283158Y-145679D01*
X283147Y-145761D01*
X283136Y-145848D01*
X283130Y-145952D01*
X283120Y-146066D01*
X283114Y-146192D01*
X283109Y-146334D01*
X283103Y-146487D01*
Y-146651D01*
Y-149124D01*
X281656D01*
Y-143648D01*
X282999D01*
Y-144456D01*
X283010Y-144445D01*
X283032Y-144417D01*
X283070Y-144368D01*
X283130Y-144308D01*
X283201Y-144243D01*
X283283Y-144161D01*
X283382Y-144079D01*
X283496Y-143991D01*
X283616Y-143904D01*
X283753Y-143822D01*
X283906Y-143740D01*
X284064Y-143675D01*
X284233Y-143615D01*
X284414Y-143566D01*
X284605Y-143538D01*
X284807Y-143527D01*
X284889D01*
X284932Y-143533D01*
D02*
G37*
G36*
X266166D02*
X266215Y-143538D01*
X266270Y-143544D01*
X266330Y-143549D01*
X266466Y-143571D01*
X266614Y-143598D01*
X266761Y-143642D01*
X266914Y-143702D01*
X266920D01*
X266931Y-143708D01*
X266952Y-143719D01*
X266980Y-143735D01*
X267013Y-143751D01*
X267051Y-143773D01*
X267138Y-143822D01*
X267236Y-143888D01*
X267335Y-143964D01*
X267433Y-144046D01*
X267515Y-144144D01*
Y-144150D01*
X267526Y-144155D01*
X267537Y-144172D01*
X267548Y-144193D01*
X267586Y-144248D01*
X267630Y-144319D01*
X267679Y-144412D01*
X267722Y-144510D01*
X267766Y-144625D01*
X267804Y-144750D01*
Y-144756D01*
X267810Y-144767D01*
Y-144783D01*
X267815Y-144810D01*
X267826Y-144849D01*
X267831Y-144892D01*
X267837Y-144941D01*
X267848Y-145002D01*
X267853Y-145067D01*
X267859Y-145138D01*
X267870Y-145220D01*
X267875Y-145307D01*
X267881Y-145400D01*
Y-145504D01*
X267886Y-145613D01*
Y-145728D01*
Y-149124D01*
X266439D01*
Y-146334D01*
Y-146323D01*
Y-146296D01*
Y-146252D01*
Y-146192D01*
X266434Y-146121D01*
Y-146039D01*
Y-145952D01*
X266428Y-145859D01*
X266417Y-145668D01*
X266406Y-145569D01*
X266395Y-145477D01*
X266385Y-145389D01*
X266374Y-145313D01*
X266357Y-145242D01*
X266341Y-145187D01*
Y-145182D01*
X266335Y-145176D01*
X266324Y-145144D01*
X266303Y-145094D01*
X266270Y-145040D01*
X266226Y-144974D01*
X266177Y-144903D01*
X266112Y-144843D01*
X266041Y-144783D01*
X266030Y-144778D01*
X266002Y-144761D01*
X265959Y-144734D01*
X265899Y-144707D01*
X265828Y-144685D01*
X265740Y-144658D01*
X265642Y-144641D01*
X265538Y-144636D01*
X265500D01*
X265473Y-144641D01*
X265440D01*
X265402Y-144647D01*
X265309Y-144663D01*
X265205Y-144685D01*
X265091Y-144723D01*
X264970Y-144772D01*
X264856Y-144843D01*
X264850D01*
X264845Y-144854D01*
X264828Y-144865D01*
X264807Y-144881D01*
X264757Y-144925D01*
X264692Y-144991D01*
X264627Y-145067D01*
X264556Y-145165D01*
X264495Y-145275D01*
X264446Y-145395D01*
Y-145400D01*
X264441Y-145411D01*
X264435Y-145433D01*
X264430Y-145460D01*
X264419Y-145499D01*
X264413Y-145548D01*
X264403Y-145608D01*
X264392Y-145679D01*
X264381Y-145761D01*
X264370Y-145848D01*
X264364Y-145952D01*
X264353Y-146066D01*
X264348Y-146192D01*
X264342Y-146334D01*
X264337Y-146487D01*
Y-146651D01*
Y-149124D01*
X262890D01*
Y-143648D01*
X264233D01*
Y-144456D01*
X264244Y-144445D01*
X264266Y-144417D01*
X264304Y-144368D01*
X264364Y-144308D01*
X264435Y-144243D01*
X264517Y-144161D01*
X264616Y-144079D01*
X264730Y-143991D01*
X264850Y-143904D01*
X264987Y-143822D01*
X265140Y-143740D01*
X265298Y-143675D01*
X265467Y-143615D01*
X265648Y-143566D01*
X265839Y-143538D01*
X266041Y-143527D01*
X266123D01*
X266166Y-143533D01*
D02*
G37*
G36*
X256786Y-143533D02*
X256835Y-143538D01*
X256890Y-143544D01*
X256950Y-143549D01*
X257086Y-143571D01*
X257234Y-143598D01*
X257381Y-143642D01*
X257534Y-143702D01*
X257539D01*
X257550Y-143708D01*
X257572Y-143719D01*
X257599Y-143735D01*
X257632Y-143751D01*
X257670Y-143773D01*
X257758Y-143822D01*
X257856Y-143888D01*
X257954Y-143964D01*
X258053Y-144046D01*
X258135Y-144144D01*
Y-144150D01*
X258145Y-144155D01*
X258156Y-144172D01*
X258167Y-144193D01*
X258206Y-144248D01*
X258249Y-144319D01*
X258298Y-144412D01*
X258342Y-144510D01*
X258386Y-144625D01*
X258424Y-144750D01*
Y-144756D01*
X258429Y-144767D01*
Y-144783D01*
X258435Y-144810D01*
X258446Y-144849D01*
X258451Y-144892D01*
X258457Y-144941D01*
X258468Y-145002D01*
X258473Y-145067D01*
X258478Y-145138D01*
X258489Y-145220D01*
X258495Y-145307D01*
X258500Y-145400D01*
Y-145504D01*
X258506Y-145613D01*
Y-145728D01*
Y-149124D01*
X257059D01*
Y-146334D01*
Y-146323D01*
Y-146296D01*
Y-146252D01*
Y-146192D01*
X257053Y-146121D01*
Y-146039D01*
Y-145952D01*
X257048Y-145859D01*
X257037Y-145668D01*
X257026Y-145569D01*
X257015Y-145477D01*
X257004Y-145389D01*
X256993Y-145313D01*
X256977Y-145242D01*
X256961Y-145187D01*
Y-145182D01*
X256955Y-145176D01*
X256944Y-145144D01*
X256922Y-145094D01*
X256890Y-145040D01*
X256846Y-144974D01*
X256797Y-144903D01*
X256731Y-144843D01*
X256660Y-144783D01*
X256649Y-144778D01*
X256622Y-144761D01*
X256578Y-144734D01*
X256518Y-144707D01*
X256447Y-144685D01*
X256360Y-144658D01*
X256262Y-144641D01*
X256158Y-144636D01*
X256120D01*
X256093Y-144641D01*
X256060D01*
X256021Y-144647D01*
X255929Y-144663D01*
X255825Y-144685D01*
X255710Y-144723D01*
X255590Y-144772D01*
X255475Y-144843D01*
X255470D01*
X255465Y-144854D01*
X255448Y-144865D01*
X255426Y-144881D01*
X255377Y-144925D01*
X255312Y-144991D01*
X255246Y-145067D01*
X255175Y-145165D01*
X255115Y-145275D01*
X255066Y-145395D01*
Y-145400D01*
X255061Y-145411D01*
X255055Y-145433D01*
X255050Y-145460D01*
X255039Y-145499D01*
X255033Y-145548D01*
X255022Y-145608D01*
X255011Y-145679D01*
X255000Y-145761D01*
X254990Y-145848D01*
X254984Y-145952D01*
X254973Y-146066D01*
X254968Y-146192D01*
X254962Y-146334D01*
X254957Y-146487D01*
Y-146651D01*
Y-149124D01*
X253510D01*
Y-143648D01*
X254853D01*
Y-144456D01*
X254864Y-144445D01*
X254886Y-144417D01*
X254924Y-144368D01*
X254984Y-144308D01*
X255055Y-144243D01*
X255137Y-144161D01*
X255235Y-144079D01*
X255350Y-143991D01*
X255470Y-143904D01*
X255607Y-143822D01*
X255759Y-143740D01*
X255918Y-143675D01*
X256087Y-143615D01*
X256267Y-143566D01*
X256458Y-143538D01*
X256660Y-143527D01*
X256742D01*
X256786Y-143533D01*
D02*
G37*
G36*
X261421Y-149124D02*
X259975D01*
Y-143648D01*
X261421D01*
Y-149124D01*
D02*
G37*
G36*
X235852Y-142845D02*
X232194D01*
Y-144636D01*
X235350D01*
Y-145913D01*
X232194D01*
Y-149124D01*
X230671D01*
Y-141567D01*
X235852D01*
Y-142845D01*
D02*
G37*
G36*
X277971Y-143533D02*
X278004D01*
X278091Y-143538D01*
X278195Y-143549D01*
X278309Y-143571D01*
X278446Y-143593D01*
X278588Y-143626D01*
X278735Y-143669D01*
X278893Y-143724D01*
X279052Y-143790D01*
X279216Y-143866D01*
X279374Y-143959D01*
X279527Y-144068D01*
X279674Y-144193D01*
X279811Y-144335D01*
X279816Y-144346D01*
X279843Y-144374D01*
X279876Y-144423D01*
X279920Y-144488D01*
X279975Y-144576D01*
X280035Y-144679D01*
X280095Y-144805D01*
X280160Y-144947D01*
X280226Y-145111D01*
X280291Y-145296D01*
X280346Y-145499D01*
X280400Y-145722D01*
X280439Y-145963D01*
X280471Y-146225D01*
X280488Y-146509D01*
X280493Y-146809D01*
X276862D01*
Y-146814D01*
Y-146836D01*
X276868Y-146869D01*
Y-146913D01*
X276873Y-146967D01*
X276884Y-147033D01*
X276895Y-147098D01*
X276911Y-147175D01*
X276950Y-147338D01*
X276977Y-147420D01*
X277010Y-147502D01*
X277053Y-147584D01*
X277097Y-147666D01*
X277146Y-147742D01*
X277206Y-147813D01*
X277212Y-147819D01*
X277223Y-147830D01*
X277239Y-147846D01*
X277266Y-147868D01*
X277299Y-147895D01*
X277343Y-147928D01*
X277386Y-147955D01*
X277441Y-147988D01*
X277496Y-148026D01*
X277561Y-148054D01*
X277703Y-148114D01*
X277785Y-148136D01*
X277867Y-148152D01*
X277954Y-148163D01*
X278047Y-148168D01*
X278080D01*
X278107Y-148163D01*
X278167Y-148158D01*
X278249Y-148147D01*
X278337Y-148125D01*
X278435Y-148092D01*
X278528Y-148048D01*
X278620Y-147988D01*
X278626D01*
X278631Y-147977D01*
X278659Y-147950D01*
X278702Y-147906D01*
X278751Y-147841D01*
X278812Y-147759D01*
X278872Y-147655D01*
X278926Y-147535D01*
X278975Y-147388D01*
X280417Y-147628D01*
X280411Y-147639D01*
X280406Y-147661D01*
X280389Y-147704D01*
X280362Y-147759D01*
X280335Y-147824D01*
X280297Y-147901D01*
X280253Y-147988D01*
X280198Y-148076D01*
X280144Y-148174D01*
X280078Y-148272D01*
X280002Y-148376D01*
X279925Y-148474D01*
X279838Y-148572D01*
X279745Y-148671D01*
X279642Y-148758D01*
X279532Y-148840D01*
X279527Y-148845D01*
X279505Y-148856D01*
X279472Y-148878D01*
X279423Y-148906D01*
X279363Y-148933D01*
X279297Y-148971D01*
X279210Y-149004D01*
X279117Y-149042D01*
X279014Y-149080D01*
X278904Y-149118D01*
X278779Y-149157D01*
X278648Y-149184D01*
X278506Y-149211D01*
X278353Y-149233D01*
X278195Y-149244D01*
X278031Y-149249D01*
X277971D01*
X277933Y-149244D01*
X277894D01*
X277851Y-149239D01*
X277796Y-149233D01*
X277676Y-149222D01*
X277545Y-149200D01*
X277392Y-149173D01*
X277228Y-149135D01*
X277059Y-149086D01*
X276884Y-149020D01*
X276710Y-148949D01*
X276535Y-148856D01*
X276365Y-148753D01*
X276207Y-148627D01*
X276054Y-148485D01*
X275918Y-148321D01*
X275912Y-148310D01*
X275896Y-148289D01*
X275869Y-148245D01*
X275836Y-148185D01*
X275792Y-148114D01*
X275748Y-148026D01*
X275699Y-147923D01*
X275650Y-147803D01*
X275596Y-147671D01*
X275547Y-147530D01*
X275503Y-147377D01*
X275465Y-147207D01*
X275426Y-147033D01*
X275399Y-146842D01*
X275383Y-146640D01*
X275377Y-146432D01*
Y-146427D01*
Y-146416D01*
Y-146399D01*
Y-146372D01*
X275383Y-146339D01*
Y-146301D01*
Y-146257D01*
X275388Y-146208D01*
X275399Y-146094D01*
X275415Y-145963D01*
X275437Y-145815D01*
X275465Y-145657D01*
X275503Y-145487D01*
X275552Y-145313D01*
X275606Y-145138D01*
X275677Y-144958D01*
X275759Y-144783D01*
X275852Y-144614D01*
X275961Y-144456D01*
X276087Y-144303D01*
X276098Y-144292D01*
X276120Y-144270D01*
X276158Y-144232D01*
X276213Y-144183D01*
X276284Y-144123D01*
X276371Y-144057D01*
X276469Y-143986D01*
X276578Y-143915D01*
X276704Y-143844D01*
X276840Y-143773D01*
X276988Y-143708D01*
X277146Y-143648D01*
X277315Y-143598D01*
X277496Y-143560D01*
X277687Y-143538D01*
X277889Y-143527D01*
X277943D01*
X277971Y-143533D01*
D02*
G37*
G36*
X249824Y-143533D02*
X249857D01*
X249944Y-143538D01*
X250048Y-143549D01*
X250163Y-143571D01*
X250299Y-143593D01*
X250441Y-143626D01*
X250589Y-143669D01*
X250747Y-143724D01*
X250905Y-143790D01*
X251069Y-143866D01*
X251228Y-143959D01*
X251380Y-144068D01*
X251528Y-144193D01*
X251664Y-144335D01*
X251670Y-144346D01*
X251697Y-144374D01*
X251730Y-144423D01*
X251774Y-144488D01*
X251828Y-144576D01*
X251888Y-144679D01*
X251948Y-144805D01*
X252014Y-144947D01*
X252079Y-145111D01*
X252145Y-145296D01*
X252200Y-145499D01*
X252254Y-145722D01*
X252292Y-145963D01*
X252325Y-146225D01*
X252342Y-146509D01*
X252347Y-146809D01*
X248716D01*
Y-146814D01*
Y-146836D01*
X248722Y-146869D01*
Y-146913D01*
X248727Y-146967D01*
X248738Y-147033D01*
X248749Y-147098D01*
X248765Y-147175D01*
X248803Y-147338D01*
X248831Y-147420D01*
X248864Y-147502D01*
X248907Y-147584D01*
X248951Y-147666D01*
X249000Y-147742D01*
X249060Y-147813D01*
X249065Y-147819D01*
X249076Y-147830D01*
X249093Y-147846D01*
X249120Y-147868D01*
X249153Y-147895D01*
X249197Y-147928D01*
X249240Y-147956D01*
X249295Y-147988D01*
X249349Y-148026D01*
X249415Y-148054D01*
X249557Y-148114D01*
X249639Y-148136D01*
X249721Y-148152D01*
X249808Y-148163D01*
X249901Y-148168D01*
X249934D01*
X249961Y-148163D01*
X250021Y-148158D01*
X250103Y-148147D01*
X250190Y-148125D01*
X250289Y-148092D01*
X250381Y-148048D01*
X250474Y-147988D01*
X250480D01*
X250485Y-147977D01*
X250512Y-147950D01*
X250556Y-147906D01*
X250605Y-147841D01*
X250665Y-147759D01*
X250725Y-147655D01*
X250780Y-147535D01*
X250829Y-147388D01*
X252271Y-147628D01*
X252265Y-147639D01*
X252260Y-147661D01*
X252243Y-147704D01*
X252216Y-147759D01*
X252189Y-147824D01*
X252150Y-147901D01*
X252107Y-147988D01*
X252052Y-148076D01*
X251997Y-148174D01*
X251932Y-148272D01*
X251855Y-148376D01*
X251779Y-148474D01*
X251692Y-148572D01*
X251599Y-148671D01*
X251495Y-148758D01*
X251386Y-148840D01*
X251380Y-148845D01*
X251359Y-148856D01*
X251326Y-148878D01*
X251277Y-148906D01*
X251217Y-148933D01*
X251151Y-148971D01*
X251064Y-149004D01*
X250971Y-149042D01*
X250867Y-149080D01*
X250758Y-149118D01*
X250633Y-149157D01*
X250501Y-149184D01*
X250360Y-149211D01*
X250207Y-149233D01*
X250048Y-149244D01*
X249885Y-149249D01*
X249824D01*
X249786Y-149244D01*
X249748D01*
X249704Y-149239D01*
X249650Y-149233D01*
X249530Y-149222D01*
X249398Y-149200D01*
X249246Y-149173D01*
X249082Y-149135D01*
X248913Y-149086D01*
X248738Y-149020D01*
X248563Y-148949D01*
X248388Y-148856D01*
X248219Y-148753D01*
X248061Y-148627D01*
X247908Y-148485D01*
X247772Y-148321D01*
X247766Y-148310D01*
X247750Y-148289D01*
X247722Y-148245D01*
X247690Y-148185D01*
X247646Y-148114D01*
X247602Y-148026D01*
X247553Y-147923D01*
X247504Y-147803D01*
X247449Y-147671D01*
X247400Y-147530D01*
X247357Y-147377D01*
X247318Y-147207D01*
X247280Y-147033D01*
X247253Y-146842D01*
X247236Y-146640D01*
X247231Y-146432D01*
Y-146427D01*
Y-146416D01*
Y-146399D01*
Y-146372D01*
X247236Y-146339D01*
Y-146301D01*
Y-146257D01*
X247242Y-146208D01*
X247253Y-146094D01*
X247269Y-145963D01*
X247291Y-145815D01*
X247318Y-145657D01*
X247357Y-145487D01*
X247406Y-145313D01*
X247460Y-145138D01*
X247531Y-144958D01*
X247613Y-144783D01*
X247706Y-144614D01*
X247815Y-144456D01*
X247941Y-144303D01*
X247952Y-144292D01*
X247973Y-144270D01*
X248012Y-144232D01*
X248066Y-144183D01*
X248137Y-144123D01*
X248225Y-144057D01*
X248323Y-143986D01*
X248432Y-143915D01*
X248558Y-143844D01*
X248694Y-143773D01*
X248842Y-143708D01*
X249000Y-143648D01*
X249169Y-143598D01*
X249349Y-143560D01*
X249540Y-143538D01*
X249743Y-143527D01*
X249797D01*
X249824Y-143533D01*
D02*
G37*
G36*
X239669D02*
X239702D01*
X239789Y-143538D01*
X239893Y-143549D01*
X240018Y-143571D01*
X240155Y-143593D01*
X240302Y-143626D01*
X240460Y-143669D01*
X240624Y-143724D01*
X240794Y-143790D01*
X240968Y-143866D01*
X241138Y-143959D01*
X241301Y-144068D01*
X241465Y-144193D01*
X241618Y-144335D01*
X241629Y-144346D01*
X241651Y-144374D01*
X241694Y-144417D01*
X241744Y-144483D01*
X241804Y-144559D01*
X241869Y-144658D01*
X241940Y-144767D01*
X242017Y-144892D01*
X242093Y-145034D01*
X242164Y-145187D01*
X242230Y-145357D01*
X242290Y-145537D01*
X242344Y-145733D01*
X242382Y-145935D01*
X242404Y-146154D01*
X242415Y-146378D01*
Y-146383D01*
Y-146394D01*
Y-146410D01*
Y-146432D01*
X242410Y-146459D01*
Y-146498D01*
X242404Y-146585D01*
X242393Y-146689D01*
X242372Y-146814D01*
X242350Y-146951D01*
X242317Y-147098D01*
X242273Y-147257D01*
X242219Y-147426D01*
X242153Y-147595D01*
X242077Y-147770D01*
X241984Y-147939D01*
X241880Y-148114D01*
X241755Y-148278D01*
X241613Y-148436D01*
X241602Y-148447D01*
X241574Y-148469D01*
X241531Y-148512D01*
X241471Y-148562D01*
X241389Y-148627D01*
X241296Y-148693D01*
X241187Y-148769D01*
X241061Y-148840D01*
X240919Y-148916D01*
X240766Y-148993D01*
X240602Y-149058D01*
X240422Y-149124D01*
X240231Y-149173D01*
X240029Y-149217D01*
X239816Y-149239D01*
X239592Y-149249D01*
X239516D01*
X239467Y-149244D01*
X239396Y-149239D01*
X239319Y-149233D01*
X239227Y-149222D01*
X239128Y-149206D01*
X239024Y-149189D01*
X238910Y-149168D01*
X238790Y-149140D01*
X238670Y-149108D01*
X238544Y-149069D01*
X238413Y-149020D01*
X238287Y-148971D01*
X238156Y-148911D01*
X238151Y-148906D01*
X238129Y-148895D01*
X238091Y-148873D01*
X238042Y-148845D01*
X237987Y-148813D01*
X237922Y-148769D01*
X237851Y-148720D01*
X237769Y-148660D01*
X237687Y-148594D01*
X237605Y-148518D01*
X237518Y-148436D01*
X237430Y-148349D01*
X237348Y-148250D01*
X237266Y-148147D01*
X237190Y-148037D01*
X237119Y-147917D01*
X237113Y-147912D01*
X237103Y-147885D01*
X237086Y-147852D01*
X237064Y-147797D01*
X237037Y-147737D01*
X237004Y-147661D01*
X236977Y-147568D01*
X236944Y-147469D01*
X236906Y-147355D01*
X236879Y-147235D01*
X236846Y-147104D01*
X236819Y-146962D01*
X236797Y-146809D01*
X236781Y-146651D01*
X236770Y-146487D01*
X236764Y-146312D01*
Y-146301D01*
Y-146279D01*
Y-146241D01*
X236770Y-146186D01*
X236775Y-146126D01*
X236781Y-146050D01*
X236791Y-145963D01*
X236808Y-145870D01*
X236830Y-145766D01*
X236852Y-145657D01*
X236879Y-145542D01*
X236912Y-145422D01*
X236955Y-145296D01*
X237004Y-145171D01*
X237059Y-145045D01*
X237119Y-144920D01*
X237124Y-144914D01*
X237135Y-144892D01*
X237157Y-144854D01*
X237185Y-144810D01*
X237223Y-144750D01*
X237266Y-144685D01*
X237316Y-144614D01*
X237376Y-144537D01*
X237447Y-144456D01*
X237523Y-144368D01*
X237605Y-144286D01*
X237692Y-144199D01*
X237791Y-144117D01*
X237894Y-144035D01*
X238003Y-143959D01*
X238124Y-143888D01*
X238129Y-143882D01*
X238151Y-143871D01*
X238189Y-143855D01*
X238238Y-143833D01*
X238298Y-143806D01*
X238375Y-143773D01*
X238457Y-143740D01*
X238549Y-143708D01*
X238653Y-143675D01*
X238768Y-143642D01*
X238888Y-143609D01*
X239014Y-143582D01*
X239150Y-143560D01*
X239287Y-143544D01*
X239434Y-143533D01*
X239581Y-143527D01*
X239636D01*
X239669Y-143533D01*
D02*
G37*
G36*
X271435Y-143533D02*
X271506Y-143544D01*
X271593Y-143555D01*
X271692Y-143577D01*
X271806Y-143604D01*
X271926Y-143637D01*
X272058Y-143686D01*
X272194Y-143746D01*
X272330Y-143817D01*
X272473Y-143904D01*
X272614Y-144008D01*
X272751Y-144128D01*
X272887Y-144264D01*
X273013Y-144423D01*
Y-143648D01*
X274367D01*
Y-148567D01*
Y-148578D01*
Y-148611D01*
Y-148660D01*
Y-148725D01*
X274362Y-148802D01*
X274356Y-148895D01*
Y-148998D01*
X274345Y-149108D01*
X274340Y-149222D01*
X274329Y-149342D01*
X274296Y-149583D01*
X274280Y-149697D01*
X274258Y-149806D01*
X274231Y-149916D01*
X274203Y-150008D01*
Y-150014D01*
X274198Y-150030D01*
X274187Y-150052D01*
X274176Y-150085D01*
X274160Y-150128D01*
X274138Y-150172D01*
X274089Y-150281D01*
X274023Y-150401D01*
X273947Y-150527D01*
X273859Y-150653D01*
X273756Y-150762D01*
X273750Y-150767D01*
X273745Y-150773D01*
X273728Y-150789D01*
X273701Y-150806D01*
X273674Y-150827D01*
X273641Y-150855D01*
X273597Y-150888D01*
X273548Y-150915D01*
X273499Y-150953D01*
X273439Y-150986D01*
X273308Y-151057D01*
X273155Y-151128D01*
X272980Y-151188D01*
X272975D01*
X272958Y-151193D01*
X272931Y-151204D01*
X272893Y-151210D01*
X272849Y-151226D01*
X272789Y-151237D01*
X272724Y-151253D01*
X272647Y-151264D01*
X272565Y-151281D01*
X272473Y-151297D01*
X272374Y-151308D01*
X272265Y-151319D01*
X272150Y-151330D01*
X272025Y-151341D01*
X271899Y-151346D01*
X271670D01*
X271632Y-151341D01*
X271539D01*
X271424Y-151330D01*
X271293Y-151319D01*
X271146Y-151308D01*
X270993Y-151286D01*
X270834Y-151259D01*
X270671Y-151226D01*
X270501Y-151188D01*
X270343Y-151144D01*
X270185Y-151090D01*
X270037Y-151024D01*
X269906Y-150947D01*
X269786Y-150866D01*
X269781Y-150860D01*
X269759Y-150844D01*
X269732Y-150817D01*
X269693Y-150778D01*
X269650Y-150729D01*
X269601Y-150674D01*
X269551Y-150609D01*
X269497Y-150533D01*
X269442Y-150451D01*
X269393Y-150358D01*
X269344Y-150260D01*
X269300Y-150150D01*
X269262Y-150036D01*
X269235Y-149916D01*
X269213Y-149790D01*
X269207Y-149653D01*
Y-149648D01*
Y-149637D01*
Y-149626D01*
Y-149604D01*
Y-149550D01*
X269213Y-149479D01*
X270867Y-149681D01*
Y-149686D01*
Y-149692D01*
X270878Y-149730D01*
X270889Y-149779D01*
X270905Y-149839D01*
X270933Y-149905D01*
X270966Y-149970D01*
X271004Y-150030D01*
X271058Y-150079D01*
X271069Y-150085D01*
X271097Y-150101D01*
X271146Y-150128D01*
X271217Y-150156D01*
X271304Y-150189D01*
X271359Y-150199D01*
X271419Y-150210D01*
X271484Y-150221D01*
X271550Y-150232D01*
X271626Y-150238D01*
X271763D01*
X271801Y-150232D01*
X271850D01*
X271905Y-150227D01*
X271965Y-150221D01*
X272030Y-150216D01*
X272167Y-150194D01*
X272309Y-150161D01*
X272440Y-150123D01*
X272505Y-150096D01*
X272560Y-150063D01*
X272571Y-150057D01*
X272593Y-150041D01*
X272625Y-150014D01*
X272669Y-149976D01*
X272713Y-149921D01*
X272762Y-149861D01*
X272811Y-149785D01*
X272849Y-149697D01*
X272855Y-149686D01*
X272860Y-149659D01*
X272871Y-149615D01*
X272877Y-149583D01*
X272887Y-149544D01*
X272893Y-149506D01*
X272898Y-149457D01*
X272904Y-149402D01*
X272909Y-149342D01*
X272915Y-149277D01*
Y-149200D01*
X272920Y-149124D01*
Y-149037D01*
X272926Y-148234D01*
X272920Y-148245D01*
X272898Y-148272D01*
X272860Y-148316D01*
X272806Y-148370D01*
X272745Y-148441D01*
X272664Y-148518D01*
X272576Y-148594D01*
X272473Y-148676D01*
X272358Y-148764D01*
X272238Y-148840D01*
X272101Y-148916D01*
X271954Y-148982D01*
X271795Y-149042D01*
X271632Y-149086D01*
X271457Y-149113D01*
X271277Y-149124D01*
X271228D01*
X271173Y-149118D01*
X271097Y-149108D01*
X271004Y-149097D01*
X270895Y-149075D01*
X270774Y-149048D01*
X270643Y-149009D01*
X270507Y-148960D01*
X270365Y-148895D01*
X270223Y-148824D01*
X270076Y-148731D01*
X269928Y-148627D01*
X269792Y-148501D01*
X269655Y-148360D01*
X269530Y-148196D01*
X269524Y-148185D01*
X269508Y-148163D01*
X269486Y-148119D01*
X269453Y-148065D01*
X269415Y-147994D01*
X269371Y-147906D01*
X269327Y-147803D01*
X269278Y-147688D01*
X269229Y-147562D01*
X269186Y-147426D01*
X269142Y-147273D01*
X269104Y-147109D01*
X269076Y-146940D01*
X269049Y-146754D01*
X269033Y-146563D01*
X269027Y-146361D01*
Y-146356D01*
Y-146345D01*
Y-146328D01*
Y-146301D01*
Y-146268D01*
X269033Y-146230D01*
Y-146186D01*
X269038Y-146137D01*
X269049Y-146017D01*
X269060Y-145886D01*
X269082Y-145739D01*
X269109Y-145580D01*
X269147Y-145417D01*
X269191Y-145242D01*
X269240Y-145067D01*
X269306Y-144892D01*
X269382Y-144723D01*
X269469Y-144559D01*
X269573Y-144401D01*
X269688Y-144259D01*
X269693Y-144248D01*
X269721Y-144226D01*
X269753Y-144193D01*
X269808Y-144144D01*
X269873Y-144090D01*
X269950Y-144030D01*
X270037Y-143959D01*
X270141Y-143893D01*
X270256Y-143822D01*
X270381Y-143757D01*
X270518Y-143697D01*
X270660Y-143642D01*
X270818Y-143593D01*
X270982Y-143560D01*
X271157Y-143533D01*
X271337Y-143527D01*
X271380D01*
X271435Y-143533D01*
D02*
G37*
G36*
X128145Y-141818D02*
X128210Y-141823D01*
X128281Y-141829D01*
X128363Y-141834D01*
X128450Y-141845D01*
X128549Y-141856D01*
X128751Y-141889D01*
X128969Y-141938D01*
X129193Y-141998D01*
X128996Y-143008D01*
X128991D01*
X128980Y-143003D01*
X128963Y-142997D01*
X128936Y-142992D01*
X128909Y-142986D01*
X128871Y-142981D01*
X128783Y-142964D01*
X128685Y-142948D01*
X128570Y-142932D01*
X128450Y-142926D01*
X128330Y-142921D01*
X128281D01*
X128226Y-142926D01*
X128155Y-142937D01*
X128084Y-142959D01*
X128008Y-142981D01*
X127942Y-143019D01*
X127882Y-143068D01*
X127877Y-143074D01*
X127860Y-143095D01*
X127839Y-143139D01*
X127817Y-143194D01*
X127790Y-143270D01*
X127779Y-143319D01*
X127768Y-143368D01*
X127757Y-143429D01*
X127751Y-143489D01*
X127746Y-143560D01*
Y-143636D01*
Y-144018D01*
X128827D01*
Y-145159D01*
X127746D01*
Y-149495D01*
X126299D01*
Y-145159D01*
X125496D01*
Y-144018D01*
X126299D01*
Y-143609D01*
Y-143603D01*
Y-143576D01*
Y-143543D01*
Y-143494D01*
X126304Y-143439D01*
Y-143374D01*
X126310Y-143303D01*
X126315Y-143221D01*
X126332Y-143057D01*
X126359Y-142883D01*
X126392Y-142724D01*
X126414Y-142648D01*
X126441Y-142582D01*
Y-142577D01*
X126446Y-142566D01*
X126457Y-142549D01*
X126468Y-142528D01*
X126506Y-142462D01*
X126567Y-142386D01*
X126637Y-142298D01*
X126730Y-142205D01*
X126785Y-142162D01*
X126845Y-142118D01*
X126910Y-142074D01*
X126981Y-142031D01*
X126987D01*
X126998Y-142020D01*
X127020Y-142009D01*
X127052Y-141998D01*
X127091Y-141982D01*
X127140Y-141960D01*
X127194Y-141943D01*
X127254Y-141921D01*
X127325Y-141900D01*
X127402Y-141883D01*
X127484Y-141861D01*
X127571Y-141845D01*
X127664Y-141834D01*
X127768Y-141823D01*
X127981Y-141812D01*
X128084D01*
X128145Y-141818D01*
D02*
G37*
G36*
X179758Y-143276D02*
X178311Y-143276D01*
Y-141938D01*
X179758Y-141938D01*
Y-143276D01*
D02*
G37*
G36*
X47811Y-143276D02*
X46365D01*
Y-141938D01*
X47811D01*
Y-143276D01*
D02*
G37*
G36*
X121248Y-143308D02*
X120004D01*
Y-142063D01*
X121248D01*
Y-143308D01*
D02*
G37*
G36*
X119021D02*
X117776D01*
Y-142063D01*
X119021D01*
Y-143308D01*
D02*
G37*
G36*
X157470Y-143904D02*
X157514Y-143909D01*
X157563Y-143914D01*
X157623Y-143920D01*
X157688Y-143931D01*
X157836Y-143964D01*
X158000Y-144013D01*
X158082Y-144045D01*
X158169Y-144084D01*
X158256Y-144127D01*
X158344Y-144176D01*
X157890Y-145438D01*
X157885Y-145432D01*
X157874Y-145427D01*
X157852Y-145416D01*
X157831Y-145399D01*
X157798Y-145383D01*
X157759Y-145361D01*
X157667Y-145318D01*
X157563Y-145274D01*
X157448Y-145236D01*
X157328Y-145208D01*
X157268Y-145197D01*
X157159D01*
X157099Y-145208D01*
X157028Y-145219D01*
X156946Y-145241D01*
X156859Y-145268D01*
X156771Y-145312D01*
X156689Y-145367D01*
X156678Y-145372D01*
X156657Y-145399D01*
X156618Y-145443D01*
X156569Y-145503D01*
X156520Y-145591D01*
X156493Y-145640D01*
X156465Y-145694D01*
X156438Y-145754D01*
X156411Y-145820D01*
X156384Y-145896D01*
X156362Y-145973D01*
Y-145978D01*
X156356Y-145995D01*
X156351Y-146022D01*
X156345Y-146060D01*
X156334Y-146115D01*
X156324Y-146186D01*
X156313Y-146268D01*
X156302Y-146366D01*
X156291Y-146481D01*
X156280Y-146612D01*
X156269Y-146765D01*
X156258Y-146928D01*
X156253Y-147119D01*
X156247Y-147327D01*
X156242Y-147556D01*
Y-147676D01*
Y-147807D01*
Y-149495D01*
X154795D01*
Y-144018D01*
X156138D01*
Y-144799D01*
X156143Y-144793D01*
X156154Y-144777D01*
X156171Y-144744D01*
X156198Y-144712D01*
X156225Y-144668D01*
X156263Y-144613D01*
X156345Y-144499D01*
X156438Y-144378D01*
X156542Y-144258D01*
X156597Y-144204D01*
X156651Y-144155D01*
X156706Y-144111D01*
X156755Y-144073D01*
X156760D01*
X156766Y-144067D01*
X156782Y-144056D01*
X156804Y-144045D01*
X156864Y-144018D01*
X156940Y-143985D01*
X157033Y-143953D01*
X157137Y-143925D01*
X157257Y-143904D01*
X157383Y-143898D01*
X157432D01*
X157470Y-143904D01*
D02*
G37*
G36*
X44868Y-143904D02*
X44912Y-143909D01*
X44961Y-143914D01*
X45021Y-143920D01*
X45087Y-143931D01*
X45234Y-143964D01*
X45398Y-144013D01*
X45480Y-144045D01*
X45567Y-144084D01*
X45655Y-144127D01*
X45742Y-144176D01*
X45289Y-145438D01*
X45283Y-145432D01*
X45273Y-145427D01*
X45251Y-145416D01*
X45229Y-145399D01*
X45196Y-145383D01*
X45158Y-145361D01*
X45065Y-145318D01*
X44961Y-145274D01*
X44847Y-145236D01*
X44727Y-145208D01*
X44666Y-145197D01*
X44557D01*
X44497Y-145208D01*
X44426Y-145219D01*
X44344Y-145241D01*
X44257Y-145268D01*
X44170Y-145312D01*
X44088Y-145367D01*
X44077Y-145372D01*
X44055Y-145399D01*
X44017Y-145443D01*
X43968Y-145503D01*
X43918Y-145591D01*
X43891Y-145640D01*
X43864Y-145694D01*
X43837Y-145754D01*
X43809Y-145820D01*
X43782Y-145896D01*
X43760Y-145973D01*
Y-145978D01*
X43755Y-145995D01*
X43749Y-146022D01*
X43744Y-146060D01*
X43733Y-146115D01*
X43722Y-146186D01*
X43711Y-146268D01*
X43700Y-146366D01*
X43689Y-146481D01*
X43678Y-146612D01*
X43667Y-146765D01*
X43656Y-146928D01*
X43651Y-147119D01*
X43646Y-147327D01*
X43640Y-147556D01*
Y-147676D01*
Y-147807D01*
Y-149495D01*
X42193D01*
Y-144018D01*
X43536D01*
Y-144799D01*
X43542Y-144793D01*
X43553Y-144777D01*
X43569Y-144744D01*
X43596Y-144712D01*
X43624Y-144668D01*
X43662Y-144613D01*
X43744Y-144499D01*
X43837Y-144378D01*
X43940Y-144258D01*
X43995Y-144204D01*
X44050Y-144155D01*
X44104Y-144111D01*
X44153Y-144073D01*
X44159D01*
X44164Y-144067D01*
X44181Y-144056D01*
X44202Y-144045D01*
X44262Y-144018D01*
X44339Y-143985D01*
X44432Y-143953D01*
X44535Y-143925D01*
X44656Y-143904D01*
X44781Y-143898D01*
X44830D01*
X44868Y-143904D01*
D02*
G37*
G36*
X175122Y-143904D02*
X175171Y-143909D01*
X175226Y-143914D01*
X175286Y-143920D01*
X175423Y-143942D01*
X175570Y-143969D01*
X175717Y-144013D01*
X175870Y-144073D01*
X175876D01*
X175887Y-144078D01*
X175909Y-144089D01*
X175936Y-144106D01*
X175969Y-144122D01*
X176007Y-144144D01*
X176094Y-144193D01*
X176192Y-144258D01*
X176291Y-144335D01*
X176389Y-144417D01*
X176471Y-144515D01*
Y-144520D01*
X176482Y-144526D01*
X176493Y-144542D01*
X176504Y-144564D01*
X176542Y-144619D01*
X176586Y-144690D01*
X176635Y-144782D01*
X176678Y-144881D01*
X176722Y-144995D01*
X176760Y-145121D01*
Y-145126D01*
X176766Y-145137D01*
Y-145154D01*
X176771Y-145181D01*
X176782Y-145219D01*
X176788Y-145263D01*
X176793Y-145312D01*
X176804Y-145372D01*
X176809Y-145438D01*
X176815Y-145509D01*
X176826Y-145591D01*
X176831Y-145678D01*
X176837Y-145771D01*
Y-145875D01*
X176842Y-145984D01*
Y-146098D01*
Y-149495D01*
X175395D01*
Y-146704D01*
Y-146694D01*
Y-146666D01*
Y-146623D01*
Y-146563D01*
X175390Y-146492D01*
Y-146410D01*
Y-146322D01*
X175384Y-146229D01*
X175373Y-146038D01*
X175363Y-145940D01*
X175352Y-145847D01*
X175341Y-145760D01*
X175330Y-145683D01*
X175313Y-145613D01*
X175297Y-145558D01*
Y-145552D01*
X175292Y-145547D01*
X175281Y-145514D01*
X175259Y-145465D01*
X175226Y-145410D01*
X175182Y-145345D01*
X175133Y-145274D01*
X175068Y-145214D01*
X174997Y-145154D01*
X174986Y-145148D01*
X174959Y-145132D01*
X174915Y-145105D01*
X174855Y-145077D01*
X174784Y-145055D01*
X174696Y-145028D01*
X174598Y-145012D01*
X174494Y-145006D01*
X174456D01*
X174429Y-145012D01*
X174396D01*
X174358Y-145017D01*
X174265Y-145034D01*
X174161Y-145055D01*
X174047Y-145094D01*
X173926Y-145143D01*
X173812Y-145214D01*
X173806D01*
X173801Y-145225D01*
X173785Y-145236D01*
X173763Y-145252D01*
X173714Y-145296D01*
X173648Y-145361D01*
X173583Y-145438D01*
X173512Y-145536D01*
X173451Y-145645D01*
X173402Y-145765D01*
Y-145771D01*
X173397Y-145782D01*
X173391Y-145804D01*
X173386Y-145831D01*
X173375Y-145869D01*
X173370Y-145918D01*
X173359Y-145978D01*
X173348Y-146049D01*
X173337Y-146131D01*
X173326Y-146219D01*
X173320Y-146322D01*
X173310Y-146437D01*
X173304Y-146563D01*
X173299Y-146704D01*
X173293Y-146857D01*
Y-147021D01*
Y-149495D01*
X171846D01*
Y-144018D01*
X173189D01*
Y-144826D01*
X173200Y-144815D01*
X173222Y-144788D01*
X173260Y-144739D01*
X173320Y-144679D01*
X173391Y-144613D01*
X173473Y-144531D01*
X173572Y-144449D01*
X173686Y-144362D01*
X173806Y-144275D01*
X173943Y-144193D01*
X174096Y-144111D01*
X174254Y-144045D01*
X174423Y-143985D01*
X174604Y-143936D01*
X174795Y-143909D01*
X174997Y-143898D01*
X175079D01*
X175122Y-143904D01*
D02*
G37*
G36*
X168674D02*
X168723Y-143909D01*
X168778Y-143914D01*
X168838Y-143920D01*
X168974Y-143942D01*
X169122Y-143969D01*
X169269Y-144013D01*
X169422Y-144073D01*
X169428D01*
X169438Y-144078D01*
X169460Y-144089D01*
X169488Y-144106D01*
X169520Y-144122D01*
X169559Y-144144D01*
X169646Y-144193D01*
X169744Y-144258D01*
X169843Y-144335D01*
X169941Y-144417D01*
X170023Y-144515D01*
Y-144520D01*
X170034Y-144526D01*
X170045Y-144542D01*
X170055Y-144564D01*
X170094Y-144619D01*
X170137Y-144690D01*
X170186Y-144782D01*
X170230Y-144881D01*
X170274Y-144995D01*
X170312Y-145121D01*
Y-145126D01*
X170317Y-145137D01*
Y-145154D01*
X170323Y-145181D01*
X170334Y-145219D01*
X170339Y-145263D01*
X170345Y-145312D01*
X170356Y-145372D01*
X170361Y-145438D01*
X170367Y-145509D01*
X170378Y-145591D01*
X170383Y-145678D01*
X170388Y-145771D01*
Y-145875D01*
X170394Y-145984D01*
Y-146098D01*
Y-149495D01*
X168947D01*
Y-146704D01*
Y-146694D01*
Y-146666D01*
Y-146623D01*
Y-146563D01*
X168942Y-146492D01*
Y-146410D01*
Y-146322D01*
X168936Y-146229D01*
X168925Y-146038D01*
X168914Y-145940D01*
X168903Y-145847D01*
X168892Y-145760D01*
X168881Y-145683D01*
X168865Y-145613D01*
X168849Y-145558D01*
Y-145552D01*
X168843Y-145547D01*
X168832Y-145514D01*
X168810Y-145465D01*
X168778Y-145410D01*
X168734Y-145345D01*
X168685Y-145274D01*
X168619Y-145214D01*
X168549Y-145154D01*
X168537Y-145148D01*
X168510Y-145132D01*
X168467Y-145105D01*
X168406Y-145077D01*
X168335Y-145055D01*
X168248Y-145028D01*
X168150Y-145012D01*
X168046Y-145006D01*
X168008D01*
X167981Y-145012D01*
X167948D01*
X167910Y-145017D01*
X167817Y-145034D01*
X167713Y-145055D01*
X167598Y-145094D01*
X167478Y-145143D01*
X167364Y-145214D01*
X167358D01*
X167353Y-145225D01*
X167336Y-145236D01*
X167315Y-145252D01*
X167265Y-145296D01*
X167200Y-145361D01*
X167134Y-145438D01*
X167063Y-145536D01*
X167003Y-145645D01*
X166954Y-145765D01*
Y-145771D01*
X166949Y-145782D01*
X166943Y-145804D01*
X166938Y-145831D01*
X166927Y-145869D01*
X166921Y-145918D01*
X166910Y-145978D01*
X166900Y-146049D01*
X166889Y-146131D01*
X166878Y-146219D01*
X166872Y-146322D01*
X166861Y-146437D01*
X166856Y-146563D01*
X166850Y-146704D01*
X166845Y-146857D01*
Y-147021D01*
Y-149495D01*
X165398D01*
Y-144018D01*
X166741D01*
Y-144826D01*
X166752Y-144815D01*
X166774Y-144788D01*
X166812Y-144739D01*
X166872Y-144679D01*
X166943Y-144613D01*
X167025Y-144531D01*
X167123Y-144449D01*
X167238Y-144362D01*
X167358Y-144275D01*
X167495Y-144193D01*
X167648Y-144111D01*
X167806Y-144045D01*
X167975Y-143985D01*
X168155Y-143936D01*
X168346Y-143909D01*
X168549Y-143898D01*
X168630D01*
X168674Y-143904D01*
D02*
G37*
G36*
X142291D02*
X142341Y-143909D01*
X142395Y-143914D01*
X142455Y-143920D01*
X142592Y-143942D01*
X142739Y-143969D01*
X142886Y-144013D01*
X143039Y-144073D01*
X143045D01*
X143056Y-144078D01*
X143078Y-144089D01*
X143105Y-144106D01*
X143138Y-144122D01*
X143176Y-144144D01*
X143263Y-144193D01*
X143361Y-144258D01*
X143460Y-144335D01*
X143558Y-144417D01*
X143640Y-144515D01*
Y-144520D01*
X143651Y-144526D01*
X143662Y-144542D01*
X143673Y-144564D01*
X143711Y-144619D01*
X143755Y-144690D01*
X143804Y-144782D01*
X143847Y-144881D01*
X143891Y-144995D01*
X143929Y-145121D01*
Y-145126D01*
X143935Y-145137D01*
Y-145154D01*
X143940Y-145181D01*
X143951Y-145219D01*
X143957Y-145263D01*
X143962Y-145312D01*
X143973Y-145372D01*
X143978Y-145438D01*
X143984Y-145509D01*
X143995Y-145591D01*
X144000Y-145678D01*
X144006Y-145771D01*
Y-145875D01*
X144011Y-145984D01*
Y-146098D01*
Y-149495D01*
X142564D01*
Y-146704D01*
Y-146694D01*
Y-146666D01*
Y-146623D01*
Y-146563D01*
X142559Y-146492D01*
Y-146410D01*
Y-146322D01*
X142553Y-146229D01*
X142543Y-146038D01*
X142532Y-145940D01*
X142521Y-145847D01*
X142510Y-145760D01*
X142499Y-145683D01*
X142482Y-145613D01*
X142466Y-145558D01*
Y-145552D01*
X142461Y-145547D01*
X142450Y-145514D01*
X142428Y-145465D01*
X142395Y-145410D01*
X142351Y-145345D01*
X142302Y-145274D01*
X142237Y-145214D01*
X142166Y-145154D01*
X142155Y-145148D01*
X142128Y-145132D01*
X142084Y-145105D01*
X142024Y-145077D01*
X141953Y-145055D01*
X141865Y-145028D01*
X141767Y-145012D01*
X141663Y-145006D01*
X141625D01*
X141598Y-145012D01*
X141565D01*
X141527Y-145017D01*
X141434Y-145034D01*
X141330Y-145055D01*
X141216Y-145094D01*
X141096Y-145143D01*
X140981Y-145214D01*
X140975D01*
X140970Y-145225D01*
X140954Y-145236D01*
X140932Y-145252D01*
X140883Y-145296D01*
X140817Y-145361D01*
X140752Y-145438D01*
X140681Y-145536D01*
X140621Y-145645D01*
X140571Y-145765D01*
Y-145771D01*
X140566Y-145782D01*
X140560Y-145804D01*
X140555Y-145831D01*
X140544Y-145869D01*
X140539Y-145918D01*
X140528Y-145978D01*
X140517Y-146049D01*
X140506Y-146131D01*
X140495Y-146219D01*
X140489Y-146322D01*
X140479Y-146437D01*
X140473Y-146563D01*
X140468Y-146704D01*
X140462Y-146857D01*
Y-147021D01*
Y-149495D01*
X139015D01*
Y-144018D01*
X140358D01*
Y-144826D01*
X140369Y-144815D01*
X140391Y-144788D01*
X140429Y-144739D01*
X140489Y-144679D01*
X140560Y-144613D01*
X140642Y-144531D01*
X140741Y-144449D01*
X140855Y-144362D01*
X140975Y-144275D01*
X141112Y-144193D01*
X141265Y-144111D01*
X141423Y-144045D01*
X141592Y-143985D01*
X141773Y-143936D01*
X141964Y-143909D01*
X142166Y-143898D01*
X142248D01*
X142291Y-143904D01*
D02*
G37*
G36*
X89357Y-143904D02*
X89422Y-143909D01*
X89504Y-143920D01*
X89602Y-143936D01*
X89706Y-143958D01*
X89826Y-143991D01*
X89952Y-144029D01*
X90077Y-144078D01*
X90214Y-144138D01*
X90350Y-144215D01*
X90487Y-144297D01*
X90623Y-144400D01*
X90760Y-144515D01*
X90885Y-144646D01*
X90891Y-144657D01*
X90913Y-144679D01*
X90946Y-144722D01*
X90989Y-144782D01*
X91038Y-144859D01*
X91098Y-144952D01*
X91158Y-145061D01*
X91219Y-145187D01*
X91278Y-145328D01*
X91339Y-145481D01*
X91399Y-145656D01*
X91448Y-145842D01*
X91492Y-146044D01*
X91524Y-146257D01*
X91546Y-146486D01*
X91552Y-146732D01*
Y-146737D01*
Y-146748D01*
Y-146765D01*
Y-146792D01*
Y-146825D01*
X91546Y-146863D01*
Y-146906D01*
X91541Y-146956D01*
X91530Y-147070D01*
X91519Y-147207D01*
X91497Y-147354D01*
X91470Y-147513D01*
X91431Y-147682D01*
X91388Y-147851D01*
X91333Y-148031D01*
X91268Y-148206D01*
X91191Y-148381D01*
X91104Y-148550D01*
X91000Y-148714D01*
X90880Y-148861D01*
X90874Y-148872D01*
X90847Y-148894D01*
X90814Y-148932D01*
X90760Y-148981D01*
X90694Y-149036D01*
X90618Y-149101D01*
X90525Y-149172D01*
X90427Y-149238D01*
X90312Y-149309D01*
X90187Y-149380D01*
X90056Y-149445D01*
X89908Y-149500D01*
X89761Y-149549D01*
X89597Y-149587D01*
X89428Y-149609D01*
X89253Y-149620D01*
X89209D01*
X89176Y-149615D01*
X89133D01*
X89089Y-149609D01*
X89034Y-149604D01*
X88980Y-149598D01*
X88849Y-149576D01*
X88707Y-149544D01*
X88565Y-149500D01*
X88423Y-149440D01*
X88418D01*
X88407Y-149429D01*
X88385Y-149418D01*
X88357Y-149407D01*
X88325Y-149385D01*
X88287Y-149358D01*
X88243Y-149331D01*
X88188Y-149293D01*
X88073Y-149211D01*
X88013Y-149162D01*
X87942Y-149101D01*
X87877Y-149041D01*
X87801Y-148976D01*
X87730Y-148899D01*
X87653Y-148823D01*
Y-151575D01*
X86206D01*
Y-144018D01*
X87555D01*
Y-144826D01*
X87560Y-144821D01*
X87566Y-144810D01*
X87582Y-144788D01*
X87604Y-144755D01*
X87631Y-144722D01*
X87664Y-144679D01*
X87697Y-144635D01*
X87740Y-144586D01*
X87844Y-144482D01*
X87964Y-144368D01*
X88106Y-144258D01*
X88265Y-144155D01*
X88270Y-144149D01*
X88287Y-144144D01*
X88308Y-144133D01*
X88341Y-144116D01*
X88385Y-144095D01*
X88434Y-144073D01*
X88494Y-144051D01*
X88560Y-144024D01*
X88630Y-144002D01*
X88707Y-143980D01*
X88876Y-143936D01*
X89062Y-143909D01*
X89160Y-143898D01*
X89307D01*
X89357Y-143904D01*
D02*
G37*
G36*
X82908D02*
X82974Y-143909D01*
X83056Y-143920D01*
X83154Y-143936D01*
X83258Y-143958D01*
X83378Y-143991D01*
X83504Y-144029D01*
X83629Y-144078D01*
X83766Y-144138D01*
X83902Y-144215D01*
X84039Y-144297D01*
X84175Y-144400D01*
X84312Y-144515D01*
X84437Y-144646D01*
X84443Y-144657D01*
X84464Y-144679D01*
X84497Y-144722D01*
X84541Y-144782D01*
X84590Y-144859D01*
X84650Y-144952D01*
X84710Y-145061D01*
X84770Y-145187D01*
X84830Y-145328D01*
X84890Y-145481D01*
X84950Y-145656D01*
X85000Y-145842D01*
X85043Y-146044D01*
X85076Y-146257D01*
X85098Y-146486D01*
X85103Y-146732D01*
Y-146737D01*
Y-146748D01*
Y-146765D01*
Y-146792D01*
Y-146825D01*
X85098Y-146863D01*
Y-146906D01*
X85092Y-146956D01*
X85081Y-147070D01*
X85071Y-147207D01*
X85049Y-147354D01*
X85021Y-147513D01*
X84983Y-147682D01*
X84939Y-147851D01*
X84885Y-148031D01*
X84819Y-148206D01*
X84743Y-148381D01*
X84656Y-148550D01*
X84552Y-148714D01*
X84432Y-148861D01*
X84426Y-148872D01*
X84399Y-148894D01*
X84366Y-148932D01*
X84312Y-148981D01*
X84246Y-149036D01*
X84170Y-149101D01*
X84077Y-149172D01*
X83978Y-149238D01*
X83864Y-149309D01*
X83738Y-149380D01*
X83607Y-149445D01*
X83460Y-149500D01*
X83312Y-149549D01*
X83149Y-149587D01*
X82979Y-149609D01*
X82805Y-149620D01*
X82761D01*
X82728Y-149615D01*
X82684D01*
X82641Y-149609D01*
X82586Y-149604D01*
X82532Y-149598D01*
X82401Y-149576D01*
X82259Y-149544D01*
X82117Y-149500D01*
X81975Y-149440D01*
X81969D01*
X81958Y-149429D01*
X81937Y-149418D01*
X81909Y-149407D01*
X81876Y-149385D01*
X81838Y-149358D01*
X81795Y-149331D01*
X81740Y-149293D01*
X81625Y-149211D01*
X81565Y-149162D01*
X81494Y-149101D01*
X81429Y-149041D01*
X81352Y-148976D01*
X81281Y-148899D01*
X81205Y-148823D01*
Y-151575D01*
X79758D01*
Y-144018D01*
X81107D01*
Y-144826D01*
X81112Y-144821D01*
X81117Y-144810D01*
X81134Y-144788D01*
X81156Y-144755D01*
X81183Y-144722D01*
X81216Y-144679D01*
X81248Y-144635D01*
X81292Y-144586D01*
X81396Y-144482D01*
X81516Y-144368D01*
X81658Y-144258D01*
X81816Y-144155D01*
X81822Y-144149D01*
X81838Y-144144D01*
X81860Y-144133D01*
X81893Y-144116D01*
X81937Y-144095D01*
X81986Y-144073D01*
X82046Y-144051D01*
X82111Y-144024D01*
X82182Y-144002D01*
X82259Y-143980D01*
X82428Y-143936D01*
X82613Y-143909D01*
X82712Y-143898D01*
X82859D01*
X82908Y-143904D01*
D02*
G37*
G36*
X51470Y-143904D02*
X51562Y-143909D01*
X51666Y-143920D01*
X51786Y-143931D01*
X51917Y-143942D01*
X52048Y-143964D01*
X52185Y-143991D01*
X52327Y-144018D01*
X52463Y-144056D01*
X52600Y-144095D01*
X52725Y-144149D01*
X52846Y-144204D01*
X52955Y-144269D01*
X52960Y-144275D01*
X52977Y-144286D01*
X53009Y-144307D01*
X53042Y-144335D01*
X53086Y-144378D01*
X53140Y-144422D01*
X53195Y-144477D01*
X53255Y-144542D01*
X53315Y-144613D01*
X53381Y-144695D01*
X53441Y-144783D01*
X53501Y-144881D01*
X53561Y-144985D01*
X53615Y-145099D01*
X53665Y-145219D01*
X53708Y-145350D01*
X52343Y-145602D01*
Y-145596D01*
X52338Y-145585D01*
X52332Y-145569D01*
X52327Y-145547D01*
X52300Y-145492D01*
X52267Y-145421D01*
X52218Y-145345D01*
X52163Y-145263D01*
X52092Y-145187D01*
X52005Y-145116D01*
X51994Y-145110D01*
X51977Y-145099D01*
X51961Y-145088D01*
X51934Y-145077D01*
X51907Y-145061D01*
X51830Y-145028D01*
X51732Y-144995D01*
X51612Y-144968D01*
X51470Y-144946D01*
X51311Y-144941D01*
X51218D01*
X51169Y-144946D01*
X51115Y-144952D01*
X51060D01*
X50995Y-144963D01*
X50858Y-144979D01*
X50722Y-145012D01*
X50596Y-145050D01*
X50542Y-145077D01*
X50492Y-145105D01*
X50487Y-145110D01*
X50465Y-145126D01*
X50443Y-145148D01*
X50410Y-145181D01*
X50383Y-145225D01*
X50356Y-145274D01*
X50334Y-145334D01*
X50328Y-145399D01*
Y-145405D01*
Y-145427D01*
X50334Y-145454D01*
X50345Y-145487D01*
X50361Y-145531D01*
X50389Y-145574D01*
X50421Y-145618D01*
X50471Y-145662D01*
X50481Y-145667D01*
X50498Y-145678D01*
X50520Y-145689D01*
X50552Y-145700D01*
X50596Y-145722D01*
X50645Y-145744D01*
X50711Y-145765D01*
X50793Y-145793D01*
X50885Y-145820D01*
X50995Y-145858D01*
X51120Y-145891D01*
X51268Y-145929D01*
X51431Y-145973D01*
X51612Y-146017D01*
X51715Y-146044D01*
X51819Y-146066D01*
X51825D01*
X51830Y-146071D01*
X51846D01*
X51868Y-146077D01*
X51928Y-146093D01*
X52005Y-146115D01*
X52103Y-146137D01*
X52212Y-146169D01*
X52327Y-146202D01*
X52458Y-146246D01*
X52720Y-146339D01*
X52856Y-146393D01*
X52987Y-146448D01*
X53119Y-146508D01*
X53233Y-146573D01*
X53342Y-146639D01*
X53435Y-146710D01*
X53441Y-146715D01*
X53457Y-146726D01*
X53479Y-146748D01*
X53506Y-146781D01*
X53544Y-146819D01*
X53583Y-146868D01*
X53621Y-146923D01*
X53665Y-146988D01*
X53708Y-147065D01*
X53746Y-147141D01*
X53790Y-147229D01*
X53823Y-147327D01*
X53850Y-147431D01*
X53872Y-147540D01*
X53888Y-147660D01*
X53894Y-147786D01*
Y-147796D01*
Y-147818D01*
X53888Y-147856D01*
X53883Y-147911D01*
X53872Y-147977D01*
X53861Y-148053D01*
X53839Y-148135D01*
X53817Y-148228D01*
X53779Y-148326D01*
X53741Y-148430D01*
X53686Y-148539D01*
X53626Y-148648D01*
X53555Y-148757D01*
X53468Y-148867D01*
X53370Y-148976D01*
X53261Y-149080D01*
X53255Y-149085D01*
X53233Y-149101D01*
X53195Y-149129D01*
X53146Y-149162D01*
X53075Y-149205D01*
X52999Y-149249D01*
X52900Y-149298D01*
X52791Y-149347D01*
X52671Y-149402D01*
X52529Y-149451D01*
X52381Y-149495D01*
X52212Y-149533D01*
X52032Y-149571D01*
X51836Y-149598D01*
X51628Y-149615D01*
X51404Y-149620D01*
X51355D01*
X51295Y-149615D01*
X51218D01*
X51126Y-149604D01*
X51016Y-149598D01*
X50896Y-149582D01*
X50765Y-149565D01*
X50623Y-149538D01*
X50481Y-149511D01*
X50334Y-149473D01*
X50181Y-149429D01*
X50039Y-149374D01*
X49892Y-149314D01*
X49755Y-149249D01*
X49630Y-149167D01*
X49624Y-149162D01*
X49602Y-149145D01*
X49570Y-149118D01*
X49526Y-149085D01*
X49471Y-149036D01*
X49411Y-148981D01*
X49351Y-148916D01*
X49280Y-148845D01*
X49209Y-148757D01*
X49138Y-148665D01*
X49067Y-148566D01*
X48996Y-148457D01*
X48936Y-148337D01*
X48876Y-148211D01*
X48827Y-148075D01*
X48783Y-147933D01*
X50236Y-147709D01*
Y-147715D01*
X50241Y-147725D01*
X50247Y-147747D01*
X50252Y-147780D01*
X50263Y-147813D01*
X50279Y-147856D01*
X50318Y-147949D01*
X50367Y-148053D01*
X50427Y-148162D01*
X50509Y-148261D01*
X50607Y-148353D01*
X50612D01*
X50618Y-148364D01*
X50634Y-148375D01*
X50662Y-148386D01*
X50689Y-148403D01*
X50722Y-148424D01*
X50765Y-148441D01*
X50814Y-148463D01*
X50869Y-148484D01*
X50929Y-148501D01*
X50995Y-148523D01*
X51066Y-148539D01*
X51142Y-148550D01*
X51224Y-148561D01*
X51311Y-148572D01*
X51459D01*
X51497Y-148566D01*
X51546D01*
X51595Y-148561D01*
X51655Y-148555D01*
X51721Y-148545D01*
X51857Y-148523D01*
X51999Y-148484D01*
X52130Y-148435D01*
X52196Y-148403D01*
X52250Y-148370D01*
X52261Y-148364D01*
X52283Y-148343D01*
X52311Y-148310D01*
X52349Y-148266D01*
X52381Y-148211D01*
X52414Y-148146D01*
X52436Y-148070D01*
X52442Y-147982D01*
Y-147977D01*
Y-147955D01*
X52436Y-147922D01*
X52431Y-147884D01*
X52414Y-147846D01*
X52398Y-147796D01*
X52371Y-147753D01*
X52338Y-147709D01*
X52332Y-147704D01*
X52316Y-147693D01*
X52283Y-147671D01*
X52234Y-147644D01*
X52174Y-147616D01*
X52087Y-147583D01*
X52038Y-147567D01*
X51983Y-147551D01*
X51917Y-147534D01*
X51852Y-147518D01*
X51846D01*
X51830Y-147513D01*
X51808Y-147507D01*
X51775Y-147502D01*
X51737Y-147491D01*
X51688Y-147480D01*
X51634Y-147469D01*
X51573Y-147452D01*
X51502Y-147436D01*
X51431Y-147420D01*
X51273Y-147376D01*
X51098Y-147332D01*
X50918Y-147283D01*
X50727Y-147234D01*
X50542Y-147174D01*
X50356Y-147119D01*
X50176Y-147059D01*
X50012Y-146994D01*
X49859Y-146934D01*
X49793Y-146906D01*
X49733Y-146874D01*
X49679Y-146841D01*
X49630Y-146814D01*
X49624Y-146808D01*
X49602Y-146792D01*
X49570Y-146770D01*
X49531Y-146732D01*
X49482Y-146688D01*
X49428Y-146634D01*
X49368Y-146568D01*
X49308Y-146492D01*
X49247Y-146410D01*
X49187Y-146317D01*
X49133Y-146219D01*
X49084Y-146104D01*
X49045Y-145989D01*
X49013Y-145858D01*
X48991Y-145722D01*
X48985Y-145580D01*
Y-145569D01*
Y-145547D01*
X48991Y-145509D01*
X48996Y-145460D01*
X49002Y-145399D01*
X49013Y-145329D01*
X49035Y-145252D01*
X49056Y-145165D01*
X49084Y-145072D01*
X49122Y-144974D01*
X49166Y-144875D01*
X49220Y-144777D01*
X49286Y-144673D01*
X49357Y-144575D01*
X49444Y-144477D01*
X49542Y-144384D01*
X49548Y-144378D01*
X49570Y-144362D01*
X49602Y-144340D01*
X49652Y-144307D01*
X49711Y-144269D01*
X49782Y-144231D01*
X49870Y-144187D01*
X49974Y-144138D01*
X50088Y-144095D01*
X50214Y-144051D01*
X50356Y-144013D01*
X50514Y-143974D01*
X50683Y-143942D01*
X50869Y-143920D01*
X51071Y-143904D01*
X51284Y-143898D01*
X51393D01*
X51470Y-143904D01*
D02*
G37*
G36*
X163913Y-149495D02*
X162570D01*
Y-148676D01*
X162564Y-148681D01*
X162553Y-148697D01*
X162537Y-148719D01*
X162515Y-148747D01*
X162488Y-148785D01*
X162450Y-148828D01*
X162406Y-148878D01*
X162357Y-148927D01*
X162302Y-148981D01*
X162242Y-149041D01*
X162111Y-149156D01*
X161953Y-149265D01*
X161778Y-149369D01*
X161773D01*
X161756Y-149380D01*
X161729Y-149391D01*
X161696Y-149407D01*
X161647Y-149429D01*
X161598Y-149451D01*
X161538Y-149473D01*
X161467Y-149495D01*
X161396Y-149516D01*
X161314Y-149538D01*
X161139Y-149582D01*
X160954Y-149609D01*
X160850Y-149615D01*
X160752Y-149620D01*
X160697D01*
X160659Y-149615D01*
X160610D01*
X160555Y-149609D01*
X160489Y-149598D01*
X160418Y-149587D01*
X160266Y-149560D01*
X160102Y-149516D01*
X159927Y-149456D01*
X159840Y-149424D01*
X159758Y-149380D01*
X159752Y-149374D01*
X159741Y-149369D01*
X159714Y-149353D01*
X159687Y-149336D01*
X159649Y-149309D01*
X159610Y-149282D01*
X159518Y-149205D01*
X159414Y-149107D01*
X159305Y-148992D01*
X159206Y-148856D01*
X159163Y-148785D01*
X159125Y-148703D01*
Y-148697D01*
X159119Y-148681D01*
X159108Y-148659D01*
X159097Y-148621D01*
X159081Y-148577D01*
X159064Y-148523D01*
X159048Y-148457D01*
X159032Y-148386D01*
X159010Y-148304D01*
X158993Y-148211D01*
X158977Y-148113D01*
X158966Y-148004D01*
X158950Y-147884D01*
X158944Y-147758D01*
X158933Y-147627D01*
Y-147485D01*
Y-144018D01*
X160380D01*
Y-146535D01*
Y-146541D01*
Y-146546D01*
Y-146563D01*
Y-146584D01*
Y-146644D01*
Y-146721D01*
Y-146808D01*
X160386Y-146912D01*
Y-147027D01*
X160391Y-147141D01*
X160397Y-147387D01*
X160408Y-147507D01*
X160413Y-147616D01*
X160424Y-147720D01*
X160429Y-147813D01*
X160446Y-147889D01*
X160457Y-147949D01*
Y-147955D01*
X160462Y-147960D01*
X160473Y-147993D01*
X160495Y-148042D01*
X160522Y-148097D01*
X160566Y-148168D01*
X160615Y-148233D01*
X160675Y-148304D01*
X160746Y-148364D01*
X160757Y-148370D01*
X160784Y-148386D01*
X160834Y-148413D01*
X160893Y-148435D01*
X160970Y-148463D01*
X161063Y-148490D01*
X161172Y-148506D01*
X161287Y-148512D01*
X161325D01*
X161352Y-148506D01*
X161380D01*
X161418Y-148501D01*
X161511Y-148484D01*
X161614Y-148463D01*
X161723Y-148424D01*
X161838Y-148375D01*
X161953Y-148310D01*
X161958D01*
X161964Y-148299D01*
X161980Y-148288D01*
X162002Y-148272D01*
X162051Y-148228D01*
X162117Y-148173D01*
X162182Y-148097D01*
X162248Y-148015D01*
X162308Y-147917D01*
X162357Y-147807D01*
Y-147802D01*
X162362Y-147791D01*
X162368Y-147769D01*
X162373Y-147742D01*
X162384Y-147704D01*
X162390Y-147649D01*
X162400Y-147589D01*
X162411Y-147507D01*
X162422Y-147420D01*
X162433Y-147316D01*
X162439Y-147196D01*
X162450Y-147054D01*
X162455Y-146901D01*
X162460Y-146732D01*
X162466Y-146541D01*
Y-146328D01*
Y-144018D01*
X163913D01*
Y-149495D01*
D02*
G37*
G36*
X179758Y-149495D02*
X178311Y-149495D01*
Y-144018D01*
X179758Y-144018D01*
Y-149495D01*
D02*
G37*
G36*
X124645Y-149495D02*
X123198D01*
Y-141938D01*
X124645D01*
Y-149495D01*
D02*
G37*
G36*
X119627Y-143904D02*
X119709D01*
X119802Y-143909D01*
X119905Y-143914D01*
X120015Y-143925D01*
X120129Y-143936D01*
X120249Y-143953D01*
X120490Y-143996D01*
X120604Y-144018D01*
X120719Y-144051D01*
X120823Y-144089D01*
X120915Y-144127D01*
X120921D01*
X120937Y-144138D01*
X120959Y-144149D01*
X120992Y-144171D01*
X121030Y-144193D01*
X121074Y-144220D01*
X121177Y-144286D01*
X121287Y-144373D01*
X121396Y-144471D01*
X121500Y-144586D01*
X121543Y-144646D01*
X121581Y-144712D01*
Y-144717D01*
X121592Y-144728D01*
X121598Y-144750D01*
X121614Y-144782D01*
X121625Y-144821D01*
X121642Y-144875D01*
X121663Y-144935D01*
X121680Y-145006D01*
X121696Y-145088D01*
X121718Y-145187D01*
X121734Y-145290D01*
X121745Y-145410D01*
X121762Y-145542D01*
X121767Y-145683D01*
X121778Y-145842D01*
Y-146011D01*
X121756Y-147698D01*
Y-147704D01*
Y-147731D01*
Y-147769D01*
Y-147818D01*
Y-147878D01*
X121762Y-147944D01*
Y-148020D01*
X121767Y-148102D01*
X121773Y-148277D01*
X121783Y-148452D01*
X121789Y-148539D01*
X121800Y-148621D01*
X121811Y-148692D01*
X121822Y-148763D01*
Y-148768D01*
X121827Y-148779D01*
Y-148796D01*
X121838Y-148823D01*
X121844Y-148856D01*
X121854Y-148894D01*
X121882Y-148981D01*
X121915Y-149091D01*
X121964Y-149216D01*
X122018Y-149353D01*
X122084Y-149495D01*
X120653Y-149495D01*
Y-149489D01*
X120642Y-149467D01*
X120632Y-149434D01*
X120615Y-149385D01*
X120593Y-149325D01*
X120566Y-149254D01*
X120539Y-149167D01*
X120511Y-149069D01*
Y-149063D01*
X120506Y-149047D01*
X120501Y-149025D01*
X120490Y-148998D01*
X120473Y-148943D01*
X120468Y-148921D01*
X120462Y-148899D01*
X120457Y-148905D01*
X120446Y-148916D01*
X120424Y-148932D01*
X120397Y-148959D01*
X120364Y-148987D01*
X120320Y-149025D01*
X120277Y-149063D01*
X120222Y-149101D01*
X120107Y-149189D01*
X119971Y-149282D01*
X119823Y-149364D01*
X119665Y-149440D01*
X119660D01*
X119649Y-149445D01*
X119621Y-149456D01*
X119594Y-149467D01*
X119550Y-149484D01*
X119507Y-149495D01*
X119452Y-149511D01*
X119397Y-149527D01*
X119332Y-149549D01*
X119261Y-149565D01*
X119108Y-149593D01*
X118939Y-149615D01*
X118764Y-149620D01*
X118726D01*
X118682Y-149615D01*
X118622D01*
X118551Y-149604D01*
X118469Y-149598D01*
X118382Y-149582D01*
X118278Y-149560D01*
X118175Y-149538D01*
X118065Y-149505D01*
X117956Y-149473D01*
X117847Y-149429D01*
X117738Y-149374D01*
X117629Y-149314D01*
X117525Y-149243D01*
X117432Y-149162D01*
X117427Y-149156D01*
X117410Y-149140D01*
X117388Y-149112D01*
X117356Y-149080D01*
X117317Y-149036D01*
X117279Y-148981D01*
X117235Y-148916D01*
X117192Y-148845D01*
X117143Y-148763D01*
X117099Y-148676D01*
X117061Y-148583D01*
X117022Y-148479D01*
X116990Y-148370D01*
X116968Y-148255D01*
X116951Y-148129D01*
X116946Y-148004D01*
Y-147998D01*
Y-147982D01*
Y-147960D01*
X116951Y-147927D01*
Y-147884D01*
X116957Y-147840D01*
X116962Y-147785D01*
X116973Y-147725D01*
X117001Y-147600D01*
X117039Y-147458D01*
X117093Y-147316D01*
X117164Y-147179D01*
X117170Y-147174D01*
X117175Y-147163D01*
X117186Y-147147D01*
X117208Y-147119D01*
X117257Y-147054D01*
X117328Y-146972D01*
X117416Y-146885D01*
X117519Y-146792D01*
X117645Y-146699D01*
X117787Y-146623D01*
X117792D01*
X117803Y-146612D01*
X117831Y-146601D01*
X117863Y-146590D01*
X117902Y-146573D01*
X117951Y-146552D01*
X118011Y-146530D01*
X118082Y-146508D01*
X118158Y-146481D01*
X118245Y-146453D01*
X118338Y-146426D01*
X118442Y-146399D01*
X118551Y-146366D01*
X118671Y-146339D01*
X118802Y-146311D01*
X118939Y-146284D01*
X118950D01*
X118983Y-146273D01*
X119037Y-146268D01*
X119103Y-146251D01*
X119185Y-146235D01*
X119283Y-146213D01*
X119387Y-146191D01*
X119496Y-146169D01*
X119731Y-146109D01*
X119960Y-146049D01*
X120069Y-146022D01*
X120173Y-145989D01*
X120266Y-145956D01*
X120348Y-145924D01*
Y-145782D01*
Y-145776D01*
Y-145765D01*
Y-145744D01*
X120342Y-145716D01*
Y-145678D01*
X120337Y-145640D01*
X120320Y-145552D01*
X120298Y-145454D01*
X120260Y-145356D01*
X120211Y-145263D01*
X120178Y-145225D01*
X120140Y-145187D01*
X120129Y-145181D01*
X120118Y-145170D01*
X120096Y-145159D01*
X120075Y-145143D01*
X120042Y-145132D01*
X120009Y-145116D01*
X119965Y-145094D01*
X119916Y-145077D01*
X119856Y-145061D01*
X119796Y-145050D01*
X119725Y-145034D01*
X119643Y-145023D01*
X119556Y-145012D01*
X119463Y-145006D01*
X119294D01*
X119261Y-145012D01*
X119223D01*
X119141Y-145023D01*
X119043Y-145045D01*
X118939Y-145072D01*
X118841Y-145110D01*
X118753Y-145159D01*
X118742Y-145165D01*
X118720Y-145187D01*
X118677Y-145230D01*
X118633Y-145285D01*
X118579Y-145356D01*
X118518Y-145449D01*
X118464Y-145563D01*
X118409Y-145694D01*
X117093Y-145460D01*
X117099Y-145449D01*
X117104Y-145427D01*
X117115Y-145383D01*
X117137Y-145328D01*
X117159Y-145263D01*
X117192Y-145187D01*
X117230Y-145105D01*
X117268Y-145017D01*
X117317Y-144919D01*
X117377Y-144826D01*
X117437Y-144728D01*
X117508Y-144630D01*
X117579Y-144537D01*
X117667Y-144444D01*
X117754Y-144362D01*
X117852Y-144286D01*
X117858Y-144280D01*
X117880Y-144269D01*
X117912Y-144247D01*
X117956Y-144226D01*
X118011Y-144198D01*
X118082Y-144166D01*
X118164Y-144127D01*
X118262Y-144089D01*
X118366Y-144056D01*
X118486Y-144018D01*
X118622Y-143985D01*
X118764Y-143958D01*
X118922Y-143936D01*
X119092Y-143914D01*
X119272Y-143904D01*
X119468Y-143898D01*
X119561D01*
X119627Y-143904D01*
D02*
G37*
G36*
X112321Y-144722D02*
X112332Y-144712D01*
X112354Y-144684D01*
X112392Y-144646D01*
X112447Y-144591D01*
X112513Y-144531D01*
X112594Y-144460D01*
X112687Y-144389D01*
X112791Y-144307D01*
X112911Y-144231D01*
X113037Y-144160D01*
X113179Y-144089D01*
X113326Y-144029D01*
X113479Y-143974D01*
X113643Y-143931D01*
X113817Y-143909D01*
X113998Y-143898D01*
X114079D01*
X114123Y-143904D01*
X114178Y-143909D01*
X114232Y-143914D01*
X114298Y-143920D01*
X114434Y-143942D01*
X114587Y-143974D01*
X114740Y-144024D01*
X114893Y-144084D01*
X114899D01*
X114909Y-144095D01*
X114931Y-144100D01*
X114959Y-144116D01*
X114991Y-144133D01*
X115030Y-144160D01*
X115122Y-144215D01*
X115221Y-144280D01*
X115319Y-144362D01*
X115417Y-144455D01*
X115499Y-144559D01*
Y-144564D01*
X115510Y-144570D01*
X115521Y-144586D01*
X115532Y-144608D01*
X115548Y-144635D01*
X115570Y-144668D01*
X115614Y-144750D01*
X115657Y-144843D01*
X115707Y-144952D01*
X115750Y-145072D01*
X115783Y-145203D01*
Y-145208D01*
X115788Y-145219D01*
Y-145241D01*
X115794Y-145268D01*
X115799Y-145307D01*
X115805Y-145350D01*
X115816Y-145405D01*
X115821Y-145470D01*
X115827Y-145542D01*
X115838Y-145618D01*
X115843Y-145711D01*
X115849Y-145804D01*
X115854Y-145913D01*
Y-146027D01*
X115859Y-146153D01*
Y-146284D01*
Y-149495D01*
X114413D01*
Y-146606D01*
Y-146595D01*
Y-146568D01*
Y-146524D01*
Y-146470D01*
Y-146399D01*
X114407Y-146322D01*
Y-146235D01*
X114402Y-146148D01*
X114391Y-145962D01*
X114385Y-145869D01*
X114374Y-145782D01*
X114363Y-145700D01*
X114353Y-145629D01*
X114342Y-145563D01*
X114325Y-145514D01*
X114320Y-145503D01*
X114309Y-145476D01*
X114287Y-145432D01*
X114260Y-145383D01*
X114222Y-145323D01*
X114167Y-145263D01*
X114107Y-145203D01*
X114036Y-145148D01*
X114025Y-145143D01*
X113998Y-145126D01*
X113954Y-145105D01*
X113894Y-145077D01*
X113817Y-145050D01*
X113730Y-145028D01*
X113626Y-145012D01*
X113512Y-145006D01*
X113452D01*
X113419Y-145012D01*
X113381Y-145017D01*
X113299Y-145028D01*
X113195Y-145050D01*
X113086Y-145083D01*
X112977Y-145126D01*
X112867Y-145187D01*
X112862D01*
X112856Y-145192D01*
X112824Y-145219D01*
X112769Y-145263D01*
X112709Y-145318D01*
X112644Y-145394D01*
X112573Y-145481D01*
X112507Y-145591D01*
X112452Y-145716D01*
Y-145722D01*
X112447Y-145733D01*
X112442Y-145754D01*
X112431Y-145782D01*
X112420Y-145820D01*
X112409Y-145864D01*
X112398Y-145918D01*
X112387Y-145978D01*
X112376Y-146044D01*
X112365Y-146120D01*
X112354Y-146208D01*
X112343Y-146300D01*
X112332Y-146404D01*
X112327Y-146513D01*
X112321Y-146628D01*
Y-146754D01*
Y-149495D01*
X110874D01*
Y-141938D01*
X112321D01*
Y-144722D01*
D02*
G37*
G36*
X97929Y-143904D02*
X98011D01*
X98103Y-143909D01*
X98207Y-143914D01*
X98317Y-143925D01*
X98431Y-143936D01*
X98551Y-143953D01*
X98791Y-143996D01*
X98906Y-144018D01*
X99021Y-144051D01*
X99124Y-144089D01*
X99217Y-144127D01*
X99223D01*
X99239Y-144138D01*
X99261Y-144149D01*
X99294Y-144171D01*
X99332Y-144193D01*
X99376Y-144220D01*
X99479Y-144286D01*
X99589Y-144373D01*
X99698Y-144471D01*
X99802Y-144586D01*
X99845Y-144646D01*
X99884Y-144712D01*
Y-144717D01*
X99894Y-144728D01*
X99900Y-144750D01*
X99916Y-144782D01*
X99927Y-144821D01*
X99944Y-144875D01*
X99965Y-144935D01*
X99982Y-145006D01*
X99998Y-145088D01*
X100020Y-145187D01*
X100036Y-145290D01*
X100047Y-145410D01*
X100064Y-145542D01*
X100069Y-145683D01*
X100080Y-145842D01*
Y-146011D01*
X100058Y-147698D01*
Y-147704D01*
Y-147731D01*
Y-147769D01*
Y-147818D01*
Y-147878D01*
X100064Y-147944D01*
Y-148020D01*
X100069Y-148102D01*
X100075Y-148277D01*
X100085Y-148452D01*
X100091Y-148539D01*
X100102Y-148621D01*
X100113Y-148692D01*
X100124Y-148763D01*
Y-148768D01*
X100129Y-148779D01*
Y-148796D01*
X100140Y-148823D01*
X100146Y-148856D01*
X100156Y-148894D01*
X100184Y-148981D01*
X100216Y-149091D01*
X100266Y-149216D01*
X100320Y-149353D01*
X100386Y-149495D01*
X98955D01*
Y-149489D01*
X98944Y-149467D01*
X98934Y-149434D01*
X98917Y-149385D01*
X98895Y-149325D01*
X98868Y-149254D01*
X98841Y-149167D01*
X98813Y-149069D01*
Y-149063D01*
X98808Y-149047D01*
X98802Y-149025D01*
X98791Y-148998D01*
X98775Y-148943D01*
X98770Y-148921D01*
X98764Y-148899D01*
X98759Y-148905D01*
X98748Y-148916D01*
X98726Y-148932D01*
X98699Y-148959D01*
X98666Y-148987D01*
X98622Y-149025D01*
X98579Y-149063D01*
X98524Y-149101D01*
X98409Y-149189D01*
X98273Y-149282D01*
X98125Y-149364D01*
X97967Y-149440D01*
X97962D01*
X97951Y-149445D01*
X97923Y-149456D01*
X97896Y-149467D01*
X97852Y-149484D01*
X97809Y-149495D01*
X97754Y-149511D01*
X97699Y-149527D01*
X97634Y-149549D01*
X97563Y-149565D01*
X97410Y-149593D01*
X97241Y-149615D01*
X97066Y-149620D01*
X97028D01*
X96984Y-149615D01*
X96924D01*
X96853Y-149604D01*
X96771Y-149598D01*
X96684Y-149582D01*
X96580Y-149560D01*
X96476Y-149538D01*
X96367Y-149505D01*
X96258Y-149473D01*
X96149Y-149429D01*
X96040Y-149374D01*
X95930Y-149314D01*
X95827Y-149243D01*
X95734Y-149162D01*
X95728Y-149156D01*
X95712Y-149140D01*
X95690Y-149112D01*
X95657Y-149080D01*
X95619Y-149036D01*
X95581Y-148981D01*
X95537Y-148916D01*
X95494Y-148845D01*
X95445Y-148763D01*
X95401Y-148676D01*
X95363Y-148583D01*
X95324Y-148479D01*
X95292Y-148370D01*
X95270Y-148255D01*
X95253Y-148129D01*
X95248Y-148004D01*
Y-147998D01*
Y-147982D01*
Y-147960D01*
X95253Y-147927D01*
Y-147884D01*
X95259Y-147840D01*
X95264Y-147785D01*
X95275Y-147725D01*
X95302Y-147600D01*
X95341Y-147458D01*
X95395Y-147316D01*
X95466Y-147179D01*
X95472Y-147174D01*
X95477Y-147163D01*
X95488Y-147147D01*
X95510Y-147119D01*
X95559Y-147054D01*
X95630Y-146972D01*
X95718Y-146885D01*
X95821Y-146792D01*
X95947Y-146699D01*
X96089Y-146623D01*
X96094D01*
X96105Y-146612D01*
X96132Y-146601D01*
X96165Y-146590D01*
X96203Y-146573D01*
X96253Y-146552D01*
X96313Y-146530D01*
X96384Y-146508D01*
X96460Y-146481D01*
X96547Y-146453D01*
X96640Y-146426D01*
X96744Y-146399D01*
X96853Y-146366D01*
X96973Y-146339D01*
X97104Y-146311D01*
X97241Y-146284D01*
X97252D01*
X97285Y-146273D01*
X97339Y-146268D01*
X97405Y-146251D01*
X97487Y-146235D01*
X97585Y-146213D01*
X97689Y-146191D01*
X97798Y-146169D01*
X98033Y-146109D01*
X98262Y-146049D01*
X98371Y-146022D01*
X98475Y-145989D01*
X98568Y-145956D01*
X98650Y-145924D01*
Y-145782D01*
Y-145776D01*
Y-145765D01*
Y-145744D01*
X98644Y-145716D01*
Y-145678D01*
X98639Y-145640D01*
X98622Y-145552D01*
X98600Y-145454D01*
X98562Y-145356D01*
X98513Y-145263D01*
X98480Y-145225D01*
X98442Y-145187D01*
X98431Y-145181D01*
X98420Y-145170D01*
X98398Y-145159D01*
X98377Y-145143D01*
X98344Y-145132D01*
X98311Y-145116D01*
X98267Y-145094D01*
X98218Y-145077D01*
X98158Y-145061D01*
X98098Y-145050D01*
X98027Y-145034D01*
X97945Y-145023D01*
X97858Y-145012D01*
X97765Y-145006D01*
X97596D01*
X97563Y-145012D01*
X97525D01*
X97443Y-145023D01*
X97345Y-145045D01*
X97241Y-145072D01*
X97143Y-145110D01*
X97055Y-145159D01*
X97044Y-145165D01*
X97022Y-145187D01*
X96979Y-145230D01*
X96935Y-145285D01*
X96881Y-145356D01*
X96820Y-145449D01*
X96766Y-145563D01*
X96711Y-145694D01*
X95395Y-145460D01*
X95401Y-145449D01*
X95406Y-145427D01*
X95417Y-145383D01*
X95439Y-145328D01*
X95461Y-145263D01*
X95494Y-145187D01*
X95532Y-145105D01*
X95570Y-145017D01*
X95619Y-144919D01*
X95679Y-144826D01*
X95739Y-144728D01*
X95810Y-144630D01*
X95881Y-144537D01*
X95969Y-144444D01*
X96056Y-144362D01*
X96154Y-144286D01*
X96160Y-144280D01*
X96182Y-144269D01*
X96214Y-144247D01*
X96258Y-144226D01*
X96313Y-144198D01*
X96384Y-144166D01*
X96465Y-144127D01*
X96564Y-144089D01*
X96668Y-144056D01*
X96788Y-144018D01*
X96924Y-143985D01*
X97066Y-143958D01*
X97224Y-143936D01*
X97394Y-143914D01*
X97574Y-143904D01*
X97771Y-143898D01*
X97863D01*
X97929Y-143904D01*
D02*
G37*
G36*
X94145Y-149495D02*
X92698D01*
Y-141938D01*
X94145D01*
Y-149495D01*
D02*
G37*
G36*
X68876Y-145951D02*
X70569Y-144018D01*
X72354D01*
X70481Y-146022D01*
X72491Y-149495D01*
X70929D01*
X69548Y-147032D01*
X68876Y-147742D01*
Y-149495D01*
X67429D01*
Y-141938D01*
X68876D01*
Y-145951D01*
D02*
G37*
G36*
X56558Y-145951D02*
X58251Y-144018D01*
X60036D01*
X58164Y-146022D01*
X60173Y-149495D01*
X58611D01*
X57230Y-147032D01*
X56558Y-147742D01*
Y-149495D01*
X55111D01*
Y-141938D01*
X56558D01*
Y-145951D01*
D02*
G37*
G36*
X47811Y-149495D02*
X46365D01*
Y-144018D01*
X47811D01*
Y-149495D01*
D02*
G37*
G36*
X41008Y-143216D02*
X37350D01*
Y-145006D01*
X40506D01*
Y-146284D01*
X37350D01*
Y-149495D01*
X35827D01*
Y-141938D01*
X41008D01*
Y-143216D01*
D02*
G37*
G36*
X182755Y-144018D02*
X183744D01*
Y-145170D01*
X182755D01*
Y-147381D01*
Y-147387D01*
Y-147409D01*
Y-147442D01*
Y-147491D01*
Y-147540D01*
Y-147600D01*
X182761Y-147731D01*
Y-147867D01*
X182766Y-147933D01*
Y-147998D01*
X182772Y-148053D01*
Y-148102D01*
X182777Y-148140D01*
X182783Y-148168D01*
Y-148173D01*
X182788Y-148184D01*
X182799Y-148206D01*
X182810Y-148233D01*
X182826Y-148260D01*
X182848Y-148288D01*
X182876Y-148321D01*
X182908Y-148348D01*
X182914Y-148353D01*
X182925Y-148359D01*
X182947Y-148370D01*
X182979Y-148381D01*
X183012Y-148397D01*
X183056Y-148408D01*
X183105Y-148413D01*
X183154Y-148419D01*
X183192D01*
X183236Y-148413D01*
X183301Y-148403D01*
X183383Y-148386D01*
X183487Y-148359D01*
X183602Y-148326D01*
X183738Y-148282D01*
X183864Y-149407D01*
X183858D01*
X183842Y-149418D01*
X183815Y-149429D01*
X183776Y-149440D01*
X183727Y-149456D01*
X183667Y-149473D01*
X183602Y-149495D01*
X183531Y-149511D01*
X183449Y-149533D01*
X183361Y-149555D01*
X183269Y-149571D01*
X183165Y-149587D01*
X182952Y-149609D01*
X182717Y-149620D01*
X182652D01*
X182619Y-149615D01*
X182581D01*
X182482Y-149604D01*
X182373Y-149587D01*
X182258Y-149565D01*
X182133Y-149533D01*
X182013Y-149489D01*
X182007D01*
X182002Y-149484D01*
X181985Y-149478D01*
X181964Y-149467D01*
X181909Y-149434D01*
X181838Y-149396D01*
X181762Y-149347D01*
X181691Y-149293D01*
X181614Y-149227D01*
X181554Y-149151D01*
X181549Y-149140D01*
X181532Y-149112D01*
X181505Y-149063D01*
X181472Y-149003D01*
X181439Y-148921D01*
X181407Y-148823D01*
X181374Y-148708D01*
X181352Y-148583D01*
Y-148577D01*
Y-148572D01*
X181347Y-148555D01*
Y-148533D01*
X181341Y-148501D01*
Y-148463D01*
X181336Y-148413D01*
X181330Y-148359D01*
X181325Y-148299D01*
Y-148222D01*
X181319Y-148140D01*
X181314Y-148048D01*
Y-147944D01*
X181308Y-147824D01*
Y-147698D01*
Y-147562D01*
Y-145170D01*
X180642D01*
Y-144018D01*
X181308D01*
Y-142932D01*
X182755Y-142080D01*
Y-144018D01*
D02*
G37*
G36*
X149793Y-144662D02*
X149799Y-144651D01*
X149826Y-144630D01*
X149859Y-144591D01*
X149914Y-144542D01*
X149973Y-144482D01*
X150050Y-144422D01*
X150143Y-144351D01*
X150241Y-144280D01*
X150350Y-144209D01*
X150470Y-144138D01*
X150601Y-144073D01*
X150743Y-144018D01*
X150891Y-143969D01*
X151044Y-143931D01*
X151207Y-143909D01*
X151377Y-143898D01*
X151420D01*
X151475Y-143904D01*
X151546Y-143909D01*
X151628Y-143920D01*
X151732Y-143936D01*
X151841Y-143958D01*
X151961Y-143991D01*
X152092Y-144029D01*
X152223Y-144073D01*
X152359Y-144133D01*
X152501Y-144204D01*
X152638Y-144286D01*
X152780Y-144384D01*
X152911Y-144499D01*
X153037Y-144624D01*
X153042Y-144635D01*
X153064Y-144657D01*
X153097Y-144701D01*
X153140Y-144761D01*
X153190Y-144832D01*
X153244Y-144924D01*
X153304Y-145034D01*
X153364Y-145154D01*
X153424Y-145296D01*
X153484Y-145449D01*
X153539Y-145623D01*
X153588Y-145809D01*
X153632Y-146011D01*
X153665Y-146224D01*
X153686Y-146459D01*
X153692Y-146704D01*
Y-146710D01*
Y-146721D01*
Y-146737D01*
Y-146765D01*
Y-146797D01*
X153686Y-146841D01*
Y-146885D01*
X153681Y-146934D01*
X153670Y-147054D01*
X153659Y-147190D01*
X153637Y-147338D01*
X153610Y-147502D01*
X153572Y-147671D01*
X153528Y-147851D01*
X153473Y-148031D01*
X153408Y-148206D01*
X153331Y-148386D01*
X153244Y-148555D01*
X153140Y-148719D01*
X153020Y-148867D01*
X153015Y-148878D01*
X152987Y-148899D01*
X152955Y-148938D01*
X152900Y-148987D01*
X152835Y-149041D01*
X152758Y-149107D01*
X152671Y-149172D01*
X152567Y-149243D01*
X152458Y-149314D01*
X152332Y-149380D01*
X152196Y-149445D01*
X152054Y-149500D01*
X151901Y-149549D01*
X151743Y-149587D01*
X151573Y-149609D01*
X151399Y-149620D01*
X151355D01*
X151317Y-149615D01*
X151278D01*
X151224Y-149609D01*
X151169Y-149598D01*
X151109Y-149593D01*
X150967Y-149560D01*
X150809Y-149522D01*
X150640Y-149462D01*
X150558Y-149429D01*
X150470Y-149385D01*
X150465Y-149380D01*
X150449Y-149374D01*
X150427Y-149358D01*
X150394Y-149342D01*
X150356Y-149314D01*
X150312Y-149287D01*
X150257Y-149249D01*
X150203Y-149211D01*
X150083Y-149112D01*
X149952Y-148992D01*
X149815Y-148856D01*
X149690Y-148692D01*
Y-149495D01*
X148346D01*
Y-141938D01*
X149793D01*
Y-144662D01*
D02*
G37*
G36*
X135330Y-143904D02*
X135363D01*
X135450Y-143909D01*
X135554Y-143920D01*
X135668Y-143942D01*
X135805Y-143964D01*
X135947Y-143996D01*
X136094Y-144040D01*
X136252Y-144095D01*
X136411Y-144160D01*
X136575Y-144237D01*
X136733Y-144329D01*
X136886Y-144439D01*
X137033Y-144564D01*
X137170Y-144706D01*
X137175Y-144717D01*
X137203Y-144744D01*
X137235Y-144793D01*
X137279Y-144859D01*
X137334Y-144946D01*
X137394Y-145050D01*
X137454Y-145176D01*
X137519Y-145318D01*
X137585Y-145481D01*
X137650Y-145667D01*
X137705Y-145869D01*
X137759Y-146093D01*
X137798Y-146333D01*
X137830Y-146595D01*
X137847Y-146879D01*
X137852Y-147179D01*
X134221D01*
Y-147185D01*
Y-147207D01*
X134227Y-147239D01*
Y-147283D01*
X134232Y-147338D01*
X134243Y-147403D01*
X134254Y-147469D01*
X134271Y-147545D01*
X134309Y-147709D01*
X134336Y-147791D01*
X134369Y-147873D01*
X134413Y-147955D01*
X134456Y-148037D01*
X134505Y-148113D01*
X134565Y-148184D01*
X134571Y-148190D01*
X134582Y-148201D01*
X134598Y-148217D01*
X134625Y-148239D01*
X134658Y-148266D01*
X134702Y-148299D01*
X134746Y-148326D01*
X134800Y-148359D01*
X134855Y-148397D01*
X134920Y-148424D01*
X135062Y-148484D01*
X135144Y-148506D01*
X135226Y-148523D01*
X135313Y-148534D01*
X135406Y-148539D01*
X135439D01*
X135466Y-148534D01*
X135526Y-148528D01*
X135608Y-148517D01*
X135696Y-148495D01*
X135794Y-148463D01*
X135887Y-148419D01*
X135979Y-148359D01*
X135985D01*
X135991Y-148348D01*
X136018Y-148321D01*
X136061Y-148277D01*
X136111Y-148211D01*
X136171Y-148129D01*
X136231Y-148026D01*
X136285Y-147906D01*
X136334Y-147758D01*
X137776Y-147998D01*
X137770Y-148009D01*
X137765Y-148031D01*
X137749Y-148075D01*
X137721Y-148129D01*
X137694Y-148195D01*
X137656Y-148272D01*
X137612Y-148359D01*
X137557Y-148446D01*
X137503Y-148545D01*
X137437Y-148643D01*
X137361Y-148747D01*
X137285Y-148845D01*
X137197Y-148943D01*
X137104Y-149041D01*
X137001Y-149129D01*
X136891Y-149211D01*
X136886Y-149216D01*
X136864Y-149227D01*
X136831Y-149249D01*
X136782Y-149276D01*
X136722Y-149303D01*
X136657Y-149342D01*
X136569Y-149374D01*
X136476Y-149413D01*
X136373Y-149451D01*
X136264Y-149489D01*
X136138Y-149527D01*
X136007Y-149555D01*
X135865Y-149582D01*
X135712Y-149604D01*
X135554Y-149615D01*
X135390Y-149620D01*
X135330D01*
X135292Y-149615D01*
X135253D01*
X135210Y-149609D01*
X135155Y-149604D01*
X135035Y-149593D01*
X134904Y-149571D01*
X134751Y-149544D01*
X134587Y-149505D01*
X134418Y-149456D01*
X134243Y-149391D01*
X134069Y-149320D01*
X133894Y-149227D01*
X133725Y-149123D01*
X133566Y-148998D01*
X133413Y-148856D01*
X133277Y-148692D01*
X133271Y-148681D01*
X133255Y-148659D01*
X133228Y-148616D01*
X133195Y-148555D01*
X133151Y-148484D01*
X133108Y-148397D01*
X133058Y-148293D01*
X133009Y-148173D01*
X132955Y-148042D01*
X132906Y-147900D01*
X132862Y-147747D01*
X132824Y-147578D01*
X132785Y-147403D01*
X132758Y-147212D01*
X132742Y-147010D01*
X132736Y-146803D01*
Y-146797D01*
Y-146786D01*
Y-146770D01*
Y-146743D01*
X132742Y-146710D01*
Y-146672D01*
Y-146628D01*
X132747Y-146579D01*
X132758Y-146464D01*
X132774Y-146333D01*
X132796Y-146186D01*
X132824Y-146027D01*
X132862Y-145858D01*
X132911Y-145683D01*
X132966Y-145509D01*
X133037Y-145328D01*
X133118Y-145154D01*
X133211Y-144985D01*
X133320Y-144826D01*
X133446Y-144673D01*
X133457Y-144662D01*
X133479Y-144641D01*
X133517Y-144602D01*
X133572Y-144553D01*
X133643Y-144493D01*
X133730Y-144428D01*
X133828Y-144357D01*
X133938Y-144286D01*
X134063Y-144215D01*
X134200Y-144144D01*
X134347Y-144078D01*
X134505Y-144018D01*
X134675Y-143969D01*
X134855Y-143931D01*
X135046Y-143909D01*
X135248Y-143898D01*
X135302D01*
X135330Y-143904D01*
D02*
G37*
G36*
X131158Y-144018D02*
X132147D01*
Y-145170D01*
X131158D01*
Y-147381D01*
Y-147387D01*
Y-147409D01*
Y-147442D01*
Y-147491D01*
Y-147540D01*
Y-147600D01*
X131164Y-147731D01*
Y-147867D01*
X131169Y-147933D01*
Y-147998D01*
X131175Y-148053D01*
Y-148102D01*
X131180Y-148140D01*
X131186Y-148168D01*
Y-148173D01*
X131191Y-148184D01*
X131202Y-148206D01*
X131213Y-148233D01*
X131229Y-148261D01*
X131251Y-148288D01*
X131279Y-148321D01*
X131311Y-148348D01*
X131317Y-148353D01*
X131328Y-148359D01*
X131350Y-148370D01*
X131382Y-148381D01*
X131415Y-148397D01*
X131459Y-148408D01*
X131508Y-148413D01*
X131557Y-148419D01*
X131595D01*
X131639Y-148413D01*
X131704Y-148403D01*
X131786Y-148386D01*
X131890Y-148359D01*
X132005Y-148326D01*
X132141Y-148282D01*
X132267Y-149407D01*
X132261D01*
X132245Y-149418D01*
X132218Y-149429D01*
X132179Y-149440D01*
X132130Y-149456D01*
X132070Y-149473D01*
X132005Y-149495D01*
X131934Y-149511D01*
X131852Y-149533D01*
X131764Y-149555D01*
X131672Y-149571D01*
X131568Y-149587D01*
X131355Y-149609D01*
X131120Y-149620D01*
X131055D01*
X131022Y-149615D01*
X130984D01*
X130885Y-149604D01*
X130776Y-149587D01*
X130661Y-149565D01*
X130536Y-149533D01*
X130416Y-149489D01*
X130410D01*
X130405Y-149484D01*
X130388Y-149478D01*
X130367Y-149467D01*
X130312Y-149434D01*
X130241Y-149396D01*
X130165Y-149347D01*
X130094Y-149293D01*
X130017Y-149227D01*
X129957Y-149151D01*
X129952Y-149140D01*
X129935Y-149112D01*
X129908Y-149063D01*
X129875Y-149003D01*
X129842Y-148921D01*
X129810Y-148823D01*
X129777Y-148708D01*
X129755Y-148583D01*
Y-148577D01*
Y-148572D01*
X129750Y-148555D01*
Y-148534D01*
X129744Y-148501D01*
Y-148463D01*
X129739Y-148413D01*
X129733Y-148359D01*
X129728Y-148299D01*
Y-148222D01*
X129722Y-148140D01*
X129717Y-148048D01*
Y-147944D01*
X129711Y-147824D01*
Y-147698D01*
Y-147562D01*
Y-145170D01*
X129045D01*
Y-144018D01*
X129711D01*
Y-142932D01*
X131158Y-142080D01*
Y-144018D01*
D02*
G37*
G36*
X103012Y-144018D02*
X104000D01*
Y-145170D01*
X103012D01*
Y-147381D01*
Y-147387D01*
Y-147409D01*
Y-147442D01*
Y-147491D01*
Y-147540D01*
Y-147600D01*
X103017Y-147731D01*
Y-147868D01*
X103023Y-147933D01*
Y-147998D01*
X103028Y-148053D01*
Y-148102D01*
X103034Y-148141D01*
X103039Y-148168D01*
Y-148173D01*
X103045Y-148184D01*
X103056Y-148206D01*
X103067Y-148233D01*
X103083Y-148261D01*
X103105Y-148288D01*
X103132Y-148321D01*
X103165Y-148348D01*
X103170Y-148353D01*
X103181Y-148359D01*
X103203Y-148370D01*
X103236Y-148381D01*
X103269Y-148397D01*
X103312Y-148408D01*
X103361Y-148413D01*
X103411Y-148419D01*
X103449D01*
X103493Y-148413D01*
X103558Y-148403D01*
X103640Y-148386D01*
X103744Y-148359D01*
X103858Y-148326D01*
X103995Y-148282D01*
X104121Y-149407D01*
X104115D01*
X104099Y-149418D01*
X104071Y-149429D01*
X104033Y-149440D01*
X103984Y-149456D01*
X103924Y-149473D01*
X103858Y-149495D01*
X103787Y-149511D01*
X103706Y-149533D01*
X103618Y-149555D01*
X103525Y-149571D01*
X103422Y-149587D01*
X103209Y-149609D01*
X102974Y-149620D01*
X102908D01*
X102876Y-149615D01*
X102837D01*
X102739Y-149604D01*
X102630Y-149587D01*
X102515Y-149565D01*
X102390Y-149533D01*
X102269Y-149489D01*
X102264D01*
X102259Y-149484D01*
X102242Y-149478D01*
X102220Y-149467D01*
X102166Y-149434D01*
X102095Y-149396D01*
X102018Y-149347D01*
X101947Y-149293D01*
X101871Y-149227D01*
X101811Y-149151D01*
X101805Y-149140D01*
X101789Y-149112D01*
X101762Y-149063D01*
X101729Y-149003D01*
X101696Y-148921D01*
X101663Y-148823D01*
X101631Y-148708D01*
X101609Y-148583D01*
Y-148577D01*
Y-148572D01*
X101603Y-148555D01*
Y-148534D01*
X101598Y-148501D01*
Y-148463D01*
X101593Y-148413D01*
X101587Y-148359D01*
X101582Y-148299D01*
Y-148222D01*
X101576Y-148141D01*
X101571Y-148048D01*
Y-147944D01*
X101565Y-147824D01*
Y-147698D01*
Y-147562D01*
Y-145170D01*
X100899D01*
Y-144018D01*
X101565D01*
Y-142932D01*
X103012Y-142080D01*
Y-144018D01*
D02*
G37*
G36*
X75920Y-143904D02*
X75952D01*
X76040Y-143909D01*
X76143Y-143920D01*
X76269Y-143942D01*
X76406Y-143964D01*
X76553Y-143996D01*
X76711Y-144040D01*
X76875Y-144095D01*
X77044Y-144160D01*
X77219Y-144237D01*
X77388Y-144329D01*
X77552Y-144439D01*
X77716Y-144564D01*
X77869Y-144706D01*
X77880Y-144717D01*
X77902Y-144744D01*
X77945Y-144788D01*
X77994Y-144853D01*
X78054Y-144930D01*
X78120Y-145028D01*
X78191Y-145137D01*
X78267Y-145263D01*
X78344Y-145405D01*
X78415Y-145558D01*
X78480Y-145727D01*
X78540Y-145907D01*
X78595Y-146104D01*
X78633Y-146306D01*
X78655Y-146524D01*
X78666Y-146748D01*
Y-146754D01*
Y-146765D01*
Y-146781D01*
Y-146803D01*
X78661Y-146830D01*
Y-146868D01*
X78655Y-146956D01*
X78644Y-147059D01*
X78622Y-147185D01*
X78600Y-147321D01*
X78568Y-147469D01*
X78524Y-147627D01*
X78469Y-147796D01*
X78404Y-147966D01*
X78327Y-148141D01*
X78235Y-148310D01*
X78131Y-148484D01*
X78005Y-148648D01*
X77863Y-148807D01*
X77852Y-148818D01*
X77825Y-148839D01*
X77781Y-148883D01*
X77721Y-148932D01*
X77639Y-148998D01*
X77547Y-149063D01*
X77437Y-149140D01*
X77312Y-149211D01*
X77170Y-149287D01*
X77017Y-149364D01*
X76853Y-149429D01*
X76673Y-149495D01*
X76482Y-149544D01*
X76280Y-149587D01*
X76067Y-149609D01*
X75843Y-149620D01*
X75767D01*
X75718Y-149615D01*
X75647Y-149609D01*
X75570Y-149604D01*
X75477Y-149593D01*
X75379Y-149576D01*
X75275Y-149560D01*
X75161Y-149538D01*
X75041Y-149511D01*
X74920Y-149478D01*
X74795Y-149440D01*
X74664Y-149391D01*
X74538Y-149342D01*
X74407Y-149282D01*
X74402Y-149276D01*
X74380Y-149265D01*
X74342Y-149243D01*
X74292Y-149216D01*
X74238Y-149183D01*
X74172Y-149140D01*
X74101Y-149091D01*
X74019Y-149030D01*
X73938Y-148965D01*
X73856Y-148889D01*
X73768Y-148807D01*
X73681Y-148719D01*
X73599Y-148621D01*
X73517Y-148517D01*
X73441Y-148408D01*
X73370Y-148288D01*
X73364Y-148282D01*
X73353Y-148255D01*
X73337Y-148222D01*
X73315Y-148168D01*
X73288Y-148108D01*
X73255Y-148031D01*
X73228Y-147938D01*
X73195Y-147840D01*
X73157Y-147725D01*
X73129Y-147605D01*
X73097Y-147474D01*
X73069Y-147332D01*
X73048Y-147179D01*
X73031Y-147021D01*
X73020Y-146857D01*
X73015Y-146683D01*
Y-146672D01*
Y-146650D01*
Y-146612D01*
X73020Y-146557D01*
X73026Y-146497D01*
X73031Y-146421D01*
X73042Y-146333D01*
X73058Y-146240D01*
X73080Y-146137D01*
X73102Y-146027D01*
X73129Y-145913D01*
X73162Y-145793D01*
X73206Y-145667D01*
X73255Y-145542D01*
X73310Y-145416D01*
X73370Y-145290D01*
X73375Y-145285D01*
X73386Y-145263D01*
X73408Y-145225D01*
X73435Y-145181D01*
X73474Y-145121D01*
X73517Y-145055D01*
X73566Y-144985D01*
X73626Y-144908D01*
X73697Y-144826D01*
X73774Y-144739D01*
X73856Y-144657D01*
X73943Y-144570D01*
X74041Y-144488D01*
X74145Y-144406D01*
X74254Y-144329D01*
X74374Y-144258D01*
X74380Y-144253D01*
X74402Y-144242D01*
X74440Y-144226D01*
X74489Y-144204D01*
X74549Y-144176D01*
X74625Y-144144D01*
X74707Y-144111D01*
X74800Y-144078D01*
X74904Y-144045D01*
X75019Y-144013D01*
X75139Y-143980D01*
X75264Y-143953D01*
X75401Y-143931D01*
X75537Y-143914D01*
X75685Y-143904D01*
X75832Y-143898D01*
X75887D01*
X75920Y-143904D01*
D02*
G37*
G36*
X62548Y-144018D02*
X63536D01*
Y-145170D01*
X62548D01*
Y-147381D01*
Y-147387D01*
Y-147409D01*
Y-147442D01*
Y-147491D01*
Y-147540D01*
Y-147600D01*
X62554Y-147731D01*
Y-147868D01*
X62559Y-147933D01*
Y-147998D01*
X62564Y-148053D01*
Y-148102D01*
X62570Y-148141D01*
X62575Y-148168D01*
Y-148173D01*
X62581Y-148184D01*
X62592Y-148206D01*
X62603Y-148233D01*
X62619Y-148261D01*
X62641Y-148288D01*
X62668Y-148321D01*
X62701Y-148348D01*
X62706Y-148353D01*
X62717Y-148359D01*
X62739Y-148370D01*
X62772Y-148381D01*
X62805Y-148397D01*
X62848Y-148408D01*
X62897Y-148414D01*
X62947Y-148419D01*
X62985D01*
X63029Y-148414D01*
X63094Y-148403D01*
X63176Y-148386D01*
X63280Y-148359D01*
X63394Y-148326D01*
X63531Y-148282D01*
X63656Y-149407D01*
X63651D01*
X63635Y-149418D01*
X63607Y-149429D01*
X63569Y-149440D01*
X63520Y-149456D01*
X63460Y-149473D01*
X63394Y-149495D01*
X63323Y-149511D01*
X63241Y-149533D01*
X63154Y-149555D01*
X63061Y-149571D01*
X62958Y-149587D01*
X62745Y-149609D01*
X62510Y-149620D01*
X62444D01*
X62411Y-149615D01*
X62373D01*
X62275Y-149604D01*
X62166Y-149587D01*
X62051Y-149565D01*
X61926Y-149533D01*
X61805Y-149489D01*
X61800D01*
X61795Y-149484D01*
X61778Y-149478D01*
X61756Y-149467D01*
X61702Y-149434D01*
X61631Y-149396D01*
X61554Y-149347D01*
X61483Y-149293D01*
X61407Y-149227D01*
X61347Y-149151D01*
X61341Y-149140D01*
X61325Y-149112D01*
X61298Y-149063D01*
X61265Y-149003D01*
X61232Y-148921D01*
X61199Y-148823D01*
X61167Y-148708D01*
X61145Y-148583D01*
Y-148577D01*
Y-148572D01*
X61139Y-148555D01*
Y-148534D01*
X61134Y-148501D01*
Y-148463D01*
X61128Y-148414D01*
X61123Y-148359D01*
X61118Y-148299D01*
Y-148222D01*
X61112Y-148141D01*
X61107Y-148048D01*
Y-147944D01*
X61101Y-147824D01*
Y-147698D01*
Y-147562D01*
Y-145170D01*
X60435D01*
Y-144018D01*
X61101D01*
Y-142932D01*
X62548Y-142080D01*
Y-144018D01*
D02*
G37*
G36*
X106425Y-149085D02*
Y-149091D01*
Y-149112D01*
Y-149145D01*
Y-149189D01*
X106419Y-149238D01*
Y-149303D01*
X106414Y-149369D01*
Y-149440D01*
X106397Y-149598D01*
X106381Y-149762D01*
X106354Y-149926D01*
X106337Y-150002D01*
X106315Y-150073D01*
Y-150079D01*
X106310Y-150090D01*
X106304Y-150106D01*
X106293Y-150133D01*
X106283Y-150166D01*
X106266Y-150204D01*
X106223Y-150292D01*
X106168Y-150390D01*
X106097Y-150499D01*
X106004Y-150614D01*
X105900Y-150723D01*
X105895Y-150728D01*
X105889Y-150734D01*
X105868Y-150750D01*
X105846Y-150772D01*
X105818Y-150794D01*
X105780Y-150821D01*
X105742Y-150854D01*
X105693Y-150887D01*
X105584Y-150963D01*
X105453Y-151040D01*
X105300Y-151111D01*
X105136Y-151182D01*
X104858Y-150586D01*
X104863D01*
X104879Y-150581D01*
X104901Y-150570D01*
X104929Y-150559D01*
X104967Y-150543D01*
X105005Y-150526D01*
X105098Y-150483D01*
X105201Y-150423D01*
X105305Y-150352D01*
X105398Y-150275D01*
X105442Y-150232D01*
X105480Y-150182D01*
Y-150177D01*
X105485Y-150172D01*
X105496Y-150155D01*
X105507Y-150139D01*
X105524Y-150111D01*
X105540Y-150079D01*
X105573Y-150002D01*
X105611Y-149904D01*
X105644Y-149784D01*
X105666Y-149647D01*
X105676Y-149495D01*
X104978D01*
Y-148048D01*
X106425D01*
Y-149085D01*
D02*
G37*
G36*
X280597Y-133813D02*
X279150D01*
Y-132475D01*
X280597D01*
Y-133813D01*
D02*
G37*
G36*
X246570Y-134441D02*
X246614Y-134446D01*
X246663Y-134452D01*
X246723Y-134457D01*
X246789Y-134468D01*
X246936Y-134501D01*
X247100Y-134550D01*
X247182Y-134583D01*
X247269Y-134621D01*
X247357Y-134665D01*
X247444Y-134714D01*
X246991Y-135975D01*
X246985Y-135970D01*
X246974Y-135964D01*
X246952Y-135953D01*
X246931Y-135937D01*
X246898Y-135921D01*
X246860Y-135899D01*
X246767Y-135855D01*
X246663Y-135811D01*
X246548Y-135773D01*
X246428Y-135746D01*
X246368Y-135735D01*
X246259D01*
X246199Y-135746D01*
X246128Y-135757D01*
X246046Y-135779D01*
X245959Y-135806D01*
X245871Y-135849D01*
X245790Y-135904D01*
X245778Y-135910D01*
X245757Y-135937D01*
X245719Y-135981D01*
X245669Y-136041D01*
X245620Y-136128D01*
X245593Y-136177D01*
X245566Y-136232D01*
X245538Y-136292D01*
X245511Y-136357D01*
X245484Y-136434D01*
X245462Y-136510D01*
Y-136516D01*
X245456Y-136532D01*
X245451Y-136559D01*
X245445Y-136598D01*
X245435Y-136652D01*
X245424Y-136723D01*
X245413Y-136805D01*
X245402Y-136903D01*
X245391Y-137018D01*
X245380Y-137149D01*
X245369Y-137302D01*
X245358Y-137466D01*
X245353Y-137657D01*
X245347Y-137864D01*
X245342Y-138094D01*
Y-138214D01*
Y-138345D01*
Y-140032D01*
X243895D01*
Y-134555D01*
X245238D01*
Y-135336D01*
X245244Y-135331D01*
X245254Y-135315D01*
X245271Y-135282D01*
X245298Y-135249D01*
X245325Y-135205D01*
X245364Y-135151D01*
X245445Y-135036D01*
X245538Y-134916D01*
X245642Y-134796D01*
X245697Y-134741D01*
X245751Y-134692D01*
X245806Y-134648D01*
X245855Y-134610D01*
X245860D01*
X245866Y-134605D01*
X245882Y-134594D01*
X245904Y-134583D01*
X245964Y-134555D01*
X246041Y-134523D01*
X246133Y-134490D01*
X246237Y-134463D01*
X246357Y-134441D01*
X246483Y-134435D01*
X246532D01*
X246570Y-134441D01*
D02*
G37*
G36*
X275961D02*
X276011Y-134446D01*
X276065Y-134452D01*
X276125Y-134457D01*
X276262Y-134479D01*
X276409Y-134506D01*
X276557Y-134550D01*
X276710Y-134610D01*
X276715D01*
X276726Y-134616D01*
X276748Y-134626D01*
X276775Y-134643D01*
X276808Y-134659D01*
X276846Y-134681D01*
X276933Y-134730D01*
X277032Y-134796D01*
X277130Y-134872D01*
X277228Y-134954D01*
X277310Y-135052D01*
Y-135058D01*
X277321Y-135063D01*
X277332Y-135080D01*
X277343Y-135101D01*
X277381Y-135156D01*
X277425Y-135227D01*
X277474Y-135320D01*
X277518Y-135418D01*
X277561Y-135533D01*
X277599Y-135658D01*
Y-135664D01*
X277605Y-135675D01*
Y-135691D01*
X277610Y-135719D01*
X277621Y-135757D01*
X277627Y-135800D01*
X277632Y-135849D01*
X277643Y-135910D01*
X277649Y-135975D01*
X277654Y-136046D01*
X277665Y-136128D01*
X277670Y-136215D01*
X277676Y-136308D01*
Y-136412D01*
X277681Y-136521D01*
Y-136636D01*
Y-140032D01*
X276234D01*
Y-137242D01*
Y-137231D01*
Y-137204D01*
Y-137160D01*
Y-137100D01*
X276229Y-137029D01*
Y-136947D01*
Y-136860D01*
X276223Y-136767D01*
X276213Y-136576D01*
X276202Y-136477D01*
X276191Y-136385D01*
X276180Y-136297D01*
X276169Y-136221D01*
X276152Y-136150D01*
X276136Y-136095D01*
Y-136090D01*
X276131Y-136084D01*
X276120Y-136052D01*
X276098Y-136002D01*
X276065Y-135948D01*
X276022Y-135882D01*
X275972Y-135811D01*
X275907Y-135751D01*
X275836Y-135691D01*
X275825Y-135686D01*
X275798Y-135669D01*
X275754Y-135642D01*
X275694Y-135615D01*
X275623Y-135593D01*
X275536Y-135566D01*
X275437Y-135549D01*
X275333Y-135544D01*
X275295D01*
X275268Y-135549D01*
X275235D01*
X275197Y-135555D01*
X275104Y-135571D01*
X275001Y-135593D01*
X274886Y-135631D01*
X274766Y-135680D01*
X274651Y-135751D01*
X274646D01*
X274640Y-135762D01*
X274624Y-135773D01*
X274602Y-135790D01*
X274553Y-135833D01*
X274487Y-135899D01*
X274422Y-135975D01*
X274351Y-136073D01*
X274291Y-136183D01*
X274241Y-136303D01*
Y-136308D01*
X274236Y-136319D01*
X274231Y-136341D01*
X274225Y-136368D01*
X274214Y-136407D01*
X274209Y-136456D01*
X274198Y-136516D01*
X274187Y-136587D01*
X274176Y-136669D01*
X274165Y-136756D01*
X274160Y-136860D01*
X274149Y-136974D01*
X274143Y-137100D01*
X274138Y-137242D01*
X274132Y-137395D01*
Y-137558D01*
Y-140032D01*
X272685D01*
Y-134555D01*
X274029D01*
Y-135364D01*
X274040Y-135353D01*
X274061Y-135325D01*
X274100Y-135276D01*
X274160Y-135216D01*
X274231Y-135151D01*
X274312Y-135069D01*
X274411Y-134987D01*
X274525Y-134899D01*
X274646Y-134812D01*
X274782Y-134730D01*
X274935Y-134648D01*
X275093Y-134583D01*
X275263Y-134523D01*
X275443Y-134474D01*
X275634Y-134446D01*
X275836Y-134435D01*
X275918D01*
X275961Y-134441D01*
D02*
G37*
G36*
X284255D02*
X284348Y-134446D01*
X284452Y-134457D01*
X284572Y-134468D01*
X284703Y-134479D01*
X284834Y-134501D01*
X284970Y-134528D01*
X285112Y-134555D01*
X285249Y-134594D01*
X285385Y-134632D01*
X285511Y-134687D01*
X285631Y-134741D01*
X285740Y-134807D01*
X285746Y-134812D01*
X285762Y-134823D01*
X285795Y-134845D01*
X285828Y-134872D01*
X285871Y-134916D01*
X285926Y-134960D01*
X285981Y-135014D01*
X286041Y-135080D01*
X286101Y-135151D01*
X286166Y-135233D01*
X286226Y-135320D01*
X286286Y-135418D01*
X286346Y-135522D01*
X286401Y-135637D01*
X286450Y-135757D01*
X286494Y-135888D01*
X285129Y-136139D01*
Y-136134D01*
X285123Y-136123D01*
X285118Y-136106D01*
X285112Y-136084D01*
X285085Y-136030D01*
X285052Y-135959D01*
X285003Y-135882D01*
X284949Y-135800D01*
X284878Y-135724D01*
X284790Y-135653D01*
X284779Y-135647D01*
X284763Y-135637D01*
X284747Y-135626D01*
X284719Y-135615D01*
X284692Y-135598D01*
X284615Y-135566D01*
X284517Y-135533D01*
X284397Y-135506D01*
X284255Y-135484D01*
X284097Y-135478D01*
X284004D01*
X283955Y-135484D01*
X283900Y-135489D01*
X283846D01*
X283780Y-135500D01*
X283644Y-135517D01*
X283507Y-135549D01*
X283382Y-135588D01*
X283327Y-135615D01*
X283278Y-135642D01*
X283272Y-135647D01*
X283250Y-135664D01*
X283229Y-135686D01*
X283196Y-135719D01*
X283169Y-135762D01*
X283141Y-135811D01*
X283120Y-135871D01*
X283114Y-135937D01*
Y-135942D01*
Y-135964D01*
X283120Y-135992D01*
X283130Y-136024D01*
X283147Y-136068D01*
X283174Y-136112D01*
X283207Y-136155D01*
X283256Y-136199D01*
X283267Y-136204D01*
X283283Y-136215D01*
X283305Y-136226D01*
X283338Y-136237D01*
X283382Y-136259D01*
X283431Y-136281D01*
X283496Y-136303D01*
X283578Y-136330D01*
X283671Y-136357D01*
X283780Y-136396D01*
X283906Y-136428D01*
X284053Y-136467D01*
X284217Y-136510D01*
X284397Y-136554D01*
X284501Y-136581D01*
X284605Y-136603D01*
X284610D01*
X284615Y-136609D01*
X284632D01*
X284654Y-136614D01*
X284714Y-136630D01*
X284790Y-136652D01*
X284889Y-136674D01*
X284998Y-136707D01*
X285112Y-136740D01*
X285243Y-136783D01*
X285506Y-136876D01*
X285642Y-136931D01*
X285773Y-136985D01*
X285904Y-137045D01*
X286019Y-137111D01*
X286128Y-137176D01*
X286221Y-137247D01*
X286226Y-137253D01*
X286243Y-137264D01*
X286264Y-137285D01*
X286292Y-137318D01*
X286330Y-137356D01*
X286368Y-137406D01*
X286406Y-137460D01*
X286450Y-137526D01*
X286494Y-137602D01*
X286532Y-137679D01*
X286576Y-137766D01*
X286608Y-137864D01*
X286636Y-137968D01*
X286658Y-138077D01*
X286674Y-138197D01*
X286679Y-138323D01*
Y-138334D01*
Y-138356D01*
X286674Y-138394D01*
X286668Y-138449D01*
X286658Y-138514D01*
X286647Y-138591D01*
X286625Y-138672D01*
X286603Y-138765D01*
X286565Y-138864D01*
X286526Y-138967D01*
X286472Y-139076D01*
X286412Y-139186D01*
X286341Y-139295D01*
X286253Y-139404D01*
X286155Y-139513D01*
X286046Y-139617D01*
X286041Y-139622D01*
X286019Y-139639D01*
X285981Y-139666D01*
X285931Y-139699D01*
X285860Y-139743D01*
X285784Y-139786D01*
X285686Y-139835D01*
X285577Y-139884D01*
X285456Y-139939D01*
X285314Y-139988D01*
X285167Y-140032D01*
X284998Y-140070D01*
X284818Y-140108D01*
X284621Y-140136D01*
X284414Y-140152D01*
X284190Y-140157D01*
X284140D01*
X284081Y-140152D01*
X284004D01*
X283911Y-140141D01*
X283802Y-140136D01*
X283682Y-140119D01*
X283551Y-140103D01*
X283409Y-140076D01*
X283267Y-140048D01*
X283120Y-140010D01*
X282967Y-139966D01*
X282825Y-139912D01*
X282677Y-139852D01*
X282541Y-139786D01*
X282415Y-139704D01*
X282410Y-139699D01*
X282388Y-139682D01*
X282355Y-139655D01*
X282311Y-139622D01*
X282257Y-139573D01*
X282197Y-139519D01*
X282137Y-139453D01*
X282066Y-139382D01*
X281995Y-139295D01*
X281924Y-139202D01*
X281853Y-139104D01*
X281782Y-138995D01*
X281722Y-138874D01*
X281662Y-138749D01*
X281612Y-138612D01*
X281569Y-138470D01*
X283021Y-138247D01*
Y-138252D01*
X283027Y-138263D01*
X283032Y-138285D01*
X283038Y-138318D01*
X283049Y-138350D01*
X283065Y-138394D01*
X283103Y-138487D01*
X283152Y-138591D01*
X283212Y-138700D01*
X283294Y-138798D01*
X283393Y-138891D01*
X283398D01*
X283403Y-138902D01*
X283420Y-138913D01*
X283447Y-138924D01*
X283474Y-138940D01*
X283507Y-138962D01*
X283551Y-138978D01*
X283600Y-139000D01*
X283655Y-139022D01*
X283715Y-139038D01*
X283780Y-139060D01*
X283851Y-139076D01*
X283928Y-139087D01*
X284010Y-139098D01*
X284097Y-139109D01*
X284244D01*
X284282Y-139104D01*
X284332D01*
X284381Y-139098D01*
X284441Y-139093D01*
X284506Y-139082D01*
X284643Y-139060D01*
X284785Y-139022D01*
X284916Y-138973D01*
X284981Y-138940D01*
X285036Y-138907D01*
X285047Y-138902D01*
X285069Y-138880D01*
X285096Y-138847D01*
X285134Y-138803D01*
X285167Y-138749D01*
X285200Y-138683D01*
X285222Y-138607D01*
X285227Y-138520D01*
Y-138514D01*
Y-138492D01*
X285222Y-138459D01*
X285216Y-138421D01*
X285200Y-138383D01*
X285183Y-138334D01*
X285156Y-138290D01*
X285123Y-138247D01*
X285118Y-138241D01*
X285102Y-138230D01*
X285069Y-138208D01*
X285020Y-138181D01*
X284960Y-138154D01*
X284872Y-138121D01*
X284823Y-138104D01*
X284768Y-138088D01*
X284703Y-138072D01*
X284637Y-138055D01*
X284632D01*
X284615Y-138050D01*
X284594Y-138045D01*
X284561Y-138039D01*
X284523Y-138028D01*
X284474Y-138017D01*
X284419Y-138006D01*
X284359Y-137990D01*
X284288Y-137973D01*
X284217Y-137957D01*
X284059Y-137913D01*
X283884Y-137870D01*
X283704Y-137821D01*
X283513Y-137771D01*
X283327Y-137711D01*
X283141Y-137657D01*
X282961Y-137597D01*
X282797Y-137531D01*
X282645Y-137471D01*
X282579Y-137444D01*
X282519Y-137411D01*
X282464Y-137378D01*
X282415Y-137351D01*
X282410Y-137346D01*
X282388Y-137329D01*
X282355Y-137307D01*
X282317Y-137269D01*
X282268Y-137225D01*
X282213Y-137171D01*
X282153Y-137105D01*
X282093Y-137029D01*
X282033Y-136947D01*
X281973Y-136854D01*
X281918Y-136756D01*
X281869Y-136641D01*
X281831Y-136527D01*
X281798Y-136396D01*
X281776Y-136259D01*
X281771Y-136117D01*
Y-136106D01*
Y-136084D01*
X281776Y-136046D01*
X281782Y-135997D01*
X281787Y-135937D01*
X281798Y-135866D01*
X281820Y-135790D01*
X281842Y-135702D01*
X281869Y-135609D01*
X281907Y-135511D01*
X281951Y-135413D01*
X282006Y-135315D01*
X282071Y-135211D01*
X282142Y-135112D01*
X282229Y-135014D01*
X282328Y-134921D01*
X282333Y-134916D01*
X282355Y-134899D01*
X282388Y-134878D01*
X282437Y-134845D01*
X282497Y-134807D01*
X282568Y-134768D01*
X282655Y-134725D01*
X282759Y-134676D01*
X282874Y-134632D01*
X282999Y-134588D01*
X283141Y-134550D01*
X283300Y-134512D01*
X283469Y-134479D01*
X283655Y-134457D01*
X283857Y-134441D01*
X284069Y-134435D01*
X284179D01*
X284255Y-134441D01*
D02*
G37*
G36*
X296120D02*
X296202D01*
X296294Y-134446D01*
X296398Y-134452D01*
X296507Y-134463D01*
X296622Y-134474D01*
X296742Y-134490D01*
X296982Y-134534D01*
X297097Y-134555D01*
X297212Y-134588D01*
X297316Y-134626D01*
X297408Y-134665D01*
X297414D01*
X297430Y-134676D01*
X297452Y-134687D01*
X297485Y-134708D01*
X297523Y-134730D01*
X297567Y-134757D01*
X297670Y-134823D01*
X297780Y-134910D01*
X297889Y-135009D01*
X297992Y-135123D01*
X298036Y-135183D01*
X298074Y-135249D01*
Y-135254D01*
X298085Y-135265D01*
X298091Y-135287D01*
X298107Y-135320D01*
X298118Y-135358D01*
X298134Y-135413D01*
X298156Y-135473D01*
X298173Y-135544D01*
X298189Y-135626D01*
X298211Y-135724D01*
X298227Y-135828D01*
X298238Y-135948D01*
X298255Y-136079D01*
X298260Y-136221D01*
X298271Y-136379D01*
Y-136548D01*
X298249Y-138236D01*
Y-138241D01*
Y-138268D01*
Y-138306D01*
Y-138356D01*
Y-138416D01*
X298255Y-138481D01*
Y-138558D01*
X298260Y-138640D01*
X298266Y-138814D01*
X298276Y-138989D01*
X298282Y-139076D01*
X298293Y-139158D01*
X298304Y-139229D01*
X298315Y-139300D01*
Y-139306D01*
X298320Y-139317D01*
Y-139333D01*
X298331Y-139360D01*
X298337Y-139393D01*
X298347Y-139431D01*
X298375Y-139519D01*
X298408Y-139628D01*
X298457Y-139753D01*
X298511Y-139890D01*
X298577Y-140032D01*
X297146D01*
Y-140026D01*
X297135Y-140005D01*
X297124Y-139972D01*
X297108Y-139923D01*
X297086Y-139863D01*
X297059Y-139792D01*
X297032Y-139704D01*
X297004Y-139606D01*
Y-139601D01*
X296999Y-139584D01*
X296993Y-139562D01*
X296982Y-139535D01*
X296966Y-139480D01*
X296961Y-139459D01*
X296955Y-139437D01*
X296950Y-139442D01*
X296939Y-139453D01*
X296917Y-139470D01*
X296890Y-139497D01*
X296857Y-139524D01*
X296813Y-139562D01*
X296769Y-139601D01*
X296715Y-139639D01*
X296600Y-139726D01*
X296464Y-139819D01*
X296316Y-139901D01*
X296158Y-139977D01*
X296152D01*
X296142Y-139983D01*
X296114Y-139994D01*
X296087Y-140005D01*
X296043Y-140021D01*
X296000Y-140032D01*
X295945Y-140048D01*
X295890Y-140065D01*
X295825Y-140086D01*
X295754Y-140103D01*
X295601Y-140130D01*
X295432Y-140152D01*
X295257Y-140157D01*
X295219D01*
X295175Y-140152D01*
X295115D01*
X295044Y-140141D01*
X294962Y-140136D01*
X294875Y-140119D01*
X294771Y-140097D01*
X294667Y-140076D01*
X294558Y-140043D01*
X294449Y-140010D01*
X294340Y-139966D01*
X294231Y-139912D01*
X294121Y-139852D01*
X294018Y-139781D01*
X293925Y-139699D01*
X293919Y-139693D01*
X293903Y-139677D01*
X293881Y-139650D01*
X293848Y-139617D01*
X293810Y-139573D01*
X293772Y-139519D01*
X293728Y-139453D01*
X293685Y-139382D01*
X293635Y-139300D01*
X293592Y-139213D01*
X293553Y-139120D01*
X293515Y-139016D01*
X293483Y-138907D01*
X293461Y-138793D01*
X293444Y-138667D01*
X293439Y-138541D01*
Y-138536D01*
Y-138520D01*
Y-138498D01*
X293444Y-138465D01*
Y-138421D01*
X293450Y-138377D01*
X293455Y-138323D01*
X293466Y-138263D01*
X293494Y-138137D01*
X293532Y-137995D01*
X293586Y-137853D01*
X293657Y-137717D01*
X293663Y-137711D01*
X293668Y-137700D01*
X293679Y-137684D01*
X293701Y-137657D01*
X293750Y-137591D01*
X293821Y-137509D01*
X293908Y-137422D01*
X294012Y-137329D01*
X294138Y-137236D01*
X294280Y-137160D01*
X294285D01*
X294296Y-137149D01*
X294323Y-137138D01*
X294356Y-137127D01*
X294394Y-137111D01*
X294443Y-137089D01*
X294504Y-137067D01*
X294575Y-137045D01*
X294651Y-137018D01*
X294738Y-136991D01*
X294831Y-136963D01*
X294935Y-136936D01*
X295044Y-136903D01*
X295164Y-136876D01*
X295295Y-136849D01*
X295432Y-136821D01*
X295443D01*
X295476Y-136811D01*
X295530Y-136805D01*
X295596Y-136789D01*
X295677Y-136772D01*
X295776Y-136750D01*
X295880Y-136729D01*
X295989Y-136707D01*
X296223Y-136647D01*
X296453Y-136587D01*
X296562Y-136559D01*
X296666Y-136527D01*
X296759Y-136494D01*
X296841Y-136461D01*
Y-136319D01*
Y-136314D01*
Y-136303D01*
Y-136281D01*
X296835Y-136254D01*
Y-136215D01*
X296830Y-136177D01*
X296813Y-136090D01*
X296791Y-135992D01*
X296753Y-135893D01*
X296704Y-135800D01*
X296671Y-135762D01*
X296633Y-135724D01*
X296622Y-135719D01*
X296611Y-135708D01*
X296589Y-135697D01*
X296568Y-135680D01*
X296535Y-135669D01*
X296502Y-135653D01*
X296458Y-135631D01*
X296409Y-135615D01*
X296349Y-135598D01*
X296289Y-135588D01*
X296218Y-135571D01*
X296136Y-135560D01*
X296049Y-135549D01*
X295956Y-135544D01*
X295787D01*
X295754Y-135549D01*
X295716D01*
X295634Y-135560D01*
X295535Y-135582D01*
X295432Y-135609D01*
X295334Y-135647D01*
X295246Y-135697D01*
X295235Y-135702D01*
X295213Y-135724D01*
X295170Y-135768D01*
X295126Y-135822D01*
X295071Y-135893D01*
X295011Y-135986D01*
X294957Y-136101D01*
X294902Y-136232D01*
X293586Y-135997D01*
X293592Y-135986D01*
X293597Y-135964D01*
X293608Y-135921D01*
X293630Y-135866D01*
X293652Y-135800D01*
X293685Y-135724D01*
X293723Y-135642D01*
X293761Y-135555D01*
X293810Y-135456D01*
X293870Y-135364D01*
X293930Y-135265D01*
X294001Y-135167D01*
X294072Y-135074D01*
X294160Y-134981D01*
X294247Y-134899D01*
X294345Y-134823D01*
X294351Y-134818D01*
X294373Y-134807D01*
X294405Y-134785D01*
X294449Y-134763D01*
X294504Y-134736D01*
X294575Y-134703D01*
X294656Y-134665D01*
X294755Y-134626D01*
X294859Y-134594D01*
X294979Y-134555D01*
X295115Y-134523D01*
X295257Y-134495D01*
X295415Y-134474D01*
X295585Y-134452D01*
X295765Y-134441D01*
X295961Y-134435D01*
X296054D01*
X296120Y-134441D01*
D02*
G37*
G36*
X289344Y-136488D02*
X291037Y-134555D01*
X292822D01*
X290949Y-136559D01*
X292958Y-140032D01*
X291397D01*
X290016Y-137569D01*
X289344Y-138279D01*
Y-140032D01*
X287897D01*
Y-132475D01*
X289344D01*
Y-136488D01*
D02*
G37*
G36*
X280597Y-140032D02*
X279150D01*
Y-134555D01*
X280597D01*
Y-140032D01*
D02*
G37*
G36*
X268225Y-136488D02*
X269917Y-134555D01*
X271703D01*
X269830Y-136559D01*
X271839Y-140032D01*
X270278D01*
X268896Y-137569D01*
X268225Y-138279D01*
Y-140032D01*
X266778D01*
Y-132475D01*
X268225D01*
Y-136488D01*
D02*
G37*
G36*
X259996Y-133753D02*
X257758D01*
Y-140032D01*
X256235D01*
Y-133753D01*
X253990D01*
Y-132475D01*
X259996D01*
Y-133753D01*
D02*
G37*
G36*
X235967Y-136488D02*
X237660Y-134555D01*
X239445D01*
X237572Y-136559D01*
X239581Y-140032D01*
X238020D01*
X236638Y-137569D01*
X235967Y-138279D01*
Y-140032D01*
X234520D01*
Y-132475D01*
X235967D01*
Y-136488D01*
D02*
G37*
G36*
X227220Y-140032D02*
X225773D01*
Y-132475D01*
X227220D01*
Y-140032D01*
D02*
G37*
G36*
X224348Y-133753D02*
X220269D01*
Y-135429D01*
X224064D01*
Y-136707D01*
X220269D01*
Y-138754D01*
X224490D01*
Y-140032D01*
X218746D01*
Y-132475D01*
X224348D01*
Y-133753D01*
D02*
G37*
G36*
X263130Y-134441D02*
X263163D01*
X263251Y-134446D01*
X263354Y-134457D01*
X263469Y-134479D01*
X263605Y-134501D01*
X263747Y-134534D01*
X263895Y-134577D01*
X264053Y-134632D01*
X264212Y-134697D01*
X264375Y-134774D01*
X264534Y-134867D01*
X264686Y-134976D01*
X264834Y-135101D01*
X264970Y-135243D01*
X264976Y-135254D01*
X265003Y-135282D01*
X265036Y-135331D01*
X265080Y-135396D01*
X265134Y-135484D01*
X265194Y-135588D01*
X265254Y-135713D01*
X265320Y-135855D01*
X265385Y-136019D01*
X265451Y-136204D01*
X265506Y-136407D01*
X265560Y-136630D01*
X265598Y-136871D01*
X265631Y-137133D01*
X265648Y-137417D01*
X265653Y-137717D01*
X262022D01*
Y-137722D01*
Y-137744D01*
X262028Y-137777D01*
Y-137821D01*
X262033Y-137875D01*
X262044Y-137941D01*
X262055Y-138006D01*
X262071Y-138083D01*
X262109Y-138247D01*
X262137Y-138328D01*
X262170Y-138410D01*
X262213Y-138492D01*
X262257Y-138574D01*
X262306Y-138651D01*
X262366Y-138722D01*
X262371Y-138727D01*
X262382Y-138738D01*
X262399Y-138754D01*
X262426Y-138776D01*
X262459Y-138803D01*
X262503Y-138836D01*
X262546Y-138864D01*
X262601Y-138896D01*
X262655Y-138934D01*
X262721Y-138962D01*
X262863Y-139022D01*
X262945Y-139044D01*
X263027Y-139060D01*
X263114Y-139071D01*
X263207Y-139076D01*
X263240D01*
X263267Y-139071D01*
X263327Y-139066D01*
X263409Y-139055D01*
X263496Y-139033D01*
X263595Y-139000D01*
X263687Y-138956D01*
X263780Y-138896D01*
X263786D01*
X263791Y-138885D01*
X263818Y-138858D01*
X263862Y-138814D01*
X263911Y-138749D01*
X263971Y-138667D01*
X264031Y-138563D01*
X264086Y-138443D01*
X264135Y-138296D01*
X265577Y-138536D01*
X265571Y-138547D01*
X265566Y-138569D01*
X265549Y-138612D01*
X265522Y-138667D01*
X265495Y-138732D01*
X265456Y-138809D01*
X265413Y-138896D01*
X265358Y-138984D01*
X265303Y-139082D01*
X265238Y-139180D01*
X265161Y-139284D01*
X265085Y-139382D01*
X264998Y-139480D01*
X264905Y-139579D01*
X264801Y-139666D01*
X264692Y-139748D01*
X264686Y-139753D01*
X264665Y-139764D01*
X264632Y-139786D01*
X264583Y-139813D01*
X264523Y-139841D01*
X264457Y-139879D01*
X264370Y-139912D01*
X264277Y-139950D01*
X264173Y-139988D01*
X264064Y-140026D01*
X263938Y-140065D01*
X263808Y-140092D01*
X263666Y-140119D01*
X263513Y-140141D01*
X263354Y-140152D01*
X263191Y-140157D01*
X263130D01*
X263092Y-140152D01*
X263054D01*
X263010Y-140147D01*
X262956Y-140141D01*
X262836Y-140130D01*
X262705Y-140108D01*
X262552Y-140081D01*
X262388Y-140043D01*
X262219Y-139994D01*
X262044Y-139928D01*
X261869Y-139857D01*
X261695Y-139764D01*
X261525Y-139661D01*
X261367Y-139535D01*
X261214Y-139393D01*
X261077Y-139229D01*
X261072Y-139218D01*
X261056Y-139197D01*
X261028Y-139153D01*
X260996Y-139093D01*
X260952Y-139022D01*
X260908Y-138934D01*
X260859Y-138831D01*
X260810Y-138711D01*
X260755Y-138579D01*
X260706Y-138438D01*
X260663Y-138285D01*
X260624Y-138115D01*
X260586Y-137941D01*
X260559Y-137750D01*
X260542Y-137548D01*
X260537Y-137340D01*
Y-137335D01*
Y-137324D01*
Y-137307D01*
Y-137280D01*
X260542Y-137247D01*
Y-137209D01*
Y-137165D01*
X260548Y-137116D01*
X260559Y-137002D01*
X260575Y-136871D01*
X260597Y-136723D01*
X260624Y-136565D01*
X260663Y-136396D01*
X260712Y-136221D01*
X260766Y-136046D01*
X260837Y-135866D01*
X260919Y-135691D01*
X261012Y-135522D01*
X261121Y-135364D01*
X261247Y-135211D01*
X261258Y-135200D01*
X261280Y-135178D01*
X261318Y-135140D01*
X261372Y-135091D01*
X261443Y-135030D01*
X261531Y-134965D01*
X261629Y-134894D01*
X261738Y-134823D01*
X261864Y-134752D01*
X262000Y-134681D01*
X262148Y-134616D01*
X262306Y-134555D01*
X262475Y-134506D01*
X262655Y-134468D01*
X262846Y-134446D01*
X263049Y-134435D01*
X263103D01*
X263130Y-134441D01*
D02*
G37*
G36*
X250633D02*
X250665D01*
X250753Y-134446D01*
X250856Y-134457D01*
X250982Y-134479D01*
X251118Y-134501D01*
X251266Y-134534D01*
X251424Y-134577D01*
X251588Y-134632D01*
X251757Y-134697D01*
X251932Y-134774D01*
X252101Y-134867D01*
X252265Y-134976D01*
X252429Y-135101D01*
X252582Y-135243D01*
X252593Y-135254D01*
X252614Y-135282D01*
X252658Y-135325D01*
X252707Y-135391D01*
X252767Y-135467D01*
X252833Y-135566D01*
X252904Y-135675D01*
X252980Y-135800D01*
X253057Y-135942D01*
X253128Y-136095D01*
X253193Y-136265D01*
X253253Y-136445D01*
X253308Y-136641D01*
X253346Y-136843D01*
X253368Y-137062D01*
X253379Y-137285D01*
Y-137291D01*
Y-137302D01*
Y-137318D01*
Y-137340D01*
X253373Y-137367D01*
Y-137406D01*
X253368Y-137493D01*
X253357Y-137597D01*
X253335Y-137722D01*
X253313Y-137859D01*
X253281Y-138006D01*
X253237Y-138165D01*
X253182Y-138334D01*
X253117Y-138503D01*
X253040Y-138678D01*
X252947Y-138847D01*
X252844Y-139022D01*
X252718Y-139186D01*
X252576Y-139344D01*
X252565Y-139355D01*
X252538Y-139377D01*
X252494Y-139420D01*
X252434Y-139470D01*
X252352Y-139535D01*
X252260Y-139601D01*
X252150Y-139677D01*
X252025Y-139748D01*
X251883Y-139824D01*
X251730Y-139901D01*
X251566Y-139966D01*
X251386Y-140032D01*
X251195Y-140081D01*
X250993Y-140125D01*
X250780Y-140147D01*
X250556Y-140157D01*
X250480D01*
X250430Y-140152D01*
X250360Y-140147D01*
X250283Y-140141D01*
X250190Y-140130D01*
X250092Y-140114D01*
X249988Y-140097D01*
X249873Y-140076D01*
X249753Y-140048D01*
X249633Y-140015D01*
X249508Y-139977D01*
X249377Y-139928D01*
X249251Y-139879D01*
X249120Y-139819D01*
X249115Y-139813D01*
X249093Y-139803D01*
X249055Y-139781D01*
X249005Y-139753D01*
X248951Y-139721D01*
X248885Y-139677D01*
X248814Y-139628D01*
X248732Y-139568D01*
X248651Y-139502D01*
X248569Y-139426D01*
X248481Y-139344D01*
X248394Y-139257D01*
X248312Y-139158D01*
X248230Y-139055D01*
X248154Y-138945D01*
X248083Y-138825D01*
X248077Y-138820D01*
X248066Y-138793D01*
X248050Y-138760D01*
X248028Y-138705D01*
X248001Y-138645D01*
X247968Y-138569D01*
X247941Y-138476D01*
X247908Y-138377D01*
X247870Y-138263D01*
X247842Y-138143D01*
X247810Y-138012D01*
X247782Y-137870D01*
X247761Y-137717D01*
X247744Y-137558D01*
X247733Y-137395D01*
X247728Y-137220D01*
Y-137209D01*
Y-137187D01*
Y-137149D01*
X247733Y-137094D01*
X247739Y-137034D01*
X247744Y-136958D01*
X247755Y-136871D01*
X247772Y-136778D01*
X247793Y-136674D01*
X247815Y-136565D01*
X247842Y-136450D01*
X247875Y-136330D01*
X247919Y-136204D01*
X247968Y-136079D01*
X248023Y-135953D01*
X248083Y-135828D01*
X248088Y-135822D01*
X248099Y-135800D01*
X248121Y-135762D01*
X248148Y-135719D01*
X248186Y-135658D01*
X248230Y-135593D01*
X248279Y-135522D01*
X248339Y-135445D01*
X248410Y-135364D01*
X248487Y-135276D01*
X248569Y-135194D01*
X248656Y-135107D01*
X248754Y-135025D01*
X248858Y-134943D01*
X248967Y-134867D01*
X249087Y-134796D01*
X249093Y-134790D01*
X249115Y-134779D01*
X249153Y-134763D01*
X249202Y-134741D01*
X249262Y-134714D01*
X249339Y-134681D01*
X249420Y-134648D01*
X249513Y-134616D01*
X249617Y-134583D01*
X249732Y-134550D01*
X249852Y-134517D01*
X249977Y-134490D01*
X250114Y-134468D01*
X250250Y-134452D01*
X250398Y-134441D01*
X250545Y-134435D01*
X250600D01*
X250633Y-134441D01*
D02*
G37*
G36*
X241957Y-134555D02*
X242945D01*
Y-135708D01*
X241957D01*
Y-137919D01*
Y-137924D01*
Y-137946D01*
Y-137979D01*
Y-138028D01*
Y-138077D01*
Y-138137D01*
X241962Y-138268D01*
Y-138405D01*
X241968Y-138470D01*
Y-138536D01*
X241973Y-138591D01*
Y-138640D01*
X241978Y-138678D01*
X241984Y-138705D01*
Y-138711D01*
X241989Y-138722D01*
X242000Y-138743D01*
X242011Y-138771D01*
X242027Y-138798D01*
X242049Y-138825D01*
X242077Y-138858D01*
X242109Y-138885D01*
X242115Y-138891D01*
X242126Y-138896D01*
X242148Y-138907D01*
X242180Y-138918D01*
X242213Y-138934D01*
X242257Y-138945D01*
X242306Y-138951D01*
X242355Y-138956D01*
X242393D01*
X242437Y-138951D01*
X242503Y-138940D01*
X242584Y-138924D01*
X242688Y-138896D01*
X242803Y-138864D01*
X242939Y-138820D01*
X243065Y-139945D01*
X243059D01*
X243043Y-139955D01*
X243016Y-139966D01*
X242978Y-139977D01*
X242928Y-139994D01*
X242868Y-140010D01*
X242803Y-140032D01*
X242732Y-140048D01*
X242650Y-140070D01*
X242563Y-140092D01*
X242470Y-140108D01*
X242366Y-140125D01*
X242153Y-140147D01*
X241918Y-140157D01*
X241853D01*
X241820Y-140152D01*
X241782D01*
X241684Y-140141D01*
X241574Y-140125D01*
X241460Y-140103D01*
X241334Y-140070D01*
X241214Y-140026D01*
X241209D01*
X241203Y-140021D01*
X241187Y-140015D01*
X241165Y-140005D01*
X241110Y-139972D01*
X241039Y-139934D01*
X240963Y-139884D01*
X240892Y-139830D01*
X240815Y-139764D01*
X240755Y-139688D01*
X240750Y-139677D01*
X240734Y-139650D01*
X240706Y-139601D01*
X240673Y-139541D01*
X240641Y-139459D01*
X240608Y-139360D01*
X240575Y-139246D01*
X240553Y-139120D01*
Y-139115D01*
Y-139109D01*
X240548Y-139093D01*
Y-139071D01*
X240542Y-139038D01*
Y-139000D01*
X240537Y-138951D01*
X240531Y-138896D01*
X240526Y-138836D01*
Y-138760D01*
X240521Y-138678D01*
X240515Y-138585D01*
Y-138481D01*
X240510Y-138361D01*
Y-138236D01*
Y-138099D01*
Y-135708D01*
X239844D01*
Y-134555D01*
X240510D01*
Y-133469D01*
X241957Y-132617D01*
Y-134555D01*
D02*
G37*
G36*
X230873Y-134441D02*
X230906D01*
X230993Y-134446D01*
X231097Y-134457D01*
X231211Y-134479D01*
X231348Y-134501D01*
X231490Y-134534D01*
X231637Y-134577D01*
X231796Y-134632D01*
X231954Y-134697D01*
X232118Y-134774D01*
X232276Y-134867D01*
X232429Y-134976D01*
X232576Y-135101D01*
X232713Y-135243D01*
X232718Y-135254D01*
X232746Y-135282D01*
X232778Y-135331D01*
X232822Y-135396D01*
X232877Y-135484D01*
X232937Y-135588D01*
X232997Y-135713D01*
X233062Y-135855D01*
X233128Y-136019D01*
X233193Y-136204D01*
X233248Y-136407D01*
X233302Y-136630D01*
X233341Y-136871D01*
X233373Y-137133D01*
X233390Y-137417D01*
X233395Y-137717D01*
X229764D01*
Y-137722D01*
Y-137744D01*
X229770Y-137777D01*
Y-137821D01*
X229775Y-137875D01*
X229786Y-137941D01*
X229797Y-138006D01*
X229814Y-138083D01*
X229852Y-138247D01*
X229879Y-138328D01*
X229912Y-138410D01*
X229956Y-138492D01*
X229999Y-138574D01*
X230048Y-138651D01*
X230108Y-138722D01*
X230114Y-138727D01*
X230125Y-138738D01*
X230141Y-138754D01*
X230168Y-138776D01*
X230201Y-138803D01*
X230245Y-138836D01*
X230289Y-138864D01*
X230343Y-138896D01*
X230398Y-138934D01*
X230463Y-138962D01*
X230605Y-139022D01*
X230687Y-139044D01*
X230769Y-139060D01*
X230856Y-139071D01*
X230949Y-139076D01*
X230982D01*
X231009Y-139071D01*
X231069Y-139066D01*
X231151Y-139055D01*
X231239Y-139033D01*
X231337Y-139000D01*
X231430Y-138956D01*
X231522Y-138896D01*
X231528D01*
X231533Y-138885D01*
X231561Y-138858D01*
X231604Y-138814D01*
X231653Y-138749D01*
X231714Y-138667D01*
X231774Y-138563D01*
X231828Y-138443D01*
X231877Y-138296D01*
X233319Y-138536D01*
X233313Y-138547D01*
X233308Y-138569D01*
X233292Y-138612D01*
X233264Y-138667D01*
X233237Y-138732D01*
X233199Y-138809D01*
X233155Y-138896D01*
X233100Y-138984D01*
X233046Y-139082D01*
X232980Y-139180D01*
X232904Y-139284D01*
X232827Y-139382D01*
X232740Y-139480D01*
X232647Y-139579D01*
X232543Y-139666D01*
X232434Y-139748D01*
X232429Y-139753D01*
X232407Y-139764D01*
X232374Y-139786D01*
X232325Y-139813D01*
X232265Y-139841D01*
X232200Y-139879D01*
X232112Y-139912D01*
X232019Y-139950D01*
X231916Y-139988D01*
X231806Y-140026D01*
X231681Y-140065D01*
X231550Y-140092D01*
X231408Y-140119D01*
X231255Y-140141D01*
X231097Y-140152D01*
X230933Y-140157D01*
X230873D01*
X230835Y-140152D01*
X230796D01*
X230753Y-140147D01*
X230698Y-140141D01*
X230578Y-140130D01*
X230447Y-140108D01*
X230294Y-140081D01*
X230130Y-140043D01*
X229961Y-139994D01*
X229786Y-139928D01*
X229611Y-139857D01*
X229437Y-139764D01*
X229268Y-139661D01*
X229109Y-139535D01*
X228956Y-139393D01*
X228820Y-139229D01*
X228814Y-139218D01*
X228798Y-139197D01*
X228771Y-139153D01*
X228738Y-139093D01*
X228694Y-139022D01*
X228650Y-138934D01*
X228601Y-138831D01*
X228552Y-138711D01*
X228498Y-138579D01*
X228449Y-138438D01*
X228405Y-138285D01*
X228367Y-138115D01*
X228328Y-137941D01*
X228301Y-137750D01*
X228285Y-137548D01*
X228279Y-137340D01*
Y-137335D01*
Y-137324D01*
Y-137307D01*
Y-137280D01*
X228285Y-137247D01*
Y-137209D01*
Y-137165D01*
X228290Y-137116D01*
X228301Y-137002D01*
X228317Y-136871D01*
X228339Y-136723D01*
X228367Y-136565D01*
X228405Y-136396D01*
X228454Y-136221D01*
X228509Y-136046D01*
X228580Y-135866D01*
X228661Y-135691D01*
X228754Y-135522D01*
X228864Y-135364D01*
X228989Y-135211D01*
X229000Y-135200D01*
X229022Y-135178D01*
X229060Y-135140D01*
X229115Y-135091D01*
X229186Y-135030D01*
X229273Y-134965D01*
X229371Y-134894D01*
X229481Y-134823D01*
X229606Y-134752D01*
X229743Y-134681D01*
X229890Y-134616D01*
X230048Y-134555D01*
X230218Y-134506D01*
X230398Y-134468D01*
X230589Y-134446D01*
X230791Y-134435D01*
X230845D01*
X230873Y-134441D01*
D02*
G37*
G36*
X187311Y-49674D02*
X185380D01*
Y-47888D01*
X187311D01*
Y-49674D01*
D02*
G37*
G36*
X146590D02*
X144658D01*
Y-47888D01*
X146590D01*
Y-49674D01*
D02*
G37*
G36*
X171230Y-50914D02*
X170486Y-51774D01*
X170493Y-51781D01*
X170508Y-51796D01*
X170530Y-51825D01*
X170552Y-51862D01*
X170588Y-51905D01*
X170632Y-51964D01*
X170676Y-52029D01*
X170727Y-52102D01*
X170778Y-52182D01*
X170829Y-52270D01*
X170938Y-52467D01*
X171040Y-52693D01*
X171135Y-52933D01*
Y-52940D01*
X171142Y-52962D01*
X171157Y-52999D01*
X171171Y-53050D01*
X171193Y-53108D01*
X171208Y-53181D01*
X171230Y-53268D01*
X171259Y-53363D01*
X171281Y-53465D01*
X171303Y-53575D01*
X171339Y-53808D01*
X171368Y-54070D01*
X171376Y-54340D01*
Y-54347D01*
Y-54362D01*
Y-54384D01*
Y-54413D01*
X171368Y-54449D01*
Y-54501D01*
X171361Y-54610D01*
X171339Y-54748D01*
X171317Y-54916D01*
X171288Y-55098D01*
X171237Y-55295D01*
X171186Y-55499D01*
X171113Y-55718D01*
X171026Y-55944D01*
X170916Y-56177D01*
X170792Y-56403D01*
X170647Y-56629D01*
X170479Y-56848D01*
X170289Y-57059D01*
X170275Y-57074D01*
X170238Y-57103D01*
X170180Y-57161D01*
X170093Y-57227D01*
X169991Y-57314D01*
X169859Y-57402D01*
X169713Y-57504D01*
X169546Y-57599D01*
X169356Y-57701D01*
X169152Y-57803D01*
X168933Y-57890D01*
X168693Y-57978D01*
X168438Y-58043D01*
X168161Y-58102D01*
X167876Y-58131D01*
X167578Y-58145D01*
X167526D01*
X167461Y-58138D01*
X167381D01*
X167279Y-58131D01*
X167155Y-58116D01*
X167024Y-58095D01*
X166870Y-58073D01*
X166710Y-58043D01*
X166542Y-58007D01*
X166367Y-57956D01*
X166192Y-57905D01*
X166010Y-57839D01*
X165828Y-57759D01*
X165646Y-57672D01*
X165471Y-57570D01*
X164676Y-58481D01*
X163918Y-57832D01*
X164720Y-56906D01*
X164713Y-56899D01*
X164705Y-56884D01*
X164683Y-56855D01*
X164654Y-56819D01*
X164618Y-56768D01*
X164574Y-56709D01*
X164530Y-56644D01*
X164479Y-56571D01*
X164428Y-56491D01*
X164377Y-56396D01*
X164268Y-56199D01*
X164158Y-55966D01*
X164064Y-55718D01*
Y-55711D01*
X164056Y-55689D01*
X164042Y-55645D01*
X164027Y-55594D01*
X164013Y-55536D01*
X163991Y-55455D01*
X163969Y-55375D01*
X163947Y-55273D01*
X163925Y-55171D01*
X163903Y-55062D01*
X163867Y-54821D01*
X163838Y-54559D01*
X163830Y-54289D01*
Y-54282D01*
Y-54267D01*
Y-54245D01*
Y-54216D01*
X163838Y-54180D01*
Y-54129D01*
X163845Y-54012D01*
X163860Y-53874D01*
X163889Y-53706D01*
X163918Y-53524D01*
X163962Y-53327D01*
X164020Y-53115D01*
X164086Y-52897D01*
X164173Y-52671D01*
X164275Y-52445D01*
X164392Y-52219D01*
X164538Y-51993D01*
X164698Y-51774D01*
X164880Y-51570D01*
X164895Y-51555D01*
X164931Y-51526D01*
X164990Y-51468D01*
X165070Y-51402D01*
X165179Y-51322D01*
X165303Y-51235D01*
X165449Y-51140D01*
X165617Y-51038D01*
X165799Y-50936D01*
X166010Y-50841D01*
X166229Y-50753D01*
X166469Y-50673D01*
X166725Y-50600D01*
X167002Y-50549D01*
X167286Y-50520D01*
X167592Y-50506D01*
X167643D01*
X167709Y-50513D01*
X167796D01*
X167905Y-50528D01*
X168029Y-50535D01*
X168168Y-50557D01*
X168321Y-50578D01*
X168482Y-50615D01*
X168656Y-50651D01*
X168831Y-50702D01*
X169014Y-50761D01*
X169203Y-50826D01*
X169385Y-50914D01*
X169568Y-51001D01*
X169743Y-51111D01*
X170457Y-50280D01*
X171230Y-50914D01*
D02*
G37*
G36*
X214110Y-50513D02*
X214233Y-50520D01*
X214372Y-50535D01*
X214532Y-50549D01*
X214707Y-50564D01*
X214882Y-50593D01*
X215065Y-50630D01*
X215254Y-50666D01*
X215436Y-50717D01*
X215619Y-50768D01*
X215786Y-50841D01*
X215947Y-50914D01*
X216092Y-51001D01*
X216100Y-51009D01*
X216122Y-51023D01*
X216165Y-51052D01*
X216209Y-51089D01*
X216267Y-51147D01*
X216340Y-51205D01*
X216413Y-51278D01*
X216493Y-51366D01*
X216574Y-51461D01*
X216661Y-51570D01*
X216741Y-51687D01*
X216822Y-51818D01*
X216902Y-51956D01*
X216974Y-52109D01*
X217040Y-52270D01*
X217098Y-52445D01*
X215276Y-52780D01*
Y-52773D01*
X215269Y-52758D01*
X215261Y-52736D01*
X215254Y-52707D01*
X215218Y-52634D01*
X215174Y-52539D01*
X215108Y-52438D01*
X215035Y-52328D01*
X214941Y-52226D01*
X214824Y-52131D01*
X214809Y-52124D01*
X214788Y-52109D01*
X214766Y-52095D01*
X214729Y-52080D01*
X214693Y-52058D01*
X214591Y-52015D01*
X214459Y-51971D01*
X214299Y-51934D01*
X214110Y-51905D01*
X213898Y-51898D01*
X213774D01*
X213709Y-51905D01*
X213636Y-51913D01*
X213563D01*
X213475Y-51927D01*
X213293Y-51949D01*
X213111Y-51993D01*
X212943Y-52044D01*
X212870Y-52080D01*
X212805Y-52117D01*
X212797Y-52124D01*
X212768Y-52146D01*
X212739Y-52175D01*
X212695Y-52219D01*
X212659Y-52277D01*
X212622Y-52343D01*
X212593Y-52423D01*
X212586Y-52510D01*
Y-52518D01*
Y-52547D01*
X212593Y-52583D01*
X212608Y-52627D01*
X212630Y-52685D01*
X212666Y-52744D01*
X212710Y-52802D01*
X212775Y-52860D01*
X212790Y-52868D01*
X212812Y-52882D01*
X212841Y-52897D01*
X212885Y-52911D01*
X212943Y-52940D01*
X213009Y-52970D01*
X213096Y-52999D01*
X213206Y-53035D01*
X213330Y-53072D01*
X213475Y-53123D01*
X213643Y-53166D01*
X213840Y-53218D01*
X214058Y-53276D01*
X214299Y-53334D01*
X214438Y-53371D01*
X214576Y-53400D01*
X214583D01*
X214591Y-53407D01*
X214613D01*
X214642Y-53414D01*
X214722Y-53436D01*
X214824Y-53465D01*
X214955Y-53495D01*
X215101Y-53538D01*
X215254Y-53582D01*
X215429Y-53640D01*
X215779Y-53764D01*
X215961Y-53837D01*
X216136Y-53910D01*
X216311Y-53990D01*
X216464Y-54078D01*
X216610Y-54165D01*
X216734Y-54260D01*
X216741Y-54267D01*
X216763Y-54282D01*
X216792Y-54311D01*
X216829Y-54355D01*
X216880Y-54406D01*
X216931Y-54471D01*
X216982Y-54544D01*
X217040Y-54632D01*
X217098Y-54734D01*
X217149Y-54836D01*
X217208Y-54953D01*
X217252Y-55084D01*
X217288Y-55222D01*
X217317Y-55368D01*
X217339Y-55528D01*
X217346Y-55696D01*
Y-55711D01*
Y-55740D01*
X217339Y-55791D01*
X217332Y-55864D01*
X217317Y-55951D01*
X217303Y-56053D01*
X217273Y-56163D01*
X217244Y-56287D01*
X217193Y-56418D01*
X217142Y-56556D01*
X217069Y-56702D01*
X216989Y-56848D01*
X216894Y-56994D01*
X216778Y-57139D01*
X216647Y-57285D01*
X216501Y-57424D01*
X216493Y-57431D01*
X216464Y-57453D01*
X216413Y-57489D01*
X216348Y-57533D01*
X216253Y-57591D01*
X216151Y-57650D01*
X216020Y-57715D01*
X215874Y-57781D01*
X215713Y-57854D01*
X215524Y-57920D01*
X215327Y-57978D01*
X215101Y-58029D01*
X214860Y-58080D01*
X214598Y-58116D01*
X214321Y-58138D01*
X214022Y-58145D01*
X213956D01*
X213876Y-58138D01*
X213774D01*
X213650Y-58124D01*
X213505Y-58116D01*
X213344Y-58095D01*
X213169Y-58073D01*
X212980Y-58036D01*
X212790Y-58000D01*
X212593Y-57949D01*
X212389Y-57890D01*
X212200Y-57818D01*
X212003Y-57737D01*
X211821Y-57650D01*
X211653Y-57540D01*
X211646Y-57533D01*
X211616Y-57511D01*
X211573Y-57475D01*
X211514Y-57431D01*
X211441Y-57366D01*
X211361Y-57293D01*
X211281Y-57205D01*
X211186Y-57110D01*
X211091Y-56994D01*
X210997Y-56870D01*
X210902Y-56739D01*
X210807Y-56593D01*
X210727Y-56432D01*
X210647Y-56265D01*
X210581Y-56082D01*
X210523Y-55893D01*
X212462Y-55594D01*
Y-55601D01*
X212469Y-55616D01*
X212477Y-55645D01*
X212484Y-55689D01*
X212498Y-55733D01*
X212520Y-55791D01*
X212571Y-55915D01*
X212637Y-56053D01*
X212717Y-56199D01*
X212826Y-56330D01*
X212958Y-56454D01*
X212965D01*
X212972Y-56469D01*
X212994Y-56483D01*
X213031Y-56498D01*
X213067Y-56520D01*
X213111Y-56549D01*
X213169Y-56571D01*
X213235Y-56600D01*
X213308Y-56629D01*
X213388Y-56651D01*
X213475Y-56680D01*
X213570Y-56702D01*
X213672Y-56717D01*
X213781Y-56731D01*
X213898Y-56746D01*
X214095D01*
X214146Y-56739D01*
X214212D01*
X214277Y-56731D01*
X214357Y-56724D01*
X214445Y-56709D01*
X214627Y-56680D01*
X214817Y-56629D01*
X214992Y-56564D01*
X215079Y-56520D01*
X215152Y-56476D01*
X215167Y-56469D01*
X215196Y-56440D01*
X215232Y-56396D01*
X215283Y-56338D01*
X215327Y-56265D01*
X215371Y-56177D01*
X215400Y-56075D01*
X215407Y-55958D01*
Y-55951D01*
Y-55922D01*
X215400Y-55878D01*
X215393Y-55827D01*
X215371Y-55776D01*
X215349Y-55711D01*
X215312Y-55652D01*
X215269Y-55594D01*
X215261Y-55587D01*
X215240Y-55572D01*
X215196Y-55543D01*
X215130Y-55506D01*
X215050Y-55470D01*
X214933Y-55426D01*
X214868Y-55405D01*
X214795Y-55383D01*
X214707Y-55361D01*
X214620Y-55339D01*
X214613D01*
X214591Y-55332D01*
X214562Y-55324D01*
X214518Y-55317D01*
X214467Y-55302D01*
X214401Y-55288D01*
X214328Y-55273D01*
X214248Y-55251D01*
X214153Y-55230D01*
X214058Y-55208D01*
X213847Y-55149D01*
X213614Y-55091D01*
X213373Y-55025D01*
X213118Y-54960D01*
X212870Y-54880D01*
X212622Y-54807D01*
X212382Y-54726D01*
X212163Y-54639D01*
X211959Y-54559D01*
X211872Y-54522D01*
X211791Y-54479D01*
X211718Y-54435D01*
X211653Y-54399D01*
X211646Y-54391D01*
X211616Y-54369D01*
X211573Y-54340D01*
X211522Y-54289D01*
X211456Y-54231D01*
X211383Y-54158D01*
X211303Y-54070D01*
X211223Y-53968D01*
X211142Y-53859D01*
X211062Y-53735D01*
X210989Y-53604D01*
X210924Y-53451D01*
X210873Y-53298D01*
X210829Y-53123D01*
X210800Y-52940D01*
X210793Y-52751D01*
Y-52736D01*
Y-52707D01*
X210800Y-52656D01*
X210807Y-52591D01*
X210814Y-52510D01*
X210829Y-52416D01*
X210858Y-52314D01*
X210887Y-52197D01*
X210924Y-52073D01*
X210975Y-51942D01*
X211033Y-51810D01*
X211106Y-51679D01*
X211194Y-51541D01*
X211288Y-51410D01*
X211405Y-51278D01*
X211536Y-51154D01*
X211543Y-51147D01*
X211573Y-51125D01*
X211616Y-51096D01*
X211682Y-51052D01*
X211762Y-51001D01*
X211857Y-50950D01*
X211974Y-50892D01*
X212112Y-50826D01*
X212265Y-50768D01*
X212433Y-50710D01*
X212622Y-50659D01*
X212834Y-50608D01*
X213060Y-50564D01*
X213308Y-50535D01*
X213577Y-50513D01*
X213862Y-50506D01*
X214007D01*
X214110Y-50513D01*
D02*
G37*
G36*
X151474D02*
X151598Y-50520D01*
X151736Y-50535D01*
X151897Y-50549D01*
X152072Y-50564D01*
X152247Y-50593D01*
X152429Y-50630D01*
X152618Y-50666D01*
X152801Y-50717D01*
X152983Y-50768D01*
X153151Y-50841D01*
X153311Y-50914D01*
X153457Y-51001D01*
X153464Y-51009D01*
X153486Y-51023D01*
X153530Y-51052D01*
X153573Y-51089D01*
X153632Y-51147D01*
X153705Y-51205D01*
X153778Y-51278D01*
X153858Y-51366D01*
X153938Y-51461D01*
X154025Y-51570D01*
X154106Y-51687D01*
X154186Y-51818D01*
X154266Y-51956D01*
X154339Y-52109D01*
X154404Y-52270D01*
X154463Y-52445D01*
X152640Y-52780D01*
Y-52773D01*
X152633Y-52758D01*
X152626Y-52736D01*
X152618Y-52707D01*
X152582Y-52634D01*
X152538Y-52539D01*
X152473Y-52438D01*
X152400Y-52328D01*
X152305Y-52226D01*
X152188Y-52131D01*
X152174Y-52124D01*
X152152Y-52109D01*
X152130Y-52095D01*
X152094Y-52080D01*
X152057Y-52058D01*
X151955Y-52015D01*
X151824Y-51971D01*
X151663Y-51934D01*
X151474Y-51905D01*
X151262Y-51898D01*
X151139D01*
X151073Y-51905D01*
X151000Y-51913D01*
X150927D01*
X150840Y-51927D01*
X150657Y-51949D01*
X150475Y-51993D01*
X150308Y-52044D01*
X150235Y-52080D01*
X150169Y-52117D01*
X150162Y-52124D01*
X150133Y-52146D01*
X150103Y-52175D01*
X150060Y-52219D01*
X150023Y-52277D01*
X149987Y-52343D01*
X149958Y-52423D01*
X149950Y-52510D01*
Y-52518D01*
Y-52547D01*
X149958Y-52583D01*
X149972Y-52627D01*
X149994Y-52685D01*
X150031Y-52744D01*
X150074Y-52802D01*
X150140Y-52860D01*
X150154Y-52868D01*
X150176Y-52882D01*
X150205Y-52897D01*
X150249Y-52911D01*
X150308Y-52940D01*
X150373Y-52970D01*
X150461Y-52999D01*
X150570Y-53035D01*
X150694Y-53072D01*
X150840Y-53123D01*
X151007Y-53166D01*
X151204Y-53218D01*
X151423Y-53276D01*
X151663Y-53334D01*
X151802Y-53371D01*
X151941Y-53400D01*
X151948D01*
X151955Y-53407D01*
X151977D01*
X152006Y-53414D01*
X152086Y-53436D01*
X152188Y-53465D01*
X152320Y-53495D01*
X152465Y-53538D01*
X152618Y-53582D01*
X152793Y-53640D01*
X153143Y-53764D01*
X153325Y-53837D01*
X153500Y-53910D01*
X153675Y-53990D01*
X153829Y-54078D01*
X153974Y-54165D01*
X154098Y-54260D01*
X154106Y-54267D01*
X154127Y-54282D01*
X154157Y-54311D01*
X154193Y-54355D01*
X154244Y-54406D01*
X154295Y-54471D01*
X154346Y-54544D01*
X154404Y-54632D01*
X154463Y-54734D01*
X154514Y-54836D01*
X154572Y-54953D01*
X154616Y-55084D01*
X154652Y-55222D01*
X154682Y-55368D01*
X154703Y-55528D01*
X154711Y-55696D01*
Y-55711D01*
Y-55740D01*
X154703Y-55791D01*
X154696Y-55864D01*
X154682Y-55951D01*
X154667Y-56053D01*
X154638Y-56163D01*
X154609Y-56287D01*
X154558Y-56418D01*
X154507Y-56556D01*
X154434Y-56702D01*
X154353Y-56848D01*
X154259Y-56994D01*
X154142Y-57139D01*
X154011Y-57285D01*
X153865Y-57424D01*
X153858Y-57431D01*
X153829Y-57453D01*
X153778Y-57489D01*
X153712Y-57533D01*
X153617Y-57591D01*
X153515Y-57650D01*
X153384Y-57715D01*
X153238Y-57781D01*
X153078Y-57854D01*
X152888Y-57920D01*
X152691Y-57978D01*
X152465Y-58029D01*
X152225Y-58080D01*
X151962Y-58116D01*
X151685Y-58138D01*
X151386Y-58145D01*
X151321D01*
X151241Y-58138D01*
X151139D01*
X151015Y-58124D01*
X150869Y-58116D01*
X150708Y-58095D01*
X150533Y-58073D01*
X150344Y-58036D01*
X150154Y-58000D01*
X149958Y-57949D01*
X149753Y-57890D01*
X149564Y-57818D01*
X149367Y-57737D01*
X149185Y-57650D01*
X149017Y-57540D01*
X149010Y-57533D01*
X148981Y-57511D01*
X148937Y-57475D01*
X148879Y-57431D01*
X148806Y-57366D01*
X148726Y-57293D01*
X148645Y-57205D01*
X148551Y-57110D01*
X148456Y-56994D01*
X148361Y-56870D01*
X148266Y-56739D01*
X148171Y-56593D01*
X148091Y-56432D01*
X148011Y-56265D01*
X147945Y-56082D01*
X147887Y-55893D01*
X149826Y-55594D01*
Y-55601D01*
X149834Y-55616D01*
X149841Y-55645D01*
X149848Y-55689D01*
X149863Y-55733D01*
X149885Y-55791D01*
X149936Y-55915D01*
X150001Y-56053D01*
X150082Y-56199D01*
X150191Y-56330D01*
X150322Y-56454D01*
X150329D01*
X150337Y-56469D01*
X150358Y-56483D01*
X150395Y-56498D01*
X150431Y-56520D01*
X150475Y-56549D01*
X150533Y-56571D01*
X150599Y-56600D01*
X150672Y-56629D01*
X150752Y-56651D01*
X150840Y-56680D01*
X150934Y-56702D01*
X151037Y-56717D01*
X151146Y-56731D01*
X151262Y-56746D01*
X151459D01*
X151510Y-56739D01*
X151576D01*
X151642Y-56731D01*
X151722Y-56724D01*
X151809Y-56709D01*
X151991Y-56680D01*
X152181Y-56629D01*
X152356Y-56564D01*
X152444Y-56520D01*
X152516Y-56476D01*
X152531Y-56469D01*
X152560Y-56440D01*
X152597Y-56396D01*
X152648Y-56338D01*
X152691Y-56265D01*
X152735Y-56177D01*
X152764Y-56075D01*
X152771Y-55958D01*
Y-55951D01*
Y-55922D01*
X152764Y-55878D01*
X152757Y-55827D01*
X152735Y-55776D01*
X152713Y-55711D01*
X152677Y-55652D01*
X152633Y-55594D01*
X152626Y-55587D01*
X152604Y-55572D01*
X152560Y-55543D01*
X152495Y-55506D01*
X152414Y-55470D01*
X152298Y-55426D01*
X152232Y-55405D01*
X152159Y-55383D01*
X152072Y-55361D01*
X151984Y-55339D01*
X151977D01*
X151955Y-55332D01*
X151926Y-55324D01*
X151882Y-55317D01*
X151831Y-55302D01*
X151766Y-55288D01*
X151693Y-55273D01*
X151612Y-55251D01*
X151518Y-55230D01*
X151423Y-55208D01*
X151211Y-55149D01*
X150978Y-55091D01*
X150738Y-55025D01*
X150482Y-54960D01*
X150235Y-54880D01*
X149987Y-54807D01*
X149746Y-54726D01*
X149528Y-54639D01*
X149323Y-54559D01*
X149236Y-54522D01*
X149156Y-54479D01*
X149083Y-54435D01*
X149017Y-54399D01*
X149010Y-54391D01*
X148981Y-54369D01*
X148937Y-54340D01*
X148886Y-54289D01*
X148820Y-54231D01*
X148747Y-54158D01*
X148667Y-54070D01*
X148587Y-53968D01*
X148507Y-53859D01*
X148427Y-53735D01*
X148354Y-53604D01*
X148288Y-53451D01*
X148237Y-53298D01*
X148193Y-53123D01*
X148164Y-52940D01*
X148157Y-52751D01*
Y-52736D01*
Y-52707D01*
X148164Y-52656D01*
X148171Y-52591D01*
X148179Y-52510D01*
X148193Y-52416D01*
X148223Y-52314D01*
X148252Y-52197D01*
X148288Y-52073D01*
X148339Y-51942D01*
X148398Y-51810D01*
X148470Y-51679D01*
X148558Y-51541D01*
X148653Y-51410D01*
X148769Y-51278D01*
X148900Y-51154D01*
X148908Y-51147D01*
X148937Y-51125D01*
X148981Y-51096D01*
X149046Y-51052D01*
X149127Y-51001D01*
X149221Y-50950D01*
X149338Y-50892D01*
X149476Y-50826D01*
X149629Y-50768D01*
X149797Y-50710D01*
X149987Y-50659D01*
X150198Y-50608D01*
X150424Y-50564D01*
X150672Y-50535D01*
X150942Y-50513D01*
X151226Y-50506D01*
X151372D01*
X151474Y-50513D01*
D02*
G37*
G36*
X159741D02*
X159857Y-50520D01*
X159989Y-50535D01*
X160134Y-50557D01*
X160287Y-50578D01*
X160455Y-50608D01*
X160623Y-50644D01*
X160805Y-50695D01*
X160980Y-50753D01*
X161155Y-50819D01*
X161330Y-50899D01*
X161490Y-50987D01*
X161643Y-51089D01*
X161651Y-51096D01*
X161680Y-51118D01*
X161716Y-51147D01*
X161775Y-51198D01*
X161840Y-51257D01*
X161913Y-51329D01*
X161993Y-51424D01*
X162081Y-51526D01*
X162176Y-51636D01*
X162270Y-51767D01*
X162365Y-51913D01*
X162453Y-52073D01*
X162547Y-52241D01*
X162635Y-52423D01*
X162708Y-52627D01*
X162781Y-52838D01*
X160878Y-53181D01*
Y-53174D01*
X160871Y-53159D01*
X160863Y-53130D01*
X160856Y-53086D01*
X160842Y-53043D01*
X160827Y-52984D01*
X160783Y-52860D01*
X160725Y-52722D01*
X160645Y-52576D01*
X160550Y-52445D01*
X160433Y-52321D01*
X160426D01*
X160419Y-52306D01*
X160397Y-52292D01*
X160375Y-52277D01*
X160295Y-52226D01*
X160193Y-52175D01*
X160069Y-52124D01*
X159916Y-52073D01*
X159741Y-52044D01*
X159551Y-52029D01*
X159478D01*
X159427Y-52036D01*
X159369Y-52044D01*
X159296Y-52058D01*
X159216Y-52073D01*
X159136Y-52095D01*
X159041Y-52117D01*
X158946Y-52153D01*
X158851Y-52190D01*
X158757Y-52241D01*
X158662Y-52299D01*
X158567Y-52364D01*
X158480Y-52445D01*
X158392Y-52532D01*
X158385Y-52539D01*
X158370Y-52554D01*
X158356Y-52583D01*
X158326Y-52627D01*
X158290Y-52685D01*
X158254Y-52751D01*
X158217Y-52831D01*
X158181Y-52926D01*
X158137Y-53035D01*
X158100Y-53159D01*
X158064Y-53298D01*
X158028Y-53443D01*
X157998Y-53611D01*
X157984Y-53793D01*
X157969Y-53990D01*
X157962Y-54202D01*
Y-54216D01*
Y-54260D01*
Y-54326D01*
X157969Y-54413D01*
X157977Y-54522D01*
X157984Y-54639D01*
X157998Y-54777D01*
X158020Y-54916D01*
X158071Y-55222D01*
X158108Y-55375D01*
X158144Y-55521D01*
X158195Y-55667D01*
X158254Y-55805D01*
X158319Y-55929D01*
X158399Y-56039D01*
X158407Y-56046D01*
X158421Y-56061D01*
X158443Y-56090D01*
X158480Y-56119D01*
X158523Y-56163D01*
X158574Y-56206D01*
X158640Y-56257D01*
X158713Y-56301D01*
X158793Y-56352D01*
X158880Y-56403D01*
X158975Y-56447D01*
X159077Y-56491D01*
X159194Y-56520D01*
X159311Y-56549D01*
X159442Y-56564D01*
X159573Y-56571D01*
X159624D01*
X159668Y-56564D01*
X159712D01*
X159763Y-56556D01*
X159894Y-56534D01*
X160032Y-56491D01*
X160185Y-56440D01*
X160331Y-56359D01*
X160404Y-56316D01*
X160470Y-56257D01*
X160477Y-56250D01*
X160484Y-56243D01*
X160506Y-56221D01*
X160528Y-56199D01*
X160557Y-56163D01*
X160594Y-56119D01*
X160630Y-56068D01*
X160667Y-56002D01*
X160710Y-55937D01*
X160747Y-55857D01*
X160791Y-55769D01*
X160834Y-55667D01*
X160871Y-55565D01*
X160907Y-55441D01*
X160944Y-55317D01*
X160973Y-55178D01*
X162875Y-55499D01*
Y-55514D01*
X162861Y-55558D01*
X162839Y-55623D01*
X162817Y-55718D01*
X162781Y-55827D01*
X162737Y-55951D01*
X162686Y-56090D01*
X162620Y-56235D01*
X162547Y-56396D01*
X162467Y-56556D01*
X162372Y-56724D01*
X162270Y-56892D01*
X162154Y-57052D01*
X162030Y-57205D01*
X161891Y-57351D01*
X161738Y-57482D01*
X161731Y-57489D01*
X161702Y-57511D01*
X161651Y-57540D01*
X161585Y-57584D01*
X161498Y-57635D01*
X161396Y-57693D01*
X161279Y-57752D01*
X161140Y-57810D01*
X160987Y-57876D01*
X160820Y-57934D01*
X160637Y-57992D01*
X160433Y-58043D01*
X160222Y-58087D01*
X159989Y-58116D01*
X159741Y-58138D01*
X159486Y-58145D01*
X159413D01*
X159376Y-58138D01*
X159333D01*
X159223Y-58131D01*
X159085Y-58116D01*
X158932Y-58095D01*
X158757Y-58058D01*
X158567Y-58022D01*
X158363Y-57963D01*
X158159Y-57898D01*
X157940Y-57818D01*
X157729Y-57723D01*
X157517Y-57606D01*
X157313Y-57475D01*
X157116Y-57314D01*
X156927Y-57139D01*
X156920Y-57125D01*
X156883Y-57096D01*
X156839Y-57037D01*
X156781Y-56950D01*
X156708Y-56848D01*
X156628Y-56724D01*
X156540Y-56578D01*
X156453Y-56410D01*
X156366Y-56221D01*
X156278Y-56010D01*
X156198Y-55776D01*
X156125Y-55528D01*
X156067Y-55259D01*
X156023Y-54967D01*
X155986Y-54661D01*
X155979Y-54333D01*
Y-54326D01*
Y-54311D01*
Y-54289D01*
Y-54253D01*
X155986Y-54209D01*
Y-54158D01*
Y-54100D01*
X155994Y-54034D01*
X156008Y-53881D01*
X156030Y-53706D01*
X156059Y-53516D01*
X156096Y-53305D01*
X156147Y-53079D01*
X156212Y-52853D01*
X156293Y-52620D01*
X156380Y-52379D01*
X156489Y-52153D01*
X156621Y-51927D01*
X156766Y-51716D01*
X156934Y-51519D01*
X156949Y-51504D01*
X156978Y-51475D01*
X157036Y-51424D01*
X157109Y-51358D01*
X157204Y-51286D01*
X157320Y-51198D01*
X157459Y-51103D01*
X157619Y-51009D01*
X157794Y-50921D01*
X157984Y-50826D01*
X158195Y-50739D01*
X158429Y-50666D01*
X158676Y-50600D01*
X158939Y-50549D01*
X159223Y-50520D01*
X159522Y-50506D01*
X159653D01*
X159741Y-50513D01*
D02*
G37*
G36*
X199829Y-51606D02*
X199843Y-51592D01*
X199872Y-51555D01*
X199923Y-51504D01*
X199996Y-51431D01*
X200084Y-51351D01*
X200193Y-51257D01*
X200317Y-51162D01*
X200455Y-51052D01*
X200616Y-50950D01*
X200783Y-50855D01*
X200973Y-50761D01*
X201170Y-50681D01*
X201374Y-50608D01*
X201593Y-50549D01*
X201826Y-50520D01*
X202066Y-50506D01*
X202176D01*
X202234Y-50513D01*
X202307Y-50520D01*
X202380Y-50528D01*
X202467Y-50535D01*
X202650Y-50564D01*
X202854Y-50608D01*
X203058Y-50673D01*
X203262Y-50753D01*
X203269D01*
X203284Y-50768D01*
X203313Y-50775D01*
X203349Y-50797D01*
X203393Y-50819D01*
X203444Y-50855D01*
X203568Y-50928D01*
X203699Y-51016D01*
X203831Y-51125D01*
X203962Y-51249D01*
X204071Y-51388D01*
Y-51395D01*
X204086Y-51402D01*
X204100Y-51424D01*
X204115Y-51453D01*
X204137Y-51490D01*
X204166Y-51534D01*
X204224Y-51643D01*
X204283Y-51767D01*
X204348Y-51913D01*
X204407Y-52073D01*
X204450Y-52248D01*
Y-52255D01*
X204458Y-52270D01*
Y-52299D01*
X204465Y-52335D01*
X204472Y-52386D01*
X204480Y-52445D01*
X204494Y-52518D01*
X204501Y-52605D01*
X204509Y-52700D01*
X204523Y-52802D01*
X204531Y-52926D01*
X204538Y-53050D01*
X204545Y-53196D01*
Y-53349D01*
X204552Y-53516D01*
Y-53691D01*
Y-57978D01*
X202621D01*
Y-54121D01*
Y-54107D01*
Y-54070D01*
Y-54012D01*
Y-53939D01*
Y-53844D01*
X202613Y-53742D01*
Y-53626D01*
X202606Y-53509D01*
X202591Y-53261D01*
X202584Y-53137D01*
X202570Y-53021D01*
X202555Y-52911D01*
X202540Y-52816D01*
X202526Y-52729D01*
X202504Y-52663D01*
X202497Y-52649D01*
X202482Y-52612D01*
X202453Y-52554D01*
X202416Y-52488D01*
X202365Y-52408D01*
X202292Y-52328D01*
X202212Y-52248D01*
X202117Y-52175D01*
X202103Y-52168D01*
X202066Y-52146D01*
X202008Y-52117D01*
X201928Y-52080D01*
X201826Y-52044D01*
X201709Y-52015D01*
X201571Y-51993D01*
X201418Y-51986D01*
X201338D01*
X201294Y-51993D01*
X201243Y-52000D01*
X201133Y-52015D01*
X200995Y-52044D01*
X200849Y-52087D01*
X200703Y-52146D01*
X200557Y-52226D01*
X200550D01*
X200543Y-52233D01*
X200499Y-52270D01*
X200426Y-52328D01*
X200346Y-52401D01*
X200259Y-52503D01*
X200164Y-52620D01*
X200076Y-52766D01*
X200003Y-52933D01*
Y-52940D01*
X199996Y-52955D01*
X199989Y-52984D01*
X199974Y-53021D01*
X199960Y-53072D01*
X199945Y-53130D01*
X199931Y-53203D01*
X199916Y-53283D01*
X199901Y-53371D01*
X199887Y-53473D01*
X199872Y-53589D01*
X199858Y-53713D01*
X199843Y-53852D01*
X199836Y-53997D01*
X199829Y-54151D01*
Y-54318D01*
Y-57978D01*
X197897D01*
Y-47888D01*
X199829D01*
Y-51606D01*
D02*
G37*
G36*
X187311Y-57978D02*
X185380D01*
Y-50666D01*
X187311D01*
Y-57978D01*
D02*
G37*
G36*
X178870Y-56272D02*
X183936D01*
Y-57978D01*
X176836D01*
Y-47976D01*
X178870D01*
Y-56272D01*
D02*
G37*
G36*
X146590Y-57978D02*
X144658D01*
Y-50666D01*
X146590D01*
Y-57978D01*
D02*
G37*
G36*
X138520Y-47896D02*
X138644D01*
X138775Y-47903D01*
X138920Y-47910D01*
X139074Y-47925D01*
X139227Y-47940D01*
X139548Y-47969D01*
X139700Y-47991D01*
X139854Y-48020D01*
X139992Y-48049D01*
X140123Y-48085D01*
X140131D01*
X140160Y-48100D01*
X140211Y-48114D01*
X140269Y-48136D01*
X140349Y-48166D01*
X140437Y-48202D01*
X140539Y-48246D01*
X140648Y-48297D01*
X140765Y-48362D01*
X140889Y-48428D01*
X141013Y-48508D01*
X141144Y-48588D01*
X141268Y-48683D01*
X141399Y-48785D01*
X141523Y-48895D01*
X141647Y-49018D01*
X141654Y-49026D01*
X141676Y-49048D01*
X141705Y-49084D01*
X141749Y-49135D01*
X141807Y-49201D01*
X141866Y-49281D01*
X141931Y-49368D01*
X142004Y-49470D01*
X142084Y-49587D01*
X142157Y-49711D01*
X142237Y-49842D01*
X142318Y-49988D01*
X142398Y-50141D01*
X142471Y-50301D01*
X142544Y-50476D01*
X142609Y-50651D01*
X142616Y-50659D01*
X142624Y-50695D01*
X142638Y-50746D01*
X142660Y-50826D01*
X142689Y-50921D01*
X142719Y-51030D01*
X142748Y-51162D01*
X142777Y-51307D01*
X142806Y-51475D01*
X142835Y-51657D01*
X142864Y-51854D01*
X142894Y-52066D01*
X142915Y-52284D01*
X142930Y-52525D01*
X142945Y-52773D01*
Y-53035D01*
Y-53050D01*
Y-53094D01*
Y-53159D01*
X142937Y-53247D01*
Y-53349D01*
X142930Y-53480D01*
X142915Y-53618D01*
X142908Y-53772D01*
X142886Y-53932D01*
X142872Y-54107D01*
X142813Y-54464D01*
X142733Y-54829D01*
X142689Y-55003D01*
X142631Y-55178D01*
X142624Y-55193D01*
X142616Y-55230D01*
X142595Y-55288D01*
X142558Y-55361D01*
X142522Y-55455D01*
X142478Y-55565D01*
X142420Y-55682D01*
X142354Y-55813D01*
X142281Y-55951D01*
X142201Y-56097D01*
X142113Y-56243D01*
X142019Y-56396D01*
X141909Y-56542D01*
X141800Y-56687D01*
X141683Y-56833D01*
X141552Y-56964D01*
X141545Y-56972D01*
X141530Y-56986D01*
X141494Y-57016D01*
X141457Y-57052D01*
X141399Y-57096D01*
X141333Y-57139D01*
X141261Y-57198D01*
X141173Y-57256D01*
X141078Y-57322D01*
X140969Y-57387D01*
X140852Y-57453D01*
X140728Y-57519D01*
X140590Y-57584D01*
X140444Y-57650D01*
X140291Y-57708D01*
X140123Y-57766D01*
X140116D01*
X140094Y-57774D01*
X140050Y-57788D01*
X139999Y-57796D01*
X139934Y-57818D01*
X139846Y-57832D01*
X139752Y-57854D01*
X139642Y-57868D01*
X139518Y-57890D01*
X139387Y-57912D01*
X139234Y-57927D01*
X139074Y-57941D01*
X138899Y-57956D01*
X138716Y-57971D01*
X138520Y-57978D01*
X134488D01*
Y-47888D01*
X138410D01*
X138520Y-47896D01*
D02*
G37*
G36*
X208533Y-50666D02*
X209852D01*
Y-52204D01*
X208533D01*
Y-55157D01*
Y-55164D01*
Y-55193D01*
Y-55237D01*
Y-55302D01*
Y-55368D01*
Y-55448D01*
X208540Y-55623D01*
Y-55805D01*
X208547Y-55893D01*
Y-55980D01*
X208555Y-56053D01*
Y-56119D01*
X208562Y-56170D01*
X208569Y-56206D01*
Y-56214D01*
X208576Y-56228D01*
X208591Y-56257D01*
X208606Y-56294D01*
X208628Y-56330D01*
X208657Y-56367D01*
X208693Y-56410D01*
X208737Y-56447D01*
X208744Y-56454D01*
X208759Y-56462D01*
X208788Y-56476D01*
X208832Y-56491D01*
X208875Y-56513D01*
X208934Y-56527D01*
X208999Y-56534D01*
X209065Y-56542D01*
X209116D01*
X209174Y-56534D01*
X209262Y-56520D01*
X209371Y-56498D01*
X209510Y-56462D01*
X209663Y-56418D01*
X209845Y-56359D01*
X210013Y-57861D01*
X210005D01*
X209983Y-57876D01*
X209947Y-57890D01*
X209896Y-57905D01*
X209830Y-57927D01*
X209750Y-57949D01*
X209663Y-57978D01*
X209568Y-58000D01*
X209459Y-58029D01*
X209342Y-58058D01*
X209218Y-58080D01*
X209080Y-58102D01*
X208795Y-58131D01*
X208482Y-58145D01*
X208394D01*
X208350Y-58138D01*
X208299D01*
X208168Y-58124D01*
X208022Y-58102D01*
X207869Y-58073D01*
X207702Y-58029D01*
X207541Y-57971D01*
X207534D01*
X207527Y-57963D01*
X207505Y-57956D01*
X207476Y-57941D01*
X207403Y-57898D01*
X207308Y-57847D01*
X207206Y-57781D01*
X207111Y-57708D01*
X207009Y-57621D01*
X206929Y-57519D01*
X206922Y-57504D01*
X206900Y-57468D01*
X206863Y-57402D01*
X206820Y-57322D01*
X206776Y-57212D01*
X206732Y-57081D01*
X206688Y-56928D01*
X206659Y-56760D01*
Y-56753D01*
Y-56746D01*
X206652Y-56724D01*
Y-56695D01*
X206645Y-56651D01*
Y-56600D01*
X206637Y-56534D01*
X206630Y-56462D01*
X206623Y-56381D01*
Y-56279D01*
X206615Y-56170D01*
X206608Y-56046D01*
Y-55907D01*
X206601Y-55747D01*
Y-55579D01*
Y-55397D01*
Y-52204D01*
X205712D01*
Y-50666D01*
X206601D01*
Y-49215D01*
X208533Y-48078D01*
Y-50666D01*
D02*
G37*
G36*
X192072Y-50513D02*
X192167Y-50528D01*
X192283Y-50542D01*
X192414Y-50571D01*
X192568Y-50608D01*
X192728Y-50651D01*
X192903Y-50717D01*
X193085Y-50797D01*
X193268Y-50892D01*
X193457Y-51009D01*
X193647Y-51147D01*
X193829Y-51307D01*
X194011Y-51490D01*
X194179Y-51701D01*
Y-50666D01*
X195987D01*
Y-57234D01*
Y-57249D01*
Y-57293D01*
Y-57358D01*
Y-57446D01*
X195979Y-57548D01*
X195972Y-57672D01*
Y-57810D01*
X195958Y-57956D01*
X195950Y-58109D01*
X195936Y-58269D01*
X195892Y-58590D01*
X195870Y-58743D01*
X195841Y-58889D01*
X195804Y-59035D01*
X195768Y-59159D01*
Y-59166D01*
X195761Y-59188D01*
X195746Y-59217D01*
X195731Y-59261D01*
X195710Y-59319D01*
X195680Y-59377D01*
X195615Y-59523D01*
X195527Y-59684D01*
X195425Y-59851D01*
X195309Y-60019D01*
X195170Y-60165D01*
X195163Y-60172D01*
X195156Y-60179D01*
X195134Y-60201D01*
X195097Y-60223D01*
X195061Y-60252D01*
X195017Y-60289D01*
X194959Y-60333D01*
X194893Y-60369D01*
X194827Y-60420D01*
X194747Y-60464D01*
X194572Y-60558D01*
X194368Y-60653D01*
X194135Y-60733D01*
X194128D01*
X194106Y-60741D01*
X194069Y-60755D01*
X194018Y-60763D01*
X193960Y-60785D01*
X193880Y-60799D01*
X193792Y-60821D01*
X193690Y-60835D01*
X193581Y-60857D01*
X193457Y-60879D01*
X193326Y-60894D01*
X193180Y-60908D01*
X193027Y-60923D01*
X192859Y-60938D01*
X192692Y-60945D01*
X192385D01*
X192334Y-60938D01*
X192210D01*
X192057Y-60923D01*
X191882Y-60908D01*
X191685Y-60894D01*
X191481Y-60865D01*
X191270Y-60828D01*
X191051Y-60785D01*
X190825Y-60733D01*
X190614Y-60675D01*
X190402Y-60602D01*
X190206Y-60515D01*
X190031Y-60413D01*
X189870Y-60303D01*
X189863Y-60296D01*
X189834Y-60274D01*
X189797Y-60238D01*
X189746Y-60187D01*
X189688Y-60121D01*
X189622Y-60048D01*
X189557Y-59961D01*
X189484Y-59859D01*
X189411Y-59749D01*
X189345Y-59625D01*
X189280Y-59494D01*
X189222Y-59348D01*
X189171Y-59195D01*
X189134Y-59035D01*
X189105Y-58867D01*
X189098Y-58685D01*
Y-58678D01*
Y-58663D01*
Y-58649D01*
Y-58619D01*
Y-58547D01*
X189105Y-58452D01*
X191314Y-58721D01*
Y-58729D01*
Y-58736D01*
X191328Y-58787D01*
X191343Y-58853D01*
X191365Y-58933D01*
X191401Y-59020D01*
X191445Y-59108D01*
X191496Y-59188D01*
X191569Y-59254D01*
X191584Y-59261D01*
X191620Y-59283D01*
X191685Y-59319D01*
X191780Y-59356D01*
X191897Y-59399D01*
X191970Y-59414D01*
X192050Y-59429D01*
X192138Y-59443D01*
X192225Y-59458D01*
X192327Y-59465D01*
X192509D01*
X192560Y-59458D01*
X192626D01*
X192699Y-59450D01*
X192779Y-59443D01*
X192867Y-59436D01*
X193049Y-59407D01*
X193238Y-59363D01*
X193413Y-59312D01*
X193501Y-59276D01*
X193574Y-59232D01*
X193588Y-59224D01*
X193617Y-59203D01*
X193661Y-59166D01*
X193719Y-59115D01*
X193778Y-59042D01*
X193843Y-58962D01*
X193909Y-58860D01*
X193960Y-58743D01*
X193967Y-58729D01*
X193975Y-58692D01*
X193989Y-58634D01*
X193997Y-58590D01*
X194011Y-58539D01*
X194018Y-58488D01*
X194026Y-58422D01*
X194033Y-58350D01*
X194040Y-58269D01*
X194047Y-58182D01*
Y-58080D01*
X194055Y-57978D01*
Y-57861D01*
X194062Y-56790D01*
X194055Y-56804D01*
X194026Y-56841D01*
X193975Y-56899D01*
X193902Y-56972D01*
X193822Y-57067D01*
X193712Y-57169D01*
X193596Y-57271D01*
X193457Y-57380D01*
X193304Y-57497D01*
X193143Y-57599D01*
X192961Y-57701D01*
X192764Y-57788D01*
X192553Y-57868D01*
X192334Y-57927D01*
X192101Y-57963D01*
X191860Y-57978D01*
X191795D01*
X191722Y-57971D01*
X191620Y-57956D01*
X191496Y-57941D01*
X191350Y-57912D01*
X191190Y-57876D01*
X191015Y-57825D01*
X190833Y-57759D01*
X190643Y-57672D01*
X190454Y-57577D01*
X190257Y-57453D01*
X190060Y-57314D01*
X189878Y-57147D01*
X189695Y-56957D01*
X189528Y-56739D01*
X189520Y-56724D01*
X189498Y-56695D01*
X189469Y-56637D01*
X189426Y-56564D01*
X189375Y-56469D01*
X189316Y-56352D01*
X189258Y-56214D01*
X189192Y-56061D01*
X189127Y-55893D01*
X189068Y-55711D01*
X189010Y-55506D01*
X188959Y-55288D01*
X188923Y-55062D01*
X188886Y-54814D01*
X188864Y-54559D01*
X188857Y-54289D01*
Y-54282D01*
Y-54267D01*
Y-54245D01*
Y-54209D01*
Y-54165D01*
X188864Y-54114D01*
Y-54056D01*
X188872Y-53990D01*
X188886Y-53830D01*
X188901Y-53655D01*
X188930Y-53458D01*
X188966Y-53247D01*
X189017Y-53028D01*
X189076Y-52795D01*
X189141Y-52561D01*
X189229Y-52328D01*
X189331Y-52102D01*
X189447Y-51883D01*
X189586Y-51672D01*
X189739Y-51482D01*
X189746Y-51468D01*
X189783Y-51439D01*
X189827Y-51395D01*
X189900Y-51329D01*
X189987Y-51257D01*
X190089Y-51176D01*
X190206Y-51082D01*
X190344Y-50994D01*
X190497Y-50899D01*
X190665Y-50812D01*
X190847Y-50732D01*
X191037Y-50659D01*
X191248Y-50593D01*
X191467Y-50549D01*
X191700Y-50513D01*
X191941Y-50506D01*
X191999D01*
X192072Y-50513D01*
D02*
G37*
%LPC*%
G36*
X277976Y-144636D02*
X277933D01*
X277900Y-144641D01*
X277856Y-144647D01*
X277807Y-144652D01*
X277758Y-144663D01*
X277698Y-144679D01*
X277578Y-144723D01*
X277512Y-144750D01*
X277447Y-144783D01*
X277376Y-144821D01*
X277315Y-144871D01*
X277250Y-144925D01*
X277190Y-144985D01*
X277185Y-144991D01*
X277179Y-145002D01*
X277163Y-145023D01*
X277141Y-145051D01*
X277119Y-145083D01*
X277092Y-145127D01*
X277064Y-145176D01*
X277037Y-145231D01*
X277004Y-145296D01*
X276977Y-145367D01*
X276955Y-145444D01*
X276928Y-145526D01*
X276911Y-145619D01*
X276895Y-145711D01*
X276884Y-145815D01*
Y-145924D01*
X279057D01*
Y-145919D01*
Y-145897D01*
X279052Y-145864D01*
Y-145821D01*
X279046Y-145766D01*
X279035Y-145706D01*
X279025Y-145640D01*
X279008Y-145569D01*
X278970Y-145417D01*
X278910Y-145258D01*
X278877Y-145176D01*
X278833Y-145105D01*
X278784Y-145034D01*
X278730Y-144969D01*
X278724Y-144963D01*
X278713Y-144952D01*
X278697Y-144936D01*
X278675Y-144914D01*
X278642Y-144892D01*
X278609Y-144865D01*
X278566Y-144832D01*
X278517Y-144800D01*
X278408Y-144739D01*
X278282Y-144685D01*
X278211Y-144668D01*
X278134Y-144652D01*
X278058Y-144641D01*
X277976Y-144636D01*
D02*
G37*
G36*
X249830Y-144636D02*
X249786D01*
X249753Y-144641D01*
X249710Y-144647D01*
X249661Y-144652D01*
X249611Y-144663D01*
X249551Y-144679D01*
X249431Y-144723D01*
X249366Y-144750D01*
X249300Y-144783D01*
X249229Y-144821D01*
X249169Y-144871D01*
X249104Y-144925D01*
X249044Y-144985D01*
X249038Y-144991D01*
X249033Y-145002D01*
X249016Y-145023D01*
X248994Y-145051D01*
X248973Y-145083D01*
X248945Y-145127D01*
X248918Y-145176D01*
X248891Y-145231D01*
X248858Y-145296D01*
X248831Y-145367D01*
X248809Y-145444D01*
X248782Y-145526D01*
X248765Y-145619D01*
X248749Y-145711D01*
X248738Y-145815D01*
Y-145924D01*
X250911D01*
Y-145919D01*
Y-145897D01*
X250905Y-145864D01*
Y-145821D01*
X250900Y-145766D01*
X250889Y-145706D01*
X250878Y-145640D01*
X250862Y-145569D01*
X250824Y-145417D01*
X250764Y-145258D01*
X250731Y-145176D01*
X250687Y-145105D01*
X250638Y-145034D01*
X250583Y-144969D01*
X250578Y-144963D01*
X250567Y-144952D01*
X250551Y-144936D01*
X250529Y-144914D01*
X250496Y-144892D01*
X250463Y-144865D01*
X250419Y-144832D01*
X250370Y-144800D01*
X250261Y-144739D01*
X250136Y-144685D01*
X250065Y-144668D01*
X249988Y-144652D01*
X249912Y-144641D01*
X249830Y-144636D01*
D02*
G37*
G36*
X239587Y-144707D02*
X239532D01*
X239494Y-144712D01*
X239445Y-144718D01*
X239385Y-144729D01*
X239325Y-144745D01*
X239254Y-144761D01*
X239183Y-144783D01*
X239106Y-144810D01*
X239024Y-144849D01*
X238943Y-144892D01*
X238866Y-144941D01*
X238784Y-145002D01*
X238708Y-145067D01*
X238631Y-145144D01*
X238626Y-145149D01*
X238615Y-145165D01*
X238599Y-145187D01*
X238571Y-145226D01*
X238544Y-145269D01*
X238511Y-145324D01*
X238478Y-145389D01*
X238440Y-145460D01*
X238407Y-145542D01*
X238369Y-145635D01*
X238337Y-145739D01*
X238309Y-145848D01*
X238282Y-145974D01*
X238266Y-146099D01*
X238255Y-146241D01*
X238249Y-146388D01*
Y-146399D01*
Y-146427D01*
Y-146465D01*
X238255Y-146525D01*
X238260Y-146590D01*
X238271Y-146672D01*
X238282Y-146760D01*
X238298Y-146853D01*
X238315Y-146951D01*
X238342Y-147055D01*
X238375Y-147158D01*
X238413Y-147262D01*
X238457Y-147360D01*
X238506Y-147459D01*
X238566Y-147551D01*
X238631Y-147639D01*
X238637Y-147644D01*
X238648Y-147655D01*
X238670Y-147677D01*
X238702Y-147704D01*
X238741Y-147737D01*
X238784Y-147775D01*
X238839Y-147813D01*
X238899Y-147852D01*
X238965Y-147895D01*
X239035Y-147934D01*
X239112Y-147972D01*
X239199Y-148005D01*
X239287Y-148032D01*
X239385Y-148054D01*
X239483Y-148065D01*
X239587Y-148070D01*
X239614D01*
X239641Y-148065D01*
X239680D01*
X239729Y-148059D01*
X239789Y-148048D01*
X239849Y-148032D01*
X239920Y-148015D01*
X239991Y-147994D01*
X240067Y-147966D01*
X240149Y-147928D01*
X240226Y-147890D01*
X240308Y-147841D01*
X240384Y-147781D01*
X240466Y-147715D01*
X240537Y-147639D01*
X240542Y-147633D01*
X240553Y-147617D01*
X240575Y-147595D01*
X240597Y-147557D01*
X240624Y-147513D01*
X240657Y-147459D01*
X240695Y-147393D01*
X240734Y-147322D01*
X240766Y-147235D01*
X240805Y-147142D01*
X240837Y-147038D01*
X240865Y-146929D01*
X240886Y-146803D01*
X240908Y-146672D01*
X240919Y-146530D01*
X240925Y-146383D01*
Y-146372D01*
Y-146345D01*
Y-146307D01*
X240919Y-146252D01*
X240914Y-146181D01*
X240903Y-146105D01*
X240892Y-146017D01*
X240876Y-145924D01*
X240854Y-145826D01*
X240832Y-145728D01*
X240799Y-145624D01*
X240761Y-145520D01*
X240717Y-145417D01*
X240663Y-145318D01*
X240608Y-145231D01*
X240537Y-145144D01*
X240531Y-145138D01*
X240521Y-145127D01*
X240499Y-145105D01*
X240466Y-145073D01*
X240433Y-145040D01*
X240384Y-145007D01*
X240335Y-144963D01*
X240275Y-144925D01*
X240209Y-144887D01*
X240138Y-144843D01*
X240056Y-144810D01*
X239975Y-144772D01*
X239887Y-144745D01*
X239789Y-144723D01*
X239691Y-144712D01*
X239587Y-144707D01*
D02*
G37*
G36*
X271703Y-144636D02*
X271654D01*
X271615Y-144641D01*
X271572Y-144647D01*
X271522Y-144658D01*
X271462Y-144668D01*
X271402Y-144685D01*
X271337Y-144707D01*
X271266Y-144734D01*
X271195Y-144767D01*
X271124Y-144810D01*
X271053Y-144854D01*
X270982Y-144909D01*
X270911Y-144974D01*
X270845Y-145045D01*
X270840Y-145051D01*
X270829Y-145062D01*
X270813Y-145089D01*
X270796Y-145122D01*
X270769Y-145165D01*
X270742Y-145214D01*
X270709Y-145280D01*
X270682Y-145351D01*
X270649Y-145433D01*
X270616Y-145526D01*
X270589Y-145624D01*
X270567Y-145739D01*
X270545Y-145859D01*
X270529Y-145990D01*
X270518Y-146126D01*
X270512Y-146279D01*
Y-146290D01*
Y-146318D01*
Y-146361D01*
X270518Y-146421D01*
X270523Y-146492D01*
X270529Y-146574D01*
X270540Y-146667D01*
X270556Y-146765D01*
X270594Y-146973D01*
X270621Y-147076D01*
X270654Y-147180D01*
X270692Y-147284D01*
X270736Y-147382D01*
X270785Y-147469D01*
X270845Y-147551D01*
X270851Y-147557D01*
X270862Y-147568D01*
X270878Y-147590D01*
X270905Y-147617D01*
X270938Y-147644D01*
X270976Y-147677D01*
X271026Y-147715D01*
X271075Y-147753D01*
X271135Y-147792D01*
X271200Y-147830D01*
X271342Y-147890D01*
X271419Y-147917D01*
X271501Y-147939D01*
X271588Y-147950D01*
X271681Y-147955D01*
X271703D01*
X271730Y-147950D01*
X271768D01*
X271817Y-147944D01*
X271866Y-147934D01*
X271926Y-147923D01*
X271992Y-147901D01*
X272063Y-147879D01*
X272134Y-147852D01*
X272205Y-147819D01*
X272281Y-147781D01*
X272358Y-147732D01*
X272434Y-147677D01*
X272505Y-147611D01*
X272576Y-147540D01*
X272582Y-147535D01*
X272593Y-147519D01*
X272609Y-147497D01*
X272636Y-147464D01*
X272664Y-147420D01*
X272691Y-147366D01*
X272724Y-147306D01*
X272762Y-147229D01*
X272795Y-147147D01*
X272827Y-147060D01*
X272855Y-146956D01*
X272887Y-146847D01*
X272909Y-146727D01*
X272926Y-146596D01*
X272937Y-146459D01*
X272942Y-146312D01*
Y-146301D01*
Y-146274D01*
Y-146230D01*
X272937Y-146176D01*
X272931Y-146105D01*
X272926Y-146023D01*
X272915Y-145935D01*
X272898Y-145837D01*
X272855Y-145630D01*
X272827Y-145526D01*
X272795Y-145422D01*
X272751Y-145324D01*
X272702Y-145226D01*
X272647Y-145133D01*
X272587Y-145051D01*
X272582Y-145045D01*
X272571Y-145034D01*
X272549Y-145012D01*
X272527Y-144985D01*
X272489Y-144952D01*
X272451Y-144920D01*
X272401Y-144881D01*
X272347Y-144843D01*
X272287Y-144805D01*
X272216Y-144767D01*
X272145Y-144734D01*
X272068Y-144701D01*
X271981Y-144674D01*
X271894Y-144652D01*
X271801Y-144641D01*
X271703Y-144636D01*
D02*
G37*
G36*
X88865Y-145045D02*
X88816D01*
X88778Y-145050D01*
X88734Y-145055D01*
X88680Y-145066D01*
X88620Y-145077D01*
X88554Y-145094D01*
X88489Y-145116D01*
X88418Y-145148D01*
X88341Y-145181D01*
X88270Y-145219D01*
X88194Y-145268D01*
X88123Y-145323D01*
X88052Y-145389D01*
X87981Y-145460D01*
X87975Y-145465D01*
X87964Y-145476D01*
X87948Y-145503D01*
X87926Y-145536D01*
X87899Y-145580D01*
X87871Y-145629D01*
X87839Y-145694D01*
X87806Y-145765D01*
X87773Y-145847D01*
X87740Y-145935D01*
X87713Y-146033D01*
X87686Y-146142D01*
X87664Y-146262D01*
X87648Y-146388D01*
X87637Y-146524D01*
X87631Y-146672D01*
Y-146683D01*
Y-146710D01*
Y-146759D01*
X87637Y-146825D01*
X87642Y-146901D01*
X87653Y-146988D01*
X87664Y-147081D01*
X87675Y-147190D01*
X87719Y-147409D01*
X87751Y-147523D01*
X87784Y-147638D01*
X87828Y-147747D01*
X87877Y-147851D01*
X87932Y-147949D01*
X87997Y-148037D01*
X88003Y-148042D01*
X88013Y-148053D01*
X88035Y-148075D01*
X88063Y-148102D01*
X88101Y-148141D01*
X88139Y-148173D01*
X88188Y-148217D01*
X88248Y-148255D01*
X88308Y-148293D01*
X88379Y-148337D01*
X88450Y-148370D01*
X88527Y-148403D01*
X88614Y-148435D01*
X88701Y-148457D01*
X88794Y-148468D01*
X88893Y-148474D01*
X88914D01*
X88942Y-148468D01*
X88980D01*
X89018Y-148463D01*
X89073Y-148452D01*
X89127Y-148441D01*
X89187Y-148424D01*
X89253Y-148403D01*
X89324Y-148375D01*
X89395Y-148343D01*
X89466Y-148304D01*
X89537Y-148255D01*
X89608Y-148201D01*
X89673Y-148141D01*
X89739Y-148070D01*
X89744Y-148064D01*
X89755Y-148048D01*
X89772Y-148026D01*
X89793Y-147993D01*
X89815Y-147949D01*
X89848Y-147895D01*
X89875Y-147829D01*
X89908Y-147753D01*
X89941Y-147665D01*
X89968Y-147567D01*
X90001Y-147458D01*
X90023Y-147338D01*
X90045Y-147207D01*
X90061Y-147065D01*
X90072Y-146912D01*
X90077Y-146743D01*
Y-146732D01*
Y-146704D01*
Y-146661D01*
X90072Y-146601D01*
X90066Y-146530D01*
X90061Y-146448D01*
X90050Y-146355D01*
X90034Y-146257D01*
X89990Y-146049D01*
X89963Y-145946D01*
X89930Y-145842D01*
X89892Y-145738D01*
X89843Y-145640D01*
X89788Y-145547D01*
X89728Y-145465D01*
X89722Y-145460D01*
X89711Y-145449D01*
X89695Y-145427D01*
X89668Y-145399D01*
X89630Y-145367D01*
X89591Y-145334D01*
X89542Y-145296D01*
X89488Y-145252D01*
X89428Y-145214D01*
X89362Y-145176D01*
X89291Y-145143D01*
X89215Y-145110D01*
X89138Y-145083D01*
X89051Y-145061D01*
X88958Y-145050D01*
X88865Y-145045D01*
D02*
G37*
G36*
X82417D02*
X82368D01*
X82330Y-145050D01*
X82286Y-145055D01*
X82231Y-145066D01*
X82171Y-145077D01*
X82106Y-145094D01*
X82040Y-145116D01*
X81969Y-145148D01*
X81893Y-145181D01*
X81822Y-145219D01*
X81745Y-145268D01*
X81674Y-145323D01*
X81603Y-145389D01*
X81532Y-145460D01*
X81527Y-145465D01*
X81516Y-145476D01*
X81500Y-145503D01*
X81478Y-145536D01*
X81450Y-145580D01*
X81423Y-145629D01*
X81391Y-145694D01*
X81358Y-145765D01*
X81325Y-145847D01*
X81292Y-145935D01*
X81265Y-146033D01*
X81238Y-146142D01*
X81216Y-146262D01*
X81199Y-146388D01*
X81188Y-146524D01*
X81183Y-146672D01*
Y-146683D01*
Y-146710D01*
Y-146759D01*
X81188Y-146825D01*
X81194Y-146901D01*
X81205Y-146988D01*
X81216Y-147081D01*
X81227Y-147190D01*
X81270Y-147409D01*
X81303Y-147523D01*
X81336Y-147638D01*
X81379Y-147747D01*
X81429Y-147851D01*
X81483Y-147949D01*
X81549Y-148037D01*
X81554Y-148042D01*
X81565Y-148053D01*
X81587Y-148075D01*
X81614Y-148102D01*
X81652Y-148141D01*
X81691Y-148173D01*
X81740Y-148217D01*
X81800Y-148255D01*
X81860Y-148293D01*
X81931Y-148337D01*
X82002Y-148370D01*
X82078Y-148403D01*
X82166Y-148435D01*
X82253Y-148457D01*
X82346Y-148468D01*
X82444Y-148474D01*
X82466D01*
X82493Y-148468D01*
X82532D01*
X82570Y-148463D01*
X82624Y-148452D01*
X82679Y-148441D01*
X82739Y-148424D01*
X82805Y-148403D01*
X82876Y-148375D01*
X82947Y-148343D01*
X83018Y-148304D01*
X83088Y-148255D01*
X83160Y-148201D01*
X83225Y-148141D01*
X83290Y-148070D01*
X83296Y-148064D01*
X83307Y-148048D01*
X83323Y-148026D01*
X83345Y-147993D01*
X83367Y-147949D01*
X83400Y-147895D01*
X83427Y-147829D01*
X83460Y-147753D01*
X83493Y-147665D01*
X83520Y-147567D01*
X83553Y-147458D01*
X83574Y-147338D01*
X83596Y-147207D01*
X83613Y-147065D01*
X83624Y-146912D01*
X83629Y-146743D01*
Y-146732D01*
Y-146704D01*
Y-146661D01*
X83624Y-146601D01*
X83618Y-146530D01*
X83613Y-146448D01*
X83602Y-146355D01*
X83585Y-146257D01*
X83542Y-146049D01*
X83514Y-145946D01*
X83482Y-145842D01*
X83443Y-145738D01*
X83394Y-145640D01*
X83340Y-145547D01*
X83280Y-145465D01*
X83274Y-145460D01*
X83263Y-145449D01*
X83247Y-145427D01*
X83220Y-145399D01*
X83181Y-145367D01*
X83143Y-145334D01*
X83094Y-145296D01*
X83039Y-145252D01*
X82979Y-145214D01*
X82914Y-145176D01*
X82843Y-145143D01*
X82766Y-145110D01*
X82690Y-145083D01*
X82603Y-145061D01*
X82510Y-145050D01*
X82417Y-145045D01*
D02*
G37*
G36*
X120348Y-146868D02*
X120342D01*
X120337Y-146874D01*
X120320Y-146879D01*
X120293Y-146885D01*
X120266Y-146896D01*
X120227Y-146906D01*
X120184Y-146917D01*
X120129Y-146928D01*
X120069Y-146945D01*
X120004Y-146961D01*
X119933Y-146983D01*
X119851Y-146999D01*
X119763Y-147021D01*
X119670Y-147043D01*
X119567Y-147070D01*
X119458Y-147092D01*
X119452D01*
X119430Y-147098D01*
X119403Y-147103D01*
X119359Y-147114D01*
X119310Y-147125D01*
X119256Y-147141D01*
X119135Y-147174D01*
X119004Y-147212D01*
X118873Y-147250D01*
X118813Y-147278D01*
X118759Y-147300D01*
X118710Y-147321D01*
X118671Y-147343D01*
X118666D01*
X118660Y-147354D01*
X118628Y-147381D01*
X118584Y-147425D01*
X118535Y-147485D01*
X118480Y-147556D01*
X118437Y-147644D01*
X118404Y-147747D01*
X118398Y-147802D01*
X118393Y-147856D01*
Y-147862D01*
Y-147868D01*
Y-147884D01*
X118398Y-147906D01*
X118404Y-147966D01*
X118420Y-148037D01*
X118447Y-148119D01*
X118486Y-148206D01*
X118540Y-148293D01*
X118617Y-148381D01*
X118628Y-148392D01*
X118660Y-148413D01*
X118710Y-148452D01*
X118775Y-148490D01*
X118857Y-148528D01*
X118955Y-148566D01*
X119070Y-148588D01*
X119195Y-148599D01*
X119234D01*
X119261Y-148594D01*
X119299D01*
X119337Y-148583D01*
X119436Y-148566D01*
X119550Y-148534D01*
X119676Y-148490D01*
X119807Y-148424D01*
X119878Y-148386D01*
X119943Y-148343D01*
X119949D01*
X119954Y-148331D01*
X119987Y-148310D01*
X120031Y-148266D01*
X120086Y-148211D01*
X120146Y-148141D01*
X120200Y-148058D01*
X120249Y-147966D01*
X120288Y-147868D01*
X120293Y-147856D01*
X120298Y-147829D01*
X120304Y-147807D01*
X120309Y-147780D01*
X120315Y-147747D01*
X120320Y-147709D01*
X120326Y-147665D01*
X120331Y-147611D01*
Y-147556D01*
X120337Y-147491D01*
X120342Y-147420D01*
X120348Y-147338D01*
Y-147250D01*
Y-147158D01*
Y-146868D01*
D02*
G37*
G36*
X98650D02*
X98644D01*
X98639Y-146874D01*
X98622Y-146879D01*
X98595Y-146885D01*
X98568Y-146896D01*
X98529Y-146906D01*
X98486Y-146917D01*
X98431Y-146928D01*
X98371Y-146945D01*
X98306Y-146961D01*
X98235Y-146983D01*
X98153Y-146999D01*
X98065Y-147021D01*
X97973Y-147043D01*
X97869Y-147070D01*
X97760Y-147092D01*
X97754D01*
X97732Y-147098D01*
X97705Y-147103D01*
X97661Y-147114D01*
X97612Y-147125D01*
X97557Y-147141D01*
X97437Y-147174D01*
X97306Y-147212D01*
X97175Y-147250D01*
X97115Y-147278D01*
X97061Y-147300D01*
X97012Y-147321D01*
X96973Y-147343D01*
X96968D01*
X96962Y-147354D01*
X96930Y-147381D01*
X96886Y-147425D01*
X96837Y-147485D01*
X96782Y-147556D01*
X96738Y-147644D01*
X96706Y-147747D01*
X96700Y-147802D01*
X96695Y-147856D01*
Y-147862D01*
Y-147868D01*
Y-147884D01*
X96700Y-147906D01*
X96706Y-147966D01*
X96722Y-148037D01*
X96750Y-148119D01*
X96788Y-148206D01*
X96842Y-148293D01*
X96919Y-148381D01*
X96930Y-148392D01*
X96962Y-148413D01*
X97012Y-148452D01*
X97077Y-148490D01*
X97159Y-148528D01*
X97257Y-148566D01*
X97372Y-148588D01*
X97497Y-148599D01*
X97536D01*
X97563Y-148594D01*
X97601D01*
X97639Y-148583D01*
X97738Y-148566D01*
X97852Y-148534D01*
X97978Y-148490D01*
X98109Y-148424D01*
X98180Y-148386D01*
X98246Y-148343D01*
X98251D01*
X98256Y-148331D01*
X98289Y-148310D01*
X98333Y-148266D01*
X98387Y-148211D01*
X98448Y-148141D01*
X98502Y-148058D01*
X98551Y-147966D01*
X98589Y-147868D01*
X98595Y-147856D01*
X98600Y-147829D01*
X98606Y-147807D01*
X98611Y-147780D01*
X98617Y-147747D01*
X98622Y-147709D01*
X98628Y-147665D01*
X98633Y-147611D01*
Y-147556D01*
X98639Y-147491D01*
X98644Y-147420D01*
X98650Y-147338D01*
Y-147250D01*
Y-147158D01*
Y-146868D01*
D02*
G37*
G36*
X150995Y-145006D02*
X150945D01*
X150907Y-145012D01*
X150864Y-145017D01*
X150809Y-145028D01*
X150754Y-145039D01*
X150689Y-145055D01*
X150623Y-145077D01*
X150552Y-145105D01*
X150481Y-145137D01*
X150405Y-145181D01*
X150334Y-145225D01*
X150263Y-145279D01*
X150192Y-145345D01*
X150126Y-145416D01*
X150121Y-145421D01*
X150110Y-145432D01*
X150094Y-145460D01*
X150072Y-145492D01*
X150045Y-145536D01*
X150017Y-145585D01*
X149984Y-145651D01*
X149957Y-145722D01*
X149924Y-145804D01*
X149892Y-145891D01*
X149864Y-145995D01*
X149837Y-146104D01*
X149815Y-146224D01*
X149799Y-146355D01*
X149788Y-146497D01*
X149782Y-146644D01*
Y-146655D01*
Y-146683D01*
Y-146726D01*
X149788Y-146781D01*
X149793Y-146852D01*
X149799Y-146934D01*
X149804Y-147021D01*
X149815Y-147119D01*
X149848Y-147321D01*
X149897Y-147529D01*
X149924Y-147633D01*
X149963Y-147731D01*
X150001Y-147818D01*
X150050Y-147900D01*
X150055Y-147906D01*
X150066Y-147922D01*
X150088Y-147955D01*
X150121Y-147988D01*
X150159Y-148031D01*
X150203Y-148080D01*
X150257Y-148135D01*
X150318Y-148184D01*
X150383Y-148239D01*
X150460Y-148293D01*
X150541Y-148343D01*
X150629Y-148386D01*
X150727Y-148419D01*
X150825Y-148446D01*
X150935Y-148468D01*
X151049Y-148474D01*
X151071D01*
X151098Y-148468D01*
X151131D01*
X151169Y-148463D01*
X151218Y-148452D01*
X151273Y-148441D01*
X151333Y-148424D01*
X151393Y-148403D01*
X151459Y-148375D01*
X151530Y-148343D01*
X151595Y-148299D01*
X151666Y-148255D01*
X151737Y-148201D01*
X151803Y-148135D01*
X151868Y-148064D01*
X151874Y-148058D01*
X151884Y-148042D01*
X151901Y-148020D01*
X151923Y-147988D01*
X151945Y-147944D01*
X151977Y-147889D01*
X152005Y-147824D01*
X152037Y-147747D01*
X152070Y-147665D01*
X152097Y-147567D01*
X152130Y-147463D01*
X152152Y-147349D01*
X152174Y-147223D01*
X152190Y-147081D01*
X152201Y-146934D01*
X152207Y-146775D01*
Y-146770D01*
Y-146765D01*
Y-146732D01*
Y-146688D01*
X152201Y-146623D01*
X152196Y-146546D01*
X152190Y-146459D01*
X152179Y-146361D01*
X152163Y-146251D01*
X152125Y-146033D01*
X152097Y-145918D01*
X152059Y-145809D01*
X152021Y-145700D01*
X151977Y-145596D01*
X151923Y-145503D01*
X151863Y-145421D01*
X151857Y-145416D01*
X151846Y-145405D01*
X151830Y-145383D01*
X151803Y-145356D01*
X151770Y-145323D01*
X151726Y-145290D01*
X151682Y-145252D01*
X151628Y-145214D01*
X151568Y-145176D01*
X151502Y-145137D01*
X151431Y-145105D01*
X151355Y-145072D01*
X151273Y-145045D01*
X151186Y-145023D01*
X151093Y-145012D01*
X150995Y-145006D01*
D02*
G37*
G36*
X135335D02*
X135292D01*
X135259Y-145012D01*
X135215Y-145017D01*
X135166Y-145023D01*
X135117Y-145034D01*
X135057Y-145050D01*
X134937Y-145094D01*
X134871Y-145121D01*
X134806Y-145154D01*
X134735Y-145192D01*
X134675Y-145241D01*
X134609Y-145296D01*
X134549Y-145356D01*
X134544Y-145361D01*
X134538Y-145372D01*
X134522Y-145394D01*
X134500Y-145421D01*
X134478Y-145454D01*
X134451Y-145498D01*
X134423Y-145547D01*
X134396Y-145601D01*
X134363Y-145667D01*
X134336Y-145738D01*
X134314Y-145815D01*
X134287Y-145896D01*
X134271Y-145989D01*
X134254Y-146082D01*
X134243Y-146186D01*
Y-146295D01*
X136416D01*
Y-146290D01*
Y-146268D01*
X136411Y-146235D01*
Y-146191D01*
X136405Y-146137D01*
X136395Y-146077D01*
X136384Y-146011D01*
X136367Y-145940D01*
X136329Y-145787D01*
X136269Y-145629D01*
X136236Y-145547D01*
X136193Y-145476D01*
X136143Y-145405D01*
X136089Y-145340D01*
X136083Y-145334D01*
X136072Y-145323D01*
X136056Y-145307D01*
X136034Y-145285D01*
X136001Y-145263D01*
X135969Y-145236D01*
X135925Y-145203D01*
X135876Y-145170D01*
X135767Y-145110D01*
X135641Y-145055D01*
X135570Y-145039D01*
X135494Y-145023D01*
X135417Y-145012D01*
X135335Y-145006D01*
D02*
G37*
G36*
X75838Y-145077D02*
X75783D01*
X75745Y-145083D01*
X75696Y-145088D01*
X75636Y-145099D01*
X75576Y-145116D01*
X75505Y-145132D01*
X75434Y-145154D01*
X75357Y-145181D01*
X75275Y-145219D01*
X75193Y-145263D01*
X75117Y-145312D01*
X75035Y-145372D01*
X74959Y-145438D01*
X74882Y-145514D01*
X74877Y-145520D01*
X74866Y-145536D01*
X74849Y-145558D01*
X74822Y-145596D01*
X74795Y-145640D01*
X74762Y-145694D01*
X74729Y-145760D01*
X74691Y-145831D01*
X74658Y-145913D01*
X74620Y-146006D01*
X74587Y-146109D01*
X74560Y-146219D01*
X74533Y-146344D01*
X74516Y-146470D01*
X74505Y-146612D01*
X74500Y-146759D01*
Y-146770D01*
Y-146797D01*
Y-146835D01*
X74505Y-146896D01*
X74511Y-146961D01*
X74522Y-147043D01*
X74533Y-147130D01*
X74549Y-147223D01*
X74566Y-147321D01*
X74593Y-147425D01*
X74625Y-147529D01*
X74664Y-147633D01*
X74707Y-147731D01*
X74757Y-147829D01*
X74817Y-147922D01*
X74882Y-148009D01*
X74888Y-148015D01*
X74898Y-148026D01*
X74920Y-148048D01*
X74953Y-148075D01*
X74991Y-148108D01*
X75035Y-148146D01*
X75090Y-148184D01*
X75150Y-148222D01*
X75215Y-148266D01*
X75286Y-148304D01*
X75363Y-148343D01*
X75450Y-148375D01*
X75537Y-148403D01*
X75636Y-148424D01*
X75734Y-148435D01*
X75838Y-148441D01*
X75865D01*
X75892Y-148435D01*
X75931D01*
X75980Y-148430D01*
X76040Y-148419D01*
X76100Y-148403D01*
X76171Y-148386D01*
X76242Y-148364D01*
X76318Y-148337D01*
X76400Y-148299D01*
X76477Y-148261D01*
X76558Y-148211D01*
X76635Y-148151D01*
X76717Y-148086D01*
X76788Y-148009D01*
X76793Y-148004D01*
X76804Y-147988D01*
X76826Y-147966D01*
X76848Y-147927D01*
X76875Y-147884D01*
X76908Y-147829D01*
X76946Y-147764D01*
X76984Y-147693D01*
X77017Y-147605D01*
X77055Y-147513D01*
X77088Y-147409D01*
X77115Y-147300D01*
X77137Y-147174D01*
X77159Y-147043D01*
X77170Y-146901D01*
X77175Y-146754D01*
Y-146743D01*
Y-146715D01*
Y-146677D01*
X77170Y-146623D01*
X77164Y-146552D01*
X77153Y-146475D01*
X77143Y-146388D01*
X77126Y-146295D01*
X77104Y-146197D01*
X77083Y-146098D01*
X77050Y-145995D01*
X77012Y-145891D01*
X76968Y-145787D01*
X76913Y-145689D01*
X76859Y-145601D01*
X76788Y-145514D01*
X76782Y-145509D01*
X76771Y-145498D01*
X76749Y-145476D01*
X76717Y-145443D01*
X76684Y-145410D01*
X76635Y-145378D01*
X76586Y-145334D01*
X76526Y-145296D01*
X76460Y-145258D01*
X76389Y-145214D01*
X76307Y-145181D01*
X76225Y-145143D01*
X76138Y-145116D01*
X76040Y-145094D01*
X75941Y-145083D01*
X75838Y-145077D01*
D02*
G37*
G36*
X296841Y-137406D02*
X296835D01*
X296830Y-137411D01*
X296813Y-137417D01*
X296786Y-137422D01*
X296759Y-137433D01*
X296720Y-137444D01*
X296677Y-137455D01*
X296622Y-137466D01*
X296562Y-137482D01*
X296497Y-137498D01*
X296426Y-137520D01*
X296344Y-137537D01*
X296256Y-137558D01*
X296163Y-137580D01*
X296060Y-137608D01*
X295951Y-137629D01*
X295945D01*
X295923Y-137635D01*
X295896Y-137640D01*
X295852Y-137651D01*
X295803Y-137662D01*
X295748Y-137679D01*
X295628Y-137711D01*
X295497Y-137750D01*
X295366Y-137788D01*
X295306Y-137815D01*
X295252Y-137837D01*
X295202Y-137859D01*
X295164Y-137881D01*
X295159D01*
X295153Y-137892D01*
X295121Y-137919D01*
X295077Y-137963D01*
X295028Y-138023D01*
X294973Y-138094D01*
X294930Y-138181D01*
X294897Y-138285D01*
X294891Y-138339D01*
X294886Y-138394D01*
Y-138399D01*
Y-138405D01*
Y-138421D01*
X294891Y-138443D01*
X294897Y-138503D01*
X294913Y-138574D01*
X294940Y-138656D01*
X294979Y-138743D01*
X295033Y-138831D01*
X295110Y-138918D01*
X295121Y-138929D01*
X295153Y-138951D01*
X295202Y-138989D01*
X295268Y-139027D01*
X295350Y-139066D01*
X295448Y-139104D01*
X295563Y-139126D01*
X295688Y-139137D01*
X295727D01*
X295754Y-139131D01*
X295792D01*
X295830Y-139120D01*
X295929Y-139104D01*
X296043Y-139071D01*
X296169Y-139027D01*
X296300Y-138962D01*
X296371Y-138924D01*
X296436Y-138880D01*
X296442D01*
X296447Y-138869D01*
X296480Y-138847D01*
X296524Y-138803D01*
X296578Y-138749D01*
X296638Y-138678D01*
X296693Y-138596D01*
X296742Y-138503D01*
X296780Y-138405D01*
X296786Y-138394D01*
X296791Y-138367D01*
X296797Y-138345D01*
X296802Y-138318D01*
X296808Y-138285D01*
X296813Y-138247D01*
X296819Y-138203D01*
X296824Y-138148D01*
Y-138094D01*
X296830Y-138028D01*
X296835Y-137957D01*
X296841Y-137875D01*
Y-137788D01*
Y-137695D01*
Y-137406D01*
D02*
G37*
G36*
X263136Y-135544D02*
X263092D01*
X263059Y-135549D01*
X263016Y-135555D01*
X262967Y-135560D01*
X262917Y-135571D01*
X262857Y-135588D01*
X262737Y-135631D01*
X262672Y-135658D01*
X262606Y-135691D01*
X262535Y-135729D01*
X262475Y-135779D01*
X262410Y-135833D01*
X262350Y-135893D01*
X262344Y-135899D01*
X262339Y-135910D01*
X262322Y-135931D01*
X262300Y-135959D01*
X262279Y-135992D01*
X262251Y-136035D01*
X262224Y-136084D01*
X262197Y-136139D01*
X262164Y-136204D01*
X262137Y-136275D01*
X262115Y-136352D01*
X262088Y-136434D01*
X262071Y-136527D01*
X262055Y-136619D01*
X262044Y-136723D01*
Y-136832D01*
X264217D01*
Y-136827D01*
Y-136805D01*
X264212Y-136772D01*
Y-136729D01*
X264206Y-136674D01*
X264195Y-136614D01*
X264184Y-136548D01*
X264168Y-136477D01*
X264130Y-136325D01*
X264070Y-136166D01*
X264037Y-136084D01*
X263993Y-136013D01*
X263944Y-135942D01*
X263889Y-135877D01*
X263884Y-135871D01*
X263873Y-135861D01*
X263857Y-135844D01*
X263835Y-135822D01*
X263802Y-135800D01*
X263769Y-135773D01*
X263726Y-135740D01*
X263676Y-135708D01*
X263567Y-135647D01*
X263442Y-135593D01*
X263371Y-135576D01*
X263294Y-135560D01*
X263218Y-135549D01*
X263136Y-135544D01*
D02*
G37*
G36*
X250551Y-135615D02*
X250496D01*
X250458Y-135620D01*
X250409Y-135626D01*
X250349Y-135637D01*
X250289Y-135653D01*
X250218Y-135669D01*
X250147Y-135691D01*
X250070Y-135719D01*
X249988Y-135757D01*
X249906Y-135800D01*
X249830Y-135849D01*
X249748Y-135910D01*
X249672Y-135975D01*
X249595Y-136052D01*
X249590Y-136057D01*
X249579Y-136073D01*
X249562Y-136095D01*
X249535Y-136134D01*
X249508Y-136177D01*
X249475Y-136232D01*
X249442Y-136297D01*
X249404Y-136368D01*
X249371Y-136450D01*
X249333Y-136543D01*
X249300Y-136647D01*
X249273Y-136756D01*
X249246Y-136881D01*
X249229Y-137007D01*
X249218Y-137149D01*
X249213Y-137296D01*
Y-137307D01*
Y-137335D01*
Y-137373D01*
X249218Y-137433D01*
X249224Y-137498D01*
X249235Y-137580D01*
X249246Y-137668D01*
X249262Y-137760D01*
X249278Y-137859D01*
X249306Y-137963D01*
X249339Y-138066D01*
X249377Y-138170D01*
X249420Y-138268D01*
X249469Y-138367D01*
X249530Y-138459D01*
X249595Y-138547D01*
X249601Y-138552D01*
X249611Y-138563D01*
X249633Y-138585D01*
X249666Y-138612D01*
X249704Y-138645D01*
X249748Y-138683D01*
X249803Y-138722D01*
X249863Y-138760D01*
X249928Y-138803D01*
X249999Y-138842D01*
X250076Y-138880D01*
X250163Y-138913D01*
X250250Y-138940D01*
X250349Y-138962D01*
X250447Y-138973D01*
X250551Y-138978D01*
X250578D01*
X250605Y-138973D01*
X250643D01*
X250693Y-138967D01*
X250753Y-138956D01*
X250813Y-138940D01*
X250884Y-138924D01*
X250955Y-138902D01*
X251031Y-138874D01*
X251113Y-138836D01*
X251189Y-138798D01*
X251271Y-138749D01*
X251348Y-138689D01*
X251430Y-138623D01*
X251501Y-138547D01*
X251506Y-138541D01*
X251517Y-138525D01*
X251539Y-138503D01*
X251561Y-138465D01*
X251588Y-138421D01*
X251621Y-138367D01*
X251659Y-138301D01*
X251697Y-138230D01*
X251730Y-138143D01*
X251768Y-138050D01*
X251801Y-137946D01*
X251828Y-137837D01*
X251850Y-137711D01*
X251872Y-137580D01*
X251883Y-137438D01*
X251888Y-137291D01*
Y-137280D01*
Y-137253D01*
Y-137215D01*
X251883Y-137160D01*
X251877Y-137089D01*
X251866Y-137013D01*
X251855Y-136925D01*
X251839Y-136832D01*
X251817Y-136734D01*
X251796Y-136636D01*
X251763Y-136532D01*
X251725Y-136428D01*
X251681Y-136325D01*
X251626Y-136226D01*
X251572Y-136139D01*
X251501Y-136052D01*
X251495Y-136046D01*
X251484Y-136035D01*
X251462Y-136013D01*
X251430Y-135981D01*
X251397Y-135948D01*
X251348Y-135915D01*
X251299Y-135871D01*
X251238Y-135833D01*
X251173Y-135795D01*
X251102Y-135751D01*
X251020Y-135719D01*
X250938Y-135680D01*
X250851Y-135653D01*
X250753Y-135631D01*
X250654Y-135620D01*
X250551Y-135615D01*
D02*
G37*
G36*
X230878Y-135544D02*
X230835D01*
X230802Y-135549D01*
X230758Y-135555D01*
X230709Y-135560D01*
X230660Y-135571D01*
X230600Y-135588D01*
X230480Y-135631D01*
X230414Y-135658D01*
X230349Y-135691D01*
X230278Y-135729D01*
X230218Y-135779D01*
X230152Y-135833D01*
X230092Y-135893D01*
X230086Y-135899D01*
X230081Y-135910D01*
X230065Y-135931D01*
X230043Y-135959D01*
X230021Y-135992D01*
X229994Y-136035D01*
X229966Y-136084D01*
X229939Y-136139D01*
X229906Y-136204D01*
X229879Y-136275D01*
X229857Y-136352D01*
X229830Y-136434D01*
X229814Y-136527D01*
X229797Y-136619D01*
X229786Y-136723D01*
Y-136832D01*
X231959D01*
Y-136827D01*
Y-136805D01*
X231954Y-136772D01*
Y-136729D01*
X231948Y-136674D01*
X231937Y-136614D01*
X231926Y-136548D01*
X231910Y-136477D01*
X231872Y-136325D01*
X231812Y-136166D01*
X231779Y-136084D01*
X231735Y-136013D01*
X231686Y-135942D01*
X231632Y-135877D01*
X231626Y-135871D01*
X231615Y-135861D01*
X231599Y-135844D01*
X231577Y-135822D01*
X231544Y-135800D01*
X231512Y-135773D01*
X231468Y-135740D01*
X231419Y-135708D01*
X231310Y-135647D01*
X231184Y-135593D01*
X231113Y-135576D01*
X231036Y-135560D01*
X230960Y-135549D01*
X230878Y-135544D01*
D02*
G37*
G36*
X167607Y-51986D02*
X167570D01*
X167534Y-51993D01*
X167475D01*
X167410Y-52007D01*
X167330Y-52015D01*
X167242Y-52036D01*
X167147Y-52058D01*
X167045Y-52095D01*
X166943Y-52131D01*
X166834Y-52182D01*
X166725Y-52241D01*
X166608Y-52306D01*
X166499Y-52394D01*
X166389Y-52481D01*
X166287Y-52591D01*
X166280Y-52598D01*
X166265Y-52620D01*
X166236Y-52656D01*
X166200Y-52700D01*
X166163Y-52766D01*
X166120Y-52838D01*
X166068Y-52926D01*
X166017Y-53021D01*
X165966Y-53137D01*
X165915Y-53261D01*
X165872Y-53400D01*
X165835Y-53553D01*
X165799Y-53713D01*
X165770Y-53888D01*
X165755Y-54070D01*
X165748Y-54267D01*
Y-54274D01*
Y-54296D01*
Y-54333D01*
Y-54384D01*
X165755Y-54442D01*
Y-54515D01*
X165762Y-54588D01*
X165770Y-54676D01*
X165799Y-54865D01*
X165828Y-55069D01*
X165879Y-55288D01*
X165945Y-55492D01*
X168656Y-52357D01*
X168649Y-52350D01*
X168634Y-52343D01*
X168613Y-52321D01*
X168576Y-52299D01*
X168533Y-52270D01*
X168482Y-52241D01*
X168416Y-52204D01*
X168350Y-52168D01*
X168197Y-52102D01*
X168015Y-52044D01*
X167818Y-52000D01*
X167716Y-51993D01*
X167607Y-51986D01*
D02*
G37*
G36*
X169247Y-53203D02*
X166550Y-56323D01*
X166557D01*
X166571Y-56338D01*
X166593Y-56352D01*
X166630Y-56374D01*
X166674Y-56396D01*
X166725Y-56425D01*
X166783Y-56454D01*
X166849Y-56483D01*
X167002Y-56542D01*
X167184Y-56593D01*
X167381Y-56629D01*
X167483Y-56637D01*
X167592Y-56644D01*
X167629D01*
X167665Y-56637D01*
X167723D01*
X167789Y-56622D01*
X167869Y-56615D01*
X167957Y-56593D01*
X168051Y-56571D01*
X168153Y-56542D01*
X168263Y-56498D01*
X168372Y-56454D01*
X168482Y-56396D01*
X168598Y-56330D01*
X168707Y-56250D01*
X168817Y-56155D01*
X168919Y-56053D01*
X168926Y-56046D01*
X168941Y-56024D01*
X168970Y-55988D01*
X169006Y-55944D01*
X169043Y-55878D01*
X169087Y-55805D01*
X169138Y-55718D01*
X169189Y-55623D01*
X169240Y-55506D01*
X169291Y-55383D01*
X169334Y-55244D01*
X169371Y-55098D01*
X169407Y-54938D01*
X169436Y-54763D01*
X169451Y-54581D01*
X169458Y-54384D01*
Y-54377D01*
Y-54355D01*
Y-54318D01*
Y-54274D01*
X169451Y-54216D01*
Y-54151D01*
X169444Y-54078D01*
X169429Y-53990D01*
X169407Y-53808D01*
X169371Y-53611D01*
X169320Y-53407D01*
X169247Y-53203D01*
D02*
G37*
G36*
X137659Y-49594D02*
X136522D01*
Y-56272D01*
X138257D01*
X138337Y-56265D01*
X138425D01*
X138520Y-56257D01*
X138724Y-56250D01*
X138928Y-56228D01*
X139117Y-56206D01*
X139205Y-56192D01*
X139278Y-56177D01*
X139285D01*
X139300Y-56170D01*
X139329Y-56163D01*
X139358Y-56155D01*
X139402Y-56141D01*
X139453Y-56119D01*
X139569Y-56075D01*
X139700Y-56024D01*
X139832Y-55951D01*
X139970Y-55864D01*
X140102Y-55762D01*
X140109Y-55754D01*
X140116Y-55747D01*
X140131Y-55733D01*
X140160Y-55703D01*
X140182Y-55674D01*
X140218Y-55630D01*
X140255Y-55587D01*
X140291Y-55528D01*
X140335Y-55463D01*
X140378Y-55390D01*
X140422Y-55310D01*
X140466Y-55222D01*
X140510Y-55128D01*
X140553Y-55018D01*
X140597Y-54909D01*
X140634Y-54785D01*
Y-54777D01*
X140641Y-54756D01*
X140656Y-54712D01*
X140670Y-54661D01*
X140685Y-54595D01*
X140699Y-54508D01*
X140721Y-54413D01*
X140743Y-54296D01*
X140758Y-54172D01*
X140779Y-54034D01*
X140794Y-53888D01*
X140816Y-53720D01*
X140823Y-53545D01*
X140838Y-53356D01*
X140845Y-53152D01*
Y-52940D01*
Y-52926D01*
Y-52889D01*
Y-52831D01*
Y-52751D01*
X140838Y-52649D01*
Y-52539D01*
X140831Y-52416D01*
X140816Y-52277D01*
X140809Y-52139D01*
X140794Y-51993D01*
X140758Y-51694D01*
X140728Y-51548D01*
X140707Y-51402D01*
X140670Y-51271D01*
X140634Y-51147D01*
Y-51140D01*
X140626Y-51118D01*
X140612Y-51089D01*
X140597Y-51045D01*
X140575Y-50994D01*
X140546Y-50928D01*
X140488Y-50790D01*
X140400Y-50630D01*
X140306Y-50469D01*
X140189Y-50316D01*
X140058Y-50170D01*
X140050Y-50163D01*
X140043Y-50156D01*
X140021Y-50134D01*
X139992Y-50112D01*
X139956Y-50083D01*
X139912Y-50054D01*
X139803Y-49981D01*
X139664Y-49900D01*
X139504Y-49820D01*
X139314Y-49755D01*
X139110Y-49696D01*
X139103D01*
X139088Y-49689D01*
X139059D01*
X139023Y-49682D01*
X138971Y-49674D01*
X138906Y-49667D01*
X138833Y-49653D01*
X138738Y-49645D01*
X138636Y-49638D01*
X138512Y-49624D01*
X138374Y-49616D01*
X138221Y-49609D01*
X138053Y-49602D01*
X137864D01*
X137659Y-49594D01*
D02*
G37*
G36*
X192429Y-51986D02*
X192364D01*
X192313Y-51993D01*
X192254Y-52000D01*
X192189Y-52015D01*
X192108Y-52029D01*
X192028Y-52051D01*
X191941Y-52080D01*
X191846Y-52117D01*
X191751Y-52160D01*
X191656Y-52219D01*
X191562Y-52277D01*
X191467Y-52350D01*
X191372Y-52438D01*
X191285Y-52532D01*
X191277Y-52539D01*
X191263Y-52554D01*
X191241Y-52591D01*
X191219Y-52634D01*
X191182Y-52693D01*
X191146Y-52758D01*
X191102Y-52846D01*
X191066Y-52940D01*
X191022Y-53050D01*
X190978Y-53174D01*
X190942Y-53305D01*
X190913Y-53458D01*
X190884Y-53618D01*
X190862Y-53793D01*
X190847Y-53976D01*
X190840Y-54180D01*
Y-54194D01*
Y-54231D01*
Y-54289D01*
X190847Y-54369D01*
X190855Y-54464D01*
X190862Y-54573D01*
X190876Y-54697D01*
X190898Y-54829D01*
X190949Y-55106D01*
X190986Y-55244D01*
X191029Y-55383D01*
X191080Y-55521D01*
X191139Y-55652D01*
X191204Y-55769D01*
X191285Y-55878D01*
X191292Y-55886D01*
X191306Y-55900D01*
X191328Y-55929D01*
X191365Y-55966D01*
X191409Y-56002D01*
X191460Y-56046D01*
X191525Y-56097D01*
X191591Y-56148D01*
X191671Y-56199D01*
X191758Y-56250D01*
X191948Y-56330D01*
X192050Y-56367D01*
X192159Y-56396D01*
X192276Y-56410D01*
X192400Y-56418D01*
X192429D01*
X192466Y-56410D01*
X192517D01*
X192582Y-56403D01*
X192648Y-56389D01*
X192728Y-56374D01*
X192815Y-56345D01*
X192910Y-56316D01*
X193005Y-56279D01*
X193100Y-56235D01*
X193202Y-56185D01*
X193304Y-56119D01*
X193406Y-56046D01*
X193501Y-55958D01*
X193596Y-55864D01*
X193603Y-55857D01*
X193617Y-55835D01*
X193639Y-55805D01*
X193676Y-55762D01*
X193712Y-55703D01*
X193749Y-55630D01*
X193792Y-55550D01*
X193843Y-55448D01*
X193887Y-55339D01*
X193931Y-55222D01*
X193967Y-55084D01*
X194011Y-54938D01*
X194040Y-54777D01*
X194062Y-54603D01*
X194077Y-54420D01*
X194084Y-54224D01*
Y-54209D01*
Y-54172D01*
Y-54114D01*
X194077Y-54041D01*
X194069Y-53947D01*
X194062Y-53837D01*
X194047Y-53720D01*
X194026Y-53589D01*
X193967Y-53312D01*
X193931Y-53174D01*
X193887Y-53035D01*
X193829Y-52904D01*
X193763Y-52773D01*
X193690Y-52649D01*
X193610Y-52539D01*
X193603Y-52532D01*
X193588Y-52518D01*
X193559Y-52488D01*
X193530Y-52452D01*
X193479Y-52408D01*
X193428Y-52364D01*
X193362Y-52314D01*
X193289Y-52263D01*
X193209Y-52211D01*
X193114Y-52160D01*
X193020Y-52117D01*
X192918Y-52073D01*
X192801Y-52036D01*
X192684Y-52007D01*
X192560Y-51993D01*
X192429Y-51986D01*
D02*
G37*
%LPD*%
D10*
X61669Y-45012D02*
X60882D01*
X61669D01*
X38169D02*
X37382D01*
X38169D01*
X85169D02*
X84382D01*
X85169D01*
X108669D02*
X107882D01*
X108669D01*
X132169D02*
X131382D01*
X132169D01*
X155669D02*
X154882D01*
X155669D01*
X179169D02*
X178382D01*
X179169D01*
X202669Y-45012D02*
X201882D01*
X202669D01*
X226169Y-45012D02*
X225381D01*
X226169D01*
X249669Y-45012D02*
X248881D01*
X249669D01*
X320394Y-51142D02*
X320368Y-50142D01*
X320289Y-49146D01*
X320159Y-48155D01*
X319976Y-47172D01*
X319743Y-46200D01*
X319459Y-45241D01*
X319126Y-44299D01*
X318743Y-43375D01*
X318313Y-42473D01*
X317835Y-41594D01*
X317313Y-40742D01*
X316747Y-39918D01*
X316138Y-39125D01*
X315489Y-38365D01*
X314801Y-37640D01*
X314076Y-36952D01*
X313316Y-36303D01*
X312523Y-35694D01*
X311699Y-35128D01*
X310846Y-34605D01*
X309968Y-34128D01*
X309066Y-33698D01*
X308142Y-33316D01*
X307200Y-32982D01*
X306241Y-32698D01*
X305269Y-32465D01*
X304286Y-32282D01*
X303295Y-32152D01*
X302298Y-32073D01*
X301299Y-32047D01*
X300300Y-32073D01*
X299303Y-32152D01*
X298312Y-32282D01*
X297329Y-32465D01*
X296357Y-32698D01*
X295399Y-32982D01*
X294456Y-33316D01*
X293533Y-33698D01*
X292631Y-34128D01*
X291752Y-34605D01*
X290900Y-35128D01*
X290076Y-35694D01*
X289283Y-36303D01*
X288523Y-36952D01*
X287797Y-37640D01*
X287109Y-38365D01*
X286460Y-39125D01*
X285851Y-39918D01*
X285285Y-40742D01*
X284763Y-41594D01*
X284286Y-42473D01*
X283856Y-43375D01*
X283473Y-44299D01*
X283139Y-45241D01*
X282855Y-46200D01*
X282622Y-47172D01*
X282440Y-48155D01*
X282309Y-49146D01*
X282231Y-50142D01*
X282205Y-51142D01*
X282231Y-52141D01*
X282309Y-53138D01*
X282440Y-54129D01*
X282622Y-55112D01*
X282855Y-56084D01*
X283139Y-57042D01*
X283473Y-57985D01*
X283856Y-58908D01*
X284286Y-59811D01*
X284763Y-60689D01*
X285285Y-61541D01*
X285851Y-62365D01*
X286460Y-63158D01*
X287109Y-63918D01*
X287797Y-64644D01*
X288523Y-65332D01*
X289283Y-65981D01*
X290076Y-66589D01*
X290900Y-67156D01*
X291752Y-67678D01*
X292631Y-68155D01*
X293533Y-68585D01*
X294456Y-68968D01*
X295399Y-69302D01*
X296357Y-69586D01*
X297329Y-69819D01*
X298312Y-70001D01*
X299303Y-70132D01*
X300300Y-70210D01*
X301299Y-70236D01*
X302298Y-70210D01*
X303295Y-70132D01*
X304286Y-70001D01*
X305269Y-69819D01*
X306241Y-69586D01*
X307200Y-69302D01*
X308142Y-68968D01*
X309066Y-68585D01*
X309968Y-68155D01*
X310846Y-67678D01*
X311699Y-67156D01*
X312523Y-66589D01*
X313316Y-65981D01*
X314076Y-65332D01*
X314801Y-64644D01*
X315489Y-63918D01*
X316138Y-63158D01*
X316747Y-62365D01*
X317313Y-61541D01*
X317835Y-60689D01*
X318313Y-59811D01*
X318743Y-58908D01*
X319126Y-57985D01*
X319459Y-57042D01*
X319743Y-56084D01*
X319976Y-55112D01*
X320159Y-54129D01*
X320289Y-53138D01*
X320368Y-52141D01*
X320394Y-51142D01*
X9016Y-103524D02*
X8228D01*
X9016D01*
X136724Y-85256D02*
X135937D01*
X136724D01*
X186295D02*
X185508D01*
X186295D01*
X149624Y-17171D02*
X152676D01*
X149624Y-8116D02*
X152676D01*
X131776Y-17171D02*
X134828D01*
X131776D02*
Y-16778D01*
Y-15862D01*
X131776Y-8116D02*
X134828D01*
X131776D02*
X131776Y-9524D01*
Y-15862D02*
Y-9524D01*
X152676Y-17171D02*
X152676Y-8116D01*
X267124Y-17171D02*
X270176D01*
X267124Y-8116D02*
X270176D01*
X249276Y-17171D02*
X252328D01*
X249276D02*
Y-16778D01*
Y-15862D01*
X249276Y-8116D02*
X252328D01*
X249276D02*
X249276Y-9524D01*
Y-15862D02*
Y-9524D01*
X270176Y-17171D02*
X270176Y-8116D01*
X243624Y-17171D02*
X246676D01*
X243624Y-8116D02*
X246676D01*
X225776Y-17171D02*
X228828D01*
X225776D02*
Y-16778D01*
Y-15862D01*
X225776Y-8116D02*
X228828D01*
X225776D02*
X225776Y-9524D01*
Y-15862D02*
Y-9524D01*
X246676Y-17171D02*
X246676Y-8116D01*
X220124Y-17171D02*
X223176D01*
X220124Y-8116D02*
X223176D01*
X202276Y-17171D02*
X205328D01*
X202276D02*
Y-16778D01*
Y-15862D01*
X202276Y-8116D02*
X205328D01*
X202276D02*
X202276Y-9524D01*
Y-15862D02*
Y-9524D01*
X223176Y-17171D02*
X223176Y-8116D01*
X196624Y-17171D02*
X199676D01*
X196624Y-8116D02*
X199676D01*
X178776Y-17171D02*
X181828D01*
X178776D02*
Y-16778D01*
Y-15862D01*
X178776Y-8116D02*
X181828D01*
X178776D02*
X178776Y-9524D01*
Y-15862D02*
Y-9524D01*
X199676Y-17171D02*
X199676Y-8116D01*
X173124Y-17171D02*
X176176D01*
X173124Y-8116D02*
X176176D01*
X155276Y-17171D02*
X158328D01*
X155276D02*
Y-16778D01*
Y-15862D01*
Y-8116D02*
X158328D01*
X155276Y-9524D02*
Y-8116D01*
Y-15862D02*
Y-9524D01*
X176176Y-17171D02*
Y-8116D01*
X126124Y-17171D02*
X129176D01*
X126124Y-8116D02*
X129176D01*
X108276Y-17171D02*
X111328D01*
X108276D02*
Y-16778D01*
Y-15862D01*
X108276Y-8116D02*
X111328D01*
X108276D02*
X108276Y-9524D01*
Y-15862D02*
Y-9524D01*
X129176Y-17171D02*
X129176Y-8116D01*
X102624Y-17171D02*
X105676D01*
X102624Y-8116D02*
X105676D01*
X84776Y-17171D02*
X87828D01*
X84776D02*
Y-16778D01*
Y-15862D01*
X84776Y-8116D02*
X87828D01*
X84776D02*
X84776Y-9524D01*
Y-15862D02*
Y-9524D01*
X105676Y-17171D02*
X105676Y-8116D01*
X79124Y-17171D02*
X82176D01*
X79124Y-8116D02*
X82176D01*
X61276Y-17171D02*
X64328D01*
X61276D02*
Y-16778D01*
Y-15862D01*
X61276Y-8116D02*
X64328D01*
X61276D02*
X61276Y-9524D01*
Y-15862D02*
Y-9524D01*
X82176Y-17171D02*
X82176Y-8116D01*
X55605Y-17152D02*
X58657D01*
X55605Y-8096D02*
X58657D01*
X37757Y-17152D02*
X40809D01*
X37757D02*
Y-16758D01*
Y-15843D01*
X37757Y-8096D02*
X40809D01*
X37757D02*
X37757Y-9504D01*
Y-15843D02*
Y-9504D01*
X58657Y-17152D02*
X58657Y-8096D01*
D11*
X308547Y-29713D02*
X307760D01*
X308547D01*
D12*
X213410Y-73205D02*
X213648Y-73106D01*
X163800Y-85567D02*
X164037Y-85469D01*
X213371Y-85567D02*
X213608Y-85469D01*
X163879Y-73165D02*
X164116Y-73067D01*
X213648Y-73106D02*
Y-63825D01*
X183973Y-73205D02*
X213410D01*
X183973D02*
X183973Y-63825D01*
X213648D01*
X164037Y-85469D02*
X164037Y-76187D01*
X134362Y-85567D02*
X163800D01*
X134362Y-76187D02*
X134362Y-85567D01*
X134362Y-76187D02*
X164037D01*
X183933D02*
X213608D01*
X183933Y-85567D02*
X183933Y-76187D01*
X183933Y-85567D02*
X213371D01*
X213608Y-76187D02*
X213608Y-85469D01*
X134441Y-63785D02*
X164116D01*
X134441Y-73165D02*
X134441Y-63785D01*
X134441Y-73165D02*
X163879D01*
X164116Y-73067D02*
Y-63785D01*
X62390Y-121613D02*
Y-116497D01*
X64948D01*
X65801Y-117350D01*
Y-119055D01*
X64948Y-119908D01*
X62390D01*
X67506Y-117350D02*
X68359Y-116497D01*
X70065D01*
X70917Y-117350D01*
Y-118202D01*
X70065Y-119055D01*
X69212D01*
X70065D01*
X70917Y-119908D01*
Y-120761D01*
X70065Y-121613D01*
X68359D01*
X67506Y-120761D01*
X57312Y-93488D02*
Y-97752D01*
X58165Y-98605D01*
X59870D01*
X60723Y-97752D01*
Y-93488D01*
X62428Y-94341D02*
X63281Y-93488D01*
X64986D01*
X65839Y-94341D01*
Y-95194D01*
X64986Y-96047D01*
X65839Y-96899D01*
Y-97752D01*
X64986Y-98605D01*
X63281D01*
X62428Y-97752D01*
Y-96899D01*
X63281Y-96047D01*
X62428Y-95194D01*
Y-94341D01*
X63281Y-96047D02*
X64986D01*
X57212Y-104488D02*
Y-108752D01*
X58065Y-109605D01*
X59770D01*
X60623Y-108752D01*
Y-104488D01*
X62328D02*
X65739D01*
Y-105341D01*
X62328Y-108752D01*
Y-109605D01*
X255212Y-78788D02*
Y-83052D01*
X256065Y-83905D01*
X257770D01*
X258623Y-83052D01*
Y-78788D01*
X263739D02*
X260328D01*
Y-81346D01*
X262034Y-80494D01*
X262887D01*
X263739Y-81346D01*
Y-83052D01*
X262887Y-83905D01*
X261181D01*
X260328Y-83052D01*
X20523Y-115741D02*
X19670Y-114888D01*
X17965D01*
X17112Y-115741D01*
Y-116594D01*
X17965Y-117446D01*
X19670D01*
X20523Y-118299D01*
Y-119152D01*
X19670Y-120005D01*
X17965D01*
X17112Y-119152D01*
X22228Y-115741D02*
X23081Y-114888D01*
X24787D01*
X25639Y-115741D01*
Y-116594D01*
X24787Y-117446D01*
X23934D01*
X24787D01*
X25639Y-118299D01*
Y-119152D01*
X24787Y-120005D01*
X23081D01*
X22228Y-119152D01*
X197823Y-97541D02*
X196970Y-96688D01*
X195265D01*
X194412Y-97541D01*
Y-98394D01*
X195265Y-99247D01*
X196970D01*
X197823Y-100099D01*
Y-100952D01*
X196970Y-101805D01*
X195265D01*
X194412Y-100952D01*
X202939Y-101805D02*
X199528D01*
X202939Y-98394D01*
Y-97541D01*
X202086Y-96688D01*
X200381D01*
X199528Y-97541D01*
X149123D02*
X148270Y-96688D01*
X146565D01*
X145712Y-97541D01*
Y-98394D01*
X146565Y-99247D01*
X148270D01*
X149123Y-100099D01*
Y-100952D01*
X148270Y-101805D01*
X146565D01*
X145712Y-100952D01*
X150828Y-101805D02*
X152534D01*
X151681D01*
Y-96688D01*
X150828Y-97541D01*
X194512Y-71105D02*
Y-65988D01*
X197070D01*
X197923Y-66841D01*
Y-68546D01*
X197070Y-69399D01*
X194512D01*
X196217D02*
X197923Y-71105D01*
X202186D02*
Y-65988D01*
X199628Y-68546D01*
X203039D01*
X144912Y-71005D02*
Y-65888D01*
X147470D01*
X148323Y-66741D01*
Y-68446D01*
X147470Y-69299D01*
X144912D01*
X146617D02*
X148323Y-71005D01*
X150028Y-66741D02*
X150881Y-65888D01*
X152586D01*
X153439Y-66741D01*
Y-67594D01*
X152586Y-68446D01*
X151734D01*
X152586D01*
X153439Y-69299D01*
Y-70152D01*
X152586Y-71005D01*
X150881D01*
X150028Y-70152D01*
X194412Y-83405D02*
Y-78288D01*
X196970D01*
X197823Y-79141D01*
Y-80847D01*
X196970Y-81699D01*
X194412D01*
X196117D02*
X197823Y-83405D01*
X202939D02*
X199528D01*
X202939Y-79994D01*
Y-79141D01*
X202086Y-78288D01*
X200381D01*
X199528Y-79141D01*
X145712Y-83405D02*
Y-78288D01*
X148270D01*
X149123Y-79141D01*
Y-80847D01*
X148270Y-81699D01*
X145712D01*
X147417D02*
X149123Y-83405D01*
X150828D02*
X152534D01*
X151681D01*
Y-78288D01*
X150828Y-79141D01*
D13*
X12850Y-107476D02*
X29984D01*
X33228Y-123917D02*
Y-114657D01*
X12850Y-131098D02*
X29984D01*
X9606Y-123917D02*
Y-114657D01*
X137315Y-105650D02*
Y-96390D01*
X140559Y-112831D02*
X157693D01*
X160937Y-105650D02*
Y-96390D01*
X140559Y-89209D02*
X157693D01*
X186886Y-105650D02*
Y-96390D01*
X190130Y-112831D02*
X207264D01*
X210508Y-105650D02*
Y-96390D01*
X190130Y-89209D02*
X207264D01*
D14*
X123190Y-97941D02*
X128306D01*
Y-100499D01*
X127453Y-101352D01*
X125748D01*
X124895Y-100499D01*
Y-97941D01*
X123190Y-106468D02*
Y-103058D01*
X126601Y-106468D01*
X127453D01*
X128306Y-105616D01*
Y-103910D01*
X127453Y-103058D01*
D15*
X75212Y-66145D02*
Y-67785D01*
X75540Y-68113D01*
X76196D01*
X76524Y-67785D01*
Y-66145D01*
X78492D02*
X77836Y-66474D01*
X77180Y-67129D01*
Y-67785D01*
X77508Y-68113D01*
X78164D01*
X78492Y-67785D01*
Y-67457D01*
X78164Y-67129D01*
X77180D01*
X19423Y-25393D02*
Y-23426D01*
X20407D01*
X20735Y-23753D01*
Y-24409D01*
X20407Y-24737D01*
X19423D01*
X20079D02*
X20735Y-25393D01*
X22703D02*
X21391D01*
X22703Y-24081D01*
Y-23753D01*
X22375Y-23426D01*
X21719D01*
X21391Y-23753D01*
X23359D02*
X23687Y-23426D01*
X24343D01*
X24671Y-23753D01*
Y-25065D01*
X24343Y-25393D01*
X23687D01*
X23359Y-25065D01*
Y-23753D01*
X5808Y-41141D02*
Y-39174D01*
X6792D01*
X7120Y-39502D01*
Y-40157D01*
X6792Y-40486D01*
X5808D01*
X6464D02*
X7120Y-41141D01*
X7776D02*
X8432D01*
X8104D01*
Y-39174D01*
X7776Y-39502D01*
X9416Y-40813D02*
X9744Y-41141D01*
X10400D01*
X10728Y-40813D01*
Y-39502D01*
X10400Y-39174D01*
X9744D01*
X9416Y-39502D01*
Y-39829D01*
X9744Y-40157D01*
X10728D01*
X33695Y-54527D02*
Y-52559D01*
X34679D01*
X35007Y-52887D01*
Y-53543D01*
X34679Y-53871D01*
X33695D01*
X34351D02*
X35007Y-54527D01*
X35663D02*
X36319D01*
X35991D01*
Y-52559D01*
X35663Y-52887D01*
X37303Y-54527D02*
X37959D01*
X37631D01*
Y-52559D01*
X37303Y-52887D01*
X5414Y-49409D02*
Y-47441D01*
X6398D01*
X6726Y-47769D01*
Y-48425D01*
X6398Y-48753D01*
X5414D01*
X6070D02*
X6726Y-49409D01*
X7382D02*
X8038D01*
X7710D01*
Y-47441D01*
X7382Y-47769D01*
X9022D02*
X9350Y-47441D01*
X10006D01*
X10334Y-47769D01*
Y-49081D01*
X10006Y-49409D01*
X9350D01*
X9022Y-49081D01*
Y-47769D01*
X257012Y-31446D02*
Y-33413D01*
X257996D01*
X258324Y-33085D01*
Y-31773D01*
X257996Y-31446D01*
X257012D01*
X258980Y-33413D02*
X259636D01*
X259308D01*
Y-31446D01*
X258980Y-31773D01*
X260620D02*
X260947Y-31446D01*
X261603D01*
X261931Y-31773D01*
Y-33085D01*
X261603Y-33413D01*
X260947D01*
X260620Y-33085D01*
Y-31773D01*
X234412Y-31446D02*
Y-33413D01*
X235396D01*
X235724Y-33085D01*
Y-31773D01*
X235396Y-31446D01*
X234412D01*
X236380Y-33085D02*
X236708Y-33413D01*
X237364D01*
X237692Y-33085D01*
Y-31773D01*
X237364Y-31446D01*
X236708D01*
X236380Y-31773D01*
Y-32102D01*
X236708Y-32430D01*
X237692D01*
X210912Y-31446D02*
Y-33413D01*
X211896D01*
X212224Y-33085D01*
Y-31773D01*
X211896Y-31446D01*
X210912D01*
X212880Y-31773D02*
X213208Y-31446D01*
X213864D01*
X214192Y-31773D01*
Y-32102D01*
X213864Y-32430D01*
X214192Y-32757D01*
Y-33085D01*
X213864Y-33413D01*
X213208D01*
X212880Y-33085D01*
Y-32757D01*
X213208Y-32430D01*
X212880Y-32102D01*
Y-31773D01*
X213208Y-32430D02*
X213864D01*
X187412Y-31446D02*
Y-33413D01*
X188396D01*
X188724Y-33085D01*
Y-31773D01*
X188396Y-31446D01*
X187412D01*
X189380D02*
X190692D01*
Y-31773D01*
X189380Y-33085D01*
Y-33413D01*
X163912Y-31446D02*
Y-33413D01*
X164896D01*
X165224Y-33085D01*
Y-31773D01*
X164896Y-31446D01*
X163912D01*
X167192D02*
X166536Y-31773D01*
X165880Y-32430D01*
Y-33085D01*
X166208Y-33413D01*
X166864D01*
X167192Y-33085D01*
Y-32757D01*
X166864Y-32430D01*
X165880D01*
X140412Y-31446D02*
Y-33413D01*
X141396D01*
X141724Y-33085D01*
Y-31773D01*
X141396Y-31446D01*
X140412D01*
X143692D02*
X142380D01*
Y-32430D01*
X143036Y-32102D01*
X143364D01*
X143692Y-32430D01*
Y-33085D01*
X143364Y-33413D01*
X142708D01*
X142380Y-33085D01*
X116912Y-31446D02*
Y-33413D01*
X117896D01*
X118224Y-33085D01*
Y-31773D01*
X117896Y-31446D01*
X116912D01*
X119864Y-33413D02*
Y-31446D01*
X118880Y-32430D01*
X120192D01*
X93412Y-31446D02*
Y-33413D01*
X94396D01*
X94724Y-33085D01*
Y-31773D01*
X94396Y-31446D01*
X93412D01*
X95380Y-31773D02*
X95708Y-31446D01*
X96364D01*
X96692Y-31773D01*
Y-32102D01*
X96364Y-32430D01*
X96036D01*
X96364D01*
X96692Y-32757D01*
Y-33085D01*
X96364Y-33413D01*
X95708D01*
X95380Y-33085D01*
X58596Y-19489D02*
Y-21456D01*
X59580D01*
X59908Y-21128D01*
Y-19816D01*
X59580Y-19489D01*
X58596D01*
X61876Y-21456D02*
X60564D01*
X61876Y-20144D01*
Y-19816D01*
X61548Y-19489D01*
X60892D01*
X60564Y-19816D01*
X33334Y-19489D02*
Y-21456D01*
X34318D01*
X34646Y-21128D01*
Y-19816D01*
X34318Y-19489D01*
X33334D01*
X35302Y-21456D02*
X35958D01*
X35630D01*
Y-19489D01*
X35302Y-19816D01*
X258624Y-11974D02*
X258296Y-11646D01*
X257640D01*
X257312Y-11974D01*
Y-13285D01*
X257640Y-13613D01*
X258296D01*
X258624Y-13285D01*
X259280Y-13613D02*
X259936D01*
X259608D01*
Y-11646D01*
X259280Y-11974D01*
X262231Y-13613D02*
X260920D01*
X262231Y-12302D01*
Y-11974D01*
X261904Y-11646D01*
X261247D01*
X260920Y-11974D01*
X235424D02*
X235096Y-11646D01*
X234440D01*
X234112Y-11974D01*
Y-13285D01*
X234440Y-13613D01*
X235096D01*
X235424Y-13285D01*
X236080Y-13613D02*
X236736D01*
X236408D01*
Y-11646D01*
X236080Y-11974D01*
X237720Y-13613D02*
X238375D01*
X238048D01*
Y-11646D01*
X237720Y-11974D01*
X211624D02*
X211296Y-11646D01*
X210640D01*
X210312Y-11974D01*
Y-13285D01*
X210640Y-13613D01*
X211296D01*
X211624Y-13285D01*
X212280Y-13613D02*
X212936D01*
X212608D01*
Y-11646D01*
X212280Y-11974D01*
X213920D02*
X214247Y-11646D01*
X214903D01*
X215231Y-11974D01*
Y-13285D01*
X214903Y-13613D01*
X214247D01*
X213920Y-13285D01*
Y-11974D01*
X188924D02*
X188596Y-11646D01*
X187940D01*
X187612Y-11974D01*
Y-13285D01*
X187940Y-13613D01*
X188596D01*
X188924Y-13285D01*
X189580D02*
X189908Y-13613D01*
X190564D01*
X190892Y-13285D01*
Y-11974D01*
X190564Y-11646D01*
X189908D01*
X189580Y-11974D01*
Y-12302D01*
X189908Y-12629D01*
X190892D01*
X165424Y-11974D02*
X165096Y-11646D01*
X164440D01*
X164112Y-11974D01*
Y-13285D01*
X164440Y-13613D01*
X165096D01*
X165424Y-13285D01*
X166080Y-11974D02*
X166408Y-11646D01*
X167064D01*
X167392Y-11974D01*
Y-12302D01*
X167064Y-12629D01*
X167392Y-12957D01*
Y-13285D01*
X167064Y-13613D01*
X166408D01*
X166080Y-13285D01*
Y-12957D01*
X166408Y-12629D01*
X166080Y-12302D01*
Y-11974D01*
X166408Y-12629D02*
X167064D01*
X141924Y-11974D02*
X141596Y-11646D01*
X140940D01*
X140612Y-11974D01*
Y-13285D01*
X140940Y-13613D01*
X141596D01*
X141924Y-13285D01*
X142580Y-11646D02*
X143892D01*
Y-11974D01*
X142580Y-13285D01*
Y-13613D01*
X118424Y-11974D02*
X118096Y-11646D01*
X117440D01*
X117112Y-11974D01*
Y-13285D01*
X117440Y-13613D01*
X118096D01*
X118424Y-13285D01*
X120392Y-11646D02*
X119736Y-11974D01*
X119080Y-12629D01*
Y-13285D01*
X119408Y-13613D01*
X120064D01*
X120392Y-13285D01*
Y-12957D01*
X120064Y-12629D01*
X119080D01*
X94924Y-11974D02*
X94596Y-11646D01*
X93940D01*
X93612Y-11974D01*
Y-13285D01*
X93940Y-13613D01*
X94596D01*
X94924Y-13285D01*
X96892Y-11646D02*
X95580D01*
Y-12629D01*
X96236Y-12302D01*
X96564D01*
X96892Y-12629D01*
Y-13285D01*
X96564Y-13613D01*
X95908D01*
X95580Y-13285D01*
X71424Y-11974D02*
X71096Y-11646D01*
X70440D01*
X70112Y-11974D01*
Y-13285D01*
X70440Y-13613D01*
X71096D01*
X71424Y-13285D01*
X73064Y-13613D02*
Y-11646D01*
X72080Y-12629D01*
X73392D01*
X47924Y-11974D02*
X47596Y-11646D01*
X46940D01*
X46612Y-11974D01*
Y-13285D01*
X46940Y-13613D01*
X47596D01*
X47924Y-13285D01*
X48580Y-11974D02*
X48908Y-11646D01*
X49564D01*
X49892Y-11974D01*
Y-12302D01*
X49564Y-12629D01*
X49236D01*
X49564D01*
X49892Y-12957D01*
Y-13285D01*
X49564Y-13613D01*
X48908D01*
X48580Y-13285D01*
M02*
