G04*
G04 #@! TF.GenerationSoftware,Altium Limited,Altium Designer,23.5.1 (21)*
G04*
G04 Layer_Color=65535*
%FSLAX25Y25*%
%MOIN*%
G70*
G04*
G04 #@! TF.SameCoordinates,DE79A155-BC9A-472D-AE6B-8F39F035A5D6*
G04*
G04*
G04 #@! TF.FilePolarity,Positive*
G04*
G01*
G75*
%ADD10C,0.00787*%
%ADD11C,0.01575*%
%ADD12C,0.00984*%
%ADD13C,0.01181*%
%ADD14C,0.00500*%
%ADD15C,0.00606*%
%ADD16C,0.01000*%
%ADD17C,0.00591*%
G36*
X262295Y30715D02*
X262314Y30657D01*
X262508Y30580D01*
X262779Y30541D01*
X263089Y30463D01*
X263166Y30386D01*
X263321Y30347D01*
X263534Y30289D01*
X263825Y30115D01*
X264368Y29805D01*
X264639Y29611D01*
X264716Y29572D01*
X264794Y29495D01*
X264871Y29456D01*
X264949Y29379D01*
X265026Y29340D01*
X265104Y29262D01*
X265181Y29223D01*
X265375Y29030D01*
X265433Y29010D01*
X265472Y28933D01*
X265704Y28700D01*
X265743Y28623D01*
X265859Y28507D01*
X265898Y28429D01*
X266014Y28313D01*
X266053Y28236D01*
X266130Y28158D01*
X266169Y28080D01*
X266324Y27848D01*
X266363Y27771D01*
X266518Y27538D01*
X266673Y27267D01*
X266750Y27073D01*
X266905Y26724D01*
X266944Y26569D01*
X266983Y26337D01*
X267080Y26201D01*
X267138Y26182D01*
X267119Y-2045D01*
X267041Y-2084D01*
X266944Y-2336D01*
X266886Y-2626D01*
X266828Y-2685D01*
X266750Y-2878D01*
X266692Y-3091D01*
X266634Y-3149D01*
X266595Y-3227D01*
X266440Y-3498D01*
X266363Y-3576D01*
X266208Y-3847D01*
X265840Y-4331D01*
X265743Y-4428D01*
X265704Y-4506D01*
X265142Y-5067D01*
X265065Y-5106D01*
X264910Y-5261D01*
X264832Y-5300D01*
X264716Y-5416D01*
X264639Y-5455D01*
X264368Y-5649D01*
X264174Y-5765D01*
X263902Y-5920D01*
X263709Y-6036D01*
X263554Y-6075D01*
X263205Y-6230D01*
X263050Y-6269D01*
X262837Y-6327D01*
X262721Y-6404D01*
X262701Y-6462D01*
X244723D01*
X234474Y-6443D01*
X234436Y-6365D01*
X234184Y-6269D01*
X233912Y-6230D01*
X233564Y-6075D01*
X233021Y-5765D01*
X232789Y-5610D01*
X232711Y-5571D01*
X232091Y-5106D01*
X232014Y-5029D01*
X231936Y-4990D01*
X231704Y-4757D01*
X231646Y-4738D01*
X231607Y-4661D01*
X231413Y-4467D01*
X231375Y-4389D01*
X231200Y-4176D01*
X231142Y-4118D01*
X231103Y-4041D01*
X230910Y-3769D01*
X230871Y-3692D01*
X230716Y-3459D01*
X230445Y-2956D01*
X230328Y-2685D01*
X230270Y-2471D01*
X230173Y-2258D01*
X230135Y-1987D01*
X230096Y-1832D01*
X229980Y-1638D01*
X229941Y-1522D01*
X229980Y25794D01*
X230096Y25911D01*
X230154Y26318D01*
X230193Y26472D01*
X230251Y26608D01*
X230328Y26802D01*
X230386Y27015D01*
X230522Y27267D01*
X230832Y27809D01*
X230987Y28042D01*
X231026Y28119D01*
X231142Y28236D01*
X231181Y28313D01*
X231355Y28526D01*
X231413Y28584D01*
X231452Y28662D01*
X232053Y29262D01*
X232130Y29301D01*
X232285Y29456D01*
X232363Y29495D01*
X232440Y29572D01*
X232518Y29611D01*
X232789Y29805D01*
X232866Y29844D01*
X233138Y29998D01*
X233331Y30115D01*
X233835Y30347D01*
X234048Y30405D01*
X234261Y30502D01*
X234532Y30541D01*
X234687Y30580D01*
X234804Y30618D01*
X234920Y30735D01*
X262295Y30715D01*
D02*
G37*
G36*
X-9017Y11580D02*
X-7028D01*
Y10224D01*
X-9017D01*
Y8268D01*
X-10340D01*
Y10224D01*
X-12318D01*
Y11580D01*
X-10340D01*
Y13536D01*
X-9017D01*
Y11580D01*
D02*
G37*
G36*
X185725Y12076D02*
X184271D01*
Y13420D01*
X185725D01*
Y12076D01*
D02*
G37*
G36*
X86404Y12076D02*
X84950D01*
Y13420D01*
X86404D01*
Y12076D01*
D02*
G37*
G36*
X192250Y5856D02*
X190906D01*
Y6654D01*
X190895Y6633D01*
X190851Y6578D01*
X190775Y6490D01*
X190676Y6392D01*
X190567Y6283D01*
X190425Y6163D01*
X190272Y6053D01*
X190108Y5955D01*
X190086Y5944D01*
X190031Y5922D01*
X189933Y5889D01*
X189824Y5846D01*
X189682Y5802D01*
X189518Y5769D01*
X189354Y5747D01*
X189179Y5736D01*
X189091D01*
X189026Y5747D01*
X188938Y5758D01*
X188851Y5780D01*
X188742Y5802D01*
X188621Y5835D01*
X188501Y5867D01*
X188370Y5922D01*
X188239Y5977D01*
X188097Y6053D01*
X187966Y6141D01*
X187824Y6239D01*
X187692Y6359D01*
X187561Y6490D01*
X187550Y6501D01*
X187528Y6523D01*
X187496Y6567D01*
X187463Y6633D01*
X187408Y6709D01*
X187354Y6807D01*
X187288Y6917D01*
X187233Y7048D01*
X187168Y7190D01*
X187102Y7343D01*
X187048Y7518D01*
X187004Y7704D01*
X186960Y7911D01*
X186927Y8130D01*
X186905Y8359D01*
X186895Y8611D01*
Y8622D01*
Y8676D01*
Y8742D01*
X186905Y8840D01*
X186916Y8961D01*
X186927Y9092D01*
X186949Y9245D01*
X186971Y9398D01*
X187048Y9747D01*
X187102Y9922D01*
X187168Y10097D01*
X187244Y10272D01*
X187332Y10436D01*
X187430Y10589D01*
X187539Y10731D01*
X187550Y10742D01*
X187572Y10764D01*
X187605Y10797D01*
X187660Y10852D01*
X187725Y10906D01*
X187802Y10961D01*
X187889Y11026D01*
X187998Y11103D01*
X188108Y11168D01*
X188239Y11234D01*
X188512Y11354D01*
X188676Y11398D01*
X188840Y11431D01*
X189015Y11453D01*
X189201Y11464D01*
X189288D01*
X189354Y11453D01*
X189430Y11442D01*
X189529Y11420D01*
X189627Y11398D01*
X189747Y11365D01*
X189867Y11332D01*
X189999Y11278D01*
X190130Y11212D01*
X190261Y11147D01*
X190403Y11048D01*
X190534Y10950D01*
X190665Y10830D01*
X190796Y10699D01*
Y13420D01*
X192250D01*
Y5856D01*
D02*
G37*
G36*
X166980D02*
X165636D01*
Y6654D01*
X165625Y6633D01*
X165581Y6578D01*
X165505Y6490D01*
X165406Y6392D01*
X165297Y6283D01*
X165155Y6163D01*
X165002Y6053D01*
X164838Y5955D01*
X164816Y5944D01*
X164761Y5922D01*
X164663Y5889D01*
X164554Y5846D01*
X164411Y5802D01*
X164248Y5769D01*
X164084Y5747D01*
X163909Y5736D01*
X163821D01*
X163756Y5747D01*
X163668Y5758D01*
X163581Y5780D01*
X163471Y5802D01*
X163351Y5835D01*
X163231Y5867D01*
X163100Y5922D01*
X162969Y5977D01*
X162827Y6053D01*
X162696Y6141D01*
X162553Y6239D01*
X162422Y6359D01*
X162291Y6490D01*
X162280Y6501D01*
X162258Y6523D01*
X162225Y6567D01*
X162193Y6633D01*
X162138Y6709D01*
X162083Y6807D01*
X162018Y6917D01*
X161963Y7048D01*
X161898Y7190D01*
X161832Y7343D01*
X161777Y7518D01*
X161734Y7704D01*
X161690Y7911D01*
X161657Y8130D01*
X161635Y8359D01*
X161624Y8611D01*
Y8622D01*
Y8676D01*
Y8742D01*
X161635Y8840D01*
X161646Y8961D01*
X161657Y9092D01*
X161679Y9245D01*
X161701Y9398D01*
X161777Y9747D01*
X161832Y9922D01*
X161898Y10097D01*
X161974Y10272D01*
X162062Y10436D01*
X162160Y10589D01*
X162269Y10731D01*
X162280Y10742D01*
X162302Y10764D01*
X162335Y10797D01*
X162390Y10852D01*
X162455Y10906D01*
X162531Y10961D01*
X162619Y11026D01*
X162728Y11103D01*
X162838Y11168D01*
X162969Y11234D01*
X163242Y11354D01*
X163406Y11398D01*
X163570Y11431D01*
X163745Y11453D01*
X163931Y11464D01*
X164018D01*
X164084Y11453D01*
X164160Y11442D01*
X164259Y11420D01*
X164357Y11398D01*
X164477Y11365D01*
X164597Y11332D01*
X164728Y11278D01*
X164860Y11212D01*
X164991Y11147D01*
X165133Y11048D01*
X165264Y10950D01*
X165395Y10830D01*
X165526Y10699D01*
Y13420D01*
X166980D01*
Y5856D01*
D02*
G37*
G36*
X153033Y11453D02*
X153175Y11431D01*
X153339Y11398D01*
X153503Y11354D01*
X153678Y11300D01*
X153842Y11212D01*
X153864Y11201D01*
X153908Y11168D01*
X153984Y11114D01*
X154083Y11037D01*
X154181Y10928D01*
X154290Y10808D01*
X154389Y10666D01*
X154476Y10491D01*
X154487Y10480D01*
X154498Y10425D01*
X154520Y10338D01*
X154553Y10217D01*
X154585Y10064D01*
X154607Y9868D01*
X154618Y9627D01*
X154629Y9354D01*
Y5856D01*
X153175D01*
Y8982D01*
Y8993D01*
Y9015D01*
Y9059D01*
Y9114D01*
X153165Y9256D01*
X153154Y9420D01*
X153143Y9595D01*
X153110Y9769D01*
X153077Y9922D01*
X153044Y9977D01*
X153022Y10032D01*
X153012Y10043D01*
X152979Y10086D01*
X152935Y10130D01*
X152869Y10196D01*
X152782Y10250D01*
X152673Y10305D01*
X152541Y10338D01*
X152399Y10349D01*
X152345D01*
X152290Y10338D01*
X152214Y10327D01*
X152126Y10305D01*
X152028Y10272D01*
X151918Y10228D01*
X151820Y10163D01*
X151809Y10152D01*
X151776Y10130D01*
X151733Y10086D01*
X151678Y10021D01*
X151612Y9944D01*
X151547Y9857D01*
X151492Y9747D01*
X151438Y9616D01*
Y9595D01*
X151416Y9551D01*
X151405Y9463D01*
X151383Y9343D01*
X151361Y9179D01*
X151350Y8982D01*
X151328Y8753D01*
Y8480D01*
Y5856D01*
X149875D01*
Y8851D01*
Y8862D01*
Y8884D01*
Y8928D01*
Y8982D01*
Y9114D01*
X149864Y9278D01*
X149853Y9452D01*
X149842Y9616D01*
X149820Y9769D01*
X149798Y9835D01*
X149787Y9879D01*
Y9890D01*
X149776Y9922D01*
X149754Y9966D01*
X149732Y10010D01*
X149656Y10130D01*
X149601Y10185D01*
X149547Y10228D01*
X149536Y10239D01*
X149514Y10250D01*
X149481Y10272D01*
X149437Y10294D01*
X149372Y10316D01*
X149295Y10327D01*
X149208Y10349D01*
X149055D01*
X148989Y10338D01*
X148913Y10327D01*
X148814Y10305D01*
X148716Y10272D01*
X148618Y10228D01*
X148508Y10163D01*
X148497Y10152D01*
X148465Y10130D01*
X148421Y10086D01*
X148366Y10032D01*
X148301Y9955D01*
X148235Y9868D01*
X148180Y9759D01*
X148126Y9638D01*
Y9627D01*
X148104Y9573D01*
X148093Y9485D01*
X148071Y9376D01*
X148049Y9212D01*
X148038Y9026D01*
X148017Y8786D01*
Y8512D01*
Y5856D01*
X146563Y5856D01*
Y11343D01*
X147896Y11343D01*
Y10589D01*
X147907Y10600D01*
X147929Y10622D01*
X147973Y10666D01*
X148027Y10731D01*
X148093Y10797D01*
X148170Y10862D01*
X148268Y10950D01*
X148377Y11026D01*
X148497Y11103D01*
X148629Y11190D01*
X148913Y11332D01*
X149077Y11387D01*
X149241Y11431D01*
X149416Y11453D01*
X149601Y11464D01*
X149689D01*
X149787Y11453D01*
X149907Y11442D01*
X150049Y11409D01*
X150203Y11376D01*
X150356Y11321D01*
X150508Y11245D01*
X150530Y11234D01*
X150574Y11201D01*
X150651Y11157D01*
X150738Y11081D01*
X150836Y10983D01*
X150946Y10873D01*
X151055Y10731D01*
X151153Y10578D01*
X151175Y10600D01*
X151219Y10655D01*
X151285Y10731D01*
X151383Y10830D01*
X151503Y10939D01*
X151634Y11048D01*
X151776Y11157D01*
X151929Y11245D01*
X151951Y11256D01*
X152006Y11278D01*
X152093Y11310D01*
X152203Y11354D01*
X152334Y11398D01*
X152487Y11431D01*
X152651Y11453D01*
X152826Y11464D01*
X152924D01*
X153033Y11453D01*
D02*
G37*
G36*
X108964Y11453D02*
X109106Y11431D01*
X109270Y11398D01*
X109434Y11354D01*
X109608Y11300D01*
X109772Y11212D01*
X109794Y11201D01*
X109838Y11168D01*
X109915Y11114D01*
X110013Y11037D01*
X110111Y10928D01*
X110221Y10808D01*
X110319Y10666D01*
X110406Y10491D01*
X110417Y10480D01*
X110428Y10425D01*
X110450Y10338D01*
X110483Y10217D01*
X110516Y10064D01*
X110538Y9868D01*
X110548Y9627D01*
X110559Y9354D01*
Y5856D01*
X109106D01*
Y8982D01*
Y8993D01*
Y9015D01*
Y9059D01*
Y9114D01*
X109095Y9256D01*
X109084Y9420D01*
X109073Y9595D01*
X109040Y9769D01*
X109007Y9922D01*
X108975Y9977D01*
X108953Y10032D01*
X108942Y10043D01*
X108909Y10086D01*
X108865Y10130D01*
X108800Y10196D01*
X108712Y10250D01*
X108603Y10305D01*
X108472Y10338D01*
X108330Y10349D01*
X108275D01*
X108220Y10338D01*
X108144Y10327D01*
X108056Y10305D01*
X107958Y10272D01*
X107849Y10228D01*
X107750Y10163D01*
X107739Y10152D01*
X107707Y10130D01*
X107663Y10086D01*
X107608Y10021D01*
X107543Y9944D01*
X107477Y9857D01*
X107422Y9747D01*
X107368Y9616D01*
Y9595D01*
X107346Y9551D01*
X107335Y9463D01*
X107313Y9343D01*
X107291Y9179D01*
X107280Y8982D01*
X107258Y8753D01*
Y8480D01*
Y5856D01*
X105805D01*
Y8851D01*
Y8862D01*
Y8884D01*
Y8928D01*
Y8982D01*
Y9114D01*
X105794Y9278D01*
X105783Y9452D01*
X105772Y9616D01*
X105750Y9769D01*
X105728Y9835D01*
X105717Y9879D01*
Y9890D01*
X105707Y9922D01*
X105685Y9966D01*
X105663Y10010D01*
X105586Y10130D01*
X105532Y10185D01*
X105477Y10228D01*
X105466Y10239D01*
X105444Y10250D01*
X105411Y10272D01*
X105368Y10294D01*
X105302Y10316D01*
X105226Y10327D01*
X105138Y10349D01*
X104985D01*
X104920Y10338D01*
X104843Y10327D01*
X104745Y10305D01*
X104646Y10272D01*
X104548Y10228D01*
X104439Y10163D01*
X104428Y10152D01*
X104395Y10130D01*
X104351Y10086D01*
X104297Y10032D01*
X104231Y9955D01*
X104165Y9868D01*
X104111Y9759D01*
X104056Y9638D01*
Y9627D01*
X104034Y9573D01*
X104023Y9485D01*
X104001Y9376D01*
X103980Y9212D01*
X103969Y9026D01*
X103947Y8786D01*
Y8512D01*
Y5856D01*
X102493D01*
Y11343D01*
X103826D01*
Y10589D01*
X103837Y10600D01*
X103859Y10622D01*
X103903Y10666D01*
X103958Y10731D01*
X104023Y10797D01*
X104100Y10862D01*
X104198Y10950D01*
X104307Y11026D01*
X104428Y11103D01*
X104559Y11190D01*
X104843Y11332D01*
X105007Y11387D01*
X105171Y11431D01*
X105346Y11453D01*
X105532Y11463D01*
X105619D01*
X105717Y11453D01*
X105838Y11442D01*
X105980Y11409D01*
X106133Y11376D01*
X106286Y11321D01*
X106439Y11245D01*
X106461Y11234D01*
X106504Y11201D01*
X106581Y11157D01*
X106668Y11081D01*
X106767Y10983D01*
X106876Y10873D01*
X106985Y10731D01*
X107084Y10578D01*
X107106Y10600D01*
X107149Y10655D01*
X107215Y10731D01*
X107313Y10830D01*
X107433Y10939D01*
X107565Y11048D01*
X107707Y11157D01*
X107860Y11245D01*
X107881Y11256D01*
X107936Y11278D01*
X108024Y11310D01*
X108133Y11354D01*
X108264Y11398D01*
X108417Y11431D01*
X108581Y11453D01*
X108756Y11463D01*
X108854D01*
X108964Y11453D01*
D02*
G37*
G36*
X120582D02*
X120702Y11431D01*
X120855Y11398D01*
X121019Y11343D01*
X121183Y11278D01*
X121358Y11179D01*
X120899Y9922D01*
X120888Y9933D01*
X120834Y9955D01*
X120768Y9999D01*
X120681Y10043D01*
X120571Y10086D01*
X120462Y10130D01*
X120342Y10152D01*
X120221Y10163D01*
X120178D01*
X120112Y10152D01*
X120047Y10141D01*
X119970Y10119D01*
X119883Y10086D01*
X119795Y10043D01*
X119708Y9988D01*
X119697Y9977D01*
X119675Y9955D01*
X119631Y9911D01*
X119588Y9846D01*
X119533Y9769D01*
X119478Y9660D01*
X119424Y9529D01*
X119380Y9376D01*
Y9354D01*
X119369Y9321D01*
X119358Y9289D01*
Y9234D01*
X119347Y9168D01*
X119336Y9081D01*
X119325Y8982D01*
X119314Y8873D01*
X119303Y8731D01*
X119292Y8589D01*
Y8414D01*
X119281Y8228D01*
X119271Y8021D01*
Y7791D01*
Y7540D01*
Y5856D01*
X117817D01*
Y11343D01*
X119161D01*
Y10567D01*
X119172Y10578D01*
X119216Y10644D01*
X119281Y10742D01*
X119369Y10862D01*
X119456Y10983D01*
X119566Y11103D01*
X119664Y11212D01*
X119773Y11289D01*
X119784Y11300D01*
X119817Y11321D01*
X119883Y11343D01*
X119959Y11376D01*
X120047Y11409D01*
X120156Y11442D01*
X120265Y11453D01*
X120396Y11463D01*
X120484D01*
X120582Y11453D01*
D02*
G37*
G36*
X202863Y11453D02*
X202983Y11442D01*
X203115Y11420D01*
X203257Y11387D01*
X203410Y11343D01*
X203563Y11289D01*
X203585Y11278D01*
X203628Y11256D01*
X203705Y11223D01*
X203792Y11168D01*
X203891Y11103D01*
X203989Y11026D01*
X204087Y10939D01*
X204175Y10841D01*
X204186Y10830D01*
X204208Y10797D01*
X204240Y10742D01*
X204284Y10666D01*
X204339Y10578D01*
X204382Y10469D01*
X204426Y10360D01*
X204459Y10228D01*
Y10217D01*
X204470Y10163D01*
X204492Y10086D01*
X204503Y9977D01*
X204525Y9846D01*
X204536Y9671D01*
X204546Y9485D01*
Y9256D01*
Y5856D01*
X203093D01*
Y8644D01*
Y8655D01*
Y8687D01*
Y8731D01*
Y8786D01*
Y8862D01*
Y8939D01*
X203082Y9125D01*
X203071Y9310D01*
X203049Y9507D01*
X203027Y9671D01*
X203016Y9737D01*
X202994Y9791D01*
Y9802D01*
X202973Y9835D01*
X202951Y9879D01*
X202918Y9944D01*
X202819Y10075D01*
X202765Y10141D01*
X202688Y10196D01*
X202677Y10207D01*
X202656Y10217D01*
X202612Y10239D01*
X202546Y10272D01*
X202470Y10305D01*
X202393Y10327D01*
X202295Y10338D01*
X202186Y10349D01*
X202120D01*
X202054Y10338D01*
X201967Y10327D01*
X201858Y10294D01*
X201748Y10261D01*
X201628Y10207D01*
X201508Y10141D01*
X201497Y10130D01*
X201464Y10108D01*
X201410Y10054D01*
X201344Y9999D01*
X201278Y9911D01*
X201213Y9824D01*
X201147Y9704D01*
X201103Y9584D01*
Y9573D01*
X201082Y9518D01*
X201071Y9431D01*
X201049Y9299D01*
X201038Y9223D01*
X201027Y9125D01*
X201016Y9026D01*
Y8906D01*
X201005Y8786D01*
X200994Y8644D01*
Y8491D01*
Y8327D01*
Y5856D01*
X199540D01*
Y11343D01*
X200885D01*
Y10535D01*
X200896Y10545D01*
X200918Y10578D01*
X200961Y10622D01*
X201016Y10677D01*
X201082Y10753D01*
X201169Y10830D01*
X201268Y10917D01*
X201377Y11005D01*
X201497Y11081D01*
X201639Y11168D01*
X201781Y11245D01*
X201945Y11321D01*
X202120Y11376D01*
X202295Y11420D01*
X202492Y11453D01*
X202688Y11464D01*
X202765D01*
X202863Y11453D01*
D02*
G37*
G36*
X93104Y11453D02*
X93213Y11442D01*
X93334Y11431D01*
X93465Y11420D01*
X93738Y11376D01*
X94011Y11310D01*
X94274Y11212D01*
X94394Y11157D01*
X94503Y11092D01*
X94514D01*
X94525Y11070D01*
X94591Y11026D01*
X94689Y10939D01*
X94798Y10819D01*
X94929Y10677D01*
X95050Y10491D01*
X95170Y10272D01*
X95257Y10021D01*
X93891Y9769D01*
Y9780D01*
X93869Y9824D01*
X93847Y9879D01*
X93815Y9944D01*
X93771Y10032D01*
X93705Y10108D01*
X93640Y10185D01*
X93552Y10250D01*
X93541Y10261D01*
X93509Y10283D01*
X93454Y10305D01*
X93377Y10338D01*
X93279Y10371D01*
X93159Y10403D01*
X93017Y10414D01*
X92853Y10425D01*
X92754D01*
X92656Y10414D01*
X92536Y10403D01*
X92394Y10381D01*
X92263Y10360D01*
X92142Y10316D01*
X92033Y10261D01*
X92022D01*
X92011Y10239D01*
X91957Y10185D01*
X91891Y10086D01*
X91880Y10032D01*
X91869Y9966D01*
Y9955D01*
Y9944D01*
X91891Y9879D01*
X91935Y9791D01*
X91967Y9747D01*
X92011Y9704D01*
X92022Y9693D01*
X92066Y9682D01*
X92088Y9660D01*
X92131Y9649D01*
X92186Y9627D01*
X92252Y9595D01*
X92339Y9573D01*
X92427Y9540D01*
X92536Y9507D01*
X92667Y9474D01*
X92809Y9431D01*
X92973Y9387D01*
X93159Y9343D01*
X93366Y9289D01*
X93377D01*
X93421Y9278D01*
X93476Y9267D01*
X93552Y9245D01*
X93651Y9212D01*
X93760Y9190D01*
X94000Y9114D01*
X94274Y9015D01*
X94536Y8906D01*
X94667Y8840D01*
X94787Y8786D01*
X94886Y8709D01*
X94984Y8644D01*
X95006Y8622D01*
X95061Y8578D01*
X95126Y8491D01*
X95214Y8370D01*
X95301Y8217D01*
X95367Y8032D01*
X95421Y7813D01*
X95443Y7572D01*
Y7562D01*
Y7540D01*
Y7496D01*
X95432Y7441D01*
X95421Y7387D01*
X95410Y7310D01*
X95367Y7124D01*
X95290Y6928D01*
X95236Y6818D01*
X95181Y6709D01*
X95104Y6600D01*
X95017Y6490D01*
X94919Y6381D01*
X94809Y6272D01*
X94798Y6261D01*
X94776Y6250D01*
X94744Y6228D01*
X94689Y6184D01*
X94624Y6152D01*
X94547Y6108D01*
X94449Y6053D01*
X94339Y6010D01*
X94219Y5955D01*
X94077Y5911D01*
X93924Y5856D01*
X93760Y5824D01*
X93574Y5791D01*
X93377Y5758D01*
X93170Y5747D01*
X92951Y5736D01*
X92842D01*
X92765Y5747D01*
X92667D01*
X92558Y5758D01*
X92437Y5769D01*
X92306Y5791D01*
X92022Y5846D01*
X91727Y5922D01*
X91432Y6031D01*
X91301Y6108D01*
X91170Y6184D01*
X91159Y6195D01*
X91137Y6206D01*
X91104Y6228D01*
X91071Y6272D01*
X90951Y6370D01*
X90820Y6512D01*
X90678Y6687D01*
X90547Y6895D01*
X90426Y7146D01*
X90328Y7419D01*
X91782Y7638D01*
Y7616D01*
X91803Y7572D01*
X91825Y7496D01*
X91858Y7398D01*
X91913Y7288D01*
X91978Y7190D01*
X92055Y7081D01*
X92153Y6993D01*
X92164Y6982D01*
X92208Y6960D01*
X92273Y6928D01*
X92361Y6895D01*
X92470Y6851D01*
X92612Y6818D01*
X92765Y6796D01*
X92951Y6786D01*
X93039D01*
X93148Y6796D01*
X93268Y6807D01*
X93399Y6829D01*
X93541Y6873D01*
X93673Y6917D01*
X93793Y6982D01*
X93804Y6993D01*
X93826Y7015D01*
X93858Y7048D01*
X93891Y7091D01*
X93924Y7146D01*
X93957Y7212D01*
X93979Y7288D01*
X93989Y7376D01*
Y7387D01*
Y7408D01*
X93979Y7474D01*
X93946Y7562D01*
X93880Y7649D01*
X93858Y7671D01*
X93826Y7682D01*
X93782Y7715D01*
X93716Y7736D01*
X93629Y7769D01*
X93530Y7802D01*
X93399Y7835D01*
X93377D01*
X93323Y7857D01*
X93235Y7879D01*
X93115Y7900D01*
X92973Y7933D01*
X92820Y7977D01*
X92645Y8021D01*
X92459Y8075D01*
X92077Y8185D01*
X91891Y8239D01*
X91716Y8305D01*
X91552Y8359D01*
X91399Y8425D01*
X91268Y8491D01*
X91170Y8545D01*
X91159Y8556D01*
X91137Y8567D01*
X91115Y8589D01*
X91071Y8633D01*
X90962Y8731D01*
X90853Y8873D01*
X90732Y9048D01*
X90623Y9256D01*
X90579Y9376D01*
X90557Y9507D01*
X90536Y9638D01*
X90525Y9780D01*
Y9791D01*
Y9813D01*
Y9846D01*
X90536Y9900D01*
X90547Y9955D01*
X90557Y10032D01*
X90590Y10196D01*
X90656Y10381D01*
X90765Y10578D01*
X90820Y10688D01*
X90896Y10786D01*
X90984Y10884D01*
X91082Y10972D01*
X91093Y10983D01*
X91104Y10994D01*
X91137Y11015D01*
X91191Y11048D01*
X91246Y11081D01*
X91323Y11125D01*
X91410Y11168D01*
X91508Y11223D01*
X91629Y11267D01*
X91760Y11310D01*
X91902Y11354D01*
X92055Y11387D01*
X92230Y11420D01*
X92416Y11442D01*
X92612Y11463D01*
X93017D01*
X93104Y11453D01*
D02*
G37*
G36*
X181200Y5856D02*
X179888D01*
X177681Y11343D01*
X179200D01*
X180238Y8534D01*
X180533Y7605D01*
X180544Y7616D01*
X180555Y7660D01*
X180577Y7726D01*
X180599Y7791D01*
X180654Y7955D01*
X180675Y8021D01*
X180686Y8075D01*
Y8086D01*
X180697Y8119D01*
X180708Y8163D01*
X180730Y8217D01*
X180774Y8370D01*
X180839Y8534D01*
X181889Y11343D01*
X183375D01*
X181200Y5856D01*
D02*
G37*
G36*
X185725D02*
X184271D01*
Y11343D01*
X185725D01*
Y5856D01*
D02*
G37*
G36*
X176970Y12141D02*
X172893D01*
Y10469D01*
X176686D01*
Y9190D01*
X172893D01*
Y7135D01*
X177112D01*
Y5856D01*
X171363D01*
Y13420D01*
X176970D01*
Y12141D01*
D02*
G37*
G36*
X114374Y11453D02*
X114461D01*
X114680Y11431D01*
X114910Y11409D01*
X115150Y11365D01*
X115380Y11300D01*
X115478Y11267D01*
X115576Y11223D01*
X115587D01*
X115598Y11212D01*
X115653Y11179D01*
X115740Y11136D01*
X115839Y11070D01*
X115959Y10983D01*
X116068Y10884D01*
X116166Y10764D01*
X116254Y10644D01*
X116265Y10622D01*
X116287Y10578D01*
X116320Y10480D01*
X116330Y10425D01*
X116352Y10349D01*
X116374Y10272D01*
X116385Y10174D01*
X116407Y10064D01*
X116418Y9944D01*
X116429Y9813D01*
X116440Y9671D01*
X116451Y9518D01*
Y9343D01*
X116429Y7649D01*
Y7638D01*
Y7616D01*
Y7583D01*
Y7529D01*
Y7398D01*
X116440Y7245D01*
Y7070D01*
X116462Y6895D01*
X116472Y6720D01*
X116494Y6578D01*
Y6567D01*
X116505Y6523D01*
X116527Y6447D01*
X116549Y6359D01*
X116593Y6250D01*
X116637Y6130D01*
X116691Y5999D01*
X116757Y5856D01*
X115325D01*
Y5867D01*
X115314Y5878D01*
X115303Y5922D01*
X115281Y5966D01*
X115259Y6020D01*
X115237Y6097D01*
X115216Y6184D01*
X115183Y6283D01*
Y6294D01*
X115172Y6305D01*
X115161Y6348D01*
X115139Y6403D01*
X115128Y6447D01*
X115106Y6436D01*
X115063Y6392D01*
X114986Y6326D01*
X114888Y6250D01*
X114767Y6163D01*
X114636Y6064D01*
X114483Y5988D01*
X114330Y5911D01*
X114308Y5900D01*
X114254Y5889D01*
X114166Y5856D01*
X114057Y5824D01*
X113926Y5791D01*
X113773Y5769D01*
X113598Y5747D01*
X113423Y5736D01*
X113347D01*
X113281Y5747D01*
X113215D01*
X113128Y5758D01*
X112942Y5791D01*
X112724Y5846D01*
X112505Y5922D01*
X112286Y6031D01*
X112090Y6184D01*
Y6195D01*
X112068Y6206D01*
X112013Y6272D01*
X111937Y6370D01*
X111849Y6501D01*
X111762Y6665D01*
X111685Y6862D01*
X111630Y7091D01*
X111620Y7212D01*
X111609Y7343D01*
Y7365D01*
Y7419D01*
X111620Y7507D01*
X111642Y7616D01*
X111663Y7747D01*
X111696Y7879D01*
X111751Y8021D01*
X111827Y8163D01*
X111838Y8185D01*
X111871Y8228D01*
X111915Y8294D01*
X111991Y8370D01*
X112068Y8458D01*
X112177Y8556D01*
X112297Y8644D01*
X112439Y8720D01*
X112461Y8731D01*
X112516Y8753D01*
X112603Y8786D01*
X112734Y8840D01*
X112898Y8895D01*
X113095Y8950D01*
X113336Y9004D01*
X113598Y9059D01*
X113609D01*
X113642Y9070D01*
X113696Y9081D01*
X113762Y9092D01*
X113849Y9103D01*
X113948Y9125D01*
X114166Y9179D01*
X114396Y9234D01*
X114636Y9289D01*
X114844Y9354D01*
X114942Y9387D01*
X115019Y9420D01*
Y9562D01*
Y9584D01*
Y9627D01*
X115008Y9704D01*
X114997Y9802D01*
X114964Y9901D01*
X114931Y9999D01*
X114877Y10086D01*
X114800Y10163D01*
X114789Y10174D01*
X114757Y10196D01*
X114702Y10217D01*
X114625Y10261D01*
X114516Y10294D01*
X114385Y10316D01*
X114221Y10338D01*
X114024Y10349D01*
X113959D01*
X113893Y10338D01*
X113806Y10327D01*
X113707Y10305D01*
X113598Y10283D01*
X113500Y10239D01*
X113412Y10185D01*
X113401Y10174D01*
X113379Y10152D01*
X113336Y10119D01*
X113292Y10064D01*
X113226Y9988D01*
X113172Y9890D01*
X113117Y9780D01*
X113062Y9649D01*
X111762Y9890D01*
Y9901D01*
X111773Y9922D01*
X111784Y9966D01*
X111805Y10021D01*
X111827Y10086D01*
X111860Y10163D01*
X111937Y10338D01*
X112046Y10524D01*
X112177Y10720D01*
X112330Y10906D01*
X112516Y11070D01*
X112527D01*
X112538Y11092D01*
X112571Y11103D01*
X112614Y11136D01*
X112680Y11157D01*
X112745Y11190D01*
X112833Y11234D01*
X112920Y11267D01*
X113030Y11300D01*
X113150Y11343D01*
X113281Y11376D01*
X113434Y11398D01*
X113587Y11431D01*
X113762Y11442D01*
X113937Y11463D01*
X114297D01*
X114374Y11453D01*
D02*
G37*
G36*
X99094D02*
X99181D01*
X99400Y11431D01*
X99629Y11409D01*
X99870Y11365D01*
X100099Y11300D01*
X100198Y11267D01*
X100296Y11223D01*
X100307D01*
X100318Y11212D01*
X100373Y11179D01*
X100460Y11136D01*
X100558Y11070D01*
X100679Y10983D01*
X100788Y10884D01*
X100886Y10764D01*
X100974Y10644D01*
X100985Y10622D01*
X101007Y10578D01*
X101039Y10480D01*
X101050Y10425D01*
X101072Y10349D01*
X101094Y10272D01*
X101105Y10174D01*
X101127Y10064D01*
X101138Y9944D01*
X101149Y9813D01*
X101160Y9671D01*
X101171Y9518D01*
Y9343D01*
X101149Y7649D01*
Y7638D01*
Y7616D01*
Y7583D01*
Y7529D01*
Y7398D01*
X101160Y7245D01*
Y7070D01*
X101181Y6895D01*
X101192Y6720D01*
X101214Y6578D01*
Y6567D01*
X101225Y6523D01*
X101247Y6447D01*
X101269Y6359D01*
X101313Y6250D01*
X101356Y6130D01*
X101411Y5999D01*
X101477Y5856D01*
X100045D01*
Y5867D01*
X100034Y5878D01*
X100023Y5922D01*
X100001Y5966D01*
X99979Y6020D01*
X99957Y6097D01*
X99935Y6184D01*
X99903Y6283D01*
Y6294D01*
X99892Y6305D01*
X99881Y6348D01*
X99859Y6403D01*
X99848Y6447D01*
X99826Y6436D01*
X99782Y6392D01*
X99706Y6326D01*
X99607Y6250D01*
X99487Y6163D01*
X99356Y6064D01*
X99203Y5988D01*
X99050Y5911D01*
X99028Y5900D01*
X98974Y5889D01*
X98886Y5856D01*
X98777Y5824D01*
X98646Y5791D01*
X98493Y5769D01*
X98318Y5747D01*
X98143Y5736D01*
X98066D01*
X98001Y5747D01*
X97935D01*
X97848Y5758D01*
X97662Y5791D01*
X97443Y5846D01*
X97225Y5922D01*
X97006Y6031D01*
X96810Y6184D01*
Y6195D01*
X96788Y6206D01*
X96733Y6272D01*
X96656Y6370D01*
X96569Y6501D01*
X96482Y6665D01*
X96405Y6862D01*
X96350Y7091D01*
X96339Y7212D01*
X96329Y7343D01*
Y7365D01*
Y7419D01*
X96339Y7507D01*
X96361Y7616D01*
X96383Y7747D01*
X96416Y7879D01*
X96471Y8021D01*
X96547Y8163D01*
X96558Y8185D01*
X96591Y8228D01*
X96635Y8294D01*
X96711Y8370D01*
X96788Y8458D01*
X96897Y8556D01*
X97017Y8644D01*
X97159Y8720D01*
X97181Y8731D01*
X97236Y8753D01*
X97323Y8786D01*
X97454Y8840D01*
X97618Y8895D01*
X97815Y8950D01*
X98055Y9004D01*
X98318Y9059D01*
X98329D01*
X98361Y9070D01*
X98416Y9081D01*
X98482Y9092D01*
X98569Y9103D01*
X98668Y9125D01*
X98886Y9179D01*
X99116Y9234D01*
X99356Y9289D01*
X99564Y9354D01*
X99662Y9387D01*
X99739Y9420D01*
Y9562D01*
Y9584D01*
Y9627D01*
X99728Y9704D01*
X99717Y9802D01*
X99684Y9901D01*
X99651Y9999D01*
X99597Y10086D01*
X99520Y10163D01*
X99509Y10174D01*
X99476Y10196D01*
X99422Y10217D01*
X99345Y10261D01*
X99236Y10294D01*
X99105Y10316D01*
X98941Y10338D01*
X98744Y10349D01*
X98678D01*
X98613Y10338D01*
X98526Y10327D01*
X98427Y10305D01*
X98318Y10283D01*
X98219Y10239D01*
X98132Y10185D01*
X98121Y10174D01*
X98099Y10152D01*
X98055Y10119D01*
X98012Y10064D01*
X97946Y9988D01*
X97891Y9890D01*
X97837Y9780D01*
X97782Y9649D01*
X96482Y9890D01*
Y9901D01*
X96492Y9922D01*
X96503Y9966D01*
X96525Y10021D01*
X96547Y10086D01*
X96580Y10163D01*
X96656Y10338D01*
X96766Y10524D01*
X96897Y10720D01*
X97050Y10906D01*
X97236Y11070D01*
X97247D01*
X97258Y11092D01*
X97290Y11103D01*
X97334Y11136D01*
X97400Y11157D01*
X97465Y11190D01*
X97553Y11234D01*
X97640Y11267D01*
X97749Y11300D01*
X97870Y11343D01*
X98001Y11376D01*
X98154Y11398D01*
X98307Y11431D01*
X98482Y11442D01*
X98657Y11463D01*
X99017D01*
X99094Y11453D01*
D02*
G37*
G36*
X86404Y5856D02*
X84950D01*
Y11343D01*
X86404D01*
Y5856D01*
D02*
G37*
G36*
X80764Y12141D02*
X77103D01*
Y10349D01*
X80261D01*
Y9070D01*
X77103D01*
Y5856D01*
X75573D01*
Y13420D01*
X80764D01*
Y12141D01*
D02*
G37*
G36*
X74578D02*
X72348D01*
Y5856D01*
X70818D01*
Y12141D01*
X68577D01*
Y13420D01*
X74578D01*
Y12141D01*
D02*
G37*
G36*
X67670D02*
X63593D01*
Y10469D01*
X67386D01*
Y9190D01*
X63593D01*
Y7135D01*
X67812D01*
Y5856D01*
X62063D01*
Y13420D01*
X67670D01*
Y12141D01*
D02*
G37*
G36*
X211826Y11453D02*
X211924Y11442D01*
X212044Y11420D01*
X212176Y11398D01*
X212318Y11365D01*
X212471Y11321D01*
X212624Y11267D01*
X212788Y11201D01*
X212952Y11114D01*
X213105Y11026D01*
X213258Y10917D01*
X213411Y10786D01*
X213542Y10644D01*
X213553Y10633D01*
X213575Y10611D01*
X213607Y10556D01*
X213651Y10491D01*
X213706Y10403D01*
X213760Y10305D01*
X213826Y10174D01*
X213892Y10032D01*
X213957Y9868D01*
X214023Y9682D01*
X214077Y9485D01*
X214132Y9256D01*
X214176Y9015D01*
X214209Y8753D01*
X214230Y8480D01*
Y8174D01*
X210602D01*
Y8163D01*
Y8141D01*
Y8108D01*
X210613Y8064D01*
X210624Y7955D01*
X210645Y7802D01*
X210689Y7649D01*
X210755Y7474D01*
X210831Y7310D01*
X210941Y7168D01*
X210951Y7157D01*
X211006Y7113D01*
X211072Y7059D01*
X211170Y6993D01*
X211290Y6928D01*
X211443Y6873D01*
X211607Y6829D01*
X211782Y6818D01*
X211837D01*
X211902Y6829D01*
X211979Y6840D01*
X212066Y6862D01*
X212165Y6895D01*
X212263Y6938D01*
X212351Y7004D01*
X212361Y7015D01*
X212394Y7037D01*
X212438Y7081D01*
X212482Y7146D01*
X212547Y7234D01*
X212602Y7332D01*
X212656Y7463D01*
X212711Y7605D01*
X214154Y7365D01*
Y7354D01*
X214143Y7332D01*
X214121Y7288D01*
X214099Y7234D01*
X214067Y7168D01*
X214034Y7092D01*
X213935Y6917D01*
X213815Y6720D01*
X213662Y6512D01*
X213476Y6327D01*
X213269Y6152D01*
X213258D01*
X213247Y6130D01*
X213203Y6119D01*
X213159Y6086D01*
X213105Y6053D01*
X213028Y6020D01*
X212952Y5988D01*
X212853Y5944D01*
X212635Y5867D01*
X212383Y5802D01*
X212088Y5758D01*
X211771Y5736D01*
X211706D01*
X211640Y5747D01*
X211542D01*
X211421Y5769D01*
X211279Y5791D01*
X211126Y5813D01*
X210973Y5856D01*
X210798Y5900D01*
X210624Y5966D01*
X210449Y6042D01*
X210274Y6130D01*
X210099Y6239D01*
X209935Y6359D01*
X209793Y6501D01*
X209651Y6665D01*
X209640Y6676D01*
X209629Y6698D01*
X209607Y6742D01*
X209563Y6797D01*
X209530Y6873D01*
X209487Y6960D01*
X209432Y7059D01*
X209388Y7179D01*
X209334Y7310D01*
X209290Y7452D01*
X209235Y7605D01*
X209203Y7780D01*
X209170Y7955D01*
X209137Y8141D01*
X209126Y8348D01*
X209115Y8556D01*
Y8567D01*
Y8611D01*
Y8687D01*
X209126Y8786D01*
X209137Y8895D01*
X209148Y9026D01*
X209170Y9168D01*
X209203Y9332D01*
X209290Y9671D01*
X209345Y9846D01*
X209410Y10032D01*
X209498Y10207D01*
X209596Y10371D01*
X209705Y10535D01*
X209826Y10688D01*
X209837Y10699D01*
X209858Y10720D01*
X209902Y10764D01*
X209957Y10808D01*
X210022Y10862D01*
X210110Y10928D01*
X210208Y11005D01*
X210317Y11081D01*
X210438Y11147D01*
X210580Y11223D01*
X210722Y11289D01*
X210886Y11343D01*
X211050Y11387D01*
X211236Y11431D01*
X211421Y11453D01*
X211618Y11464D01*
X211738D01*
X211826Y11453D01*
D02*
G37*
G36*
X207541Y11343D02*
X208536D01*
Y10185D01*
X207541D01*
Y7966D01*
Y7955D01*
Y7933D01*
Y7900D01*
Y7857D01*
Y7747D01*
Y7616D01*
X207552Y7485D01*
Y7354D01*
Y7255D01*
X207563Y7212D01*
Y7190D01*
X207574Y7168D01*
X207596Y7124D01*
X207629Y7070D01*
X207694Y7004D01*
X207716Y6993D01*
X207760Y6971D01*
X207836Y6949D01*
X207935Y6938D01*
X207979D01*
X208022Y6949D01*
X208088Y6960D01*
X208175Y6971D01*
X208274Y6993D01*
X208394Y7026D01*
X208525Y7070D01*
X208656Y5944D01*
X208645D01*
X208634Y5933D01*
X208569Y5911D01*
X208459Y5878D01*
X208317Y5846D01*
X208153Y5802D01*
X207957Y5769D01*
X207738Y5747D01*
X207508Y5736D01*
X207443D01*
X207366Y5747D01*
X207268Y5758D01*
X207159Y5769D01*
X207038Y5791D01*
X206918Y5824D01*
X206798Y5867D01*
X206787Y5878D01*
X206743Y5889D01*
X206689Y5922D01*
X206623Y5955D01*
X206470Y6064D01*
X206394Y6130D01*
X206328Y6206D01*
X206317Y6217D01*
X206306Y6250D01*
X206284Y6294D01*
X206252Y6359D01*
X206219Y6436D01*
X206186Y6534D01*
X206153Y6643D01*
X206131Y6764D01*
Y6775D01*
X206120Y6818D01*
Y6884D01*
X206109Y6993D01*
X206099Y7135D01*
Y7310D01*
X206088Y7408D01*
Y7529D01*
Y7649D01*
Y7791D01*
Y10185D01*
X205421D01*
Y11343D01*
X206088D01*
Y12436D01*
X207541Y13289D01*
Y11343D01*
D02*
G37*
G36*
X195966Y11453D02*
X196065Y11442D01*
X196185Y11420D01*
X196316Y11398D01*
X196458Y11365D01*
X196611Y11321D01*
X196764Y11267D01*
X196928Y11201D01*
X197092Y11114D01*
X197245Y11026D01*
X197398Y10917D01*
X197551Y10786D01*
X197682Y10644D01*
X197693Y10633D01*
X197715Y10611D01*
X197748Y10556D01*
X197792Y10491D01*
X197846Y10403D01*
X197901Y10305D01*
X197967Y10174D01*
X198032Y10032D01*
X198098Y9868D01*
X198163Y9682D01*
X198218Y9485D01*
X198273Y9256D01*
X198316Y9015D01*
X198349Y8753D01*
X198371Y8480D01*
Y8174D01*
X194742D01*
Y8163D01*
Y8141D01*
Y8108D01*
X194753Y8064D01*
X194764Y7955D01*
X194786Y7802D01*
X194830Y7649D01*
X194895Y7474D01*
X194972Y7310D01*
X195081Y7168D01*
X195092Y7157D01*
X195147Y7113D01*
X195212Y7059D01*
X195311Y6993D01*
X195431Y6928D01*
X195584Y6873D01*
X195748Y6829D01*
X195923Y6818D01*
X195977D01*
X196043Y6829D01*
X196119Y6840D01*
X196207Y6862D01*
X196305Y6895D01*
X196404Y6938D01*
X196491Y7004D01*
X196502Y7015D01*
X196535Y7037D01*
X196579Y7081D01*
X196622Y7146D01*
X196688Y7234D01*
X196742Y7332D01*
X196797Y7463D01*
X196852Y7605D01*
X198294Y7365D01*
Y7354D01*
X198284Y7332D01*
X198262Y7288D01*
X198240Y7234D01*
X198207Y7168D01*
X198174Y7092D01*
X198076Y6917D01*
X197956Y6720D01*
X197803Y6512D01*
X197617Y6327D01*
X197409Y6152D01*
X197398D01*
X197387Y6130D01*
X197344Y6119D01*
X197300Y6086D01*
X197245Y6053D01*
X197169Y6020D01*
X197092Y5988D01*
X196994Y5944D01*
X196775Y5867D01*
X196524Y5802D01*
X196229Y5758D01*
X195912Y5736D01*
X195846D01*
X195781Y5747D01*
X195682D01*
X195562Y5769D01*
X195420Y5791D01*
X195267Y5813D01*
X195114Y5856D01*
X194939Y5900D01*
X194764Y5966D01*
X194589Y6042D01*
X194414Y6130D01*
X194239Y6239D01*
X194076Y6359D01*
X193933Y6501D01*
X193791Y6665D01*
X193780Y6676D01*
X193770Y6698D01*
X193748Y6742D01*
X193704Y6797D01*
X193671Y6873D01*
X193627Y6960D01*
X193573Y7059D01*
X193529Y7179D01*
X193474Y7310D01*
X193431Y7452D01*
X193376Y7605D01*
X193343Y7780D01*
X193310Y7955D01*
X193278Y8141D01*
X193267Y8348D01*
X193256Y8556D01*
Y8567D01*
Y8611D01*
Y8687D01*
X193267Y8786D01*
X193278Y8895D01*
X193289Y9026D01*
X193310Y9168D01*
X193343Y9332D01*
X193431Y9671D01*
X193485Y9846D01*
X193551Y10032D01*
X193638Y10207D01*
X193737Y10371D01*
X193846Y10535D01*
X193966Y10688D01*
X193977Y10699D01*
X193999Y10720D01*
X194043Y10764D01*
X194097Y10808D01*
X194163Y10862D01*
X194250Y10928D01*
X194349Y11005D01*
X194458Y11081D01*
X194578Y11147D01*
X194720Y11223D01*
X194862Y11289D01*
X195026Y11343D01*
X195190Y11387D01*
X195376Y11431D01*
X195562Y11453D01*
X195759Y11464D01*
X195879D01*
X195966Y11453D01*
D02*
G37*
G36*
X158356D02*
X158455Y11442D01*
X158575Y11420D01*
X158706Y11398D01*
X158848Y11365D01*
X159001Y11321D01*
X159154Y11267D01*
X159318Y11201D01*
X159482Y11114D01*
X159635Y11026D01*
X159788Y10917D01*
X159941Y10786D01*
X160072Y10644D01*
X160083Y10633D01*
X160105Y10611D01*
X160138Y10556D01*
X160182Y10491D01*
X160236Y10403D01*
X160291Y10305D01*
X160356Y10174D01*
X160422Y10032D01*
X160488Y9868D01*
X160553Y9682D01*
X160608Y9485D01*
X160662Y9256D01*
X160706Y9015D01*
X160739Y8753D01*
X160761Y8480D01*
Y8174D01*
X157132D01*
Y8163D01*
Y8141D01*
Y8108D01*
X157143Y8064D01*
X157154Y7955D01*
X157176Y7802D01*
X157220Y7649D01*
X157285Y7474D01*
X157362Y7310D01*
X157471Y7168D01*
X157482Y7157D01*
X157536Y7113D01*
X157602Y7059D01*
X157701Y6993D01*
X157821Y6928D01*
X157974Y6873D01*
X158138Y6829D01*
X158313Y6818D01*
X158367D01*
X158433Y6829D01*
X158509Y6840D01*
X158597Y6862D01*
X158695Y6895D01*
X158793Y6938D01*
X158881Y7004D01*
X158892Y7015D01*
X158925Y7037D01*
X158968Y7081D01*
X159012Y7146D01*
X159078Y7234D01*
X159132Y7332D01*
X159187Y7463D01*
X159242Y7605D01*
X160684Y7365D01*
Y7354D01*
X160673Y7332D01*
X160652Y7288D01*
X160630Y7234D01*
X160597Y7168D01*
X160564Y7092D01*
X160466Y6917D01*
X160345Y6720D01*
X160193Y6512D01*
X160007Y6327D01*
X159799Y6152D01*
X159788D01*
X159777Y6130D01*
X159733Y6119D01*
X159690Y6086D01*
X159635Y6053D01*
X159559Y6020D01*
X159482Y5988D01*
X159384Y5944D01*
X159165Y5867D01*
X158914Y5802D01*
X158619Y5758D01*
X158302Y5736D01*
X158236D01*
X158170Y5747D01*
X158072D01*
X157952Y5769D01*
X157810Y5791D01*
X157657Y5813D01*
X157504Y5856D01*
X157329Y5900D01*
X157154Y5966D01*
X156979Y6042D01*
X156804Y6130D01*
X156629Y6239D01*
X156465Y6359D01*
X156323Y6501D01*
X156181Y6665D01*
X156170Y6676D01*
X156159Y6698D01*
X156138Y6742D01*
X156094Y6797D01*
X156061Y6873D01*
X156017Y6960D01*
X155963Y7059D01*
X155919Y7179D01*
X155864Y7310D01*
X155821Y7452D01*
X155766Y7605D01*
X155733Y7780D01*
X155700Y7955D01*
X155667Y8141D01*
X155657Y8348D01*
X155646Y8556D01*
Y8567D01*
Y8611D01*
Y8687D01*
X155657Y8786D01*
X155667Y8895D01*
X155678Y9026D01*
X155700Y9168D01*
X155733Y9332D01*
X155821Y9671D01*
X155875Y9846D01*
X155941Y10032D01*
X156028Y10207D01*
X156127Y10371D01*
X156236Y10535D01*
X156356Y10688D01*
X156367Y10699D01*
X156389Y10720D01*
X156433Y10764D01*
X156487Y10808D01*
X156553Y10862D01*
X156640Y10928D01*
X156739Y11005D01*
X156848Y11081D01*
X156968Y11147D01*
X157110Y11223D01*
X157252Y11289D01*
X157416Y11343D01*
X157580Y11387D01*
X157766Y11431D01*
X157952Y11453D01*
X158149Y11464D01*
X158269D01*
X158356Y11453D01*
D02*
G37*
G36*
X140136Y11453D02*
X140234Y11442D01*
X140355Y11420D01*
X140486Y11398D01*
X140628Y11365D01*
X140781Y11321D01*
X140934Y11267D01*
X141098Y11201D01*
X141262Y11114D01*
X141415Y11026D01*
X141568Y10917D01*
X141721Y10786D01*
X141852Y10644D01*
X141863Y10633D01*
X141885Y10611D01*
X141918Y10556D01*
X141961Y10491D01*
X142016Y10403D01*
X142071Y10305D01*
X142136Y10174D01*
X142202Y10032D01*
X142267Y9868D01*
X142333Y9682D01*
X142388Y9485D01*
X142442Y9256D01*
X142486Y9015D01*
X142519Y8753D01*
X142541Y8480D01*
Y8174D01*
X138912D01*
Y8163D01*
Y8141D01*
Y8108D01*
X138923Y8064D01*
X138934Y7955D01*
X138955Y7802D01*
X138999Y7649D01*
X139065Y7474D01*
X139141Y7310D01*
X139251Y7168D01*
X139262Y7157D01*
X139316Y7113D01*
X139382Y7059D01*
X139480Y6993D01*
X139600Y6928D01*
X139753Y6873D01*
X139917Y6829D01*
X140092Y6818D01*
X140147D01*
X140213Y6829D01*
X140289Y6840D01*
X140376Y6862D01*
X140475Y6895D01*
X140573Y6938D01*
X140661Y7004D01*
X140672Y7015D01*
X140704Y7037D01*
X140748Y7081D01*
X140792Y7146D01*
X140857Y7234D01*
X140912Y7332D01*
X140967Y7463D01*
X141021Y7605D01*
X142464Y7365D01*
Y7354D01*
X142453Y7332D01*
X142431Y7288D01*
X142409Y7234D01*
X142377Y7168D01*
X142344Y7091D01*
X142245Y6917D01*
X142125Y6720D01*
X141972Y6512D01*
X141786Y6326D01*
X141579Y6152D01*
X141568D01*
X141557Y6130D01*
X141513Y6119D01*
X141469Y6086D01*
X141415Y6053D01*
X141338Y6020D01*
X141262Y5988D01*
X141163Y5944D01*
X140945Y5867D01*
X140693Y5802D01*
X140398Y5758D01*
X140081Y5736D01*
X140016D01*
X139950Y5747D01*
X139852D01*
X139732Y5769D01*
X139590Y5791D01*
X139436Y5813D01*
X139283Y5856D01*
X139109Y5900D01*
X138934Y5966D01*
X138759Y6042D01*
X138584Y6130D01*
X138409Y6239D01*
X138245Y6359D01*
X138103Y6501D01*
X137961Y6665D01*
X137950Y6676D01*
X137939Y6698D01*
X137917Y6742D01*
X137873Y6796D01*
X137841Y6873D01*
X137797Y6960D01*
X137742Y7059D01*
X137699Y7179D01*
X137644Y7310D01*
X137600Y7452D01*
X137546Y7605D01*
X137513Y7780D01*
X137480Y7955D01*
X137447Y8141D01*
X137436Y8348D01*
X137425Y8556D01*
Y8567D01*
Y8611D01*
Y8687D01*
X137436Y8786D01*
X137447Y8895D01*
X137458Y9026D01*
X137480Y9168D01*
X137513Y9332D01*
X137600Y9671D01*
X137655Y9846D01*
X137720Y10032D01*
X137808Y10207D01*
X137906Y10371D01*
X138016Y10535D01*
X138136Y10688D01*
X138147Y10698D01*
X138169Y10720D01*
X138212Y10764D01*
X138267Y10808D01*
X138332Y10862D01*
X138420Y10928D01*
X138518Y11005D01*
X138628Y11081D01*
X138748Y11147D01*
X138890Y11223D01*
X139032Y11289D01*
X139196Y11343D01*
X139360Y11387D01*
X139546Y11431D01*
X139732Y11453D01*
X139928Y11463D01*
X140049D01*
X140136Y11453D01*
D02*
G37*
G36*
X135851Y11343D02*
X136846D01*
Y10185D01*
X135851D01*
Y7966D01*
Y7955D01*
Y7933D01*
Y7900D01*
Y7857D01*
Y7747D01*
Y7616D01*
X135862Y7485D01*
Y7354D01*
Y7255D01*
X135873Y7212D01*
Y7190D01*
X135884Y7168D01*
X135906Y7124D01*
X135939Y7070D01*
X136004Y7004D01*
X136026Y6993D01*
X136070Y6971D01*
X136146Y6949D01*
X136245Y6938D01*
X136289D01*
X136332Y6949D01*
X136398Y6960D01*
X136485Y6971D01*
X136584Y6993D01*
X136704Y7026D01*
X136835Y7070D01*
X136966Y5944D01*
X136955D01*
X136944Y5933D01*
X136879Y5911D01*
X136769Y5878D01*
X136627Y5846D01*
X136463Y5802D01*
X136267Y5769D01*
X136048Y5747D01*
X135819Y5736D01*
X135753D01*
X135677Y5747D01*
X135578Y5758D01*
X135469Y5769D01*
X135349Y5791D01*
X135228Y5824D01*
X135108Y5867D01*
X135097Y5878D01*
X135054Y5889D01*
X134999Y5922D01*
X134933Y5955D01*
X134780Y6064D01*
X134704Y6130D01*
X134638Y6206D01*
X134627Y6217D01*
X134616Y6250D01*
X134595Y6294D01*
X134562Y6359D01*
X134529Y6436D01*
X134496Y6534D01*
X134463Y6643D01*
X134441Y6764D01*
Y6775D01*
X134431Y6818D01*
Y6884D01*
X134420Y6993D01*
X134409Y7135D01*
Y7310D01*
X134398Y7408D01*
Y7529D01*
Y7649D01*
Y7791D01*
Y10185D01*
X133731D01*
Y11343D01*
X134398D01*
Y12436D01*
X135851Y13289D01*
Y11343D01*
D02*
G37*
G36*
X130736Y11453D02*
X130834Y11442D01*
X130955Y11420D01*
X131086Y11398D01*
X131228Y11365D01*
X131381Y11321D01*
X131534Y11267D01*
X131698Y11201D01*
X131862Y11114D01*
X132015Y11026D01*
X132168Y10917D01*
X132321Y10786D01*
X132452Y10644D01*
X132463Y10633D01*
X132485Y10611D01*
X132518Y10556D01*
X132562Y10491D01*
X132616Y10403D01*
X132671Y10305D01*
X132736Y10174D01*
X132802Y10032D01*
X132868Y9868D01*
X132933Y9682D01*
X132988Y9485D01*
X133042Y9256D01*
X133086Y9015D01*
X133119Y8753D01*
X133141Y8480D01*
Y8174D01*
X129512D01*
Y8163D01*
Y8141D01*
Y8108D01*
X129523Y8064D01*
X129534Y7955D01*
X129556Y7802D01*
X129599Y7649D01*
X129665Y7474D01*
X129742Y7310D01*
X129851Y7168D01*
X129862Y7157D01*
X129916Y7113D01*
X129982Y7059D01*
X130080Y6993D01*
X130201Y6928D01*
X130354Y6873D01*
X130518Y6829D01*
X130693Y6818D01*
X130747D01*
X130813Y6829D01*
X130889Y6840D01*
X130977Y6862D01*
X131075Y6895D01*
X131173Y6938D01*
X131261Y7004D01*
X131272Y7015D01*
X131305Y7037D01*
X131348Y7081D01*
X131392Y7146D01*
X131457Y7234D01*
X131512Y7332D01*
X131567Y7463D01*
X131622Y7605D01*
X133064Y7365D01*
Y7354D01*
X133053Y7332D01*
X133031Y7288D01*
X133010Y7234D01*
X132977Y7168D01*
X132944Y7091D01*
X132846Y6917D01*
X132725Y6720D01*
X132572Y6512D01*
X132387Y6326D01*
X132179Y6152D01*
X132168D01*
X132157Y6130D01*
X132113Y6119D01*
X132070Y6086D01*
X132015Y6053D01*
X131939Y6020D01*
X131862Y5988D01*
X131764Y5944D01*
X131545Y5867D01*
X131294Y5802D01*
X130999Y5758D01*
X130682Y5736D01*
X130616D01*
X130550Y5747D01*
X130452D01*
X130332Y5769D01*
X130190Y5791D01*
X130037Y5813D01*
X129884Y5856D01*
X129709Y5900D01*
X129534Y5966D01*
X129359Y6042D01*
X129184Y6130D01*
X129009Y6239D01*
X128845Y6359D01*
X128703Y6501D01*
X128561Y6665D01*
X128550Y6676D01*
X128539Y6698D01*
X128517Y6742D01*
X128474Y6796D01*
X128441Y6873D01*
X128397Y6960D01*
X128342Y7059D01*
X128299Y7179D01*
X128244Y7310D01*
X128200Y7452D01*
X128146Y7605D01*
X128113Y7780D01*
X128080Y7955D01*
X128047Y8141D01*
X128036Y8348D01*
X128025Y8556D01*
Y8567D01*
Y8611D01*
Y8687D01*
X128036Y8786D01*
X128047Y8895D01*
X128058Y9026D01*
X128080Y9168D01*
X128113Y9332D01*
X128200Y9671D01*
X128255Y9846D01*
X128321Y10032D01*
X128408Y10207D01*
X128506Y10371D01*
X128616Y10535D01*
X128736Y10688D01*
X128747Y10698D01*
X128769Y10720D01*
X128813Y10764D01*
X128867Y10808D01*
X128933Y10862D01*
X129020Y10928D01*
X129119Y11005D01*
X129228Y11081D01*
X129348Y11147D01*
X129490Y11223D01*
X129632Y11289D01*
X129796Y11343D01*
X129960Y11387D01*
X130146Y11431D01*
X130332Y11453D01*
X130528Y11463D01*
X130649D01*
X130736Y11453D01*
D02*
G37*
G36*
X123380Y10698D02*
X123391Y10709D01*
X123413Y10731D01*
X123446Y10764D01*
X123501Y10819D01*
X123566Y10873D01*
X123643Y10939D01*
X123730Y11015D01*
X123828Y11081D01*
X124058Y11223D01*
X124331Y11343D01*
X124473Y11398D01*
X124637Y11431D01*
X124801Y11453D01*
X124965Y11463D01*
X125064D01*
X125129Y11453D01*
X125216Y11442D01*
X125315Y11420D01*
X125424Y11398D01*
X125555Y11376D01*
X125818Y11289D01*
X125949Y11223D01*
X126091Y11157D01*
X126233Y11070D01*
X126364Y10972D01*
X126495Y10862D01*
X126627Y10731D01*
X126637Y10720D01*
X126659Y10698D01*
X126692Y10655D01*
X126736Y10600D01*
X126779Y10524D01*
X126834Y10436D01*
X126900Y10327D01*
X126965Y10207D01*
X127020Y10064D01*
X127085Y9911D01*
X127140Y9737D01*
X127195Y9551D01*
X127228Y9354D01*
X127260Y9136D01*
X127282Y8906D01*
X127293Y8654D01*
Y8644D01*
Y8589D01*
Y8523D01*
X127282Y8425D01*
X127271Y8305D01*
X127260Y8174D01*
X127239Y8021D01*
X127206Y7857D01*
X127129Y7507D01*
X127075Y7332D01*
X127009Y7146D01*
X126933Y6971D01*
X126834Y6796D01*
X126736Y6643D01*
X126616Y6490D01*
X126605Y6480D01*
X126583Y6458D01*
X126550Y6425D01*
X126495Y6370D01*
X126430Y6316D01*
X126353Y6250D01*
X126266Y6184D01*
X126167Y6119D01*
X126047Y6042D01*
X125927Y5977D01*
X125643Y5856D01*
X125490Y5802D01*
X125337Y5769D01*
X125162Y5747D01*
X124987Y5736D01*
X124910D01*
X124812Y5747D01*
X124692Y5769D01*
X124550Y5791D01*
X124397Y5835D01*
X124233Y5889D01*
X124058Y5966D01*
X124036Y5977D01*
X123981Y6010D01*
X123894Y6064D01*
X123785Y6141D01*
X123664Y6239D01*
X123533Y6348D01*
X123402Y6490D01*
X123271Y6654D01*
Y5856D01*
X121927D01*
Y13420D01*
X123380D01*
Y10698D01*
D02*
G37*
G36*
X150149Y1044D02*
X150251Y1036D01*
X150375Y1022D01*
X150514Y1000D01*
X150659Y971D01*
X150812Y927D01*
X150681Y249D01*
X150674D01*
X150645Y256D01*
X150594Y271D01*
X150535Y278D01*
X150470Y293D01*
X150397Y300D01*
X150236Y307D01*
X150200D01*
X150164Y300D01*
X150120Y293D01*
X150018Y264D01*
X149974Y242D01*
X149930Y205D01*
Y198D01*
X149916Y183D01*
X149901Y162D01*
X149887Y118D01*
X149872Y67D01*
X149857Y1D01*
X149850Y-79D01*
X149843Y-174D01*
Y-429D01*
X150565D01*
Y-1187D01*
X149843D01*
Y-4089D01*
X148873D01*
Y-1187D01*
X148334D01*
Y-429D01*
X148873D01*
Y-159D01*
Y-152D01*
Y-137D01*
Y-115D01*
Y-79D01*
X148881Y1D01*
X148888Y103D01*
X148895Y213D01*
X148917Y329D01*
X148939Y439D01*
X148968Y533D01*
X148975Y541D01*
X148990Y570D01*
X149012Y614D01*
X149048Y665D01*
X149099Y723D01*
X149158Y788D01*
X149238Y847D01*
X149325Y905D01*
X149340Y912D01*
X149376Y927D01*
X149435Y949D01*
X149507Y978D01*
X149610Y1007D01*
X149719Y1029D01*
X149850Y1044D01*
X149996Y1051D01*
X150069D01*
X150149Y1044D01*
D02*
G37*
G36*
X184587Y59D02*
X183617D01*
Y956D01*
X184587D01*
Y59D01*
D02*
G37*
G36*
X96422Y59D02*
X95452D01*
Y956D01*
X96422D01*
Y59D01*
D02*
G37*
G36*
X145491Y45D02*
X144660D01*
Y876D01*
X145491D01*
Y45D01*
D02*
G37*
G36*
X144004D02*
X143173D01*
Y876D01*
X144004D01*
Y45D01*
D02*
G37*
G36*
X169759Y-356D02*
X169839Y-371D01*
X169941Y-392D01*
X170051Y-429D01*
X170160Y-473D01*
X170277Y-538D01*
X169971Y-1377D01*
X169963Y-1369D01*
X169927Y-1355D01*
X169883Y-1326D01*
X169825Y-1296D01*
X169752Y-1267D01*
X169679Y-1238D01*
X169599Y-1223D01*
X169519Y-1216D01*
X169489D01*
X169446Y-1223D01*
X169402Y-1231D01*
X169351Y-1245D01*
X169293Y-1267D01*
X169234Y-1296D01*
X169176Y-1333D01*
X169169Y-1340D01*
X169154Y-1355D01*
X169125Y-1384D01*
X169096Y-1428D01*
X169059Y-1479D01*
X169023Y-1552D01*
X168986Y-1639D01*
X168957Y-1741D01*
Y-1756D01*
X168950Y-1778D01*
X168943Y-1799D01*
Y-1836D01*
X168935Y-1880D01*
X168928Y-1938D01*
X168921Y-2004D01*
X168913Y-2076D01*
X168906Y-2171D01*
X168899Y-2266D01*
Y-2383D01*
X168892Y-2507D01*
X168884Y-2645D01*
Y-2798D01*
Y-2966D01*
Y-4089D01*
X167915D01*
Y-429D01*
X168811D01*
Y-946D01*
X168819Y-939D01*
X168848Y-895D01*
X168892Y-830D01*
X168950Y-750D01*
X169008Y-669D01*
X169081Y-589D01*
X169147Y-516D01*
X169220Y-465D01*
X169227Y-458D01*
X169249Y-444D01*
X169293Y-429D01*
X169344Y-407D01*
X169402Y-385D01*
X169475Y-363D01*
X169548Y-356D01*
X169635Y-349D01*
X169694D01*
X169759Y-356D01*
D02*
G37*
G36*
X94519Y-356D02*
X94599Y-371D01*
X94701Y-392D01*
X94811Y-429D01*
X94920Y-473D01*
X95037Y-538D01*
X94730Y-1377D01*
X94723Y-1369D01*
X94687Y-1355D01*
X94643Y-1326D01*
X94585Y-1296D01*
X94512Y-1267D01*
X94439Y-1238D01*
X94359Y-1223D01*
X94279Y-1216D01*
X94249D01*
X94206Y-1223D01*
X94162Y-1231D01*
X94111Y-1245D01*
X94052Y-1267D01*
X93994Y-1296D01*
X93936Y-1333D01*
X93928Y-1340D01*
X93914Y-1355D01*
X93885Y-1384D01*
X93856Y-1428D01*
X93819Y-1479D01*
X93783Y-1552D01*
X93746Y-1639D01*
X93717Y-1741D01*
Y-1756D01*
X93710Y-1778D01*
X93703Y-1799D01*
Y-1836D01*
X93695Y-1880D01*
X93688Y-1938D01*
X93681Y-2004D01*
X93673Y-2076D01*
X93666Y-2171D01*
X93659Y-2266D01*
Y-2383D01*
X93651Y-2507D01*
X93644Y-2645D01*
Y-2798D01*
Y-2966D01*
Y-4089D01*
X92675D01*
Y-429D01*
X93571D01*
Y-946D01*
X93579Y-939D01*
X93608Y-895D01*
X93651Y-830D01*
X93710Y-750D01*
X93768Y-669D01*
X93841Y-589D01*
X93907Y-516D01*
X93980Y-465D01*
X93987Y-458D01*
X94009Y-444D01*
X94052Y-429D01*
X94103Y-407D01*
X94162Y-385D01*
X94235Y-363D01*
X94308Y-356D01*
X94395Y-349D01*
X94453D01*
X94519Y-356D01*
D02*
G37*
G36*
X181518Y-356D02*
X181598Y-363D01*
X181686Y-378D01*
X181780Y-400D01*
X181882Y-429D01*
X181984Y-465D01*
X181999Y-473D01*
X182028Y-487D01*
X182079Y-509D01*
X182138Y-545D01*
X182203Y-589D01*
X182269Y-640D01*
X182334Y-699D01*
X182393Y-764D01*
X182400Y-771D01*
X182415Y-793D01*
X182436Y-830D01*
X182466Y-881D01*
X182502Y-939D01*
X182531Y-1012D01*
X182560Y-1085D01*
X182582Y-1173D01*
Y-1180D01*
X182589Y-1216D01*
X182604Y-1267D01*
X182611Y-1340D01*
X182626Y-1428D01*
X182633Y-1544D01*
X182641Y-1668D01*
Y-1821D01*
Y-4089D01*
X181671D01*
Y-2230D01*
Y-2222D01*
Y-2200D01*
Y-2171D01*
Y-2135D01*
Y-2084D01*
Y-2033D01*
X181664Y-1909D01*
X181656Y-1785D01*
X181642Y-1654D01*
X181627Y-1544D01*
X181620Y-1500D01*
X181605Y-1464D01*
Y-1457D01*
X181591Y-1435D01*
X181576Y-1406D01*
X181554Y-1362D01*
X181489Y-1275D01*
X181452Y-1231D01*
X181401Y-1194D01*
X181394Y-1187D01*
X181379Y-1180D01*
X181350Y-1165D01*
X181307Y-1143D01*
X181255Y-1122D01*
X181204Y-1107D01*
X181139Y-1100D01*
X181066Y-1092D01*
X181022D01*
X180978Y-1100D01*
X180920Y-1107D01*
X180847Y-1129D01*
X180774Y-1151D01*
X180694Y-1187D01*
X180614Y-1231D01*
X180607Y-1238D01*
X180585Y-1253D01*
X180548Y-1289D01*
X180505Y-1326D01*
X180461Y-1384D01*
X180417Y-1442D01*
X180373Y-1522D01*
X180344Y-1603D01*
Y-1610D01*
X180330Y-1646D01*
X180322Y-1705D01*
X180308Y-1792D01*
X180300Y-1843D01*
X180293Y-1909D01*
X180286Y-1974D01*
Y-2055D01*
X180279Y-2135D01*
X180271Y-2230D01*
Y-2332D01*
Y-2441D01*
Y-4089D01*
X179302D01*
Y-429D01*
X180198D01*
Y-968D01*
X180206Y-961D01*
X180220Y-939D01*
X180249Y-910D01*
X180286Y-874D01*
X180330Y-823D01*
X180388Y-771D01*
X180454Y-713D01*
X180526Y-655D01*
X180607Y-604D01*
X180701Y-545D01*
X180796Y-495D01*
X180905Y-444D01*
X181022Y-407D01*
X181139Y-378D01*
X181270Y-356D01*
X181401Y-349D01*
X181452D01*
X181518Y-356D01*
D02*
G37*
G36*
X177209D02*
X177290Y-363D01*
X177377Y-378D01*
X177472Y-400D01*
X177574Y-429D01*
X177676Y-465D01*
X177691Y-473D01*
X177720Y-487D01*
X177771Y-509D01*
X177829Y-545D01*
X177895Y-589D01*
X177960Y-640D01*
X178026Y-699D01*
X178084Y-764D01*
X178092Y-771D01*
X178106Y-793D01*
X178128Y-830D01*
X178157Y-881D01*
X178194Y-939D01*
X178223Y-1012D01*
X178252Y-1085D01*
X178274Y-1173D01*
Y-1180D01*
X178281Y-1216D01*
X178296Y-1267D01*
X178303Y-1340D01*
X178318Y-1428D01*
X178325Y-1544D01*
X178332Y-1668D01*
Y-1821D01*
Y-4089D01*
X177363D01*
Y-2230D01*
Y-2222D01*
Y-2200D01*
Y-2171D01*
Y-2135D01*
Y-2084D01*
Y-2033D01*
X177355Y-1909D01*
X177348Y-1785D01*
X177333Y-1654D01*
X177319Y-1544D01*
X177312Y-1500D01*
X177297Y-1464D01*
Y-1457D01*
X177282Y-1435D01*
X177268Y-1406D01*
X177246Y-1362D01*
X177180Y-1275D01*
X177144Y-1231D01*
X177093Y-1194D01*
X177086Y-1187D01*
X177071Y-1180D01*
X177042Y-1165D01*
X176998Y-1143D01*
X176947Y-1122D01*
X176896Y-1107D01*
X176830Y-1100D01*
X176758Y-1092D01*
X176714D01*
X176670Y-1100D01*
X176612Y-1107D01*
X176539Y-1129D01*
X176466Y-1151D01*
X176386Y-1187D01*
X176305Y-1231D01*
X176298Y-1238D01*
X176276Y-1253D01*
X176240Y-1289D01*
X176196Y-1326D01*
X176153Y-1384D01*
X176109Y-1442D01*
X176065Y-1522D01*
X176036Y-1603D01*
Y-1610D01*
X176021Y-1646D01*
X176014Y-1705D01*
X175999Y-1792D01*
X175992Y-1843D01*
X175985Y-1909D01*
X175978Y-1974D01*
Y-2055D01*
X175970Y-2135D01*
X175963Y-2230D01*
Y-2332D01*
Y-2441D01*
Y-4089D01*
X174993D01*
Y-429D01*
X175890D01*
Y-968D01*
X175897Y-961D01*
X175912Y-939D01*
X175941Y-910D01*
X175978Y-874D01*
X176021Y-823D01*
X176080Y-771D01*
X176145Y-713D01*
X176218Y-655D01*
X176298Y-604D01*
X176393Y-545D01*
X176488Y-495D01*
X176597Y-444D01*
X176714Y-407D01*
X176830Y-378D01*
X176962Y-356D01*
X177093Y-349D01*
X177144D01*
X177209Y-356D01*
D02*
G37*
G36*
X159582Y-356D02*
X159662Y-363D01*
X159750Y-378D01*
X159845Y-400D01*
X159947Y-429D01*
X160049Y-465D01*
X160063Y-473D01*
X160093Y-487D01*
X160144Y-509D01*
X160202Y-546D01*
X160268Y-589D01*
X160333Y-640D01*
X160399Y-699D01*
X160457Y-764D01*
X160464Y-771D01*
X160479Y-793D01*
X160501Y-830D01*
X160530Y-881D01*
X160566Y-939D01*
X160596Y-1012D01*
X160625Y-1085D01*
X160647Y-1173D01*
Y-1180D01*
X160654Y-1216D01*
X160669Y-1267D01*
X160676Y-1340D01*
X160690Y-1428D01*
X160698Y-1544D01*
X160705Y-1668D01*
Y-1821D01*
Y-4089D01*
X159735D01*
Y-2230D01*
Y-2222D01*
Y-2200D01*
Y-2171D01*
Y-2135D01*
Y-2084D01*
Y-2033D01*
X159728Y-1909D01*
X159721Y-1785D01*
X159706Y-1654D01*
X159692Y-1544D01*
X159684Y-1500D01*
X159670Y-1464D01*
Y-1457D01*
X159655Y-1435D01*
X159641Y-1406D01*
X159619Y-1362D01*
X159553Y-1275D01*
X159517Y-1231D01*
X159466Y-1194D01*
X159458Y-1187D01*
X159444Y-1180D01*
X159415Y-1165D01*
X159371Y-1143D01*
X159320Y-1122D01*
X159269Y-1107D01*
X159203Y-1100D01*
X159130Y-1092D01*
X159087D01*
X159043Y-1100D01*
X158984Y-1107D01*
X158912Y-1129D01*
X158839Y-1151D01*
X158758Y-1187D01*
X158678Y-1231D01*
X158671Y-1238D01*
X158649Y-1253D01*
X158613Y-1289D01*
X158569Y-1326D01*
X158525Y-1384D01*
X158482Y-1442D01*
X158438Y-1522D01*
X158409Y-1603D01*
Y-1610D01*
X158394Y-1646D01*
X158387Y-1705D01*
X158372Y-1792D01*
X158365Y-1843D01*
X158358Y-1909D01*
X158350Y-1974D01*
Y-2055D01*
X158343Y-2135D01*
X158336Y-2230D01*
Y-2332D01*
Y-2441D01*
Y-4089D01*
X157366D01*
Y-429D01*
X158263D01*
Y-968D01*
X158270Y-961D01*
X158285Y-939D01*
X158314Y-910D01*
X158350Y-874D01*
X158394Y-823D01*
X158452Y-771D01*
X158518Y-713D01*
X158591Y-655D01*
X158671Y-604D01*
X158766Y-546D01*
X158861Y-495D01*
X158970Y-444D01*
X159087Y-407D01*
X159203Y-378D01*
X159334Y-356D01*
X159466Y-349D01*
X159517D01*
X159582Y-356D01*
D02*
G37*
G36*
X124233D02*
X124284Y-363D01*
X124350Y-378D01*
X124423Y-392D01*
X124495Y-414D01*
X124583Y-436D01*
X124663Y-473D01*
X124758Y-509D01*
X124845Y-560D01*
X124940Y-618D01*
X125028Y-684D01*
X125115Y-764D01*
X125203Y-852D01*
X125210Y-859D01*
X125224Y-874D01*
X125246Y-903D01*
X125276Y-946D01*
X125305Y-990D01*
X125341Y-1056D01*
X125385Y-1129D01*
X125429Y-1209D01*
X125465Y-1304D01*
X125509Y-1406D01*
X125545Y-1522D01*
X125582Y-1646D01*
X125604Y-1785D01*
X125626Y-1923D01*
X125640Y-2084D01*
X125647Y-2244D01*
Y-2251D01*
Y-2281D01*
Y-2332D01*
X125640Y-2397D01*
X125633Y-2470D01*
X125626Y-2558D01*
X125611Y-2660D01*
X125589Y-2762D01*
X125538Y-2995D01*
X125502Y-3112D01*
X125458Y-3228D01*
X125407Y-3345D01*
X125341Y-3454D01*
X125276Y-3564D01*
X125195Y-3666D01*
X125188Y-3673D01*
X125173Y-3688D01*
X125152Y-3709D01*
X125115Y-3746D01*
X125071Y-3782D01*
X125020Y-3826D01*
X124962Y-3870D01*
X124897Y-3914D01*
X124816Y-3965D01*
X124736Y-4008D01*
X124554Y-4089D01*
X124452Y-4125D01*
X124342Y-4147D01*
X124233Y-4161D01*
X124116Y-4169D01*
X124065D01*
X124007Y-4161D01*
X123934Y-4154D01*
X123847Y-4140D01*
X123752Y-4118D01*
X123657Y-4089D01*
X123562Y-4052D01*
X123555Y-4045D01*
X123519Y-4030D01*
X123475Y-3994D01*
X123409Y-3950D01*
X123329Y-3899D01*
X123249Y-3826D01*
X123154Y-3739D01*
X123052Y-3636D01*
Y-5488D01*
X122082D01*
Y-429D01*
X122986D01*
Y-968D01*
X122994Y-954D01*
X123016Y-925D01*
X123059Y-874D01*
X123110Y-808D01*
X123176Y-735D01*
X123264Y-662D01*
X123351Y-589D01*
X123460Y-524D01*
X123475Y-516D01*
X123511Y-495D01*
X123577Y-465D01*
X123657Y-436D01*
X123752Y-407D01*
X123869Y-378D01*
X123993Y-356D01*
X124124Y-349D01*
X124182D01*
X124233Y-356D01*
D02*
G37*
G36*
X119925D02*
X119976Y-363D01*
X120041Y-378D01*
X120114Y-392D01*
X120187Y-414D01*
X120275Y-436D01*
X120355Y-473D01*
X120450Y-509D01*
X120537Y-560D01*
X120632Y-618D01*
X120719Y-684D01*
X120807Y-764D01*
X120894Y-852D01*
X120902Y-859D01*
X120916Y-874D01*
X120938Y-903D01*
X120967Y-946D01*
X120996Y-990D01*
X121033Y-1056D01*
X121077Y-1129D01*
X121120Y-1209D01*
X121157Y-1304D01*
X121200Y-1406D01*
X121237Y-1522D01*
X121273Y-1646D01*
X121295Y-1785D01*
X121317Y-1923D01*
X121332Y-2084D01*
X121339Y-2244D01*
Y-2251D01*
Y-2281D01*
Y-2332D01*
X121332Y-2397D01*
X121324Y-2470D01*
X121317Y-2558D01*
X121302Y-2660D01*
X121281Y-2762D01*
X121230Y-2995D01*
X121193Y-3112D01*
X121149Y-3228D01*
X121098Y-3345D01*
X121033Y-3454D01*
X120967Y-3564D01*
X120887Y-3666D01*
X120880Y-3673D01*
X120865Y-3688D01*
X120843Y-3709D01*
X120807Y-3746D01*
X120763Y-3782D01*
X120712Y-3826D01*
X120654Y-3870D01*
X120588Y-3914D01*
X120508Y-3965D01*
X120428Y-4008D01*
X120246Y-4089D01*
X120143Y-4125D01*
X120034Y-4147D01*
X119925Y-4161D01*
X119808Y-4169D01*
X119757D01*
X119699Y-4161D01*
X119626Y-4154D01*
X119538Y-4140D01*
X119444Y-4118D01*
X119349Y-4089D01*
X119254Y-4052D01*
X119247Y-4045D01*
X119210Y-4030D01*
X119167Y-3994D01*
X119101Y-3950D01*
X119021Y-3899D01*
X118940Y-3826D01*
X118846Y-3739D01*
X118744Y-3636D01*
Y-5488D01*
X117774D01*
Y-429D01*
X118678D01*
Y-968D01*
X118685Y-954D01*
X118707Y-925D01*
X118751Y-874D01*
X118802Y-808D01*
X118868Y-735D01*
X118955Y-662D01*
X119043Y-589D01*
X119152Y-524D01*
X119167Y-516D01*
X119203Y-495D01*
X119269Y-465D01*
X119349Y-436D01*
X119444Y-407D01*
X119560Y-378D01*
X119684Y-356D01*
X119815Y-349D01*
X119874D01*
X119925Y-356D01*
D02*
G37*
G36*
X98930Y-356D02*
X99002Y-363D01*
X99083Y-371D01*
X99170Y-378D01*
X99352Y-407D01*
X99535Y-451D01*
X99709Y-516D01*
X99790Y-553D01*
X99863Y-597D01*
X99870D01*
X99877Y-611D01*
X99921Y-640D01*
X99986Y-699D01*
X100059Y-779D01*
X100147Y-874D01*
X100227Y-998D01*
X100307Y-1143D01*
X100366Y-1311D01*
X99454Y-1479D01*
Y-1471D01*
X99440Y-1442D01*
X99425Y-1406D01*
X99403Y-1362D01*
X99374Y-1304D01*
X99330Y-1253D01*
X99287Y-1202D01*
X99228Y-1158D01*
X99221Y-1151D01*
X99199Y-1136D01*
X99163Y-1122D01*
X99112Y-1100D01*
X99046Y-1078D01*
X98966Y-1056D01*
X98871Y-1049D01*
X98762Y-1041D01*
X98696D01*
X98631Y-1049D01*
X98550Y-1056D01*
X98456Y-1070D01*
X98368Y-1085D01*
X98288Y-1114D01*
X98215Y-1151D01*
X98208D01*
X98201Y-1165D01*
X98164Y-1202D01*
X98120Y-1267D01*
X98113Y-1304D01*
X98106Y-1347D01*
Y-1355D01*
Y-1362D01*
X98120Y-1406D01*
X98150Y-1464D01*
X98171Y-1493D01*
X98201Y-1522D01*
X98208Y-1530D01*
X98237Y-1537D01*
X98251Y-1552D01*
X98281Y-1559D01*
X98317Y-1574D01*
X98361Y-1595D01*
X98419Y-1610D01*
X98478Y-1632D01*
X98550Y-1654D01*
X98638Y-1675D01*
X98733Y-1705D01*
X98842Y-1734D01*
X98966Y-1763D01*
X99104Y-1799D01*
X99112D01*
X99141Y-1807D01*
X99177Y-1814D01*
X99228Y-1829D01*
X99294Y-1850D01*
X99367Y-1865D01*
X99527Y-1916D01*
X99709Y-1982D01*
X99884Y-2055D01*
X99972Y-2098D01*
X100052Y-2135D01*
X100118Y-2186D01*
X100183Y-2230D01*
X100198Y-2244D01*
X100234Y-2273D01*
X100278Y-2332D01*
X100337Y-2412D01*
X100395Y-2514D01*
X100438Y-2638D01*
X100475Y-2784D01*
X100489Y-2944D01*
Y-2951D01*
Y-2966D01*
Y-2995D01*
X100482Y-3032D01*
X100475Y-3068D01*
X100468Y-3119D01*
X100438Y-3243D01*
X100388Y-3374D01*
X100351Y-3447D01*
X100315Y-3520D01*
X100264Y-3593D01*
X100205Y-3666D01*
X100140Y-3739D01*
X100067Y-3811D01*
X100059Y-3819D01*
X100045Y-3826D01*
X100023Y-3841D01*
X99986Y-3870D01*
X99943Y-3892D01*
X99892Y-3921D01*
X99826Y-3957D01*
X99753Y-3986D01*
X99673Y-4023D01*
X99578Y-4052D01*
X99476Y-4089D01*
X99367Y-4110D01*
X99243Y-4132D01*
X99112Y-4154D01*
X98973Y-4161D01*
X98827Y-4169D01*
X98755D01*
X98703Y-4161D01*
X98638D01*
X98565Y-4154D01*
X98485Y-4147D01*
X98397Y-4132D01*
X98208Y-4096D01*
X98011Y-4045D01*
X97814Y-3972D01*
X97727Y-3921D01*
X97639Y-3870D01*
X97632Y-3862D01*
X97617Y-3855D01*
X97595Y-3841D01*
X97574Y-3811D01*
X97493Y-3746D01*
X97406Y-3651D01*
X97311Y-3534D01*
X97224Y-3396D01*
X97143Y-3228D01*
X97078Y-3046D01*
X98047Y-2900D01*
Y-2915D01*
X98062Y-2944D01*
X98077Y-2995D01*
X98098Y-3061D01*
X98135Y-3133D01*
X98179Y-3199D01*
X98230Y-3272D01*
X98295Y-3330D01*
X98303Y-3338D01*
X98332Y-3352D01*
X98375Y-3374D01*
X98434Y-3396D01*
X98507Y-3425D01*
X98601Y-3447D01*
X98703Y-3462D01*
X98827Y-3469D01*
X98886D01*
X98959Y-3462D01*
X99039Y-3454D01*
X99126Y-3440D01*
X99221Y-3410D01*
X99309Y-3381D01*
X99389Y-3338D01*
X99396Y-3330D01*
X99411Y-3316D01*
X99432Y-3294D01*
X99454Y-3265D01*
X99476Y-3228D01*
X99498Y-3185D01*
X99513Y-3133D01*
X99520Y-3075D01*
Y-3068D01*
Y-3053D01*
X99513Y-3010D01*
X99491Y-2951D01*
X99447Y-2893D01*
X99432Y-2878D01*
X99411Y-2871D01*
X99382Y-2849D01*
X99338Y-2835D01*
X99279Y-2813D01*
X99214Y-2791D01*
X99126Y-2769D01*
X99112D01*
X99075Y-2754D01*
X99017Y-2740D01*
X98937Y-2725D01*
X98842Y-2703D01*
X98740Y-2674D01*
X98623Y-2645D01*
X98499Y-2609D01*
X98244Y-2536D01*
X98120Y-2499D01*
X98004Y-2455D01*
X97894Y-2419D01*
X97792Y-2375D01*
X97705Y-2332D01*
X97639Y-2295D01*
X97632Y-2288D01*
X97617Y-2281D01*
X97603Y-2266D01*
X97574Y-2237D01*
X97501Y-2171D01*
X97428Y-2076D01*
X97348Y-1960D01*
X97275Y-1821D01*
X97246Y-1741D01*
X97231Y-1654D01*
X97216Y-1566D01*
X97209Y-1471D01*
Y-1464D01*
Y-1450D01*
Y-1428D01*
X97216Y-1391D01*
X97224Y-1355D01*
X97231Y-1304D01*
X97253Y-1194D01*
X97297Y-1070D01*
X97369Y-939D01*
X97406Y-866D01*
X97457Y-801D01*
X97515Y-735D01*
X97581Y-677D01*
X97588Y-669D01*
X97595Y-662D01*
X97617Y-648D01*
X97654Y-626D01*
X97690Y-604D01*
X97741Y-575D01*
X97799Y-546D01*
X97865Y-509D01*
X97945Y-480D01*
X98033Y-451D01*
X98128Y-422D01*
X98230Y-400D01*
X98346Y-378D01*
X98470Y-363D01*
X98601Y-349D01*
X98871D01*
X98930Y-356D01*
D02*
G37*
G36*
X174009Y-4089D02*
X173112D01*
Y-3542D01*
X173105Y-3556D01*
X173076Y-3593D01*
X173032Y-3644D01*
X172967Y-3709D01*
X172894Y-3790D01*
X172799Y-3862D01*
X172697Y-3943D01*
X172580Y-4008D01*
X172566Y-4016D01*
X172522Y-4030D01*
X172456Y-4059D01*
X172369Y-4089D01*
X172267Y-4118D01*
X172150Y-4147D01*
X172026Y-4161D01*
X171895Y-4169D01*
X171829D01*
X171764Y-4161D01*
X171676Y-4147D01*
X171567Y-4132D01*
X171458Y-4103D01*
X171341Y-4059D01*
X171232Y-4008D01*
X171217Y-4001D01*
X171188Y-3979D01*
X171130Y-3943D01*
X171071Y-3892D01*
X170998Y-3826D01*
X170933Y-3753D01*
X170867Y-3658D01*
X170809Y-3556D01*
X170802Y-3542D01*
X170787Y-3505D01*
X170765Y-3440D01*
X170743Y-3345D01*
X170721Y-3228D01*
X170700Y-3090D01*
X170685Y-2929D01*
X170678Y-2747D01*
Y-429D01*
X171647D01*
Y-2113D01*
Y-2120D01*
Y-2149D01*
Y-2186D01*
Y-2237D01*
Y-2295D01*
Y-2361D01*
X171654Y-2514D01*
X171662Y-2682D01*
X171669Y-2835D01*
X171676Y-2900D01*
X171684Y-2966D01*
X171691Y-3017D01*
X171698Y-3053D01*
Y-3061D01*
X171706Y-3083D01*
X171720Y-3112D01*
X171742Y-3155D01*
X171764Y-3199D01*
X171800Y-3243D01*
X171837Y-3287D01*
X171888Y-3330D01*
X171895Y-3338D01*
X171917Y-3345D01*
X171946Y-3359D01*
X171990Y-3374D01*
X172041Y-3396D01*
X172107Y-3410D01*
X172172Y-3418D01*
X172252Y-3425D01*
X172296D01*
X172340Y-3418D01*
X172398Y-3410D01*
X172471Y-3396D01*
X172544Y-3367D01*
X172624Y-3338D01*
X172697Y-3294D01*
X172704Y-3287D01*
X172726Y-3272D01*
X172763Y-3243D01*
X172806Y-3199D01*
X172850Y-3148D01*
X172894Y-3097D01*
X172938Y-3031D01*
X172967Y-2959D01*
Y-2951D01*
X172981Y-2915D01*
Y-2886D01*
X172989Y-2849D01*
X172996Y-2813D01*
X173003Y-2762D01*
X173011Y-2696D01*
X173018Y-2630D01*
X173025Y-2550D01*
Y-2455D01*
X173032Y-2354D01*
X173040Y-2237D01*
Y-2113D01*
Y-1974D01*
Y-429D01*
X174009D01*
Y-4089D01*
D02*
G37*
G36*
X184587Y-4089D02*
X183617D01*
Y-429D01*
X184587D01*
Y-4089D01*
D02*
G37*
G36*
X147765Y-4089D02*
X146796D01*
Y956D01*
X147765D01*
Y-4089D01*
D02*
G37*
G36*
X144463Y-356D02*
X144521D01*
X144667Y-371D01*
X144820Y-385D01*
X144980Y-414D01*
X145133Y-458D01*
X145199Y-480D01*
X145265Y-509D01*
X145272D01*
X145279Y-516D01*
X145316Y-538D01*
X145374Y-567D01*
X145440Y-611D01*
X145520Y-669D01*
X145593Y-735D01*
X145658Y-815D01*
X145717Y-895D01*
X145724Y-910D01*
X145739Y-939D01*
X145760Y-1005D01*
X145768Y-1041D01*
X145782Y-1092D01*
X145797Y-1143D01*
X145804Y-1209D01*
X145819Y-1282D01*
X145826Y-1362D01*
X145833Y-1450D01*
X145841Y-1544D01*
X145848Y-1646D01*
Y-1763D01*
X145833Y-2893D01*
Y-2900D01*
Y-2915D01*
Y-2937D01*
Y-2973D01*
Y-3061D01*
X145841Y-3163D01*
Y-3279D01*
X145855Y-3396D01*
X145862Y-3513D01*
X145877Y-3607D01*
Y-3615D01*
X145884Y-3644D01*
X145899Y-3695D01*
X145914Y-3753D01*
X145943Y-3826D01*
X145972Y-3906D01*
X146008Y-3994D01*
X146052Y-4089D01*
X145097D01*
Y-4081D01*
X145090Y-4074D01*
X145082Y-4045D01*
X145068Y-4016D01*
X145053Y-3979D01*
X145039Y-3928D01*
X145024Y-3870D01*
X145002Y-3804D01*
Y-3797D01*
X144995Y-3790D01*
X144988Y-3760D01*
X144973Y-3724D01*
X144966Y-3695D01*
X144951Y-3702D01*
X144922Y-3731D01*
X144871Y-3775D01*
X144806Y-3826D01*
X144725Y-3884D01*
X144638Y-3950D01*
X144536Y-4001D01*
X144434Y-4052D01*
X144419Y-4059D01*
X144383Y-4067D01*
X144324Y-4089D01*
X144251Y-4110D01*
X144164Y-4132D01*
X144062Y-4147D01*
X143945Y-4161D01*
X143829Y-4169D01*
X143778D01*
X143734Y-4161D01*
X143690D01*
X143632Y-4154D01*
X143508Y-4132D01*
X143362Y-4096D01*
X143216Y-4045D01*
X143070Y-3972D01*
X142939Y-3870D01*
Y-3862D01*
X142925Y-3855D01*
X142888Y-3811D01*
X142837Y-3746D01*
X142779Y-3658D01*
X142720Y-3549D01*
X142669Y-3418D01*
X142633Y-3265D01*
X142626Y-3184D01*
X142619Y-3097D01*
Y-3083D01*
Y-3046D01*
X142626Y-2988D01*
X142640Y-2915D01*
X142655Y-2827D01*
X142677Y-2740D01*
X142713Y-2645D01*
X142764Y-2550D01*
X142772Y-2536D01*
X142793Y-2507D01*
X142823Y-2463D01*
X142874Y-2412D01*
X142925Y-2354D01*
X142998Y-2288D01*
X143078Y-2230D01*
X143173Y-2179D01*
X143187Y-2171D01*
X143224Y-2157D01*
X143282Y-2135D01*
X143369Y-2098D01*
X143479Y-2062D01*
X143610Y-2025D01*
X143770Y-1989D01*
X143945Y-1953D01*
X143953D01*
X143974Y-1945D01*
X144011Y-1938D01*
X144055Y-1931D01*
X144113Y-1923D01*
X144178Y-1909D01*
X144324Y-1872D01*
X144477Y-1836D01*
X144638Y-1799D01*
X144776Y-1756D01*
X144842Y-1734D01*
X144893Y-1712D01*
Y-1617D01*
Y-1603D01*
Y-1574D01*
X144886Y-1522D01*
X144878Y-1457D01*
X144857Y-1391D01*
X144835Y-1326D01*
X144798Y-1267D01*
X144747Y-1216D01*
X144740Y-1209D01*
X144718Y-1194D01*
X144682Y-1180D01*
X144631Y-1151D01*
X144558Y-1129D01*
X144470Y-1114D01*
X144361Y-1100D01*
X144229Y-1092D01*
X144186D01*
X144142Y-1100D01*
X144084Y-1107D01*
X144018Y-1122D01*
X143945Y-1136D01*
X143880Y-1165D01*
X143821Y-1202D01*
X143814Y-1209D01*
X143799Y-1223D01*
X143770Y-1245D01*
X143741Y-1282D01*
X143697Y-1333D01*
X143661Y-1398D01*
X143624Y-1471D01*
X143588Y-1559D01*
X142720Y-1398D01*
Y-1391D01*
X142728Y-1377D01*
X142735Y-1347D01*
X142750Y-1311D01*
X142764Y-1267D01*
X142786Y-1216D01*
X142837Y-1100D01*
X142910Y-976D01*
X142998Y-844D01*
X143100Y-721D01*
X143224Y-611D01*
X143231D01*
X143238Y-597D01*
X143260Y-589D01*
X143289Y-567D01*
X143333Y-553D01*
X143377Y-531D01*
X143435Y-502D01*
X143493Y-480D01*
X143566Y-458D01*
X143646Y-429D01*
X143734Y-407D01*
X143836Y-392D01*
X143938Y-371D01*
X144055Y-363D01*
X144171Y-349D01*
X144412D01*
X144463Y-356D01*
D02*
G37*
G36*
X139527Y-910D02*
X139535Y-903D01*
X139549Y-888D01*
X139578Y-859D01*
X139608Y-823D01*
X139659Y-779D01*
X139710Y-735D01*
X139775Y-684D01*
X139841Y-626D01*
X139921Y-575D01*
X140009Y-524D01*
X140198Y-436D01*
X140300Y-400D01*
X140410Y-371D01*
X140526Y-356D01*
X140643Y-349D01*
X140701D01*
X140767Y-356D01*
X140847Y-363D01*
X140942Y-378D01*
X141036Y-407D01*
X141146Y-436D01*
X141248Y-480D01*
X141262Y-487D01*
X141292Y-502D01*
X141343Y-531D01*
X141401Y-567D01*
X141467Y-611D01*
X141532Y-662D01*
X141598Y-728D01*
X141656Y-793D01*
X141664Y-801D01*
X141678Y-830D01*
X141700Y-866D01*
X141729Y-917D01*
X141765Y-983D01*
X141795Y-1056D01*
X141824Y-1136D01*
X141846Y-1223D01*
Y-1231D01*
X141853Y-1267D01*
X141860Y-1326D01*
X141875Y-1398D01*
X141882Y-1500D01*
X141890Y-1625D01*
X141897Y-1770D01*
Y-1945D01*
Y-4089D01*
X140927D01*
Y-2164D01*
Y-2157D01*
Y-2142D01*
Y-2113D01*
Y-2069D01*
Y-2025D01*
Y-1974D01*
X140920Y-1858D01*
X140913Y-1734D01*
X140905Y-1610D01*
X140891Y-1508D01*
X140876Y-1471D01*
X140869Y-1435D01*
Y-1428D01*
X140854Y-1406D01*
X140840Y-1384D01*
X140825Y-1347D01*
X140760Y-1267D01*
X140723Y-1223D01*
X140672Y-1187D01*
X140665Y-1180D01*
X140650Y-1173D01*
X140614Y-1158D01*
X140577Y-1136D01*
X140526Y-1122D01*
X140468Y-1107D01*
X140395Y-1100D01*
X140322Y-1092D01*
X140278D01*
X140235Y-1100D01*
X140176Y-1107D01*
X140111Y-1122D01*
X140038Y-1143D01*
X139965Y-1173D01*
X139892Y-1216D01*
X139885Y-1223D01*
X139863Y-1238D01*
X139826Y-1267D01*
X139790Y-1304D01*
X139739Y-1355D01*
X139695Y-1413D01*
X139651Y-1486D01*
X139615Y-1566D01*
Y-1574D01*
X139600Y-1610D01*
X139586Y-1661D01*
X139571Y-1741D01*
X139557Y-1836D01*
X139542Y-1960D01*
X139535Y-2098D01*
X139527Y-2259D01*
Y-4089D01*
X138558D01*
Y956D01*
X139527D01*
Y-910D01*
D02*
G37*
G36*
X129963Y-356D02*
X130021D01*
X130167Y-371D01*
X130320Y-385D01*
X130481Y-414D01*
X130634Y-458D01*
X130699Y-480D01*
X130765Y-509D01*
X130772D01*
X130780Y-516D01*
X130816Y-538D01*
X130874Y-567D01*
X130940Y-611D01*
X131020Y-669D01*
X131093Y-735D01*
X131159Y-815D01*
X131217Y-895D01*
X131224Y-910D01*
X131239Y-939D01*
X131261Y-1005D01*
X131268Y-1041D01*
X131282Y-1092D01*
X131297Y-1143D01*
X131304Y-1209D01*
X131319Y-1282D01*
X131326Y-1362D01*
X131333Y-1450D01*
X131341Y-1544D01*
X131348Y-1646D01*
Y-1763D01*
X131333Y-2893D01*
Y-2900D01*
Y-2915D01*
Y-2937D01*
Y-2973D01*
Y-3061D01*
X131341Y-3163D01*
Y-3279D01*
X131355Y-3396D01*
X131363Y-3513D01*
X131377Y-3607D01*
Y-3615D01*
X131385Y-3644D01*
X131399Y-3695D01*
X131414Y-3753D01*
X131443Y-3826D01*
X131472Y-3906D01*
X131509Y-3994D01*
X131552Y-4089D01*
X130597D01*
Y-4081D01*
X130590Y-4074D01*
X130583Y-4045D01*
X130568Y-4016D01*
X130553Y-3979D01*
X130539Y-3928D01*
X130524Y-3870D01*
X130502Y-3804D01*
Y-3797D01*
X130495Y-3790D01*
X130488Y-3760D01*
X130473Y-3724D01*
X130466Y-3695D01*
X130451Y-3702D01*
X130422Y-3731D01*
X130371Y-3775D01*
X130306Y-3826D01*
X130226Y-3884D01*
X130138Y-3950D01*
X130036Y-4001D01*
X129934Y-4052D01*
X129919Y-4059D01*
X129883Y-4067D01*
X129824Y-4089D01*
X129752Y-4110D01*
X129664Y-4132D01*
X129562Y-4147D01*
X129445Y-4161D01*
X129329Y-4169D01*
X129278D01*
X129234Y-4161D01*
X129190D01*
X129132Y-4154D01*
X129008Y-4132D01*
X128862Y-4096D01*
X128716Y-4045D01*
X128571Y-3972D01*
X128439Y-3870D01*
Y-3862D01*
X128425Y-3855D01*
X128388Y-3811D01*
X128337Y-3746D01*
X128279Y-3658D01*
X128221Y-3549D01*
X128170Y-3418D01*
X128133Y-3265D01*
X128126Y-3184D01*
X128119Y-3097D01*
Y-3083D01*
Y-3046D01*
X128126Y-2988D01*
X128140Y-2915D01*
X128155Y-2827D01*
X128177Y-2740D01*
X128213Y-2645D01*
X128264Y-2550D01*
X128272Y-2536D01*
X128294Y-2507D01*
X128323Y-2463D01*
X128374Y-2412D01*
X128425Y-2354D01*
X128498Y-2288D01*
X128578Y-2230D01*
X128673Y-2179D01*
X128687Y-2171D01*
X128724Y-2157D01*
X128782Y-2135D01*
X128869Y-2098D01*
X128979Y-2062D01*
X129110Y-2025D01*
X129271Y-1989D01*
X129445Y-1953D01*
X129453D01*
X129475Y-1945D01*
X129511Y-1938D01*
X129555Y-1931D01*
X129613Y-1923D01*
X129679Y-1909D01*
X129824Y-1872D01*
X129978Y-1836D01*
X130138Y-1799D01*
X130277Y-1756D01*
X130342Y-1734D01*
X130393Y-1712D01*
Y-1617D01*
Y-1603D01*
Y-1574D01*
X130386Y-1522D01*
X130378Y-1457D01*
X130357Y-1391D01*
X130335Y-1326D01*
X130298Y-1267D01*
X130247Y-1216D01*
X130240Y-1209D01*
X130218Y-1194D01*
X130182Y-1180D01*
X130131Y-1151D01*
X130058Y-1129D01*
X129970Y-1114D01*
X129861Y-1100D01*
X129730Y-1092D01*
X129686D01*
X129642Y-1100D01*
X129584Y-1107D01*
X129518Y-1122D01*
X129445Y-1136D01*
X129380Y-1165D01*
X129322Y-1202D01*
X129314Y-1209D01*
X129300Y-1223D01*
X129271Y-1245D01*
X129241Y-1282D01*
X129198Y-1333D01*
X129161Y-1398D01*
X129125Y-1471D01*
X129088Y-1559D01*
X128221Y-1398D01*
Y-1391D01*
X128228Y-1377D01*
X128235Y-1347D01*
X128250Y-1311D01*
X128264Y-1267D01*
X128286Y-1216D01*
X128337Y-1100D01*
X128410Y-976D01*
X128498Y-844D01*
X128600Y-721D01*
X128724Y-611D01*
X128731D01*
X128738Y-597D01*
X128760Y-589D01*
X128789Y-567D01*
X128833Y-553D01*
X128877Y-531D01*
X128935Y-502D01*
X128993Y-480D01*
X129066Y-458D01*
X129147Y-429D01*
X129234Y-407D01*
X129336Y-392D01*
X129438Y-371D01*
X129555Y-363D01*
X129671Y-349D01*
X129912D01*
X129963Y-356D01*
D02*
G37*
G36*
X127382Y-4089D02*
X126413D01*
Y956D01*
X127382D01*
Y-4089D01*
D02*
G37*
G36*
X110506Y-1719D02*
X111636Y-429D01*
X112824D01*
X111570Y-1770D01*
X112912Y-4089D01*
X111869D01*
X110943Y-2448D01*
X110506Y-2922D01*
Y-4089D01*
X109536D01*
Y956D01*
X110506D01*
Y-1719D01*
D02*
G37*
G36*
X102276D02*
X103405Y-429D01*
X104594D01*
X103340Y-1770D01*
X104681Y-4089D01*
X103639D01*
X102713Y-2448D01*
X102276Y-2922D01*
Y-4089D01*
X101306D01*
Y956D01*
X102276D01*
Y-1719D01*
D02*
G37*
G36*
X96422Y-4089D02*
X95452D01*
Y-429D01*
X96422D01*
Y-4089D01*
D02*
G37*
G36*
X91880Y103D02*
X89438D01*
Y-1092D01*
X91545D01*
Y-1945D01*
X89438D01*
Y-4089D01*
X88417D01*
Y956D01*
X91880D01*
Y103D01*
D02*
G37*
G36*
X186599Y-429D02*
X187262D01*
Y-1202D01*
X186599D01*
Y-2682D01*
Y-2689D01*
Y-2703D01*
Y-2725D01*
Y-2754D01*
Y-2827D01*
Y-2915D01*
X186606Y-3002D01*
Y-3090D01*
Y-3155D01*
X186614Y-3184D01*
Y-3199D01*
X186621Y-3214D01*
X186635Y-3243D01*
X186657Y-3279D01*
X186701Y-3323D01*
X186716Y-3330D01*
X186745Y-3345D01*
X186796Y-3359D01*
X186862Y-3367D01*
X186891D01*
X186920Y-3359D01*
X186963Y-3352D01*
X187022Y-3345D01*
X187088Y-3330D01*
X187168Y-3308D01*
X187255Y-3279D01*
X187343Y-4030D01*
X187335D01*
X187328Y-4038D01*
X187284Y-4052D01*
X187211Y-4074D01*
X187117Y-4096D01*
X187007Y-4125D01*
X186876Y-4147D01*
X186730Y-4161D01*
X186577Y-4169D01*
X186533D01*
X186482Y-4161D01*
X186417Y-4154D01*
X186344Y-4147D01*
X186264Y-4132D01*
X186184Y-4110D01*
X186103Y-4081D01*
X186096Y-4074D01*
X186067Y-4067D01*
X186030Y-4045D01*
X185987Y-4023D01*
X185885Y-3950D01*
X185834Y-3906D01*
X185790Y-3855D01*
X185783Y-3848D01*
X185775Y-3826D01*
X185761Y-3797D01*
X185739Y-3753D01*
X185717Y-3702D01*
X185695Y-3636D01*
X185673Y-3564D01*
X185659Y-3483D01*
Y-3476D01*
X185651Y-3447D01*
Y-3403D01*
X185644Y-3330D01*
X185637Y-3236D01*
Y-3119D01*
X185629Y-3053D01*
Y-2973D01*
Y-2893D01*
Y-2798D01*
Y-1202D01*
X185185D01*
Y-429D01*
X185629D01*
Y300D01*
X186599Y869D01*
Y-429D01*
D02*
G37*
G36*
X164576Y-859D02*
X164583Y-852D01*
X164598Y-837D01*
X164620Y-815D01*
X164656Y-779D01*
X164700Y-742D01*
X164751Y-699D01*
X164809Y-648D01*
X164875Y-604D01*
X165028Y-509D01*
X165210Y-429D01*
X165305Y-392D01*
X165414Y-371D01*
X165524Y-356D01*
X165633Y-349D01*
X165699D01*
X165742Y-356D01*
X165801Y-363D01*
X165866Y-378D01*
X165939Y-392D01*
X166027Y-407D01*
X166202Y-465D01*
X166289Y-509D01*
X166384Y-553D01*
X166479Y-611D01*
X166566Y-677D01*
X166654Y-750D01*
X166741Y-837D01*
X166748Y-844D01*
X166763Y-859D01*
X166785Y-888D01*
X166814Y-925D01*
X166843Y-976D01*
X166880Y-1034D01*
X166923Y-1107D01*
X166967Y-1187D01*
X167004Y-1282D01*
X167047Y-1384D01*
X167084Y-1500D01*
X167120Y-1625D01*
X167142Y-1756D01*
X167164Y-1901D01*
X167178Y-2055D01*
X167186Y-2222D01*
Y-2230D01*
Y-2266D01*
Y-2310D01*
X167178Y-2375D01*
X167171Y-2455D01*
X167164Y-2543D01*
X167149Y-2645D01*
X167127Y-2754D01*
X167076Y-2988D01*
X167040Y-3104D01*
X166996Y-3228D01*
X166945Y-3345D01*
X166880Y-3462D01*
X166814Y-3564D01*
X166734Y-3666D01*
X166727Y-3673D01*
X166712Y-3688D01*
X166690Y-3709D01*
X166654Y-3746D01*
X166610Y-3782D01*
X166559Y-3826D01*
X166500Y-3870D01*
X166435Y-3914D01*
X166355Y-3965D01*
X166274Y-4008D01*
X166085Y-4089D01*
X165983Y-4125D01*
X165881Y-4147D01*
X165764Y-4161D01*
X165648Y-4169D01*
X165596D01*
X165531Y-4161D01*
X165451Y-4147D01*
X165356Y-4132D01*
X165254Y-4103D01*
X165145Y-4067D01*
X165028Y-4016D01*
X165013Y-4008D01*
X164977Y-3986D01*
X164919Y-3950D01*
X164846Y-3899D01*
X164766Y-3833D01*
X164678Y-3760D01*
X164591Y-3666D01*
X164503Y-3556D01*
Y-4089D01*
X163606D01*
Y956D01*
X164576D01*
Y-859D01*
D02*
G37*
G36*
X154982Y-356D02*
X155048Y-363D01*
X155128Y-378D01*
X155216Y-392D01*
X155310Y-414D01*
X155412Y-444D01*
X155515Y-480D01*
X155624Y-524D01*
X155733Y-582D01*
X155835Y-640D01*
X155937Y-713D01*
X156039Y-801D01*
X156127Y-895D01*
X156134Y-903D01*
X156149Y-917D01*
X156171Y-954D01*
X156200Y-998D01*
X156236Y-1056D01*
X156273Y-1122D01*
X156316Y-1209D01*
X156360Y-1304D01*
X156404Y-1413D01*
X156448Y-1537D01*
X156484Y-1668D01*
X156520Y-1821D01*
X156550Y-1982D01*
X156571Y-2157D01*
X156586Y-2339D01*
Y-2543D01*
X154166D01*
Y-2550D01*
Y-2565D01*
Y-2587D01*
X154173Y-2616D01*
X154180Y-2689D01*
X154195Y-2791D01*
X154224Y-2893D01*
X154268Y-3010D01*
X154319Y-3119D01*
X154392Y-3214D01*
X154399Y-3221D01*
X154436Y-3250D01*
X154479Y-3287D01*
X154545Y-3330D01*
X154625Y-3374D01*
X154727Y-3410D01*
X154836Y-3440D01*
X154953Y-3447D01*
X154990D01*
X155033Y-3440D01*
X155084Y-3432D01*
X155143Y-3418D01*
X155208Y-3396D01*
X155274Y-3367D01*
X155332Y-3323D01*
X155340Y-3316D01*
X155361Y-3301D01*
X155391Y-3272D01*
X155420Y-3228D01*
X155463Y-3170D01*
X155500Y-3104D01*
X155536Y-3017D01*
X155573Y-2922D01*
X156535Y-3083D01*
Y-3090D01*
X156528Y-3104D01*
X156513Y-3133D01*
X156499Y-3170D01*
X156477Y-3214D01*
X156455Y-3265D01*
X156389Y-3381D01*
X156309Y-3513D01*
X156207Y-3651D01*
X156083Y-3775D01*
X155945Y-3892D01*
X155937D01*
X155930Y-3906D01*
X155901Y-3914D01*
X155872Y-3935D01*
X155835Y-3957D01*
X155784Y-3979D01*
X155733Y-4001D01*
X155668Y-4030D01*
X155522Y-4081D01*
X155354Y-4125D01*
X155157Y-4154D01*
X154946Y-4169D01*
X154902D01*
X154858Y-4161D01*
X154793D01*
X154713Y-4147D01*
X154618Y-4132D01*
X154516Y-4118D01*
X154414Y-4089D01*
X154297Y-4059D01*
X154180Y-4016D01*
X154064Y-3965D01*
X153947Y-3906D01*
X153831Y-3833D01*
X153721Y-3753D01*
X153626Y-3658D01*
X153532Y-3549D01*
X153524Y-3542D01*
X153517Y-3527D01*
X153502Y-3498D01*
X153473Y-3462D01*
X153451Y-3410D01*
X153422Y-3352D01*
X153386Y-3287D01*
X153357Y-3206D01*
X153320Y-3119D01*
X153291Y-3024D01*
X153255Y-2922D01*
X153233Y-2805D01*
X153211Y-2689D01*
X153189Y-2565D01*
X153182Y-2426D01*
X153174Y-2288D01*
Y-2281D01*
Y-2251D01*
Y-2200D01*
X153182Y-2135D01*
X153189Y-2062D01*
X153196Y-1974D01*
X153211Y-1880D01*
X153233Y-1770D01*
X153291Y-1544D01*
X153328Y-1428D01*
X153371Y-1304D01*
X153429Y-1187D01*
X153495Y-1078D01*
X153568Y-968D01*
X153648Y-866D01*
X153656Y-859D01*
X153670Y-844D01*
X153699Y-815D01*
X153736Y-786D01*
X153779Y-750D01*
X153838Y-706D01*
X153903Y-655D01*
X153976Y-604D01*
X154057Y-560D01*
X154151Y-509D01*
X154246Y-465D01*
X154355Y-429D01*
X154465Y-400D01*
X154589Y-371D01*
X154713Y-356D01*
X154844Y-349D01*
X154924D01*
X154982Y-356D01*
D02*
G37*
G36*
X152125Y-429D02*
X152788D01*
Y-1202D01*
X152125D01*
Y-2682D01*
Y-2689D01*
Y-2703D01*
Y-2725D01*
Y-2754D01*
Y-2827D01*
Y-2915D01*
X152132Y-3002D01*
Y-3090D01*
Y-3155D01*
X152139Y-3184D01*
Y-3199D01*
X152146Y-3214D01*
X152161Y-3243D01*
X152183Y-3279D01*
X152227Y-3323D01*
X152241Y-3330D01*
X152270Y-3345D01*
X152322Y-3359D01*
X152387Y-3367D01*
X152416D01*
X152445Y-3359D01*
X152489Y-3352D01*
X152547Y-3345D01*
X152613Y-3330D01*
X152693Y-3308D01*
X152781Y-3279D01*
X152868Y-4030D01*
X152861D01*
X152854Y-4038D01*
X152810Y-4052D01*
X152737Y-4074D01*
X152642Y-4096D01*
X152533Y-4125D01*
X152402Y-4147D01*
X152256Y-4161D01*
X152103Y-4169D01*
X152059D01*
X152008Y-4161D01*
X151942Y-4154D01*
X151869Y-4147D01*
X151789Y-4132D01*
X151709Y-4110D01*
X151629Y-4081D01*
X151622Y-4074D01*
X151593Y-4067D01*
X151556Y-4045D01*
X151512Y-4023D01*
X151410Y-3950D01*
X151359Y-3906D01*
X151315Y-3855D01*
X151308Y-3848D01*
X151301Y-3826D01*
X151286Y-3797D01*
X151264Y-3753D01*
X151242Y-3702D01*
X151221Y-3636D01*
X151199Y-3564D01*
X151184Y-3483D01*
Y-3476D01*
X151177Y-3447D01*
Y-3403D01*
X151170Y-3330D01*
X151162Y-3236D01*
Y-3119D01*
X151155Y-3053D01*
Y-2973D01*
Y-2893D01*
Y-2798D01*
Y-1202D01*
X150710D01*
Y-429D01*
X151155D01*
Y300D01*
X152125Y869D01*
Y-429D01*
D02*
G37*
G36*
X133316D02*
X133980D01*
Y-1202D01*
X133316D01*
Y-2682D01*
Y-2689D01*
Y-2703D01*
Y-2725D01*
Y-2754D01*
Y-2827D01*
Y-2915D01*
X133324Y-3002D01*
Y-3090D01*
Y-3155D01*
X133331Y-3184D01*
Y-3199D01*
X133338Y-3214D01*
X133353Y-3243D01*
X133375Y-3279D01*
X133419Y-3323D01*
X133433Y-3330D01*
X133462Y-3345D01*
X133513Y-3359D01*
X133579Y-3367D01*
X133608D01*
X133637Y-3359D01*
X133681Y-3352D01*
X133739Y-3345D01*
X133805Y-3330D01*
X133885Y-3308D01*
X133973Y-3279D01*
X134060Y-4030D01*
X134053D01*
X134045Y-4038D01*
X134002Y-4052D01*
X133929Y-4074D01*
X133834Y-4096D01*
X133725Y-4125D01*
X133593Y-4147D01*
X133448Y-4161D01*
X133295Y-4169D01*
X133251D01*
X133200Y-4161D01*
X133134Y-4154D01*
X133061Y-4147D01*
X132981Y-4132D01*
X132901Y-4110D01*
X132821Y-4081D01*
X132813Y-4074D01*
X132784Y-4067D01*
X132748Y-4045D01*
X132704Y-4023D01*
X132602Y-3950D01*
X132551Y-3906D01*
X132507Y-3855D01*
X132500Y-3848D01*
X132493Y-3826D01*
X132478Y-3797D01*
X132456Y-3753D01*
X132434Y-3702D01*
X132413Y-3636D01*
X132391Y-3564D01*
X132376Y-3483D01*
Y-3476D01*
X132369Y-3447D01*
Y-3403D01*
X132361Y-3330D01*
X132354Y-3236D01*
Y-3119D01*
X132347Y-3053D01*
Y-2973D01*
Y-2893D01*
Y-2798D01*
Y-1202D01*
X131902D01*
Y-429D01*
X132347D01*
Y300D01*
X133316Y869D01*
Y-429D01*
D02*
G37*
G36*
X115288Y-356D02*
X115361Y-363D01*
X115441Y-378D01*
X115536Y-392D01*
X115631Y-414D01*
X115740Y-444D01*
X115850Y-480D01*
X115959Y-524D01*
X116076Y-575D01*
X116192Y-640D01*
X116302Y-713D01*
X116411Y-793D01*
X116513Y-888D01*
X116520Y-895D01*
X116535Y-910D01*
X116564Y-946D01*
X116593Y-983D01*
X116637Y-1041D01*
X116681Y-1100D01*
X116732Y-1180D01*
X116783Y-1260D01*
X116826Y-1355D01*
X116877Y-1457D01*
X116921Y-1574D01*
X116965Y-1690D01*
X116994Y-1821D01*
X117023Y-1953D01*
X117038Y-2098D01*
X117045Y-2251D01*
Y-2259D01*
Y-2288D01*
Y-2332D01*
X117038Y-2390D01*
X117031Y-2463D01*
X117016Y-2543D01*
X117001Y-2638D01*
X116980Y-2733D01*
X116950Y-2842D01*
X116914Y-2951D01*
X116870Y-3068D01*
X116819Y-3185D01*
X116753Y-3301D01*
X116681Y-3410D01*
X116601Y-3520D01*
X116506Y-3629D01*
X116498Y-3636D01*
X116484Y-3651D01*
X116455Y-3680D01*
X116411Y-3717D01*
X116360Y-3753D01*
X116294Y-3797D01*
X116221Y-3848D01*
X116141Y-3899D01*
X116046Y-3950D01*
X115944Y-4001D01*
X115835Y-4045D01*
X115711Y-4081D01*
X115587Y-4118D01*
X115449Y-4147D01*
X115310Y-4161D01*
X115157Y-4169D01*
X115106D01*
X115070Y-4161D01*
X115026D01*
X114975Y-4154D01*
X114851Y-4140D01*
X114698Y-4110D01*
X114537Y-4074D01*
X114370Y-4016D01*
X114195Y-3943D01*
X114188D01*
X114173Y-3935D01*
X114151Y-3921D01*
X114122Y-3899D01*
X114042Y-3848D01*
X113940Y-3775D01*
X113830Y-3680D01*
X113714Y-3564D01*
X113604Y-3432D01*
X113502Y-3279D01*
Y-3272D01*
X113495Y-3258D01*
X113480Y-3236D01*
X113466Y-3199D01*
X113451Y-3155D01*
X113429Y-3104D01*
X113407Y-3046D01*
X113386Y-2980D01*
X113364Y-2908D01*
X113342Y-2827D01*
X113305Y-2645D01*
X113276Y-2434D01*
X113269Y-2208D01*
Y-2200D01*
Y-2186D01*
Y-2157D01*
X113276Y-2128D01*
Y-2084D01*
X113284Y-2033D01*
X113298Y-1909D01*
X113327Y-1770D01*
X113371Y-1617D01*
X113422Y-1450D01*
X113502Y-1282D01*
Y-1275D01*
X113517Y-1260D01*
X113524Y-1238D01*
X113546Y-1209D01*
X113604Y-1129D01*
X113677Y-1027D01*
X113772Y-917D01*
X113889Y-801D01*
X114020Y-691D01*
X114173Y-589D01*
X114180D01*
X114195Y-582D01*
X114217Y-567D01*
X114253Y-553D01*
X114289Y-531D01*
X114341Y-516D01*
X114399Y-495D01*
X114457Y-465D01*
X114603Y-422D01*
X114771Y-385D01*
X114953Y-356D01*
X115150Y-349D01*
X115230D01*
X115288Y-356D01*
D02*
G37*
G36*
X106278Y-429D02*
X106941D01*
Y-1202D01*
X106278D01*
Y-2682D01*
Y-2689D01*
Y-2703D01*
Y-2725D01*
Y-2754D01*
Y-2827D01*
Y-2915D01*
X106285Y-3002D01*
Y-3090D01*
Y-3155D01*
X106292Y-3185D01*
Y-3199D01*
X106300Y-3214D01*
X106314Y-3243D01*
X106336Y-3279D01*
X106380Y-3323D01*
X106395Y-3330D01*
X106424Y-3345D01*
X106475Y-3359D01*
X106540Y-3367D01*
X106569D01*
X106599Y-3359D01*
X106642Y-3352D01*
X106701Y-3345D01*
X106766Y-3330D01*
X106846Y-3308D01*
X106934Y-3279D01*
X107021Y-4030D01*
X107014D01*
X107007Y-4038D01*
X106963Y-4052D01*
X106890Y-4074D01*
X106795Y-4096D01*
X106686Y-4125D01*
X106555Y-4147D01*
X106409Y-4161D01*
X106256Y-4169D01*
X106212D01*
X106161Y-4161D01*
X106096Y-4154D01*
X106023Y-4147D01*
X105942Y-4132D01*
X105862Y-4110D01*
X105782Y-4081D01*
X105775Y-4074D01*
X105746Y-4067D01*
X105709Y-4045D01*
X105666Y-4023D01*
X105563Y-3950D01*
X105512Y-3906D01*
X105469Y-3855D01*
X105461Y-3848D01*
X105454Y-3826D01*
X105439Y-3797D01*
X105418Y-3753D01*
X105396Y-3702D01*
X105374Y-3636D01*
X105352Y-3564D01*
X105337Y-3483D01*
Y-3476D01*
X105330Y-3447D01*
Y-3403D01*
X105323Y-3330D01*
X105315Y-3236D01*
Y-3119D01*
X105308Y-3053D01*
Y-2973D01*
Y-2893D01*
Y-2798D01*
Y-1202D01*
X104864D01*
Y-429D01*
X105308D01*
Y300D01*
X106278Y869D01*
Y-429D01*
D02*
G37*
G36*
X135591Y-3811D02*
Y-3819D01*
Y-3826D01*
Y-3848D01*
Y-3877D01*
Y-3957D01*
X135584Y-4052D01*
X135576Y-4154D01*
X135562Y-4264D01*
X135540Y-4373D01*
X135518Y-4468D01*
Y-4475D01*
X135503Y-4511D01*
X135482Y-4555D01*
X135460Y-4613D01*
X135416Y-4686D01*
X135372Y-4759D01*
X135314Y-4832D01*
X135241Y-4905D01*
X135234Y-4912D01*
X135205Y-4934D01*
X135161Y-4971D01*
X135102Y-5014D01*
X135030Y-5065D01*
X134942Y-5116D01*
X134840Y-5167D01*
X134731Y-5211D01*
X134541Y-4810D01*
X134556Y-4803D01*
X134592Y-4788D01*
X134643Y-4766D01*
X134702Y-4737D01*
X134774Y-4701D01*
X134840Y-4650D01*
X134906Y-4599D01*
X134957Y-4541D01*
X134964Y-4533D01*
X134978Y-4511D01*
X135000Y-4475D01*
X135022Y-4424D01*
X135051Y-4358D01*
X135073Y-4278D01*
X135088Y-4191D01*
X135095Y-4089D01*
X134621D01*
Y-3119D01*
X135591D01*
Y-3811D01*
D02*
G37*
G36*
X167656Y95995D02*
X165717D01*
Y97788D01*
X167656D01*
Y95995D01*
D02*
G37*
G36*
X126890D02*
X124951D01*
Y97788D01*
X126890D01*
Y95995D01*
D02*
G37*
G36*
X151559Y94770D02*
X150816Y93910D01*
X150830Y93881D01*
X150889Y93822D01*
X150961Y93720D01*
X151049Y93575D01*
X151151Y93414D01*
X151253Y93210D01*
X151370Y92991D01*
X151457Y92743D01*
X151472Y92714D01*
X151501Y92627D01*
X151530Y92496D01*
X151588Y92321D01*
X151632Y92102D01*
X151661Y91869D01*
X151690Y91621D01*
X151705Y91344D01*
Y91329D01*
Y91271D01*
Y91183D01*
X151690Y91067D01*
X151676Y90935D01*
X151647Y90760D01*
X151618Y90586D01*
X151574Y90381D01*
X151516Y90177D01*
X151443Y89959D01*
X151355Y89725D01*
X151239Y89492D01*
X151122Y89273D01*
X150976Y89040D01*
X150801Y88821D01*
X150612Y88617D01*
X150597Y88603D01*
X150568Y88573D01*
X150495Y88515D01*
X150422Y88442D01*
X150305Y88369D01*
X150189Y88282D01*
X150043Y88180D01*
X149868Y88078D01*
X149679Y87976D01*
X149474Y87874D01*
X149256Y87786D01*
X149008Y87713D01*
X148760Y87640D01*
X148483Y87582D01*
X148206Y87553D01*
X147900Y87538D01*
X147783D01*
X147696Y87553D01*
X147594D01*
X147477Y87568D01*
X147346Y87582D01*
X147200Y87611D01*
X146865Y87684D01*
X146515Y87772D01*
X146150Y87917D01*
X145786Y88107D01*
X144998Y87203D01*
X144240Y87845D01*
X145042Y88763D01*
X145027Y88792D01*
X144969Y88850D01*
X144896Y88953D01*
X144809Y89098D01*
X144692Y89273D01*
X144590Y89477D01*
X144488Y89711D01*
X144386Y89959D01*
Y89973D01*
X144371Y89988D01*
X144357Y90075D01*
X144313Y90221D01*
X144269Y90396D01*
X144226Y90615D01*
X144196Y90863D01*
X144167Y91110D01*
X144153Y91387D01*
Y91402D01*
Y91460D01*
X144167Y91548D01*
Y91664D01*
X144182Y91796D01*
X144211Y91971D01*
X144240Y92146D01*
X144284Y92350D01*
X144342Y92554D01*
X144415Y92773D01*
X144488Y93006D01*
X144590Y93225D01*
X144721Y93458D01*
X144852Y93677D01*
X145013Y93895D01*
X145202Y94099D01*
X145217Y94114D01*
X145246Y94143D01*
X145319Y94201D01*
X145392Y94274D01*
X145494Y94347D01*
X145625Y94435D01*
X145771Y94537D01*
X145946Y94639D01*
X146121Y94741D01*
X146340Y94843D01*
X146558Y94930D01*
X146792Y95003D01*
X147054Y95076D01*
X147331Y95135D01*
X147608Y95164D01*
X147914Y95178D01*
X148031D01*
X148118Y95164D01*
X148235D01*
X148352Y95149D01*
X148497Y95120D01*
X148643Y95105D01*
X148993Y95033D01*
X149343Y94916D01*
X149722Y94755D01*
X149897Y94668D01*
X150072Y94551D01*
X150801Y95397D01*
X151559Y94770D01*
D02*
G37*
G36*
X194599Y95164D02*
X194745Y95149D01*
X194906Y95135D01*
X195081Y95120D01*
X195445Y95062D01*
X195810Y94974D01*
X196160Y94843D01*
X196320Y94770D01*
X196466Y94683D01*
X196480D01*
X196495Y94653D01*
X196582Y94595D01*
X196714Y94478D01*
X196859Y94318D01*
X197034Y94129D01*
X197195Y93881D01*
X197355Y93589D01*
X197472Y93254D01*
X195649Y92918D01*
Y92933D01*
X195620Y92991D01*
X195591Y93064D01*
X195547Y93152D01*
X195489Y93268D01*
X195401Y93370D01*
X195314Y93472D01*
X195197Y93560D01*
X195183Y93575D01*
X195139Y93604D01*
X195066Y93633D01*
X194964Y93677D01*
X194833Y93720D01*
X194672Y93764D01*
X194483Y93779D01*
X194264Y93793D01*
X194133D01*
X194002Y93779D01*
X193841Y93764D01*
X193652Y93735D01*
X193477Y93706D01*
X193316Y93647D01*
X193171Y93575D01*
X193156D01*
X193141Y93545D01*
X193069Y93472D01*
X192981Y93341D01*
X192966Y93268D01*
X192952Y93181D01*
Y93166D01*
Y93152D01*
X192981Y93064D01*
X193039Y92948D01*
X193083Y92889D01*
X193141Y92831D01*
X193156Y92816D01*
X193214Y92802D01*
X193244Y92773D01*
X193302Y92758D01*
X193375Y92729D01*
X193462Y92685D01*
X193579Y92656D01*
X193695Y92612D01*
X193841Y92568D01*
X194016Y92525D01*
X194206Y92466D01*
X194424Y92408D01*
X194672Y92350D01*
X194949Y92277D01*
X194964D01*
X195022Y92262D01*
X195095Y92248D01*
X195197Y92219D01*
X195328Y92175D01*
X195474Y92146D01*
X195795Y92044D01*
X196160Y91912D01*
X196510Y91767D01*
X196684Y91679D01*
X196845Y91606D01*
X196976Y91504D01*
X197107Y91417D01*
X197136Y91387D01*
X197209Y91329D01*
X197297Y91212D01*
X197413Y91052D01*
X197530Y90848D01*
X197617Y90600D01*
X197690Y90309D01*
X197720Y89988D01*
Y89973D01*
Y89944D01*
Y89886D01*
X197705Y89813D01*
X197690Y89740D01*
X197676Y89638D01*
X197617Y89390D01*
X197515Y89128D01*
X197443Y88982D01*
X197370Y88836D01*
X197268Y88690D01*
X197151Y88544D01*
X197020Y88399D01*
X196874Y88253D01*
X196859Y88238D01*
X196830Y88224D01*
X196786Y88194D01*
X196714Y88136D01*
X196626Y88092D01*
X196524Y88034D01*
X196393Y87961D01*
X196247Y87903D01*
X196087Y87830D01*
X195897Y87772D01*
X195693Y87699D01*
X195474Y87655D01*
X195226Y87611D01*
X194964Y87568D01*
X194687Y87553D01*
X194395Y87538D01*
X194250D01*
X194148Y87553D01*
X194016D01*
X193870Y87568D01*
X193710Y87582D01*
X193535Y87611D01*
X193156Y87684D01*
X192762Y87786D01*
X192369Y87932D01*
X192194Y88034D01*
X192019Y88136D01*
X192004Y88151D01*
X191975Y88165D01*
X191931Y88194D01*
X191888Y88253D01*
X191727Y88384D01*
X191552Y88573D01*
X191363Y88807D01*
X191188Y89084D01*
X191027Y89419D01*
X190896Y89784D01*
X192835Y90075D01*
Y90046D01*
X192865Y89988D01*
X192894Y89886D01*
X192937Y89754D01*
X193010Y89609D01*
X193098Y89477D01*
X193200Y89332D01*
X193331Y89215D01*
X193346Y89201D01*
X193404Y89171D01*
X193491Y89128D01*
X193608Y89084D01*
X193754Y89025D01*
X193943Y88982D01*
X194148Y88953D01*
X194395Y88938D01*
X194512D01*
X194658Y88953D01*
X194818Y88967D01*
X194993Y88996D01*
X195183Y89055D01*
X195358Y89113D01*
X195518Y89201D01*
X195533Y89215D01*
X195562Y89244D01*
X195606Y89288D01*
X195649Y89346D01*
X195693Y89419D01*
X195737Y89507D01*
X195766Y89609D01*
X195781Y89725D01*
Y89740D01*
Y89769D01*
X195766Y89857D01*
X195722Y89973D01*
X195635Y90090D01*
X195606Y90119D01*
X195562Y90134D01*
X195503Y90177D01*
X195416Y90206D01*
X195299Y90250D01*
X195168Y90294D01*
X194993Y90338D01*
X194964D01*
X194891Y90367D01*
X194774Y90396D01*
X194614Y90425D01*
X194424Y90469D01*
X194220Y90527D01*
X193987Y90586D01*
X193739Y90658D01*
X193229Y90804D01*
X192981Y90877D01*
X192748Y90965D01*
X192529Y91037D01*
X192325Y91125D01*
X192150Y91212D01*
X192019Y91285D01*
X192004Y91300D01*
X191975Y91315D01*
X191946Y91344D01*
X191888Y91402D01*
X191742Y91533D01*
X191596Y91723D01*
X191436Y91956D01*
X191290Y92233D01*
X191232Y92393D01*
X191202Y92568D01*
X191173Y92743D01*
X191159Y92933D01*
Y92948D01*
Y92977D01*
Y93020D01*
X191173Y93093D01*
X191188Y93166D01*
X191202Y93268D01*
X191246Y93487D01*
X191334Y93735D01*
X191479Y93997D01*
X191552Y94143D01*
X191654Y94274D01*
X191771Y94406D01*
X191902Y94522D01*
X191917Y94537D01*
X191931Y94551D01*
X191975Y94581D01*
X192048Y94624D01*
X192121Y94668D01*
X192223Y94726D01*
X192340Y94785D01*
X192471Y94858D01*
X192631Y94916D01*
X192806Y94974D01*
X192996Y95033D01*
X193200Y95076D01*
X193433Y95120D01*
X193681Y95149D01*
X193943Y95178D01*
X194483D01*
X194599Y95164D01*
D02*
G37*
G36*
X131905D02*
X132051Y95149D01*
X132212Y95135D01*
X132387Y95120D01*
X132751Y95062D01*
X133116Y94974D01*
X133466Y94843D01*
X133626Y94770D01*
X133772Y94683D01*
X133786D01*
X133801Y94653D01*
X133888Y94595D01*
X134020Y94478D01*
X134165Y94318D01*
X134340Y94129D01*
X134501Y93881D01*
X134661Y93589D01*
X134778Y93254D01*
X132955Y92918D01*
Y92933D01*
X132926Y92991D01*
X132897Y93064D01*
X132853Y93152D01*
X132795Y93268D01*
X132707Y93370D01*
X132620Y93472D01*
X132503Y93560D01*
X132489Y93575D01*
X132445Y93604D01*
X132372Y93633D01*
X132270Y93677D01*
X132139Y93720D01*
X131978Y93764D01*
X131789Y93779D01*
X131570Y93793D01*
X131439D01*
X131308Y93779D01*
X131147Y93764D01*
X130958Y93735D01*
X130783Y93706D01*
X130622Y93647D01*
X130477Y93575D01*
X130462D01*
X130447Y93545D01*
X130375Y93472D01*
X130287Y93341D01*
X130272Y93268D01*
X130258Y93181D01*
Y93166D01*
Y93152D01*
X130287Y93064D01*
X130345Y92948D01*
X130389Y92889D01*
X130447Y92831D01*
X130462Y92816D01*
X130520Y92802D01*
X130550Y92773D01*
X130608Y92758D01*
X130681Y92729D01*
X130768Y92685D01*
X130885Y92656D01*
X131001Y92612D01*
X131147Y92568D01*
X131322Y92525D01*
X131512Y92466D01*
X131730Y92408D01*
X131978Y92350D01*
X132255Y92277D01*
X132270D01*
X132328Y92262D01*
X132401Y92248D01*
X132503Y92219D01*
X132634Y92175D01*
X132780Y92146D01*
X133101Y92044D01*
X133466Y91912D01*
X133816Y91767D01*
X133990Y91679D01*
X134151Y91606D01*
X134282Y91504D01*
X134413Y91417D01*
X134442Y91387D01*
X134515Y91329D01*
X134603Y91212D01*
X134719Y91052D01*
X134836Y90848D01*
X134924Y90600D01*
X134996Y90309D01*
X135026Y89988D01*
Y89973D01*
Y89944D01*
Y89886D01*
X135011Y89813D01*
X134996Y89740D01*
X134982Y89638D01*
X134924Y89390D01*
X134821Y89128D01*
X134749Y88982D01*
X134676Y88836D01*
X134574Y88690D01*
X134457Y88544D01*
X134326Y88399D01*
X134180Y88253D01*
X134165Y88238D01*
X134136Y88224D01*
X134092Y88194D01*
X134020Y88136D01*
X133932Y88092D01*
X133830Y88034D01*
X133699Y87961D01*
X133553Y87903D01*
X133393Y87830D01*
X133203Y87772D01*
X132999Y87699D01*
X132780Y87655D01*
X132532Y87611D01*
X132270Y87568D01*
X131993Y87553D01*
X131701Y87538D01*
X131556D01*
X131454Y87553D01*
X131322D01*
X131176Y87568D01*
X131016Y87582D01*
X130841Y87611D01*
X130462Y87684D01*
X130068Y87786D01*
X129675Y87932D01*
X129500Y88034D01*
X129325Y88136D01*
X129310Y88151D01*
X129281Y88165D01*
X129237Y88194D01*
X129194Y88253D01*
X129033Y88384D01*
X128858Y88573D01*
X128669Y88807D01*
X128494Y89084D01*
X128333Y89419D01*
X128202Y89784D01*
X130141Y90075D01*
Y90046D01*
X130171Y89988D01*
X130200Y89886D01*
X130243Y89754D01*
X130316Y89609D01*
X130404Y89477D01*
X130506Y89332D01*
X130637Y89215D01*
X130652Y89201D01*
X130710Y89171D01*
X130797Y89128D01*
X130914Y89084D01*
X131060Y89025D01*
X131249Y88982D01*
X131454Y88953D01*
X131701Y88938D01*
X131818D01*
X131964Y88953D01*
X132124Y88967D01*
X132299Y88996D01*
X132489Y89055D01*
X132664Y89113D01*
X132824Y89201D01*
X132839Y89215D01*
X132868Y89244D01*
X132912Y89288D01*
X132955Y89346D01*
X132999Y89419D01*
X133043Y89507D01*
X133072Y89609D01*
X133087Y89725D01*
Y89740D01*
Y89769D01*
X133072Y89857D01*
X133028Y89973D01*
X132941Y90090D01*
X132912Y90119D01*
X132868Y90134D01*
X132809Y90177D01*
X132722Y90206D01*
X132605Y90250D01*
X132474Y90294D01*
X132299Y90338D01*
X132270D01*
X132197Y90367D01*
X132080Y90396D01*
X131920Y90425D01*
X131730Y90469D01*
X131526Y90527D01*
X131293Y90586D01*
X131045Y90658D01*
X130535Y90804D01*
X130287Y90877D01*
X130054Y90965D01*
X129835Y91037D01*
X129631Y91125D01*
X129456Y91212D01*
X129325Y91285D01*
X129310Y91300D01*
X129281Y91315D01*
X129252Y91344D01*
X129194Y91402D01*
X129048Y91533D01*
X128902Y91723D01*
X128742Y91956D01*
X128596Y92233D01*
X128537Y92393D01*
X128508Y92568D01*
X128479Y92743D01*
X128465Y92933D01*
Y92948D01*
Y92977D01*
Y93020D01*
X128479Y93093D01*
X128494Y93166D01*
X128508Y93268D01*
X128552Y93487D01*
X128640Y93735D01*
X128785Y93997D01*
X128858Y94143D01*
X128960Y94274D01*
X129077Y94406D01*
X129208Y94522D01*
X129223Y94537D01*
X129237Y94551D01*
X129281Y94581D01*
X129354Y94624D01*
X129427Y94668D01*
X129529Y94726D01*
X129646Y94785D01*
X129777Y94858D01*
X129937Y94916D01*
X130112Y94974D01*
X130302Y95033D01*
X130506Y95076D01*
X130739Y95120D01*
X130987Y95149D01*
X131249Y95178D01*
X131789D01*
X131905Y95164D01*
D02*
G37*
G36*
X140041D02*
X140158D01*
X140289Y95149D01*
X140435Y95135D01*
X140595Y95105D01*
X140930Y95033D01*
X141280Y94930D01*
X141630Y94785D01*
X141951Y94595D01*
X141966D01*
X141980Y94566D01*
X142024Y94537D01*
X142082Y94493D01*
X142213Y94362D01*
X142388Y94172D01*
X142578Y93924D01*
X142768Y93633D01*
X142943Y93283D01*
X143088Y92875D01*
X141178Y92525D01*
Y92554D01*
X141164Y92612D01*
X141135Y92714D01*
X141091Y92845D01*
X141018Y92977D01*
X140945Y93123D01*
X140843Y93254D01*
X140726Y93370D01*
X140712Y93385D01*
X140668Y93414D01*
X140595Y93458D01*
X140493Y93516D01*
X140362Y93575D01*
X140216Y93618D01*
X140041Y93647D01*
X139852Y93662D01*
X139822D01*
X139735Y93647D01*
X139604Y93633D01*
X139429Y93604D01*
X139254Y93531D01*
X139064Y93443D01*
X138875Y93327D01*
X138700Y93152D01*
X138685Y93123D01*
X138641Y93050D01*
X138568Y92933D01*
X138496Y92758D01*
X138408Y92525D01*
X138379Y92393D01*
X138350Y92248D01*
X138321Y92073D01*
X138292Y91898D01*
X138277Y91694D01*
Y91489D01*
Y91475D01*
Y91431D01*
Y91358D01*
X138292Y91271D01*
Y91169D01*
X138306Y91052D01*
X138335Y90760D01*
X138379Y90454D01*
X138467Y90148D01*
X138568Y89871D01*
X138641Y89754D01*
X138714Y89638D01*
X138729Y89609D01*
X138802Y89550D01*
X138889Y89477D01*
X139021Y89375D01*
X139196Y89273D01*
X139385Y89201D01*
X139618Y89142D01*
X139881Y89113D01*
X139968D01*
X140070Y89128D01*
X140201Y89157D01*
X140347Y89186D01*
X140493Y89244D01*
X140639Y89317D01*
X140785Y89419D01*
X140799Y89434D01*
X140843Y89477D01*
X140901Y89550D01*
X140989Y89667D01*
X141076Y89813D01*
X141149Y90002D01*
X141237Y90236D01*
X141295Y90498D01*
X143190Y90177D01*
Y90163D01*
X143176Y90119D01*
X143161Y90046D01*
X143132Y89959D01*
X143088Y89857D01*
X143045Y89725D01*
X142928Y89434D01*
X142782Y89113D01*
X142578Y88792D01*
X142330Y88472D01*
X142184Y88326D01*
X142039Y88194D01*
X142024D01*
X141995Y88165D01*
X141951Y88136D01*
X141893Y88092D01*
X141805Y88049D01*
X141703Y87990D01*
X141587Y87932D01*
X141441Y87874D01*
X141295Y87801D01*
X141120Y87743D01*
X140945Y87684D01*
X140741Y87640D01*
X140522Y87597D01*
X140289Y87568D01*
X140056Y87553D01*
X139793Y87538D01*
X139633D01*
X139531Y87553D01*
X139400Y87568D01*
X139239Y87597D01*
X139064Y87626D01*
X138875Y87670D01*
X138671Y87713D01*
X138467Y87786D01*
X138248Y87859D01*
X138044Y87961D01*
X137825Y88078D01*
X137621Y88209D01*
X137431Y88369D01*
X137242Y88544D01*
X137227Y88559D01*
X137198Y88588D01*
X137154Y88646D01*
X137096Y88734D01*
X137023Y88836D01*
X136936Y88953D01*
X136863Y89098D01*
X136775Y89273D01*
X136673Y89463D01*
X136600Y89667D01*
X136513Y89900D01*
X136440Y90148D01*
X136381Y90425D01*
X136338Y90702D01*
X136309Y91023D01*
X136294Y91344D01*
Y91358D01*
Y91417D01*
Y91519D01*
X136309Y91635D01*
X136323Y91796D01*
X136338Y91971D01*
X136367Y92160D01*
X136411Y92379D01*
X136527Y92831D01*
X136600Y93064D01*
X136688Y93297D01*
X136804Y93531D01*
X136936Y93749D01*
X137081Y93954D01*
X137242Y94158D01*
X137256Y94172D01*
X137285Y94201D01*
X137344Y94245D01*
X137417Y94318D01*
X137519Y94391D01*
X137635Y94478D01*
X137767Y94581D01*
X137927Y94668D01*
X138102Y94770D01*
X138292Y94858D01*
X138510Y94945D01*
X138743Y95018D01*
X138977Y95091D01*
X139254Y95135D01*
X139531Y95164D01*
X139822Y95178D01*
X139954D01*
X140041Y95164D01*
D02*
G37*
G36*
X180180Y94056D02*
X180194Y94070D01*
X180224Y94099D01*
X180282Y94158D01*
X180340Y94231D01*
X180442Y94318D01*
X180544Y94406D01*
X180676Y94508D01*
X180807Y94624D01*
X180967Y94726D01*
X181142Y94828D01*
X181521Y95003D01*
X181725Y95076D01*
X181944Y95135D01*
X182177Y95164D01*
X182411Y95178D01*
X182527D01*
X182659Y95164D01*
X182819Y95149D01*
X183008Y95120D01*
X183198Y95062D01*
X183417Y95003D01*
X183621Y94916D01*
X183650Y94901D01*
X183708Y94872D01*
X183810Y94814D01*
X183927Y94741D01*
X184058Y94653D01*
X184189Y94551D01*
X184321Y94420D01*
X184437Y94289D01*
X184452Y94274D01*
X184481Y94216D01*
X184525Y94143D01*
X184583Y94041D01*
X184656Y93910D01*
X184714Y93764D01*
X184773Y93604D01*
X184816Y93429D01*
Y93414D01*
X184831Y93341D01*
X184845Y93225D01*
X184875Y93079D01*
X184889Y92875D01*
X184904Y92627D01*
X184918Y92335D01*
Y91985D01*
Y87699D01*
X182979D01*
Y91548D01*
Y91562D01*
Y91592D01*
Y91650D01*
Y91737D01*
Y91825D01*
Y91927D01*
X182965Y92160D01*
X182950Y92408D01*
X182936Y92656D01*
X182906Y92860D01*
X182877Y92933D01*
X182863Y93006D01*
Y93020D01*
X182833Y93064D01*
X182804Y93108D01*
X182775Y93181D01*
X182644Y93341D01*
X182571Y93429D01*
X182469Y93502D01*
X182454Y93516D01*
X182425Y93531D01*
X182352Y93560D01*
X182279Y93604D01*
X182177Y93633D01*
X182061Y93662D01*
X181915Y93677D01*
X181769Y93691D01*
X181682D01*
X181594Y93677D01*
X181477Y93662D01*
X181346Y93633D01*
X181201Y93589D01*
X181055Y93531D01*
X180909Y93443D01*
X180894Y93429D01*
X180851Y93400D01*
X180778Y93341D01*
X180705Y93268D01*
X180603Y93166D01*
X180515Y93050D01*
X180428Y92904D01*
X180355Y92743D01*
Y92729D01*
X180326Y92656D01*
X180297Y92554D01*
X180267Y92393D01*
X180238Y92204D01*
X180209Y91956D01*
X180194Y91679D01*
X180180Y91358D01*
Y87699D01*
X178241D01*
Y97788D01*
X180180D01*
Y94056D01*
D02*
G37*
G36*
X167656Y87699D02*
X165717D01*
Y95018D01*
X167656D01*
Y87699D01*
D02*
G37*
G36*
X159214Y89405D02*
X164288D01*
Y87699D01*
X157173D01*
Y97715D01*
X159214D01*
Y89405D01*
D02*
G37*
G36*
X126890Y87699D02*
X124951D01*
Y95018D01*
X126890D01*
Y87699D01*
D02*
G37*
G36*
X118944Y97773D02*
X119221Y97759D01*
X119527Y97744D01*
X119848Y97701D01*
X120154Y97657D01*
X120431Y97584D01*
X120446D01*
X120475Y97569D01*
X120519Y97555D01*
X120577Y97540D01*
X120752Y97467D01*
X120956Y97365D01*
X121189Y97234D01*
X121452Y97074D01*
X121700Y96884D01*
X121947Y96651D01*
X121962D01*
X121976Y96622D01*
X122049Y96534D01*
X122166Y96388D01*
X122297Y96199D01*
X122458Y95966D01*
X122618Y95689D01*
X122778Y95368D01*
X122910Y95018D01*
Y95003D01*
X122924Y94974D01*
X122939Y94916D01*
X122968Y94843D01*
X122983Y94755D01*
X123012Y94639D01*
X123041Y94508D01*
X123085Y94362D01*
X123114Y94201D01*
X123143Y94012D01*
X123172Y93822D01*
X123187Y93604D01*
X123230Y93152D01*
X123245Y92641D01*
Y92627D01*
Y92583D01*
Y92525D01*
Y92437D01*
X123230Y92321D01*
Y92204D01*
X123216Y92058D01*
X123201Y91898D01*
X123172Y91562D01*
X123114Y91212D01*
X123026Y90848D01*
X122924Y90498D01*
Y90483D01*
X122910Y90454D01*
X122880Y90396D01*
X122851Y90309D01*
X122822Y90221D01*
X122764Y90119D01*
X122647Y89857D01*
X122501Y89579D01*
X122312Y89273D01*
X122093Y88982D01*
X121845Y88705D01*
X121816Y88676D01*
X121743Y88617D01*
X121627Y88530D01*
X121466Y88413D01*
X121262Y88282D01*
X121029Y88151D01*
X120737Y88020D01*
X120416Y87903D01*
X120402D01*
X120387Y87888D01*
X120343D01*
X120300Y87874D01*
X120139Y87845D01*
X119935Y87801D01*
X119687Y87757D01*
X119381Y87728D01*
X119017Y87713D01*
X118623Y87699D01*
X114803D01*
Y97788D01*
X118827D01*
X118944Y97773D01*
D02*
G37*
G36*
X188913Y95018D02*
X190240D01*
Y93472D01*
X188913D01*
Y90513D01*
Y90498D01*
Y90469D01*
Y90425D01*
Y90367D01*
Y90221D01*
Y90046D01*
X188928Y89871D01*
Y89696D01*
Y89565D01*
X188942Y89507D01*
Y89477D01*
X188957Y89448D01*
X188986Y89390D01*
X189030Y89317D01*
X189117Y89230D01*
X189147Y89215D01*
X189205Y89186D01*
X189307Y89157D01*
X189438Y89142D01*
X189497D01*
X189555Y89157D01*
X189642Y89171D01*
X189759Y89186D01*
X189890Y89215D01*
X190050Y89259D01*
X190226Y89317D01*
X190400Y87815D01*
X190386D01*
X190371Y87801D01*
X190284Y87772D01*
X190138Y87728D01*
X189948Y87684D01*
X189730Y87626D01*
X189467Y87582D01*
X189176Y87553D01*
X188870Y87538D01*
X188782D01*
X188680Y87553D01*
X188549Y87568D01*
X188403Y87582D01*
X188243Y87611D01*
X188082Y87655D01*
X187922Y87713D01*
X187907Y87728D01*
X187849Y87743D01*
X187776Y87786D01*
X187689Y87830D01*
X187484Y87976D01*
X187382Y88063D01*
X187295Y88165D01*
X187280Y88180D01*
X187266Y88224D01*
X187237Y88282D01*
X187193Y88369D01*
X187149Y88472D01*
X187105Y88603D01*
X187062Y88749D01*
X187032Y88909D01*
Y88924D01*
X187018Y88982D01*
Y89069D01*
X187003Y89215D01*
X186989Y89405D01*
Y89638D01*
X186974Y89769D01*
Y89929D01*
Y90090D01*
Y90279D01*
Y93472D01*
X186085D01*
Y95018D01*
X186974D01*
Y96476D01*
X188913Y97613D01*
Y95018D01*
D02*
G37*
G36*
X172423Y95164D02*
X172525D01*
X172627Y95135D01*
X172773Y95120D01*
X172919Y95076D01*
X173079Y95033D01*
X173254Y94960D01*
X173429Y94887D01*
X173619Y94785D01*
X173808Y94668D01*
X173998Y94537D01*
X174188Y94362D01*
X174362Y94187D01*
X174537Y93968D01*
Y95018D01*
X176345D01*
Y88442D01*
Y88428D01*
Y88384D01*
Y88326D01*
Y88238D01*
Y88122D01*
X176331Y88005D01*
X176316Y87728D01*
X176287Y87407D01*
X176258Y87086D01*
X176199Y86780D01*
X176170Y86649D01*
X176127Y86518D01*
X176112Y86489D01*
X176083Y86416D01*
X176039Y86299D01*
X175966Y86153D01*
X175879Y85993D01*
X175777Y85818D01*
X175660Y85658D01*
X175514Y85512D01*
X175500Y85497D01*
X175441Y85453D01*
X175354Y85381D01*
X175252Y85308D01*
X175106Y85220D01*
X174931Y85118D01*
X174727Y85031D01*
X174494Y84943D01*
X174464Y84929D01*
X174377Y84914D01*
X174246Y84870D01*
X174056Y84841D01*
X173808Y84797D01*
X173531Y84754D01*
X173211Y84739D01*
X172861Y84724D01*
X172686D01*
X172555Y84739D01*
X172409D01*
X172234Y84754D01*
X172044Y84783D01*
X171840Y84812D01*
X171403Y84885D01*
X170965Y85001D01*
X170761Y85074D01*
X170557Y85162D01*
X170382Y85249D01*
X170222Y85366D01*
X170207Y85381D01*
X170193Y85395D01*
X170105Y85483D01*
X169974Y85614D01*
X169843Y85803D01*
X169697Y86037D01*
X169566Y86314D01*
X169478Y86634D01*
X169464Y86809D01*
X169449Y86984D01*
Y86999D01*
Y87057D01*
Y87130D01*
X169464Y87218D01*
X171680Y86955D01*
Y86941D01*
X171694Y86897D01*
X171709Y86824D01*
X171723Y86751D01*
X171796Y86576D01*
X171855Y86489D01*
X171928Y86430D01*
X171942Y86416D01*
X171986Y86401D01*
X172044Y86357D01*
X172146Y86328D01*
X172263Y86285D01*
X172409Y86241D01*
X172584Y86226D01*
X172788Y86212D01*
X172919D01*
X173050Y86226D01*
X173211Y86241D01*
X173400Y86270D01*
X173590Y86314D01*
X173765Y86372D01*
X173925Y86445D01*
X173940Y86459D01*
X173969Y86474D01*
X174012Y86503D01*
X174071Y86562D01*
X174129Y86634D01*
X174188Y86722D01*
X174246Y86824D01*
X174304Y86941D01*
Y86955D01*
X174319Y86984D01*
X174333Y87043D01*
X174362Y87145D01*
X174377Y87261D01*
X174392Y87407D01*
X174406Y87597D01*
Y87815D01*
Y88880D01*
X174392Y88865D01*
X174362Y88836D01*
X174319Y88778D01*
X174246Y88690D01*
X174173Y88603D01*
X174071Y88501D01*
X173940Y88399D01*
X173808Y88297D01*
X173663Y88180D01*
X173488Y88078D01*
X173123Y87888D01*
X172919Y87815D01*
X172700Y87757D01*
X172467Y87713D01*
X172219Y87699D01*
X172161D01*
X172073Y87713D01*
X171971D01*
X171855Y87743D01*
X171709Y87772D01*
X171548Y87801D01*
X171373Y87859D01*
X171199Y87917D01*
X171009Y88005D01*
X170805Y88107D01*
X170615Y88224D01*
X170426Y88369D01*
X170236Y88530D01*
X170061Y88719D01*
X169886Y88938D01*
Y88953D01*
X169857Y88982D01*
X169828Y89040D01*
X169784Y89113D01*
X169726Y89215D01*
X169668Y89332D01*
X169609Y89463D01*
X169551Y89623D01*
X169493Y89784D01*
X169434Y89973D01*
X169376Y90177D01*
X169318Y90396D01*
X169245Y90863D01*
X169230Y91125D01*
X169216Y91387D01*
Y91402D01*
Y91475D01*
Y91562D01*
X169230Y91694D01*
X169245Y91839D01*
X169259Y92014D01*
X169289Y92219D01*
X169332Y92423D01*
X169434Y92889D01*
X169507Y93123D01*
X169580Y93356D01*
X169682Y93575D01*
X169799Y93808D01*
X169930Y94012D01*
X170090Y94201D01*
X170105Y94216D01*
X170134Y94245D01*
X170178Y94289D01*
X170251Y94362D01*
X170338Y94435D01*
X170440Y94508D01*
X170557Y94595D01*
X170703Y94697D01*
X170849Y94785D01*
X171024Y94872D01*
X171388Y95033D01*
X171607Y95091D01*
X171826Y95135D01*
X172059Y95164D01*
X172292Y95178D01*
X172350D01*
X172423Y95164D01*
D02*
G37*
%LPC*%
G36*
X245459Y24613D02*
X245188Y24574D01*
X245072Y24613D01*
X236993Y24593D01*
X236508Y24613D01*
X236392Y24574D01*
X236276Y24613D01*
X236121Y24574D01*
X236024Y24477D01*
X236063Y16883D01*
X236121Y16825D01*
X237167Y16863D01*
X237225Y16921D01*
X237245Y22675D01*
X237225Y22966D01*
X237303Y23198D01*
X237477Y23257D01*
X242940D01*
X245536Y23295D01*
X245595Y23353D01*
X245556Y24516D01*
X245459Y24613D01*
D02*
G37*
G36*
X251775Y17134D02*
X245188Y17096D01*
X245130Y16921D01*
Y16185D01*
Y16147D01*
X245168Y7932D01*
X245265Y7835D01*
X245420Y7796D01*
X245536Y7835D01*
X251969Y7874D01*
X252027Y7932D01*
X252065Y8203D01*
X252027Y9288D01*
X251930Y9385D01*
X246893Y9424D01*
X246834Y9482D01*
X246796Y9753D01*
X246834Y11691D01*
X246893Y11749D01*
X251348Y11787D01*
X251445Y11884D01*
X251407Y13163D01*
X251348Y13221D01*
X251194Y13260D01*
X246893Y13299D01*
X246834Y13357D01*
X246796Y13512D01*
X246834Y15449D01*
X246931Y15546D01*
X251930Y15585D01*
X251988Y15643D01*
X252027Y16030D01*
X251988Y17038D01*
X251930Y17096D01*
X251775Y17134D01*
D02*
G37*
G36*
X237012Y7332D02*
X236082Y7293D01*
X236024Y7235D01*
X235985Y7119D01*
X236024Y7002D01*
Y6886D01*
Y6847D01*
X236005Y-224D01*
X236102Y-360D01*
X236276Y-418D01*
X236431Y-379D01*
X245478Y-398D01*
X245595Y-282D01*
X245556Y841D01*
X245498Y900D01*
X245343Y938D01*
X245227Y900D01*
X245072Y938D01*
X244917Y900D01*
X237361Y938D01*
X237264Y1035D01*
X237225Y2004D01*
X237245Y7215D01*
X237167Y7293D01*
X237012Y7332D01*
D02*
G37*
G36*
X260725D02*
X259950Y7293D01*
X259854Y7196D01*
X259815Y996D01*
X259563Y900D01*
X251620Y861D01*
X251523Y648D01*
X251562Y532D01*
X251542Y-224D01*
X251639Y-360D01*
X260822Y-398D01*
X260880Y-418D01*
X261113Y-340D01*
X261210Y-243D01*
Y1810D01*
Y1849D01*
X261171Y7235D01*
X261113Y7293D01*
X260725Y7332D01*
D02*
G37*
G36*
X260028Y24613D02*
X259640Y24574D01*
X259485Y24613D01*
X259369Y24574D01*
X256076Y24613D01*
X252027Y24593D01*
X251775Y24613D01*
X251562Y24438D01*
X251600Y23353D01*
X251697Y23257D01*
X259757Y23218D01*
X259854Y23121D01*
X259892Y16921D01*
X259989Y16825D01*
X261113Y16863D01*
X261171Y16921D01*
X261210Y17076D01*
Y23586D01*
Y23625D01*
X261171Y24477D01*
X261074Y24574D01*
X260357Y24593D01*
X260144Y24574D01*
X260028Y24613D01*
D02*
G37*
G36*
X189583Y10349D02*
X189561D01*
X189496Y10338D01*
X189398Y10327D01*
X189288Y10294D01*
X189146Y10250D01*
X189004Y10174D01*
X188862Y10075D01*
X188720Y9933D01*
X188709Y9911D01*
X188665Y9857D01*
X188610Y9759D01*
X188556Y9627D01*
X188490Y9452D01*
X188436Y9245D01*
X188392Y8993D01*
X188381Y8709D01*
Y8698D01*
Y8676D01*
Y8622D01*
Y8567D01*
X188392Y8491D01*
Y8414D01*
X188414Y8228D01*
X188436Y8021D01*
X188479Y7802D01*
X188545Y7605D01*
X188578Y7518D01*
X188621Y7441D01*
Y7430D01*
X188643Y7419D01*
X188687Y7354D01*
X188763Y7266D01*
X188873Y7168D01*
X189015Y7059D01*
X189179Y6971D01*
X189376Y6906D01*
X189485Y6895D01*
X189594Y6884D01*
X189616D01*
X189682Y6895D01*
X189769Y6906D01*
X189889Y6938D01*
X190021Y6982D01*
X190163Y7059D01*
X190305Y7157D01*
X190447Y7299D01*
X190458Y7321D01*
X190501Y7376D01*
X190556Y7474D01*
X190622Y7616D01*
X190687Y7791D01*
X190742Y8010D01*
X190786Y8272D01*
X190796Y8567D01*
Y8578D01*
Y8611D01*
Y8655D01*
Y8720D01*
X190786Y8797D01*
X190775Y8895D01*
X190753Y9092D01*
X190709Y9321D01*
X190654Y9540D01*
X190567Y9759D01*
X190512Y9846D01*
X190447Y9933D01*
X190436Y9955D01*
X190381Y9999D01*
X190316Y10064D01*
X190217Y10141D01*
X190086Y10217D01*
X189944Y10283D01*
X189769Y10327D01*
X189583Y10349D01*
D02*
G37*
G36*
X164313D02*
X164291D01*
X164226Y10338D01*
X164127Y10327D01*
X164018Y10294D01*
X163876Y10250D01*
X163734Y10174D01*
X163592Y10075D01*
X163450Y9933D01*
X163439Y9911D01*
X163395Y9857D01*
X163340Y9759D01*
X163286Y9627D01*
X163220Y9452D01*
X163165Y9245D01*
X163122Y8993D01*
X163111Y8709D01*
Y8698D01*
Y8676D01*
Y8622D01*
Y8567D01*
X163122Y8491D01*
Y8414D01*
X163144Y8228D01*
X163165Y8021D01*
X163209Y7802D01*
X163275Y7605D01*
X163308Y7518D01*
X163351Y7441D01*
Y7430D01*
X163373Y7419D01*
X163417Y7354D01*
X163493Y7266D01*
X163603Y7168D01*
X163745Y7059D01*
X163909Y6971D01*
X164105Y6906D01*
X164215Y6895D01*
X164324Y6884D01*
X164346D01*
X164411Y6895D01*
X164499Y6906D01*
X164619Y6938D01*
X164750Y6982D01*
X164892Y7059D01*
X165034Y7157D01*
X165177Y7299D01*
X165188Y7321D01*
X165231Y7376D01*
X165286Y7474D01*
X165351Y7616D01*
X165417Y7791D01*
X165472Y8010D01*
X165515Y8272D01*
X165526Y8567D01*
Y8578D01*
Y8611D01*
Y8655D01*
Y8720D01*
X165515Y8797D01*
X165505Y8895D01*
X165483Y9092D01*
X165439Y9321D01*
X165384Y9540D01*
X165297Y9759D01*
X165242Y9846D01*
X165177Y9933D01*
X165166Y9955D01*
X165111Y9999D01*
X165045Y10064D01*
X164947Y10141D01*
X164816Y10217D01*
X164674Y10283D01*
X164499Y10327D01*
X164313Y10349D01*
D02*
G37*
G36*
X115019Y8480D02*
X115008D01*
X114964Y8458D01*
X114899Y8447D01*
X114800Y8414D01*
X114680Y8381D01*
X114516Y8338D01*
X114341Y8294D01*
X114123Y8250D01*
X114101D01*
X114068Y8239D01*
X114024Y8228D01*
X113926Y8206D01*
X113795Y8174D01*
X113663Y8141D01*
X113532Y8097D01*
X113423Y8043D01*
X113336Y7999D01*
X113325Y7988D01*
X113292Y7966D01*
X113248Y7922D01*
X113204Y7868D01*
X113150Y7791D01*
X113106Y7704D01*
X113073Y7605D01*
X113062Y7496D01*
Y7485D01*
Y7441D01*
X113073Y7387D01*
X113095Y7321D01*
X113117Y7234D01*
X113150Y7146D01*
X113204Y7059D01*
X113281Y6971D01*
X113292Y6960D01*
X113325Y6938D01*
X113368Y6906D01*
X113445Y6862D01*
X113521Y6818D01*
X113620Y6786D01*
X113740Y6764D01*
X113860Y6753D01*
X113926D01*
X114002Y6764D01*
X114101Y6786D01*
X114221Y6818D01*
X114341Y6862D01*
X114483Y6917D01*
X114614Y7004D01*
X114625Y7015D01*
X114658Y7037D01*
X114702Y7081D01*
X114757Y7135D01*
X114811Y7212D01*
X114866Y7288D01*
X114920Y7387D01*
X114953Y7485D01*
Y7496D01*
X114964Y7518D01*
X114975Y7572D01*
X114986Y7638D01*
X114997Y7736D01*
X115008Y7857D01*
X115019Y8010D01*
Y8185D01*
Y8480D01*
D02*
G37*
G36*
X99739D02*
X99728D01*
X99684Y8458D01*
X99619Y8447D01*
X99520Y8414D01*
X99400Y8381D01*
X99236Y8338D01*
X99061Y8294D01*
X98842Y8250D01*
X98821D01*
X98788Y8239D01*
X98744Y8228D01*
X98646Y8206D01*
X98514Y8174D01*
X98383Y8141D01*
X98252Y8097D01*
X98143Y8043D01*
X98055Y7999D01*
X98045Y7988D01*
X98012Y7966D01*
X97968Y7922D01*
X97924Y7868D01*
X97870Y7791D01*
X97826Y7704D01*
X97793Y7605D01*
X97782Y7496D01*
Y7485D01*
Y7441D01*
X97793Y7387D01*
X97815Y7321D01*
X97837Y7234D01*
X97870Y7146D01*
X97924Y7059D01*
X98001Y6971D01*
X98012Y6960D01*
X98045Y6938D01*
X98088Y6906D01*
X98165Y6862D01*
X98241Y6818D01*
X98340Y6786D01*
X98460Y6764D01*
X98580Y6753D01*
X98646D01*
X98722Y6764D01*
X98821Y6786D01*
X98941Y6818D01*
X99061Y6862D01*
X99203Y6917D01*
X99334Y7004D01*
X99345Y7015D01*
X99378Y7037D01*
X99422Y7081D01*
X99476Y7135D01*
X99531Y7212D01*
X99586Y7288D01*
X99640Y7387D01*
X99673Y7485D01*
Y7496D01*
X99684Y7518D01*
X99695Y7572D01*
X99706Y7638D01*
X99717Y7736D01*
X99728Y7857D01*
X99739Y8010D01*
Y8185D01*
Y8480D01*
D02*
G37*
G36*
X211706Y10349D02*
X211629D01*
X211542Y10327D01*
X211432Y10305D01*
X211312Y10261D01*
X211181Y10207D01*
X211050Y10119D01*
X210930Y9999D01*
X210919Y9988D01*
X210886Y9933D01*
X210831Y9857D01*
X210777Y9748D01*
X210711Y9616D01*
X210667Y9453D01*
X210634Y9267D01*
X210624Y9059D01*
X212788D01*
Y9070D01*
Y9092D01*
Y9114D01*
X212777Y9157D01*
X212766Y9278D01*
X212744Y9409D01*
X212700Y9562D01*
X212646Y9726D01*
X212558Y9879D01*
X212460Y10010D01*
X212449Y10021D01*
X212405Y10064D01*
X212340Y10119D01*
X212252Y10185D01*
X212143Y10239D01*
X212012Y10294D01*
X211870Y10338D01*
X211706Y10349D01*
D02*
G37*
G36*
X195846Y10349D02*
X195770D01*
X195682Y10327D01*
X195573Y10305D01*
X195453Y10261D01*
X195322Y10207D01*
X195190Y10119D01*
X195070Y9999D01*
X195059Y9988D01*
X195026Y9933D01*
X194972Y9857D01*
X194917Y9747D01*
X194852Y9616D01*
X194808Y9452D01*
X194775Y9267D01*
X194764Y9059D01*
X196928D01*
Y9070D01*
Y9092D01*
Y9114D01*
X196917Y9157D01*
X196906Y9278D01*
X196885Y9409D01*
X196841Y9562D01*
X196786Y9726D01*
X196699Y9879D01*
X196600Y10010D01*
X196589Y10021D01*
X196546Y10064D01*
X196480Y10119D01*
X196393Y10185D01*
X196283Y10239D01*
X196152Y10294D01*
X196010Y10338D01*
X195846Y10349D01*
D02*
G37*
G36*
X158236D02*
X158159D01*
X158072Y10327D01*
X157963Y10305D01*
X157843Y10261D01*
X157711Y10207D01*
X157580Y10119D01*
X157460Y9999D01*
X157449Y9988D01*
X157416Y9933D01*
X157362Y9857D01*
X157307Y9747D01*
X157241Y9616D01*
X157198Y9452D01*
X157165Y9267D01*
X157154Y9059D01*
X159318D01*
Y9070D01*
Y9092D01*
Y9114D01*
X159307Y9157D01*
X159296Y9278D01*
X159274Y9409D01*
X159231Y9562D01*
X159176Y9726D01*
X159089Y9879D01*
X158990Y10010D01*
X158979Y10021D01*
X158936Y10064D01*
X158870Y10119D01*
X158782Y10185D01*
X158673Y10239D01*
X158542Y10294D01*
X158400Y10338D01*
X158236Y10349D01*
D02*
G37*
G36*
X140016Y10349D02*
X139939D01*
X139852Y10327D01*
X139743Y10305D01*
X139622Y10261D01*
X139491Y10207D01*
X139360Y10119D01*
X139240Y9999D01*
X139229Y9988D01*
X139196Y9933D01*
X139141Y9857D01*
X139087Y9747D01*
X139021Y9616D01*
X138977Y9452D01*
X138945Y9267D01*
X138934Y9059D01*
X141098D01*
Y9070D01*
Y9092D01*
Y9114D01*
X141087Y9157D01*
X141076Y9278D01*
X141054Y9409D01*
X141010Y9562D01*
X140956Y9726D01*
X140868Y9879D01*
X140770Y10010D01*
X140759Y10021D01*
X140715Y10064D01*
X140650Y10119D01*
X140562Y10185D01*
X140453Y10239D01*
X140322Y10294D01*
X140180Y10338D01*
X140016Y10349D01*
D02*
G37*
G36*
X130616D02*
X130539D01*
X130452Y10327D01*
X130343Y10305D01*
X130222Y10261D01*
X130091Y10207D01*
X129960Y10119D01*
X129840Y9999D01*
X129829Y9988D01*
X129796Y9933D01*
X129742Y9857D01*
X129687Y9747D01*
X129621Y9616D01*
X129578Y9452D01*
X129545Y9267D01*
X129534Y9059D01*
X131698D01*
Y9070D01*
Y9092D01*
Y9114D01*
X131687Y9157D01*
X131676Y9278D01*
X131654Y9409D01*
X131611Y9562D01*
X131556Y9726D01*
X131468Y9879D01*
X131370Y10010D01*
X131359Y10021D01*
X131316Y10064D01*
X131250Y10119D01*
X131162Y10185D01*
X131053Y10239D01*
X130922Y10294D01*
X130780Y10338D01*
X130616Y10349D01*
D02*
G37*
G36*
X124583D02*
X124561D01*
X124495Y10338D01*
X124397Y10327D01*
X124276Y10294D01*
X124134Y10250D01*
X123981Y10174D01*
X123839Y10075D01*
X123697Y9944D01*
X123686Y9922D01*
X123643Y9868D01*
X123588Y9769D01*
X123533Y9638D01*
X123468Y9463D01*
X123413Y9256D01*
X123369Y9004D01*
X123358Y8709D01*
Y8698D01*
Y8676D01*
Y8633D01*
Y8567D01*
X123369Y8501D01*
Y8414D01*
X123391Y8228D01*
X123424Y8032D01*
X123468Y7824D01*
X123533Y7627D01*
X123621Y7452D01*
Y7441D01*
X123643Y7430D01*
X123686Y7365D01*
X123774Y7277D01*
X123894Y7168D01*
X124036Y7059D01*
X124211Y6971D01*
X124408Y6906D01*
X124517Y6895D01*
X124637Y6884D01*
X124659D01*
X124714Y6895D01*
X124812Y6906D01*
X124921Y6938D01*
X125053Y6982D01*
X125184Y7059D01*
X125326Y7157D01*
X125457Y7288D01*
X125468Y7310D01*
X125512Y7365D01*
X125566Y7463D01*
X125632Y7605D01*
X125697Y7780D01*
X125752Y7999D01*
X125774Y8130D01*
X125796Y8272D01*
X125807Y8414D01*
Y8578D01*
Y8589D01*
Y8622D01*
Y8665D01*
Y8731D01*
X125796Y8808D01*
X125785Y8895D01*
X125763Y9103D01*
X125719Y9321D01*
X125665Y9551D01*
X125577Y9759D01*
X125523Y9846D01*
X125457Y9933D01*
X125446Y9955D01*
X125391Y9999D01*
X125326Y10064D01*
X125216Y10141D01*
X125096Y10217D01*
X124943Y10283D01*
X124779Y10327D01*
X124583Y10349D01*
D02*
G37*
G36*
X123854Y-1114D02*
X123839D01*
X123796Y-1122D01*
X123730Y-1129D01*
X123650Y-1151D01*
X123555Y-1180D01*
X123453Y-1231D01*
X123358Y-1296D01*
X123264Y-1391D01*
X123256Y-1406D01*
X123227Y-1442D01*
X123191Y-1508D01*
X123154Y-1595D01*
X123110Y-1712D01*
X123074Y-1850D01*
X123045Y-2011D01*
X123038Y-2200D01*
Y-2208D01*
Y-2230D01*
Y-2259D01*
X123045Y-2302D01*
Y-2354D01*
X123052Y-2412D01*
X123067Y-2543D01*
X123096Y-2696D01*
X123140Y-2849D01*
X123198Y-2988D01*
X123234Y-3053D01*
X123278Y-3112D01*
X123293Y-3126D01*
X123322Y-3155D01*
X123373Y-3206D01*
X123446Y-3257D01*
X123526Y-3308D01*
X123628Y-3359D01*
X123745Y-3389D01*
X123869Y-3403D01*
X123883D01*
X123927Y-3396D01*
X123985Y-3389D01*
X124065Y-3367D01*
X124153Y-3338D01*
X124248Y-3287D01*
X124342Y-3221D01*
X124430Y-3133D01*
X124437Y-3119D01*
X124466Y-3083D01*
X124503Y-3017D01*
X124547Y-2922D01*
X124561Y-2864D01*
X124583Y-2798D01*
X124605Y-2725D01*
X124619Y-2645D01*
X124634Y-2558D01*
X124649Y-2463D01*
X124656Y-2361D01*
Y-2251D01*
Y-2244D01*
Y-2222D01*
Y-2193D01*
Y-2157D01*
X124649Y-2106D01*
X124641Y-2055D01*
X124627Y-1931D01*
X124598Y-1792D01*
X124561Y-1646D01*
X124503Y-1515D01*
X124423Y-1398D01*
X124415Y-1384D01*
X124379Y-1355D01*
X124328Y-1311D01*
X124262Y-1253D01*
X124182Y-1202D01*
X124087Y-1158D01*
X123978Y-1129D01*
X123854Y-1114D01*
D02*
G37*
G36*
X119546D02*
X119531D01*
X119487Y-1122D01*
X119422Y-1129D01*
X119342Y-1151D01*
X119247Y-1180D01*
X119145Y-1231D01*
X119050Y-1296D01*
X118955Y-1391D01*
X118948Y-1406D01*
X118919Y-1442D01*
X118882Y-1508D01*
X118846Y-1595D01*
X118802Y-1712D01*
X118766Y-1850D01*
X118736Y-2011D01*
X118729Y-2200D01*
Y-2208D01*
Y-2230D01*
Y-2259D01*
X118736Y-2302D01*
Y-2354D01*
X118744Y-2412D01*
X118758Y-2543D01*
X118787Y-2696D01*
X118831Y-2849D01*
X118889Y-2988D01*
X118926Y-3053D01*
X118970Y-3112D01*
X118984Y-3126D01*
X119013Y-3155D01*
X119064Y-3206D01*
X119137Y-3257D01*
X119218Y-3308D01*
X119320Y-3359D01*
X119436Y-3389D01*
X119560Y-3403D01*
X119575D01*
X119618Y-3396D01*
X119677Y-3389D01*
X119757Y-3367D01*
X119844Y-3338D01*
X119939Y-3287D01*
X120034Y-3221D01*
X120122Y-3133D01*
X120129Y-3119D01*
X120158Y-3083D01*
X120194Y-3017D01*
X120238Y-2922D01*
X120253Y-2864D01*
X120275Y-2798D01*
X120297Y-2725D01*
X120311Y-2645D01*
X120326Y-2558D01*
X120340Y-2463D01*
X120347Y-2361D01*
Y-2251D01*
Y-2244D01*
Y-2222D01*
Y-2193D01*
Y-2157D01*
X120340Y-2106D01*
X120333Y-2055D01*
X120318Y-1931D01*
X120289Y-1792D01*
X120253Y-1646D01*
X120194Y-1515D01*
X120114Y-1398D01*
X120107Y-1384D01*
X120071Y-1355D01*
X120019Y-1311D01*
X119954Y-1253D01*
X119874Y-1202D01*
X119779Y-1158D01*
X119669Y-1129D01*
X119546Y-1114D01*
D02*
G37*
G36*
X144893Y-2339D02*
X144886D01*
X144857Y-2354D01*
X144813Y-2361D01*
X144747Y-2383D01*
X144667Y-2404D01*
X144558Y-2434D01*
X144441Y-2463D01*
X144295Y-2492D01*
X144281D01*
X144259Y-2499D01*
X144229Y-2507D01*
X144164Y-2521D01*
X144077Y-2543D01*
X143989Y-2565D01*
X143902Y-2594D01*
X143829Y-2630D01*
X143770Y-2660D01*
X143763Y-2667D01*
X143741Y-2682D01*
X143712Y-2711D01*
X143683Y-2747D01*
X143646Y-2798D01*
X143617Y-2857D01*
X143595Y-2922D01*
X143588Y-2995D01*
Y-3002D01*
Y-3031D01*
X143595Y-3068D01*
X143610Y-3112D01*
X143624Y-3170D01*
X143646Y-3228D01*
X143683Y-3287D01*
X143734Y-3345D01*
X143741Y-3352D01*
X143763Y-3367D01*
X143792Y-3389D01*
X143843Y-3418D01*
X143894Y-3447D01*
X143960Y-3469D01*
X144040Y-3483D01*
X144120Y-3491D01*
X144164D01*
X144215Y-3483D01*
X144281Y-3469D01*
X144361Y-3447D01*
X144441Y-3418D01*
X144536Y-3381D01*
X144623Y-3323D01*
X144631Y-3316D01*
X144652Y-3301D01*
X144682Y-3272D01*
X144718Y-3236D01*
X144754Y-3184D01*
X144791Y-3133D01*
X144827Y-3068D01*
X144849Y-3002D01*
Y-2995D01*
X144857Y-2980D01*
X144864Y-2944D01*
X144871Y-2900D01*
X144878Y-2835D01*
X144886Y-2754D01*
X144893Y-2652D01*
Y-2536D01*
Y-2339D01*
D02*
G37*
G36*
X130393D02*
X130386D01*
X130357Y-2354D01*
X130313Y-2361D01*
X130247Y-2383D01*
X130167Y-2404D01*
X130058Y-2434D01*
X129941Y-2463D01*
X129795Y-2492D01*
X129781D01*
X129759Y-2499D01*
X129730Y-2507D01*
X129664Y-2521D01*
X129577Y-2543D01*
X129489Y-2565D01*
X129402Y-2594D01*
X129329Y-2630D01*
X129271Y-2660D01*
X129263Y-2667D01*
X129241Y-2682D01*
X129212Y-2711D01*
X129183Y-2747D01*
X129147Y-2798D01*
X129117Y-2857D01*
X129095Y-2922D01*
X129088Y-2995D01*
Y-3002D01*
Y-3031D01*
X129095Y-3068D01*
X129110Y-3112D01*
X129125Y-3170D01*
X129147Y-3228D01*
X129183Y-3287D01*
X129234Y-3345D01*
X129241Y-3352D01*
X129263Y-3367D01*
X129292Y-3389D01*
X129343Y-3418D01*
X129394Y-3447D01*
X129460Y-3469D01*
X129540Y-3483D01*
X129620Y-3491D01*
X129664D01*
X129715Y-3483D01*
X129781Y-3469D01*
X129861Y-3447D01*
X129941Y-3418D01*
X130036Y-3381D01*
X130123Y-3323D01*
X130131Y-3316D01*
X130153Y-3301D01*
X130182Y-3272D01*
X130218Y-3236D01*
X130255Y-3184D01*
X130291Y-3133D01*
X130327Y-3068D01*
X130349Y-3002D01*
Y-2995D01*
X130357Y-2980D01*
X130364Y-2944D01*
X130371Y-2900D01*
X130378Y-2835D01*
X130386Y-2754D01*
X130393Y-2652D01*
Y-2536D01*
Y-2339D01*
D02*
G37*
G36*
X165378Y-1092D02*
X165363D01*
X165320Y-1100D01*
X165254Y-1107D01*
X165174Y-1129D01*
X165079Y-1158D01*
X164977Y-1209D01*
X164882Y-1275D01*
X164787Y-1362D01*
X164780Y-1377D01*
X164751Y-1413D01*
X164715Y-1479D01*
X164678Y-1566D01*
X164634Y-1683D01*
X164598Y-1821D01*
X164569Y-1989D01*
X164561Y-2186D01*
Y-2193D01*
Y-2208D01*
Y-2237D01*
Y-2281D01*
X164569Y-2324D01*
Y-2383D01*
X164583Y-2507D01*
X164605Y-2638D01*
X164634Y-2776D01*
X164678Y-2908D01*
X164736Y-3024D01*
Y-3031D01*
X164751Y-3039D01*
X164780Y-3083D01*
X164838Y-3141D01*
X164919Y-3214D01*
X165013Y-3287D01*
X165130Y-3345D01*
X165261Y-3389D01*
X165334Y-3396D01*
X165414Y-3403D01*
X165429D01*
X165465Y-3396D01*
X165531Y-3389D01*
X165604Y-3367D01*
X165691Y-3338D01*
X165779Y-3287D01*
X165874Y-3221D01*
X165961Y-3133D01*
X165968Y-3119D01*
X165998Y-3083D01*
X166034Y-3017D01*
X166078Y-2922D01*
X166121Y-2805D01*
X166158Y-2660D01*
X166173Y-2572D01*
X166187Y-2477D01*
X166194Y-2383D01*
Y-2273D01*
Y-2266D01*
Y-2244D01*
Y-2215D01*
Y-2171D01*
X166187Y-2120D01*
X166180Y-2062D01*
X166165Y-1923D01*
X166136Y-1778D01*
X166100Y-1625D01*
X166041Y-1486D01*
X166005Y-1428D01*
X165961Y-1369D01*
X165954Y-1355D01*
X165917Y-1326D01*
X165874Y-1282D01*
X165801Y-1231D01*
X165720Y-1180D01*
X165618Y-1136D01*
X165509Y-1107D01*
X165378Y-1092D01*
D02*
G37*
G36*
X154902D02*
X154851D01*
X154793Y-1107D01*
X154720Y-1122D01*
X154640Y-1151D01*
X154552Y-1187D01*
X154465Y-1245D01*
X154385Y-1326D01*
X154377Y-1333D01*
X154355Y-1369D01*
X154319Y-1420D01*
X154282Y-1493D01*
X154239Y-1581D01*
X154210Y-1690D01*
X154188Y-1814D01*
X154180Y-1953D01*
X155624D01*
Y-1945D01*
Y-1931D01*
Y-1916D01*
X155616Y-1887D01*
X155609Y-1807D01*
X155595Y-1719D01*
X155566Y-1617D01*
X155529Y-1508D01*
X155471Y-1406D01*
X155405Y-1318D01*
X155398Y-1311D01*
X155369Y-1282D01*
X155325Y-1245D01*
X155267Y-1202D01*
X155194Y-1165D01*
X155106Y-1129D01*
X155011Y-1100D01*
X154902Y-1092D01*
D02*
G37*
G36*
X115157Y-1136D02*
X115121D01*
X115091Y-1143D01*
X115026Y-1151D01*
X114938Y-1173D01*
X114836Y-1209D01*
X114727Y-1260D01*
X114618Y-1333D01*
X114515Y-1428D01*
X114508Y-1442D01*
X114479Y-1479D01*
X114435Y-1552D01*
X114392Y-1639D01*
X114341Y-1756D01*
X114304Y-1901D01*
X114275Y-2069D01*
X114260Y-2259D01*
Y-2266D01*
Y-2281D01*
Y-2310D01*
X114268Y-2346D01*
Y-2397D01*
X114275Y-2448D01*
X114289Y-2565D01*
X114326Y-2703D01*
X114370Y-2842D01*
X114428Y-2980D01*
X114515Y-3097D01*
X114530Y-3112D01*
X114559Y-3141D01*
X114618Y-3185D01*
X114698Y-3236D01*
X114785Y-3294D01*
X114895Y-3338D01*
X115018Y-3367D01*
X115157Y-3381D01*
X115193D01*
X115223Y-3374D01*
X115288Y-3367D01*
X115376Y-3345D01*
X115478Y-3308D01*
X115587Y-3265D01*
X115689Y-3192D01*
X115791Y-3097D01*
X115806Y-3083D01*
X115835Y-3046D01*
X115872Y-2973D01*
X115922Y-2886D01*
X115973Y-2762D01*
X116010Y-2623D01*
X116039Y-2448D01*
X116054Y-2259D01*
Y-2251D01*
Y-2237D01*
Y-2208D01*
X116046Y-2171D01*
Y-2128D01*
X116039Y-2069D01*
X116024Y-1953D01*
X115988Y-1821D01*
X115944Y-1683D01*
X115879Y-1544D01*
X115791Y-1428D01*
X115777Y-1413D01*
X115747Y-1384D01*
X115689Y-1333D01*
X115616Y-1282D01*
X115522Y-1231D01*
X115419Y-1180D01*
X115296Y-1151D01*
X115157Y-1136D01*
D02*
G37*
G36*
X147929Y93691D02*
X147856D01*
X147798Y93677D01*
X147652Y93662D01*
X147477Y93618D01*
X147273Y93545D01*
X147054Y93429D01*
X146835Y93283D01*
X146617Y93079D01*
X146588Y93050D01*
X146529Y92962D01*
X146442Y92831D01*
X146354Y92641D01*
X146252Y92408D01*
X146165Y92116D01*
X146106Y91781D01*
X146077Y91402D01*
Y91373D01*
Y91285D01*
X146092Y91154D01*
X146106Y90994D01*
X146121Y90804D01*
X146165Y90600D01*
X146209Y90396D01*
X146267Y90177D01*
X148979Y93312D01*
X148964Y93327D01*
X148906Y93370D01*
X148804Y93429D01*
X148672Y93502D01*
X148527Y93575D01*
X148352Y93633D01*
X148148Y93677D01*
X147929Y93691D01*
D02*
G37*
G36*
X149576Y92466D02*
X146879Y89361D01*
X146894Y89346D01*
X146967Y89317D01*
X147054Y89259D01*
X147185Y89201D01*
X147331Y89142D01*
X147506Y89084D01*
X147696Y89055D01*
X147914Y89040D01*
X147987D01*
X148046Y89055D01*
X148191Y89069D01*
X148381Y89113D01*
X148585Y89186D01*
X148804Y89288D01*
X149022Y89434D01*
X149241Y89623D01*
X149270Y89652D01*
X149329Y89740D01*
X149416Y89871D01*
X149518Y90061D01*
X149606Y90294D01*
X149693Y90571D01*
X149751Y90906D01*
X149781Y91285D01*
Y91300D01*
Y91315D01*
Y91402D01*
X149766Y91519D01*
X149751Y91679D01*
X149737Y91869D01*
X149693Y92058D01*
X149649Y92262D01*
X149576Y92466D01*
D02*
G37*
G36*
X118171Y96082D02*
X116844D01*
Y89405D01*
X118638D01*
X118827Y89419D01*
X119031D01*
X119236Y89448D01*
X119425Y89463D01*
X119585Y89492D01*
X119615D01*
X119673Y89521D01*
X119760Y89550D01*
X119877Y89594D01*
X120008Y89652D01*
X120139Y89725D01*
X120271Y89813D01*
X120402Y89915D01*
X120416Y89929D01*
X120460Y89973D01*
X120519Y90046D01*
X120591Y90148D01*
X120664Y90279D01*
X120766Y90440D01*
X120839Y90644D01*
X120927Y90877D01*
Y90892D01*
X120941Y90906D01*
Y90950D01*
X120956Y91008D01*
X120985Y91067D01*
X121000Y91154D01*
X121043Y91373D01*
X121072Y91635D01*
X121116Y91941D01*
X121131Y92321D01*
X121145Y92729D01*
Y92743D01*
Y92787D01*
Y92845D01*
Y92918D01*
Y93020D01*
X121131Y93137D01*
X121116Y93385D01*
X121087Y93677D01*
X121058Y93983D01*
X121000Y94260D01*
X120927Y94522D01*
Y94537D01*
X120912Y94551D01*
X120883Y94624D01*
X120839Y94741D01*
X120781Y94887D01*
X120694Y95033D01*
X120591Y95193D01*
X120475Y95353D01*
X120343Y95499D01*
X120329Y95514D01*
X120285Y95557D01*
X120198Y95616D01*
X120096Y95689D01*
X119950Y95776D01*
X119790Y95849D01*
X119615Y95922D01*
X119410Y95980D01*
X119396D01*
X119323Y95995D01*
X119206Y96009D01*
X119046Y96039D01*
X118944D01*
X118813Y96053D01*
X118681D01*
X118536Y96068D01*
X118361D01*
X118171Y96082D01*
D02*
G37*
G36*
X172788Y93691D02*
X172759D01*
X172671Y93677D01*
X172540Y93662D01*
X172380Y93618D01*
X172205Y93560D01*
X172001Y93458D01*
X171811Y93327D01*
X171636Y93137D01*
X171621Y93108D01*
X171563Y93035D01*
X171505Y92904D01*
X171417Y92729D01*
X171344Y92496D01*
X171272Y92219D01*
X171213Y91883D01*
X171199Y91489D01*
Y91475D01*
Y91446D01*
Y91373D01*
X171213Y91300D01*
Y91212D01*
X171228Y91096D01*
X171257Y90848D01*
X171301Y90571D01*
X171388Y90294D01*
X171490Y90031D01*
X171636Y89798D01*
X171651Y89769D01*
X171723Y89711D01*
X171811Y89623D01*
X171942Y89536D01*
X172102Y89434D01*
X172292Y89346D01*
X172511Y89288D01*
X172744Y89259D01*
X172773D01*
X172861Y89273D01*
X172992Y89288D01*
X173167Y89332D01*
X173356Y89390D01*
X173546Y89492D01*
X173750Y89623D01*
X173940Y89813D01*
X173954Y89842D01*
X174012Y89915D01*
X174100Y90046D01*
X174188Y90221D01*
X174275Y90454D01*
X174362Y90731D01*
X174421Y91067D01*
X174435Y91446D01*
Y91460D01*
Y91489D01*
Y91548D01*
Y91635D01*
X174421Y91723D01*
X174406Y91839D01*
X174377Y92087D01*
X174319Y92364D01*
X174246Y92641D01*
X174129Y92904D01*
X173969Y93137D01*
X173954Y93166D01*
X173881Y93225D01*
X173779Y93312D01*
X173648Y93414D01*
X173473Y93516D01*
X173269Y93604D01*
X173050Y93662D01*
X172788Y93691D01*
D02*
G37*
%LPD*%
D10*
X2799Y41063D02*
X2012D01*
X2799D01*
X179535Y61492D02*
X178748D01*
X179535D01*
X131595Y61496D02*
X130807D01*
X131595D01*
X41984Y100657D02*
X41197D01*
X41984D01*
X18484D02*
X17697D01*
X18484D01*
X65484D02*
X64697D01*
X65484D01*
X88984D02*
X88197D01*
X88984D01*
X112484D02*
X111697D01*
X112484D01*
X135984D02*
X135197D01*
X135984D01*
X159484D02*
X158697D01*
X159484D01*
X182984Y100657D02*
X182197D01*
X182984D01*
X206484Y100657D02*
X205697D01*
X206484D01*
X229984Y100657D02*
X229196D01*
X229984D01*
X300709Y94528D02*
X300682Y95527D01*
X300604Y96523D01*
X300474Y97515D01*
X300291Y98497D01*
X300058Y99470D01*
X299774Y100428D01*
X299440Y101370D01*
X299058Y102294D01*
X298627Y103196D01*
X298150Y104075D01*
X297628Y104927D01*
X297062Y105751D01*
X296453Y106544D01*
X295804Y107304D01*
X295116Y108029D01*
X294391Y108718D01*
X293631Y109367D01*
X292838Y109975D01*
X292014Y110542D01*
X291161Y111064D01*
X290283Y111541D01*
X289381Y111971D01*
X288457Y112354D01*
X287515Y112688D01*
X286556Y112971D01*
X285584Y113205D01*
X284601Y113387D01*
X283610Y113517D01*
X282613Y113596D01*
X281614Y113622D01*
X280615Y113596D01*
X279618Y113517D01*
X278627Y113387D01*
X277644Y113205D01*
X276672Y112971D01*
X275714Y112688D01*
X274771Y112354D01*
X273848Y111971D01*
X272945Y111541D01*
X272067Y111064D01*
X271215Y110542D01*
X270391Y109975D01*
X269598Y109367D01*
X268837Y108718D01*
X268112Y108029D01*
X267424Y107304D01*
X266775Y106544D01*
X266166Y105751D01*
X265600Y104927D01*
X265078Y104075D01*
X264601Y103196D01*
X264171Y102294D01*
X263788Y101370D01*
X263454Y100428D01*
X263170Y99470D01*
X262937Y98497D01*
X262755Y97515D01*
X262624Y96523D01*
X262546Y95527D01*
X262520Y94528D01*
X262546Y93528D01*
X262624Y92532D01*
X262755Y91540D01*
X262937Y90558D01*
X263170Y89586D01*
X263454Y88627D01*
X263788Y87685D01*
X264171Y86761D01*
X264601Y85859D01*
X265078Y84980D01*
X265600Y84128D01*
X266166Y83304D01*
X266775Y82511D01*
X267424Y81751D01*
X268112Y81026D01*
X268837Y80338D01*
X269598Y79688D01*
X270391Y79080D01*
X271215Y78514D01*
X272067Y77991D01*
X272945Y77514D01*
X273848Y77084D01*
X274771Y76701D01*
X275714Y76368D01*
X276672Y76084D01*
X277644Y75850D01*
X278627Y75668D01*
X279618Y75538D01*
X280615Y75459D01*
X281614Y75433D01*
X282613Y75459D01*
X283610Y75538D01*
X284601Y75668D01*
X285584Y75850D01*
X286556Y76084D01*
X287515Y76368D01*
X288457Y76701D01*
X289381Y77084D01*
X290283Y77514D01*
X291161Y77991D01*
X292014Y78514D01*
X292838Y79080D01*
X293631Y79688D01*
X294391Y80338D01*
X295116Y81026D01*
X295804Y81751D01*
X296453Y82511D01*
X297062Y83304D01*
X297628Y84128D01*
X298150Y84980D01*
X298627Y85859D01*
X299058Y86761D01*
X299440Y87685D01*
X299774Y88627D01*
X300058Y89586D01*
X300291Y90558D01*
X300474Y91540D01*
X300604Y92532D01*
X300682Y93528D01*
X300709Y94528D01*
X129939Y128498D02*
X132991D01*
X129939Y137553D02*
X132991D01*
X112091Y128498D02*
X115143D01*
X112091D02*
Y128892D01*
Y129807D01*
X112091Y137553D02*
X115143D01*
X112091D02*
X112091Y136146D01*
Y129807D02*
Y136146D01*
X132991Y128498D02*
X132991Y137553D01*
X247439Y128498D02*
X250491D01*
X247439Y137553D02*
X250491D01*
X229591Y128498D02*
X232643D01*
X229591D02*
Y128892D01*
Y129807D01*
X229591Y137553D02*
X232643D01*
X229591D02*
X229591Y136146D01*
Y129807D02*
Y136146D01*
X250491Y128498D02*
X250491Y137553D01*
X223939Y128498D02*
X226991D01*
X223939Y137553D02*
X226991D01*
X206091Y128498D02*
X209143D01*
X206091D02*
Y128892D01*
Y129807D01*
X206091Y137553D02*
X209143D01*
X206091D02*
X206091Y136146D01*
Y129807D02*
Y136146D01*
X226991Y128498D02*
X226991Y137553D01*
X200439Y128498D02*
X203491D01*
X200439Y137553D02*
X203491D01*
X182591Y128498D02*
X185643D01*
X182591D02*
Y128892D01*
Y129807D01*
X182591Y137553D02*
X185643D01*
X182591D02*
X182591Y136146D01*
Y129807D02*
Y136146D01*
X203491Y128498D02*
X203491Y137553D01*
X176939Y128498D02*
X179991D01*
X176939Y137553D02*
X179991D01*
X159091Y128498D02*
X162143D01*
X159091D02*
Y128892D01*
Y129807D01*
X159091Y137553D02*
X162143D01*
X159091D02*
X159091Y136146D01*
Y129807D02*
Y136146D01*
X179991Y128498D02*
X179991Y137553D01*
X153439Y128498D02*
X156491D01*
X153439Y137553D02*
X156491D01*
X135591Y128498D02*
X138643D01*
X135591D02*
Y128892D01*
Y129807D01*
Y137553D02*
X138643D01*
X135591Y136146D02*
Y137553D01*
Y129807D02*
Y136146D01*
X156491Y128498D02*
Y137553D01*
X106439Y128498D02*
X109491D01*
X106439Y137553D02*
X109491D01*
X88591Y128498D02*
X91643D01*
X88591D02*
Y128892D01*
Y129807D01*
X88591Y137553D02*
X91643D01*
X88591D02*
X88591Y136146D01*
Y129807D02*
Y136146D01*
X109491Y128498D02*
X109491Y137553D01*
X82939Y128498D02*
X85991D01*
X82939Y137553D02*
X85991D01*
X65091Y128498D02*
X68143D01*
X65091D02*
Y128892D01*
Y129807D01*
X65091Y137553D02*
X68143D01*
X65091D02*
X65091Y136146D01*
Y129807D02*
Y136146D01*
X85991Y128498D02*
X85991Y137553D01*
X59439Y128498D02*
X62491D01*
X59439Y137553D02*
X62491D01*
X41591Y128498D02*
X44643D01*
X41591D02*
Y128892D01*
Y129807D01*
X41591Y137553D02*
X44643D01*
X41591D02*
X41591Y136146D01*
Y129807D02*
Y136146D01*
X62491Y128498D02*
X62491Y137553D01*
X35920Y128518D02*
X38972D01*
X35920Y137573D02*
X38972D01*
X18072Y128518D02*
X21124D01*
X18072D02*
Y128911D01*
Y129827D01*
X18072Y137573D02*
X21124D01*
X18072D02*
X18072Y136165D01*
Y129827D02*
Y136165D01*
X38972Y128518D02*
X38972Y137573D01*
D11*
X99380Y74807D02*
X98367Y74727D01*
X97373Y74517D01*
X96415Y74179D01*
X95509Y73721D01*
X94670Y73148D01*
X93912Y72472D01*
X93248Y71703D01*
X92689Y70855D01*
X92245Y69942D01*
X91923Y68978D01*
X91728Y67981D01*
X91664Y66967D01*
X91732Y65954D01*
X91931Y64958D01*
X92258Y63996D01*
X92706Y63084D01*
X93268Y62238D01*
X93936Y61472D01*
X94696Y60799D01*
X95538Y60231D01*
X96446Y59776D01*
X97406Y59443D01*
X98401Y59236D01*
X99414Y59161D01*
X245492Y48390D02*
X246468Y48486D01*
X247406Y48770D01*
X248270Y49232D01*
X249028Y49854D01*
X249650Y50612D01*
X250112Y51476D01*
X250396Y52414D01*
X250492Y53390D01*
X250396Y54365D01*
X250112Y55303D01*
X249650Y56168D01*
X249028Y56925D01*
X248270Y57547D01*
X247406Y58009D01*
X246468Y58294D01*
X245492Y58390D01*
X99488Y53866D02*
Y80071D01*
X244980Y44490D02*
Y62340D01*
Y44490D02*
X284042D01*
Y62340D01*
X244980D02*
X284042D01*
X111084Y41803D02*
X120785D01*
X111084D02*
Y44524D01*
X106757D02*
X111084D01*
X102430D02*
X106757D01*
X102430Y41803D02*
Y44524D01*
X92730Y41803D02*
X102430D01*
D12*
X158749Y73587D02*
X158986Y73685D01*
X206650Y73543D02*
X206888Y73642D01*
X206611Y61181D02*
X206848Y61279D01*
X158670Y61185D02*
X158907Y61283D01*
X158986Y73685D02*
Y82967D01*
X129311Y73587D02*
X158749D01*
X129311D02*
X129311Y82967D01*
X158986D01*
X177213Y82923D02*
X206888D01*
X177213Y73543D02*
X177213Y82923D01*
X177213Y73543D02*
X206650D01*
X206888Y73642D02*
Y82923D01*
X206848Y70561D02*
X206848Y61279D01*
X177173Y61181D02*
X206611D01*
X177173D02*
X177173Y70561D01*
X206848D01*
X129232Y70565D02*
X158907D01*
X129232D02*
X129232Y61185D01*
X158670D01*
X158907Y61283D02*
X158907Y70565D01*
X63938Y42728D02*
X63085Y43581D01*
X61379D01*
X60527Y42728D01*
Y39317D01*
X61379Y38465D01*
X63085D01*
X63938Y39317D01*
X69054Y38465D02*
X65643D01*
X69054Y41875D01*
Y42728D01*
X68201Y43581D01*
X66496D01*
X65643Y42728D01*
X74171Y43581D02*
X70760D01*
Y41023D01*
X72465Y41875D01*
X73318D01*
X74171Y41023D01*
Y39317D01*
X73318Y38465D01*
X71612D01*
X70760Y39317D01*
X74211Y94824D02*
X73358Y95676D01*
X71653D01*
X70800Y94824D01*
Y91413D01*
X71653Y90560D01*
X73358D01*
X74211Y91413D01*
X79327Y90560D02*
X75916D01*
X79327Y93971D01*
Y94824D01*
X78475Y95676D01*
X76769D01*
X75916Y94824D01*
X83591Y90560D02*
Y95676D01*
X81033Y93118D01*
X84444D01*
X260227Y55981D02*
Y51717D01*
X261080Y50865D01*
X262785D01*
X263638Y51717D01*
Y55981D01*
X268754D02*
X265343D01*
Y53423D01*
X267049Y54276D01*
X267901D01*
X268754Y53423D01*
Y51717D01*
X267901Y50865D01*
X266196D01*
X265343Y51717D01*
X18426Y4899D02*
Y10015D01*
X20984D01*
X21837Y9162D01*
Y7457D01*
X20984Y6604D01*
X18426D01*
X23542Y10015D02*
Y4899D01*
X25248Y6604D01*
X26954Y4899D01*
Y10015D01*
X28659Y4899D02*
Y10015D01*
X31217D01*
X32070Y9162D01*
Y7457D01*
X31217Y6604D01*
X28659D01*
X30365D02*
X32070Y4899D01*
X209776Y36695D02*
X214893D01*
Y39253D01*
X214040Y40106D01*
X213187D01*
X212335Y39253D01*
Y36695D01*
Y39253D01*
X211482Y40106D01*
X210629D01*
X209776Y39253D01*
Y36695D01*
Y41811D02*
Y45222D01*
Y43517D01*
X214893D01*
Y46927D02*
X209776D01*
X214893Y50339D01*
X209776D01*
X214893Y55455D02*
Y52044D01*
X211482Y55455D01*
X210629D01*
X209776Y54602D01*
Y52897D01*
X210629Y52044D01*
X161969Y37449D02*
X167086D01*
Y40007D01*
X166233Y40860D01*
X165380D01*
X164527Y40007D01*
Y37449D01*
Y40007D01*
X163675Y40860D01*
X162822D01*
X161969Y40007D01*
Y37449D01*
Y42565D02*
Y45976D01*
Y44271D01*
X167086D01*
Y47682D02*
X161969D01*
X167086Y51093D01*
X161969D01*
X167086Y52798D02*
Y54504D01*
Y53651D01*
X161969D01*
X162822Y52798D01*
X187727Y75665D02*
Y80781D01*
X190285D01*
X191138Y79928D01*
Y78223D01*
X190285Y77370D01*
X187727D01*
X189432D02*
X191138Y75665D01*
X195401D02*
Y80781D01*
X192843Y78223D01*
X196254D01*
X139827Y75765D02*
Y80881D01*
X142385D01*
X143238Y80028D01*
Y78323D01*
X142385Y77470D01*
X139827D01*
X141532D02*
X143238Y75765D01*
X144943Y80028D02*
X145796Y80881D01*
X147501D01*
X148354Y80028D01*
Y79176D01*
X147501Y78323D01*
X146649D01*
X147501D01*
X148354Y77470D01*
Y76617D01*
X147501Y75765D01*
X145796D01*
X144943Y76617D01*
X187627Y63265D02*
Y68381D01*
X190185D01*
X191038Y67528D01*
Y65823D01*
X190185Y64970D01*
X187627D01*
X189332D02*
X191038Y63265D01*
X196154D02*
X192743D01*
X196154Y66676D01*
Y67528D01*
X195301Y68381D01*
X193596D01*
X192743Y67528D01*
X140627Y63365D02*
Y68481D01*
X143185D01*
X144038Y67628D01*
Y65923D01*
X143185Y65070D01*
X140627D01*
X142332D02*
X144038Y63365D01*
X145743D02*
X147449D01*
X146596D01*
Y68481D01*
X145743Y67628D01*
D13*
X288862Y115957D02*
X288075D01*
X288862D01*
D14*
X3390Y20669D02*
Y29929D01*
X6634Y13488D02*
X23768D01*
X27012Y20669D02*
Y29929D01*
X6634Y37110D02*
X23768D01*
X183370Y57539D02*
X200504D01*
X203748Y41098D02*
Y50358D01*
X183370Y33917D02*
X200504D01*
X180126Y41098D02*
Y50358D01*
X135429Y57543D02*
X152563D01*
X155807Y41102D02*
Y50362D01*
X135429Y33921D02*
X152563D01*
X132185Y41102D02*
Y50362D01*
D15*
X38784Y15683D02*
X40846D01*
Y14652D01*
X40502Y14308D01*
X39815D01*
X39471Y14652D01*
Y15683D01*
Y14995D02*
X38784Y14308D01*
Y12246D02*
Y13621D01*
X40159Y12246D01*
X40502D01*
X40846Y12589D01*
Y13277D01*
X40502Y13621D01*
X40846Y10183D02*
X40502Y10871D01*
X39815Y11558D01*
X39127D01*
X38784Y11214D01*
Y10527D01*
X39127Y10183D01*
X39471D01*
X39815Y10527D01*
Y11558D01*
X33527Y39565D02*
Y41627D01*
X34558D01*
X34902Y41283D01*
Y40596D01*
X34558Y40252D01*
X33527D01*
X34214D02*
X34902Y39565D01*
X36964D02*
X35589D01*
X36964Y40939D01*
Y41283D01*
X36620Y41627D01*
X35933D01*
X35589Y41283D01*
X37651D02*
X37995Y41627D01*
X38683D01*
X39026Y41283D01*
Y39908D01*
X38683Y39565D01*
X37995D01*
X37651Y39908D01*
Y41283D01*
X39302Y36315D02*
X38958Y36658D01*
X38271D01*
X37927Y36315D01*
Y34940D01*
X38271Y34596D01*
X38958D01*
X39302Y34940D01*
X41364Y34596D02*
X39989D01*
X41364Y35971D01*
Y36315D01*
X41020Y36658D01*
X40333D01*
X39989Y36315D01*
X42051Y36658D02*
X43426D01*
Y36315D01*
X42051Y34940D01*
Y34596D01*
X38339Y95611D02*
Y97673D01*
X39371D01*
X39714Y97329D01*
Y96642D01*
X39371Y96298D01*
X38339D01*
X39027D02*
X39714Y95611D01*
X40402D02*
X41089D01*
X40745D01*
Y97673D01*
X40402Y97329D01*
X42120Y95954D02*
X42464Y95611D01*
X43152D01*
X43495Y95954D01*
Y97329D01*
X43152Y97673D01*
X42464D01*
X42120Y97329D01*
Y96986D01*
X42464Y96642D01*
X43495D01*
X26723Y91161D02*
Y89099D01*
X28098D01*
X30160Y91161D02*
X28785D01*
Y89099D01*
X30160D01*
X28785Y90130D02*
X29473D01*
X30848Y91161D02*
Y89099D01*
X31879D01*
X32223Y89442D01*
Y90817D01*
X31879Y91161D01*
X30848D01*
X32910Y90817D02*
X33254Y91161D01*
X33941D01*
X34285Y90817D01*
Y90474D01*
X33941Y90130D01*
X33597D01*
X33941D01*
X34285Y89786D01*
Y89442D01*
X33941Y89099D01*
X33254D01*
X32910Y89442D01*
X249502Y90383D02*
X249158Y90727D01*
X248470D01*
X248127Y90383D01*
Y89008D01*
X248470Y88665D01*
X249158D01*
X249502Y89008D01*
X251564Y88665D02*
X250189D01*
X251564Y90039D01*
Y90383D01*
X251220Y90727D01*
X250533D01*
X250189Y90383D01*
X253626Y90727D02*
X252939Y90383D01*
X252251Y89696D01*
Y89008D01*
X252595Y88665D01*
X253283D01*
X253626Y89008D01*
Y89352D01*
X253283Y89696D01*
X252251D01*
D16*
X114047Y45351D02*
Y50468D01*
X116605D01*
X117458Y49615D01*
Y47909D01*
X116605Y47057D01*
X114047D01*
X122575Y45351D02*
X119164D01*
X122575Y48762D01*
Y49615D01*
X121722Y50468D01*
X120017D01*
X119164Y49615D01*
D17*
X60427Y67932D02*
Y66293D01*
X60755Y65965D01*
X61411D01*
X61739Y66293D01*
Y67932D01*
X63706D02*
X63051Y67605D01*
X62395Y66948D01*
Y66293D01*
X62723Y65965D01*
X63379D01*
X63706Y66293D01*
Y66620D01*
X63379Y66948D01*
X62395D01*
X14010Y91142D02*
Y93110D01*
X14994D01*
X15322Y92782D01*
Y92126D01*
X14994Y91798D01*
X14010D01*
X14666D02*
X15322Y91142D01*
X15978D02*
X16634D01*
X16306D01*
Y93110D01*
X15978Y92782D01*
X17618Y91142D02*
X18274D01*
X17946D01*
Y93110D01*
X17618Y92782D01*
X-14271Y96260D02*
Y98228D01*
X-13287D01*
X-12959Y97900D01*
Y97244D01*
X-13287Y96916D01*
X-14271D01*
X-13615D02*
X-12959Y96260D01*
X-12303D02*
X-11647D01*
X-11975D01*
Y98228D01*
X-12303Y97900D01*
X-10663D02*
X-10335Y98228D01*
X-9679D01*
X-9351Y97900D01*
Y96588D01*
X-9679Y96260D01*
X-10335D01*
X-10663Y96588D01*
Y97900D01*
X237327Y114224D02*
Y112256D01*
X238311D01*
X238639Y112584D01*
Y113896D01*
X238311Y114224D01*
X237327D01*
X239295Y112256D02*
X239951D01*
X239623D01*
Y114224D01*
X239295Y113896D01*
X240934D02*
X241263Y114224D01*
X241918D01*
X242246Y113896D01*
Y112584D01*
X241918Y112256D01*
X241263D01*
X240934Y112584D01*
Y113896D01*
X214727Y114224D02*
Y112256D01*
X215711D01*
X216039Y112584D01*
Y113896D01*
X215711Y114224D01*
X214727D01*
X216695Y112584D02*
X217023Y112256D01*
X217678D01*
X218006Y112584D01*
Y113896D01*
X217678Y114224D01*
X217023D01*
X216695Y113896D01*
Y113568D01*
X217023Y113240D01*
X218006D01*
X191227Y114224D02*
Y112256D01*
X192211D01*
X192539Y112584D01*
Y113896D01*
X192211Y114224D01*
X191227D01*
X193195Y113896D02*
X193523Y114224D01*
X194178D01*
X194507Y113896D01*
Y113568D01*
X194178Y113240D01*
X194507Y112912D01*
Y112584D01*
X194178Y112256D01*
X193523D01*
X193195Y112584D01*
Y112912D01*
X193523Y113240D01*
X193195Y113568D01*
Y113896D01*
X193523Y113240D02*
X194178D01*
X167727Y114224D02*
Y112256D01*
X168711D01*
X169039Y112584D01*
Y113896D01*
X168711Y114224D01*
X167727D01*
X169695D02*
X171007D01*
Y113896D01*
X169695Y112584D01*
Y112256D01*
X144227Y114224D02*
Y112256D01*
X145211D01*
X145539Y112584D01*
Y113896D01*
X145211Y114224D01*
X144227D01*
X147506D02*
X146851Y113896D01*
X146195Y113240D01*
Y112584D01*
X146523Y112256D01*
X147178D01*
X147506Y112584D01*
Y112912D01*
X147178Y113240D01*
X146195D01*
X120727Y114224D02*
Y112256D01*
X121711D01*
X122039Y112584D01*
Y113896D01*
X121711Y114224D01*
X120727D01*
X124006D02*
X122695D01*
Y113240D01*
X123351Y113568D01*
X123679D01*
X124006Y113240D01*
Y112584D01*
X123679Y112256D01*
X123023D01*
X122695Y112584D01*
X97227Y114224D02*
Y112256D01*
X98211D01*
X98539Y112584D01*
Y113896D01*
X98211Y114224D01*
X97227D01*
X100179Y112256D02*
Y114224D01*
X99195Y113240D01*
X100506D01*
X73727Y114224D02*
Y112256D01*
X74711D01*
X75039Y112584D01*
Y113896D01*
X74711Y114224D01*
X73727D01*
X75695Y113896D02*
X76023Y114224D01*
X76679D01*
X77007Y113896D01*
Y113568D01*
X76679Y113240D01*
X76351D01*
X76679D01*
X77007Y112912D01*
Y112584D01*
X76679Y112256D01*
X76023D01*
X75695Y112584D01*
X38911Y126181D02*
Y124213D01*
X39895D01*
X40223Y124541D01*
Y125853D01*
X39895Y126181D01*
X38911D01*
X42191Y124213D02*
X40879D01*
X42191Y125525D01*
Y125853D01*
X41863Y126181D01*
X41207D01*
X40879Y125853D01*
X13649Y126181D02*
Y124213D01*
X14633D01*
X14961Y124541D01*
Y125853D01*
X14633Y126181D01*
X13649D01*
X15617Y124213D02*
X16273D01*
X15945D01*
Y126181D01*
X15617Y125853D01*
X238939Y133696D02*
X238611Y134024D01*
X237955D01*
X237627Y133696D01*
Y132384D01*
X237955Y132056D01*
X238611D01*
X238939Y132384D01*
X239595Y132056D02*
X240251D01*
X239923D01*
Y134024D01*
X239595Y133696D01*
X242546Y132056D02*
X241234D01*
X242546Y133368D01*
Y133696D01*
X242218Y134024D01*
X241563D01*
X241234Y133696D01*
X215739D02*
X215411Y134024D01*
X214755D01*
X214427Y133696D01*
Y132384D01*
X214755Y132056D01*
X215411D01*
X215739Y132384D01*
X216395Y132056D02*
X217051D01*
X216723D01*
Y134024D01*
X216395Y133696D01*
X218035Y132056D02*
X218690D01*
X218362D01*
Y134024D01*
X218035Y133696D01*
X191939D02*
X191611Y134024D01*
X190955D01*
X190627Y133696D01*
Y132384D01*
X190955Y132056D01*
X191611D01*
X191939Y132384D01*
X192595Y132056D02*
X193251D01*
X192923D01*
Y134024D01*
X192595Y133696D01*
X194235D02*
X194562Y134024D01*
X195218D01*
X195546Y133696D01*
Y132384D01*
X195218Y132056D01*
X194562D01*
X194235Y132384D01*
Y133696D01*
X169239D02*
X168911Y134024D01*
X168255D01*
X167927Y133696D01*
Y132384D01*
X168255Y132056D01*
X168911D01*
X169239Y132384D01*
X169895D02*
X170223Y132056D01*
X170879D01*
X171206Y132384D01*
Y133696D01*
X170879Y134024D01*
X170223D01*
X169895Y133696D01*
Y133368D01*
X170223Y133040D01*
X171206D01*
X145739Y133696D02*
X145411Y134024D01*
X144755D01*
X144427Y133696D01*
Y132384D01*
X144755Y132056D01*
X145411D01*
X145739Y132384D01*
X146395Y133696D02*
X146723Y134024D01*
X147379D01*
X147706Y133696D01*
Y133368D01*
X147379Y133040D01*
X147706Y132712D01*
Y132384D01*
X147379Y132056D01*
X146723D01*
X146395Y132384D01*
Y132712D01*
X146723Y133040D01*
X146395Y133368D01*
Y133696D01*
X146723Y133040D02*
X147379D01*
X122239Y133696D02*
X121911Y134024D01*
X121255D01*
X120927Y133696D01*
Y132384D01*
X121255Y132056D01*
X121911D01*
X122239Y132384D01*
X122895Y134024D02*
X124206D01*
Y133696D01*
X122895Y132384D01*
Y132056D01*
X98739Y133696D02*
X98411Y134024D01*
X97755D01*
X97427Y133696D01*
Y132384D01*
X97755Y132056D01*
X98411D01*
X98739Y132384D01*
X100707Y134024D02*
X100051Y133696D01*
X99395Y133040D01*
Y132384D01*
X99723Y132056D01*
X100379D01*
X100707Y132384D01*
Y132712D01*
X100379Y133040D01*
X99395D01*
X75239Y133696D02*
X74911Y134024D01*
X74255D01*
X73927Y133696D01*
Y132384D01*
X74255Y132056D01*
X74911D01*
X75239Y132384D01*
X77206Y134024D02*
X75895D01*
Y133040D01*
X76551Y133368D01*
X76878D01*
X77206Y133040D01*
Y132384D01*
X76878Y132056D01*
X76223D01*
X75895Y132384D01*
X51739Y133696D02*
X51411Y134024D01*
X50755D01*
X50427Y133696D01*
Y132384D01*
X50755Y132056D01*
X51411D01*
X51739Y132384D01*
X53378Y132056D02*
Y134024D01*
X52395Y133040D01*
X53707D01*
X28239Y133696D02*
X27911Y134024D01*
X27255D01*
X26927Y133696D01*
Y132384D01*
X27255Y132056D01*
X27911D01*
X28239Y132384D01*
X28895Y133696D02*
X29223Y134024D01*
X29879D01*
X30207Y133696D01*
Y133368D01*
X29879Y133040D01*
X29551D01*
X29879D01*
X30207Y132712D01*
Y132384D01*
X29879Y132056D01*
X29223D01*
X28895Y132384D01*
M02*
