G04*
G04 #@! TF.GenerationSoftware,Altium Limited,Altium Designer,24.3.1 (35)*
G04*
G04 Layer_Color=65535*
%FSLAX25Y25*%
%MOIN*%
G70*
G04*
G04 #@! TF.SameCoordinates,B31CD4F0-C50D-4F02-9F32-B226106F2F3E*
G04*
G04*
G04 #@! TF.FilePolarity,Positive*
G04*
G01*
G75*
%ADD10C,0.00787*%
%ADD11C,0.01575*%
%ADD12C,0.00984*%
%ADD13C,0.01181*%
%ADD14C,0.00500*%
%ADD15C,0.00606*%
%ADD16C,0.01000*%
%ADD17C,0.00591*%
G36*
X262295Y30715D02*
X262314Y30657D01*
X262508Y30580D01*
X262779Y30541D01*
X263089Y30463D01*
X263166Y30386D01*
X263321Y30347D01*
X263534Y30289D01*
X263825Y30115D01*
X264368Y29805D01*
X264639Y29611D01*
X264716Y29572D01*
X264794Y29495D01*
X264871Y29456D01*
X264949Y29379D01*
X265026Y29340D01*
X265104Y29262D01*
X265181Y29223D01*
X265375Y29030D01*
X265433Y29010D01*
X265472Y28933D01*
X265704Y28700D01*
X265743Y28623D01*
X265859Y28507D01*
X265898Y28429D01*
X266014Y28313D01*
X266053Y28236D01*
X266130Y28158D01*
X266169Y28080D01*
X266324Y27848D01*
X266363Y27771D01*
X266518Y27538D01*
X266673Y27267D01*
X266750Y27073D01*
X266905Y26724D01*
X266944Y26569D01*
X266983Y26337D01*
X267080Y26201D01*
X267138Y26182D01*
X267119Y-2045D01*
X267041Y-2084D01*
X266944Y-2336D01*
X266886Y-2626D01*
X266828Y-2685D01*
X266750Y-2878D01*
X266692Y-3091D01*
X266634Y-3149D01*
X266595Y-3227D01*
X266440Y-3498D01*
X266363Y-3576D01*
X266208Y-3847D01*
X265840Y-4331D01*
X265743Y-4428D01*
X265704Y-4506D01*
X265142Y-5067D01*
X265065Y-5106D01*
X264910Y-5261D01*
X264832Y-5300D01*
X264716Y-5416D01*
X264639Y-5455D01*
X264368Y-5649D01*
X264174Y-5765D01*
X263902Y-5920D01*
X263709Y-6036D01*
X263554Y-6075D01*
X263205Y-6230D01*
X263050Y-6269D01*
X262837Y-6327D01*
X262721Y-6404D01*
X262701Y-6462D01*
X244723D01*
X234474Y-6443D01*
X234436Y-6365D01*
X234184Y-6269D01*
X233912Y-6230D01*
X233564Y-6075D01*
X233021Y-5765D01*
X232789Y-5610D01*
X232711Y-5571D01*
X232091Y-5106D01*
X232014Y-5029D01*
X231936Y-4990D01*
X231704Y-4757D01*
X231646Y-4738D01*
X231607Y-4661D01*
X231413Y-4467D01*
X231375Y-4389D01*
X231200Y-4176D01*
X231142Y-4118D01*
X231103Y-4041D01*
X230910Y-3769D01*
X230871Y-3692D01*
X230716Y-3459D01*
X230445Y-2956D01*
X230328Y-2685D01*
X230270Y-2471D01*
X230173Y-2258D01*
X230135Y-1987D01*
X230096Y-1832D01*
X229980Y-1638D01*
X229941Y-1522D01*
X229980Y25794D01*
X230096Y25911D01*
X230154Y26318D01*
X230193Y26472D01*
X230251Y26608D01*
X230328Y26802D01*
X230386Y27015D01*
X230522Y27267D01*
X230832Y27809D01*
X230987Y28042D01*
X231026Y28119D01*
X231142Y28236D01*
X231181Y28313D01*
X231355Y28526D01*
X231413Y28584D01*
X231452Y28662D01*
X232053Y29262D01*
X232130Y29301D01*
X232285Y29456D01*
X232363Y29495D01*
X232440Y29572D01*
X232518Y29611D01*
X232789Y29805D01*
X232866Y29844D01*
X233138Y29998D01*
X233331Y30115D01*
X233835Y30347D01*
X234048Y30405D01*
X234261Y30502D01*
X234532Y30541D01*
X234687Y30580D01*
X234804Y30618D01*
X234920Y30735D01*
X262295Y30715D01*
D02*
G37*
G36*
X-9020Y11582D02*
X-7039D01*
Y10228D01*
X-9020D01*
Y8268D01*
X-10342D01*
Y10228D01*
X-12318D01*
Y11582D01*
X-10342D01*
Y13542D01*
X-9020D01*
Y11582D01*
D02*
G37*
G36*
X185508Y12081D02*
X184061D01*
Y13419D01*
X185508D01*
Y12081D01*
D02*
G37*
G36*
X86365Y12081D02*
X84918D01*
Y13418D01*
X86365D01*
Y12081D01*
D02*
G37*
G36*
X192011Y5862D02*
X190668D01*
Y6664D01*
X190662Y6659D01*
X190651Y6643D01*
X190635Y6621D01*
X190608Y6588D01*
X190575Y6550D01*
X190537Y6506D01*
X190493Y6457D01*
X190444Y6402D01*
X190324Y6288D01*
X190187Y6173D01*
X190034Y6064D01*
X189958Y6009D01*
X189871Y5966D01*
X189865D01*
X189849Y5955D01*
X189827Y5944D01*
X189794Y5927D01*
X189751Y5911D01*
X189701Y5895D01*
X189647Y5873D01*
X189587Y5851D01*
X189450Y5807D01*
X189292Y5774D01*
X189128Y5747D01*
X188953Y5736D01*
X188910D01*
X188861Y5742D01*
X188795Y5747D01*
X188713Y5758D01*
X188620Y5774D01*
X188511Y5802D01*
X188397Y5829D01*
X188276Y5873D01*
X188145Y5922D01*
X188009Y5982D01*
X187872Y6058D01*
X187736Y6146D01*
X187599Y6244D01*
X187468Y6364D01*
X187337Y6495D01*
X187332Y6506D01*
X187310Y6528D01*
X187277Y6577D01*
X187233Y6637D01*
X187184Y6714D01*
X187124Y6806D01*
X187064Y6916D01*
X187004Y7047D01*
X186939Y7189D01*
X186879Y7347D01*
X186824Y7522D01*
X186769Y7707D01*
X186726Y7915D01*
X186693Y8133D01*
X186671Y8368D01*
X186666Y8614D01*
Y8619D01*
Y8630D01*
Y8646D01*
Y8674D01*
Y8706D01*
X186671Y8745D01*
Y8794D01*
X186677Y8843D01*
X186688Y8958D01*
X186698Y9094D01*
X186720Y9242D01*
X186748Y9400D01*
X186780Y9569D01*
X186824Y9744D01*
X186879Y9919D01*
X186939Y10093D01*
X187015Y10268D01*
X187102Y10432D01*
X187201Y10590D01*
X187315Y10732D01*
X187321Y10743D01*
X187348Y10765D01*
X187381Y10798D01*
X187435Y10847D01*
X187496Y10901D01*
X187577Y10961D01*
X187665Y11027D01*
X187769Y11098D01*
X187883Y11163D01*
X188009Y11229D01*
X188145Y11289D01*
X188293Y11344D01*
X188451Y11393D01*
X188615Y11426D01*
X188790Y11453D01*
X188975Y11458D01*
X189013D01*
X189063Y11453D01*
X189128Y11447D01*
X189210Y11436D01*
X189303Y11420D01*
X189407Y11393D01*
X189516Y11366D01*
X189641Y11322D01*
X189767Y11273D01*
X189898Y11213D01*
X190034Y11136D01*
X190171Y11049D01*
X190302Y10945D01*
X190433Y10830D01*
X190564Y10694D01*
Y13419D01*
X192011D01*
Y5862D01*
D02*
G37*
G36*
X166791D02*
X165448D01*
Y6664D01*
X165443Y6659D01*
X165432Y6643D01*
X165415Y6621D01*
X165388Y6588D01*
X165355Y6550D01*
X165317Y6506D01*
X165273Y6457D01*
X165224Y6402D01*
X165104Y6288D01*
X164968Y6173D01*
X164815Y6064D01*
X164738Y6009D01*
X164651Y5966D01*
X164646D01*
X164629Y5955D01*
X164607Y5944D01*
X164575Y5927D01*
X164531Y5911D01*
X164482Y5895D01*
X164427Y5873D01*
X164367Y5851D01*
X164231Y5807D01*
X164072Y5774D01*
X163908Y5747D01*
X163734Y5736D01*
X163690D01*
X163641Y5742D01*
X163575Y5747D01*
X163493Y5758D01*
X163401Y5774D01*
X163291Y5802D01*
X163177Y5829D01*
X163057Y5873D01*
X162926Y5922D01*
X162789Y5982D01*
X162653Y6058D01*
X162516Y6146D01*
X162380Y6244D01*
X162249Y6364D01*
X162118Y6495D01*
X162112Y6506D01*
X162090Y6528D01*
X162057Y6577D01*
X162014Y6637D01*
X161965Y6714D01*
X161905Y6806D01*
X161845Y6916D01*
X161784Y7047D01*
X161719Y7189D01*
X161659Y7347D01*
X161604Y7522D01*
X161550Y7707D01*
X161506Y7915D01*
X161473Y8133D01*
X161451Y8368D01*
X161446Y8614D01*
Y8619D01*
Y8630D01*
Y8646D01*
Y8674D01*
Y8706D01*
X161451Y8745D01*
Y8794D01*
X161457Y8843D01*
X161468Y8958D01*
X161479Y9094D01*
X161501Y9242D01*
X161528Y9400D01*
X161561Y9569D01*
X161604Y9744D01*
X161659Y9919D01*
X161719Y10093D01*
X161795Y10268D01*
X161883Y10432D01*
X161981Y10590D01*
X162096Y10732D01*
X162101Y10743D01*
X162128Y10765D01*
X162161Y10798D01*
X162216Y10847D01*
X162276Y10901D01*
X162358Y10961D01*
X162445Y11027D01*
X162549Y11098D01*
X162663Y11163D01*
X162789Y11229D01*
X162926Y11289D01*
X163073Y11344D01*
X163231Y11393D01*
X163395Y11426D01*
X163570Y11453D01*
X163756Y11458D01*
X163794D01*
X163843Y11453D01*
X163908Y11447D01*
X163990Y11436D01*
X164083Y11420D01*
X164187Y11393D01*
X164296Y11366D01*
X164422Y11322D01*
X164547Y11273D01*
X164678Y11213D01*
X164815Y11136D01*
X164951Y11049D01*
X165082Y10945D01*
X165213Y10830D01*
X165344Y10694D01*
Y13419D01*
X166791D01*
Y5862D01*
D02*
G37*
G36*
X152764Y11453D02*
X152814D01*
X152874Y11447D01*
X152945Y11436D01*
X153016Y11426D01*
X153174Y11398D01*
X153349Y11355D01*
X153518Y11294D01*
X153600Y11256D01*
X153682Y11213D01*
X153687D01*
X153698Y11202D01*
X153720Y11185D01*
X153753Y11169D01*
X153786Y11142D01*
X153824Y11109D01*
X153867Y11071D01*
X153917Y11032D01*
X153966Y10983D01*
X154015Y10929D01*
X154069Y10869D01*
X154119Y10803D01*
X154168Y10738D01*
X154217Y10661D01*
X154304Y10492D01*
Y10486D01*
X154310Y10475D01*
X154321Y10454D01*
X154326Y10426D01*
X154342Y10388D01*
X154353Y10339D01*
X154364Y10284D01*
X154381Y10219D01*
X154397Y10142D01*
X154408Y10061D01*
X154424Y9968D01*
X154435Y9864D01*
X154441Y9755D01*
X154452Y9629D01*
X154457Y9498D01*
Y9356D01*
Y5862D01*
X153010D01*
Y8985D01*
Y8996D01*
Y9023D01*
Y9061D01*
Y9116D01*
X153005Y9182D01*
Y9252D01*
X152999Y9334D01*
X152994Y9422D01*
X152972Y9602D01*
X152945Y9771D01*
X152928Y9853D01*
X152907Y9924D01*
X152885Y9990D01*
X152857Y10039D01*
Y10044D01*
X152846Y10050D01*
X152836Y10066D01*
X152819Y10088D01*
X152770Y10137D01*
X152704Y10197D01*
X152617Y10252D01*
X152513Y10301D01*
X152453Y10323D01*
X152388Y10339D01*
X152317Y10345D01*
X152240Y10350D01*
X152191D01*
X152131Y10339D01*
X152055Y10328D01*
X151967Y10306D01*
X151869Y10273D01*
X151771Y10224D01*
X151667Y10164D01*
X151662D01*
X151656Y10153D01*
X151623Y10131D01*
X151574Y10088D01*
X151520Y10028D01*
X151454Y9951D01*
X151389Y9859D01*
X151329Y9744D01*
X151279Y9618D01*
Y9613D01*
X151274Y9602D01*
X151268Y9580D01*
X151263Y9553D01*
X151252Y9509D01*
X151241Y9465D01*
X151230Y9405D01*
X151225Y9340D01*
X151214Y9269D01*
X151203Y9182D01*
X151192Y9094D01*
X151181Y8990D01*
X151176Y8876D01*
X151170Y8756D01*
X151165Y8630D01*
Y8488D01*
Y5862D01*
X149718D01*
Y8859D01*
Y8870D01*
Y8892D01*
Y8936D01*
Y8990D01*
Y9050D01*
X149712Y9121D01*
Y9203D01*
X149707Y9285D01*
X149696Y9460D01*
X149685Y9629D01*
X149674Y9706D01*
X149663Y9777D01*
X149652Y9837D01*
X149636Y9886D01*
Y9891D01*
X149630Y9897D01*
X149619Y9924D01*
X149603Y9968D01*
X149576Y10017D01*
X149543Y10077D01*
X149505Y10131D01*
X149456Y10186D01*
X149396Y10235D01*
X149390Y10241D01*
X149368Y10252D01*
X149330Y10273D01*
X149281Y10295D01*
X149221Y10312D01*
X149144Y10334D01*
X149057Y10345D01*
X148959Y10350D01*
X148904D01*
X148872Y10345D01*
X148839Y10339D01*
X148757Y10328D01*
X148664Y10306D01*
X148560Y10273D01*
X148457Y10224D01*
X148353Y10164D01*
X148347D01*
X148342Y10153D01*
X148309Y10131D01*
X148260Y10088D01*
X148205Y10033D01*
X148140Y9957D01*
X148080Y9870D01*
X148020Y9766D01*
X147971Y9646D01*
Y9640D01*
X147965Y9629D01*
X147960Y9607D01*
X147954Y9580D01*
X147943Y9542D01*
X147932Y9498D01*
X147922Y9444D01*
X147916Y9378D01*
X147905Y9302D01*
X147894Y9220D01*
X147883Y9127D01*
X147872Y9029D01*
X147867Y8914D01*
X147861Y8794D01*
X147856Y8657D01*
Y8515D01*
Y5862D01*
X146409Y5862D01*
Y11338D01*
X147741D01*
Y10590D01*
X147752Y10601D01*
X147774Y10628D01*
X147812Y10672D01*
X147867Y10727D01*
X147938Y10792D01*
X148020Y10863D01*
X148113Y10945D01*
X148222Y11027D01*
X148342Y11103D01*
X148473Y11185D01*
X148609Y11256D01*
X148762Y11322D01*
X148921Y11376D01*
X149090Y11420D01*
X149265Y11447D01*
X149445Y11458D01*
X149494D01*
X149532Y11453D01*
X149576D01*
X149630Y11447D01*
X149690Y11442D01*
X149756Y11431D01*
X149898Y11404D01*
X150051Y11366D01*
X150204Y11311D01*
X150357Y11240D01*
X150362D01*
X150373Y11229D01*
X150395Y11218D01*
X150422Y11202D01*
X150455Y11174D01*
X150493Y11147D01*
X150581Y11076D01*
X150684Y10983D01*
X150788Y10874D01*
X150892Y10738D01*
X150990Y10585D01*
X150996Y10590D01*
X151006Y10607D01*
X151028Y10628D01*
X151056Y10656D01*
X151088Y10694D01*
X151127Y10732D01*
X151170Y10781D01*
X151225Y10830D01*
X151339Y10934D01*
X151470Y11043D01*
X151612Y11147D01*
X151765Y11240D01*
X151771D01*
X151787Y11251D01*
X151809Y11262D01*
X151836Y11273D01*
X151880Y11289D01*
X151924Y11311D01*
X151978Y11327D01*
X152033Y11349D01*
X152098Y11371D01*
X152169Y11387D01*
X152322Y11426D01*
X152486Y11447D01*
X152661Y11458D01*
X152721D01*
X152764Y11453D01*
D02*
G37*
G36*
X108768Y11453D02*
X108817D01*
X108877Y11447D01*
X108948Y11436D01*
X109019Y11426D01*
X109177Y11398D01*
X109352Y11355D01*
X109521Y11294D01*
X109603Y11256D01*
X109685Y11213D01*
X109691D01*
X109702Y11202D01*
X109723Y11185D01*
X109756Y11169D01*
X109789Y11142D01*
X109827Y11109D01*
X109871Y11071D01*
X109920Y11032D01*
X109969Y10983D01*
X110018Y10929D01*
X110073Y10869D01*
X110122Y10803D01*
X110171Y10738D01*
X110220Y10661D01*
X110308Y10492D01*
Y10486D01*
X110313Y10475D01*
X110324Y10454D01*
X110329Y10426D01*
X110346Y10388D01*
X110357Y10339D01*
X110368Y10284D01*
X110384Y10219D01*
X110400Y10142D01*
X110411Y10061D01*
X110428Y9968D01*
X110439Y9864D01*
X110444Y9755D01*
X110455Y9629D01*
X110460Y9498D01*
Y9356D01*
Y5862D01*
X109013D01*
Y8985D01*
Y8996D01*
Y9023D01*
Y9061D01*
Y9116D01*
X109008Y9182D01*
Y9252D01*
X109003Y9334D01*
X108997Y9422D01*
X108975Y9602D01*
X108948Y9771D01*
X108932Y9853D01*
X108910Y9924D01*
X108888Y9990D01*
X108861Y10039D01*
Y10044D01*
X108850Y10050D01*
X108839Y10066D01*
X108822Y10088D01*
X108773Y10137D01*
X108708Y10197D01*
X108620Y10252D01*
X108517Y10301D01*
X108457Y10323D01*
X108391Y10339D01*
X108320Y10345D01*
X108244Y10350D01*
X108194D01*
X108134Y10339D01*
X108058Y10328D01*
X107971Y10306D01*
X107872Y10273D01*
X107774Y10224D01*
X107670Y10164D01*
X107665D01*
X107659Y10153D01*
X107627Y10131D01*
X107578Y10088D01*
X107523Y10028D01*
X107457Y9951D01*
X107392Y9859D01*
X107332Y9744D01*
X107283Y9618D01*
Y9613D01*
X107277Y9602D01*
X107272Y9580D01*
X107266Y9553D01*
X107255Y9509D01*
X107245Y9465D01*
X107234Y9405D01*
X107228Y9340D01*
X107217Y9269D01*
X107206Y9182D01*
X107195Y9094D01*
X107184Y8990D01*
X107179Y8876D01*
X107174Y8756D01*
X107168Y8630D01*
Y8488D01*
Y5862D01*
X105721D01*
Y8859D01*
Y8870D01*
Y8892D01*
Y8936D01*
Y8990D01*
Y9050D01*
X105716Y9121D01*
Y9203D01*
X105710Y9285D01*
X105699Y9460D01*
X105688Y9629D01*
X105677Y9706D01*
X105666Y9777D01*
X105656Y9837D01*
X105639Y9886D01*
Y9891D01*
X105634Y9897D01*
X105623Y9924D01*
X105606Y9968D01*
X105579Y10017D01*
X105546Y10077D01*
X105508Y10131D01*
X105459Y10186D01*
X105399Y10235D01*
X105394Y10241D01*
X105372Y10252D01*
X105333Y10273D01*
X105284Y10295D01*
X105224Y10312D01*
X105148Y10334D01*
X105061Y10345D01*
X104962Y10350D01*
X104908D01*
X104875Y10345D01*
X104842Y10339D01*
X104760Y10328D01*
X104667Y10306D01*
X104564Y10273D01*
X104460Y10224D01*
X104356Y10164D01*
X104351D01*
X104345Y10153D01*
X104313Y10131D01*
X104263Y10088D01*
X104209Y10033D01*
X104143Y9957D01*
X104083Y9870D01*
X104023Y9766D01*
X103974Y9646D01*
Y9640D01*
X103969Y9629D01*
X103963Y9607D01*
X103958Y9580D01*
X103947Y9542D01*
X103936Y9498D01*
X103925Y9444D01*
X103919Y9378D01*
X103908Y9302D01*
X103898Y9220D01*
X103887Y9127D01*
X103876Y9029D01*
X103870Y8914D01*
X103865Y8794D01*
X103859Y8657D01*
Y8515D01*
Y5862D01*
X102412D01*
Y11338D01*
X103745D01*
Y10590D01*
X103755Y10601D01*
X103777Y10628D01*
X103816Y10672D01*
X103870Y10727D01*
X103941Y10792D01*
X104023Y10863D01*
X104116Y10945D01*
X104225Y11027D01*
X104345Y11103D01*
X104476Y11185D01*
X104613Y11256D01*
X104766Y11322D01*
X104924Y11376D01*
X105093Y11420D01*
X105268Y11447D01*
X105448Y11458D01*
X105497D01*
X105535Y11453D01*
X105579D01*
X105634Y11447D01*
X105694Y11442D01*
X105759Y11431D01*
X105901Y11404D01*
X106054Y11366D01*
X106207Y11311D01*
X106360Y11240D01*
X106365D01*
X106376Y11229D01*
X106398Y11218D01*
X106425Y11202D01*
X106458Y11174D01*
X106497Y11147D01*
X106584Y11076D01*
X106688Y10983D01*
X106791Y10874D01*
X106895Y10738D01*
X106993Y10585D01*
X106999Y10590D01*
X107010Y10607D01*
X107032Y10628D01*
X107059Y10656D01*
X107092Y10694D01*
X107130Y10732D01*
X107174Y10781D01*
X107228Y10830D01*
X107343Y10934D01*
X107474Y11043D01*
X107616Y11147D01*
X107769Y11240D01*
X107774D01*
X107791Y11251D01*
X107812Y11262D01*
X107840Y11273D01*
X107883Y11289D01*
X107927Y11311D01*
X107982Y11327D01*
X108036Y11349D01*
X108102Y11371D01*
X108173Y11387D01*
X108326Y11426D01*
X108489Y11447D01*
X108664Y11458D01*
X108724D01*
X108768Y11453D01*
D02*
G37*
G36*
X120387D02*
X120430Y11447D01*
X120480Y11442D01*
X120540Y11436D01*
X120605Y11426D01*
X120753Y11393D01*
X120916Y11344D01*
X120998Y11311D01*
X121086Y11273D01*
X121173Y11229D01*
X121260Y11180D01*
X120807Y9919D01*
X120802Y9924D01*
X120791Y9929D01*
X120769Y9940D01*
X120747Y9957D01*
X120714Y9973D01*
X120676Y9995D01*
X120583Y10039D01*
X120480Y10082D01*
X120365Y10121D01*
X120245Y10148D01*
X120185Y10159D01*
X120076D01*
X120015Y10148D01*
X119944Y10137D01*
X119862Y10115D01*
X119775Y10088D01*
X119688Y10044D01*
X119606Y9990D01*
X119595Y9984D01*
X119573Y9957D01*
X119535Y9913D01*
X119486Y9853D01*
X119437Y9766D01*
X119409Y9717D01*
X119382Y9662D01*
X119355Y9602D01*
X119327Y9536D01*
X119300Y9460D01*
X119278Y9384D01*
Y9378D01*
X119273Y9362D01*
X119267Y9334D01*
X119262Y9296D01*
X119251Y9241D01*
X119240Y9171D01*
X119229Y9089D01*
X119218Y8990D01*
X119207Y8876D01*
X119196Y8745D01*
X119185Y8592D01*
X119175Y8428D01*
X119169Y8237D01*
X119164Y8029D01*
X119158Y7800D01*
Y7680D01*
Y7549D01*
Y5862D01*
X117711D01*
Y11338D01*
X119054D01*
Y10557D01*
X119060Y10563D01*
X119071Y10579D01*
X119087Y10612D01*
X119114Y10645D01*
X119142Y10689D01*
X119180Y10743D01*
X119262Y10858D01*
X119355Y10978D01*
X119458Y11098D01*
X119513Y11152D01*
X119568Y11202D01*
X119622Y11245D01*
X119671Y11284D01*
X119677D01*
X119682Y11289D01*
X119699Y11300D01*
X119721Y11311D01*
X119781Y11338D01*
X119857Y11371D01*
X119950Y11404D01*
X120054Y11431D01*
X120174Y11453D01*
X120299Y11458D01*
X120349D01*
X120387Y11453D01*
D02*
G37*
G36*
X202571Y11453D02*
X202620Y11447D01*
X202674Y11442D01*
X202734Y11436D01*
X202871Y11415D01*
X203018Y11387D01*
X203166Y11344D01*
X203319Y11284D01*
X203324D01*
X203335Y11278D01*
X203357Y11267D01*
X203384Y11251D01*
X203417Y11235D01*
X203455Y11213D01*
X203542Y11163D01*
X203641Y11098D01*
X203739Y11022D01*
X203837Y10940D01*
X203919Y10841D01*
Y10836D01*
X203930Y10830D01*
X203941Y10814D01*
X203952Y10792D01*
X203990Y10738D01*
X204034Y10667D01*
X204083Y10574D01*
X204127Y10475D01*
X204170Y10361D01*
X204209Y10235D01*
Y10230D01*
X204214Y10219D01*
Y10203D01*
X204220Y10175D01*
X204230Y10137D01*
X204236Y10093D01*
X204241Y10044D01*
X204252Y9984D01*
X204258Y9919D01*
X204263Y9848D01*
X204274Y9766D01*
X204280Y9678D01*
X204285Y9585D01*
Y9482D01*
X204291Y9373D01*
Y9258D01*
Y5862D01*
X202844D01*
Y8652D01*
Y8663D01*
Y8690D01*
Y8734D01*
Y8794D01*
X202838Y8865D01*
Y8947D01*
Y9034D01*
X202833Y9127D01*
X202822Y9318D01*
X202811Y9416D01*
X202800Y9509D01*
X202789Y9596D01*
X202778Y9673D01*
X202762Y9744D01*
X202745Y9798D01*
Y9804D01*
X202740Y9809D01*
X202729Y9842D01*
X202707Y9891D01*
X202674Y9946D01*
X202631Y10011D01*
X202582Y10082D01*
X202516Y10142D01*
X202445Y10203D01*
X202434Y10208D01*
X202407Y10224D01*
X202363Y10252D01*
X202303Y10279D01*
X202232Y10301D01*
X202145Y10328D01*
X202046Y10345D01*
X201943Y10350D01*
X201905D01*
X201877Y10345D01*
X201844D01*
X201806Y10339D01*
X201713Y10323D01*
X201610Y10301D01*
X201495Y10263D01*
X201375Y10213D01*
X201260Y10142D01*
X201255D01*
X201249Y10131D01*
X201233Y10121D01*
X201211Y10104D01*
X201162Y10061D01*
X201096Y9995D01*
X201031Y9919D01*
X200960Y9820D01*
X200900Y9711D01*
X200851Y9591D01*
Y9585D01*
X200845Y9575D01*
X200840Y9553D01*
X200834Y9526D01*
X200823Y9487D01*
X200818Y9438D01*
X200807Y9378D01*
X200796Y9307D01*
X200785Y9225D01*
X200774Y9138D01*
X200769Y9034D01*
X200758Y8919D01*
X200752Y8794D01*
X200747Y8652D01*
X200742Y8499D01*
Y8335D01*
Y5862D01*
X199295D01*
Y11338D01*
X200638D01*
Y10530D01*
X200649Y10541D01*
X200671Y10568D01*
X200709Y10617D01*
X200769Y10678D01*
X200840Y10743D01*
X200922Y10825D01*
X201020Y10907D01*
X201135Y10994D01*
X201255Y11082D01*
X201391Y11163D01*
X201544Y11245D01*
X201702Y11311D01*
X201872Y11371D01*
X202052Y11420D01*
X202243Y11447D01*
X202445Y11458D01*
X202527D01*
X202571Y11453D01*
D02*
G37*
G36*
X92956Y11453D02*
X93049Y11447D01*
X93152Y11436D01*
X93272Y11426D01*
X93403Y11415D01*
X93534Y11393D01*
X93671Y11366D01*
X93813Y11338D01*
X93949Y11300D01*
X94086Y11262D01*
X94212Y11207D01*
X94332Y11152D01*
X94441Y11087D01*
X94446Y11082D01*
X94463Y11071D01*
X94495Y11049D01*
X94528Y11022D01*
X94572Y10978D01*
X94626Y10934D01*
X94681Y10880D01*
X94741Y10814D01*
X94801Y10743D01*
X94867Y10661D01*
X94927Y10574D01*
X94987Y10475D01*
X95047Y10372D01*
X95101Y10257D01*
X95151Y10137D01*
X95194Y10006D01*
X93829Y9755D01*
Y9760D01*
X93824Y9771D01*
X93818Y9788D01*
X93813Y9809D01*
X93786Y9864D01*
X93753Y9935D01*
X93704Y10011D01*
X93649Y10093D01*
X93578Y10170D01*
X93491Y10241D01*
X93480Y10246D01*
X93463Y10257D01*
X93447Y10268D01*
X93420Y10279D01*
X93392Y10295D01*
X93316Y10328D01*
X93218Y10361D01*
X93098Y10388D01*
X92956Y10410D01*
X92797Y10415D01*
X92704D01*
X92655Y10410D01*
X92601Y10405D01*
X92546D01*
X92481Y10394D01*
X92344Y10377D01*
X92208Y10345D01*
X92082Y10306D01*
X92027Y10279D01*
X91978Y10252D01*
X91973Y10246D01*
X91951Y10230D01*
X91929Y10208D01*
X91896Y10175D01*
X91869Y10131D01*
X91842Y10082D01*
X91820Y10022D01*
X91815Y9957D01*
Y9951D01*
Y9929D01*
X91820Y9902D01*
X91831Y9870D01*
X91847Y9826D01*
X91875Y9782D01*
X91907Y9738D01*
X91957Y9695D01*
X91967Y9689D01*
X91984Y9678D01*
X92006Y9667D01*
X92038Y9657D01*
X92082Y9635D01*
X92131Y9613D01*
X92197Y9591D01*
X92279Y9564D01*
X92371Y9536D01*
X92481Y9498D01*
X92606Y9465D01*
X92754Y9427D01*
X92917Y9384D01*
X93098Y9340D01*
X93201Y9313D01*
X93305Y9291D01*
X93311D01*
X93316Y9285D01*
X93332D01*
X93354Y9280D01*
X93414Y9263D01*
X93491Y9241D01*
X93589Y9220D01*
X93698Y9187D01*
X93813Y9154D01*
X93944Y9110D01*
X94206Y9018D01*
X94342Y8963D01*
X94473Y8908D01*
X94605Y8848D01*
X94719Y8783D01*
X94828Y8717D01*
X94921Y8646D01*
X94927Y8641D01*
X94943Y8630D01*
X94965Y8608D01*
X94992Y8575D01*
X95030Y8537D01*
X95069Y8488D01*
X95107Y8433D01*
X95151Y8368D01*
X95194Y8292D01*
X95232Y8215D01*
X95276Y8128D01*
X95309Y8029D01*
X95336Y7926D01*
X95358Y7817D01*
X95374Y7696D01*
X95380Y7571D01*
Y7560D01*
Y7538D01*
X95374Y7500D01*
X95369Y7445D01*
X95358Y7380D01*
X95347Y7303D01*
X95325Y7221D01*
X95303Y7129D01*
X95265Y7030D01*
X95227Y6927D01*
X95172Y6817D01*
X95112Y6708D01*
X95041Y6599D01*
X94954Y6490D01*
X94856Y6380D01*
X94747Y6277D01*
X94741Y6271D01*
X94719Y6255D01*
X94681Y6228D01*
X94632Y6195D01*
X94561Y6151D01*
X94485Y6107D01*
X94386Y6058D01*
X94277Y6009D01*
X94157Y5955D01*
X94015Y5906D01*
X93867Y5862D01*
X93698Y5824D01*
X93518Y5785D01*
X93322Y5758D01*
X93114Y5742D01*
X92890Y5736D01*
X92841D01*
X92781Y5742D01*
X92704D01*
X92612Y5753D01*
X92502Y5758D01*
X92382Y5774D01*
X92251Y5791D01*
X92109Y5818D01*
X91967Y5845D01*
X91820Y5884D01*
X91667Y5927D01*
X91525Y5982D01*
X91378Y6042D01*
X91241Y6107D01*
X91116Y6189D01*
X91110Y6195D01*
X91088Y6211D01*
X91056Y6239D01*
X91012Y6271D01*
X90957Y6320D01*
X90897Y6375D01*
X90837Y6441D01*
X90766Y6511D01*
X90695Y6599D01*
X90624Y6692D01*
X90553Y6790D01*
X90482Y6899D01*
X90422Y7019D01*
X90362Y7145D01*
X90313Y7281D01*
X90269Y7423D01*
X91722Y7647D01*
Y7642D01*
X91727Y7631D01*
X91733Y7609D01*
X91738Y7576D01*
X91749Y7543D01*
X91765Y7500D01*
X91804Y7407D01*
X91853Y7303D01*
X91913Y7194D01*
X91995Y7096D01*
X92093Y7003D01*
X92098D01*
X92104Y6992D01*
X92120Y6981D01*
X92148Y6970D01*
X92175Y6954D01*
X92208Y6932D01*
X92251Y6916D01*
X92300Y6894D01*
X92355Y6872D01*
X92415Y6855D01*
X92481Y6834D01*
X92552Y6817D01*
X92628Y6806D01*
X92710Y6796D01*
X92797Y6785D01*
X92945D01*
X92983Y6790D01*
X93032D01*
X93081Y6796D01*
X93141Y6801D01*
X93207Y6812D01*
X93343Y6834D01*
X93485Y6872D01*
X93616Y6921D01*
X93682Y6954D01*
X93736Y6987D01*
X93747Y6992D01*
X93769Y7014D01*
X93796Y7047D01*
X93835Y7090D01*
X93867Y7145D01*
X93900Y7210D01*
X93922Y7287D01*
X93928Y7374D01*
Y7380D01*
Y7401D01*
X93922Y7434D01*
X93917Y7473D01*
X93900Y7511D01*
X93884Y7560D01*
X93857Y7604D01*
X93824Y7647D01*
X93818Y7653D01*
X93802Y7664D01*
X93769Y7685D01*
X93720Y7713D01*
X93660Y7740D01*
X93573Y7773D01*
X93524Y7789D01*
X93469Y7806D01*
X93403Y7822D01*
X93338Y7838D01*
X93332D01*
X93316Y7844D01*
X93294Y7849D01*
X93261Y7855D01*
X93223Y7866D01*
X93174Y7877D01*
X93120Y7887D01*
X93059Y7904D01*
X92988Y7920D01*
X92917Y7937D01*
X92759Y7980D01*
X92584Y8024D01*
X92404Y8073D01*
X92213Y8122D01*
X92027Y8182D01*
X91842Y8237D01*
X91662Y8297D01*
X91498Y8363D01*
X91345Y8422D01*
X91279Y8450D01*
X91219Y8483D01*
X91165Y8515D01*
X91116Y8543D01*
X91110Y8548D01*
X91088Y8564D01*
X91056Y8586D01*
X91017Y8625D01*
X90968Y8668D01*
X90914Y8723D01*
X90854Y8788D01*
X90794Y8865D01*
X90733Y8947D01*
X90673Y9040D01*
X90619Y9138D01*
X90570Y9252D01*
X90531Y9367D01*
X90499Y9498D01*
X90477Y9635D01*
X90471Y9777D01*
Y9787D01*
Y9809D01*
X90477Y9848D01*
X90482Y9897D01*
X90488Y9957D01*
X90499Y10028D01*
X90521Y10104D01*
X90542Y10192D01*
X90570Y10284D01*
X90608Y10383D01*
X90652Y10481D01*
X90706Y10579D01*
X90772Y10683D01*
X90843Y10781D01*
X90930Y10880D01*
X91028Y10972D01*
X91034Y10978D01*
X91056Y10994D01*
X91088Y11016D01*
X91137Y11049D01*
X91198Y11087D01*
X91268Y11125D01*
X91356Y11169D01*
X91460Y11218D01*
X91574Y11262D01*
X91700Y11305D01*
X91842Y11344D01*
X92000Y11382D01*
X92169Y11415D01*
X92355Y11436D01*
X92557Y11453D01*
X92770Y11458D01*
X92879D01*
X92956Y11453D01*
D02*
G37*
G36*
X181004Y5862D02*
X179699D01*
X177493Y11338D01*
X179011D01*
X180043Y8543D01*
X180343Y7609D01*
Y7615D01*
X180348Y7625D01*
X180354Y7642D01*
X180365Y7669D01*
X180381Y7729D01*
X180409Y7800D01*
X180430Y7882D01*
X180458Y7959D01*
X180474Y8024D01*
X180485Y8057D01*
X180490Y8079D01*
X180496Y8089D01*
X180501Y8117D01*
X180518Y8166D01*
X180540Y8220D01*
X180561Y8292D01*
X180589Y8373D01*
X180616Y8455D01*
X180649Y8543D01*
X181686Y11338D01*
X183177D01*
X181004Y5862D01*
D02*
G37*
G36*
X185508D02*
X184061D01*
Y11338D01*
X185508D01*
Y5862D01*
D02*
G37*
G36*
X176767Y12141D02*
X172688D01*
Y10465D01*
X176483D01*
Y9187D01*
X172688D01*
Y7140D01*
X176909D01*
Y5862D01*
X171165D01*
Y13419D01*
X176767D01*
Y12141D01*
D02*
G37*
G36*
X114206Y11453D02*
X114288D01*
X114381Y11447D01*
X114484Y11442D01*
X114594Y11431D01*
X114708Y11420D01*
X114828Y11404D01*
X115069Y11360D01*
X115183Y11338D01*
X115298Y11305D01*
X115402Y11267D01*
X115495Y11229D01*
X115500D01*
X115516Y11218D01*
X115538Y11207D01*
X115571Y11185D01*
X115609Y11163D01*
X115653Y11136D01*
X115757Y11071D01*
X115866Y10983D01*
X115975Y10885D01*
X116079Y10770D01*
X116122Y10710D01*
X116161Y10645D01*
Y10639D01*
X116172Y10628D01*
X116177Y10607D01*
X116193Y10574D01*
X116204Y10536D01*
X116221Y10481D01*
X116243Y10421D01*
X116259Y10350D01*
X116275Y10268D01*
X116297Y10170D01*
X116314Y10066D01*
X116324Y9946D01*
X116341Y9815D01*
X116346Y9673D01*
X116357Y9515D01*
Y9345D01*
X116335Y7658D01*
Y7653D01*
Y7625D01*
Y7587D01*
Y7538D01*
Y7478D01*
X116341Y7412D01*
Y7336D01*
X116346Y7254D01*
X116352Y7079D01*
X116363Y6905D01*
X116368Y6817D01*
X116379Y6735D01*
X116390Y6664D01*
X116401Y6593D01*
Y6588D01*
X116406Y6577D01*
Y6561D01*
X116417Y6533D01*
X116423Y6501D01*
X116434Y6462D01*
X116461Y6375D01*
X116494Y6266D01*
X116543Y6140D01*
X116597Y6004D01*
X116663Y5862D01*
X115233D01*
Y5867D01*
X115222Y5889D01*
X115211Y5922D01*
X115194Y5971D01*
X115172Y6031D01*
X115145Y6102D01*
X115118Y6189D01*
X115091Y6288D01*
Y6293D01*
X115085Y6310D01*
X115080Y6331D01*
X115069Y6359D01*
X115052Y6413D01*
X115047Y6435D01*
X115041Y6457D01*
X115036Y6452D01*
X115025Y6441D01*
X115003Y6424D01*
X114976Y6397D01*
X114943Y6370D01*
X114899Y6331D01*
X114856Y6293D01*
X114801Y6255D01*
X114687Y6168D01*
X114550Y6075D01*
X114402Y5993D01*
X114244Y5916D01*
X114239D01*
X114228Y5911D01*
X114200Y5900D01*
X114173Y5889D01*
X114129Y5873D01*
X114086Y5862D01*
X114031Y5845D01*
X113977Y5829D01*
X113911Y5807D01*
X113840Y5791D01*
X113687Y5764D01*
X113518Y5742D01*
X113343Y5736D01*
X113305D01*
X113261Y5742D01*
X113201D01*
X113130Y5753D01*
X113049Y5758D01*
X112961Y5774D01*
X112857Y5796D01*
X112754Y5818D01*
X112644Y5851D01*
X112535Y5884D01*
X112426Y5927D01*
X112317Y5982D01*
X112208Y6042D01*
X112104Y6113D01*
X112011Y6195D01*
X112006Y6200D01*
X111989Y6217D01*
X111967Y6244D01*
X111935Y6277D01*
X111896Y6320D01*
X111858Y6375D01*
X111814Y6441D01*
X111771Y6511D01*
X111722Y6593D01*
X111678Y6681D01*
X111640Y6774D01*
X111602Y6877D01*
X111569Y6987D01*
X111547Y7101D01*
X111531Y7227D01*
X111525Y7352D01*
Y7358D01*
Y7374D01*
Y7396D01*
X111531Y7429D01*
Y7473D01*
X111536Y7516D01*
X111541Y7571D01*
X111552Y7631D01*
X111580Y7756D01*
X111618Y7898D01*
X111672Y8040D01*
X111743Y8177D01*
X111749Y8182D01*
X111754Y8193D01*
X111765Y8210D01*
X111787Y8237D01*
X111836Y8302D01*
X111907Y8384D01*
X111995Y8472D01*
X112098Y8564D01*
X112224Y8657D01*
X112366Y8734D01*
X112371D01*
X112382Y8745D01*
X112410Y8756D01*
X112442Y8766D01*
X112481Y8783D01*
X112530Y8805D01*
X112590Y8827D01*
X112661Y8848D01*
X112737Y8876D01*
X112825Y8903D01*
X112917Y8930D01*
X113021Y8958D01*
X113130Y8990D01*
X113251Y9018D01*
X113382Y9045D01*
X113518Y9072D01*
X113529D01*
X113562Y9083D01*
X113616Y9089D01*
X113682Y9105D01*
X113764Y9121D01*
X113862Y9143D01*
X113966Y9165D01*
X114075Y9187D01*
X114310Y9247D01*
X114539Y9307D01*
X114648Y9334D01*
X114752Y9367D01*
X114845Y9400D01*
X114927Y9433D01*
Y9575D01*
Y9580D01*
Y9591D01*
Y9613D01*
X114921Y9640D01*
Y9678D01*
X114916Y9717D01*
X114899Y9804D01*
X114878Y9902D01*
X114839Y10001D01*
X114790Y10093D01*
X114757Y10131D01*
X114719Y10170D01*
X114708Y10175D01*
X114697Y10186D01*
X114675Y10197D01*
X114654Y10213D01*
X114621Y10224D01*
X114588Y10241D01*
X114544Y10263D01*
X114495Y10279D01*
X114435Y10295D01*
X114375Y10306D01*
X114304Y10323D01*
X114222Y10334D01*
X114135Y10345D01*
X114042Y10350D01*
X113873D01*
X113840Y10345D01*
X113802D01*
X113720Y10334D01*
X113622Y10312D01*
X113518Y10284D01*
X113420Y10246D01*
X113332Y10197D01*
X113321Y10192D01*
X113300Y10170D01*
X113256Y10126D01*
X113212Y10071D01*
X113158Y10001D01*
X113098Y9908D01*
X113043Y9793D01*
X112988Y9662D01*
X111672Y9897D01*
X111678Y9908D01*
X111683Y9929D01*
X111694Y9973D01*
X111716Y10028D01*
X111738Y10093D01*
X111771Y10170D01*
X111809Y10252D01*
X111847Y10339D01*
X111896Y10437D01*
X111957Y10530D01*
X112016Y10628D01*
X112088Y10727D01*
X112159Y10819D01*
X112246Y10912D01*
X112333Y10994D01*
X112432Y11071D01*
X112437Y11076D01*
X112459Y11087D01*
X112492Y11109D01*
X112535Y11131D01*
X112590Y11158D01*
X112661Y11191D01*
X112743Y11229D01*
X112841Y11267D01*
X112945Y11300D01*
X113065Y11338D01*
X113201Y11371D01*
X113343Y11398D01*
X113502Y11420D01*
X113671Y11442D01*
X113851Y11453D01*
X114048Y11458D01*
X114140D01*
X114206Y11453D01*
D02*
G37*
G36*
X98951D02*
X99033D01*
X99125Y11447D01*
X99229Y11442D01*
X99338Y11431D01*
X99453Y11420D01*
X99573Y11404D01*
X99813Y11360D01*
X99928Y11338D01*
X100043Y11305D01*
X100146Y11267D01*
X100239Y11229D01*
X100245D01*
X100261Y11218D01*
X100283Y11207D01*
X100316Y11185D01*
X100354Y11163D01*
X100398Y11136D01*
X100501Y11071D01*
X100611Y10983D01*
X100720Y10885D01*
X100823Y10770D01*
X100867Y10710D01*
X100905Y10645D01*
Y10639D01*
X100916Y10628D01*
X100922Y10607D01*
X100938Y10574D01*
X100949Y10536D01*
X100965Y10481D01*
X100987Y10421D01*
X101004Y10350D01*
X101020Y10268D01*
X101042Y10170D01*
X101058Y10066D01*
X101069Y9946D01*
X101086Y9815D01*
X101091Y9673D01*
X101102Y9515D01*
Y9345D01*
X101080Y7658D01*
Y7653D01*
Y7625D01*
Y7587D01*
Y7538D01*
Y7478D01*
X101086Y7412D01*
Y7336D01*
X101091Y7254D01*
X101096Y7079D01*
X101107Y6905D01*
X101113Y6817D01*
X101124Y6735D01*
X101135Y6664D01*
X101146Y6593D01*
Y6588D01*
X101151Y6577D01*
Y6561D01*
X101162Y6533D01*
X101168Y6501D01*
X101178Y6462D01*
X101206Y6375D01*
X101239Y6266D01*
X101288Y6140D01*
X101342Y6004D01*
X101408Y5862D01*
X99977D01*
Y5867D01*
X99966Y5889D01*
X99955Y5922D01*
X99939Y5971D01*
X99917Y6031D01*
X99890Y6102D01*
X99863Y6189D01*
X99835Y6288D01*
Y6293D01*
X99830Y6310D01*
X99824Y6331D01*
X99813Y6359D01*
X99797Y6413D01*
X99792Y6435D01*
X99786Y6457D01*
X99781Y6452D01*
X99770Y6441D01*
X99748Y6424D01*
X99721Y6397D01*
X99688Y6370D01*
X99644Y6331D01*
X99600Y6293D01*
X99546Y6255D01*
X99431Y6168D01*
X99295Y6075D01*
X99147Y5993D01*
X98989Y5916D01*
X98984D01*
X98973Y5911D01*
X98945Y5900D01*
X98918Y5889D01*
X98874Y5873D01*
X98831Y5862D01*
X98776Y5845D01*
X98721Y5829D01*
X98656Y5807D01*
X98585Y5791D01*
X98432Y5764D01*
X98263Y5742D01*
X98088Y5736D01*
X98050D01*
X98006Y5742D01*
X97946D01*
X97875Y5753D01*
X97793Y5758D01*
X97706Y5774D01*
X97602Y5796D01*
X97498Y5818D01*
X97389Y5851D01*
X97280Y5884D01*
X97171Y5927D01*
X97062Y5982D01*
X96952Y6042D01*
X96849Y6113D01*
X96756Y6195D01*
X96750Y6200D01*
X96734Y6217D01*
X96712Y6244D01*
X96679Y6277D01*
X96641Y6320D01*
X96603Y6375D01*
X96559Y6441D01*
X96516Y6511D01*
X96466Y6593D01*
X96423Y6681D01*
X96385Y6774D01*
X96346Y6877D01*
X96314Y6987D01*
X96292Y7101D01*
X96275Y7227D01*
X96270Y7352D01*
Y7358D01*
Y7374D01*
Y7396D01*
X96275Y7429D01*
Y7473D01*
X96281Y7516D01*
X96286Y7571D01*
X96297Y7631D01*
X96324Y7756D01*
X96363Y7898D01*
X96417Y8040D01*
X96488Y8177D01*
X96494Y8182D01*
X96499Y8193D01*
X96510Y8210D01*
X96532Y8237D01*
X96581Y8302D01*
X96652Y8384D01*
X96739Y8472D01*
X96843Y8564D01*
X96969Y8657D01*
X97111Y8734D01*
X97116D01*
X97127Y8745D01*
X97154Y8756D01*
X97187Y8766D01*
X97225Y8783D01*
X97275Y8805D01*
X97335Y8827D01*
X97406Y8848D01*
X97482Y8876D01*
X97569Y8903D01*
X97662Y8930D01*
X97766Y8958D01*
X97875Y8990D01*
X97995Y9018D01*
X98126Y9045D01*
X98263Y9072D01*
X98274D01*
X98307Y9083D01*
X98361Y9089D01*
X98427Y9105D01*
X98509Y9121D01*
X98607Y9143D01*
X98711Y9165D01*
X98820Y9187D01*
X99054Y9247D01*
X99284Y9307D01*
X99393Y9334D01*
X99497Y9367D01*
X99590Y9400D01*
X99672Y9433D01*
Y9575D01*
Y9580D01*
Y9591D01*
Y9613D01*
X99666Y9640D01*
Y9678D01*
X99660Y9717D01*
X99644Y9804D01*
X99622Y9902D01*
X99584Y10001D01*
X99535Y10093D01*
X99502Y10131D01*
X99464Y10170D01*
X99453Y10175D01*
X99442Y10186D01*
X99420Y10197D01*
X99398Y10213D01*
X99366Y10224D01*
X99333Y10241D01*
X99289Y10263D01*
X99240Y10279D01*
X99180Y10295D01*
X99120Y10306D01*
X99049Y10323D01*
X98967Y10334D01*
X98880Y10345D01*
X98787Y10350D01*
X98618D01*
X98585Y10345D01*
X98547D01*
X98465Y10334D01*
X98366Y10312D01*
X98263Y10284D01*
X98164Y10246D01*
X98077Y10197D01*
X98066Y10192D01*
X98044Y10170D01*
X98001Y10126D01*
X97957Y10071D01*
X97902Y10001D01*
X97842Y9908D01*
X97788Y9793D01*
X97733Y9662D01*
X96417Y9897D01*
X96423Y9908D01*
X96428Y9929D01*
X96439Y9973D01*
X96461Y10028D01*
X96483Y10093D01*
X96516Y10170D01*
X96554Y10252D01*
X96592Y10339D01*
X96641Y10437D01*
X96701Y10530D01*
X96761Y10628D01*
X96832Y10727D01*
X96903Y10819D01*
X96991Y10912D01*
X97078Y10994D01*
X97176Y11071D01*
X97182Y11076D01*
X97203Y11087D01*
X97236Y11109D01*
X97280Y11131D01*
X97335Y11158D01*
X97406Y11191D01*
X97487Y11229D01*
X97586Y11267D01*
X97689Y11300D01*
X97810Y11338D01*
X97946Y11371D01*
X98088Y11398D01*
X98246Y11420D01*
X98416Y11442D01*
X98596Y11453D01*
X98792Y11458D01*
X98885D01*
X98951Y11453D01*
D02*
G37*
G36*
X86365Y5862D02*
X84918D01*
Y11338D01*
X86365D01*
Y5862D01*
D02*
G37*
G36*
X80736Y12141D02*
X77078D01*
Y10350D01*
X80234D01*
Y9072D01*
X77078D01*
Y5862D01*
X75555D01*
Y13418D01*
X80736D01*
Y12141D01*
D02*
G37*
G36*
X74572D02*
X72333D01*
Y5862D01*
X70810D01*
Y12141D01*
X68566D01*
Y13418D01*
X74572D01*
Y12141D01*
D02*
G37*
G36*
X67665D02*
X63586D01*
Y10465D01*
X67381D01*
Y9187D01*
X63586D01*
Y7139D01*
X67807D01*
Y5862D01*
X62063D01*
Y13418D01*
X67665D01*
Y12141D01*
D02*
G37*
G36*
X211443Y11453D02*
X211476D01*
X211563Y11447D01*
X211667Y11436D01*
X211782Y11415D01*
X211918Y11393D01*
X212060Y11360D01*
X212208Y11316D01*
X212366Y11262D01*
X212524Y11196D01*
X212688Y11120D01*
X212846Y11027D01*
X212999Y10918D01*
X213147Y10792D01*
X213283Y10650D01*
X213289Y10639D01*
X213316Y10612D01*
X213349Y10563D01*
X213392Y10497D01*
X213447Y10410D01*
X213507Y10306D01*
X213567Y10181D01*
X213633Y10039D01*
X213698Y9875D01*
X213764Y9689D01*
X213818Y9487D01*
X213873Y9263D01*
X213911Y9023D01*
X213944Y8761D01*
X213960Y8477D01*
X213966Y8177D01*
X210335D01*
Y8171D01*
Y8150D01*
X210340Y8117D01*
Y8073D01*
X210346Y8019D01*
X210357Y7953D01*
X210367Y7887D01*
X210384Y7811D01*
X210422Y7647D01*
X210449Y7565D01*
X210482Y7484D01*
X210526Y7402D01*
X210570Y7320D01*
X210619Y7243D01*
X210679Y7172D01*
X210684Y7167D01*
X210695Y7156D01*
X210712Y7140D01*
X210739Y7118D01*
X210771Y7090D01*
X210815Y7058D01*
X210859Y7030D01*
X210913Y6998D01*
X210968Y6959D01*
X211034Y6932D01*
X211176Y6872D01*
X211258Y6850D01*
X211339Y6834D01*
X211427Y6823D01*
X211520Y6817D01*
X211552D01*
X211580Y6823D01*
X211640Y6828D01*
X211722Y6839D01*
X211809Y6861D01*
X211907Y6894D01*
X212000Y6937D01*
X212093Y6998D01*
X212098D01*
X212104Y7008D01*
X212131Y7036D01*
X212175Y7079D01*
X212224Y7145D01*
X212284Y7227D01*
X212344Y7331D01*
X212399Y7451D01*
X212448Y7598D01*
X213889Y7358D01*
X213884Y7347D01*
X213878Y7325D01*
X213862Y7281D01*
X213835Y7227D01*
X213807Y7161D01*
X213769Y7085D01*
X213725Y6998D01*
X213671Y6910D01*
X213616Y6812D01*
X213551Y6714D01*
X213474Y6610D01*
X213398Y6512D01*
X213310Y6413D01*
X213218Y6315D01*
X213114Y6228D01*
X213005Y6146D01*
X212999Y6140D01*
X212977Y6129D01*
X212945Y6107D01*
X212895Y6080D01*
X212835Y6053D01*
X212770Y6015D01*
X212683Y5982D01*
X212590Y5944D01*
X212486Y5906D01*
X212377Y5867D01*
X212251Y5829D01*
X212120Y5802D01*
X211978Y5774D01*
X211825Y5753D01*
X211667Y5742D01*
X211503Y5736D01*
X211443D01*
X211405Y5742D01*
X211367D01*
X211323Y5747D01*
X211268Y5753D01*
X211148Y5764D01*
X211017Y5785D01*
X210864Y5813D01*
X210701Y5851D01*
X210531Y5900D01*
X210357Y5966D01*
X210182Y6036D01*
X210007Y6129D01*
X209838Y6233D01*
X209680Y6359D01*
X209527Y6501D01*
X209390Y6664D01*
X209385Y6675D01*
X209368Y6697D01*
X209341Y6741D01*
X209308Y6801D01*
X209265Y6872D01*
X209221Y6959D01*
X209172Y7063D01*
X209123Y7183D01*
X209068Y7314D01*
X209019Y7456D01*
X208975Y7609D01*
X208937Y7778D01*
X208899Y7953D01*
X208872Y8144D01*
X208855Y8346D01*
X208850Y8554D01*
Y8559D01*
Y8570D01*
Y8586D01*
Y8614D01*
X208855Y8646D01*
Y8685D01*
Y8728D01*
X208860Y8777D01*
X208872Y8892D01*
X208888Y9023D01*
X208910Y9171D01*
X208937Y9329D01*
X208975Y9498D01*
X209024Y9673D01*
X209079Y9848D01*
X209150Y10028D01*
X209232Y10203D01*
X209325Y10372D01*
X209434Y10530D01*
X209559Y10683D01*
X209570Y10694D01*
X209592Y10716D01*
X209630Y10754D01*
X209685Y10803D01*
X209756Y10863D01*
X209843Y10929D01*
X209942Y11000D01*
X210051Y11071D01*
X210176Y11142D01*
X210313Y11213D01*
X210460Y11278D01*
X210619Y11338D01*
X210788Y11387D01*
X210968Y11426D01*
X211159Y11447D01*
X211361Y11458D01*
X211416D01*
X211443Y11453D01*
D02*
G37*
G36*
X207272Y11338D02*
X208260D01*
Y10186D01*
X207272D01*
Y7975D01*
Y7969D01*
Y7948D01*
Y7915D01*
Y7866D01*
Y7817D01*
Y7756D01*
X207277Y7625D01*
Y7489D01*
X207283Y7423D01*
Y7358D01*
X207288Y7303D01*
Y7254D01*
X207294Y7216D01*
X207299Y7189D01*
Y7183D01*
X207304Y7172D01*
X207315Y7150D01*
X207326Y7123D01*
X207343Y7096D01*
X207365Y7068D01*
X207392Y7036D01*
X207425Y7008D01*
X207430Y7003D01*
X207441Y6998D01*
X207463Y6987D01*
X207495Y6976D01*
X207528Y6959D01*
X207572Y6948D01*
X207621Y6943D01*
X207670Y6937D01*
X207709D01*
X207752Y6943D01*
X207818Y6954D01*
X207900Y6970D01*
X208003Y6998D01*
X208118Y7030D01*
X208255Y7074D01*
X208380Y5949D01*
X208375D01*
X208358Y5938D01*
X208331Y5927D01*
X208293Y5916D01*
X208244Y5900D01*
X208184Y5884D01*
X208118Y5862D01*
X208047Y5846D01*
X207965Y5824D01*
X207878Y5802D01*
X207785Y5785D01*
X207681Y5769D01*
X207468Y5747D01*
X207234Y5736D01*
X207168D01*
X207135Y5742D01*
X207097D01*
X206999Y5753D01*
X206890Y5769D01*
X206775Y5791D01*
X206649Y5824D01*
X206529Y5867D01*
X206524D01*
X206518Y5873D01*
X206502Y5878D01*
X206480Y5889D01*
X206425Y5922D01*
X206354Y5960D01*
X206278Y6009D01*
X206207Y6064D01*
X206131Y6129D01*
X206070Y6206D01*
X206065Y6217D01*
X206049Y6244D01*
X206021Y6293D01*
X205989Y6353D01*
X205956Y6435D01*
X205923Y6533D01*
X205890Y6648D01*
X205869Y6774D01*
Y6779D01*
Y6785D01*
X205863Y6801D01*
Y6823D01*
X205857Y6855D01*
Y6894D01*
X205852Y6943D01*
X205847Y6998D01*
X205841Y7058D01*
Y7134D01*
X205836Y7216D01*
X205830Y7309D01*
Y7412D01*
X205825Y7533D01*
Y7658D01*
Y7795D01*
Y10186D01*
X205159D01*
Y11338D01*
X205825D01*
Y12425D01*
X207272Y13276D01*
Y11338D01*
D02*
G37*
G36*
X195609Y11453D02*
X195642D01*
X195729Y11447D01*
X195833Y11436D01*
X195948Y11415D01*
X196084Y11393D01*
X196226Y11360D01*
X196373Y11316D01*
X196532Y11262D01*
X196690Y11196D01*
X196854Y11120D01*
X197012Y11027D01*
X197165Y10918D01*
X197313Y10792D01*
X197449Y10650D01*
X197455Y10639D01*
X197482Y10612D01*
X197515Y10563D01*
X197558Y10497D01*
X197613Y10410D01*
X197673Y10306D01*
X197733Y10181D01*
X197799Y10039D01*
X197864Y9875D01*
X197930Y9689D01*
X197984Y9487D01*
X198039Y9263D01*
X198077Y9023D01*
X198110Y8761D01*
X198126Y8477D01*
X198132Y8177D01*
X194501D01*
Y8171D01*
Y8150D01*
X194506Y8117D01*
Y8073D01*
X194512Y8019D01*
X194523Y7953D01*
X194534Y7887D01*
X194550Y7811D01*
X194588Y7647D01*
X194615Y7565D01*
X194648Y7483D01*
X194692Y7401D01*
X194736Y7320D01*
X194785Y7243D01*
X194845Y7172D01*
X194850Y7167D01*
X194861Y7156D01*
X194878Y7140D01*
X194905Y7118D01*
X194938Y7090D01*
X194981Y7058D01*
X195025Y7030D01*
X195080Y6998D01*
X195134Y6959D01*
X195200Y6932D01*
X195342Y6872D01*
X195423Y6850D01*
X195505Y6834D01*
X195593Y6823D01*
X195686Y6817D01*
X195718D01*
X195746Y6823D01*
X195806Y6828D01*
X195888Y6839D01*
X195975Y6861D01*
X196073Y6894D01*
X196166Y6937D01*
X196259Y6998D01*
X196264D01*
X196270Y7008D01*
X196297Y7036D01*
X196341Y7079D01*
X196390Y7145D01*
X196450Y7227D01*
X196510Y7331D01*
X196565Y7451D01*
X196614Y7598D01*
X198055Y7358D01*
X198050Y7347D01*
X198044Y7325D01*
X198028Y7281D01*
X198001Y7227D01*
X197973Y7161D01*
X197935Y7085D01*
X197891Y6998D01*
X197837Y6910D01*
X197782Y6812D01*
X197717Y6714D01*
X197640Y6610D01*
X197564Y6512D01*
X197476Y6413D01*
X197384Y6315D01*
X197280Y6228D01*
X197171Y6146D01*
X197165Y6140D01*
X197143Y6129D01*
X197111Y6107D01*
X197062Y6080D01*
X197001Y6053D01*
X196936Y6015D01*
X196848Y5982D01*
X196756Y5944D01*
X196652Y5906D01*
X196543Y5867D01*
X196417Y5829D01*
X196286Y5802D01*
X196144Y5774D01*
X195991Y5753D01*
X195833Y5742D01*
X195669Y5736D01*
X195609D01*
X195571Y5742D01*
X195533D01*
X195489Y5747D01*
X195434Y5753D01*
X195314Y5764D01*
X195183Y5785D01*
X195030Y5813D01*
X194867Y5851D01*
X194697Y5900D01*
X194523Y5966D01*
X194348Y6036D01*
X194173Y6129D01*
X194004Y6233D01*
X193845Y6359D01*
X193693Y6501D01*
X193556Y6664D01*
X193551Y6675D01*
X193534Y6697D01*
X193507Y6741D01*
X193474Y6801D01*
X193431Y6872D01*
X193387Y6959D01*
X193338Y7063D01*
X193289Y7183D01*
X193234Y7314D01*
X193185Y7456D01*
X193141Y7609D01*
X193103Y7778D01*
X193065Y7953D01*
X193037Y8144D01*
X193021Y8346D01*
X193016Y8554D01*
Y8559D01*
Y8570D01*
Y8586D01*
Y8614D01*
X193021Y8646D01*
Y8685D01*
Y8728D01*
X193026Y8777D01*
X193037Y8892D01*
X193054Y9023D01*
X193076Y9171D01*
X193103Y9329D01*
X193141Y9498D01*
X193190Y9673D01*
X193245Y9848D01*
X193316Y10028D01*
X193398Y10203D01*
X193491Y10372D01*
X193600Y10530D01*
X193725Y10683D01*
X193736Y10694D01*
X193758Y10716D01*
X193796Y10754D01*
X193851Y10803D01*
X193922Y10863D01*
X194009Y10929D01*
X194108Y11000D01*
X194217Y11071D01*
X194342Y11142D01*
X194479Y11213D01*
X194626Y11278D01*
X194785Y11338D01*
X194954Y11387D01*
X195134Y11426D01*
X195325Y11447D01*
X195527Y11458D01*
X195582D01*
X195609Y11453D01*
D02*
G37*
G36*
X158072D02*
X158104D01*
X158192Y11447D01*
X158296Y11436D01*
X158410Y11415D01*
X158547Y11393D01*
X158689Y11360D01*
X158836Y11316D01*
X158994Y11262D01*
X159153Y11196D01*
X159317Y11120D01*
X159475Y11027D01*
X159628Y10918D01*
X159775Y10792D01*
X159912Y10650D01*
X159917Y10639D01*
X159944Y10612D01*
X159977Y10563D01*
X160021Y10497D01*
X160075Y10410D01*
X160135Y10306D01*
X160196Y10181D01*
X160261Y10039D01*
X160327Y9875D01*
X160392Y9689D01*
X160447Y9487D01*
X160501Y9263D01*
X160539Y9023D01*
X160572Y8761D01*
X160589Y8477D01*
X160594Y8177D01*
X156963D01*
Y8171D01*
Y8150D01*
X156969Y8117D01*
Y8073D01*
X156974Y8019D01*
X156985Y7953D01*
X156996Y7887D01*
X157012Y7811D01*
X157051Y7647D01*
X157078Y7565D01*
X157111Y7483D01*
X157154Y7401D01*
X157198Y7320D01*
X157247Y7243D01*
X157307Y7172D01*
X157313Y7167D01*
X157324Y7156D01*
X157340Y7140D01*
X157367Y7118D01*
X157400Y7090D01*
X157444Y7058D01*
X157487Y7030D01*
X157542Y6998D01*
X157597Y6959D01*
X157662Y6932D01*
X157804Y6872D01*
X157886Y6850D01*
X157968Y6834D01*
X158055Y6823D01*
X158148Y6817D01*
X158181D01*
X158208Y6823D01*
X158268Y6828D01*
X158350Y6839D01*
X158437Y6861D01*
X158536Y6894D01*
X158628Y6937D01*
X158721Y6998D01*
X158727D01*
X158732Y7008D01*
X158760Y7036D01*
X158803Y7079D01*
X158852Y7145D01*
X158913Y7227D01*
X158973Y7331D01*
X159027Y7451D01*
X159076Y7598D01*
X160518Y7358D01*
X160512Y7347D01*
X160507Y7325D01*
X160490Y7281D01*
X160463Y7227D01*
X160436Y7161D01*
X160398Y7085D01*
X160354Y6998D01*
X160299Y6910D01*
X160245Y6812D01*
X160179Y6714D01*
X160103Y6610D01*
X160026Y6512D01*
X159939Y6413D01*
X159846Y6315D01*
X159742Y6228D01*
X159633Y6146D01*
X159628Y6140D01*
X159606Y6129D01*
X159573Y6107D01*
X159524Y6080D01*
X159464Y6053D01*
X159398Y6015D01*
X159311Y5982D01*
X159218Y5944D01*
X159115Y5906D01*
X159005Y5867D01*
X158880Y5829D01*
X158749Y5802D01*
X158607Y5774D01*
X158454Y5753D01*
X158296Y5742D01*
X158132Y5736D01*
X158072D01*
X158033Y5742D01*
X157995D01*
X157951Y5747D01*
X157897Y5753D01*
X157777Y5764D01*
X157646Y5785D01*
X157493Y5813D01*
X157329Y5851D01*
X157160Y5900D01*
X156985Y5966D01*
X156810Y6036D01*
X156636Y6129D01*
X156466Y6233D01*
X156308Y6359D01*
X156155Y6501D01*
X156019Y6664D01*
X156013Y6675D01*
X155997Y6697D01*
X155970Y6741D01*
X155937Y6801D01*
X155893Y6872D01*
X155849Y6959D01*
X155800Y7063D01*
X155751Y7183D01*
X155696Y7314D01*
X155647Y7456D01*
X155604Y7609D01*
X155566Y7778D01*
X155527Y7953D01*
X155500Y8144D01*
X155484Y8346D01*
X155478Y8554D01*
Y8559D01*
Y8570D01*
Y8586D01*
Y8614D01*
X155484Y8646D01*
Y8685D01*
Y8728D01*
X155489Y8777D01*
X155500Y8892D01*
X155516Y9023D01*
X155538Y9171D01*
X155566Y9329D01*
X155604Y9498D01*
X155653Y9673D01*
X155707Y9848D01*
X155778Y10028D01*
X155860Y10203D01*
X155953Y10372D01*
X156062Y10530D01*
X156188Y10683D01*
X156199Y10694D01*
X156221Y10716D01*
X156259Y10754D01*
X156314Y10803D01*
X156385Y10863D01*
X156472Y10929D01*
X156570Y11000D01*
X156679Y11071D01*
X156805Y11142D01*
X156941Y11213D01*
X157089Y11278D01*
X157247Y11338D01*
X157416Y11387D01*
X157597Y11426D01*
X157788Y11447D01*
X157990Y11458D01*
X158044D01*
X158072Y11453D01*
D02*
G37*
G36*
X139884Y11453D02*
X139917D01*
X140005Y11447D01*
X140108Y11436D01*
X140223Y11415D01*
X140359Y11393D01*
X140501Y11360D01*
X140649Y11316D01*
X140807Y11262D01*
X140965Y11196D01*
X141129Y11120D01*
X141288Y11027D01*
X141440Y10918D01*
X141588Y10792D01*
X141724Y10650D01*
X141730Y10639D01*
X141757Y10612D01*
X141790Y10563D01*
X141834Y10497D01*
X141888Y10410D01*
X141948Y10306D01*
X142008Y10181D01*
X142074Y10039D01*
X142139Y9875D01*
X142205Y9689D01*
X142260Y9487D01*
X142314Y9263D01*
X142352Y9023D01*
X142385Y8761D01*
X142401Y8477D01*
X142407Y8177D01*
X138776D01*
Y8171D01*
Y8150D01*
X138781Y8117D01*
Y8073D01*
X138787Y8019D01*
X138798Y7953D01*
X138809Y7887D01*
X138825Y7811D01*
X138863Y7647D01*
X138891Y7565D01*
X138923Y7483D01*
X138967Y7401D01*
X139011Y7320D01*
X139060Y7243D01*
X139120Y7172D01*
X139125Y7167D01*
X139136Y7156D01*
X139153Y7139D01*
X139180Y7118D01*
X139213Y7090D01*
X139257Y7058D01*
X139300Y7030D01*
X139355Y6998D01*
X139409Y6959D01*
X139475Y6932D01*
X139617Y6872D01*
X139699Y6850D01*
X139781Y6834D01*
X139868Y6823D01*
X139961Y6817D01*
X139994D01*
X140021Y6823D01*
X140081Y6828D01*
X140163Y6839D01*
X140250Y6861D01*
X140348Y6894D01*
X140441Y6937D01*
X140534Y6998D01*
X140540D01*
X140545Y7008D01*
X140572Y7036D01*
X140616Y7079D01*
X140665Y7145D01*
X140725Y7227D01*
X140785Y7331D01*
X140840Y7451D01*
X140889Y7598D01*
X142330Y7358D01*
X142325Y7347D01*
X142320Y7325D01*
X142303Y7281D01*
X142276Y7227D01*
X142248Y7161D01*
X142210Y7085D01*
X142167Y6998D01*
X142112Y6910D01*
X142057Y6812D01*
X141992Y6714D01*
X141916Y6610D01*
X141839Y6511D01*
X141752Y6413D01*
X141659Y6315D01*
X141555Y6228D01*
X141446Y6146D01*
X141440Y6140D01*
X141419Y6129D01*
X141386Y6107D01*
X141337Y6080D01*
X141277Y6053D01*
X141211Y6015D01*
X141124Y5982D01*
X141031Y5944D01*
X140927Y5906D01*
X140818Y5867D01*
X140692Y5829D01*
X140561Y5802D01*
X140419Y5774D01*
X140267Y5753D01*
X140108Y5742D01*
X139944Y5736D01*
X139884D01*
X139846Y5742D01*
X139808D01*
X139764Y5747D01*
X139710Y5753D01*
X139590Y5764D01*
X139459Y5785D01*
X139306Y5813D01*
X139142Y5851D01*
X138972Y5900D01*
X138798Y5966D01*
X138623Y6036D01*
X138448Y6129D01*
X138279Y6233D01*
X138121Y6359D01*
X137968Y6501D01*
X137831Y6664D01*
X137826Y6675D01*
X137810Y6697D01*
X137782Y6741D01*
X137750Y6801D01*
X137706Y6872D01*
X137662Y6959D01*
X137613Y7063D01*
X137564Y7183D01*
X137509Y7314D01*
X137460Y7456D01*
X137416Y7609D01*
X137378Y7778D01*
X137340Y7953D01*
X137313Y8144D01*
X137296Y8346D01*
X137291Y8554D01*
Y8559D01*
Y8570D01*
Y8586D01*
Y8614D01*
X137296Y8646D01*
Y8685D01*
Y8728D01*
X137302Y8777D01*
X137313Y8892D01*
X137329Y9023D01*
X137351Y9171D01*
X137378Y9329D01*
X137416Y9498D01*
X137466Y9673D01*
X137520Y9848D01*
X137591Y10028D01*
X137673Y10203D01*
X137766Y10372D01*
X137875Y10530D01*
X138001Y10683D01*
X138012Y10694D01*
X138033Y10716D01*
X138072Y10754D01*
X138126Y10803D01*
X138197Y10863D01*
X138285Y10929D01*
X138383Y11000D01*
X138492Y11071D01*
X138618Y11142D01*
X138754Y11213D01*
X138902Y11278D01*
X139060Y11338D01*
X139229Y11387D01*
X139409Y11426D01*
X139600Y11447D01*
X139803Y11458D01*
X139857D01*
X139884Y11453D01*
D02*
G37*
G36*
X135713Y11338D02*
X136701D01*
Y10186D01*
X135713D01*
Y7975D01*
Y7969D01*
Y7948D01*
Y7915D01*
Y7866D01*
Y7817D01*
Y7756D01*
X135718Y7625D01*
Y7489D01*
X135724Y7423D01*
Y7358D01*
X135729Y7303D01*
Y7254D01*
X135735Y7216D01*
X135740Y7189D01*
Y7183D01*
X135746Y7172D01*
X135757Y7150D01*
X135767Y7123D01*
X135784Y7096D01*
X135806Y7068D01*
X135833Y7036D01*
X135866Y7008D01*
X135871Y7003D01*
X135882Y6998D01*
X135904Y6987D01*
X135937Y6976D01*
X135969Y6959D01*
X136013Y6948D01*
X136062Y6943D01*
X136111Y6937D01*
X136150D01*
X136193Y6943D01*
X136259Y6954D01*
X136341Y6970D01*
X136445Y6998D01*
X136559Y7030D01*
X136696Y7074D01*
X136821Y5949D01*
X136816D01*
X136800Y5938D01*
X136772Y5927D01*
X136734Y5916D01*
X136685Y5900D01*
X136625Y5884D01*
X136559Y5862D01*
X136488Y5845D01*
X136406Y5824D01*
X136319Y5802D01*
X136226Y5785D01*
X136122Y5769D01*
X135909Y5747D01*
X135675Y5736D01*
X135609D01*
X135576Y5742D01*
X135538D01*
X135440Y5753D01*
X135331Y5769D01*
X135216Y5791D01*
X135090Y5824D01*
X134970Y5867D01*
X134965D01*
X134959Y5873D01*
X134943Y5878D01*
X134921Y5889D01*
X134867Y5922D01*
X134796Y5960D01*
X134719Y6009D01*
X134648Y6064D01*
X134572Y6129D01*
X134512Y6206D01*
X134506Y6217D01*
X134490Y6244D01*
X134463Y6293D01*
X134430Y6353D01*
X134397Y6435D01*
X134364Y6533D01*
X134332Y6648D01*
X134310Y6774D01*
Y6779D01*
Y6785D01*
X134304Y6801D01*
Y6823D01*
X134299Y6855D01*
Y6894D01*
X134293Y6943D01*
X134288Y6998D01*
X134282Y7058D01*
Y7134D01*
X134277Y7216D01*
X134272Y7309D01*
Y7412D01*
X134266Y7533D01*
Y7658D01*
Y7795D01*
Y10186D01*
X133600D01*
Y11338D01*
X134266D01*
Y12425D01*
X135713Y13276D01*
Y11338D01*
D02*
G37*
G36*
X130499Y11453D02*
X130531D01*
X130619Y11447D01*
X130722Y11436D01*
X130837Y11415D01*
X130974Y11393D01*
X131116Y11360D01*
X131263Y11316D01*
X131421Y11262D01*
X131580Y11196D01*
X131744Y11120D01*
X131902Y11027D01*
X132055Y10918D01*
X132202Y10792D01*
X132339Y10650D01*
X132344Y10639D01*
X132371Y10612D01*
X132404Y10563D01*
X132448Y10497D01*
X132502Y10410D01*
X132562Y10306D01*
X132623Y10181D01*
X132688Y10039D01*
X132754Y9875D01*
X132819Y9689D01*
X132874Y9487D01*
X132928Y9263D01*
X132966Y9023D01*
X132999Y8761D01*
X133016Y8477D01*
X133021Y8177D01*
X129390D01*
Y8171D01*
Y8150D01*
X129396Y8117D01*
Y8073D01*
X129401Y8019D01*
X129412Y7953D01*
X129423Y7887D01*
X129439Y7811D01*
X129478Y7647D01*
X129505Y7565D01*
X129538Y7483D01*
X129581Y7401D01*
X129625Y7320D01*
X129674Y7243D01*
X129734Y7172D01*
X129740Y7167D01*
X129751Y7156D01*
X129767Y7139D01*
X129794Y7118D01*
X129827Y7090D01*
X129871Y7058D01*
X129914Y7030D01*
X129969Y6998D01*
X130024Y6959D01*
X130089Y6932D01*
X130231Y6872D01*
X130313Y6850D01*
X130395Y6834D01*
X130482Y6823D01*
X130575Y6817D01*
X130608D01*
X130635Y6823D01*
X130695Y6828D01*
X130777Y6839D01*
X130864Y6861D01*
X130963Y6894D01*
X131055Y6937D01*
X131148Y6998D01*
X131154D01*
X131159Y7008D01*
X131187Y7036D01*
X131230Y7079D01*
X131279Y7145D01*
X131340Y7227D01*
X131400Y7331D01*
X131454Y7451D01*
X131503Y7598D01*
X132945Y7358D01*
X132939Y7347D01*
X132934Y7325D01*
X132917Y7281D01*
X132890Y7227D01*
X132863Y7161D01*
X132825Y7085D01*
X132781Y6998D01*
X132726Y6910D01*
X132672Y6812D01*
X132606Y6714D01*
X132530Y6610D01*
X132453Y6511D01*
X132366Y6413D01*
X132273Y6315D01*
X132169Y6228D01*
X132060Y6146D01*
X132055Y6140D01*
X132033Y6129D01*
X132000Y6107D01*
X131951Y6080D01*
X131891Y6053D01*
X131825Y6015D01*
X131738Y5982D01*
X131645Y5944D01*
X131542Y5906D01*
X131432Y5867D01*
X131307Y5829D01*
X131176Y5802D01*
X131034Y5774D01*
X130881Y5753D01*
X130722Y5742D01*
X130559Y5736D01*
X130499D01*
X130460Y5742D01*
X130422D01*
X130378Y5747D01*
X130324Y5753D01*
X130204Y5764D01*
X130073Y5785D01*
X129920Y5813D01*
X129756Y5851D01*
X129587Y5900D01*
X129412Y5966D01*
X129237Y6036D01*
X129063Y6129D01*
X128893Y6233D01*
X128735Y6359D01*
X128582Y6501D01*
X128446Y6664D01*
X128440Y6675D01*
X128424Y6697D01*
X128396Y6741D01*
X128364Y6801D01*
X128320Y6872D01*
X128276Y6959D01*
X128227Y7063D01*
X128178Y7183D01*
X128123Y7314D01*
X128074Y7456D01*
X128031Y7609D01*
X127992Y7778D01*
X127954Y7953D01*
X127927Y8144D01*
X127911Y8346D01*
X127905Y8554D01*
Y8559D01*
Y8570D01*
Y8586D01*
Y8614D01*
X127911Y8646D01*
Y8685D01*
Y8728D01*
X127916Y8777D01*
X127927Y8892D01*
X127943Y9023D01*
X127965Y9171D01*
X127992Y9329D01*
X128031Y9498D01*
X128080Y9673D01*
X128134Y9848D01*
X128205Y10028D01*
X128287Y10203D01*
X128380Y10372D01*
X128489Y10530D01*
X128615Y10683D01*
X128626Y10694D01*
X128648Y10716D01*
X128686Y10754D01*
X128741Y10803D01*
X128812Y10863D01*
X128899Y10929D01*
X128997Y11000D01*
X129106Y11071D01*
X129232Y11142D01*
X129368Y11213D01*
X129516Y11278D01*
X129674Y11338D01*
X129843Y11387D01*
X130024Y11426D01*
X130215Y11447D01*
X130417Y11458D01*
X130471D01*
X130499Y11453D01*
D02*
G37*
G36*
X123264Y10694D02*
X123270Y10705D01*
X123297Y10727D01*
X123330Y10765D01*
X123384Y10814D01*
X123444Y10874D01*
X123521Y10934D01*
X123614Y11005D01*
X123712Y11076D01*
X123821Y11147D01*
X123941Y11218D01*
X124072Y11284D01*
X124214Y11338D01*
X124362Y11387D01*
X124514Y11426D01*
X124678Y11447D01*
X124847Y11458D01*
X124891D01*
X124946Y11453D01*
X125017Y11447D01*
X125099Y11436D01*
X125202Y11420D01*
X125312Y11398D01*
X125432Y11366D01*
X125563Y11327D01*
X125694Y11284D01*
X125830Y11224D01*
X125972Y11152D01*
X126109Y11071D01*
X126251Y10972D01*
X126382Y10858D01*
X126507Y10732D01*
X126513Y10721D01*
X126535Y10699D01*
X126567Y10656D01*
X126611Y10596D01*
X126660Y10525D01*
X126715Y10432D01*
X126775Y10323D01*
X126835Y10203D01*
X126895Y10061D01*
X126955Y9908D01*
X127010Y9733D01*
X127059Y9547D01*
X127102Y9345D01*
X127135Y9132D01*
X127157Y8898D01*
X127163Y8652D01*
Y8646D01*
Y8636D01*
Y8619D01*
Y8592D01*
Y8559D01*
X127157Y8515D01*
Y8472D01*
X127152Y8422D01*
X127141Y8302D01*
X127130Y8166D01*
X127108Y8019D01*
X127081Y7855D01*
X127042Y7685D01*
X126999Y7505D01*
X126944Y7325D01*
X126879Y7150D01*
X126802Y6970D01*
X126715Y6801D01*
X126611Y6637D01*
X126491Y6490D01*
X126486Y6479D01*
X126458Y6457D01*
X126426Y6419D01*
X126371Y6370D01*
X126305Y6315D01*
X126229Y6250D01*
X126142Y6184D01*
X126038Y6113D01*
X125929Y6042D01*
X125803Y5976D01*
X125666Y5911D01*
X125525Y5856D01*
X125372Y5807D01*
X125213Y5769D01*
X125044Y5747D01*
X124869Y5736D01*
X124826D01*
X124787Y5742D01*
X124749D01*
X124695Y5747D01*
X124640Y5758D01*
X124580Y5764D01*
X124438Y5796D01*
X124280Y5835D01*
X124110Y5895D01*
X124029Y5927D01*
X123941Y5971D01*
X123936Y5976D01*
X123919Y5982D01*
X123898Y5998D01*
X123865Y6015D01*
X123827Y6042D01*
X123783Y6069D01*
X123728Y6107D01*
X123674Y6146D01*
X123554Y6244D01*
X123423Y6364D01*
X123286Y6501D01*
X123160Y6664D01*
Y5862D01*
X121817D01*
Y13419D01*
X123264D01*
Y10694D01*
D02*
G37*
G36*
X149962Y1017D02*
X150006Y1013D01*
X150053Y1009D01*
X150108Y1006D01*
X150166Y998D01*
X150232Y991D01*
X150366Y969D01*
X150512Y936D01*
X150661Y896D01*
X150530Y223D01*
X150527D01*
X150519Y227D01*
X150508Y230D01*
X150490Y234D01*
X150472Y237D01*
X150447Y241D01*
X150388Y252D01*
X150323Y263D01*
X150246Y274D01*
X150166Y278D01*
X150086Y281D01*
X150053D01*
X150017Y278D01*
X149970Y270D01*
X149922Y256D01*
X149871Y241D01*
X149828Y216D01*
X149788Y183D01*
X149784Y179D01*
X149773Y165D01*
X149759Y136D01*
X149744Y99D01*
X149726Y48D01*
X149719Y16D01*
X149711Y-17D01*
X149704Y-57D01*
X149700Y-97D01*
X149697Y-145D01*
Y-196D01*
Y-450D01*
X150417D01*
Y-1211D01*
X149697D01*
Y-4101D01*
X148732D01*
Y-1211D01*
X148197D01*
Y-450D01*
X148732D01*
Y-177D01*
Y-174D01*
Y-156D01*
Y-134D01*
Y-101D01*
X148736Y-65D01*
Y-21D01*
X148739Y26D01*
X148743Y81D01*
X148754Y190D01*
X148772Y307D01*
X148794Y412D01*
X148809Y463D01*
X148827Y507D01*
Y510D01*
X148830Y518D01*
X148838Y529D01*
X148845Y543D01*
X148870Y587D01*
X148910Y638D01*
X148958Y696D01*
X149020Y758D01*
X149056Y787D01*
X149096Y816D01*
X149140Y845D01*
X149187Y874D01*
X149191D01*
X149198Y882D01*
X149213Y889D01*
X149234Y896D01*
X149260Y907D01*
X149293Y922D01*
X149329Y933D01*
X149369Y947D01*
X149416Y962D01*
X149467Y973D01*
X149522Y987D01*
X149580Y998D01*
X149642Y1006D01*
X149711Y1013D01*
X149853Y1020D01*
X149922D01*
X149962Y1017D01*
D02*
G37*
G36*
X184371Y45D02*
X183407D01*
Y936D01*
X184371D01*
Y45D01*
D02*
G37*
G36*
X96407Y45D02*
X95442D01*
Y936D01*
X96407D01*
Y45D01*
D02*
G37*
G36*
X145365Y23D02*
X144535D01*
Y853D01*
X145365D01*
Y23D01*
D02*
G37*
G36*
X143880D02*
X143050D01*
Y853D01*
X143880D01*
Y23D01*
D02*
G37*
G36*
X169513Y-374D02*
X169542Y-378D01*
X169575Y-381D01*
X169615Y-385D01*
X169659Y-392D01*
X169757Y-414D01*
X169866Y-447D01*
X169921Y-469D01*
X169979Y-494D01*
X170037Y-523D01*
X170095Y-556D01*
X169793Y-1397D01*
X169790Y-1393D01*
X169782Y-1390D01*
X169768Y-1382D01*
X169753Y-1371D01*
X169731Y-1360D01*
X169706Y-1346D01*
X169644Y-1317D01*
X169575Y-1288D01*
X169498Y-1262D01*
X169418Y-1244D01*
X169378Y-1237D01*
X169305D01*
X169265Y-1244D01*
X169218Y-1251D01*
X169163Y-1266D01*
X169105Y-1284D01*
X169047Y-1313D01*
X168992Y-1350D01*
X168985Y-1353D01*
X168971Y-1371D01*
X168945Y-1400D01*
X168912Y-1441D01*
X168879Y-1499D01*
X168861Y-1531D01*
X168843Y-1568D01*
X168825Y-1608D01*
X168807Y-1652D01*
X168789Y-1703D01*
X168774Y-1753D01*
Y-1757D01*
X168770Y-1768D01*
X168767Y-1786D01*
X168763Y-1812D01*
X168756Y-1848D01*
X168748Y-1895D01*
X168741Y-1950D01*
X168734Y-2016D01*
X168727Y-2092D01*
X168719Y-2179D01*
X168712Y-2281D01*
X168705Y-2390D01*
X168701Y-2518D01*
X168698Y-2656D01*
X168694Y-2809D01*
Y-2889D01*
Y-2977D01*
Y-4101D01*
X167729D01*
Y-450D01*
X168625D01*
Y-971D01*
X168628Y-967D01*
X168636Y-956D01*
X168647Y-934D01*
X168665Y-913D01*
X168683Y-884D01*
X168708Y-847D01*
X168763Y-771D01*
X168825Y-691D01*
X168894Y-611D01*
X168930Y-574D01*
X168967Y-541D01*
X169003Y-512D01*
X169036Y-487D01*
X169040D01*
X169043Y-483D01*
X169054Y-476D01*
X169069Y-469D01*
X169109Y-450D01*
X169160Y-429D01*
X169222Y-407D01*
X169291Y-389D01*
X169371Y-374D01*
X169455Y-370D01*
X169487D01*
X169513Y-374D01*
D02*
G37*
G36*
X94445Y-374D02*
X94474Y-378D01*
X94507Y-381D01*
X94547Y-385D01*
X94591Y-392D01*
X94689Y-414D01*
X94798Y-447D01*
X94853Y-469D01*
X94911Y-494D01*
X94969Y-523D01*
X95028Y-556D01*
X94725Y-1397D01*
X94722Y-1393D01*
X94714Y-1390D01*
X94700Y-1382D01*
X94685Y-1371D01*
X94664Y-1360D01*
X94638Y-1346D01*
X94576Y-1317D01*
X94507Y-1288D01*
X94431Y-1262D01*
X94350Y-1244D01*
X94310Y-1237D01*
X94238D01*
X94198Y-1244D01*
X94150Y-1251D01*
X94096Y-1266D01*
X94037Y-1284D01*
X93979Y-1313D01*
X93925Y-1350D01*
X93917Y-1353D01*
X93903Y-1371D01*
X93877Y-1400D01*
X93845Y-1441D01*
X93812Y-1499D01*
X93794Y-1531D01*
X93775Y-1568D01*
X93757Y-1608D01*
X93739Y-1652D01*
X93721Y-1703D01*
X93706Y-1753D01*
Y-1757D01*
X93703Y-1768D01*
X93699Y-1786D01*
X93695Y-1812D01*
X93688Y-1848D01*
X93681Y-1895D01*
X93673Y-1950D01*
X93666Y-2016D01*
X93659Y-2092D01*
X93652Y-2179D01*
X93644Y-2281D01*
X93637Y-2391D01*
X93633Y-2518D01*
X93630Y-2656D01*
X93626Y-2809D01*
Y-2889D01*
Y-2977D01*
Y-4101D01*
X92661D01*
Y-450D01*
X93557D01*
Y-971D01*
X93561Y-967D01*
X93568Y-956D01*
X93579Y-934D01*
X93597Y-913D01*
X93615Y-884D01*
X93641Y-847D01*
X93695Y-771D01*
X93757Y-691D01*
X93826Y-611D01*
X93863Y-574D01*
X93899Y-541D01*
X93936Y-512D01*
X93968Y-487D01*
X93972D01*
X93976Y-483D01*
X93986Y-476D01*
X94001Y-469D01*
X94041Y-450D01*
X94092Y-429D01*
X94154Y-407D01*
X94223Y-389D01*
X94303Y-374D01*
X94387Y-370D01*
X94420D01*
X94445Y-374D01*
D02*
G37*
G36*
X181281Y-374D02*
X181314Y-378D01*
X181350Y-381D01*
X181390Y-385D01*
X181481Y-399D01*
X181579Y-418D01*
X181678Y-447D01*
X181780Y-487D01*
X181783D01*
X181791Y-490D01*
X181805Y-498D01*
X181823Y-509D01*
X181845Y-520D01*
X181871Y-534D01*
X181929Y-567D01*
X181994Y-611D01*
X182060Y-661D01*
X182125Y-716D01*
X182180Y-782D01*
Y-785D01*
X182187Y-789D01*
X182195Y-800D01*
X182202Y-814D01*
X182227Y-851D01*
X182256Y-898D01*
X182289Y-960D01*
X182318Y-1025D01*
X182348Y-1102D01*
X182373Y-1186D01*
Y-1189D01*
X182377Y-1197D01*
Y-1208D01*
X182380Y-1226D01*
X182388Y-1251D01*
X182391Y-1280D01*
X182395Y-1313D01*
X182402Y-1353D01*
X182406Y-1397D01*
X182409Y-1444D01*
X182417Y-1499D01*
X182420Y-1557D01*
X182424Y-1619D01*
Y-1688D01*
X182428Y-1761D01*
Y-1837D01*
Y-4101D01*
X181463D01*
Y-2241D01*
Y-2234D01*
Y-2216D01*
Y-2187D01*
Y-2147D01*
X181459Y-2099D01*
Y-2045D01*
Y-1987D01*
X181456Y-1925D01*
X181448Y-1797D01*
X181441Y-1732D01*
X181434Y-1670D01*
X181427Y-1612D01*
X181419Y-1561D01*
X181408Y-1513D01*
X181397Y-1477D01*
Y-1473D01*
X181394Y-1470D01*
X181387Y-1448D01*
X181372Y-1415D01*
X181350Y-1379D01*
X181321Y-1335D01*
X181288Y-1288D01*
X181245Y-1248D01*
X181197Y-1208D01*
X181190Y-1204D01*
X181172Y-1193D01*
X181143Y-1175D01*
X181103Y-1157D01*
X181055Y-1142D01*
X180997Y-1124D01*
X180931Y-1113D01*
X180862Y-1109D01*
X180837D01*
X180819Y-1113D01*
X180797D01*
X180771Y-1116D01*
X180710Y-1127D01*
X180640Y-1142D01*
X180564Y-1168D01*
X180484Y-1200D01*
X180407Y-1248D01*
X180404D01*
X180400Y-1255D01*
X180389Y-1262D01*
X180375Y-1273D01*
X180342Y-1302D01*
X180298Y-1346D01*
X180254Y-1397D01*
X180207Y-1462D01*
X180167Y-1535D01*
X180134Y-1615D01*
Y-1619D01*
X180131Y-1626D01*
X180127Y-1641D01*
X180123Y-1659D01*
X180116Y-1684D01*
X180113Y-1717D01*
X180105Y-1757D01*
X180098Y-1805D01*
X180091Y-1859D01*
X180083Y-1917D01*
X180080Y-1987D01*
X180072Y-2063D01*
X180069Y-2147D01*
X180065Y-2241D01*
X180062Y-2343D01*
Y-2452D01*
Y-4101D01*
X179097D01*
Y-450D01*
X179992D01*
Y-989D01*
X180000Y-982D01*
X180014Y-964D01*
X180040Y-931D01*
X180080Y-891D01*
X180127Y-847D01*
X180182Y-793D01*
X180247Y-738D01*
X180324Y-680D01*
X180404Y-622D01*
X180495Y-567D01*
X180597Y-512D01*
X180702Y-469D01*
X180815Y-429D01*
X180935Y-396D01*
X181063Y-378D01*
X181197Y-370D01*
X181252D01*
X181281Y-374D01*
D02*
G37*
G36*
X176982D02*
X177015Y-378D01*
X177051Y-381D01*
X177091Y-385D01*
X177182Y-399D01*
X177281Y-418D01*
X177379Y-447D01*
X177481Y-487D01*
X177485D01*
X177492Y-490D01*
X177506Y-498D01*
X177524Y-509D01*
X177546Y-520D01*
X177572Y-534D01*
X177630Y-567D01*
X177696Y-611D01*
X177761Y-661D01*
X177827Y-716D01*
X177881Y-782D01*
Y-785D01*
X177889Y-789D01*
X177896Y-800D01*
X177903Y-814D01*
X177928Y-851D01*
X177958Y-898D01*
X177990Y-960D01*
X178020Y-1025D01*
X178049Y-1102D01*
X178074Y-1186D01*
Y-1189D01*
X178078Y-1197D01*
Y-1208D01*
X178081Y-1226D01*
X178089Y-1251D01*
X178092Y-1280D01*
X178096Y-1313D01*
X178103Y-1353D01*
X178107Y-1397D01*
X178111Y-1444D01*
X178118Y-1499D01*
X178121Y-1557D01*
X178125Y-1619D01*
Y-1688D01*
X178129Y-1761D01*
Y-1837D01*
Y-4101D01*
X177164D01*
Y-2241D01*
Y-2234D01*
Y-2216D01*
Y-2187D01*
Y-2147D01*
X177161Y-2099D01*
Y-2045D01*
Y-1987D01*
X177157Y-1925D01*
X177150Y-1797D01*
X177142Y-1732D01*
X177135Y-1670D01*
X177128Y-1612D01*
X177120Y-1561D01*
X177110Y-1513D01*
X177099Y-1477D01*
Y-1473D01*
X177095Y-1470D01*
X177088Y-1448D01*
X177073Y-1415D01*
X177051Y-1379D01*
X177022Y-1335D01*
X176989Y-1288D01*
X176946Y-1248D01*
X176898Y-1208D01*
X176891Y-1204D01*
X176873Y-1193D01*
X176844Y-1175D01*
X176804Y-1157D01*
X176757Y-1142D01*
X176698Y-1124D01*
X176633Y-1113D01*
X176564Y-1109D01*
X176538D01*
X176520Y-1113D01*
X176498D01*
X176473Y-1116D01*
X176411Y-1127D01*
X176341Y-1142D01*
X176265Y-1168D01*
X176185Y-1200D01*
X176109Y-1248D01*
X176105D01*
X176101Y-1255D01*
X176090Y-1262D01*
X176076Y-1273D01*
X176043Y-1302D01*
X175999Y-1346D01*
X175956Y-1397D01*
X175908Y-1462D01*
X175868Y-1535D01*
X175836Y-1615D01*
Y-1619D01*
X175832Y-1626D01*
X175828Y-1641D01*
X175825Y-1659D01*
X175817Y-1684D01*
X175814Y-1717D01*
X175806Y-1757D01*
X175799Y-1805D01*
X175792Y-1859D01*
X175785Y-1917D01*
X175781Y-1987D01*
X175774Y-2063D01*
X175770Y-2147D01*
X175766Y-2241D01*
X175763Y-2343D01*
Y-2452D01*
Y-4101D01*
X174798D01*
Y-450D01*
X175694D01*
Y-989D01*
X175701Y-982D01*
X175715Y-964D01*
X175741Y-931D01*
X175781Y-891D01*
X175828Y-847D01*
X175883Y-793D01*
X175948Y-738D01*
X176025Y-680D01*
X176105Y-622D01*
X176196Y-567D01*
X176298Y-512D01*
X176403Y-469D01*
X176516Y-429D01*
X176636Y-396D01*
X176764Y-378D01*
X176898Y-370D01*
X176953D01*
X176982Y-374D01*
D02*
G37*
G36*
X159394Y-374D02*
X159426Y-378D01*
X159463Y-381D01*
X159503Y-385D01*
X159594Y-399D01*
X159692Y-418D01*
X159790Y-447D01*
X159892Y-487D01*
X159896D01*
X159903Y-490D01*
X159918Y-498D01*
X159936Y-509D01*
X159958Y-520D01*
X159983Y-534D01*
X160042Y-567D01*
X160107Y-611D01*
X160173Y-661D01*
X160238Y-716D01*
X160293Y-782D01*
Y-785D01*
X160300Y-789D01*
X160307Y-800D01*
X160315Y-814D01*
X160340Y-851D01*
X160369Y-898D01*
X160402Y-960D01*
X160431Y-1025D01*
X160460Y-1102D01*
X160486Y-1186D01*
Y-1189D01*
X160489Y-1197D01*
Y-1208D01*
X160493Y-1226D01*
X160500Y-1251D01*
X160504Y-1280D01*
X160508Y-1313D01*
X160515Y-1353D01*
X160518Y-1397D01*
X160522Y-1444D01*
X160529Y-1499D01*
X160533Y-1557D01*
X160537Y-1619D01*
Y-1688D01*
X160540Y-1761D01*
Y-1837D01*
Y-4101D01*
X159576D01*
Y-2241D01*
Y-2234D01*
Y-2216D01*
Y-2187D01*
Y-2147D01*
X159572Y-2099D01*
Y-2045D01*
Y-1987D01*
X159568Y-1925D01*
X159561Y-1797D01*
X159554Y-1732D01*
X159547Y-1670D01*
X159539Y-1612D01*
X159532Y-1561D01*
X159521Y-1513D01*
X159510Y-1477D01*
Y-1473D01*
X159506Y-1470D01*
X159499Y-1448D01*
X159485Y-1415D01*
X159463Y-1379D01*
X159434Y-1335D01*
X159401Y-1288D01*
X159357Y-1248D01*
X159310Y-1208D01*
X159303Y-1204D01*
X159284Y-1193D01*
X159255Y-1175D01*
X159215Y-1157D01*
X159168Y-1142D01*
X159110Y-1124D01*
X159044Y-1113D01*
X158975Y-1109D01*
X158950D01*
X158931Y-1113D01*
X158909D01*
X158884Y-1116D01*
X158822Y-1127D01*
X158753Y-1142D01*
X158677Y-1168D01*
X158597Y-1200D01*
X158520Y-1248D01*
X158516D01*
X158513Y-1255D01*
X158502Y-1262D01*
X158487Y-1273D01*
X158455Y-1302D01*
X158411Y-1346D01*
X158367Y-1397D01*
X158320Y-1462D01*
X158280Y-1535D01*
X158247Y-1615D01*
Y-1619D01*
X158243Y-1626D01*
X158240Y-1641D01*
X158236Y-1659D01*
X158229Y-1684D01*
X158225Y-1717D01*
X158218Y-1757D01*
X158211Y-1805D01*
X158203Y-1859D01*
X158196Y-1917D01*
X158193Y-1987D01*
X158185Y-2063D01*
X158182Y-2147D01*
X158178Y-2241D01*
X158174Y-2343D01*
Y-2452D01*
Y-4101D01*
X157210D01*
Y-450D01*
X158105D01*
Y-989D01*
X158112Y-982D01*
X158127Y-964D01*
X158152Y-931D01*
X158193Y-891D01*
X158240Y-847D01*
X158294Y-793D01*
X158360Y-738D01*
X158436Y-680D01*
X158516Y-622D01*
X158607Y-567D01*
X158709Y-512D01*
X158815Y-469D01*
X158928Y-429D01*
X159048Y-396D01*
X159175Y-378D01*
X159310Y-370D01*
X159365D01*
X159394Y-374D01*
D02*
G37*
G36*
X124104D02*
X124148Y-378D01*
X124202Y-385D01*
X124268Y-396D01*
X124337Y-410D01*
X124417Y-432D01*
X124501Y-458D01*
X124584Y-490D01*
X124675Y-531D01*
X124766Y-581D01*
X124857Y-636D01*
X124948Y-705D01*
X125039Y-782D01*
X125123Y-869D01*
X125127Y-876D01*
X125141Y-891D01*
X125163Y-920D01*
X125192Y-960D01*
X125225Y-1011D01*
X125265Y-1073D01*
X125305Y-1146D01*
X125345Y-1229D01*
X125385Y-1324D01*
X125425Y-1426D01*
X125465Y-1542D01*
X125498Y-1666D01*
X125527Y-1801D01*
X125549Y-1943D01*
X125564Y-2096D01*
X125567Y-2259D01*
Y-2263D01*
Y-2270D01*
Y-2281D01*
Y-2300D01*
Y-2321D01*
X125564Y-2347D01*
Y-2376D01*
X125560Y-2409D01*
X125553Y-2485D01*
X125545Y-2576D01*
X125531Y-2675D01*
X125513Y-2780D01*
X125487Y-2893D01*
X125458Y-3006D01*
X125422Y-3126D01*
X125378Y-3242D01*
X125327Y-3359D01*
X125269Y-3472D01*
X125199Y-3581D01*
X125119Y-3679D01*
X125116Y-3686D01*
X125098Y-3701D01*
X125076Y-3726D01*
X125039Y-3759D01*
X124996Y-3796D01*
X124945Y-3839D01*
X124883Y-3887D01*
X124817Y-3930D01*
X124741Y-3978D01*
X124657Y-4025D01*
X124570Y-4069D01*
X124471Y-4105D01*
X124373Y-4138D01*
X124264Y-4163D01*
X124151Y-4178D01*
X124035Y-4185D01*
X124006D01*
X123984Y-4181D01*
X123955D01*
X123925Y-4178D01*
X123889Y-4174D01*
X123853Y-4171D01*
X123765Y-4156D01*
X123671Y-4134D01*
X123576Y-4105D01*
X123481Y-4065D01*
X123478D01*
X123470Y-4058D01*
X123456Y-4050D01*
X123438Y-4043D01*
X123416Y-4028D01*
X123390Y-4010D01*
X123361Y-3992D01*
X123325Y-3967D01*
X123249Y-3912D01*
X123208Y-3879D01*
X123161Y-3839D01*
X123117Y-3799D01*
X123066Y-3756D01*
X123019Y-3705D01*
X122968Y-3654D01*
Y-5488D01*
X122004D01*
Y-450D01*
X122903D01*
Y-989D01*
X122906Y-986D01*
X122910Y-978D01*
X122921Y-964D01*
X122935Y-942D01*
X122954Y-920D01*
X122976Y-891D01*
X122997Y-862D01*
X123026Y-829D01*
X123096Y-760D01*
X123176Y-683D01*
X123270Y-611D01*
X123376Y-541D01*
X123380Y-538D01*
X123390Y-534D01*
X123405Y-527D01*
X123427Y-516D01*
X123456Y-501D01*
X123489Y-487D01*
X123529Y-472D01*
X123572Y-454D01*
X123620Y-440D01*
X123671Y-425D01*
X123784Y-396D01*
X123907Y-378D01*
X123973Y-370D01*
X124071D01*
X124104Y-374D01*
D02*
G37*
G36*
X119805D02*
X119849Y-378D01*
X119903Y-385D01*
X119969Y-396D01*
X120038Y-410D01*
X120118Y-432D01*
X120202Y-458D01*
X120285Y-490D01*
X120377Y-531D01*
X120467Y-581D01*
X120559Y-636D01*
X120650Y-705D01*
X120740Y-782D01*
X120824Y-869D01*
X120828Y-876D01*
X120842Y-891D01*
X120864Y-920D01*
X120893Y-960D01*
X120926Y-1011D01*
X120966Y-1073D01*
X121006Y-1146D01*
X121046Y-1229D01*
X121086Y-1324D01*
X121126Y-1426D01*
X121166Y-1542D01*
X121199Y-1666D01*
X121228Y-1801D01*
X121250Y-1943D01*
X121265Y-2096D01*
X121268Y-2259D01*
Y-2263D01*
Y-2270D01*
Y-2281D01*
Y-2300D01*
Y-2321D01*
X121265Y-2347D01*
Y-2376D01*
X121261Y-2409D01*
X121254Y-2485D01*
X121247Y-2576D01*
X121232Y-2675D01*
X121214Y-2780D01*
X121188Y-2893D01*
X121159Y-3006D01*
X121123Y-3126D01*
X121079Y-3242D01*
X121028Y-3359D01*
X120970Y-3472D01*
X120901Y-3581D01*
X120821Y-3679D01*
X120817Y-3686D01*
X120799Y-3701D01*
X120777Y-3726D01*
X120740Y-3759D01*
X120697Y-3796D01*
X120646Y-3839D01*
X120584Y-3887D01*
X120519Y-3930D01*
X120442Y-3978D01*
X120358Y-4025D01*
X120271Y-4069D01*
X120173Y-4105D01*
X120074Y-4138D01*
X119965Y-4163D01*
X119852Y-4178D01*
X119736Y-4185D01*
X119707D01*
X119685Y-4181D01*
X119656D01*
X119627Y-4178D01*
X119590Y-4174D01*
X119554Y-4171D01*
X119466Y-4156D01*
X119372Y-4134D01*
X119277Y-4105D01*
X119183Y-4065D01*
X119179D01*
X119172Y-4058D01*
X119157Y-4050D01*
X119139Y-4043D01*
X119117Y-4028D01*
X119092Y-4010D01*
X119062Y-3992D01*
X119026Y-3967D01*
X118950Y-3912D01*
X118910Y-3879D01*
X118862Y-3839D01*
X118819Y-3799D01*
X118768Y-3756D01*
X118720Y-3705D01*
X118669Y-3654D01*
Y-5488D01*
X117705D01*
Y-450D01*
X118604D01*
Y-989D01*
X118607Y-986D01*
X118611Y-978D01*
X118622Y-964D01*
X118637Y-942D01*
X118655Y-920D01*
X118677Y-891D01*
X118699Y-862D01*
X118728Y-829D01*
X118797Y-760D01*
X118877Y-683D01*
X118972Y-611D01*
X119077Y-541D01*
X119081Y-538D01*
X119092Y-534D01*
X119106Y-527D01*
X119128Y-516D01*
X119157Y-501D01*
X119190Y-487D01*
X119230Y-472D01*
X119274Y-454D01*
X119321Y-440D01*
X119372Y-425D01*
X119485Y-396D01*
X119608Y-378D01*
X119674Y-370D01*
X119772D01*
X119805Y-374D01*
D02*
G37*
G36*
X98846Y-374D02*
X98908Y-378D01*
X98977Y-385D01*
X99057Y-392D01*
X99144Y-399D01*
X99232Y-414D01*
X99323Y-432D01*
X99417Y-450D01*
X99508Y-476D01*
X99599Y-501D01*
X99683Y-538D01*
X99763Y-574D01*
X99836Y-618D01*
X99840Y-622D01*
X99850Y-629D01*
X99872Y-643D01*
X99894Y-661D01*
X99923Y-691D01*
X99960Y-720D01*
X99996Y-756D01*
X100036Y-800D01*
X100076Y-847D01*
X100120Y-902D01*
X100160Y-960D01*
X100200Y-1025D01*
X100240Y-1095D01*
X100276Y-1171D01*
X100309Y-1251D01*
X100338Y-1339D01*
X99428Y-1506D01*
Y-1502D01*
X99425Y-1495D01*
X99421Y-1484D01*
X99417Y-1470D01*
X99399Y-1433D01*
X99377Y-1386D01*
X99345Y-1335D01*
X99308Y-1280D01*
X99261Y-1229D01*
X99203Y-1182D01*
X99195Y-1178D01*
X99184Y-1171D01*
X99173Y-1164D01*
X99155Y-1157D01*
X99137Y-1146D01*
X99086Y-1124D01*
X99021Y-1102D01*
X98940Y-1084D01*
X98846Y-1069D01*
X98740Y-1066D01*
X98678D01*
X98646Y-1069D01*
X98609Y-1073D01*
X98573D01*
X98529Y-1080D01*
X98438Y-1091D01*
X98347Y-1113D01*
X98264Y-1138D01*
X98227Y-1157D01*
X98194Y-1175D01*
X98191Y-1178D01*
X98176Y-1189D01*
X98162Y-1204D01*
X98140Y-1226D01*
X98122Y-1255D01*
X98103Y-1288D01*
X98089Y-1328D01*
X98085Y-1371D01*
Y-1375D01*
Y-1390D01*
X98089Y-1408D01*
X98096Y-1430D01*
X98107Y-1459D01*
X98125Y-1488D01*
X98147Y-1517D01*
X98180Y-1546D01*
X98187Y-1550D01*
X98198Y-1557D01*
X98212Y-1564D01*
X98234Y-1572D01*
X98264Y-1586D01*
X98296Y-1601D01*
X98340Y-1615D01*
X98395Y-1633D01*
X98456Y-1652D01*
X98529Y-1677D01*
X98613Y-1699D01*
X98711Y-1724D01*
X98820Y-1753D01*
X98940Y-1783D01*
X99010Y-1801D01*
X99079Y-1815D01*
X99082D01*
X99086Y-1819D01*
X99097D01*
X99112Y-1823D01*
X99152Y-1834D01*
X99203Y-1848D01*
X99268Y-1863D01*
X99341Y-1885D01*
X99417Y-1906D01*
X99505Y-1936D01*
X99679Y-1997D01*
X99770Y-2034D01*
X99858Y-2070D01*
X99945Y-2110D01*
X100022Y-2154D01*
X100094Y-2198D01*
X100156Y-2245D01*
X100160Y-2249D01*
X100171Y-2256D01*
X100185Y-2270D01*
X100204Y-2292D01*
X100229Y-2318D01*
X100255Y-2351D01*
X100280Y-2387D01*
X100309Y-2431D01*
X100338Y-2482D01*
X100364Y-2533D01*
X100393Y-2591D01*
X100415Y-2656D01*
X100433Y-2725D01*
X100447Y-2798D01*
X100458Y-2878D01*
X100462Y-2962D01*
Y-2969D01*
Y-2984D01*
X100458Y-3009D01*
X100455Y-3046D01*
X100447Y-3089D01*
X100440Y-3140D01*
X100426Y-3195D01*
X100411Y-3257D01*
X100386Y-3322D01*
X100360Y-3392D01*
X100324Y-3464D01*
X100284Y-3537D01*
X100236Y-3610D01*
X100178Y-3683D01*
X100113Y-3756D01*
X100040Y-3825D01*
X100036Y-3828D01*
X100022Y-3839D01*
X99996Y-3858D01*
X99963Y-3879D01*
X99916Y-3908D01*
X99865Y-3938D01*
X99800Y-3970D01*
X99727Y-4003D01*
X99647Y-4039D01*
X99552Y-4072D01*
X99454Y-4101D01*
X99341Y-4127D01*
X99221Y-4152D01*
X99090Y-4171D01*
X98952Y-4181D01*
X98802Y-4185D01*
X98769D01*
X98729Y-4181D01*
X98678D01*
X98617Y-4174D01*
X98544Y-4171D01*
X98464Y-4160D01*
X98376Y-4149D01*
X98282Y-4131D01*
X98187Y-4112D01*
X98089Y-4087D01*
X97987Y-4058D01*
X97892Y-4021D01*
X97794Y-3981D01*
X97703Y-3938D01*
X97619Y-3883D01*
X97616Y-3879D01*
X97601Y-3868D01*
X97579Y-3850D01*
X97550Y-3828D01*
X97514Y-3796D01*
X97474Y-3759D01*
X97434Y-3715D01*
X97386Y-3668D01*
X97339Y-3610D01*
X97292Y-3548D01*
X97244Y-3483D01*
X97197Y-3410D01*
X97157Y-3330D01*
X97117Y-3246D01*
X97084Y-3155D01*
X97055Y-3060D01*
X98023Y-2911D01*
Y-2915D01*
X98027Y-2922D01*
X98031Y-2937D01*
X98034Y-2958D01*
X98041Y-2980D01*
X98052Y-3009D01*
X98078Y-3071D01*
X98111Y-3140D01*
X98151Y-3213D01*
X98205Y-3279D01*
X98271Y-3341D01*
X98274D01*
X98278Y-3348D01*
X98289Y-3355D01*
X98307Y-3362D01*
X98325Y-3373D01*
X98347Y-3388D01*
X98376Y-3399D01*
X98409Y-3413D01*
X98445Y-3428D01*
X98486Y-3439D01*
X98529Y-3453D01*
X98576Y-3464D01*
X98628Y-3472D01*
X98682Y-3479D01*
X98740Y-3486D01*
X98839D01*
X98864Y-3483D01*
X98897D01*
X98930Y-3479D01*
X98970Y-3475D01*
X99013Y-3468D01*
X99104Y-3453D01*
X99199Y-3428D01*
X99286Y-3395D01*
X99330Y-3373D01*
X99366Y-3351D01*
X99374Y-3348D01*
X99388Y-3333D01*
X99406Y-3311D01*
X99432Y-3282D01*
X99454Y-3246D01*
X99476Y-3202D01*
X99490Y-3151D01*
X99494Y-3093D01*
Y-3089D01*
Y-3075D01*
X99490Y-3053D01*
X99487Y-3028D01*
X99476Y-3002D01*
X99465Y-2969D01*
X99446Y-2940D01*
X99425Y-2911D01*
X99421Y-2907D01*
X99410Y-2900D01*
X99388Y-2886D01*
X99356Y-2867D01*
X99316Y-2849D01*
X99257Y-2827D01*
X99225Y-2816D01*
X99188Y-2805D01*
X99144Y-2795D01*
X99101Y-2784D01*
X99097D01*
X99086Y-2780D01*
X99072Y-2776D01*
X99050Y-2773D01*
X99024Y-2765D01*
X98992Y-2758D01*
X98955Y-2751D01*
X98915Y-2740D01*
X98868Y-2729D01*
X98820Y-2718D01*
X98715Y-2689D01*
X98598Y-2660D01*
X98478Y-2627D01*
X98351Y-2594D01*
X98227Y-2554D01*
X98103Y-2518D01*
X97983Y-2478D01*
X97874Y-2434D01*
X97772Y-2394D01*
X97728Y-2376D01*
X97688Y-2354D01*
X97652Y-2332D01*
X97619Y-2314D01*
X97616Y-2310D01*
X97601Y-2300D01*
X97579Y-2285D01*
X97554Y-2259D01*
X97521Y-2230D01*
X97485Y-2194D01*
X97444Y-2150D01*
X97404Y-2099D01*
X97364Y-2045D01*
X97324Y-1983D01*
X97288Y-1917D01*
X97255Y-1841D01*
X97230Y-1764D01*
X97208Y-1677D01*
X97193Y-1586D01*
X97190Y-1491D01*
Y-1484D01*
Y-1470D01*
X97193Y-1444D01*
X97197Y-1411D01*
X97201Y-1371D01*
X97208Y-1324D01*
X97223Y-1273D01*
X97237Y-1215D01*
X97255Y-1153D01*
X97281Y-1087D01*
X97310Y-1022D01*
X97346Y-956D01*
X97390Y-887D01*
X97437Y-822D01*
X97496Y-756D01*
X97561Y-694D01*
X97565Y-691D01*
X97579Y-680D01*
X97601Y-665D01*
X97634Y-643D01*
X97674Y-618D01*
X97721Y-592D01*
X97779Y-563D01*
X97849Y-531D01*
X97925Y-501D01*
X98009Y-472D01*
X98103Y-447D01*
X98209Y-421D01*
X98322Y-399D01*
X98445Y-385D01*
X98580Y-374D01*
X98722Y-370D01*
X98795D01*
X98846Y-374D01*
D02*
G37*
G36*
X173808Y-4101D02*
X172913D01*
Y-3555D01*
X172909Y-3559D01*
X172902Y-3570D01*
X172891Y-3585D01*
X172876Y-3603D01*
X172858Y-3628D01*
X172833Y-3657D01*
X172803Y-3690D01*
X172771Y-3723D01*
X172734Y-3759D01*
X172694Y-3799D01*
X172607Y-3876D01*
X172501Y-3949D01*
X172385Y-4018D01*
X172381D01*
X172370Y-4025D01*
X172352Y-4032D01*
X172330Y-4043D01*
X172298Y-4058D01*
X172265Y-4072D01*
X172225Y-4087D01*
X172177Y-4101D01*
X172130Y-4116D01*
X172075Y-4131D01*
X171959Y-4160D01*
X171835Y-4178D01*
X171766Y-4181D01*
X171701Y-4185D01*
X171664D01*
X171639Y-4181D01*
X171606D01*
X171570Y-4178D01*
X171526Y-4171D01*
X171478Y-4163D01*
X171377Y-4145D01*
X171267Y-4116D01*
X171151Y-4076D01*
X171093Y-4054D01*
X171038Y-4025D01*
X171034Y-4021D01*
X171027Y-4018D01*
X171009Y-4007D01*
X170991Y-3996D01*
X170965Y-3978D01*
X170940Y-3959D01*
X170878Y-3908D01*
X170809Y-3843D01*
X170736Y-3766D01*
X170670Y-3675D01*
X170641Y-3628D01*
X170616Y-3573D01*
Y-3570D01*
X170612Y-3559D01*
X170605Y-3544D01*
X170598Y-3519D01*
X170587Y-3490D01*
X170576Y-3453D01*
X170565Y-3410D01*
X170554Y-3362D01*
X170539Y-3308D01*
X170528Y-3246D01*
X170518Y-3180D01*
X170510Y-3108D01*
X170499Y-3028D01*
X170496Y-2944D01*
X170488Y-2857D01*
Y-2762D01*
Y-450D01*
X171453D01*
Y-2128D01*
Y-2132D01*
Y-2136D01*
Y-2147D01*
Y-2161D01*
Y-2201D01*
Y-2252D01*
Y-2310D01*
X171457Y-2380D01*
Y-2456D01*
X171460Y-2533D01*
X171464Y-2696D01*
X171471Y-2776D01*
X171475Y-2849D01*
X171482Y-2918D01*
X171486Y-2980D01*
X171497Y-3031D01*
X171504Y-3071D01*
Y-3075D01*
X171508Y-3078D01*
X171515Y-3100D01*
X171529Y-3133D01*
X171548Y-3170D01*
X171577Y-3217D01*
X171609Y-3260D01*
X171650Y-3308D01*
X171697Y-3348D01*
X171704Y-3351D01*
X171722Y-3362D01*
X171755Y-3381D01*
X171795Y-3395D01*
X171846Y-3413D01*
X171908Y-3432D01*
X171981Y-3443D01*
X172057Y-3446D01*
X172083D01*
X172101Y-3443D01*
X172119D01*
X172145Y-3439D01*
X172206Y-3428D01*
X172276Y-3413D01*
X172348Y-3388D01*
X172425Y-3355D01*
X172501Y-3311D01*
X172505D01*
X172509Y-3304D01*
X172520Y-3297D01*
X172534Y-3286D01*
X172567Y-3257D01*
X172610Y-3221D01*
X172654Y-3170D01*
X172698Y-3115D01*
X172738Y-3049D01*
X172771Y-2977D01*
Y-2973D01*
X172774Y-2966D01*
X172778Y-2951D01*
X172782Y-2933D01*
X172789Y-2907D01*
X172792Y-2871D01*
X172800Y-2831D01*
X172807Y-2776D01*
X172814Y-2718D01*
X172822Y-2649D01*
X172825Y-2569D01*
X172833Y-2474D01*
X172836Y-2372D01*
X172840Y-2259D01*
X172844Y-2132D01*
Y-1990D01*
Y-450D01*
X173808D01*
Y-4101D01*
D02*
G37*
G36*
X184371Y-4101D02*
X183407D01*
Y-450D01*
X184371D01*
Y-4101D01*
D02*
G37*
G36*
X147629Y-4101D02*
X146665D01*
Y936D01*
X147629D01*
Y-4101D01*
D02*
G37*
G36*
X144284Y-374D02*
X144339D01*
X144401Y-378D01*
X144470Y-381D01*
X144543Y-389D01*
X144619Y-396D01*
X144699Y-407D01*
X144859Y-436D01*
X144936Y-450D01*
X145012Y-472D01*
X145081Y-498D01*
X145143Y-523D01*
X145147D01*
X145158Y-531D01*
X145172Y-538D01*
X145194Y-552D01*
X145220Y-567D01*
X145249Y-585D01*
X145318Y-629D01*
X145391Y-687D01*
X145463Y-752D01*
X145533Y-829D01*
X145562Y-869D01*
X145587Y-913D01*
Y-916D01*
X145594Y-924D01*
X145598Y-938D01*
X145609Y-960D01*
X145616Y-986D01*
X145627Y-1022D01*
X145642Y-1062D01*
X145653Y-1109D01*
X145664Y-1164D01*
X145678Y-1229D01*
X145689Y-1299D01*
X145696Y-1379D01*
X145707Y-1466D01*
X145711Y-1561D01*
X145718Y-1666D01*
Y-1779D01*
X145704Y-2904D01*
Y-2907D01*
Y-2926D01*
Y-2951D01*
Y-2984D01*
Y-3024D01*
X145707Y-3068D01*
Y-3118D01*
X145711Y-3173D01*
X145715Y-3290D01*
X145722Y-3406D01*
X145726Y-3464D01*
X145733Y-3519D01*
X145740Y-3566D01*
X145747Y-3614D01*
Y-3617D01*
X145751Y-3624D01*
Y-3635D01*
X145758Y-3654D01*
X145762Y-3675D01*
X145769Y-3701D01*
X145787Y-3759D01*
X145809Y-3832D01*
X145842Y-3916D01*
X145878Y-4007D01*
X145922Y-4101D01*
X144968D01*
Y-4098D01*
X144961Y-4083D01*
X144954Y-4061D01*
X144943Y-4028D01*
X144928Y-3988D01*
X144910Y-3941D01*
X144892Y-3883D01*
X144874Y-3817D01*
Y-3814D01*
X144870Y-3803D01*
X144866Y-3788D01*
X144859Y-3770D01*
X144848Y-3734D01*
X144845Y-3719D01*
X144841Y-3705D01*
X144837Y-3708D01*
X144830Y-3715D01*
X144816Y-3726D01*
X144797Y-3745D01*
X144775Y-3763D01*
X144746Y-3788D01*
X144717Y-3814D01*
X144681Y-3839D01*
X144604Y-3898D01*
X144513Y-3959D01*
X144415Y-4014D01*
X144309Y-4065D01*
X144306D01*
X144299Y-4069D01*
X144280Y-4076D01*
X144262Y-4083D01*
X144233Y-4094D01*
X144204Y-4101D01*
X144168Y-4112D01*
X144131Y-4123D01*
X144088Y-4138D01*
X144040Y-4149D01*
X143938Y-4167D01*
X143825Y-4181D01*
X143709Y-4185D01*
X143683D01*
X143654Y-4181D01*
X143614D01*
X143567Y-4174D01*
X143512Y-4171D01*
X143454Y-4160D01*
X143385Y-4145D01*
X143316Y-4131D01*
X143243Y-4109D01*
X143170Y-4087D01*
X143097Y-4058D01*
X143025Y-4021D01*
X142952Y-3981D01*
X142883Y-3934D01*
X142821Y-3879D01*
X142817Y-3876D01*
X142806Y-3865D01*
X142792Y-3847D01*
X142770Y-3825D01*
X142744Y-3796D01*
X142719Y-3759D01*
X142690Y-3715D01*
X142661Y-3668D01*
X142628Y-3614D01*
X142599Y-3555D01*
X142573Y-3494D01*
X142548Y-3424D01*
X142526Y-3351D01*
X142511Y-3275D01*
X142500Y-3191D01*
X142497Y-3108D01*
Y-3104D01*
Y-3093D01*
Y-3078D01*
X142500Y-3057D01*
Y-3028D01*
X142504Y-2998D01*
X142508Y-2962D01*
X142515Y-2922D01*
X142533Y-2838D01*
X142559Y-2744D01*
X142595Y-2649D01*
X142642Y-2558D01*
X142646Y-2554D01*
X142650Y-2547D01*
X142657Y-2536D01*
X142672Y-2518D01*
X142704Y-2474D01*
X142752Y-2420D01*
X142810Y-2361D01*
X142879Y-2300D01*
X142963Y-2238D01*
X143057Y-2187D01*
X143061D01*
X143068Y-2179D01*
X143087Y-2172D01*
X143108Y-2165D01*
X143134Y-2154D01*
X143167Y-2139D01*
X143207Y-2125D01*
X143254Y-2110D01*
X143305Y-2092D01*
X143363Y-2074D01*
X143425Y-2056D01*
X143494Y-2038D01*
X143567Y-2016D01*
X143647Y-1997D01*
X143734Y-1979D01*
X143825Y-1961D01*
X143833D01*
X143854Y-1954D01*
X143891Y-1950D01*
X143935Y-1939D01*
X143989Y-1928D01*
X144055Y-1914D01*
X144124Y-1899D01*
X144197Y-1885D01*
X144353Y-1845D01*
X144506Y-1805D01*
X144579Y-1786D01*
X144648Y-1764D01*
X144710Y-1743D01*
X144764Y-1721D01*
Y-1626D01*
Y-1623D01*
Y-1615D01*
Y-1601D01*
X144761Y-1582D01*
Y-1557D01*
X144757Y-1531D01*
X144746Y-1473D01*
X144732Y-1408D01*
X144706Y-1342D01*
X144674Y-1280D01*
X144652Y-1255D01*
X144626Y-1229D01*
X144619Y-1226D01*
X144612Y-1218D01*
X144597Y-1211D01*
X144582Y-1200D01*
X144561Y-1193D01*
X144539Y-1182D01*
X144510Y-1168D01*
X144477Y-1157D01*
X144437Y-1146D01*
X144397Y-1138D01*
X144350Y-1127D01*
X144295Y-1120D01*
X144237Y-1113D01*
X144175Y-1109D01*
X144062D01*
X144040Y-1113D01*
X144015D01*
X143960Y-1120D01*
X143895Y-1135D01*
X143825Y-1153D01*
X143760Y-1178D01*
X143702Y-1211D01*
X143694Y-1215D01*
X143680Y-1229D01*
X143651Y-1259D01*
X143622Y-1295D01*
X143585Y-1342D01*
X143545Y-1404D01*
X143509Y-1481D01*
X143472Y-1568D01*
X142595Y-1411D01*
X142599Y-1404D01*
X142602Y-1390D01*
X142610Y-1360D01*
X142624Y-1324D01*
X142639Y-1280D01*
X142661Y-1229D01*
X142686Y-1175D01*
X142712Y-1116D01*
X142744Y-1051D01*
X142784Y-989D01*
X142824Y-924D01*
X142872Y-858D01*
X142919Y-796D01*
X142977Y-734D01*
X143035Y-680D01*
X143101Y-629D01*
X143105Y-625D01*
X143119Y-618D01*
X143141Y-603D01*
X143170Y-589D01*
X143207Y-570D01*
X143254Y-549D01*
X143308Y-523D01*
X143374Y-498D01*
X143443Y-476D01*
X143523Y-450D01*
X143614Y-429D01*
X143709Y-410D01*
X143815Y-396D01*
X143927Y-381D01*
X144047Y-374D01*
X144178Y-370D01*
X144240D01*
X144284Y-374D01*
D02*
G37*
G36*
X139414Y-920D02*
X139421Y-913D01*
X139436Y-895D01*
X139461Y-869D01*
X139497Y-833D01*
X139541Y-793D01*
X139596Y-745D01*
X139658Y-698D01*
X139727Y-643D01*
X139807Y-592D01*
X139891Y-545D01*
X139985Y-498D01*
X140084Y-458D01*
X140185Y-421D01*
X140295Y-392D01*
X140411Y-378D01*
X140531Y-370D01*
X140586D01*
X140615Y-374D01*
X140651Y-378D01*
X140688Y-381D01*
X140731Y-385D01*
X140822Y-399D01*
X140924Y-421D01*
X141026Y-454D01*
X141128Y-494D01*
X141132D01*
X141139Y-501D01*
X141154Y-505D01*
X141172Y-516D01*
X141194Y-527D01*
X141219Y-545D01*
X141281Y-581D01*
X141347Y-625D01*
X141412Y-680D01*
X141478Y-742D01*
X141532Y-811D01*
Y-814D01*
X141540Y-818D01*
X141547Y-829D01*
X141554Y-843D01*
X141565Y-862D01*
X141579Y-884D01*
X141609Y-938D01*
X141638Y-1000D01*
X141671Y-1073D01*
X141700Y-1153D01*
X141721Y-1240D01*
Y-1244D01*
X141725Y-1251D01*
Y-1266D01*
X141729Y-1284D01*
X141732Y-1309D01*
X141736Y-1339D01*
X141743Y-1375D01*
X141747Y-1419D01*
X141751Y-1466D01*
X141758Y-1517D01*
X141762Y-1579D01*
X141765Y-1641D01*
X141769Y-1713D01*
Y-1790D01*
X141772Y-1874D01*
Y-1961D01*
Y-4101D01*
X140808D01*
Y-2176D01*
Y-2169D01*
Y-2150D01*
Y-2121D01*
Y-2085D01*
Y-2038D01*
X140804Y-1987D01*
Y-1928D01*
X140800Y-1870D01*
X140793Y-1746D01*
X140790Y-1684D01*
X140782Y-1626D01*
X140775Y-1571D01*
X140768Y-1524D01*
X140761Y-1481D01*
X140750Y-1448D01*
X140746Y-1441D01*
X140739Y-1422D01*
X140724Y-1393D01*
X140706Y-1360D01*
X140680Y-1320D01*
X140644Y-1280D01*
X140604Y-1240D01*
X140557Y-1204D01*
X140549Y-1200D01*
X140531Y-1189D01*
X140502Y-1175D01*
X140462Y-1157D01*
X140411Y-1138D01*
X140353Y-1124D01*
X140284Y-1113D01*
X140207Y-1109D01*
X140167D01*
X140145Y-1113D01*
X140120Y-1116D01*
X140065Y-1124D01*
X139996Y-1138D01*
X139923Y-1160D01*
X139850Y-1189D01*
X139778Y-1229D01*
X139774D01*
X139770Y-1233D01*
X139749Y-1251D01*
X139712Y-1280D01*
X139672Y-1317D01*
X139629Y-1368D01*
X139581Y-1426D01*
X139538Y-1499D01*
X139501Y-1582D01*
Y-1586D01*
X139497Y-1593D01*
X139494Y-1608D01*
X139487Y-1626D01*
X139479Y-1652D01*
X139472Y-1681D01*
X139465Y-1717D01*
X139457Y-1757D01*
X139450Y-1801D01*
X139443Y-1852D01*
X139436Y-1910D01*
X139428Y-1972D01*
X139421Y-2041D01*
X139417Y-2114D01*
X139414Y-2190D01*
Y-2274D01*
Y-4101D01*
X138449D01*
Y936D01*
X139414D01*
Y-920D01*
D02*
G37*
G36*
X129819Y-374D02*
X129873D01*
X129935Y-378D01*
X130004Y-381D01*
X130077Y-389D01*
X130154Y-396D01*
X130234Y-407D01*
X130394Y-436D01*
X130470Y-450D01*
X130547Y-472D01*
X130616Y-498D01*
X130678Y-523D01*
X130681D01*
X130692Y-531D01*
X130707Y-538D01*
X130729Y-552D01*
X130754Y-567D01*
X130783Y-585D01*
X130852Y-629D01*
X130925Y-687D01*
X130998Y-752D01*
X131067Y-829D01*
X131096Y-869D01*
X131122Y-913D01*
Y-916D01*
X131129Y-924D01*
X131133Y-938D01*
X131144Y-960D01*
X131151Y-986D01*
X131162Y-1022D01*
X131176Y-1062D01*
X131187Y-1109D01*
X131198Y-1164D01*
X131213Y-1229D01*
X131224Y-1299D01*
X131231Y-1379D01*
X131242Y-1466D01*
X131246Y-1561D01*
X131253Y-1666D01*
Y-1779D01*
X131238Y-2904D01*
Y-2907D01*
Y-2926D01*
Y-2951D01*
Y-2984D01*
Y-3024D01*
X131242Y-3068D01*
Y-3118D01*
X131246Y-3173D01*
X131249Y-3290D01*
X131256Y-3406D01*
X131260Y-3464D01*
X131267Y-3519D01*
X131275Y-3566D01*
X131282Y-3614D01*
Y-3617D01*
X131286Y-3624D01*
Y-3635D01*
X131293Y-3654D01*
X131297Y-3675D01*
X131304Y-3701D01*
X131322Y-3759D01*
X131344Y-3832D01*
X131377Y-3916D01*
X131413Y-4007D01*
X131457Y-4101D01*
X130503D01*
Y-4098D01*
X130496Y-4083D01*
X130488Y-4061D01*
X130477Y-4028D01*
X130463Y-3988D01*
X130445Y-3941D01*
X130427Y-3883D01*
X130408Y-3817D01*
Y-3814D01*
X130405Y-3803D01*
X130401Y-3788D01*
X130394Y-3770D01*
X130383Y-3734D01*
X130379Y-3719D01*
X130376Y-3705D01*
X130372Y-3708D01*
X130365Y-3715D01*
X130350Y-3726D01*
X130332Y-3745D01*
X130310Y-3763D01*
X130281Y-3788D01*
X130252Y-3814D01*
X130215Y-3839D01*
X130139Y-3898D01*
X130048Y-3959D01*
X129950Y-4014D01*
X129844Y-4065D01*
X129841D01*
X129833Y-4069D01*
X129815Y-4076D01*
X129797Y-4083D01*
X129768Y-4094D01*
X129739Y-4101D01*
X129702Y-4112D01*
X129666Y-4123D01*
X129622Y-4138D01*
X129575Y-4149D01*
X129473Y-4167D01*
X129360Y-4181D01*
X129244Y-4185D01*
X129218D01*
X129189Y-4181D01*
X129149D01*
X129102Y-4174D01*
X129047Y-4171D01*
X128989Y-4160D01*
X128920Y-4145D01*
X128850Y-4131D01*
X128778Y-4109D01*
X128705Y-4087D01*
X128632Y-4058D01*
X128559Y-4021D01*
X128486Y-3981D01*
X128417Y-3934D01*
X128355Y-3879D01*
X128352Y-3876D01*
X128341Y-3865D01*
X128326Y-3847D01*
X128304Y-3825D01*
X128279Y-3796D01*
X128253Y-3759D01*
X128224Y-3715D01*
X128195Y-3668D01*
X128163Y-3614D01*
X128133Y-3555D01*
X128108Y-3494D01*
X128082Y-3424D01*
X128060Y-3351D01*
X128046Y-3275D01*
X128035Y-3191D01*
X128031Y-3108D01*
Y-3104D01*
Y-3093D01*
Y-3078D01*
X128035Y-3057D01*
Y-3028D01*
X128039Y-2998D01*
X128042Y-2962D01*
X128050Y-2922D01*
X128068Y-2838D01*
X128093Y-2744D01*
X128130Y-2649D01*
X128177Y-2558D01*
X128181Y-2554D01*
X128184Y-2547D01*
X128192Y-2536D01*
X128206Y-2518D01*
X128239Y-2474D01*
X128286Y-2420D01*
X128345Y-2361D01*
X128414Y-2300D01*
X128497Y-2238D01*
X128592Y-2187D01*
X128596D01*
X128603Y-2179D01*
X128621Y-2172D01*
X128643Y-2165D01*
X128668Y-2154D01*
X128701Y-2139D01*
X128741Y-2125D01*
X128789Y-2110D01*
X128840Y-2092D01*
X128898Y-2074D01*
X128960Y-2056D01*
X129029Y-2038D01*
X129102Y-2016D01*
X129182Y-1997D01*
X129269Y-1979D01*
X129360Y-1961D01*
X129367D01*
X129389Y-1954D01*
X129426Y-1950D01*
X129469Y-1939D01*
X129524Y-1928D01*
X129589Y-1914D01*
X129658Y-1899D01*
X129731Y-1885D01*
X129888Y-1845D01*
X130041Y-1805D01*
X130113Y-1786D01*
X130183Y-1764D01*
X130245Y-1743D01*
X130299Y-1721D01*
Y-1626D01*
Y-1623D01*
Y-1615D01*
Y-1601D01*
X130296Y-1582D01*
Y-1557D01*
X130292Y-1531D01*
X130281Y-1473D01*
X130266Y-1408D01*
X130241Y-1342D01*
X130208Y-1280D01*
X130186Y-1255D01*
X130161Y-1229D01*
X130154Y-1226D01*
X130146Y-1218D01*
X130132Y-1211D01*
X130117Y-1200D01*
X130095Y-1193D01*
X130073Y-1182D01*
X130044Y-1168D01*
X130012Y-1157D01*
X129972Y-1146D01*
X129931Y-1138D01*
X129884Y-1127D01*
X129830Y-1120D01*
X129771Y-1113D01*
X129709Y-1109D01*
X129597D01*
X129575Y-1113D01*
X129549D01*
X129495Y-1120D01*
X129429Y-1135D01*
X129360Y-1153D01*
X129295Y-1178D01*
X129236Y-1211D01*
X129229Y-1215D01*
X129214Y-1229D01*
X129185Y-1259D01*
X129156Y-1295D01*
X129120Y-1342D01*
X129080Y-1404D01*
X129043Y-1481D01*
X129007Y-1568D01*
X128130Y-1411D01*
X128133Y-1404D01*
X128137Y-1390D01*
X128144Y-1360D01*
X128159Y-1324D01*
X128173Y-1280D01*
X128195Y-1229D01*
X128221Y-1175D01*
X128246Y-1116D01*
X128279Y-1051D01*
X128319Y-989D01*
X128359Y-924D01*
X128406Y-858D01*
X128454Y-796D01*
X128512Y-734D01*
X128570Y-680D01*
X128636Y-629D01*
X128639Y-625D01*
X128654Y-618D01*
X128676Y-603D01*
X128705Y-589D01*
X128741Y-570D01*
X128789Y-549D01*
X128843Y-523D01*
X128909Y-498D01*
X128978Y-476D01*
X129058Y-450D01*
X129149Y-429D01*
X129244Y-410D01*
X129349Y-396D01*
X129462Y-381D01*
X129582Y-374D01*
X129713Y-370D01*
X129775D01*
X129819Y-374D01*
D02*
G37*
G36*
X127296Y-4101D02*
X126331D01*
Y936D01*
X127296D01*
Y-4101D01*
D02*
G37*
G36*
X110450Y-1739D02*
X111579Y-450D01*
X112769D01*
X111520Y-1786D01*
X112860Y-4101D01*
X111819D01*
X110898Y-2460D01*
X110450Y-2933D01*
Y-4101D01*
X109486D01*
Y936D01*
X110450D01*
Y-1739D01*
D02*
G37*
G36*
X102238D02*
X103367Y-450D01*
X104557D01*
X103308Y-1786D01*
X104648Y-4101D01*
X103607D01*
X102686Y-2460D01*
X102238Y-2933D01*
Y-4101D01*
X101274D01*
Y936D01*
X102238D01*
Y-1739D01*
D02*
G37*
G36*
X96407Y-4101D02*
X95442D01*
Y-450D01*
X96407D01*
Y-4101D01*
D02*
G37*
G36*
X91872Y85D02*
X89433D01*
Y-1109D01*
X91537D01*
Y-1961D01*
X89433D01*
Y-4101D01*
X88417D01*
Y936D01*
X91872D01*
Y85D01*
D02*
G37*
G36*
X186370Y-450D02*
X187029D01*
Y-1218D01*
X186370D01*
Y-2693D01*
Y-2696D01*
Y-2711D01*
Y-2733D01*
Y-2765D01*
Y-2798D01*
Y-2838D01*
X186373Y-2926D01*
Y-3017D01*
X186377Y-3060D01*
Y-3104D01*
X186381Y-3140D01*
Y-3173D01*
X186384Y-3199D01*
X186388Y-3217D01*
Y-3221D01*
X186392Y-3228D01*
X186399Y-3242D01*
X186406Y-3260D01*
X186417Y-3279D01*
X186432Y-3297D01*
X186450Y-3319D01*
X186472Y-3337D01*
X186475Y-3341D01*
X186483Y-3344D01*
X186497Y-3351D01*
X186519Y-3359D01*
X186541Y-3370D01*
X186570Y-3377D01*
X186603Y-3381D01*
X186635Y-3384D01*
X186661D01*
X186690Y-3381D01*
X186734Y-3373D01*
X186788Y-3362D01*
X186857Y-3344D01*
X186934Y-3322D01*
X187025Y-3293D01*
X187109Y-4043D01*
X187105D01*
X187094Y-4050D01*
X187076Y-4058D01*
X187050Y-4065D01*
X187018Y-4076D01*
X186978Y-4087D01*
X186934Y-4101D01*
X186887Y-4112D01*
X186832Y-4127D01*
X186774Y-4141D01*
X186712Y-4152D01*
X186643Y-4163D01*
X186501Y-4178D01*
X186344Y-4185D01*
X186301D01*
X186279Y-4181D01*
X186253D01*
X186188Y-4174D01*
X186115Y-4163D01*
X186038Y-4149D01*
X185955Y-4127D01*
X185875Y-4098D01*
X185871D01*
X185867Y-4094D01*
X185856Y-4090D01*
X185842Y-4083D01*
X185805Y-4061D01*
X185758Y-4036D01*
X185707Y-4003D01*
X185660Y-3967D01*
X185609Y-3923D01*
X185569Y-3872D01*
X185565Y-3865D01*
X185554Y-3847D01*
X185536Y-3814D01*
X185514Y-3774D01*
X185493Y-3719D01*
X185471Y-3654D01*
X185449Y-3577D01*
X185434Y-3493D01*
Y-3490D01*
Y-3486D01*
X185431Y-3475D01*
Y-3461D01*
X185427Y-3439D01*
Y-3413D01*
X185423Y-3381D01*
X185420Y-3344D01*
X185416Y-3304D01*
Y-3253D01*
X185412Y-3199D01*
X185409Y-3137D01*
Y-3068D01*
X185405Y-2987D01*
Y-2904D01*
Y-2813D01*
Y-1218D01*
X184961D01*
Y-450D01*
X185405D01*
Y274D01*
X186370Y842D01*
Y-450D01*
D02*
G37*
G36*
X164395Y-880D02*
X164399Y-873D01*
X164417Y-858D01*
X164439Y-833D01*
X164475Y-800D01*
X164515Y-760D01*
X164566Y-720D01*
X164628Y-673D01*
X164693Y-625D01*
X164766Y-578D01*
X164846Y-531D01*
X164934Y-487D01*
X165028Y-450D01*
X165127Y-418D01*
X165229Y-392D01*
X165338Y-378D01*
X165451Y-370D01*
X165480D01*
X165516Y-374D01*
X165563Y-378D01*
X165618Y-385D01*
X165687Y-396D01*
X165760Y-410D01*
X165840Y-432D01*
X165928Y-458D01*
X166015Y-487D01*
X166106Y-527D01*
X166200Y-574D01*
X166291Y-629D01*
X166386Y-694D01*
X166473Y-771D01*
X166557Y-855D01*
X166561Y-862D01*
X166575Y-876D01*
X166597Y-905D01*
X166626Y-946D01*
X166659Y-993D01*
X166695Y-1055D01*
X166735Y-1127D01*
X166776Y-1208D01*
X166816Y-1302D01*
X166856Y-1404D01*
X166892Y-1521D01*
X166925Y-1644D01*
X166954Y-1779D01*
X166976Y-1921D01*
X166990Y-2077D01*
X166994Y-2241D01*
Y-2245D01*
Y-2252D01*
Y-2263D01*
Y-2281D01*
Y-2303D01*
X166990Y-2332D01*
Y-2361D01*
X166987Y-2394D01*
X166979Y-2474D01*
X166972Y-2565D01*
X166958Y-2664D01*
X166939Y-2773D01*
X166914Y-2886D01*
X166885Y-3006D01*
X166848Y-3126D01*
X166805Y-3242D01*
X166754Y-3362D01*
X166695Y-3475D01*
X166626Y-3585D01*
X166546Y-3683D01*
X166543Y-3690D01*
X166524Y-3705D01*
X166503Y-3730D01*
X166466Y-3763D01*
X166422Y-3799D01*
X166372Y-3843D01*
X166313Y-3887D01*
X166244Y-3934D01*
X166171Y-3981D01*
X166088Y-4025D01*
X165997Y-4069D01*
X165902Y-4105D01*
X165800Y-4138D01*
X165694Y-4163D01*
X165582Y-4178D01*
X165465Y-4185D01*
X165436D01*
X165411Y-4181D01*
X165385D01*
X165349Y-4178D01*
X165312Y-4171D01*
X165272Y-4167D01*
X165178Y-4145D01*
X165072Y-4120D01*
X164959Y-4079D01*
X164905Y-4058D01*
X164846Y-4028D01*
X164843Y-4025D01*
X164832Y-4021D01*
X164817Y-4010D01*
X164795Y-3999D01*
X164770Y-3981D01*
X164741Y-3963D01*
X164704Y-3937D01*
X164668Y-3912D01*
X164588Y-3847D01*
X164501Y-3766D01*
X164410Y-3675D01*
X164326Y-3566D01*
Y-4101D01*
X163430D01*
Y936D01*
X164395D01*
Y-880D01*
D02*
G37*
G36*
X154753Y-374D02*
X154774D01*
X154833Y-378D01*
X154902Y-385D01*
X154978Y-399D01*
X155069Y-414D01*
X155164Y-436D01*
X155262Y-465D01*
X155368Y-501D01*
X155473Y-545D01*
X155583Y-596D01*
X155688Y-658D01*
X155790Y-731D01*
X155888Y-814D01*
X155979Y-909D01*
X155983Y-916D01*
X156001Y-934D01*
X156023Y-967D01*
X156052Y-1011D01*
X156089Y-1069D01*
X156129Y-1138D01*
X156169Y-1222D01*
X156212Y-1317D01*
X156256Y-1426D01*
X156300Y-1550D01*
X156336Y-1684D01*
X156372Y-1834D01*
X156398Y-1994D01*
X156420Y-2169D01*
X156431Y-2358D01*
X156434Y-2558D01*
X154014D01*
Y-2562D01*
Y-2576D01*
X154017Y-2598D01*
Y-2627D01*
X154021Y-2664D01*
X154028Y-2707D01*
X154036Y-2751D01*
X154046Y-2802D01*
X154072Y-2911D01*
X154090Y-2966D01*
X154112Y-3020D01*
X154141Y-3075D01*
X154170Y-3130D01*
X154203Y-3180D01*
X154243Y-3228D01*
X154247Y-3231D01*
X154254Y-3239D01*
X154265Y-3250D01*
X154283Y-3264D01*
X154305Y-3282D01*
X154334Y-3304D01*
X154363Y-3322D01*
X154400Y-3344D01*
X154436Y-3370D01*
X154480Y-3388D01*
X154574Y-3428D01*
X154629Y-3443D01*
X154683Y-3453D01*
X154742Y-3461D01*
X154804Y-3464D01*
X154825D01*
X154844Y-3461D01*
X154884Y-3457D01*
X154938Y-3450D01*
X154997Y-3435D01*
X155062Y-3413D01*
X155124Y-3384D01*
X155186Y-3344D01*
X155190D01*
X155193Y-3337D01*
X155211Y-3319D01*
X155240Y-3290D01*
X155273Y-3246D01*
X155313Y-3191D01*
X155353Y-3122D01*
X155390Y-3042D01*
X155422Y-2944D01*
X156383Y-3104D01*
X156380Y-3111D01*
X156376Y-3126D01*
X156365Y-3155D01*
X156347Y-3191D01*
X156329Y-3235D01*
X156303Y-3286D01*
X156274Y-3344D01*
X156238Y-3402D01*
X156201Y-3468D01*
X156158Y-3534D01*
X156107Y-3603D01*
X156056Y-3668D01*
X155998Y-3734D01*
X155936Y-3799D01*
X155867Y-3858D01*
X155794Y-3912D01*
X155790Y-3916D01*
X155775Y-3923D01*
X155754Y-3937D01*
X155721Y-3956D01*
X155681Y-3974D01*
X155637Y-3999D01*
X155579Y-4021D01*
X155517Y-4047D01*
X155448Y-4072D01*
X155375Y-4098D01*
X155291Y-4123D01*
X155204Y-4141D01*
X155109Y-4160D01*
X155008Y-4174D01*
X154902Y-4181D01*
X154793Y-4185D01*
X154753D01*
X154727Y-4181D01*
X154702D01*
X154673Y-4178D01*
X154636Y-4174D01*
X154556Y-4167D01*
X154469Y-4152D01*
X154367Y-4134D01*
X154258Y-4109D01*
X154145Y-4076D01*
X154028Y-4032D01*
X153912Y-3985D01*
X153795Y-3923D01*
X153682Y-3854D01*
X153577Y-3770D01*
X153475Y-3675D01*
X153384Y-3566D01*
X153380Y-3559D01*
X153369Y-3544D01*
X153351Y-3515D01*
X153329Y-3475D01*
X153300Y-3428D01*
X153271Y-3370D01*
X153238Y-3300D01*
X153206Y-3221D01*
X153169Y-3133D01*
X153137Y-3039D01*
X153107Y-2936D01*
X153082Y-2824D01*
X153056Y-2707D01*
X153038Y-2580D01*
X153027Y-2445D01*
X153024Y-2307D01*
Y-2303D01*
Y-2296D01*
Y-2285D01*
Y-2267D01*
X153027Y-2245D01*
Y-2220D01*
Y-2190D01*
X153031Y-2158D01*
X153038Y-2081D01*
X153049Y-1994D01*
X153064Y-1895D01*
X153082Y-1790D01*
X153107Y-1677D01*
X153140Y-1561D01*
X153176Y-1444D01*
X153224Y-1324D01*
X153279Y-1208D01*
X153340Y-1095D01*
X153413Y-989D01*
X153497Y-887D01*
X153504Y-880D01*
X153519Y-865D01*
X153544Y-840D01*
X153581Y-807D01*
X153628Y-767D01*
X153686Y-723D01*
X153752Y-676D01*
X153824Y-629D01*
X153908Y-581D01*
X153999Y-534D01*
X154097Y-490D01*
X154203Y-450D01*
X154316Y-418D01*
X154436Y-392D01*
X154563Y-378D01*
X154698Y-370D01*
X154735D01*
X154753Y-374D01*
D02*
G37*
G36*
X151972Y-450D02*
X152630D01*
Y-1218D01*
X151972D01*
Y-2693D01*
Y-2696D01*
Y-2711D01*
Y-2733D01*
Y-2765D01*
Y-2798D01*
Y-2838D01*
X151975Y-2926D01*
Y-3017D01*
X151979Y-3060D01*
Y-3104D01*
X151983Y-3140D01*
Y-3173D01*
X151986Y-3199D01*
X151990Y-3217D01*
Y-3221D01*
X151994Y-3228D01*
X152001Y-3242D01*
X152008Y-3260D01*
X152019Y-3279D01*
X152034Y-3297D01*
X152052Y-3319D01*
X152074Y-3337D01*
X152077Y-3341D01*
X152085Y-3344D01*
X152099Y-3351D01*
X152121Y-3359D01*
X152143Y-3370D01*
X152172Y-3377D01*
X152205Y-3381D01*
X152237Y-3384D01*
X152263D01*
X152292Y-3381D01*
X152336Y-3373D01*
X152390Y-3362D01*
X152460Y-3344D01*
X152536Y-3322D01*
X152627Y-3293D01*
X152711Y-4043D01*
X152707D01*
X152696Y-4050D01*
X152678Y-4058D01*
X152652Y-4065D01*
X152620Y-4076D01*
X152580Y-4087D01*
X152536Y-4101D01*
X152489Y-4112D01*
X152434Y-4127D01*
X152376Y-4141D01*
X152314Y-4152D01*
X152245Y-4163D01*
X152103Y-4178D01*
X151946Y-4185D01*
X151902D01*
X151881Y-4181D01*
X151855D01*
X151790Y-4174D01*
X151717Y-4163D01*
X151640Y-4149D01*
X151557Y-4127D01*
X151477Y-4098D01*
X151473D01*
X151469Y-4094D01*
X151459Y-4090D01*
X151444Y-4083D01*
X151408Y-4061D01*
X151360Y-4036D01*
X151309Y-4003D01*
X151262Y-3967D01*
X151211Y-3923D01*
X151171Y-3872D01*
X151167Y-3865D01*
X151156Y-3847D01*
X151138Y-3814D01*
X151116Y-3774D01*
X151094Y-3719D01*
X151073Y-3654D01*
X151051Y-3577D01*
X151036Y-3494D01*
Y-3490D01*
Y-3486D01*
X151033Y-3475D01*
Y-3461D01*
X151029Y-3439D01*
Y-3413D01*
X151025Y-3381D01*
X151022Y-3344D01*
X151018Y-3304D01*
Y-3253D01*
X151014Y-3199D01*
X151011Y-3137D01*
Y-3068D01*
X151007Y-2987D01*
Y-2904D01*
Y-2813D01*
Y-1218D01*
X150563D01*
Y-450D01*
X151007D01*
Y274D01*
X151972Y842D01*
Y-450D01*
D02*
G37*
G36*
X133207D02*
X133866D01*
Y-1218D01*
X133207D01*
Y-2693D01*
Y-2696D01*
Y-2711D01*
Y-2733D01*
Y-2765D01*
Y-2798D01*
Y-2838D01*
X133211Y-2926D01*
Y-3017D01*
X133215Y-3060D01*
Y-3104D01*
X133218Y-3140D01*
Y-3173D01*
X133222Y-3199D01*
X133226Y-3217D01*
Y-3221D01*
X133229Y-3228D01*
X133237Y-3242D01*
X133244Y-3260D01*
X133255Y-3279D01*
X133269Y-3297D01*
X133288Y-3319D01*
X133309Y-3337D01*
X133313Y-3341D01*
X133320Y-3344D01*
X133335Y-3351D01*
X133357Y-3359D01*
X133379Y-3370D01*
X133408Y-3377D01*
X133440Y-3381D01*
X133473Y-3384D01*
X133499D01*
X133528Y-3381D01*
X133572Y-3373D01*
X133626Y-3362D01*
X133695Y-3344D01*
X133772Y-3322D01*
X133863Y-3293D01*
X133946Y-4043D01*
X133943D01*
X133932Y-4050D01*
X133914Y-4058D01*
X133888Y-4065D01*
X133855Y-4076D01*
X133815Y-4087D01*
X133772Y-4101D01*
X133724Y-4112D01*
X133670Y-4127D01*
X133612Y-4141D01*
X133550Y-4152D01*
X133481Y-4163D01*
X133339Y-4178D01*
X133182Y-4185D01*
X133138D01*
X133116Y-4181D01*
X133091D01*
X133026Y-4174D01*
X132953Y-4163D01*
X132876Y-4149D01*
X132793Y-4127D01*
X132712Y-4098D01*
X132709D01*
X132705Y-4094D01*
X132694Y-4090D01*
X132680Y-4083D01*
X132643Y-4061D01*
X132596Y-4036D01*
X132545Y-4003D01*
X132498Y-3967D01*
X132447Y-3923D01*
X132407Y-3872D01*
X132403Y-3865D01*
X132392Y-3847D01*
X132374Y-3814D01*
X132352Y-3774D01*
X132330Y-3719D01*
X132308Y-3654D01*
X132287Y-3577D01*
X132272Y-3494D01*
Y-3490D01*
Y-3486D01*
X132268Y-3475D01*
Y-3461D01*
X132265Y-3439D01*
Y-3413D01*
X132261Y-3381D01*
X132257Y-3344D01*
X132254Y-3304D01*
Y-3253D01*
X132250Y-3199D01*
X132247Y-3137D01*
Y-3068D01*
X132243Y-2987D01*
Y-2904D01*
Y-2813D01*
Y-1218D01*
X131799D01*
Y-450D01*
X132243D01*
Y274D01*
X133207Y842D01*
Y-450D01*
D02*
G37*
G36*
X115146Y-374D02*
X115168D01*
X115226Y-378D01*
X115295Y-385D01*
X115379Y-399D01*
X115470Y-414D01*
X115568Y-436D01*
X115674Y-465D01*
X115783Y-501D01*
X115896Y-545D01*
X116012Y-596D01*
X116125Y-658D01*
X116234Y-731D01*
X116343Y-814D01*
X116445Y-909D01*
X116453Y-916D01*
X116467Y-934D01*
X116496Y-964D01*
X116529Y-1007D01*
X116569Y-1058D01*
X116613Y-1124D01*
X116660Y-1197D01*
X116711Y-1280D01*
X116762Y-1375D01*
X116809Y-1477D01*
X116853Y-1590D01*
X116893Y-1710D01*
X116929Y-1841D01*
X116955Y-1976D01*
X116970Y-2121D01*
X116977Y-2270D01*
Y-2274D01*
Y-2281D01*
Y-2292D01*
Y-2307D01*
X116973Y-2325D01*
Y-2351D01*
X116970Y-2409D01*
X116962Y-2478D01*
X116948Y-2562D01*
X116933Y-2653D01*
X116911Y-2751D01*
X116882Y-2857D01*
X116846Y-2969D01*
X116802Y-3082D01*
X116751Y-3199D01*
X116689Y-3311D01*
X116620Y-3428D01*
X116536Y-3537D01*
X116442Y-3643D01*
X116434Y-3650D01*
X116416Y-3664D01*
X116387Y-3694D01*
X116347Y-3726D01*
X116292Y-3770D01*
X116230Y-3814D01*
X116158Y-3865D01*
X116074Y-3912D01*
X115979Y-3963D01*
X115877Y-4014D01*
X115768Y-4058D01*
X115648Y-4101D01*
X115521Y-4134D01*
X115386Y-4163D01*
X115244Y-4178D01*
X115095Y-4185D01*
X115044D01*
X115011Y-4181D01*
X114964Y-4178D01*
X114913Y-4174D01*
X114851Y-4167D01*
X114786Y-4156D01*
X114716Y-4145D01*
X114640Y-4131D01*
X114560Y-4112D01*
X114480Y-4090D01*
X114396Y-4065D01*
X114309Y-4032D01*
X114225Y-3999D01*
X114138Y-3959D01*
X114134Y-3956D01*
X114119Y-3949D01*
X114094Y-3934D01*
X114061Y-3916D01*
X114025Y-3894D01*
X113981Y-3865D01*
X113934Y-3832D01*
X113879Y-3792D01*
X113824Y-3748D01*
X113770Y-3697D01*
X113712Y-3643D01*
X113653Y-3585D01*
X113599Y-3519D01*
X113544Y-3450D01*
X113493Y-3377D01*
X113446Y-3297D01*
X113442Y-3293D01*
X113435Y-3275D01*
X113424Y-3253D01*
X113409Y-3217D01*
X113391Y-3177D01*
X113370Y-3126D01*
X113351Y-3064D01*
X113330Y-2998D01*
X113304Y-2922D01*
X113286Y-2842D01*
X113264Y-2755D01*
X113246Y-2660D01*
X113231Y-2558D01*
X113220Y-2452D01*
X113213Y-2343D01*
X113209Y-2227D01*
Y-2220D01*
Y-2205D01*
Y-2179D01*
X113213Y-2143D01*
X113217Y-2103D01*
X113220Y-2052D01*
X113227Y-1994D01*
X113239Y-1932D01*
X113253Y-1863D01*
X113268Y-1790D01*
X113286Y-1713D01*
X113308Y-1633D01*
X113337Y-1550D01*
X113370Y-1466D01*
X113406Y-1382D01*
X113446Y-1299D01*
X113450Y-1295D01*
X113457Y-1280D01*
X113471Y-1255D01*
X113490Y-1226D01*
X113515Y-1186D01*
X113544Y-1142D01*
X113577Y-1095D01*
X113617Y-1044D01*
X113664Y-989D01*
X113715Y-931D01*
X113770Y-876D01*
X113828Y-818D01*
X113894Y-764D01*
X113963Y-709D01*
X114036Y-658D01*
X114116Y-611D01*
X114119Y-607D01*
X114134Y-600D01*
X114159Y-589D01*
X114192Y-574D01*
X114232Y-556D01*
X114283Y-534D01*
X114338Y-512D01*
X114400Y-490D01*
X114469Y-469D01*
X114545Y-447D01*
X114625Y-425D01*
X114709Y-407D01*
X114800Y-392D01*
X114891Y-381D01*
X114989Y-374D01*
X115088Y-370D01*
X115124D01*
X115146Y-374D01*
D02*
G37*
G36*
X106231Y-450D02*
X106890D01*
Y-1218D01*
X106231D01*
Y-2693D01*
Y-2696D01*
Y-2711D01*
Y-2733D01*
Y-2765D01*
Y-2798D01*
Y-2838D01*
X106235Y-2926D01*
Y-3017D01*
X106239Y-3060D01*
Y-3104D01*
X106242Y-3140D01*
Y-3173D01*
X106246Y-3199D01*
X106250Y-3217D01*
Y-3221D01*
X106253Y-3228D01*
X106261Y-3242D01*
X106268Y-3260D01*
X106279Y-3279D01*
X106293Y-3297D01*
X106312Y-3319D01*
X106333Y-3337D01*
X106337Y-3341D01*
X106344Y-3344D01*
X106359Y-3351D01*
X106381Y-3359D01*
X106403Y-3370D01*
X106432Y-3377D01*
X106464Y-3381D01*
X106497Y-3384D01*
X106523D01*
X106552Y-3381D01*
X106596Y-3373D01*
X106650Y-3362D01*
X106719Y-3344D01*
X106796Y-3322D01*
X106887Y-3293D01*
X106970Y-4043D01*
X106967D01*
X106956Y-4050D01*
X106938Y-4058D01*
X106912Y-4065D01*
X106879Y-4076D01*
X106839Y-4087D01*
X106796Y-4101D01*
X106748Y-4112D01*
X106694Y-4127D01*
X106635Y-4141D01*
X106574Y-4152D01*
X106504Y-4163D01*
X106362Y-4178D01*
X106206Y-4185D01*
X106162D01*
X106140Y-4181D01*
X106115D01*
X106050Y-4174D01*
X105977Y-4163D01*
X105900Y-4149D01*
X105816Y-4127D01*
X105736Y-4098D01*
X105733D01*
X105729Y-4094D01*
X105718Y-4090D01*
X105704Y-4083D01*
X105667Y-4061D01*
X105620Y-4036D01*
X105569Y-4003D01*
X105522Y-3967D01*
X105471Y-3923D01*
X105431Y-3872D01*
X105427Y-3865D01*
X105416Y-3847D01*
X105398Y-3814D01*
X105376Y-3774D01*
X105354Y-3719D01*
X105332Y-3654D01*
X105310Y-3577D01*
X105296Y-3494D01*
Y-3490D01*
Y-3486D01*
X105292Y-3475D01*
Y-3461D01*
X105289Y-3439D01*
Y-3413D01*
X105285Y-3381D01*
X105281Y-3344D01*
X105278Y-3304D01*
Y-3253D01*
X105274Y-3199D01*
X105271Y-3137D01*
Y-3068D01*
X105267Y-2987D01*
Y-2904D01*
Y-2813D01*
Y-1218D01*
X104823D01*
Y-450D01*
X105267D01*
Y274D01*
X106231Y842D01*
Y-450D01*
D02*
G37*
G36*
X135483Y-3828D02*
Y-3832D01*
Y-3847D01*
Y-3868D01*
Y-3898D01*
X135479Y-3930D01*
Y-3974D01*
X135475Y-4018D01*
Y-4065D01*
X135464Y-4171D01*
X135453Y-4280D01*
X135435Y-4389D01*
X135424Y-4440D01*
X135410Y-4487D01*
Y-4491D01*
X135406Y-4498D01*
X135402Y-4509D01*
X135395Y-4527D01*
X135388Y-4549D01*
X135377Y-4575D01*
X135348Y-4633D01*
X135311Y-4698D01*
X135264Y-4771D01*
X135202Y-4848D01*
X135133Y-4920D01*
X135129Y-4924D01*
X135126Y-4928D01*
X135111Y-4939D01*
X135097Y-4953D01*
X135079Y-4968D01*
X135053Y-4986D01*
X135028Y-5008D01*
X134995Y-5029D01*
X134922Y-5080D01*
X134835Y-5131D01*
X134733Y-5179D01*
X134624Y-5226D01*
X134438Y-4829D01*
X134441D01*
X134452Y-4826D01*
X134467Y-4818D01*
X134485Y-4811D01*
X134511Y-4800D01*
X134536Y-4789D01*
X134598Y-4760D01*
X134667Y-4720D01*
X134736Y-4673D01*
X134798Y-4622D01*
X134827Y-4593D01*
X134853Y-4560D01*
Y-4556D01*
X134856Y-4553D01*
X134864Y-4542D01*
X134871Y-4531D01*
X134882Y-4513D01*
X134893Y-4491D01*
X134915Y-4440D01*
X134940Y-4374D01*
X134962Y-4294D01*
X134976Y-4203D01*
X134984Y-4101D01*
X134518D01*
Y-3137D01*
X135483D01*
Y-3828D01*
D02*
G37*
G36*
X167627Y95995D02*
X165695D01*
Y97781D01*
X167627D01*
Y95995D01*
D02*
G37*
G36*
X126904D02*
X124973D01*
Y97781D01*
X126904D01*
Y95995D01*
D02*
G37*
G36*
X151545Y94755D02*
X150801Y93895D01*
X150808Y93888D01*
X150823Y93873D01*
X150845Y93844D01*
X150867Y93808D01*
X150903Y93764D01*
X150947Y93706D01*
X150991Y93640D01*
X151042Y93567D01*
X151093Y93487D01*
X151144Y93400D01*
X151253Y93203D01*
X151355Y92977D01*
X151450Y92736D01*
Y92729D01*
X151457Y92707D01*
X151472Y92671D01*
X151486Y92620D01*
X151508Y92561D01*
X151523Y92488D01*
X151545Y92401D01*
X151574Y92306D01*
X151596Y92204D01*
X151618Y92095D01*
X151654Y91861D01*
X151683Y91599D01*
X151690Y91329D01*
Y91322D01*
Y91307D01*
Y91285D01*
Y91256D01*
X151683Y91220D01*
Y91169D01*
X151676Y91059D01*
X151654Y90921D01*
X151632Y90753D01*
X151603Y90571D01*
X151552Y90374D01*
X151501Y90170D01*
X151428Y89951D01*
X151341Y89725D01*
X151231Y89492D01*
X151107Y89266D01*
X150961Y89040D01*
X150794Y88821D01*
X150604Y88610D01*
X150590Y88595D01*
X150553Y88566D01*
X150495Y88508D01*
X150408Y88442D01*
X150305Y88355D01*
X150174Y88267D01*
X150028Y88165D01*
X149861Y88070D01*
X149671Y87968D01*
X149467Y87866D01*
X149248Y87779D01*
X149008Y87691D01*
X148753Y87626D01*
X148476Y87568D01*
X148191Y87538D01*
X147892Y87524D01*
X147841D01*
X147776Y87531D01*
X147696D01*
X147594Y87538D01*
X147470Y87553D01*
X147338Y87575D01*
X147185Y87597D01*
X147025Y87626D01*
X146857Y87662D01*
X146682Y87713D01*
X146507Y87764D01*
X146325Y87830D01*
X146143Y87910D01*
X145961Y87998D01*
X145786Y88100D01*
X144991Y87188D01*
X144233Y87837D01*
X145035Y88763D01*
X145027Y88770D01*
X145020Y88785D01*
X144998Y88814D01*
X144969Y88850D01*
X144933Y88902D01*
X144889Y88960D01*
X144845Y89025D01*
X144794Y89098D01*
X144743Y89179D01*
X144692Y89273D01*
X144583Y89470D01*
X144473Y89704D01*
X144379Y89951D01*
Y89959D01*
X144371Y89981D01*
X144357Y90024D01*
X144342Y90075D01*
X144328Y90134D01*
X144306Y90214D01*
X144284Y90294D01*
X144262Y90396D01*
X144240Y90498D01*
X144218Y90607D01*
X144182Y90848D01*
X144153Y91110D01*
X144145Y91380D01*
Y91387D01*
Y91402D01*
Y91424D01*
Y91453D01*
X144153Y91489D01*
Y91541D01*
X144160Y91657D01*
X144175Y91796D01*
X144204Y91963D01*
X144233Y92146D01*
X144277Y92343D01*
X144335Y92554D01*
X144401Y92773D01*
X144488Y92999D01*
X144590Y93225D01*
X144707Y93450D01*
X144852Y93677D01*
X145013Y93895D01*
X145195Y94099D01*
X145210Y94114D01*
X145246Y94143D01*
X145305Y94201D01*
X145385Y94267D01*
X145494Y94347D01*
X145618Y94435D01*
X145764Y94529D01*
X145931Y94631D01*
X146114Y94734D01*
X146325Y94828D01*
X146544Y94916D01*
X146784Y94996D01*
X147039Y95069D01*
X147317Y95120D01*
X147601Y95149D01*
X147907Y95164D01*
X147958D01*
X148024Y95156D01*
X148111D01*
X148221Y95142D01*
X148344Y95135D01*
X148483Y95113D01*
X148636Y95091D01*
X148796Y95054D01*
X148971Y95018D01*
X149146Y94967D01*
X149329Y94908D01*
X149518Y94843D01*
X149700Y94755D01*
X149883Y94668D01*
X150058Y94559D01*
X150772Y95390D01*
X151545Y94755D01*
D02*
G37*
G36*
X194424Y95156D02*
X194548Y95149D01*
X194687Y95135D01*
X194847Y95120D01*
X195022Y95105D01*
X195197Y95076D01*
X195379Y95040D01*
X195569Y95003D01*
X195751Y94952D01*
X195933Y94901D01*
X196101Y94828D01*
X196262Y94755D01*
X196407Y94668D01*
X196415Y94661D01*
X196437Y94646D01*
X196480Y94617D01*
X196524Y94581D01*
X196582Y94522D01*
X196655Y94464D01*
X196728Y94391D01*
X196808Y94304D01*
X196888Y94209D01*
X196976Y94099D01*
X197056Y93983D01*
X197136Y93852D01*
X197217Y93713D01*
X197290Y93560D01*
X197355Y93400D01*
X197413Y93225D01*
X195591Y92889D01*
Y92896D01*
X195584Y92911D01*
X195576Y92933D01*
X195569Y92962D01*
X195533Y93035D01*
X195489Y93130D01*
X195423Y93232D01*
X195350Y93341D01*
X195256Y93443D01*
X195139Y93538D01*
X195124Y93545D01*
X195103Y93560D01*
X195081Y93575D01*
X195044Y93589D01*
X195008Y93611D01*
X194906Y93655D01*
X194774Y93698D01*
X194614Y93735D01*
X194424Y93764D01*
X194213Y93771D01*
X194089D01*
X194024Y93764D01*
X193951Y93757D01*
X193878D01*
X193790Y93742D01*
X193608Y93720D01*
X193426Y93677D01*
X193258Y93625D01*
X193185Y93589D01*
X193120Y93553D01*
X193112Y93545D01*
X193083Y93523D01*
X193054Y93494D01*
X193010Y93450D01*
X192974Y93392D01*
X192937Y93327D01*
X192908Y93246D01*
X192901Y93159D01*
Y93152D01*
Y93123D01*
X192908Y93086D01*
X192923Y93042D01*
X192945Y92984D01*
X192981Y92926D01*
X193025Y92867D01*
X193090Y92809D01*
X193105Y92802D01*
X193127Y92787D01*
X193156Y92773D01*
X193200Y92758D01*
X193258Y92729D01*
X193324Y92700D01*
X193411Y92671D01*
X193521Y92634D01*
X193644Y92598D01*
X193790Y92547D01*
X193958Y92503D01*
X194155Y92452D01*
X194374Y92393D01*
X194614Y92335D01*
X194753Y92299D01*
X194891Y92270D01*
X194898D01*
X194906Y92262D01*
X194928D01*
X194957Y92255D01*
X195037Y92233D01*
X195139Y92204D01*
X195270Y92175D01*
X195416Y92131D01*
X195569Y92087D01*
X195744Y92029D01*
X196094Y91905D01*
X196276Y91832D01*
X196451Y91759D01*
X196626Y91679D01*
X196779Y91592D01*
X196925Y91504D01*
X197049Y91409D01*
X197056Y91402D01*
X197078Y91387D01*
X197107Y91358D01*
X197144Y91315D01*
X197195Y91264D01*
X197246Y91198D01*
X197297Y91125D01*
X197355Y91037D01*
X197413Y90935D01*
X197465Y90833D01*
X197523Y90717D01*
X197566Y90586D01*
X197603Y90447D01*
X197632Y90301D01*
X197654Y90141D01*
X197661Y89973D01*
Y89959D01*
Y89929D01*
X197654Y89878D01*
X197647Y89806D01*
X197632Y89718D01*
X197617Y89616D01*
X197588Y89507D01*
X197559Y89383D01*
X197508Y89252D01*
X197457Y89113D01*
X197384Y88967D01*
X197304Y88821D01*
X197209Y88676D01*
X197093Y88530D01*
X196961Y88384D01*
X196816Y88245D01*
X196808Y88238D01*
X196779Y88216D01*
X196728Y88180D01*
X196663Y88136D01*
X196568Y88078D01*
X196466Y88020D01*
X196335Y87954D01*
X196189Y87888D01*
X196028Y87815D01*
X195839Y87750D01*
X195642Y87691D01*
X195416Y87640D01*
X195175Y87589D01*
X194913Y87553D01*
X194636Y87531D01*
X194337Y87524D01*
X194271D01*
X194191Y87531D01*
X194089D01*
X193965Y87546D01*
X193819Y87553D01*
X193659Y87575D01*
X193484Y87597D01*
X193295Y87633D01*
X193105Y87670D01*
X192908Y87721D01*
X192704Y87779D01*
X192515Y87852D01*
X192318Y87932D01*
X192136Y88020D01*
X191968Y88129D01*
X191961Y88136D01*
X191931Y88158D01*
X191888Y88194D01*
X191829Y88238D01*
X191756Y88304D01*
X191676Y88377D01*
X191596Y88464D01*
X191501Y88559D01*
X191407Y88676D01*
X191312Y88800D01*
X191217Y88931D01*
X191122Y89077D01*
X191042Y89237D01*
X190962Y89405D01*
X190896Y89587D01*
X190838Y89776D01*
X192777Y90075D01*
Y90068D01*
X192784Y90053D01*
X192792Y90024D01*
X192799Y89981D01*
X192813Y89937D01*
X192835Y89878D01*
X192886Y89754D01*
X192952Y89616D01*
X193032Y89470D01*
X193141Y89339D01*
X193273Y89215D01*
X193280D01*
X193287Y89201D01*
X193309Y89186D01*
X193346Y89171D01*
X193382Y89149D01*
X193426Y89120D01*
X193484Y89098D01*
X193550Y89069D01*
X193623Y89040D01*
X193703Y89018D01*
X193790Y88989D01*
X193885Y88967D01*
X193987Y88953D01*
X194097Y88938D01*
X194213Y88924D01*
X194410D01*
X194461Y88931D01*
X194527D01*
X194592Y88938D01*
X194672Y88945D01*
X194760Y88960D01*
X194942Y88989D01*
X195132Y89040D01*
X195307Y89106D01*
X195394Y89149D01*
X195467Y89193D01*
X195482Y89201D01*
X195511Y89230D01*
X195547Y89273D01*
X195598Y89332D01*
X195642Y89405D01*
X195686Y89492D01*
X195715Y89594D01*
X195722Y89711D01*
Y89718D01*
Y89747D01*
X195715Y89791D01*
X195708Y89842D01*
X195686Y89893D01*
X195664Y89959D01*
X195627Y90017D01*
X195584Y90075D01*
X195576Y90083D01*
X195554Y90097D01*
X195511Y90126D01*
X195445Y90163D01*
X195365Y90199D01*
X195248Y90243D01*
X195183Y90265D01*
X195110Y90287D01*
X195022Y90309D01*
X194935Y90330D01*
X194928D01*
X194906Y90338D01*
X194877Y90345D01*
X194833Y90352D01*
X194782Y90367D01*
X194716Y90381D01*
X194643Y90396D01*
X194563Y90418D01*
X194468Y90440D01*
X194374Y90462D01*
X194162Y90520D01*
X193929Y90578D01*
X193688Y90644D01*
X193433Y90710D01*
X193185Y90790D01*
X192937Y90863D01*
X192697Y90943D01*
X192478Y91030D01*
X192274Y91110D01*
X192186Y91147D01*
X192106Y91191D01*
X192033Y91234D01*
X191968Y91271D01*
X191961Y91278D01*
X191931Y91300D01*
X191888Y91329D01*
X191837Y91380D01*
X191771Y91439D01*
X191698Y91511D01*
X191618Y91599D01*
X191538Y91701D01*
X191457Y91810D01*
X191377Y91934D01*
X191304Y92065D01*
X191239Y92219D01*
X191188Y92372D01*
X191144Y92547D01*
X191115Y92729D01*
X191108Y92918D01*
Y92933D01*
Y92962D01*
X191115Y93013D01*
X191122Y93079D01*
X191129Y93159D01*
X191144Y93254D01*
X191173Y93356D01*
X191202Y93472D01*
X191239Y93596D01*
X191290Y93728D01*
X191348Y93859D01*
X191421Y93990D01*
X191508Y94129D01*
X191603Y94260D01*
X191720Y94391D01*
X191851Y94515D01*
X191858Y94522D01*
X191888Y94544D01*
X191931Y94573D01*
X191997Y94617D01*
X192077Y94668D01*
X192172Y94719D01*
X192289Y94777D01*
X192427Y94843D01*
X192580Y94901D01*
X192748Y94960D01*
X192937Y95011D01*
X193149Y95062D01*
X193375Y95105D01*
X193623Y95135D01*
X193892Y95156D01*
X194177Y95164D01*
X194323D01*
X194424Y95156D01*
D02*
G37*
G36*
X131789D02*
X131913Y95149D01*
X132051Y95135D01*
X132212Y95120D01*
X132387Y95105D01*
X132562Y95076D01*
X132744Y95040D01*
X132933Y95003D01*
X133116Y94952D01*
X133298Y94901D01*
X133466Y94828D01*
X133626Y94755D01*
X133772Y94668D01*
X133779Y94661D01*
X133801Y94646D01*
X133845Y94617D01*
X133888Y94581D01*
X133947Y94522D01*
X134020Y94464D01*
X134092Y94391D01*
X134173Y94304D01*
X134253Y94209D01*
X134340Y94099D01*
X134421Y93983D01*
X134501Y93852D01*
X134581Y93713D01*
X134654Y93560D01*
X134719Y93400D01*
X134778Y93225D01*
X132955Y92889D01*
Y92896D01*
X132948Y92911D01*
X132941Y92933D01*
X132933Y92962D01*
X132897Y93035D01*
X132853Y93130D01*
X132788Y93232D01*
X132715Y93341D01*
X132620Y93443D01*
X132503Y93538D01*
X132489Y93545D01*
X132467Y93560D01*
X132445Y93575D01*
X132408Y93589D01*
X132372Y93611D01*
X132270Y93655D01*
X132139Y93698D01*
X131978Y93735D01*
X131789Y93764D01*
X131577Y93771D01*
X131454D01*
X131388Y93764D01*
X131315Y93757D01*
X131242D01*
X131155Y93742D01*
X130972Y93720D01*
X130790Y93677D01*
X130622Y93625D01*
X130550Y93589D01*
X130484Y93553D01*
X130477Y93545D01*
X130447Y93523D01*
X130418Y93494D01*
X130375Y93450D01*
X130338Y93392D01*
X130302Y93327D01*
X130272Y93246D01*
X130265Y93159D01*
Y93152D01*
Y93123D01*
X130272Y93086D01*
X130287Y93042D01*
X130309Y92984D01*
X130345Y92926D01*
X130389Y92867D01*
X130455Y92809D01*
X130469Y92802D01*
X130491Y92787D01*
X130520Y92773D01*
X130564Y92758D01*
X130622Y92729D01*
X130688Y92700D01*
X130775Y92671D01*
X130885Y92634D01*
X131009Y92598D01*
X131155Y92547D01*
X131322Y92503D01*
X131519Y92452D01*
X131738Y92393D01*
X131978Y92335D01*
X132117Y92299D01*
X132255Y92270D01*
X132263D01*
X132270Y92262D01*
X132292D01*
X132321Y92255D01*
X132401Y92233D01*
X132503Y92204D01*
X132634Y92175D01*
X132780Y92131D01*
X132933Y92087D01*
X133108Y92029D01*
X133458Y91905D01*
X133641Y91832D01*
X133816Y91759D01*
X133990Y91679D01*
X134143Y91592D01*
X134289Y91504D01*
X134413Y91409D01*
X134421Y91402D01*
X134442Y91387D01*
X134472Y91358D01*
X134508Y91315D01*
X134559Y91264D01*
X134610Y91198D01*
X134661Y91125D01*
X134719Y91037D01*
X134778Y90935D01*
X134829Y90833D01*
X134887Y90717D01*
X134931Y90586D01*
X134967Y90447D01*
X134996Y90301D01*
X135018Y90141D01*
X135026Y89973D01*
Y89959D01*
Y89929D01*
X135018Y89878D01*
X135011Y89806D01*
X134996Y89718D01*
X134982Y89616D01*
X134953Y89507D01*
X134924Y89383D01*
X134872Y89252D01*
X134821Y89113D01*
X134749Y88967D01*
X134668Y88821D01*
X134574Y88676D01*
X134457Y88530D01*
X134326Y88384D01*
X134180Y88245D01*
X134173Y88238D01*
X134143Y88216D01*
X134092Y88180D01*
X134027Y88136D01*
X133932Y88078D01*
X133830Y88020D01*
X133699Y87954D01*
X133553Y87888D01*
X133393Y87815D01*
X133203Y87750D01*
X133006Y87691D01*
X132780Y87640D01*
X132540Y87589D01*
X132277Y87553D01*
X132000Y87531D01*
X131701Y87524D01*
X131636D01*
X131556Y87531D01*
X131454D01*
X131330Y87546D01*
X131184Y87553D01*
X131023Y87575D01*
X130848Y87597D01*
X130659Y87633D01*
X130469Y87670D01*
X130272Y87721D01*
X130068Y87779D01*
X129879Y87852D01*
X129682Y87932D01*
X129500Y88020D01*
X129332Y88129D01*
X129325Y88136D01*
X129296Y88158D01*
X129252Y88194D01*
X129194Y88238D01*
X129121Y88304D01*
X129041Y88377D01*
X128960Y88464D01*
X128866Y88559D01*
X128771Y88676D01*
X128676Y88800D01*
X128581Y88931D01*
X128487Y89077D01*
X128406Y89237D01*
X128326Y89405D01*
X128261Y89587D01*
X128202Y89776D01*
X130141Y90075D01*
Y90068D01*
X130149Y90053D01*
X130156Y90024D01*
X130163Y89981D01*
X130178Y89937D01*
X130200Y89878D01*
X130251Y89754D01*
X130316Y89616D01*
X130396Y89470D01*
X130506Y89339D01*
X130637Y89215D01*
X130644D01*
X130652Y89201D01*
X130674Y89186D01*
X130710Y89171D01*
X130746Y89149D01*
X130790Y89120D01*
X130848Y89098D01*
X130914Y89069D01*
X130987Y89040D01*
X131067Y89018D01*
X131155Y88989D01*
X131249Y88967D01*
X131351Y88953D01*
X131461Y88938D01*
X131577Y88924D01*
X131774D01*
X131825Y88931D01*
X131891D01*
X131957Y88938D01*
X132037Y88945D01*
X132124Y88960D01*
X132306Y88989D01*
X132496Y89040D01*
X132671Y89106D01*
X132758Y89149D01*
X132831Y89193D01*
X132846Y89201D01*
X132875Y89230D01*
X132912Y89273D01*
X132963Y89332D01*
X133006Y89405D01*
X133050Y89492D01*
X133079Y89594D01*
X133087Y89711D01*
Y89718D01*
Y89747D01*
X133079Y89791D01*
X133072Y89842D01*
X133050Y89893D01*
X133028Y89959D01*
X132992Y90017D01*
X132948Y90075D01*
X132941Y90083D01*
X132919Y90097D01*
X132875Y90126D01*
X132809Y90163D01*
X132729Y90199D01*
X132613Y90243D01*
X132547Y90265D01*
X132474Y90287D01*
X132387Y90309D01*
X132299Y90330D01*
X132292D01*
X132270Y90338D01*
X132241Y90345D01*
X132197Y90352D01*
X132146Y90367D01*
X132080Y90381D01*
X132008Y90396D01*
X131927Y90418D01*
X131833Y90440D01*
X131738Y90462D01*
X131526Y90520D01*
X131293Y90578D01*
X131052Y90644D01*
X130797Y90710D01*
X130550Y90790D01*
X130302Y90863D01*
X130061Y90943D01*
X129842Y91030D01*
X129638Y91110D01*
X129551Y91147D01*
X129471Y91191D01*
X129398Y91234D01*
X129332Y91271D01*
X129325Y91278D01*
X129296Y91300D01*
X129252Y91329D01*
X129201Y91380D01*
X129135Y91439D01*
X129062Y91511D01*
X128982Y91599D01*
X128902Y91701D01*
X128822Y91810D01*
X128742Y91934D01*
X128669Y92065D01*
X128603Y92219D01*
X128552Y92372D01*
X128508Y92547D01*
X128479Y92729D01*
X128472Y92918D01*
Y92933D01*
Y92962D01*
X128479Y93013D01*
X128487Y93079D01*
X128494Y93159D01*
X128508Y93254D01*
X128537Y93356D01*
X128567Y93472D01*
X128603Y93596D01*
X128654Y93728D01*
X128712Y93859D01*
X128785Y93990D01*
X128873Y94129D01*
X128968Y94260D01*
X129084Y94391D01*
X129216Y94515D01*
X129223Y94522D01*
X129252Y94544D01*
X129296Y94573D01*
X129361Y94617D01*
X129441Y94668D01*
X129536Y94719D01*
X129653Y94777D01*
X129791Y94843D01*
X129945Y94901D01*
X130112Y94960D01*
X130302Y95011D01*
X130513Y95062D01*
X130739Y95105D01*
X130987Y95135D01*
X131257Y95156D01*
X131541Y95164D01*
X131687D01*
X131789Y95156D01*
D02*
G37*
G36*
X140056D02*
X140172Y95149D01*
X140304Y95135D01*
X140449Y95113D01*
X140602Y95091D01*
X140770Y95062D01*
X140938Y95025D01*
X141120Y94974D01*
X141295Y94916D01*
X141470Y94850D01*
X141645Y94770D01*
X141805Y94683D01*
X141958Y94581D01*
X141966Y94573D01*
X141995Y94551D01*
X142031Y94522D01*
X142090Y94471D01*
X142155Y94413D01*
X142228Y94340D01*
X142308Y94245D01*
X142396Y94143D01*
X142491Y94034D01*
X142585Y93902D01*
X142680Y93757D01*
X142768Y93596D01*
X142862Y93429D01*
X142950Y93246D01*
X143023Y93042D01*
X143096Y92831D01*
X141193Y92488D01*
Y92496D01*
X141186Y92510D01*
X141178Y92539D01*
X141171Y92583D01*
X141156Y92627D01*
X141142Y92685D01*
X141098Y92809D01*
X141040Y92948D01*
X140960Y93093D01*
X140865Y93225D01*
X140748Y93348D01*
X140741D01*
X140734Y93363D01*
X140712Y93378D01*
X140690Y93392D01*
X140610Y93443D01*
X140508Y93494D01*
X140384Y93545D01*
X140231Y93596D01*
X140056Y93625D01*
X139866Y93640D01*
X139793D01*
X139742Y93633D01*
X139684Y93625D01*
X139611Y93611D01*
X139531Y93596D01*
X139451Y93575D01*
X139356Y93553D01*
X139261Y93516D01*
X139166Y93480D01*
X139072Y93429D01*
X138977Y93370D01*
X138882Y93305D01*
X138795Y93225D01*
X138707Y93137D01*
X138700Y93130D01*
X138685Y93115D01*
X138671Y93086D01*
X138641Y93042D01*
X138605Y92984D01*
X138568Y92918D01*
X138532Y92838D01*
X138496Y92743D01*
X138452Y92634D01*
X138416Y92510D01*
X138379Y92372D01*
X138343Y92226D01*
X138313Y92058D01*
X138299Y91876D01*
X138284Y91679D01*
X138277Y91468D01*
Y91453D01*
Y91409D01*
Y91344D01*
X138284Y91256D01*
X138292Y91147D01*
X138299Y91030D01*
X138313Y90892D01*
X138335Y90753D01*
X138386Y90447D01*
X138423Y90294D01*
X138459Y90148D01*
X138510Y90002D01*
X138568Y89864D01*
X138634Y89740D01*
X138714Y89631D01*
X138722Y89623D01*
X138736Y89609D01*
X138758Y89579D01*
X138795Y89550D01*
X138838Y89507D01*
X138889Y89463D01*
X138955Y89412D01*
X139028Y89368D01*
X139108Y89317D01*
X139196Y89266D01*
X139290Y89222D01*
X139392Y89179D01*
X139509Y89149D01*
X139626Y89120D01*
X139757Y89106D01*
X139888Y89098D01*
X139939D01*
X139983Y89106D01*
X140026D01*
X140078Y89113D01*
X140209Y89135D01*
X140347Y89179D01*
X140500Y89230D01*
X140646Y89310D01*
X140719Y89354D01*
X140785Y89412D01*
X140792Y89419D01*
X140799Y89426D01*
X140821Y89448D01*
X140843Y89470D01*
X140872Y89507D01*
X140909Y89550D01*
X140945Y89601D01*
X140981Y89667D01*
X141025Y89733D01*
X141062Y89813D01*
X141105Y89900D01*
X141149Y90002D01*
X141186Y90104D01*
X141222Y90228D01*
X141259Y90352D01*
X141288Y90491D01*
X143190Y90170D01*
Y90156D01*
X143176Y90112D01*
X143154Y90046D01*
X143132Y89951D01*
X143096Y89842D01*
X143052Y89718D01*
X143001Y89579D01*
X142935Y89434D01*
X142862Y89273D01*
X142782Y89113D01*
X142687Y88945D01*
X142585Y88778D01*
X142469Y88617D01*
X142345Y88464D01*
X142206Y88318D01*
X142053Y88187D01*
X142046Y88180D01*
X142017Y88158D01*
X141966Y88129D01*
X141900Y88085D01*
X141813Y88034D01*
X141710Y87976D01*
X141594Y87917D01*
X141455Y87859D01*
X141302Y87793D01*
X141135Y87735D01*
X140952Y87677D01*
X140748Y87626D01*
X140537Y87582D01*
X140304Y87553D01*
X140056Y87531D01*
X139801Y87524D01*
X139728D01*
X139691Y87531D01*
X139647D01*
X139538Y87538D01*
X139400Y87553D01*
X139246Y87575D01*
X139072Y87611D01*
X138882Y87648D01*
X138678Y87706D01*
X138474Y87772D01*
X138255Y87852D01*
X138044Y87947D01*
X137832Y88063D01*
X137628Y88194D01*
X137431Y88355D01*
X137242Y88530D01*
X137234Y88544D01*
X137198Y88573D01*
X137154Y88632D01*
X137096Y88719D01*
X137023Y88821D01*
X136943Y88945D01*
X136855Y89091D01*
X136768Y89259D01*
X136680Y89448D01*
X136593Y89660D01*
X136513Y89893D01*
X136440Y90141D01*
X136381Y90411D01*
X136338Y90702D01*
X136301Y91008D01*
X136294Y91336D01*
Y91344D01*
Y91358D01*
Y91380D01*
Y91417D01*
X136301Y91460D01*
Y91511D01*
Y91570D01*
X136309Y91635D01*
X136323Y91788D01*
X136345Y91963D01*
X136374Y92153D01*
X136411Y92364D01*
X136462Y92590D01*
X136527Y92816D01*
X136608Y93050D01*
X136695Y93290D01*
X136804Y93516D01*
X136936Y93742D01*
X137081Y93954D01*
X137249Y94150D01*
X137264Y94165D01*
X137293Y94194D01*
X137351Y94245D01*
X137424Y94311D01*
X137519Y94384D01*
X137635Y94471D01*
X137774Y94566D01*
X137934Y94661D01*
X138109Y94748D01*
X138299Y94843D01*
X138510Y94930D01*
X138743Y95003D01*
X138991Y95069D01*
X139254Y95120D01*
X139538Y95149D01*
X139837Y95164D01*
X139968D01*
X140056Y95156D01*
D02*
G37*
G36*
X180143Y94063D02*
X180158Y94077D01*
X180187Y94114D01*
X180238Y94165D01*
X180311Y94238D01*
X180399Y94318D01*
X180508Y94413D01*
X180632Y94508D01*
X180770Y94617D01*
X180931Y94719D01*
X181098Y94814D01*
X181288Y94908D01*
X181485Y94989D01*
X181689Y95062D01*
X181908Y95120D01*
X182141Y95149D01*
X182381Y95164D01*
X182491D01*
X182549Y95156D01*
X182622Y95149D01*
X182695Y95142D01*
X182782Y95135D01*
X182965Y95105D01*
X183169Y95062D01*
X183373Y94996D01*
X183577Y94916D01*
X183584D01*
X183599Y94901D01*
X183628Y94894D01*
X183665Y94872D01*
X183708Y94850D01*
X183759Y94814D01*
X183883Y94741D01*
X184014Y94653D01*
X184146Y94544D01*
X184277Y94420D01*
X184386Y94282D01*
Y94274D01*
X184401Y94267D01*
X184415Y94245D01*
X184430Y94216D01*
X184452Y94179D01*
X184481Y94136D01*
X184539Y94026D01*
X184598Y93902D01*
X184663Y93757D01*
X184722Y93596D01*
X184765Y93421D01*
Y93414D01*
X184773Y93400D01*
Y93370D01*
X184780Y93334D01*
X184787Y93283D01*
X184794Y93225D01*
X184809Y93152D01*
X184816Y93064D01*
X184824Y92969D01*
X184838Y92867D01*
X184845Y92743D01*
X184853Y92620D01*
X184860Y92474D01*
Y92321D01*
X184867Y92153D01*
Y91978D01*
Y87691D01*
X182936D01*
Y91548D01*
Y91562D01*
Y91599D01*
Y91657D01*
Y91730D01*
Y91825D01*
X182928Y91927D01*
Y92044D01*
X182921Y92160D01*
X182906Y92408D01*
X182899Y92532D01*
X182884Y92649D01*
X182870Y92758D01*
X182855Y92853D01*
X182841Y92940D01*
X182819Y93006D01*
X182812Y93020D01*
X182797Y93057D01*
X182768Y93115D01*
X182731Y93181D01*
X182680Y93261D01*
X182607Y93341D01*
X182527Y93421D01*
X182432Y93494D01*
X182418Y93502D01*
X182381Y93523D01*
X182323Y93553D01*
X182243Y93589D01*
X182141Y93625D01*
X182024Y93655D01*
X181886Y93677D01*
X181733Y93684D01*
X181652D01*
X181609Y93677D01*
X181558Y93669D01*
X181448Y93655D01*
X181310Y93625D01*
X181164Y93582D01*
X181018Y93523D01*
X180872Y93443D01*
X180865D01*
X180858Y93436D01*
X180814Y93400D01*
X180741Y93341D01*
X180661Y93268D01*
X180573Y93166D01*
X180479Y93050D01*
X180391Y92904D01*
X180318Y92736D01*
Y92729D01*
X180311Y92714D01*
X180304Y92685D01*
X180289Y92649D01*
X180275Y92598D01*
X180260Y92539D01*
X180245Y92466D01*
X180231Y92386D01*
X180216Y92299D01*
X180202Y92197D01*
X180187Y92080D01*
X180173Y91956D01*
X180158Y91818D01*
X180151Y91672D01*
X180143Y91519D01*
Y91351D01*
Y87691D01*
X178212D01*
Y97781D01*
X180143D01*
Y94063D01*
D02*
G37*
G36*
X167627Y87691D02*
X165695D01*
Y95003D01*
X167627D01*
Y87691D01*
D02*
G37*
G36*
X159185Y89397D02*
X164251D01*
Y87691D01*
X157151D01*
Y97693D01*
X159185D01*
Y89397D01*
D02*
G37*
G36*
X126904Y87691D02*
X124973D01*
Y95003D01*
X126904D01*
Y87691D01*
D02*
G37*
G36*
X118834Y97773D02*
X118958D01*
X119090Y97766D01*
X119236Y97759D01*
X119389Y97744D01*
X119542Y97730D01*
X119862Y97701D01*
X120016Y97679D01*
X120169Y97650D01*
X120307Y97620D01*
X120438Y97584D01*
X120446D01*
X120475Y97569D01*
X120526Y97555D01*
X120584Y97533D01*
X120664Y97504D01*
X120752Y97467D01*
X120854Y97424D01*
X120963Y97373D01*
X121080Y97307D01*
X121204Y97241D01*
X121328Y97161D01*
X121459Y97081D01*
X121583Y96986D01*
X121714Y96884D01*
X121838Y96775D01*
X121962Y96651D01*
X121969Y96644D01*
X121991Y96622D01*
X122020Y96585D01*
X122064Y96534D01*
X122122Y96469D01*
X122181Y96388D01*
X122246Y96301D01*
X122319Y96199D01*
X122399Y96082D01*
X122472Y95958D01*
X122552Y95827D01*
X122633Y95681D01*
X122713Y95528D01*
X122786Y95368D01*
X122859Y95193D01*
X122924Y95018D01*
X122932Y95011D01*
X122939Y94974D01*
X122953Y94923D01*
X122975Y94843D01*
X123004Y94748D01*
X123033Y94639D01*
X123063Y94508D01*
X123092Y94362D01*
X123121Y94194D01*
X123150Y94012D01*
X123179Y93815D01*
X123208Y93604D01*
X123230Y93385D01*
X123245Y93144D01*
X123259Y92896D01*
Y92634D01*
Y92620D01*
Y92576D01*
Y92510D01*
X123252Y92423D01*
Y92321D01*
X123245Y92189D01*
X123230Y92051D01*
X123223Y91898D01*
X123201Y91737D01*
X123187Y91562D01*
X123128Y91205D01*
X123048Y90841D01*
X123004Y90666D01*
X122946Y90491D01*
X122939Y90476D01*
X122932Y90440D01*
X122910Y90381D01*
X122873Y90309D01*
X122837Y90214D01*
X122793Y90104D01*
X122735Y89988D01*
X122669Y89857D01*
X122596Y89718D01*
X122516Y89572D01*
X122429Y89426D01*
X122334Y89273D01*
X122224Y89128D01*
X122115Y88982D01*
X121998Y88836D01*
X121867Y88705D01*
X121860Y88697D01*
X121845Y88683D01*
X121809Y88654D01*
X121772Y88617D01*
X121714Y88573D01*
X121649Y88530D01*
X121575Y88472D01*
X121488Y88413D01*
X121393Y88348D01*
X121284Y88282D01*
X121167Y88216D01*
X121043Y88151D01*
X120905Y88085D01*
X120759Y88020D01*
X120606Y87961D01*
X120438Y87903D01*
X120431D01*
X120409Y87896D01*
X120365Y87881D01*
X120314Y87874D01*
X120249Y87852D01*
X120161Y87837D01*
X120066Y87815D01*
X119957Y87801D01*
X119833Y87779D01*
X119702Y87757D01*
X119549Y87743D01*
X119389Y87728D01*
X119214Y87713D01*
X119031Y87699D01*
X118834Y87691D01*
X114803D01*
Y97781D01*
X118725D01*
X118834Y97773D01*
D02*
G37*
G36*
X188848Y95003D02*
X190167D01*
Y93465D01*
X188848D01*
Y90513D01*
Y90505D01*
Y90476D01*
Y90433D01*
Y90367D01*
Y90301D01*
Y90221D01*
X188855Y90046D01*
Y89864D01*
X188862Y89776D01*
Y89689D01*
X188870Y89616D01*
Y89550D01*
X188877Y89499D01*
X188884Y89463D01*
Y89456D01*
X188891Y89441D01*
X188906Y89412D01*
X188921Y89375D01*
X188942Y89339D01*
X188972Y89302D01*
X189008Y89259D01*
X189052Y89222D01*
X189059Y89215D01*
X189074Y89208D01*
X189103Y89193D01*
X189147Y89179D01*
X189190Y89157D01*
X189249Y89142D01*
X189314Y89135D01*
X189380Y89128D01*
X189431D01*
X189489Y89135D01*
X189577Y89149D01*
X189686Y89171D01*
X189824Y89208D01*
X189978Y89252D01*
X190160Y89310D01*
X190328Y87808D01*
X190320D01*
X190298Y87793D01*
X190262Y87779D01*
X190211Y87764D01*
X190145Y87743D01*
X190065Y87721D01*
X189978Y87691D01*
X189883Y87670D01*
X189773Y87640D01*
X189657Y87611D01*
X189533Y87589D01*
X189394Y87568D01*
X189110Y87538D01*
X188797Y87524D01*
X188709D01*
X188665Y87531D01*
X188614D01*
X188483Y87546D01*
X188337Y87568D01*
X188184Y87597D01*
X188017Y87640D01*
X187856Y87699D01*
X187849D01*
X187842Y87706D01*
X187820Y87713D01*
X187791Y87728D01*
X187718Y87772D01*
X187623Y87823D01*
X187521Y87888D01*
X187426Y87961D01*
X187324Y88049D01*
X187244Y88151D01*
X187237Y88165D01*
X187215Y88202D01*
X187178Y88267D01*
X187135Y88348D01*
X187091Y88457D01*
X187047Y88588D01*
X187003Y88741D01*
X186974Y88909D01*
Y88916D01*
Y88924D01*
X186967Y88945D01*
Y88974D01*
X186960Y89018D01*
Y89069D01*
X186952Y89135D01*
X186945Y89208D01*
X186938Y89288D01*
Y89390D01*
X186930Y89499D01*
X186923Y89623D01*
Y89762D01*
X186916Y89922D01*
Y90090D01*
Y90272D01*
Y93465D01*
X186026D01*
Y95003D01*
X186916D01*
Y96454D01*
X188848Y97591D01*
Y95003D01*
D02*
G37*
G36*
X172387Y95156D02*
X172482Y95142D01*
X172598Y95127D01*
X172730Y95098D01*
X172883Y95062D01*
X173043Y95018D01*
X173218Y94952D01*
X173400Y94872D01*
X173582Y94777D01*
X173772Y94661D01*
X173961Y94522D01*
X174144Y94362D01*
X174326Y94179D01*
X174494Y93968D01*
Y95003D01*
X176302D01*
Y88435D01*
Y88420D01*
Y88377D01*
Y88311D01*
Y88224D01*
X176294Y88122D01*
X176287Y87998D01*
Y87859D01*
X176272Y87713D01*
X176265Y87560D01*
X176251Y87400D01*
X176207Y87079D01*
X176185Y86926D01*
X176156Y86780D01*
X176119Y86634D01*
X176083Y86510D01*
Y86503D01*
X176076Y86481D01*
X176061Y86452D01*
X176046Y86408D01*
X176025Y86350D01*
X175995Y86292D01*
X175930Y86146D01*
X175842Y85986D01*
X175740Y85818D01*
X175624Y85650D01*
X175485Y85504D01*
X175478Y85497D01*
X175470Y85490D01*
X175449Y85468D01*
X175412Y85446D01*
X175376Y85417D01*
X175332Y85381D01*
X175274Y85337D01*
X175208Y85300D01*
X175143Y85249D01*
X175062Y85206D01*
X174887Y85111D01*
X174683Y85016D01*
X174450Y84936D01*
X174443D01*
X174421Y84929D01*
X174384Y84914D01*
X174333Y84907D01*
X174275Y84885D01*
X174195Y84870D01*
X174107Y84848D01*
X174005Y84834D01*
X173896Y84812D01*
X173772Y84790D01*
X173641Y84775D01*
X173495Y84761D01*
X173342Y84746D01*
X173174Y84732D01*
X173006Y84724D01*
X172700D01*
X172649Y84732D01*
X172525D01*
X172372Y84746D01*
X172197Y84761D01*
X172001Y84775D01*
X171796Y84805D01*
X171585Y84841D01*
X171366Y84885D01*
X171140Y84936D01*
X170929Y84994D01*
X170717Y85067D01*
X170521Y85154D01*
X170346Y85257D01*
X170185Y85366D01*
X170178Y85373D01*
X170149Y85395D01*
X170112Y85431D01*
X170061Y85483D01*
X170003Y85548D01*
X169937Y85621D01*
X169872Y85709D01*
X169799Y85811D01*
X169726Y85920D01*
X169660Y86044D01*
X169595Y86175D01*
X169536Y86321D01*
X169485Y86474D01*
X169449Y86634D01*
X169420Y86802D01*
X169413Y86984D01*
Y86992D01*
Y87006D01*
Y87021D01*
Y87050D01*
Y87123D01*
X169420Y87218D01*
X171629Y86948D01*
Y86941D01*
Y86933D01*
X171643Y86882D01*
X171658Y86817D01*
X171680Y86737D01*
X171716Y86649D01*
X171760Y86562D01*
X171811Y86481D01*
X171884Y86416D01*
X171898Y86408D01*
X171935Y86387D01*
X172001Y86350D01*
X172095Y86314D01*
X172212Y86270D01*
X172285Y86255D01*
X172365Y86241D01*
X172452Y86226D01*
X172540Y86212D01*
X172642Y86204D01*
X172824D01*
X172875Y86212D01*
X172941D01*
X173014Y86219D01*
X173094Y86226D01*
X173181Y86233D01*
X173364Y86263D01*
X173553Y86306D01*
X173728Y86357D01*
X173816Y86394D01*
X173889Y86438D01*
X173903Y86445D01*
X173932Y86467D01*
X173976Y86503D01*
X174034Y86554D01*
X174093Y86627D01*
X174158Y86707D01*
X174224Y86809D01*
X174275Y86926D01*
X174282Y86941D01*
X174290Y86977D01*
X174304Y87035D01*
X174311Y87079D01*
X174326Y87130D01*
X174333Y87181D01*
X174341Y87247D01*
X174348Y87320D01*
X174355Y87400D01*
X174362Y87487D01*
Y87589D01*
X174370Y87691D01*
Y87808D01*
X174377Y88880D01*
X174370Y88865D01*
X174341Y88829D01*
X174290Y88770D01*
X174217Y88697D01*
X174136Y88603D01*
X174027Y88501D01*
X173910Y88399D01*
X173772Y88289D01*
X173619Y88173D01*
X173459Y88070D01*
X173276Y87968D01*
X173079Y87881D01*
X172868Y87801D01*
X172649Y87743D01*
X172416Y87706D01*
X172175Y87691D01*
X172110D01*
X172037Y87699D01*
X171935Y87713D01*
X171811Y87728D01*
X171665Y87757D01*
X171505Y87793D01*
X171330Y87845D01*
X171148Y87910D01*
X170958Y87998D01*
X170768Y88092D01*
X170572Y88216D01*
X170375Y88355D01*
X170193Y88522D01*
X170010Y88712D01*
X169843Y88931D01*
X169835Y88945D01*
X169814Y88974D01*
X169784Y89033D01*
X169741Y89106D01*
X169690Y89201D01*
X169631Y89317D01*
X169573Y89456D01*
X169507Y89609D01*
X169442Y89776D01*
X169383Y89959D01*
X169325Y90163D01*
X169274Y90381D01*
X169238Y90607D01*
X169201Y90855D01*
X169179Y91110D01*
X169172Y91380D01*
Y91387D01*
Y91402D01*
Y91424D01*
Y91460D01*
Y91504D01*
X169179Y91555D01*
Y91614D01*
X169186Y91679D01*
X169201Y91839D01*
X169216Y92014D01*
X169245Y92211D01*
X169281Y92423D01*
X169332Y92641D01*
X169391Y92875D01*
X169456Y93108D01*
X169544Y93341D01*
X169646Y93567D01*
X169762Y93786D01*
X169901Y93997D01*
X170054Y94187D01*
X170061Y94201D01*
X170098Y94231D01*
X170141Y94274D01*
X170214Y94340D01*
X170302Y94413D01*
X170404Y94493D01*
X170521Y94588D01*
X170659Y94675D01*
X170812Y94770D01*
X170980Y94858D01*
X171162Y94938D01*
X171352Y95011D01*
X171563Y95076D01*
X171782Y95120D01*
X172015Y95156D01*
X172256Y95164D01*
X172314D01*
X172387Y95156D01*
D02*
G37*
%LPC*%
G36*
X245459Y24613D02*
X245188Y24574D01*
X245072Y24613D01*
X236993Y24593D01*
X236508Y24613D01*
X236392Y24574D01*
X236276Y24613D01*
X236121Y24574D01*
X236024Y24477D01*
X236063Y16883D01*
X236121Y16825D01*
X237167Y16863D01*
X237225Y16921D01*
X237245Y22675D01*
X237225Y22966D01*
X237303Y23198D01*
X237477Y23257D01*
X242940D01*
X245536Y23295D01*
X245595Y23353D01*
X245556Y24516D01*
X245459Y24613D01*
D02*
G37*
G36*
X251775Y17134D02*
X245188Y17096D01*
X245130Y16921D01*
Y16185D01*
Y16147D01*
X245168Y7932D01*
X245265Y7835D01*
X245420Y7796D01*
X245536Y7835D01*
X251969Y7874D01*
X252027Y7932D01*
X252065Y8203D01*
X252027Y9288D01*
X251930Y9385D01*
X246893Y9424D01*
X246834Y9482D01*
X246796Y9753D01*
X246834Y11691D01*
X246893Y11749D01*
X251348Y11787D01*
X251445Y11884D01*
X251407Y13163D01*
X251348Y13221D01*
X251194Y13260D01*
X246893Y13299D01*
X246834Y13357D01*
X246796Y13512D01*
X246834Y15449D01*
X246931Y15546D01*
X251930Y15585D01*
X251988Y15643D01*
X252027Y16030D01*
X251988Y17038D01*
X251930Y17096D01*
X251775Y17134D01*
D02*
G37*
G36*
X237012Y7332D02*
X236082Y7293D01*
X236024Y7235D01*
X235985Y7119D01*
X236024Y7002D01*
Y6886D01*
Y6847D01*
X236005Y-224D01*
X236102Y-360D01*
X236276Y-418D01*
X236431Y-379D01*
X245478Y-398D01*
X245595Y-282D01*
X245556Y841D01*
X245498Y900D01*
X245343Y938D01*
X245227Y900D01*
X245072Y938D01*
X244917Y900D01*
X237361Y938D01*
X237264Y1035D01*
X237225Y2004D01*
X237245Y7215D01*
X237167Y7293D01*
X237012Y7332D01*
D02*
G37*
G36*
X260725D02*
X259950Y7293D01*
X259854Y7196D01*
X259815Y996D01*
X259563Y900D01*
X251620Y861D01*
X251523Y648D01*
X251562Y532D01*
X251542Y-224D01*
X251639Y-360D01*
X260822Y-398D01*
X260880Y-418D01*
X261113Y-340D01*
X261210Y-243D01*
Y1810D01*
Y1849D01*
X261171Y7235D01*
X261113Y7293D01*
X260725Y7332D01*
D02*
G37*
G36*
X260028Y24613D02*
X259640Y24574D01*
X259485Y24613D01*
X259369Y24574D01*
X256076Y24613D01*
X252027Y24593D01*
X251775Y24613D01*
X251562Y24438D01*
X251600Y23353D01*
X251697Y23257D01*
X259757Y23218D01*
X259854Y23121D01*
X259892Y16921D01*
X259989Y16825D01*
X261113Y16863D01*
X261171Y16921D01*
X261210Y17076D01*
Y23586D01*
Y23625D01*
X261171Y24477D01*
X261074Y24574D01*
X260357Y24593D01*
X260144Y24574D01*
X260028Y24613D01*
D02*
G37*
G36*
X189357Y10350D02*
X189308D01*
X189270Y10345D01*
X189226Y10339D01*
X189177Y10328D01*
X189117Y10317D01*
X189057Y10301D01*
X188992Y10279D01*
X188921Y10246D01*
X188850Y10213D01*
X188779Y10175D01*
X188702Y10126D01*
X188631Y10071D01*
X188560Y10006D01*
X188495Y9935D01*
X188489Y9929D01*
X188478Y9919D01*
X188462Y9891D01*
X188440Y9859D01*
X188413Y9815D01*
X188385Y9760D01*
X188353Y9700D01*
X188326Y9629D01*
X188293Y9547D01*
X188260Y9454D01*
X188233Y9356D01*
X188205Y9247D01*
X188183Y9127D01*
X188167Y8996D01*
X188156Y8859D01*
X188151Y8712D01*
Y8701D01*
Y8674D01*
Y8630D01*
X188156Y8570D01*
Y8499D01*
X188162Y8417D01*
X188173Y8324D01*
X188183Y8226D01*
X188211Y8019D01*
X188254Y7811D01*
X188282Y7707D01*
X188315Y7615D01*
X188347Y7527D01*
X188391Y7445D01*
X188397Y7440D01*
X188407Y7423D01*
X188429Y7396D01*
X188456Y7358D01*
X188489Y7314D01*
X188533Y7265D01*
X188588Y7216D01*
X188642Y7167D01*
X188708Y7112D01*
X188784Y7063D01*
X188866Y7014D01*
X188953Y6970D01*
X189046Y6937D01*
X189145Y6905D01*
X189254Y6888D01*
X189368Y6883D01*
X189390D01*
X189418Y6888D01*
X189450D01*
X189494Y6894D01*
X189543Y6905D01*
X189598Y6916D01*
X189663Y6937D01*
X189723Y6959D01*
X189794Y6987D01*
X189865Y7019D01*
X189936Y7063D01*
X190007Y7107D01*
X190078Y7167D01*
X190149Y7227D01*
X190215Y7303D01*
X190220Y7309D01*
X190231Y7325D01*
X190247Y7347D01*
X190269Y7385D01*
X190296Y7429D01*
X190329Y7483D01*
X190357Y7549D01*
X190395Y7620D01*
X190428Y7707D01*
X190455Y7800D01*
X190488Y7904D01*
X190515Y8019D01*
X190537Y8144D01*
X190553Y8281D01*
X190564Y8423D01*
X190569Y8575D01*
Y8581D01*
Y8586D01*
Y8619D01*
Y8663D01*
X190564Y8728D01*
X190559Y8805D01*
X190553Y8898D01*
X190542Y8996D01*
X190526Y9100D01*
X190488Y9324D01*
X190460Y9438D01*
X190422Y9547D01*
X190384Y9657D01*
X190340Y9760D01*
X190286Y9853D01*
X190226Y9935D01*
X190220Y9940D01*
X190209Y9951D01*
X190193Y9973D01*
X190165Y10001D01*
X190133Y10033D01*
X190089Y10066D01*
X190045Y10104D01*
X189991Y10142D01*
X189931Y10181D01*
X189865Y10219D01*
X189794Y10252D01*
X189718Y10284D01*
X189636Y10312D01*
X189549Y10334D01*
X189456Y10345D01*
X189357Y10350D01*
D02*
G37*
G36*
X164138D02*
X164088D01*
X164050Y10345D01*
X164007Y10339D01*
X163958Y10328D01*
X163897Y10317D01*
X163837Y10301D01*
X163772Y10279D01*
X163701Y10246D01*
X163630Y10213D01*
X163559Y10175D01*
X163482Y10126D01*
X163411Y10071D01*
X163340Y10006D01*
X163275Y9935D01*
X163269Y9929D01*
X163259Y9919D01*
X163242Y9891D01*
X163220Y9859D01*
X163193Y9815D01*
X163166Y9760D01*
X163133Y9700D01*
X163106Y9629D01*
X163073Y9547D01*
X163040Y9454D01*
X163013Y9356D01*
X162986Y9247D01*
X162964Y9127D01*
X162947Y8996D01*
X162936Y8859D01*
X162931Y8712D01*
Y8701D01*
Y8674D01*
Y8630D01*
X162936Y8570D01*
Y8499D01*
X162942Y8417D01*
X162953Y8324D01*
X162964Y8226D01*
X162991Y8019D01*
X163035Y7811D01*
X163062Y7707D01*
X163095Y7615D01*
X163128Y7527D01*
X163171Y7445D01*
X163177Y7440D01*
X163188Y7423D01*
X163209Y7396D01*
X163237Y7358D01*
X163269Y7314D01*
X163313Y7265D01*
X163368Y7216D01*
X163422Y7167D01*
X163488Y7112D01*
X163564Y7063D01*
X163646Y7014D01*
X163734Y6970D01*
X163827Y6937D01*
X163925Y6905D01*
X164034Y6888D01*
X164149Y6883D01*
X164170D01*
X164198Y6888D01*
X164231D01*
X164274Y6894D01*
X164323Y6905D01*
X164378Y6916D01*
X164443Y6937D01*
X164504Y6959D01*
X164575Y6987D01*
X164646Y7019D01*
X164716Y7063D01*
X164787Y7107D01*
X164858Y7167D01*
X164929Y7227D01*
X164995Y7303D01*
X165000Y7309D01*
X165011Y7325D01*
X165028Y7347D01*
X165050Y7385D01*
X165077Y7429D01*
X165110Y7483D01*
X165137Y7549D01*
X165175Y7620D01*
X165208Y7707D01*
X165235Y7800D01*
X165268Y7904D01*
X165295Y8019D01*
X165317Y8144D01*
X165333Y8281D01*
X165344Y8423D01*
X165350Y8575D01*
Y8581D01*
Y8586D01*
Y8619D01*
Y8663D01*
X165344Y8728D01*
X165339Y8805D01*
X165333Y8898D01*
X165322Y8996D01*
X165306Y9100D01*
X165268Y9324D01*
X165241Y9438D01*
X165202Y9547D01*
X165164Y9657D01*
X165120Y9760D01*
X165066Y9853D01*
X165006Y9935D01*
X165000Y9940D01*
X164989Y9951D01*
X164973Y9973D01*
X164946Y10001D01*
X164913Y10033D01*
X164869Y10066D01*
X164826Y10104D01*
X164771Y10142D01*
X164711Y10181D01*
X164646Y10219D01*
X164575Y10252D01*
X164498Y10284D01*
X164416Y10312D01*
X164329Y10334D01*
X164236Y10345D01*
X164138Y10350D01*
D02*
G37*
G36*
X114927Y8488D02*
X114921D01*
X114916Y8483D01*
X114899Y8477D01*
X114872Y8472D01*
X114845Y8461D01*
X114807Y8450D01*
X114763Y8439D01*
X114708Y8428D01*
X114648Y8412D01*
X114583Y8395D01*
X114512Y8373D01*
X114430Y8357D01*
X114342Y8335D01*
X114250Y8313D01*
X114146Y8286D01*
X114037Y8264D01*
X114031D01*
X114009Y8259D01*
X113982Y8253D01*
X113938Y8242D01*
X113889Y8231D01*
X113835Y8215D01*
X113715Y8182D01*
X113584Y8144D01*
X113452Y8106D01*
X113392Y8079D01*
X113338Y8057D01*
X113289Y8035D01*
X113251Y8013D01*
X113245D01*
X113240Y8002D01*
X113207Y7975D01*
X113163Y7931D01*
X113114Y7871D01*
X113059Y7800D01*
X113016Y7713D01*
X112983Y7609D01*
X112978Y7554D01*
X112972Y7500D01*
Y7494D01*
Y7489D01*
Y7473D01*
X112978Y7451D01*
X112983Y7391D01*
X112999Y7320D01*
X113027Y7238D01*
X113065Y7150D01*
X113119Y7063D01*
X113196Y6976D01*
X113207Y6965D01*
X113240Y6943D01*
X113289Y6905D01*
X113354Y6866D01*
X113436Y6828D01*
X113534Y6790D01*
X113649Y6768D01*
X113775Y6757D01*
X113813D01*
X113840Y6763D01*
X113878D01*
X113917Y6774D01*
X114015Y6790D01*
X114129Y6823D01*
X114255Y6866D01*
X114386Y6932D01*
X114457Y6970D01*
X114523Y7014D01*
X114528D01*
X114534Y7025D01*
X114566Y7047D01*
X114610Y7090D01*
X114665Y7145D01*
X114725Y7216D01*
X114779Y7298D01*
X114828Y7391D01*
X114867Y7489D01*
X114872Y7500D01*
X114878Y7527D01*
X114883Y7549D01*
X114889Y7576D01*
X114894Y7609D01*
X114899Y7647D01*
X114905Y7691D01*
X114910Y7745D01*
Y7800D01*
X114916Y7866D01*
X114921Y7937D01*
X114927Y8019D01*
Y8106D01*
Y8199D01*
Y8488D01*
D02*
G37*
G36*
X99672D02*
X99666D01*
X99660Y8483D01*
X99644Y8477D01*
X99617Y8472D01*
X99590Y8461D01*
X99551Y8450D01*
X99508Y8439D01*
X99453Y8428D01*
X99393Y8412D01*
X99327Y8395D01*
X99256Y8373D01*
X99175Y8357D01*
X99087Y8335D01*
X98994Y8313D01*
X98891Y8286D01*
X98782Y8264D01*
X98776D01*
X98754Y8259D01*
X98727Y8253D01*
X98683Y8242D01*
X98634Y8231D01*
X98580Y8215D01*
X98459Y8182D01*
X98328Y8144D01*
X98197Y8106D01*
X98137Y8079D01*
X98083Y8057D01*
X98033Y8035D01*
X97995Y8013D01*
X97990D01*
X97984Y8002D01*
X97952Y7975D01*
X97908Y7931D01*
X97859Y7871D01*
X97804Y7800D01*
X97760Y7713D01*
X97728Y7609D01*
X97722Y7554D01*
X97717Y7500D01*
Y7494D01*
Y7489D01*
Y7473D01*
X97722Y7451D01*
X97728Y7391D01*
X97744Y7320D01*
X97771Y7238D01*
X97810Y7150D01*
X97864Y7063D01*
X97941Y6976D01*
X97952Y6965D01*
X97984Y6943D01*
X98033Y6905D01*
X98099Y6866D01*
X98181Y6828D01*
X98279Y6790D01*
X98394Y6768D01*
X98519Y6757D01*
X98558D01*
X98585Y6763D01*
X98623D01*
X98661Y6774D01*
X98760Y6790D01*
X98874Y6823D01*
X99000Y6866D01*
X99131Y6932D01*
X99202Y6970D01*
X99267Y7014D01*
X99273D01*
X99278Y7025D01*
X99311Y7047D01*
X99355Y7090D01*
X99409Y7145D01*
X99469Y7216D01*
X99524Y7298D01*
X99573Y7391D01*
X99611Y7489D01*
X99617Y7500D01*
X99622Y7527D01*
X99628Y7549D01*
X99633Y7576D01*
X99639Y7609D01*
X99644Y7647D01*
X99650Y7691D01*
X99655Y7745D01*
Y7800D01*
X99660Y7866D01*
X99666Y7937D01*
X99672Y8019D01*
Y8106D01*
Y8199D01*
Y8488D01*
D02*
G37*
G36*
X211449Y10350D02*
X211405D01*
X211372Y10345D01*
X211329Y10339D01*
X211279Y10334D01*
X211230Y10323D01*
X211170Y10306D01*
X211050Y10263D01*
X210984Y10235D01*
X210919Y10203D01*
X210848Y10164D01*
X210788Y10115D01*
X210722Y10061D01*
X210662Y10001D01*
X210657Y9995D01*
X210651Y9984D01*
X210635Y9962D01*
X210613Y9935D01*
X210591Y9902D01*
X210564Y9859D01*
X210537Y9809D01*
X210509Y9755D01*
X210477Y9689D01*
X210449Y9618D01*
X210428Y9542D01*
X210400Y9460D01*
X210384Y9367D01*
X210367Y9274D01*
X210357Y9171D01*
Y9061D01*
X212530D01*
Y9067D01*
Y9089D01*
X212524Y9121D01*
Y9165D01*
X212519Y9220D01*
X212508Y9280D01*
X212497Y9345D01*
X212480Y9416D01*
X212442Y9569D01*
X212382Y9727D01*
X212350Y9809D01*
X212306Y9880D01*
X212257Y9951D01*
X212202Y10017D01*
X212197Y10022D01*
X212186Y10033D01*
X212169Y10050D01*
X212147Y10071D01*
X212115Y10093D01*
X212082Y10121D01*
X212038Y10153D01*
X211989Y10186D01*
X211880Y10246D01*
X211754Y10301D01*
X211683Y10317D01*
X211607Y10334D01*
X211530Y10345D01*
X211449Y10350D01*
D02*
G37*
G36*
X195615Y10350D02*
X195571D01*
X195538Y10345D01*
X195494Y10339D01*
X195445Y10334D01*
X195396Y10323D01*
X195336Y10306D01*
X195216Y10263D01*
X195150Y10235D01*
X195085Y10203D01*
X195014Y10164D01*
X194954Y10115D01*
X194888Y10061D01*
X194828Y10001D01*
X194823Y9995D01*
X194817Y9984D01*
X194801Y9962D01*
X194779Y9935D01*
X194757Y9902D01*
X194730Y9859D01*
X194703Y9809D01*
X194676Y9755D01*
X194643Y9689D01*
X194615Y9618D01*
X194594Y9542D01*
X194566Y9460D01*
X194550Y9367D01*
X194534Y9274D01*
X194523Y9171D01*
Y9061D01*
X196696D01*
Y9067D01*
Y9089D01*
X196690Y9121D01*
Y9165D01*
X196685Y9220D01*
X196674Y9280D01*
X196663Y9345D01*
X196646Y9416D01*
X196608Y9569D01*
X196548Y9727D01*
X196516Y9809D01*
X196472Y9880D01*
X196423Y9951D01*
X196368Y10017D01*
X196363Y10022D01*
X196352Y10033D01*
X196335Y10050D01*
X196314Y10071D01*
X196281Y10093D01*
X196248Y10121D01*
X196204Y10153D01*
X196155Y10186D01*
X196046Y10246D01*
X195920Y10301D01*
X195849Y10317D01*
X195773Y10334D01*
X195696Y10345D01*
X195615Y10350D01*
D02*
G37*
G36*
X158077D02*
X158033D01*
X158001Y10345D01*
X157957Y10339D01*
X157908Y10334D01*
X157859Y10323D01*
X157799Y10306D01*
X157678Y10263D01*
X157613Y10235D01*
X157547Y10203D01*
X157476Y10164D01*
X157416Y10115D01*
X157351Y10061D01*
X157291Y10001D01*
X157285Y9995D01*
X157280Y9984D01*
X157264Y9962D01*
X157242Y9935D01*
X157220Y9902D01*
X157193Y9859D01*
X157165Y9809D01*
X157138Y9755D01*
X157105Y9689D01*
X157078Y9618D01*
X157056Y9542D01*
X157029Y9460D01*
X157012Y9367D01*
X156996Y9274D01*
X156985Y9171D01*
Y9061D01*
X159158D01*
Y9067D01*
Y9089D01*
X159153Y9121D01*
Y9165D01*
X159147Y9220D01*
X159136Y9280D01*
X159125Y9345D01*
X159109Y9416D01*
X159071Y9569D01*
X159011Y9727D01*
X158978Y9809D01*
X158934Y9880D01*
X158885Y9951D01*
X158831Y10017D01*
X158825Y10022D01*
X158814Y10033D01*
X158798Y10050D01*
X158776Y10071D01*
X158743Y10093D01*
X158710Y10121D01*
X158667Y10153D01*
X158618Y10186D01*
X158508Y10246D01*
X158383Y10301D01*
X158312Y10317D01*
X158235Y10334D01*
X158159Y10345D01*
X158077Y10350D01*
D02*
G37*
G36*
X139890Y10350D02*
X139846D01*
X139813Y10345D01*
X139770Y10339D01*
X139721Y10334D01*
X139671Y10323D01*
X139611Y10306D01*
X139491Y10263D01*
X139426Y10235D01*
X139360Y10203D01*
X139289Y10164D01*
X139229Y10115D01*
X139164Y10061D01*
X139104Y10001D01*
X139098Y9995D01*
X139093Y9984D01*
X139076Y9962D01*
X139054Y9935D01*
X139033Y9902D01*
X139005Y9859D01*
X138978Y9809D01*
X138951Y9755D01*
X138918Y9689D01*
X138891Y9618D01*
X138869Y9542D01*
X138841Y9460D01*
X138825Y9367D01*
X138809Y9274D01*
X138798Y9171D01*
Y9061D01*
X140971D01*
Y9067D01*
Y9089D01*
X140965Y9121D01*
Y9165D01*
X140960Y9220D01*
X140949Y9280D01*
X140938Y9345D01*
X140922Y9416D01*
X140884Y9569D01*
X140823Y9727D01*
X140791Y9809D01*
X140747Y9880D01*
X140698Y9951D01*
X140643Y10017D01*
X140638Y10022D01*
X140627Y10033D01*
X140611Y10050D01*
X140589Y10071D01*
X140556Y10093D01*
X140523Y10121D01*
X140480Y10153D01*
X140430Y10186D01*
X140321Y10246D01*
X140196Y10301D01*
X140125Y10317D01*
X140048Y10334D01*
X139972Y10345D01*
X139890Y10350D01*
D02*
G37*
G36*
X130504D02*
X130460D01*
X130428Y10345D01*
X130384Y10339D01*
X130335Y10334D01*
X130286Y10323D01*
X130226Y10306D01*
X130105Y10263D01*
X130040Y10235D01*
X129974Y10203D01*
X129903Y10164D01*
X129843Y10115D01*
X129778Y10061D01*
X129718Y10001D01*
X129712Y9995D01*
X129707Y9984D01*
X129691Y9962D01*
X129669Y9935D01*
X129647Y9902D01*
X129620Y9859D01*
X129592Y9809D01*
X129565Y9755D01*
X129532Y9689D01*
X129505Y9618D01*
X129483Y9542D01*
X129456Y9460D01*
X129439Y9367D01*
X129423Y9274D01*
X129412Y9171D01*
Y9061D01*
X131585D01*
Y9067D01*
Y9089D01*
X131580Y9121D01*
Y9165D01*
X131574Y9220D01*
X131563Y9280D01*
X131552Y9345D01*
X131536Y9416D01*
X131498Y9569D01*
X131438Y9727D01*
X131405Y9809D01*
X131361Y9880D01*
X131312Y9951D01*
X131258Y10017D01*
X131252Y10022D01*
X131241Y10033D01*
X131225Y10050D01*
X131203Y10071D01*
X131170Y10093D01*
X131137Y10121D01*
X131094Y10153D01*
X131045Y10186D01*
X130935Y10246D01*
X130810Y10301D01*
X130739Y10317D01*
X130662Y10334D01*
X130586Y10345D01*
X130504Y10350D01*
D02*
G37*
G36*
X124465D02*
X124416D01*
X124378Y10345D01*
X124334Y10339D01*
X124280Y10328D01*
X124225Y10317D01*
X124160Y10301D01*
X124094Y10279D01*
X124023Y10252D01*
X123952Y10219D01*
X123876Y10175D01*
X123805Y10131D01*
X123734Y10077D01*
X123663Y10011D01*
X123597Y9940D01*
X123592Y9935D01*
X123581Y9924D01*
X123564Y9897D01*
X123543Y9864D01*
X123515Y9820D01*
X123488Y9771D01*
X123455Y9706D01*
X123428Y9635D01*
X123395Y9553D01*
X123362Y9465D01*
X123335Y9362D01*
X123308Y9252D01*
X123286Y9132D01*
X123270Y9001D01*
X123259Y8859D01*
X123253Y8712D01*
Y8701D01*
Y8674D01*
Y8630D01*
X123259Y8575D01*
X123264Y8504D01*
X123270Y8422D01*
X123275Y8335D01*
X123286Y8237D01*
X123319Y8035D01*
X123368Y7827D01*
X123395Y7724D01*
X123433Y7625D01*
X123472Y7538D01*
X123521Y7456D01*
X123526Y7451D01*
X123537Y7434D01*
X123559Y7401D01*
X123592Y7369D01*
X123630Y7325D01*
X123674Y7276D01*
X123728Y7221D01*
X123788Y7172D01*
X123854Y7118D01*
X123930Y7063D01*
X124012Y7014D01*
X124100Y6970D01*
X124198Y6937D01*
X124296Y6910D01*
X124405Y6888D01*
X124520Y6883D01*
X124542D01*
X124569Y6888D01*
X124602D01*
X124640Y6894D01*
X124689Y6905D01*
X124744Y6916D01*
X124804Y6932D01*
X124864Y6954D01*
X124929Y6981D01*
X125000Y7014D01*
X125066Y7058D01*
X125137Y7101D01*
X125208Y7156D01*
X125273Y7221D01*
X125339Y7292D01*
X125344Y7298D01*
X125355Y7314D01*
X125372Y7336D01*
X125393Y7369D01*
X125415Y7412D01*
X125448Y7467D01*
X125475Y7533D01*
X125508Y7609D01*
X125541Y7691D01*
X125568Y7789D01*
X125601Y7893D01*
X125623Y8008D01*
X125645Y8133D01*
X125661Y8275D01*
X125672Y8422D01*
X125677Y8581D01*
Y8586D01*
Y8592D01*
Y8625D01*
Y8668D01*
X125672Y8734D01*
X125666Y8810D01*
X125661Y8898D01*
X125650Y8996D01*
X125634Y9105D01*
X125595Y9323D01*
X125568Y9438D01*
X125530Y9547D01*
X125492Y9657D01*
X125448Y9760D01*
X125393Y9853D01*
X125333Y9935D01*
X125328Y9940D01*
X125317Y9951D01*
X125301Y9973D01*
X125273Y10001D01*
X125241Y10033D01*
X125197Y10066D01*
X125153Y10104D01*
X125099Y10142D01*
X125039Y10181D01*
X124973Y10219D01*
X124902Y10252D01*
X124826Y10284D01*
X124744Y10312D01*
X124656Y10334D01*
X124564Y10345D01*
X124465Y10350D01*
D02*
G37*
G36*
X123776Y-1135D02*
X123743D01*
X123718Y-1138D01*
X123689Y-1142D01*
X123653Y-1149D01*
X123612Y-1157D01*
X123569Y-1168D01*
X123525Y-1182D01*
X123478Y-1204D01*
X123427Y-1226D01*
X123380Y-1251D01*
X123328Y-1284D01*
X123281Y-1320D01*
X123234Y-1364D01*
X123187Y-1411D01*
X123183Y-1415D01*
X123176Y-1422D01*
X123165Y-1441D01*
X123150Y-1462D01*
X123132Y-1491D01*
X123114Y-1524D01*
X123092Y-1568D01*
X123070Y-1615D01*
X123048Y-1670D01*
X123026Y-1728D01*
X123008Y-1794D01*
X122990Y-1866D01*
X122976Y-1946D01*
X122965Y-2030D01*
X122957Y-2121D01*
X122954Y-2220D01*
Y-2227D01*
Y-2245D01*
Y-2278D01*
X122957Y-2321D01*
X122961Y-2372D01*
X122968Y-2431D01*
X122976Y-2492D01*
X122983Y-2565D01*
X123012Y-2711D01*
X123034Y-2787D01*
X123056Y-2864D01*
X123085Y-2936D01*
X123117Y-3006D01*
X123154Y-3071D01*
X123197Y-3130D01*
X123201Y-3133D01*
X123208Y-3140D01*
X123223Y-3155D01*
X123241Y-3173D01*
X123267Y-3199D01*
X123292Y-3221D01*
X123325Y-3250D01*
X123365Y-3275D01*
X123405Y-3300D01*
X123452Y-3330D01*
X123500Y-3351D01*
X123551Y-3373D01*
X123609Y-3395D01*
X123667Y-3410D01*
X123729Y-3417D01*
X123794Y-3421D01*
X123809D01*
X123827Y-3417D01*
X123853D01*
X123878Y-3413D01*
X123915Y-3406D01*
X123951Y-3399D01*
X123991Y-3388D01*
X124035Y-3373D01*
X124082Y-3355D01*
X124129Y-3333D01*
X124177Y-3308D01*
X124224Y-3275D01*
X124271Y-3239D01*
X124315Y-3199D01*
X124359Y-3151D01*
X124362Y-3148D01*
X124370Y-3137D01*
X124381Y-3122D01*
X124395Y-3100D01*
X124410Y-3071D01*
X124432Y-3035D01*
X124450Y-2991D01*
X124471Y-2940D01*
X124493Y-2882D01*
X124512Y-2816D01*
X124533Y-2744D01*
X124548Y-2664D01*
X124563Y-2576D01*
X124573Y-2482D01*
X124581Y-2380D01*
X124584Y-2267D01*
Y-2259D01*
Y-2241D01*
Y-2212D01*
X124581Y-2172D01*
X124577Y-2125D01*
X124573Y-2070D01*
X124566Y-2008D01*
X124555Y-1943D01*
X124526Y-1805D01*
X124508Y-1735D01*
X124486Y-1666D01*
X124461Y-1597D01*
X124428Y-1531D01*
X124391Y-1470D01*
X124351Y-1415D01*
X124348Y-1411D01*
X124340Y-1404D01*
X124329Y-1390D01*
X124311Y-1371D01*
X124286Y-1350D01*
X124260Y-1328D01*
X124228Y-1302D01*
X124191Y-1273D01*
X124151Y-1248D01*
X124108Y-1222D01*
X124060Y-1200D01*
X124009Y-1178D01*
X123958Y-1160D01*
X123900Y-1146D01*
X123838Y-1138D01*
X123776Y-1135D01*
D02*
G37*
G36*
X119477D02*
X119445D01*
X119419Y-1138D01*
X119390Y-1142D01*
X119354Y-1149D01*
X119314Y-1157D01*
X119270Y-1168D01*
X119226Y-1182D01*
X119179Y-1204D01*
X119128Y-1226D01*
X119081Y-1251D01*
X119030Y-1284D01*
X118982Y-1320D01*
X118935Y-1364D01*
X118888Y-1411D01*
X118884Y-1415D01*
X118877Y-1422D01*
X118866Y-1441D01*
X118851Y-1462D01*
X118833Y-1491D01*
X118815Y-1524D01*
X118793Y-1568D01*
X118771Y-1615D01*
X118749Y-1670D01*
X118728Y-1728D01*
X118709Y-1794D01*
X118691Y-1866D01*
X118677Y-1946D01*
X118666Y-2030D01*
X118658Y-2121D01*
X118655Y-2220D01*
Y-2227D01*
Y-2245D01*
Y-2278D01*
X118658Y-2321D01*
X118662Y-2372D01*
X118669Y-2431D01*
X118677Y-2492D01*
X118684Y-2565D01*
X118713Y-2711D01*
X118735Y-2787D01*
X118757Y-2864D01*
X118786Y-2936D01*
X118819Y-3006D01*
X118855Y-3071D01*
X118899Y-3130D01*
X118902Y-3133D01*
X118910Y-3140D01*
X118924Y-3155D01*
X118942Y-3173D01*
X118968Y-3199D01*
X118993Y-3221D01*
X119026Y-3250D01*
X119066Y-3275D01*
X119106Y-3300D01*
X119153Y-3330D01*
X119201Y-3351D01*
X119252Y-3373D01*
X119310Y-3395D01*
X119368Y-3410D01*
X119430Y-3417D01*
X119496Y-3421D01*
X119510D01*
X119528Y-3417D01*
X119554D01*
X119579Y-3413D01*
X119616Y-3406D01*
X119652Y-3399D01*
X119692Y-3388D01*
X119736Y-3373D01*
X119783Y-3355D01*
X119831Y-3333D01*
X119878Y-3308D01*
X119925Y-3275D01*
X119973Y-3239D01*
X120016Y-3199D01*
X120060Y-3151D01*
X120063Y-3148D01*
X120071Y-3137D01*
X120082Y-3122D01*
X120096Y-3100D01*
X120111Y-3071D01*
X120133Y-3035D01*
X120151Y-2991D01*
X120173Y-2940D01*
X120194Y-2882D01*
X120213Y-2816D01*
X120235Y-2744D01*
X120249Y-2664D01*
X120264Y-2576D01*
X120275Y-2482D01*
X120282Y-2380D01*
X120285Y-2267D01*
Y-2259D01*
Y-2241D01*
Y-2212D01*
X120282Y-2172D01*
X120278Y-2125D01*
X120275Y-2070D01*
X120267Y-2008D01*
X120256Y-1943D01*
X120227Y-1805D01*
X120209Y-1735D01*
X120187Y-1666D01*
X120162Y-1597D01*
X120129Y-1531D01*
X120093Y-1470D01*
X120053Y-1415D01*
X120049Y-1411D01*
X120042Y-1404D01*
X120031Y-1390D01*
X120012Y-1371D01*
X119987Y-1350D01*
X119962Y-1328D01*
X119929Y-1302D01*
X119892Y-1273D01*
X119852Y-1248D01*
X119809Y-1222D01*
X119761Y-1200D01*
X119710Y-1178D01*
X119659Y-1160D01*
X119601Y-1146D01*
X119539Y-1138D01*
X119477Y-1135D01*
D02*
G37*
G36*
X144764Y-2351D02*
X144761D01*
X144757Y-2354D01*
X144746Y-2358D01*
X144728Y-2361D01*
X144710Y-2369D01*
X144684Y-2376D01*
X144655Y-2383D01*
X144619Y-2390D01*
X144579Y-2402D01*
X144535Y-2412D01*
X144488Y-2427D01*
X144433Y-2438D01*
X144375Y-2452D01*
X144313Y-2467D01*
X144244Y-2485D01*
X144171Y-2500D01*
X144168D01*
X144153Y-2503D01*
X144135Y-2507D01*
X144106Y-2514D01*
X144073Y-2522D01*
X144036Y-2533D01*
X143956Y-2554D01*
X143869Y-2580D01*
X143782Y-2605D01*
X143742Y-2623D01*
X143705Y-2638D01*
X143673Y-2653D01*
X143647Y-2667D01*
X143643D01*
X143640Y-2675D01*
X143618Y-2693D01*
X143589Y-2722D01*
X143556Y-2762D01*
X143520Y-2809D01*
X143491Y-2867D01*
X143469Y-2936D01*
X143465Y-2973D01*
X143461Y-3009D01*
Y-3013D01*
Y-3017D01*
Y-3028D01*
X143465Y-3042D01*
X143469Y-3082D01*
X143480Y-3130D01*
X143498Y-3184D01*
X143523Y-3242D01*
X143560Y-3300D01*
X143611Y-3359D01*
X143618Y-3366D01*
X143640Y-3381D01*
X143673Y-3406D01*
X143716Y-3432D01*
X143771Y-3457D01*
X143836Y-3483D01*
X143913Y-3497D01*
X143997Y-3504D01*
X144022D01*
X144040Y-3501D01*
X144066D01*
X144091Y-3494D01*
X144157Y-3483D01*
X144233Y-3461D01*
X144317Y-3432D01*
X144404Y-3388D01*
X144451Y-3362D01*
X144495Y-3333D01*
X144499D01*
X144502Y-3326D01*
X144524Y-3311D01*
X144553Y-3282D01*
X144590Y-3246D01*
X144630Y-3199D01*
X144666Y-3144D01*
X144699Y-3082D01*
X144725Y-3017D01*
X144728Y-3009D01*
X144732Y-2991D01*
X144735Y-2977D01*
X144739Y-2958D01*
X144743Y-2936D01*
X144746Y-2911D01*
X144750Y-2882D01*
X144754Y-2846D01*
Y-2809D01*
X144757Y-2765D01*
X144761Y-2718D01*
X144764Y-2664D01*
Y-2605D01*
Y-2543D01*
Y-2351D01*
D02*
G37*
G36*
X130299D02*
X130296D01*
X130292Y-2354D01*
X130281Y-2358D01*
X130263Y-2361D01*
X130245Y-2369D01*
X130219Y-2376D01*
X130190Y-2383D01*
X130154Y-2390D01*
X130113Y-2402D01*
X130070Y-2412D01*
X130023Y-2427D01*
X129968Y-2438D01*
X129910Y-2452D01*
X129848Y-2467D01*
X129779Y-2485D01*
X129706Y-2500D01*
X129702D01*
X129688Y-2503D01*
X129669Y-2507D01*
X129640Y-2514D01*
X129607Y-2522D01*
X129571Y-2533D01*
X129491Y-2554D01*
X129404Y-2580D01*
X129316Y-2605D01*
X129276Y-2623D01*
X129240Y-2638D01*
X129207Y-2653D01*
X129182Y-2667D01*
X129178D01*
X129174Y-2675D01*
X129153Y-2693D01*
X129123Y-2722D01*
X129091Y-2762D01*
X129054Y-2809D01*
X129025Y-2867D01*
X129003Y-2936D01*
X129000Y-2973D01*
X128996Y-3009D01*
Y-3013D01*
Y-3017D01*
Y-3028D01*
X129000Y-3042D01*
X129003Y-3082D01*
X129014Y-3130D01*
X129032Y-3184D01*
X129058Y-3242D01*
X129094Y-3300D01*
X129145Y-3359D01*
X129153Y-3366D01*
X129174Y-3381D01*
X129207Y-3406D01*
X129251Y-3432D01*
X129305Y-3457D01*
X129371Y-3483D01*
X129447Y-3497D01*
X129531Y-3504D01*
X129557D01*
X129575Y-3501D01*
X129600D01*
X129626Y-3494D01*
X129691Y-3483D01*
X129768Y-3461D01*
X129851Y-3432D01*
X129939Y-3388D01*
X129986Y-3362D01*
X130030Y-3333D01*
X130033D01*
X130037Y-3326D01*
X130059Y-3311D01*
X130088Y-3282D01*
X130124Y-3246D01*
X130165Y-3199D01*
X130201Y-3144D01*
X130234Y-3082D01*
X130259Y-3017D01*
X130263Y-3009D01*
X130266Y-2991D01*
X130270Y-2977D01*
X130274Y-2958D01*
X130277Y-2936D01*
X130281Y-2911D01*
X130285Y-2882D01*
X130288Y-2846D01*
Y-2809D01*
X130292Y-2765D01*
X130296Y-2718D01*
X130299Y-2664D01*
Y-2605D01*
Y-2543D01*
Y-2351D01*
D02*
G37*
G36*
X165196Y-1109D02*
X165163D01*
X165138Y-1113D01*
X165109Y-1116D01*
X165072Y-1124D01*
X165036Y-1131D01*
X164992Y-1142D01*
X164948Y-1157D01*
X164901Y-1175D01*
X164854Y-1197D01*
X164803Y-1226D01*
X164755Y-1255D01*
X164708Y-1291D01*
X164661Y-1335D01*
X164617Y-1382D01*
X164613Y-1386D01*
X164606Y-1393D01*
X164595Y-1411D01*
X164581Y-1433D01*
X164562Y-1462D01*
X164544Y-1495D01*
X164522Y-1539D01*
X164504Y-1586D01*
X164482Y-1641D01*
X164461Y-1699D01*
X164442Y-1768D01*
X164424Y-1841D01*
X164410Y-1921D01*
X164399Y-2008D01*
X164391Y-2103D01*
X164388Y-2201D01*
Y-2208D01*
Y-2227D01*
Y-2256D01*
X164391Y-2292D01*
X164395Y-2340D01*
X164399Y-2394D01*
X164402Y-2452D01*
X164410Y-2518D01*
X164431Y-2653D01*
X164464Y-2791D01*
X164482Y-2860D01*
X164508Y-2926D01*
X164533Y-2984D01*
X164566Y-3039D01*
X164570Y-3042D01*
X164577Y-3053D01*
X164592Y-3075D01*
X164613Y-3097D01*
X164639Y-3126D01*
X164668Y-3159D01*
X164704Y-3195D01*
X164744Y-3228D01*
X164788Y-3264D01*
X164839Y-3300D01*
X164894Y-3333D01*
X164952Y-3362D01*
X165017Y-3384D01*
X165083Y-3402D01*
X165156Y-3417D01*
X165232Y-3421D01*
X165247D01*
X165265Y-3417D01*
X165287D01*
X165312Y-3413D01*
X165345Y-3406D01*
X165382Y-3399D01*
X165421Y-3388D01*
X165462Y-3373D01*
X165505Y-3355D01*
X165552Y-3333D01*
X165596Y-3304D01*
X165644Y-3275D01*
X165691Y-3239D01*
X165735Y-3195D01*
X165778Y-3148D01*
X165782Y-3144D01*
X165789Y-3133D01*
X165800Y-3118D01*
X165815Y-3097D01*
X165829Y-3068D01*
X165851Y-3031D01*
X165869Y-2987D01*
X165891Y-2936D01*
X165913Y-2882D01*
X165931Y-2816D01*
X165953Y-2747D01*
X165968Y-2671D01*
X165982Y-2587D01*
X165993Y-2492D01*
X166000Y-2394D01*
X166004Y-2289D01*
Y-2285D01*
Y-2281D01*
Y-2259D01*
Y-2230D01*
X166000Y-2187D01*
X165997Y-2136D01*
X165993Y-2077D01*
X165986Y-2012D01*
X165975Y-1939D01*
X165949Y-1794D01*
X165931Y-1717D01*
X165906Y-1644D01*
X165880Y-1571D01*
X165851Y-1502D01*
X165815Y-1441D01*
X165775Y-1386D01*
X165771Y-1382D01*
X165764Y-1375D01*
X165753Y-1360D01*
X165735Y-1342D01*
X165713Y-1320D01*
X165684Y-1299D01*
X165655Y-1273D01*
X165618Y-1248D01*
X165578Y-1222D01*
X165534Y-1197D01*
X165487Y-1175D01*
X165436Y-1153D01*
X165382Y-1135D01*
X165323Y-1120D01*
X165261Y-1113D01*
X165196Y-1109D01*
D02*
G37*
G36*
X154756D02*
X154727D01*
X154705Y-1113D01*
X154676Y-1116D01*
X154643Y-1120D01*
X154611Y-1127D01*
X154571Y-1138D01*
X154491Y-1168D01*
X154447Y-1186D01*
X154403Y-1208D01*
X154356Y-1233D01*
X154316Y-1266D01*
X154272Y-1302D01*
X154232Y-1342D01*
X154228Y-1346D01*
X154225Y-1353D01*
X154214Y-1368D01*
X154199Y-1386D01*
X154185Y-1408D01*
X154167Y-1437D01*
X154148Y-1470D01*
X154130Y-1506D01*
X154108Y-1550D01*
X154090Y-1597D01*
X154076Y-1648D01*
X154057Y-1703D01*
X154046Y-1764D01*
X154036Y-1826D01*
X154028Y-1895D01*
Y-1968D01*
X155477D01*
Y-1965D01*
Y-1950D01*
X155473Y-1928D01*
Y-1899D01*
X155470Y-1863D01*
X155463Y-1823D01*
X155455Y-1779D01*
X155444Y-1732D01*
X155419Y-1630D01*
X155379Y-1524D01*
X155357Y-1470D01*
X155328Y-1422D01*
X155295Y-1375D01*
X155259Y-1331D01*
X155255Y-1328D01*
X155248Y-1320D01*
X155237Y-1309D01*
X155222Y-1295D01*
X155200Y-1280D01*
X155178Y-1262D01*
X155149Y-1240D01*
X155117Y-1218D01*
X155044Y-1178D01*
X154960Y-1142D01*
X154913Y-1131D01*
X154862Y-1120D01*
X154811Y-1113D01*
X154756Y-1109D01*
D02*
G37*
G36*
X115091Y-1157D02*
X115055D01*
X115029Y-1160D01*
X114997Y-1164D01*
X114956Y-1171D01*
X114917Y-1182D01*
X114869Y-1193D01*
X114822Y-1208D01*
X114771Y-1226D01*
X114716Y-1251D01*
X114662Y-1280D01*
X114611Y-1313D01*
X114556Y-1353D01*
X114505Y-1397D01*
X114454Y-1448D01*
X114451Y-1451D01*
X114443Y-1462D01*
X114432Y-1477D01*
X114414Y-1502D01*
X114396Y-1531D01*
X114374Y-1568D01*
X114352Y-1612D01*
X114327Y-1659D01*
X114305Y-1713D01*
X114279Y-1775D01*
X114258Y-1845D01*
X114240Y-1917D01*
X114221Y-2001D01*
X114210Y-2085D01*
X114203Y-2179D01*
X114199Y-2278D01*
Y-2285D01*
Y-2303D01*
Y-2329D01*
X114203Y-2369D01*
X114207Y-2412D01*
X114214Y-2467D01*
X114221Y-2525D01*
X114232Y-2587D01*
X114243Y-2653D01*
X114261Y-2722D01*
X114283Y-2791D01*
X114309Y-2860D01*
X114338Y-2926D01*
X114371Y-2991D01*
X114410Y-3053D01*
X114454Y-3111D01*
X114458Y-3115D01*
X114465Y-3122D01*
X114480Y-3137D01*
X114502Y-3155D01*
X114527Y-3177D01*
X114556Y-3202D01*
X114593Y-3228D01*
X114633Y-3253D01*
X114676Y-3282D01*
X114724Y-3308D01*
X114775Y-3333D01*
X114833Y-3355D01*
X114891Y-3373D01*
X114956Y-3388D01*
X115022Y-3395D01*
X115091Y-3399D01*
X115109D01*
X115128Y-3395D01*
X115153D01*
X115186Y-3392D01*
X115226Y-3384D01*
X115266Y-3373D01*
X115313Y-3362D01*
X115361Y-3348D01*
X115412Y-3330D01*
X115466Y-3304D01*
X115517Y-3279D01*
X115572Y-3246D01*
X115623Y-3206D01*
X115677Y-3162D01*
X115725Y-3111D01*
X115728Y-3108D01*
X115735Y-3097D01*
X115750Y-3082D01*
X115765Y-3057D01*
X115783Y-3028D01*
X115805Y-2991D01*
X115830Y-2947D01*
X115856Y-2900D01*
X115877Y-2842D01*
X115903Y-2780D01*
X115925Y-2711D01*
X115943Y-2638D01*
X115957Y-2554D01*
X115972Y-2467D01*
X115979Y-2372D01*
X115983Y-2274D01*
Y-2267D01*
Y-2249D01*
Y-2223D01*
X115979Y-2187D01*
X115976Y-2139D01*
X115969Y-2088D01*
X115961Y-2030D01*
X115950Y-1968D01*
X115936Y-1903D01*
X115921Y-1837D01*
X115899Y-1768D01*
X115874Y-1699D01*
X115845Y-1630D01*
X115808Y-1564D01*
X115772Y-1506D01*
X115725Y-1448D01*
X115721Y-1444D01*
X115714Y-1437D01*
X115699Y-1422D01*
X115677Y-1400D01*
X115655Y-1379D01*
X115623Y-1357D01*
X115590Y-1328D01*
X115550Y-1302D01*
X115506Y-1277D01*
X115459Y-1248D01*
X115404Y-1226D01*
X115350Y-1200D01*
X115291Y-1182D01*
X115226Y-1168D01*
X115160Y-1160D01*
X115091Y-1157D01*
D02*
G37*
G36*
X147922Y93684D02*
X147885D01*
X147849Y93677D01*
X147790D01*
X147725Y93662D01*
X147645Y93655D01*
X147557Y93633D01*
X147462Y93611D01*
X147360Y93575D01*
X147258Y93538D01*
X147149Y93487D01*
X147039Y93429D01*
X146923Y93363D01*
X146813Y93276D01*
X146704Y93188D01*
X146602Y93079D01*
X146595Y93072D01*
X146580Y93050D01*
X146551Y93013D01*
X146515Y92969D01*
X146478Y92904D01*
X146434Y92831D01*
X146383Y92743D01*
X146332Y92649D01*
X146281Y92532D01*
X146230Y92408D01*
X146187Y92270D01*
X146150Y92116D01*
X146114Y91956D01*
X146084Y91781D01*
X146070Y91599D01*
X146063Y91402D01*
Y91395D01*
Y91373D01*
Y91336D01*
Y91285D01*
X146070Y91227D01*
Y91154D01*
X146077Y91081D01*
X146084Y90994D01*
X146114Y90804D01*
X146143Y90600D01*
X146194Y90381D01*
X146259Y90177D01*
X148971Y93312D01*
X148964Y93319D01*
X148950Y93327D01*
X148928Y93348D01*
X148891Y93370D01*
X148847Y93400D01*
X148796Y93429D01*
X148731Y93465D01*
X148665Y93502D01*
X148512Y93567D01*
X148330Y93625D01*
X148133Y93669D01*
X148031Y93677D01*
X147922Y93684D01*
D02*
G37*
G36*
X149562Y92466D02*
X146865Y89346D01*
X146872D01*
X146886Y89332D01*
X146908Y89317D01*
X146945Y89295D01*
X146988Y89273D01*
X147039Y89244D01*
X147098Y89215D01*
X147163Y89186D01*
X147317Y89128D01*
X147499Y89077D01*
X147696Y89040D01*
X147798Y89033D01*
X147907Y89025D01*
X147943D01*
X147980Y89033D01*
X148038D01*
X148104Y89047D01*
X148184Y89055D01*
X148272Y89077D01*
X148366Y89098D01*
X148468Y89128D01*
X148578Y89171D01*
X148687Y89215D01*
X148796Y89273D01*
X148913Y89339D01*
X149022Y89419D01*
X149132Y89514D01*
X149234Y89616D01*
X149241Y89623D01*
X149256Y89645D01*
X149285Y89682D01*
X149321Y89725D01*
X149358Y89791D01*
X149401Y89864D01*
X149452Y89951D01*
X149504Y90046D01*
X149555Y90163D01*
X149606Y90287D01*
X149649Y90425D01*
X149686Y90571D01*
X149722Y90731D01*
X149751Y90906D01*
X149766Y91089D01*
X149773Y91285D01*
Y91293D01*
Y91315D01*
Y91351D01*
Y91395D01*
X149766Y91453D01*
Y91519D01*
X149759Y91592D01*
X149744Y91679D01*
X149722Y91861D01*
X149686Y92058D01*
X149635Y92262D01*
X149562Y92466D01*
D02*
G37*
G36*
X117974Y96075D02*
X116837D01*
Y89397D01*
X118572D01*
X118652Y89405D01*
X118740D01*
X118834Y89412D01*
X119039Y89419D01*
X119243Y89441D01*
X119432Y89463D01*
X119520Y89477D01*
X119593Y89492D01*
X119600D01*
X119615Y89499D01*
X119644Y89507D01*
X119673Y89514D01*
X119717Y89529D01*
X119768Y89550D01*
X119884Y89594D01*
X120016Y89645D01*
X120147Y89718D01*
X120285Y89806D01*
X120416Y89908D01*
X120424Y89915D01*
X120431Y89922D01*
X120446Y89937D01*
X120475Y89966D01*
X120497Y89995D01*
X120533Y90039D01*
X120570Y90083D01*
X120606Y90141D01*
X120650Y90206D01*
X120694Y90279D01*
X120737Y90360D01*
X120781Y90447D01*
X120825Y90542D01*
X120868Y90651D01*
X120912Y90760D01*
X120949Y90885D01*
Y90892D01*
X120956Y90914D01*
X120970Y90957D01*
X120985Y91008D01*
X121000Y91074D01*
X121014Y91162D01*
X121036Y91256D01*
X121058Y91373D01*
X121072Y91497D01*
X121094Y91635D01*
X121109Y91781D01*
X121131Y91949D01*
X121138Y92124D01*
X121153Y92313D01*
X121160Y92517D01*
Y92729D01*
Y92743D01*
Y92780D01*
Y92838D01*
Y92918D01*
X121153Y93020D01*
Y93130D01*
X121145Y93254D01*
X121131Y93392D01*
X121124Y93531D01*
X121109Y93677D01*
X121072Y93975D01*
X121043Y94121D01*
X121021Y94267D01*
X120985Y94398D01*
X120949Y94522D01*
Y94529D01*
X120941Y94551D01*
X120927Y94581D01*
X120912Y94624D01*
X120890Y94675D01*
X120861Y94741D01*
X120803Y94879D01*
X120715Y95040D01*
X120621Y95200D01*
X120504Y95353D01*
X120373Y95499D01*
X120365Y95506D01*
X120358Y95514D01*
X120336Y95535D01*
X120307Y95557D01*
X120271Y95587D01*
X120227Y95616D01*
X120118Y95689D01*
X119979Y95769D01*
X119819Y95849D01*
X119629Y95915D01*
X119425Y95973D01*
X119418D01*
X119403Y95980D01*
X119374D01*
X119337Y95987D01*
X119287Y95995D01*
X119221Y96002D01*
X119148Y96017D01*
X119053Y96024D01*
X118951Y96031D01*
X118827Y96046D01*
X118689Y96053D01*
X118536Y96060D01*
X118368Y96068D01*
X118178D01*
X117974Y96075D01*
D02*
G37*
G36*
X172744Y93684D02*
X172678D01*
X172627Y93677D01*
X172569Y93669D01*
X172503Y93655D01*
X172423Y93640D01*
X172343Y93618D01*
X172256Y93589D01*
X172161Y93553D01*
X172066Y93509D01*
X171971Y93450D01*
X171877Y93392D01*
X171782Y93319D01*
X171687Y93232D01*
X171599Y93137D01*
X171592Y93130D01*
X171578Y93115D01*
X171556Y93079D01*
X171534Y93035D01*
X171497Y92977D01*
X171461Y92911D01*
X171417Y92824D01*
X171381Y92729D01*
X171337Y92620D01*
X171293Y92496D01*
X171257Y92364D01*
X171228Y92211D01*
X171199Y92051D01*
X171177Y91876D01*
X171162Y91694D01*
X171155Y91489D01*
Y91475D01*
Y91439D01*
Y91380D01*
X171162Y91300D01*
X171169Y91205D01*
X171177Y91096D01*
X171191Y90972D01*
X171213Y90841D01*
X171264Y90564D01*
X171301Y90425D01*
X171344Y90287D01*
X171395Y90148D01*
X171454Y90017D01*
X171519Y89900D01*
X171599Y89791D01*
X171607Y89784D01*
X171621Y89769D01*
X171643Y89740D01*
X171680Y89704D01*
X171723Y89667D01*
X171774Y89623D01*
X171840Y89572D01*
X171906Y89521D01*
X171986Y89470D01*
X172073Y89419D01*
X172263Y89339D01*
X172365Y89302D01*
X172474Y89273D01*
X172591Y89259D01*
X172715Y89252D01*
X172744D01*
X172781Y89259D01*
X172831D01*
X172897Y89266D01*
X172963Y89281D01*
X173043Y89295D01*
X173130Y89324D01*
X173225Y89354D01*
X173320Y89390D01*
X173415Y89434D01*
X173517Y89485D01*
X173619Y89550D01*
X173721Y89623D01*
X173816Y89711D01*
X173910Y89806D01*
X173918Y89813D01*
X173932Y89835D01*
X173954Y89864D01*
X173991Y89908D01*
X174027Y89966D01*
X174064Y90039D01*
X174107Y90119D01*
X174158Y90221D01*
X174202Y90330D01*
X174246Y90447D01*
X174282Y90586D01*
X174326Y90731D01*
X174355Y90892D01*
X174377Y91067D01*
X174392Y91249D01*
X174399Y91446D01*
Y91460D01*
Y91497D01*
Y91555D01*
X174392Y91628D01*
X174384Y91723D01*
X174377Y91832D01*
X174362Y91949D01*
X174341Y92080D01*
X174282Y92357D01*
X174246Y92496D01*
X174202Y92634D01*
X174144Y92765D01*
X174078Y92896D01*
X174005Y93020D01*
X173925Y93130D01*
X173918Y93137D01*
X173903Y93152D01*
X173874Y93181D01*
X173845Y93217D01*
X173794Y93261D01*
X173743Y93305D01*
X173677Y93356D01*
X173604Y93407D01*
X173524Y93458D01*
X173429Y93509D01*
X173335Y93553D01*
X173232Y93596D01*
X173116Y93633D01*
X172999Y93662D01*
X172875Y93677D01*
X172744Y93684D01*
D02*
G37*
%LPD*%
D10*
X2799Y41063D02*
X2012D01*
X2799D01*
X179535Y61492D02*
X178748D01*
X179535D01*
X131595Y61496D02*
X130807D01*
X131595D01*
X41984Y100657D02*
X41197D01*
X41984D01*
X18484D02*
X17697D01*
X18484D01*
X65484D02*
X64697D01*
X65484D01*
X88984D02*
X88197D01*
X88984D01*
X112484D02*
X111697D01*
X112484D01*
X135984D02*
X135197D01*
X135984D01*
X159484D02*
X158697D01*
X159484D01*
X182984Y100657D02*
X182197D01*
X182984D01*
X206484Y100657D02*
X205697D01*
X206484D01*
X229984Y100657D02*
X229196D01*
X229984D01*
X300709Y94528D02*
X300682Y95527D01*
X300604Y96523D01*
X300474Y97515D01*
X300291Y98497D01*
X300058Y99470D01*
X299774Y100428D01*
X299440Y101370D01*
X299058Y102294D01*
X298627Y103196D01*
X298150Y104075D01*
X297628Y104927D01*
X297062Y105751D01*
X296453Y106544D01*
X295804Y107304D01*
X295116Y108029D01*
X294391Y108718D01*
X293631Y109367D01*
X292838Y109975D01*
X292014Y110542D01*
X291161Y111064D01*
X290283Y111541D01*
X289381Y111971D01*
X288457Y112354D01*
X287515Y112688D01*
X286556Y112971D01*
X285584Y113205D01*
X284601Y113387D01*
X283610Y113517D01*
X282613Y113596D01*
X281614Y113622D01*
X280615Y113596D01*
X279618Y113517D01*
X278627Y113387D01*
X277644Y113205D01*
X276672Y112971D01*
X275714Y112688D01*
X274771Y112354D01*
X273848Y111971D01*
X272945Y111541D01*
X272067Y111064D01*
X271215Y110542D01*
X270391Y109975D01*
X269598Y109367D01*
X268837Y108718D01*
X268112Y108029D01*
X267424Y107304D01*
X266775Y106544D01*
X266166Y105751D01*
X265600Y104927D01*
X265078Y104075D01*
X264601Y103196D01*
X264171Y102294D01*
X263788Y101370D01*
X263454Y100428D01*
X263170Y99470D01*
X262937Y98497D01*
X262755Y97515D01*
X262624Y96523D01*
X262546Y95527D01*
X262520Y94528D01*
X262546Y93528D01*
X262624Y92532D01*
X262755Y91540D01*
X262937Y90558D01*
X263170Y89586D01*
X263454Y88627D01*
X263788Y87685D01*
X264171Y86761D01*
X264601Y85859D01*
X265078Y84980D01*
X265600Y84128D01*
X266166Y83304D01*
X266775Y82511D01*
X267424Y81751D01*
X268112Y81026D01*
X268837Y80338D01*
X269598Y79688D01*
X270391Y79080D01*
X271215Y78514D01*
X272067Y77991D01*
X272945Y77514D01*
X273848Y77084D01*
X274771Y76701D01*
X275714Y76368D01*
X276672Y76084D01*
X277644Y75850D01*
X278627Y75668D01*
X279618Y75538D01*
X280615Y75459D01*
X281614Y75433D01*
X282613Y75459D01*
X283610Y75538D01*
X284601Y75668D01*
X285584Y75850D01*
X286556Y76084D01*
X287515Y76368D01*
X288457Y76701D01*
X289381Y77084D01*
X290283Y77514D01*
X291161Y77991D01*
X292014Y78514D01*
X292838Y79080D01*
X293631Y79688D01*
X294391Y80338D01*
X295116Y81026D01*
X295804Y81751D01*
X296453Y82511D01*
X297062Y83304D01*
X297628Y84128D01*
X298150Y84980D01*
X298627Y85859D01*
X299058Y86761D01*
X299440Y87685D01*
X299774Y88627D01*
X300058Y89586D01*
X300291Y90558D01*
X300474Y91540D01*
X300604Y92532D01*
X300682Y93528D01*
X300709Y94528D01*
X129939Y128498D02*
X132991D01*
X129939Y137553D02*
X132991D01*
X112091Y128498D02*
X115143D01*
X112091D02*
Y128892D01*
Y129807D01*
X112091Y137553D02*
X115143D01*
X112091D02*
X112091Y136146D01*
Y129807D02*
Y136146D01*
X132991Y128498D02*
X132991Y137553D01*
X247439Y128498D02*
X250491D01*
X247439Y137553D02*
X250491D01*
X229591Y128498D02*
X232643D01*
X229591D02*
Y128892D01*
Y129807D01*
X229591Y137553D02*
X232643D01*
X229591D02*
X229591Y136146D01*
Y129807D02*
Y136146D01*
X250491Y128498D02*
X250491Y137553D01*
X223939Y128498D02*
X226991D01*
X223939Y137553D02*
X226991D01*
X206091Y128498D02*
X209143D01*
X206091D02*
Y128892D01*
Y129807D01*
X206091Y137553D02*
X209143D01*
X206091D02*
X206091Y136146D01*
Y129807D02*
Y136146D01*
X226991Y128498D02*
X226991Y137553D01*
X200439Y128498D02*
X203491D01*
X200439Y137553D02*
X203491D01*
X182591Y128498D02*
X185643D01*
X182591D02*
Y128892D01*
Y129807D01*
X182591Y137553D02*
X185643D01*
X182591D02*
X182591Y136146D01*
Y129807D02*
Y136146D01*
X203491Y128498D02*
X203491Y137553D01*
X176939Y128498D02*
X179991D01*
X176939Y137553D02*
X179991D01*
X159091Y128498D02*
X162143D01*
X159091D02*
Y128892D01*
Y129807D01*
X159091Y137553D02*
X162143D01*
X159091D02*
X159091Y136146D01*
Y129807D02*
Y136146D01*
X179991Y128498D02*
X179991Y137553D01*
X153439Y128498D02*
X156491D01*
X153439Y137553D02*
X156491D01*
X135591Y128498D02*
X138643D01*
X135591D02*
Y128892D01*
Y129807D01*
Y137553D02*
X138643D01*
X135591Y136146D02*
Y137553D01*
Y129807D02*
Y136146D01*
X156491Y128498D02*
Y137553D01*
X106439Y128498D02*
X109491D01*
X106439Y137553D02*
X109491D01*
X88591Y128498D02*
X91643D01*
X88591D02*
Y128892D01*
Y129807D01*
X88591Y137553D02*
X91643D01*
X88591D02*
X88591Y136146D01*
Y129807D02*
Y136146D01*
X109491Y128498D02*
X109491Y137553D01*
X82939Y128498D02*
X85991D01*
X82939Y137553D02*
X85991D01*
X65091Y128498D02*
X68143D01*
X65091D02*
Y128892D01*
Y129807D01*
X65091Y137553D02*
X68143D01*
X65091D02*
X65091Y136146D01*
Y129807D02*
Y136146D01*
X85991Y128498D02*
X85991Y137553D01*
X59439Y128498D02*
X62491D01*
X59439Y137553D02*
X62491D01*
X41591Y128498D02*
X44643D01*
X41591D02*
Y128892D01*
Y129807D01*
X41591Y137553D02*
X44643D01*
X41591D02*
X41591Y136146D01*
Y129807D02*
Y136146D01*
X62491Y128498D02*
X62491Y137553D01*
X35920Y128518D02*
X38972D01*
X35920Y137573D02*
X38972D01*
X18072Y128518D02*
X21124D01*
X18072D02*
Y128911D01*
Y129827D01*
X18072Y137573D02*
X21124D01*
X18072D02*
X18072Y136165D01*
Y129827D02*
Y136165D01*
X38972Y128518D02*
X38972Y137573D01*
D11*
X99380Y74807D02*
X98367Y74727D01*
X97373Y74517D01*
X96415Y74179D01*
X95509Y73721D01*
X94670Y73148D01*
X93912Y72472D01*
X93248Y71703D01*
X92689Y70855D01*
X92245Y69942D01*
X91923Y68978D01*
X91728Y67981D01*
X91664Y66967D01*
X91732Y65954D01*
X91931Y64958D01*
X92258Y63996D01*
X92706Y63084D01*
X93268Y62238D01*
X93936Y61472D01*
X94696Y60799D01*
X95538Y60231D01*
X96446Y59776D01*
X97406Y59443D01*
X98401Y59236D01*
X99414Y59161D01*
X245492Y48390D02*
X246468Y48486D01*
X247406Y48770D01*
X248270Y49232D01*
X249028Y49854D01*
X249650Y50612D01*
X250112Y51476D01*
X250396Y52414D01*
X250492Y53390D01*
X250396Y54365D01*
X250112Y55303D01*
X249650Y56168D01*
X249028Y56925D01*
X248270Y57547D01*
X247406Y58009D01*
X246468Y58294D01*
X245492Y58390D01*
X99488Y53866D02*
Y80071D01*
X244980Y44490D02*
Y62340D01*
Y44490D02*
X284042D01*
Y62340D01*
X244980D02*
X284042D01*
X111084Y41803D02*
X120785D01*
X111084D02*
Y44524D01*
X106757D02*
X111084D01*
X102430D02*
X106757D01*
X102430Y41803D02*
Y44524D01*
X92730Y41803D02*
X102430D01*
D12*
X158749Y73587D02*
X158986Y73685D01*
X206650Y73543D02*
X206888Y73642D01*
X206611Y61181D02*
X206848Y61279D01*
X158670Y61185D02*
X158907Y61283D01*
X158986Y73685D02*
Y82967D01*
X129311Y73587D02*
X158749D01*
X129311D02*
X129311Y82967D01*
X158986D01*
X177213Y82923D02*
X206888D01*
X177213Y73543D02*
X177213Y82923D01*
X177213Y73543D02*
X206650D01*
X206888Y73642D02*
Y82923D01*
X206848Y70561D02*
X206848Y61279D01*
X177173Y61181D02*
X206611D01*
X177173D02*
X177173Y70561D01*
X206848D01*
X129232Y70565D02*
X158907D01*
X129232D02*
X129232Y61185D01*
X158670D01*
X158907Y61283D02*
X158907Y70565D01*
X63938Y42728D02*
X63085Y43581D01*
X61379D01*
X60527Y42728D01*
Y39317D01*
X61379Y38465D01*
X63085D01*
X63938Y39317D01*
X69054Y38465D02*
X65643D01*
X69054Y41875D01*
Y42728D01*
X68201Y43581D01*
X66496D01*
X65643Y42728D01*
X74171Y43581D02*
X70760D01*
Y41023D01*
X72465Y41875D01*
X73318D01*
X74171Y41023D01*
Y39317D01*
X73318Y38465D01*
X71612D01*
X70760Y39317D01*
X74211Y94824D02*
X73358Y95676D01*
X71653D01*
X70800Y94824D01*
Y91413D01*
X71653Y90560D01*
X73358D01*
X74211Y91413D01*
X79327Y90560D02*
X75916D01*
X79327Y93971D01*
Y94824D01*
X78475Y95676D01*
X76769D01*
X75916Y94824D01*
X83591Y90560D02*
Y95676D01*
X81033Y93118D01*
X84444D01*
X260227Y55981D02*
Y51717D01*
X261080Y50865D01*
X262785D01*
X263638Y51717D01*
Y55981D01*
X268754D02*
X265343D01*
Y53423D01*
X267049Y54276D01*
X267901D01*
X268754Y53423D01*
Y51717D01*
X267901Y50865D01*
X266196D01*
X265343Y51717D01*
X18426Y4899D02*
Y10015D01*
X20984D01*
X21837Y9162D01*
Y7457D01*
X20984Y6604D01*
X18426D01*
X23542Y10015D02*
Y4899D01*
X25248Y6604D01*
X26954Y4899D01*
Y10015D01*
X28659Y4899D02*
Y10015D01*
X31217D01*
X32070Y9162D01*
Y7457D01*
X31217Y6604D01*
X28659D01*
X30365D02*
X32070Y4899D01*
X209776Y36695D02*
X214893D01*
Y39253D01*
X214040Y40106D01*
X213187D01*
X212335Y39253D01*
Y36695D01*
Y39253D01*
X211482Y40106D01*
X210629D01*
X209776Y39253D01*
Y36695D01*
Y41811D02*
Y45222D01*
Y43517D01*
X214893D01*
Y46927D02*
X209776D01*
X214893Y50339D01*
X209776D01*
X214893Y55455D02*
Y52044D01*
X211482Y55455D01*
X210629D01*
X209776Y54602D01*
Y52897D01*
X210629Y52044D01*
X161969Y37449D02*
X167086D01*
Y40007D01*
X166233Y40860D01*
X165380D01*
X164527Y40007D01*
Y37449D01*
Y40007D01*
X163675Y40860D01*
X162822D01*
X161969Y40007D01*
Y37449D01*
Y42565D02*
Y45976D01*
Y44271D01*
X167086D01*
Y47682D02*
X161969D01*
X167086Y51093D01*
X161969D01*
X167086Y52798D02*
Y54504D01*
Y53651D01*
X161969D01*
X162822Y52798D01*
X187727Y75665D02*
Y80781D01*
X190285D01*
X191138Y79928D01*
Y78223D01*
X190285Y77370D01*
X187727D01*
X189432D02*
X191138Y75665D01*
X195401D02*
Y80781D01*
X192843Y78223D01*
X196254D01*
X139827Y75765D02*
Y80881D01*
X142385D01*
X143238Y80028D01*
Y78323D01*
X142385Y77470D01*
X139827D01*
X141532D02*
X143238Y75765D01*
X144943Y80028D02*
X145796Y80881D01*
X147501D01*
X148354Y80028D01*
Y79176D01*
X147501Y78323D01*
X146649D01*
X147501D01*
X148354Y77470D01*
Y76617D01*
X147501Y75765D01*
X145796D01*
X144943Y76617D01*
X187627Y63265D02*
Y68381D01*
X190185D01*
X191038Y67528D01*
Y65823D01*
X190185Y64970D01*
X187627D01*
X189332D02*
X191038Y63265D01*
X196154D02*
X192743D01*
X196154Y66676D01*
Y67528D01*
X195301Y68381D01*
X193596D01*
X192743Y67528D01*
X140627Y63365D02*
Y68481D01*
X143185D01*
X144038Y67628D01*
Y65923D01*
X143185Y65070D01*
X140627D01*
X142332D02*
X144038Y63365D01*
X145743D02*
X147449D01*
X146596D01*
Y68481D01*
X145743Y67628D01*
D13*
X288862Y115957D02*
X288075D01*
X288862D01*
D14*
X3390Y20669D02*
Y29929D01*
X6634Y13488D02*
X23768D01*
X27012Y20669D02*
Y29929D01*
X6634Y37110D02*
X23768D01*
X183370Y57539D02*
X200504D01*
X203748Y41098D02*
Y50358D01*
X183370Y33917D02*
X200504D01*
X180126Y41098D02*
Y50358D01*
X135429Y57543D02*
X152563D01*
X155807Y41102D02*
Y50362D01*
X135429Y33921D02*
X152563D01*
X132185Y41102D02*
Y50362D01*
D15*
X38784Y15683D02*
X40846D01*
Y14652D01*
X40502Y14308D01*
X39815D01*
X39471Y14652D01*
Y15683D01*
Y14995D02*
X38784Y14308D01*
Y12246D02*
Y13621D01*
X40159Y12246D01*
X40502D01*
X40846Y12589D01*
Y13277D01*
X40502Y13621D01*
X40846Y10183D02*
X40502Y10871D01*
X39815Y11558D01*
X39127D01*
X38784Y11214D01*
Y10527D01*
X39127Y10183D01*
X39471D01*
X39815Y10527D01*
Y11558D01*
X33527Y39565D02*
Y41627D01*
X34558D01*
X34902Y41283D01*
Y40596D01*
X34558Y40252D01*
X33527D01*
X34214D02*
X34902Y39565D01*
X36964D02*
X35589D01*
X36964Y40939D01*
Y41283D01*
X36620Y41627D01*
X35933D01*
X35589Y41283D01*
X37651D02*
X37995Y41627D01*
X38683D01*
X39026Y41283D01*
Y39908D01*
X38683Y39565D01*
X37995D01*
X37651Y39908D01*
Y41283D01*
X39302Y36315D02*
X38958Y36658D01*
X38271D01*
X37927Y36315D01*
Y34940D01*
X38271Y34596D01*
X38958D01*
X39302Y34940D01*
X41364Y34596D02*
X39989D01*
X41364Y35971D01*
Y36315D01*
X41020Y36658D01*
X40333D01*
X39989Y36315D01*
X42051Y36658D02*
X43426D01*
Y36315D01*
X42051Y34940D01*
Y34596D01*
X38339Y95611D02*
Y97673D01*
X39371D01*
X39714Y97329D01*
Y96642D01*
X39371Y96298D01*
X38339D01*
X39027D02*
X39714Y95611D01*
X40402D02*
X41089D01*
X40745D01*
Y97673D01*
X40402Y97329D01*
X42120Y95954D02*
X42464Y95611D01*
X43152D01*
X43495Y95954D01*
Y97329D01*
X43152Y97673D01*
X42464D01*
X42120Y97329D01*
Y96986D01*
X42464Y96642D01*
X43495D01*
X26723Y91161D02*
Y89099D01*
X28098D01*
X30160Y91161D02*
X28785D01*
Y89099D01*
X30160D01*
X28785Y90130D02*
X29473D01*
X30848Y91161D02*
Y89099D01*
X31879D01*
X32223Y89442D01*
Y90817D01*
X31879Y91161D01*
X30848D01*
X32910Y90817D02*
X33254Y91161D01*
X33941D01*
X34285Y90817D01*
Y90474D01*
X33941Y90130D01*
X33597D01*
X33941D01*
X34285Y89786D01*
Y89442D01*
X33941Y89099D01*
X33254D01*
X32910Y89442D01*
X249502Y90383D02*
X249158Y90727D01*
X248470D01*
X248127Y90383D01*
Y89008D01*
X248470Y88665D01*
X249158D01*
X249502Y89008D01*
X251564Y88665D02*
X250189D01*
X251564Y90039D01*
Y90383D01*
X251220Y90727D01*
X250533D01*
X250189Y90383D01*
X253626Y90727D02*
X252939Y90383D01*
X252251Y89696D01*
Y89008D01*
X252595Y88665D01*
X253283D01*
X253626Y89008D01*
Y89352D01*
X253283Y89696D01*
X252251D01*
D16*
X114047Y45351D02*
Y50468D01*
X116605D01*
X117458Y49615D01*
Y47909D01*
X116605Y47057D01*
X114047D01*
X122575Y45351D02*
X119164D01*
X122575Y48762D01*
Y49615D01*
X121722Y50468D01*
X120017D01*
X119164Y49615D01*
D17*
X60427Y67932D02*
Y66293D01*
X60755Y65965D01*
X61411D01*
X61739Y66293D01*
Y67932D01*
X63706D02*
X63051Y67605D01*
X62395Y66948D01*
Y66293D01*
X62723Y65965D01*
X63379D01*
X63706Y66293D01*
Y66620D01*
X63379Y66948D01*
X62395D01*
X14010Y91142D02*
Y93110D01*
X14994D01*
X15322Y92782D01*
Y92126D01*
X14994Y91798D01*
X14010D01*
X14666D02*
X15322Y91142D01*
X15978D02*
X16634D01*
X16306D01*
Y93110D01*
X15978Y92782D01*
X17618Y91142D02*
X18274D01*
X17946D01*
Y93110D01*
X17618Y92782D01*
X-14271Y96260D02*
Y98228D01*
X-13287D01*
X-12959Y97900D01*
Y97244D01*
X-13287Y96916D01*
X-14271D01*
X-13615D02*
X-12959Y96260D01*
X-12303D02*
X-11647D01*
X-11975D01*
Y98228D01*
X-12303Y97900D01*
X-10663D02*
X-10335Y98228D01*
X-9679D01*
X-9351Y97900D01*
Y96588D01*
X-9679Y96260D01*
X-10335D01*
X-10663Y96588D01*
Y97900D01*
X237327Y114224D02*
Y112256D01*
X238311D01*
X238639Y112584D01*
Y113896D01*
X238311Y114224D01*
X237327D01*
X239295Y112256D02*
X239951D01*
X239623D01*
Y114224D01*
X239295Y113896D01*
X240934D02*
X241263Y114224D01*
X241918D01*
X242246Y113896D01*
Y112584D01*
X241918Y112256D01*
X241263D01*
X240934Y112584D01*
Y113896D01*
X214727Y114224D02*
Y112256D01*
X215711D01*
X216039Y112584D01*
Y113896D01*
X215711Y114224D01*
X214727D01*
X216695Y112584D02*
X217023Y112256D01*
X217678D01*
X218006Y112584D01*
Y113896D01*
X217678Y114224D01*
X217023D01*
X216695Y113896D01*
Y113568D01*
X217023Y113240D01*
X218006D01*
X191227Y114224D02*
Y112256D01*
X192211D01*
X192539Y112584D01*
Y113896D01*
X192211Y114224D01*
X191227D01*
X193195Y113896D02*
X193523Y114224D01*
X194178D01*
X194507Y113896D01*
Y113568D01*
X194178Y113240D01*
X194507Y112912D01*
Y112584D01*
X194178Y112256D01*
X193523D01*
X193195Y112584D01*
Y112912D01*
X193523Y113240D01*
X193195Y113568D01*
Y113896D01*
X193523Y113240D02*
X194178D01*
X167727Y114224D02*
Y112256D01*
X168711D01*
X169039Y112584D01*
Y113896D01*
X168711Y114224D01*
X167727D01*
X169695D02*
X171007D01*
Y113896D01*
X169695Y112584D01*
Y112256D01*
X144227Y114224D02*
Y112256D01*
X145211D01*
X145539Y112584D01*
Y113896D01*
X145211Y114224D01*
X144227D01*
X147506D02*
X146851Y113896D01*
X146195Y113240D01*
Y112584D01*
X146523Y112256D01*
X147178D01*
X147506Y112584D01*
Y112912D01*
X147178Y113240D01*
X146195D01*
X120727Y114224D02*
Y112256D01*
X121711D01*
X122039Y112584D01*
Y113896D01*
X121711Y114224D01*
X120727D01*
X124006D02*
X122695D01*
Y113240D01*
X123351Y113568D01*
X123679D01*
X124006Y113240D01*
Y112584D01*
X123679Y112256D01*
X123023D01*
X122695Y112584D01*
X97227Y114224D02*
Y112256D01*
X98211D01*
X98539Y112584D01*
Y113896D01*
X98211Y114224D01*
X97227D01*
X100179Y112256D02*
Y114224D01*
X99195Y113240D01*
X100506D01*
X73727Y114224D02*
Y112256D01*
X74711D01*
X75039Y112584D01*
Y113896D01*
X74711Y114224D01*
X73727D01*
X75695Y113896D02*
X76023Y114224D01*
X76679D01*
X77007Y113896D01*
Y113568D01*
X76679Y113240D01*
X76351D01*
X76679D01*
X77007Y112912D01*
Y112584D01*
X76679Y112256D01*
X76023D01*
X75695Y112584D01*
X38911Y126181D02*
Y124213D01*
X39895D01*
X40223Y124541D01*
Y125853D01*
X39895Y126181D01*
X38911D01*
X42191Y124213D02*
X40879D01*
X42191Y125525D01*
Y125853D01*
X41863Y126181D01*
X41207D01*
X40879Y125853D01*
X13649Y126181D02*
Y124213D01*
X14633D01*
X14961Y124541D01*
Y125853D01*
X14633Y126181D01*
X13649D01*
X15617Y124213D02*
X16273D01*
X15945D01*
Y126181D01*
X15617Y125853D01*
X238939Y133696D02*
X238611Y134024D01*
X237955D01*
X237627Y133696D01*
Y132384D01*
X237955Y132056D01*
X238611D01*
X238939Y132384D01*
X239595Y132056D02*
X240251D01*
X239923D01*
Y134024D01*
X239595Y133696D01*
X242546Y132056D02*
X241234D01*
X242546Y133368D01*
Y133696D01*
X242218Y134024D01*
X241563D01*
X241234Y133696D01*
X215739D02*
X215411Y134024D01*
X214755D01*
X214427Y133696D01*
Y132384D01*
X214755Y132056D01*
X215411D01*
X215739Y132384D01*
X216395Y132056D02*
X217051D01*
X216723D01*
Y134024D01*
X216395Y133696D01*
X218035Y132056D02*
X218690D01*
X218362D01*
Y134024D01*
X218035Y133696D01*
X191939D02*
X191611Y134024D01*
X190955D01*
X190627Y133696D01*
Y132384D01*
X190955Y132056D01*
X191611D01*
X191939Y132384D01*
X192595Y132056D02*
X193251D01*
X192923D01*
Y134024D01*
X192595Y133696D01*
X194235D02*
X194562Y134024D01*
X195218D01*
X195546Y133696D01*
Y132384D01*
X195218Y132056D01*
X194562D01*
X194235Y132384D01*
Y133696D01*
X169239D02*
X168911Y134024D01*
X168255D01*
X167927Y133696D01*
Y132384D01*
X168255Y132056D01*
X168911D01*
X169239Y132384D01*
X169895D02*
X170223Y132056D01*
X170879D01*
X171206Y132384D01*
Y133696D01*
X170879Y134024D01*
X170223D01*
X169895Y133696D01*
Y133368D01*
X170223Y133040D01*
X171206D01*
X145739Y133696D02*
X145411Y134024D01*
X144755D01*
X144427Y133696D01*
Y132384D01*
X144755Y132056D01*
X145411D01*
X145739Y132384D01*
X146395Y133696D02*
X146723Y134024D01*
X147379D01*
X147706Y133696D01*
Y133368D01*
X147379Y133040D01*
X147706Y132712D01*
Y132384D01*
X147379Y132056D01*
X146723D01*
X146395Y132384D01*
Y132712D01*
X146723Y133040D01*
X146395Y133368D01*
Y133696D01*
X146723Y133040D02*
X147379D01*
X122239Y133696D02*
X121911Y134024D01*
X121255D01*
X120927Y133696D01*
Y132384D01*
X121255Y132056D01*
X121911D01*
X122239Y132384D01*
X122895Y134024D02*
X124206D01*
Y133696D01*
X122895Y132384D01*
Y132056D01*
X98739Y133696D02*
X98411Y134024D01*
X97755D01*
X97427Y133696D01*
Y132384D01*
X97755Y132056D01*
X98411D01*
X98739Y132384D01*
X100707Y134024D02*
X100051Y133696D01*
X99395Y133040D01*
Y132384D01*
X99723Y132056D01*
X100379D01*
X100707Y132384D01*
Y132712D01*
X100379Y133040D01*
X99395D01*
X75239Y133696D02*
X74911Y134024D01*
X74255D01*
X73927Y133696D01*
Y132384D01*
X74255Y132056D01*
X74911D01*
X75239Y132384D01*
X77206Y134024D02*
X75895D01*
Y133040D01*
X76551Y133368D01*
X76878D01*
X77206Y133040D01*
Y132384D01*
X76878Y132056D01*
X76223D01*
X75895Y132384D01*
X51739Y133696D02*
X51411Y134024D01*
X50755D01*
X50427Y133696D01*
Y132384D01*
X50755Y132056D01*
X51411D01*
X51739Y132384D01*
X53378Y132056D02*
Y134024D01*
X52395Y133040D01*
X53707D01*
X28239Y133696D02*
X27911Y134024D01*
X27255D01*
X26927Y133696D01*
Y132384D01*
X27255Y132056D01*
X27911D01*
X28239Y132384D01*
X28895Y133696D02*
X29223Y134024D01*
X29879D01*
X30207Y133696D01*
Y133368D01*
X29879Y133040D01*
X29551D01*
X29879D01*
X30207Y132712D01*
Y132384D01*
X29879Y132056D01*
X29223D01*
X28895Y132384D01*
M02*
