G04*
G04 #@! TF.GenerationSoftware,Altium Limited,Altium Designer,24.3.1 (35)*
G04*
G04 Layer_Color=128*
%FSLAX25Y25*%
%MOIN*%
G70*
G04*
G04 #@! TF.SameCoordinates,B31CD4F0-C50D-4F02-9F32-B226106F2F3E*
G04*
G04*
G04 #@! TF.FilePolarity,Positive*
G04*
G01*
G75*
%ADD18R,0.03150X0.03150*%
%ADD19R,0.03937X0.04921*%
%ADD20R,0.03150X0.03150*%
%ADD21R,0.03937X0.03740*%
%ADD28R,0.04331X0.06299*%
%ADD65R,0.04724X0.03150*%
%ADD66R,0.03740X0.02362*%
%ADD67R,0.03150X0.04724*%
%ADD68R,0.05906X0.18898*%
%ADD69R,0.02598X0.01221*%
%ADD70R,0.06299X0.04331*%
D18*
X82667Y63465D02*
D03*
Y68976D02*
D03*
X262825Y83035D02*
D03*
Y77524D02*
D03*
X256358D02*
D03*
Y83035D02*
D03*
X250571D02*
D03*
Y77524D02*
D03*
X272579Y30476D02*
D03*
Y24965D02*
D03*
X266910Y30437D02*
D03*
Y24925D02*
D03*
X286319Y54098D02*
D03*
Y59610D02*
D03*
X280492Y59531D02*
D03*
Y54020D02*
D03*
X260492Y25004D02*
D03*
Y30516D02*
D03*
X104461Y61102D02*
D03*
Y66614D02*
D03*
D19*
X230059Y40437D02*
D03*
X237933D02*
D03*
X106941Y75472D02*
D03*
X114815D02*
D03*
D20*
X260669Y51929D02*
D03*
X255157D02*
D03*
X232421Y47957D02*
D03*
X237933D02*
D03*
X268799Y77524D02*
D03*
X274311D02*
D03*
X237933Y74256D02*
D03*
X232421D02*
D03*
X237197Y55876D02*
D03*
X242709D02*
D03*
X279705Y25122D02*
D03*
X285216D02*
D03*
X279705Y30516D02*
D03*
X285216D02*
D03*
X260610Y46815D02*
D03*
X255098D02*
D03*
X273169D02*
D03*
X267657D02*
D03*
Y60240D02*
D03*
X273169D02*
D03*
X267657Y53902D02*
D03*
X273169D02*
D03*
X248839Y30516D02*
D03*
X254350D02*
D03*
X113358Y82559D02*
D03*
X107846D02*
D03*
D21*
X-1969Y57461D02*
D03*
X4331D02*
D03*
X4370Y50611D02*
D03*
X-1929D02*
D03*
X-1378Y42126D02*
D03*
X4921Y42126D02*
D03*
D28*
X134988Y65693D02*
D03*
X148374D02*
D03*
X182890Y65650D02*
D03*
X196276D02*
D03*
D65*
X249570Y52027D02*
D03*
X249570Y60886D02*
D03*
D66*
X232224Y60831D02*
D03*
X232224Y64571D02*
D03*
X232224Y68311D02*
D03*
X242854D02*
D03*
Y60831D02*
D03*
X87846Y68976D02*
D03*
Y61496D02*
D03*
X98476Y61496D02*
D03*
X98476Y65236D02*
D03*
X98476Y68976D02*
D03*
D67*
X27067Y67131D02*
D03*
X35925D02*
D03*
X10772Y33637D02*
D03*
X19630D02*
D03*
D68*
X4240Y79370D02*
D03*
X-6784D02*
D03*
D69*
X1083Y62461D02*
D03*
Y64429D02*
D03*
Y66398D02*
D03*
X6870D02*
D03*
Y64429D02*
D03*
Y62461D02*
D03*
D70*
X-9567Y51850D02*
D03*
Y65236D02*
D03*
X13189Y74272D02*
D03*
X13189Y60886D02*
D03*
M02*
