G04*
G04 #@! TF.GenerationSoftware,Altium Limited,Altium Designer,24.3.1 (35)*
G04*
G04 Layer_Color=8388736*
%FSLAX25Y25*%
%MOIN*%
G70*
G04*
G04 #@! TF.SameCoordinates,B31CD4F0-C50D-4F02-9F32-B226106F2F3E*
G04*
G04*
G04 #@! TF.FilePolarity,Negative*
G04*
G01*
G75*
%ADD24R,0.03950X0.03950*%
%ADD25R,0.04737X0.05721*%
%ADD26R,0.03950X0.03950*%
%ADD27R,0.04331X0.04134*%
%ADD28R,0.04331X0.06299*%
%ADD29R,0.05512X0.06299*%
%ADD30R,0.08268X0.06299*%
%ADD31C,0.06299*%
%ADD32O,0.06299X0.08268*%
%ADD33R,0.06299X0.08268*%
%ADD34C,0.16535*%
%ADD35C,0.06331*%
%ADD36R,0.06331X0.06331*%
%ADD37R,0.08268X0.08268*%
%ADD38C,0.08268*%
%ADD39C,0.08674*%
%ADD40R,0.08674X0.08674*%
%ADD41C,0.07480*%
%ADD42R,0.07480X0.07480*%
%ADD43C,0.02165*%
%ADD44C,0.02572*%
D24*
X35484Y23161D02*
D03*
Y17650D02*
D03*
Y34284D02*
D03*
Y28772D02*
D03*
X40522Y23260D02*
D03*
Y28772D02*
D03*
X250356Y82961D02*
D03*
Y77449D02*
D03*
D25*
X47397Y90271D02*
D03*
X39523D02*
D03*
D26*
X53224Y96433D02*
D03*
X47713D02*
D03*
D27*
X8898Y97441D02*
D03*
X15197Y97441D02*
D03*
X-3799Y97441D02*
D03*
X2500D02*
D03*
D28*
X45527Y102626D02*
D03*
X51827D02*
D03*
X58126D02*
D03*
Y123886D02*
D03*
X51827D02*
D03*
X45527D02*
D03*
X22027D02*
D03*
X28327D02*
D03*
X34626D02*
D03*
Y102626D02*
D03*
X28327D02*
D03*
X22027D02*
D03*
X69028D02*
D03*
X75327D02*
D03*
X81626D02*
D03*
Y123886D02*
D03*
X75327D02*
D03*
X69028D02*
D03*
X92528D02*
D03*
X98827D02*
D03*
X105126D02*
D03*
Y102626D02*
D03*
X98827D02*
D03*
X92528D02*
D03*
X116027D02*
D03*
X122327D02*
D03*
X128626D02*
D03*
Y123886D02*
D03*
X122327D02*
D03*
X116027D02*
D03*
X139527D02*
D03*
X145827D02*
D03*
X152126D02*
D03*
Y102626D02*
D03*
X145827D02*
D03*
X139527D02*
D03*
X163028D02*
D03*
X169327D02*
D03*
X175626D02*
D03*
Y123886D02*
D03*
X169327D02*
D03*
X163028D02*
D03*
X186527Y123886D02*
D03*
X192827D02*
D03*
X199126D02*
D03*
Y102626D02*
D03*
X192827D02*
D03*
X186527D02*
D03*
X210027Y102626D02*
D03*
X216327D02*
D03*
X222626D02*
D03*
Y123885D02*
D03*
X216327D02*
D03*
X210027D02*
D03*
X233527Y123885D02*
D03*
X239826D02*
D03*
X246125D02*
D03*
Y102625D02*
D03*
X239826D02*
D03*
X233527D02*
D03*
D29*
X116430Y132976D02*
D03*
X128626Y132933D02*
D03*
X233930Y132976D02*
D03*
X246126Y132933D02*
D03*
X210430Y132976D02*
D03*
X222626Y132933D02*
D03*
X186930Y132976D02*
D03*
X199126Y132933D02*
D03*
X163430Y132976D02*
D03*
X175626Y132933D02*
D03*
X139930Y132976D02*
D03*
X152126Y132933D02*
D03*
X92930Y132976D02*
D03*
X105126Y132933D02*
D03*
X69430Y132976D02*
D03*
X81626Y132933D02*
D03*
X45930Y132976D02*
D03*
X58126Y132933D02*
D03*
X22411Y132996D02*
D03*
X34606Y132953D02*
D03*
D30*
X96757Y25807D02*
D03*
D31*
X106757D02*
D03*
X116757D02*
D03*
Y35807D02*
D03*
X106757D02*
D03*
X96757D02*
D03*
X92090Y92386D02*
D03*
X62563D02*
D03*
X52563Y40862D02*
D03*
X82091D02*
D03*
D32*
Y51933D02*
D03*
X92090D02*
D03*
X72091D02*
D03*
X62090D02*
D03*
X52091D02*
D03*
X42090D02*
D03*
X32090D02*
D03*
Y81933D02*
D03*
X42090Y81933D02*
D03*
X52091D02*
D03*
X62090D02*
D03*
X72091D02*
D03*
X82091D02*
D03*
D33*
X92090Y81933D02*
D03*
D34*
X287402Y0D02*
D03*
Y129921D02*
D03*
X0D02*
D03*
Y0D02*
D03*
D35*
X27996Y16441D02*
D03*
X2406D02*
D03*
X27996Y34157D02*
D03*
X204732Y54587D02*
D03*
Y36870D02*
D03*
X179142D02*
D03*
X156791Y54591D02*
D03*
Y36874D02*
D03*
X131201D02*
D03*
D36*
X2406Y34157D02*
D03*
X179142Y54587D02*
D03*
X131201Y54591D02*
D03*
D37*
X-9673Y21028D02*
D03*
D38*
Y31028D02*
D03*
D39*
X250492Y68390D02*
D03*
X260492D02*
D03*
X270492D02*
D03*
X280492D02*
D03*
Y38390D02*
D03*
X270492D02*
D03*
X260492D02*
D03*
D40*
X250492D02*
D03*
D41*
X124390Y78095D02*
D03*
X163760D02*
D03*
X211661Y78051D02*
D03*
X172291D02*
D03*
X172252Y65689D02*
D03*
X211622D02*
D03*
X163681Y65693D02*
D03*
X124311D02*
D03*
X276614Y102402D02*
D03*
D42*
X286614D02*
D03*
D43*
X78649Y63502D02*
D03*
X77549Y69882D02*
D03*
Y67835D02*
D03*
X236472Y64571D02*
D03*
X268783Y85563D02*
D03*
X62937Y102626D02*
D03*
X15197Y102402D02*
D03*
X289823Y25122D02*
D03*
X286319Y49610D02*
D03*
X278405Y45437D02*
D03*
X255413Y73075D02*
D03*
X280492Y49531D02*
D03*
X279193Y77524D02*
D03*
X232421Y52720D02*
D03*
X225492Y40437D02*
D03*
X232224Y79925D02*
D03*
X232224Y77878D02*
D03*
X241909Y74256D02*
D03*
X154787Y65693D02*
D03*
X94776Y65433D02*
D03*
X102335Y75472D02*
D03*
X108988Y60866D02*
D03*
X202689Y65650D02*
D03*
X86437Y102626D02*
D03*
X156937D02*
D03*
X39437D02*
D03*
X15236Y80650D02*
D03*
X15236Y78603D02*
D03*
X13189Y80650D02*
D03*
Y78603D02*
D03*
X9173Y42126D02*
D03*
X-6024Y42126D02*
D03*
X-5551Y60905D02*
D03*
X108516Y66540D02*
D03*
X9252Y50611D02*
D03*
X11142Y54508D02*
D03*
Y56555D02*
D03*
X13189D02*
D03*
Y54508D02*
D03*
X-13740Y67520D02*
D03*
X-13740Y69567D02*
D03*
X-13740Y71614D02*
D03*
X-13740Y73662D02*
D03*
X-13740Y75709D02*
D03*
X-13740Y77756D02*
D03*
X-13740Y83898D02*
D03*
X-13740Y81850D02*
D03*
X-13740Y79803D02*
D03*
X-11614Y47520D02*
D03*
X-9567Y47520D02*
D03*
X-7520Y47520D02*
D03*
X11142Y78603D02*
D03*
Y80650D02*
D03*
X45911Y140161D02*
D03*
X186930Y140142D02*
D03*
X111035Y60866D02*
D03*
X15236Y54508D02*
D03*
Y56555D02*
D03*
X-9567Y45472D02*
D03*
X-7520D02*
D03*
X-11614D02*
D03*
X246126Y140098D02*
D03*
X233930Y140142D02*
D03*
X175626Y140098D02*
D03*
X163411Y140161D02*
D03*
X199126Y140098D02*
D03*
X210430Y140142D02*
D03*
X222626Y140098D02*
D03*
X105126D02*
D03*
X92911Y140161D02*
D03*
X116430Y140142D02*
D03*
X128626Y140098D02*
D03*
X139930Y140142D02*
D03*
X152126Y140098D02*
D03*
X81606Y140118D02*
D03*
X69411Y140161D02*
D03*
X58106Y140118D02*
D03*
X22391Y140181D02*
D03*
X34606Y140118D02*
D03*
X250936Y102625D02*
D03*
X227437Y102626D02*
D03*
X203937Y102626D02*
D03*
X180437Y102626D02*
D03*
X133437D02*
D03*
X109937D02*
D03*
D44*
X46169Y66421D02*
D03*
X70866Y59055D02*
D03*
X35484Y13606D02*
D03*
X40522Y19124D02*
D03*
X245854Y82961D02*
D03*
X34638Y93902D02*
D03*
X237197Y52248D02*
D03*
M02*
